%
M48
M72
T01C0.0240
T02C0.0354
T03C0.0382
T04C0.0400
T05C0.0787
T06C0.0823
T07C0.0866
T08C0.1280
%
T01
X8300Y12357
X11400Y10357
X12700Y11557
X13500Y9657
X16600Y10457
X11800Y5857
X13400Y2257
X15800Y2257
T02
X15350Y15007
X14850Y16007
X15850Y16007
X16350Y15007
X16850Y16007
X17350Y15007
X10850Y15007
X10350Y16007
X9850Y15007
X9350Y16007
X8850Y15007
X8350Y16007
T03
X3966Y5139
X3974Y6131
T04
X8350Y9257
X10100Y4757
X12600Y6257
X14600Y6257
X16850Y6257
T05
X1494Y11726
T06
X1974Y7131
X5974Y3131
T07
X5234Y11726
T08
X7600Y18507
X11600Y18507
X14100Y18507
X18100Y18507
M30
