G75*
%MOIN*%
%OFA0B0*%
%FSLAX24Y24*%
%IPPOS*%
%LPD*%
%AMOC8*
5,1,8,0,0,1.08239X$1,22.5*
%
%ADD10C,0.0000*%
%ADD11C,0.0662*%
%ADD12C,0.1303*%
%ADD13OC8,0.1261*%
%ADD14OC8,0.1346*%
%ADD15R,0.0200X0.0434*%
%ADD16C,0.0634*%
%ADD17C,0.1360*%
%ADD18R,0.0710X0.0789*%
%ADD19R,0.0710X0.0790*%
%ADD20R,0.0790X0.0710*%
%ADD21R,0.0316X0.0946*%
%ADD22R,0.0789X0.0710*%
%ADD23OC8,0.0680*%
%ADD24C,0.0480*%
D10*
X000100Y001257D02*
X000100Y020753D01*
X019470Y020753D01*
X019470Y001257D01*
X000100Y001257D01*
X006960Y018507D02*
X006962Y018557D01*
X006968Y018607D01*
X006978Y018656D01*
X006991Y018705D01*
X007009Y018752D01*
X007030Y018798D01*
X007054Y018841D01*
X007082Y018883D01*
X007113Y018923D01*
X007147Y018960D01*
X007184Y018994D01*
X007224Y019025D01*
X007266Y019053D01*
X007309Y019077D01*
X007355Y019098D01*
X007402Y019116D01*
X007451Y019129D01*
X007500Y019139D01*
X007550Y019145D01*
X007600Y019147D01*
X007650Y019145D01*
X007700Y019139D01*
X007749Y019129D01*
X007798Y019116D01*
X007845Y019098D01*
X007891Y019077D01*
X007934Y019053D01*
X007976Y019025D01*
X008016Y018994D01*
X008053Y018960D01*
X008087Y018923D01*
X008118Y018883D01*
X008146Y018841D01*
X008170Y018798D01*
X008191Y018752D01*
X008209Y018705D01*
X008222Y018656D01*
X008232Y018607D01*
X008238Y018557D01*
X008240Y018507D01*
X008238Y018457D01*
X008232Y018407D01*
X008222Y018358D01*
X008209Y018309D01*
X008191Y018262D01*
X008170Y018216D01*
X008146Y018173D01*
X008118Y018131D01*
X008087Y018091D01*
X008053Y018054D01*
X008016Y018020D01*
X007976Y017989D01*
X007934Y017961D01*
X007891Y017937D01*
X007845Y017916D01*
X007798Y017898D01*
X007749Y017885D01*
X007700Y017875D01*
X007650Y017869D01*
X007600Y017867D01*
X007550Y017869D01*
X007500Y017875D01*
X007451Y017885D01*
X007402Y017898D01*
X007355Y017916D01*
X007309Y017937D01*
X007266Y017961D01*
X007224Y017989D01*
X007184Y018020D01*
X007147Y018054D01*
X007113Y018091D01*
X007082Y018131D01*
X007054Y018173D01*
X007030Y018216D01*
X007009Y018262D01*
X006991Y018309D01*
X006978Y018358D01*
X006968Y018407D01*
X006962Y018457D01*
X006960Y018507D01*
X010960Y018507D02*
X010962Y018557D01*
X010968Y018607D01*
X010978Y018656D01*
X010991Y018705D01*
X011009Y018752D01*
X011030Y018798D01*
X011054Y018841D01*
X011082Y018883D01*
X011113Y018923D01*
X011147Y018960D01*
X011184Y018994D01*
X011224Y019025D01*
X011266Y019053D01*
X011309Y019077D01*
X011355Y019098D01*
X011402Y019116D01*
X011451Y019129D01*
X011500Y019139D01*
X011550Y019145D01*
X011600Y019147D01*
X011650Y019145D01*
X011700Y019139D01*
X011749Y019129D01*
X011798Y019116D01*
X011845Y019098D01*
X011891Y019077D01*
X011934Y019053D01*
X011976Y019025D01*
X012016Y018994D01*
X012053Y018960D01*
X012087Y018923D01*
X012118Y018883D01*
X012146Y018841D01*
X012170Y018798D01*
X012191Y018752D01*
X012209Y018705D01*
X012222Y018656D01*
X012232Y018607D01*
X012238Y018557D01*
X012240Y018507D01*
X012238Y018457D01*
X012232Y018407D01*
X012222Y018358D01*
X012209Y018309D01*
X012191Y018262D01*
X012170Y018216D01*
X012146Y018173D01*
X012118Y018131D01*
X012087Y018091D01*
X012053Y018054D01*
X012016Y018020D01*
X011976Y017989D01*
X011934Y017961D01*
X011891Y017937D01*
X011845Y017916D01*
X011798Y017898D01*
X011749Y017885D01*
X011700Y017875D01*
X011650Y017869D01*
X011600Y017867D01*
X011550Y017869D01*
X011500Y017875D01*
X011451Y017885D01*
X011402Y017898D01*
X011355Y017916D01*
X011309Y017937D01*
X011266Y017961D01*
X011224Y017989D01*
X011184Y018020D01*
X011147Y018054D01*
X011113Y018091D01*
X011082Y018131D01*
X011054Y018173D01*
X011030Y018216D01*
X011009Y018262D01*
X010991Y018309D01*
X010978Y018358D01*
X010968Y018407D01*
X010962Y018457D01*
X010960Y018507D01*
X013460Y018507D02*
X013462Y018557D01*
X013468Y018607D01*
X013478Y018656D01*
X013491Y018705D01*
X013509Y018752D01*
X013530Y018798D01*
X013554Y018841D01*
X013582Y018883D01*
X013613Y018923D01*
X013647Y018960D01*
X013684Y018994D01*
X013724Y019025D01*
X013766Y019053D01*
X013809Y019077D01*
X013855Y019098D01*
X013902Y019116D01*
X013951Y019129D01*
X014000Y019139D01*
X014050Y019145D01*
X014100Y019147D01*
X014150Y019145D01*
X014200Y019139D01*
X014249Y019129D01*
X014298Y019116D01*
X014345Y019098D01*
X014391Y019077D01*
X014434Y019053D01*
X014476Y019025D01*
X014516Y018994D01*
X014553Y018960D01*
X014587Y018923D01*
X014618Y018883D01*
X014646Y018841D01*
X014670Y018798D01*
X014691Y018752D01*
X014709Y018705D01*
X014722Y018656D01*
X014732Y018607D01*
X014738Y018557D01*
X014740Y018507D01*
X014738Y018457D01*
X014732Y018407D01*
X014722Y018358D01*
X014709Y018309D01*
X014691Y018262D01*
X014670Y018216D01*
X014646Y018173D01*
X014618Y018131D01*
X014587Y018091D01*
X014553Y018054D01*
X014516Y018020D01*
X014476Y017989D01*
X014434Y017961D01*
X014391Y017937D01*
X014345Y017916D01*
X014298Y017898D01*
X014249Y017885D01*
X014200Y017875D01*
X014150Y017869D01*
X014100Y017867D01*
X014050Y017869D01*
X014000Y017875D01*
X013951Y017885D01*
X013902Y017898D01*
X013855Y017916D01*
X013809Y017937D01*
X013766Y017961D01*
X013724Y017989D01*
X013684Y018020D01*
X013647Y018054D01*
X013613Y018091D01*
X013582Y018131D01*
X013554Y018173D01*
X013530Y018216D01*
X013509Y018262D01*
X013491Y018309D01*
X013478Y018358D01*
X013468Y018407D01*
X013462Y018457D01*
X013460Y018507D01*
X017460Y018507D02*
X017462Y018557D01*
X017468Y018607D01*
X017478Y018656D01*
X017491Y018705D01*
X017509Y018752D01*
X017530Y018798D01*
X017554Y018841D01*
X017582Y018883D01*
X017613Y018923D01*
X017647Y018960D01*
X017684Y018994D01*
X017724Y019025D01*
X017766Y019053D01*
X017809Y019077D01*
X017855Y019098D01*
X017902Y019116D01*
X017951Y019129D01*
X018000Y019139D01*
X018050Y019145D01*
X018100Y019147D01*
X018150Y019145D01*
X018200Y019139D01*
X018249Y019129D01*
X018298Y019116D01*
X018345Y019098D01*
X018391Y019077D01*
X018434Y019053D01*
X018476Y019025D01*
X018516Y018994D01*
X018553Y018960D01*
X018587Y018923D01*
X018618Y018883D01*
X018646Y018841D01*
X018670Y018798D01*
X018691Y018752D01*
X018709Y018705D01*
X018722Y018656D01*
X018732Y018607D01*
X018738Y018557D01*
X018740Y018507D01*
X018738Y018457D01*
X018732Y018407D01*
X018722Y018358D01*
X018709Y018309D01*
X018691Y018262D01*
X018670Y018216D01*
X018646Y018173D01*
X018618Y018131D01*
X018587Y018091D01*
X018553Y018054D01*
X018516Y018020D01*
X018476Y017989D01*
X018434Y017961D01*
X018391Y017937D01*
X018345Y017916D01*
X018298Y017898D01*
X018249Y017885D01*
X018200Y017875D01*
X018150Y017869D01*
X018100Y017867D01*
X018050Y017869D01*
X018000Y017875D01*
X017951Y017885D01*
X017902Y017898D01*
X017855Y017916D01*
X017809Y017937D01*
X017766Y017961D01*
X017724Y017989D01*
X017684Y018020D01*
X017647Y018054D01*
X017613Y018091D01*
X017582Y018131D01*
X017554Y018173D01*
X017530Y018216D01*
X017509Y018262D01*
X017491Y018309D01*
X017478Y018358D01*
X017468Y018407D01*
X017462Y018457D01*
X017460Y018507D01*
D11*
X004265Y006131D02*
X003683Y006131D01*
X003675Y005139D02*
X004257Y005139D01*
D12*
X005974Y003131D03*
X001974Y007131D03*
D13*
X001494Y011726D03*
D14*
X005234Y011726D03*
D15*
X017086Y010275D03*
X017441Y010275D03*
X017815Y010275D03*
X017815Y009330D03*
X017441Y009330D03*
X017086Y009330D03*
D16*
X017350Y015007D03*
X016850Y016007D03*
X016350Y015007D03*
X015850Y016007D03*
X015350Y015007D03*
X014850Y016007D03*
X010850Y015007D03*
X010350Y016007D03*
X009850Y015007D03*
X009350Y016007D03*
X008850Y015007D03*
X008350Y016007D03*
D17*
X007600Y018507D03*
X011600Y018507D03*
X014100Y018507D03*
X018100Y018507D03*
D18*
X011151Y013257D03*
X010049Y013257D03*
D19*
X008660Y013257D03*
X007540Y013257D03*
X012540Y013257D03*
X013660Y013257D03*
X015040Y013257D03*
X016160Y013257D03*
X011160Y006257D03*
X010040Y006257D03*
X011540Y004757D03*
X012660Y004757D03*
D20*
X016600Y003317D03*
X016600Y002197D03*
X008600Y004697D03*
X008600Y005817D03*
D21*
X011850Y008734D03*
X012350Y008734D03*
X012850Y008734D03*
X013350Y008734D03*
X013850Y008734D03*
X014350Y008734D03*
X014850Y008734D03*
X014850Y010781D03*
X014350Y010781D03*
X013850Y010781D03*
X013350Y010781D03*
X012850Y010781D03*
X012350Y010781D03*
X011850Y010781D03*
D22*
X012600Y003308D03*
X012600Y002206D03*
X010600Y002206D03*
X010600Y003308D03*
X008600Y003308D03*
X008600Y002206D03*
D23*
X010100Y004757D03*
X012600Y006257D03*
X014600Y006257D03*
X016850Y006257D03*
X008350Y009257D03*
D24*
X008300Y012357D03*
X011400Y010357D03*
X012700Y011557D03*
X013500Y009657D03*
X016600Y010457D03*
X011800Y005857D03*
X013400Y002257D03*
X015800Y002257D03*
M02*
