G75*
%MOIN*%
%OFA0B0*%
%FSLAX24Y24*%
%IPPOS*%
%LPD*%
%AMOC8*
5,1,8,0,0,1.08239X$1,22.5*
%
%ADD10C,0.0000*%
%ADD11C,0.0050*%
%ADD12C,0.0662*%
%ADD13C,0.1303*%
%ADD14OC8,0.1261*%
%ADD15OC8,0.1346*%
%ADD16R,0.0200X0.0434*%
%ADD17C,0.0010*%
%ADD18C,0.0080*%
%ADD19C,0.0634*%
%ADD20R,0.0364X0.0450*%
%ADD21C,0.1360*%
%ADD22R,0.0710X0.0789*%
%ADD23R,0.0710X0.0790*%
%ADD24R,0.0790X0.0710*%
%ADD25R,0.0316X0.0946*%
%ADD26R,0.0789X0.0710*%
%ADD27C,0.0060*%
%ADD28OC8,0.0680*%
%ADD29C,0.0480*%
D10*
X000100Y001257D02*
X000100Y020753D01*
X019470Y020753D01*
X019470Y001257D01*
X000100Y001257D01*
X006960Y018507D02*
X006962Y018557D01*
X006968Y018607D01*
X006978Y018656D01*
X006991Y018705D01*
X007009Y018752D01*
X007030Y018798D01*
X007054Y018841D01*
X007082Y018883D01*
X007113Y018923D01*
X007147Y018960D01*
X007184Y018994D01*
X007224Y019025D01*
X007266Y019053D01*
X007309Y019077D01*
X007355Y019098D01*
X007402Y019116D01*
X007451Y019129D01*
X007500Y019139D01*
X007550Y019145D01*
X007600Y019147D01*
X007650Y019145D01*
X007700Y019139D01*
X007749Y019129D01*
X007798Y019116D01*
X007845Y019098D01*
X007891Y019077D01*
X007934Y019053D01*
X007976Y019025D01*
X008016Y018994D01*
X008053Y018960D01*
X008087Y018923D01*
X008118Y018883D01*
X008146Y018841D01*
X008170Y018798D01*
X008191Y018752D01*
X008209Y018705D01*
X008222Y018656D01*
X008232Y018607D01*
X008238Y018557D01*
X008240Y018507D01*
X008238Y018457D01*
X008232Y018407D01*
X008222Y018358D01*
X008209Y018309D01*
X008191Y018262D01*
X008170Y018216D01*
X008146Y018173D01*
X008118Y018131D01*
X008087Y018091D01*
X008053Y018054D01*
X008016Y018020D01*
X007976Y017989D01*
X007934Y017961D01*
X007891Y017937D01*
X007845Y017916D01*
X007798Y017898D01*
X007749Y017885D01*
X007700Y017875D01*
X007650Y017869D01*
X007600Y017867D01*
X007550Y017869D01*
X007500Y017875D01*
X007451Y017885D01*
X007402Y017898D01*
X007355Y017916D01*
X007309Y017937D01*
X007266Y017961D01*
X007224Y017989D01*
X007184Y018020D01*
X007147Y018054D01*
X007113Y018091D01*
X007082Y018131D01*
X007054Y018173D01*
X007030Y018216D01*
X007009Y018262D01*
X006991Y018309D01*
X006978Y018358D01*
X006968Y018407D01*
X006962Y018457D01*
X006960Y018507D01*
X010960Y018507D02*
X010962Y018557D01*
X010968Y018607D01*
X010978Y018656D01*
X010991Y018705D01*
X011009Y018752D01*
X011030Y018798D01*
X011054Y018841D01*
X011082Y018883D01*
X011113Y018923D01*
X011147Y018960D01*
X011184Y018994D01*
X011224Y019025D01*
X011266Y019053D01*
X011309Y019077D01*
X011355Y019098D01*
X011402Y019116D01*
X011451Y019129D01*
X011500Y019139D01*
X011550Y019145D01*
X011600Y019147D01*
X011650Y019145D01*
X011700Y019139D01*
X011749Y019129D01*
X011798Y019116D01*
X011845Y019098D01*
X011891Y019077D01*
X011934Y019053D01*
X011976Y019025D01*
X012016Y018994D01*
X012053Y018960D01*
X012087Y018923D01*
X012118Y018883D01*
X012146Y018841D01*
X012170Y018798D01*
X012191Y018752D01*
X012209Y018705D01*
X012222Y018656D01*
X012232Y018607D01*
X012238Y018557D01*
X012240Y018507D01*
X012238Y018457D01*
X012232Y018407D01*
X012222Y018358D01*
X012209Y018309D01*
X012191Y018262D01*
X012170Y018216D01*
X012146Y018173D01*
X012118Y018131D01*
X012087Y018091D01*
X012053Y018054D01*
X012016Y018020D01*
X011976Y017989D01*
X011934Y017961D01*
X011891Y017937D01*
X011845Y017916D01*
X011798Y017898D01*
X011749Y017885D01*
X011700Y017875D01*
X011650Y017869D01*
X011600Y017867D01*
X011550Y017869D01*
X011500Y017875D01*
X011451Y017885D01*
X011402Y017898D01*
X011355Y017916D01*
X011309Y017937D01*
X011266Y017961D01*
X011224Y017989D01*
X011184Y018020D01*
X011147Y018054D01*
X011113Y018091D01*
X011082Y018131D01*
X011054Y018173D01*
X011030Y018216D01*
X011009Y018262D01*
X010991Y018309D01*
X010978Y018358D01*
X010968Y018407D01*
X010962Y018457D01*
X010960Y018507D01*
X013460Y018507D02*
X013462Y018557D01*
X013468Y018607D01*
X013478Y018656D01*
X013491Y018705D01*
X013509Y018752D01*
X013530Y018798D01*
X013554Y018841D01*
X013582Y018883D01*
X013613Y018923D01*
X013647Y018960D01*
X013684Y018994D01*
X013724Y019025D01*
X013766Y019053D01*
X013809Y019077D01*
X013855Y019098D01*
X013902Y019116D01*
X013951Y019129D01*
X014000Y019139D01*
X014050Y019145D01*
X014100Y019147D01*
X014150Y019145D01*
X014200Y019139D01*
X014249Y019129D01*
X014298Y019116D01*
X014345Y019098D01*
X014391Y019077D01*
X014434Y019053D01*
X014476Y019025D01*
X014516Y018994D01*
X014553Y018960D01*
X014587Y018923D01*
X014618Y018883D01*
X014646Y018841D01*
X014670Y018798D01*
X014691Y018752D01*
X014709Y018705D01*
X014722Y018656D01*
X014732Y018607D01*
X014738Y018557D01*
X014740Y018507D01*
X014738Y018457D01*
X014732Y018407D01*
X014722Y018358D01*
X014709Y018309D01*
X014691Y018262D01*
X014670Y018216D01*
X014646Y018173D01*
X014618Y018131D01*
X014587Y018091D01*
X014553Y018054D01*
X014516Y018020D01*
X014476Y017989D01*
X014434Y017961D01*
X014391Y017937D01*
X014345Y017916D01*
X014298Y017898D01*
X014249Y017885D01*
X014200Y017875D01*
X014150Y017869D01*
X014100Y017867D01*
X014050Y017869D01*
X014000Y017875D01*
X013951Y017885D01*
X013902Y017898D01*
X013855Y017916D01*
X013809Y017937D01*
X013766Y017961D01*
X013724Y017989D01*
X013684Y018020D01*
X013647Y018054D01*
X013613Y018091D01*
X013582Y018131D01*
X013554Y018173D01*
X013530Y018216D01*
X013509Y018262D01*
X013491Y018309D01*
X013478Y018358D01*
X013468Y018407D01*
X013462Y018457D01*
X013460Y018507D01*
X017460Y018507D02*
X017462Y018557D01*
X017468Y018607D01*
X017478Y018656D01*
X017491Y018705D01*
X017509Y018752D01*
X017530Y018798D01*
X017554Y018841D01*
X017582Y018883D01*
X017613Y018923D01*
X017647Y018960D01*
X017684Y018994D01*
X017724Y019025D01*
X017766Y019053D01*
X017809Y019077D01*
X017855Y019098D01*
X017902Y019116D01*
X017951Y019129D01*
X018000Y019139D01*
X018050Y019145D01*
X018100Y019147D01*
X018150Y019145D01*
X018200Y019139D01*
X018249Y019129D01*
X018298Y019116D01*
X018345Y019098D01*
X018391Y019077D01*
X018434Y019053D01*
X018476Y019025D01*
X018516Y018994D01*
X018553Y018960D01*
X018587Y018923D01*
X018618Y018883D01*
X018646Y018841D01*
X018670Y018798D01*
X018691Y018752D01*
X018709Y018705D01*
X018722Y018656D01*
X018732Y018607D01*
X018738Y018557D01*
X018740Y018507D01*
X018738Y018457D01*
X018732Y018407D01*
X018722Y018358D01*
X018709Y018309D01*
X018691Y018262D01*
X018670Y018216D01*
X018646Y018173D01*
X018618Y018131D01*
X018587Y018091D01*
X018553Y018054D01*
X018516Y018020D01*
X018476Y017989D01*
X018434Y017961D01*
X018391Y017937D01*
X018345Y017916D01*
X018298Y017898D01*
X018249Y017885D01*
X018200Y017875D01*
X018150Y017869D01*
X018100Y017867D01*
X018050Y017869D01*
X018000Y017875D01*
X017951Y017885D01*
X017902Y017898D01*
X017855Y017916D01*
X017809Y017937D01*
X017766Y017961D01*
X017724Y017989D01*
X017684Y018020D01*
X017647Y018054D01*
X017613Y018091D01*
X017582Y018131D01*
X017554Y018173D01*
X017530Y018216D01*
X017509Y018262D01*
X017491Y018309D01*
X017478Y018358D01*
X017468Y018407D01*
X017462Y018457D01*
X017460Y018507D01*
D11*
X017972Y010098D02*
X016850Y010098D01*
X016850Y009507D01*
X017992Y009507D01*
X017992Y010098D01*
X007100Y008257D02*
X007108Y002037D01*
X000832Y002045D01*
X000832Y008257D01*
X007100Y008257D01*
X006218Y009757D02*
X001100Y009757D01*
X001100Y013694D01*
X006218Y013694D01*
X006218Y013104D01*
X005628Y013104D01*
X005628Y010348D01*
X006218Y010348D01*
X006218Y009757D01*
X001435Y011726D02*
X001437Y011806D01*
X001443Y011886D01*
X001453Y011966D01*
X001466Y012045D01*
X001484Y012123D01*
X001505Y012200D01*
X001531Y012276D01*
X001559Y012351D01*
X001592Y012425D01*
X001628Y012496D01*
X001667Y012566D01*
X001710Y012634D01*
X001757Y012699D01*
X001806Y012763D01*
X001858Y012823D01*
X001914Y012881D01*
X001972Y012937D01*
X002032Y012989D01*
X002096Y013038D01*
X002161Y013085D01*
X002229Y013128D01*
X002299Y013167D01*
X002370Y013203D01*
X002444Y013236D01*
X002519Y013264D01*
X002595Y013290D01*
X002672Y013311D01*
X002750Y013329D01*
X002829Y013342D01*
X002909Y013352D01*
X002989Y013358D01*
X003069Y013360D01*
X003149Y013358D01*
X003229Y013352D01*
X003309Y013342D01*
X003388Y013329D01*
X003466Y013311D01*
X003543Y013290D01*
X003619Y013264D01*
X003694Y013236D01*
X003768Y013203D01*
X003839Y013167D01*
X003909Y013128D01*
X003977Y013085D01*
X004042Y013038D01*
X004106Y012989D01*
X004166Y012937D01*
X004224Y012881D01*
X004280Y012823D01*
X004332Y012763D01*
X004381Y012699D01*
X004428Y012634D01*
X004471Y012566D01*
X004510Y012496D01*
X004546Y012425D01*
X004579Y012351D01*
X004607Y012276D01*
X004633Y012200D01*
X004654Y012123D01*
X004672Y012045D01*
X004685Y011966D01*
X004695Y011886D01*
X004701Y011806D01*
X004703Y011726D01*
X004701Y011646D01*
X004695Y011566D01*
X004685Y011486D01*
X004672Y011407D01*
X004654Y011329D01*
X004633Y011252D01*
X004607Y011176D01*
X004579Y011101D01*
X004546Y011027D01*
X004510Y010956D01*
X004471Y010886D01*
X004428Y010818D01*
X004381Y010753D01*
X004332Y010689D01*
X004280Y010629D01*
X004224Y010571D01*
X004166Y010515D01*
X004106Y010463D01*
X004042Y010414D01*
X003977Y010367D01*
X003909Y010324D01*
X003839Y010285D01*
X003768Y010249D01*
X003694Y010216D01*
X003619Y010188D01*
X003543Y010162D01*
X003466Y010141D01*
X003388Y010123D01*
X003309Y010110D01*
X003229Y010100D01*
X003149Y010094D01*
X003069Y010092D01*
X002989Y010094D01*
X002909Y010100D01*
X002829Y010110D01*
X002750Y010123D01*
X002672Y010141D01*
X002595Y010162D01*
X002519Y010188D01*
X002444Y010216D01*
X002370Y010249D01*
X002299Y010285D01*
X002229Y010324D01*
X002161Y010367D01*
X002096Y010414D01*
X002032Y010463D01*
X001972Y010515D01*
X001914Y010571D01*
X001858Y010629D01*
X001806Y010689D01*
X001757Y010753D01*
X001710Y010818D01*
X001667Y010886D01*
X001628Y010956D01*
X001592Y011027D01*
X001559Y011101D01*
X001531Y011176D01*
X001505Y011252D01*
X001484Y011329D01*
X001466Y011407D01*
X001453Y011486D01*
X001443Y011566D01*
X001437Y011646D01*
X001435Y011726D01*
D12*
X003683Y006131D02*
X004265Y006131D01*
X004257Y005139D02*
X003675Y005139D01*
D13*
X001974Y007131D03*
X005974Y003131D03*
D14*
X001494Y011726D03*
D15*
X005234Y011726D03*
D16*
X017086Y010275D03*
X017441Y010275D03*
X017815Y010275D03*
X017815Y009330D03*
X017441Y009330D03*
X017086Y009330D03*
D17*
X016943Y009641D02*
X016945Y009654D01*
X016950Y009667D01*
X016959Y009678D01*
X016970Y009685D01*
X016983Y009690D01*
X016996Y009691D01*
X017010Y009688D01*
X017022Y009682D01*
X017032Y009673D01*
X017039Y009661D01*
X017043Y009648D01*
X017043Y009634D01*
X017039Y009621D01*
X017032Y009609D01*
X017022Y009600D01*
X017010Y009594D01*
X016996Y009591D01*
X016983Y009592D01*
X016970Y009597D01*
X016959Y009604D01*
X016950Y009615D01*
X016945Y009628D01*
X016943Y009641D01*
X016465Y014317D02*
X016362Y014317D01*
X016310Y014369D01*
X016310Y014576D01*
X016362Y014627D01*
X016465Y014627D01*
X016517Y014576D01*
X016517Y014369D01*
X016465Y014317D01*
X016223Y014627D02*
X016016Y014317D01*
X015923Y014317D02*
X015819Y014317D01*
X015871Y014317D02*
X015871Y014627D01*
X015819Y014627D02*
X015923Y014627D01*
X014642Y014921D02*
X014642Y015127D01*
X014642Y014921D02*
X014539Y014817D01*
X014435Y014921D01*
X014435Y015127D01*
X014348Y015127D02*
X014141Y015127D01*
X014141Y014972D01*
X014244Y015024D01*
X014296Y015024D01*
X014348Y014972D01*
X014348Y014869D01*
X014296Y014817D01*
X014192Y014817D01*
X014141Y014869D01*
X014398Y016567D02*
X014501Y016567D01*
X014553Y016619D01*
X014553Y016722D01*
X014449Y016722D01*
X014346Y016619D02*
X014346Y016826D01*
X014398Y016877D01*
X014501Y016877D01*
X014553Y016826D01*
X014641Y016877D02*
X014848Y016567D01*
X014848Y016877D01*
X014935Y016877D02*
X014935Y016567D01*
X015090Y016567D01*
X015142Y016619D01*
X015142Y016826D01*
X015090Y016877D01*
X014935Y016877D01*
X014641Y016877D02*
X014641Y016567D01*
X014398Y016567D02*
X014346Y016619D01*
X015596Y016619D02*
X015648Y016567D01*
X015751Y016567D01*
X015803Y016619D01*
X015803Y016722D01*
X015699Y016722D01*
X015596Y016619D02*
X015596Y016826D01*
X015648Y016877D01*
X015751Y016877D01*
X015803Y016826D01*
X015891Y016877D02*
X015891Y016567D01*
X016098Y016567D02*
X015891Y016877D01*
X016098Y016877D02*
X016098Y016567D01*
X016185Y016567D02*
X016340Y016567D01*
X016392Y016619D01*
X016392Y016826D01*
X016340Y016877D01*
X016185Y016877D01*
X016185Y016567D01*
X017096Y016567D02*
X017096Y016877D01*
X017251Y016877D01*
X017303Y016826D01*
X017303Y016722D01*
X017251Y016671D01*
X017096Y016671D01*
X017391Y016567D02*
X017391Y016877D01*
X017598Y016877D02*
X017598Y016567D01*
X017494Y016671D01*
X017391Y016567D01*
X017685Y016567D02*
X017685Y016877D01*
X017789Y016774D01*
X017892Y016877D01*
X017892Y016567D01*
X017942Y015127D02*
X017891Y015076D01*
X017942Y015127D02*
X018046Y015127D01*
X018098Y015076D01*
X018098Y015024D01*
X017891Y014817D01*
X018098Y014817D01*
X018185Y014921D02*
X018289Y014817D01*
X018392Y014921D01*
X018392Y015127D01*
X018185Y015127D02*
X018185Y014921D01*
X017803Y014817D02*
X017596Y014817D01*
X017699Y014817D02*
X017699Y015127D01*
X017596Y015024D01*
X011892Y014921D02*
X011892Y015127D01*
X011892Y014921D02*
X011789Y014817D01*
X011685Y014921D01*
X011685Y015127D01*
X011598Y015076D02*
X011546Y015127D01*
X011442Y015127D01*
X011391Y015076D01*
X011199Y015127D02*
X011199Y014817D01*
X011096Y014817D02*
X011303Y014817D01*
X011391Y014817D02*
X011598Y015024D01*
X011598Y015076D01*
X011598Y014817D02*
X011391Y014817D01*
X011096Y015024D02*
X011199Y015127D01*
X010017Y014524D02*
X010017Y014317D01*
X010017Y014472D02*
X009810Y014472D01*
X009810Y014524D02*
X009914Y014627D01*
X010017Y014524D01*
X009810Y014524D02*
X009810Y014317D01*
X009723Y014369D02*
X009723Y014576D01*
X009671Y014627D01*
X009516Y014627D01*
X009516Y014317D01*
X009671Y014317D01*
X009723Y014369D01*
X009428Y014369D02*
X009376Y014317D01*
X009273Y014317D01*
X009221Y014369D01*
X009273Y014472D02*
X009376Y014472D01*
X009428Y014421D01*
X009428Y014369D01*
X009273Y014472D02*
X009221Y014524D01*
X009221Y014576D01*
X009273Y014627D01*
X009376Y014627D01*
X009428Y014576D01*
X008142Y014921D02*
X008142Y015127D01*
X008142Y014921D02*
X008039Y014817D01*
X007935Y014921D01*
X007935Y015127D01*
X007848Y015127D02*
X007641Y015127D01*
X007641Y014972D01*
X007744Y015024D01*
X007796Y015024D01*
X007848Y014972D01*
X007848Y014869D01*
X007796Y014817D01*
X007692Y014817D01*
X007641Y014869D01*
X007898Y016567D02*
X008001Y016567D01*
X008053Y016619D01*
X008053Y016722D01*
X007949Y016722D01*
X007846Y016619D02*
X007846Y016826D01*
X007898Y016877D01*
X008001Y016877D01*
X008053Y016826D01*
X008141Y016877D02*
X008348Y016567D01*
X008348Y016877D01*
X008435Y016877D02*
X008435Y016567D01*
X008590Y016567D01*
X008642Y016619D01*
X008642Y016826D01*
X008590Y016877D01*
X008435Y016877D01*
X008141Y016877D02*
X008141Y016567D01*
X007898Y016567D02*
X007846Y016619D01*
X009096Y016619D02*
X009148Y016567D01*
X009251Y016567D01*
X009303Y016619D01*
X009303Y016722D01*
X009199Y016722D01*
X009096Y016619D02*
X009096Y016826D01*
X009148Y016877D01*
X009251Y016877D01*
X009303Y016826D01*
X009391Y016877D02*
X009598Y016567D01*
X009598Y016877D01*
X009685Y016877D02*
X009840Y016877D01*
X009892Y016826D01*
X009892Y016619D01*
X009840Y016567D01*
X009685Y016567D01*
X009685Y016877D01*
X009391Y016877D02*
X009391Y016567D01*
X010596Y016619D02*
X010648Y016567D01*
X010751Y016567D01*
X010803Y016619D01*
X010803Y016671D01*
X010751Y016722D01*
X010648Y016722D01*
X010596Y016774D01*
X010596Y016826D01*
X010648Y016877D01*
X010751Y016877D01*
X010803Y016826D01*
X010891Y016826D02*
X010891Y016619D01*
X010942Y016567D01*
X011046Y016567D01*
X011098Y016619D01*
X011185Y016567D02*
X011185Y016877D01*
X011098Y016826D02*
X011046Y016877D01*
X010942Y016877D01*
X010891Y016826D01*
X011185Y016567D02*
X011392Y016567D01*
D18*
X012307Y014248D02*
X012307Y021571D01*
X006893Y021571D01*
X006893Y014248D01*
X012307Y014248D01*
X013393Y014248D02*
X013393Y021571D01*
X018807Y021571D01*
X018807Y014248D01*
X013393Y014248D01*
D19*
X014850Y016007D03*
X015350Y015007D03*
X015850Y016007D03*
X016350Y015007D03*
X016850Y016007D03*
X017350Y015007D03*
X010850Y015007D03*
X010350Y016007D03*
X009850Y015007D03*
X009350Y016007D03*
X008850Y015007D03*
X008350Y016007D03*
D20*
X006682Y020442D03*
X012518Y020442D03*
X013182Y020442D03*
X019018Y020442D03*
D21*
X018100Y018507D03*
X014100Y018507D03*
X011600Y018507D03*
X007600Y018507D03*
D22*
X010049Y013257D03*
X011151Y013257D03*
D23*
X012540Y013257D03*
X013660Y013257D03*
X015040Y013257D03*
X016160Y013257D03*
X011160Y006257D03*
X010040Y006257D03*
X011540Y004757D03*
X012660Y004757D03*
X008660Y013257D03*
X007540Y013257D03*
D24*
X008600Y005817D03*
X008600Y004697D03*
X016600Y003317D03*
X016600Y002197D03*
D25*
X014850Y008734D03*
X014350Y008734D03*
X013850Y008734D03*
X013350Y008734D03*
X012850Y008734D03*
X012350Y008734D03*
X011850Y008734D03*
X011850Y010781D03*
X012350Y010781D03*
X012850Y010781D03*
X013350Y010781D03*
X013850Y010781D03*
X014350Y010781D03*
X014850Y010781D03*
D26*
X012600Y003308D03*
X012600Y002206D03*
X010600Y002206D03*
X010600Y003308D03*
X008600Y003308D03*
X008600Y002206D03*
D27*
X009850Y004257D02*
X010350Y004257D01*
X010600Y004507D01*
X010600Y005007D01*
X010350Y005257D01*
X009850Y005257D01*
X009600Y005007D01*
X009600Y004507D01*
X009850Y004257D01*
X012100Y006007D02*
X012350Y005757D01*
X012850Y005757D01*
X013100Y006007D01*
X013100Y006507D01*
X012850Y006757D01*
X012350Y006757D01*
X012100Y006507D01*
X012100Y006007D01*
X014100Y006007D02*
X014350Y005757D01*
X014850Y005757D01*
X015100Y006007D01*
X015100Y006507D01*
X014850Y006757D01*
X014350Y006757D01*
X014100Y006507D01*
X014100Y006007D01*
X016350Y006007D02*
X016600Y005757D01*
X017100Y005757D01*
X017350Y006007D01*
X017350Y006507D01*
X017100Y006757D01*
X016600Y006757D01*
X016350Y006507D01*
X016350Y006007D01*
X008850Y009007D02*
X008600Y008757D01*
X008100Y008757D01*
X007850Y009007D01*
X007850Y009507D01*
X008100Y009757D01*
X008600Y009757D01*
X008850Y009507D01*
X008850Y009007D01*
D28*
X008350Y009257D03*
X010100Y004757D03*
X012600Y006257D03*
X014600Y006257D03*
X016850Y006257D03*
D29*
X015800Y002257D03*
X013400Y002257D03*
X011800Y005857D03*
X013500Y009657D03*
X012700Y011557D03*
X011400Y010357D03*
X008300Y012357D03*
X016600Y010457D03*
M02*
