G75*
%MOIN*%
%OFA0B0*%
%FSLAX24Y24*%
%IPPOS*%
%LPD*%
%AMOC8*
5,1,8,0,0,1.08239X$1,22.5*
%
%ADD10C,0.0080*%
%ADD11C,0.0010*%
%ADD12R,0.0364X0.0450*%
%ADD13C,0.0100*%
%ADD14C,0.0060*%
%ADD15C,0.0040*%
%ADD16C,0.0030*%
%ADD17R,0.0118X0.0059*%
%ADD18R,0.0118X0.0118*%
%ADD19R,0.0236X0.0531*%
%ADD20R,0.0256X0.0551*%
%ADD21C,0.0050*%
%ADD22R,0.0551X0.0256*%
%ADD23R,0.1299X0.0374*%
%ADD24R,0.0669X0.0295*%
%ADD25R,0.0157X0.0453*%
%ADD26R,0.0157X0.0453*%
%ADD27R,0.0158X0.0453*%
%ADD28R,0.0453X0.0157*%
%ADD29R,0.0453X0.0157*%
%ADD30R,0.0453X0.0158*%
%ADD31R,0.0295X0.0669*%
%ADD32R,0.0690X0.0290*%
%ADD33R,0.0560X0.0140*%
%ADD34R,0.0230X0.0720*%
%ADD35R,0.0600X0.1200*%
%ADD36R,0.0600X0.0300*%
%ADD37R,0.0140X0.0560*%
D10*
X011393Y003841D02*
X011393Y011164D01*
X016807Y011164D01*
X016807Y003841D01*
X011393Y003841D01*
X019393Y003841D02*
X019393Y011164D01*
X024807Y011164D01*
X024807Y003841D01*
X019393Y003841D01*
X025893Y003841D02*
X025893Y011164D01*
X031307Y011164D01*
X031307Y003841D01*
X025893Y003841D01*
X032393Y003841D02*
X032393Y011164D01*
X037807Y011164D01*
X037807Y003841D01*
X032393Y003841D01*
X038893Y003841D02*
X038893Y011164D01*
X044307Y011164D01*
X044307Y003841D01*
X038893Y003841D01*
X026332Y016710D02*
X022868Y016710D01*
X022710Y016868D01*
X022710Y020332D01*
X022868Y020490D01*
X026332Y020490D01*
X026490Y020332D01*
X026490Y016868D01*
X026332Y016710D01*
X025893Y026536D02*
X025893Y033859D01*
X031307Y033859D01*
X031307Y026536D01*
X025893Y026536D01*
X024807Y026536D02*
X024807Y033859D01*
X019393Y033859D01*
X019393Y026536D01*
X024807Y026536D01*
X018307Y026536D02*
X018307Y033859D01*
X012893Y033859D01*
X012893Y026536D01*
X018307Y026536D01*
X011807Y026536D02*
X011807Y033859D01*
X006393Y033859D01*
X006393Y026536D01*
X011807Y026536D01*
X032393Y026536D02*
X032393Y033859D01*
X037807Y033859D01*
X037807Y026536D01*
X032393Y026536D01*
X038893Y026536D02*
X038893Y033859D01*
X044307Y033859D01*
X044307Y026536D01*
X038893Y026536D01*
D11*
X039730Y031230D02*
X039730Y031540D01*
X039885Y031540D01*
X039937Y031489D01*
X039937Y031385D01*
X039885Y031333D01*
X039730Y031333D01*
X040025Y031230D02*
X040025Y031540D01*
X040231Y031540D02*
X040231Y031230D01*
X040128Y031333D01*
X040025Y031230D01*
X040319Y031230D02*
X040319Y031540D01*
X040423Y031437D01*
X040526Y031540D01*
X040526Y031230D01*
X041230Y031282D02*
X041230Y031489D01*
X041282Y031540D01*
X041385Y031540D01*
X041437Y031489D01*
X041525Y031540D02*
X041731Y031230D01*
X041731Y031540D01*
X041819Y031540D02*
X041819Y031230D01*
X041974Y031230D01*
X042026Y031282D01*
X042026Y031489D01*
X041974Y031540D01*
X041819Y031540D01*
X041525Y031540D02*
X041525Y031230D01*
X041437Y031282D02*
X041437Y031385D01*
X041333Y031385D01*
X041230Y031282D02*
X041282Y031230D01*
X041385Y031230D01*
X041437Y031282D01*
X042480Y031282D02*
X042532Y031230D01*
X042635Y031230D01*
X042687Y031282D01*
X042687Y031385D01*
X042583Y031385D01*
X042480Y031282D02*
X042480Y031489D01*
X042532Y031540D01*
X042635Y031540D01*
X042687Y031489D01*
X042775Y031540D02*
X042981Y031230D01*
X042981Y031540D01*
X043069Y031540D02*
X043224Y031540D01*
X043276Y031489D01*
X043276Y031282D01*
X043224Y031230D01*
X043069Y031230D01*
X043069Y031540D01*
X042775Y031540D02*
X042775Y031230D01*
X043032Y032980D02*
X042980Y033032D01*
X043032Y032980D02*
X043135Y032980D01*
X043187Y033032D01*
X043187Y033135D01*
X043135Y033187D01*
X043083Y033187D01*
X042980Y033135D01*
X042980Y033290D01*
X043187Y033290D01*
X043275Y033290D02*
X043275Y033083D01*
X043378Y032980D01*
X043481Y033083D01*
X043481Y033290D01*
X041803Y033532D02*
X041803Y033739D01*
X041751Y033790D01*
X041648Y033790D01*
X041596Y033739D01*
X041596Y033532D01*
X041648Y033480D01*
X041751Y033480D01*
X041803Y033532D01*
X041508Y033790D02*
X041301Y033480D01*
X041208Y033480D02*
X041105Y033480D01*
X041157Y033480D02*
X041157Y033790D01*
X041208Y033790D02*
X041105Y033790D01*
X040026Y033290D02*
X040026Y033083D01*
X039923Y032980D01*
X039819Y033083D01*
X039819Y033290D01*
X039731Y033239D02*
X039731Y033187D01*
X039525Y032980D01*
X039731Y032980D01*
X039731Y033239D02*
X039680Y033290D01*
X039576Y033290D01*
X039525Y033239D01*
X039333Y033290D02*
X039333Y032980D01*
X039230Y032980D02*
X039437Y032980D01*
X039230Y033187D02*
X039333Y033290D01*
X036981Y033290D02*
X036981Y033083D01*
X036878Y032980D01*
X036775Y033083D01*
X036775Y033290D01*
X036687Y033290D02*
X036480Y033290D01*
X036480Y033135D01*
X036583Y033187D01*
X036635Y033187D01*
X036687Y033135D01*
X036687Y033032D01*
X036635Y032980D01*
X036532Y032980D01*
X036480Y033032D01*
X035303Y033532D02*
X035303Y033739D01*
X035251Y033790D01*
X035148Y033790D01*
X035096Y033739D01*
X035096Y033532D01*
X035148Y033480D01*
X035251Y033480D01*
X035303Y033532D01*
X035008Y033790D02*
X034801Y033480D01*
X034708Y033480D02*
X034605Y033480D01*
X034657Y033480D02*
X034657Y033790D01*
X034708Y033790D02*
X034605Y033790D01*
X033526Y033290D02*
X033526Y033083D01*
X033423Y032980D01*
X033319Y033083D01*
X033319Y033290D01*
X033231Y033239D02*
X033231Y033187D01*
X033025Y032980D01*
X033231Y032980D01*
X033231Y033239D02*
X033180Y033290D01*
X033076Y033290D01*
X033025Y033239D01*
X032833Y033290D02*
X032833Y032980D01*
X032730Y032980D02*
X032937Y032980D01*
X032730Y033187D02*
X032833Y033290D01*
X033230Y031540D02*
X033385Y031540D01*
X033437Y031489D01*
X033437Y031385D01*
X033385Y031333D01*
X033230Y031333D01*
X033230Y031230D02*
X033230Y031540D01*
X033525Y031540D02*
X033525Y031230D01*
X033628Y031333D01*
X033731Y031230D01*
X033731Y031540D01*
X033819Y031540D02*
X033819Y031230D01*
X034026Y031230D02*
X034026Y031540D01*
X033923Y031437D01*
X033819Y031540D01*
X034730Y031489D02*
X034730Y031282D01*
X034782Y031230D01*
X034885Y031230D01*
X034937Y031282D01*
X034937Y031385D01*
X034833Y031385D01*
X034730Y031489D02*
X034782Y031540D01*
X034885Y031540D01*
X034937Y031489D01*
X035025Y031540D02*
X035231Y031230D01*
X035231Y031540D01*
X035319Y031540D02*
X035319Y031230D01*
X035474Y031230D01*
X035526Y031282D01*
X035526Y031489D01*
X035474Y031540D01*
X035319Y031540D01*
X035025Y031540D02*
X035025Y031230D01*
X035980Y031282D02*
X036032Y031230D01*
X036135Y031230D01*
X036187Y031282D01*
X036187Y031385D01*
X036083Y031385D01*
X035980Y031282D02*
X035980Y031489D01*
X036032Y031540D01*
X036135Y031540D01*
X036187Y031489D01*
X036275Y031540D02*
X036481Y031230D01*
X036481Y031540D01*
X036569Y031540D02*
X036724Y031540D01*
X036776Y031489D01*
X036776Y031282D01*
X036724Y031230D01*
X036569Y031230D01*
X036569Y031540D01*
X036275Y031540D02*
X036275Y031230D01*
X030481Y033083D02*
X030481Y033290D01*
X030275Y033290D02*
X030275Y033083D01*
X030378Y032980D01*
X030481Y033083D01*
X030187Y033032D02*
X030135Y032980D01*
X030032Y032980D01*
X029980Y033032D01*
X029980Y033135D02*
X030083Y033187D01*
X030135Y033187D01*
X030187Y033135D01*
X030187Y033032D01*
X029980Y033135D02*
X029980Y033290D01*
X030187Y033290D01*
X028803Y033532D02*
X028803Y033739D01*
X028751Y033790D01*
X028648Y033790D01*
X028596Y033739D01*
X028596Y033532D01*
X028648Y033480D01*
X028751Y033480D01*
X028803Y033532D01*
X028508Y033790D02*
X028301Y033480D01*
X028208Y033480D02*
X028105Y033480D01*
X028157Y033480D02*
X028157Y033790D01*
X028208Y033790D02*
X028105Y033790D01*
X027026Y033290D02*
X027026Y033083D01*
X026923Y032980D01*
X026819Y033083D01*
X026819Y033290D01*
X026731Y033239D02*
X026680Y033290D01*
X026576Y033290D01*
X026525Y033239D01*
X026333Y033290D02*
X026333Y032980D01*
X026230Y032980D02*
X026437Y032980D01*
X026525Y032980D02*
X026731Y033187D01*
X026731Y033239D01*
X026731Y032980D02*
X026525Y032980D01*
X026230Y033187D02*
X026333Y033290D01*
X023981Y033290D02*
X023981Y033083D01*
X023878Y032980D01*
X023775Y033083D01*
X023775Y033290D01*
X023687Y033290D02*
X023480Y033290D01*
X023480Y033135D01*
X023583Y033187D01*
X023635Y033187D01*
X023687Y033135D01*
X023687Y033032D01*
X023635Y032980D01*
X023532Y032980D01*
X023480Y033032D01*
X022303Y033532D02*
X022303Y033739D01*
X022251Y033790D01*
X022148Y033790D01*
X022096Y033739D01*
X022096Y033532D01*
X022148Y033480D01*
X022251Y033480D01*
X022303Y033532D01*
X022008Y033790D02*
X021801Y033480D01*
X021708Y033480D02*
X021605Y033480D01*
X021657Y033480D02*
X021657Y033790D01*
X021708Y033790D02*
X021605Y033790D01*
X020526Y033290D02*
X020526Y033083D01*
X020423Y032980D01*
X020319Y033083D01*
X020319Y033290D01*
X020231Y033239D02*
X020180Y033290D01*
X020076Y033290D01*
X020025Y033239D01*
X019833Y033290D02*
X019833Y032980D01*
X019730Y032980D02*
X019937Y032980D01*
X020025Y032980D02*
X020231Y033187D01*
X020231Y033239D01*
X020231Y032980D02*
X020025Y032980D01*
X019730Y033187D02*
X019833Y033290D01*
X017481Y033290D02*
X017481Y033083D01*
X017378Y032980D01*
X017275Y033083D01*
X017275Y033290D01*
X017187Y033290D02*
X016980Y033290D01*
X016980Y033135D01*
X017083Y033187D01*
X017135Y033187D01*
X017187Y033135D01*
X017187Y033032D01*
X017135Y032980D01*
X017032Y032980D01*
X016980Y033032D01*
X015803Y033532D02*
X015803Y033739D01*
X015751Y033790D01*
X015648Y033790D01*
X015596Y033739D01*
X015596Y033532D01*
X015648Y033480D01*
X015751Y033480D01*
X015803Y033532D01*
X015508Y033790D02*
X015301Y033480D01*
X015208Y033480D02*
X015105Y033480D01*
X015157Y033480D02*
X015157Y033790D01*
X015208Y033790D02*
X015105Y033790D01*
X014026Y033290D02*
X014026Y033083D01*
X013923Y032980D01*
X013819Y033083D01*
X013819Y033290D01*
X013731Y033239D02*
X013680Y033290D01*
X013576Y033290D01*
X013525Y033239D01*
X013333Y033290D02*
X013333Y032980D01*
X013230Y032980D02*
X013437Y032980D01*
X013525Y032980D02*
X013731Y033187D01*
X013731Y033239D01*
X013731Y032980D02*
X013525Y032980D01*
X013230Y033187D02*
X013333Y033290D01*
X010981Y033290D02*
X010981Y033083D01*
X010878Y032980D01*
X010775Y033083D01*
X010775Y033290D01*
X010687Y033290D02*
X010480Y033290D01*
X010480Y033135D01*
X010583Y033187D01*
X010635Y033187D01*
X010687Y033135D01*
X010687Y033032D01*
X010635Y032980D01*
X010532Y032980D01*
X010480Y033032D01*
X009303Y033532D02*
X009303Y033739D01*
X009251Y033790D01*
X009148Y033790D01*
X009096Y033739D01*
X009096Y033532D01*
X009148Y033480D01*
X009251Y033480D01*
X009303Y033532D01*
X009008Y033790D02*
X008801Y033480D01*
X008708Y033480D02*
X008605Y033480D01*
X008657Y033480D02*
X008657Y033790D01*
X008708Y033790D02*
X008605Y033790D01*
X007526Y033290D02*
X007526Y033083D01*
X007423Y032980D01*
X007319Y033083D01*
X007319Y033290D01*
X007231Y033239D02*
X007180Y033290D01*
X007076Y033290D01*
X007025Y033239D01*
X006833Y033290D02*
X006833Y032980D01*
X006730Y032980D02*
X006937Y032980D01*
X007025Y032980D02*
X007231Y033187D01*
X007231Y033239D01*
X007231Y032980D02*
X007025Y032980D01*
X006730Y033187D02*
X006833Y033290D01*
X007230Y031540D02*
X007385Y031540D01*
X007437Y031489D01*
X007437Y031385D01*
X007385Y031333D01*
X007230Y031333D01*
X007230Y031230D02*
X007230Y031540D01*
X007525Y031540D02*
X007525Y031230D01*
X007628Y031333D01*
X007731Y031230D01*
X007731Y031540D01*
X007819Y031540D02*
X007923Y031437D01*
X008026Y031540D01*
X008026Y031230D01*
X007819Y031230D02*
X007819Y031540D01*
X008730Y031489D02*
X008730Y031282D01*
X008782Y031230D01*
X008885Y031230D01*
X008937Y031282D01*
X008937Y031385D01*
X008833Y031385D01*
X008730Y031489D02*
X008782Y031540D01*
X008885Y031540D01*
X008937Y031489D01*
X009025Y031540D02*
X009231Y031230D01*
X009231Y031540D01*
X009319Y031540D02*
X009474Y031540D01*
X009526Y031489D01*
X009526Y031282D01*
X009474Y031230D01*
X009319Y031230D01*
X009319Y031540D01*
X009025Y031540D02*
X009025Y031230D01*
X009980Y031282D02*
X010032Y031230D01*
X010135Y031230D01*
X010187Y031282D01*
X010187Y031385D01*
X010083Y031385D01*
X009980Y031282D02*
X009980Y031489D01*
X010032Y031540D01*
X010135Y031540D01*
X010187Y031489D01*
X010275Y031540D02*
X010481Y031230D01*
X010481Y031540D01*
X010569Y031540D02*
X010724Y031540D01*
X010776Y031489D01*
X010776Y031282D01*
X010724Y031230D01*
X010569Y031230D01*
X010569Y031540D01*
X010275Y031540D02*
X010275Y031230D01*
X013730Y031230D02*
X013730Y031540D01*
X013885Y031540D01*
X013937Y031489D01*
X013937Y031385D01*
X013885Y031333D01*
X013730Y031333D01*
X014025Y031230D02*
X014025Y031540D01*
X014231Y031540D02*
X014231Y031230D01*
X014128Y031333D01*
X014025Y031230D01*
X014319Y031230D02*
X014319Y031540D01*
X014423Y031437D01*
X014526Y031540D01*
X014526Y031230D01*
X015230Y031282D02*
X015230Y031489D01*
X015282Y031540D01*
X015385Y031540D01*
X015437Y031489D01*
X015525Y031540D02*
X015731Y031230D01*
X015731Y031540D01*
X015819Y031540D02*
X015974Y031540D01*
X016026Y031489D01*
X016026Y031282D01*
X015974Y031230D01*
X015819Y031230D01*
X015819Y031540D01*
X015525Y031540D02*
X015525Y031230D01*
X015437Y031282D02*
X015437Y031385D01*
X015333Y031385D01*
X015230Y031282D02*
X015282Y031230D01*
X015385Y031230D01*
X015437Y031282D01*
X016480Y031282D02*
X016532Y031230D01*
X016635Y031230D01*
X016687Y031282D01*
X016687Y031385D01*
X016583Y031385D01*
X016480Y031282D02*
X016480Y031489D01*
X016532Y031540D01*
X016635Y031540D01*
X016687Y031489D01*
X016775Y031540D02*
X016981Y031230D01*
X016981Y031540D01*
X017069Y031540D02*
X017224Y031540D01*
X017276Y031489D01*
X017276Y031282D01*
X017224Y031230D01*
X017069Y031230D01*
X017069Y031540D01*
X016775Y031540D02*
X016775Y031230D01*
X020230Y031230D02*
X020230Y031540D01*
X020385Y031540D01*
X020437Y031489D01*
X020437Y031385D01*
X020385Y031333D01*
X020230Y031333D01*
X020525Y031230D02*
X020525Y031540D01*
X020731Y031540D02*
X020731Y031230D01*
X020628Y031333D01*
X020525Y031230D01*
X020819Y031230D02*
X020819Y031540D01*
X020923Y031437D01*
X021026Y031540D01*
X021026Y031230D01*
X021730Y031282D02*
X021730Y031489D01*
X021782Y031540D01*
X021885Y031540D01*
X021937Y031489D01*
X022025Y031540D02*
X022231Y031230D01*
X022231Y031540D01*
X022319Y031540D02*
X022474Y031540D01*
X022526Y031489D01*
X022526Y031282D01*
X022474Y031230D01*
X022319Y031230D01*
X022319Y031540D01*
X022025Y031540D02*
X022025Y031230D01*
X021937Y031282D02*
X021937Y031385D01*
X021833Y031385D01*
X021730Y031282D02*
X021782Y031230D01*
X021885Y031230D01*
X021937Y031282D01*
X022980Y031282D02*
X023032Y031230D01*
X023135Y031230D01*
X023187Y031282D01*
X023187Y031385D01*
X023083Y031385D01*
X022980Y031282D02*
X022980Y031489D01*
X023032Y031540D01*
X023135Y031540D01*
X023187Y031489D01*
X023275Y031540D02*
X023481Y031230D01*
X023481Y031540D01*
X023569Y031540D02*
X023724Y031540D01*
X023776Y031489D01*
X023776Y031282D01*
X023724Y031230D01*
X023569Y031230D01*
X023569Y031540D01*
X023275Y031540D02*
X023275Y031230D01*
X026730Y031230D02*
X026730Y031540D01*
X026885Y031540D01*
X026937Y031489D01*
X026937Y031385D01*
X026885Y031333D01*
X026730Y031333D01*
X027025Y031230D02*
X027025Y031540D01*
X027231Y031540D02*
X027231Y031230D01*
X027128Y031333D01*
X027025Y031230D01*
X027319Y031230D02*
X027319Y031540D01*
X027423Y031437D01*
X027526Y031540D01*
X027526Y031230D01*
X028230Y031282D02*
X028230Y031489D01*
X028282Y031540D01*
X028385Y031540D01*
X028437Y031489D01*
X028525Y031540D02*
X028731Y031230D01*
X028731Y031540D01*
X028819Y031540D02*
X028974Y031540D01*
X029026Y031489D01*
X029026Y031282D01*
X028974Y031230D01*
X028819Y031230D01*
X028819Y031540D01*
X028525Y031540D02*
X028525Y031230D01*
X028437Y031282D02*
X028437Y031385D01*
X028333Y031385D01*
X028230Y031282D02*
X028282Y031230D01*
X028385Y031230D01*
X028437Y031282D01*
X029480Y031282D02*
X029532Y031230D01*
X029635Y031230D01*
X029687Y031282D01*
X029687Y031385D01*
X029583Y031385D01*
X029480Y031282D02*
X029480Y031489D01*
X029532Y031540D01*
X029635Y031540D01*
X029687Y031489D01*
X029775Y031540D02*
X029981Y031230D01*
X029981Y031540D01*
X030069Y031540D02*
X030224Y031540D01*
X030276Y031489D01*
X030276Y031282D01*
X030224Y031230D01*
X030069Y031230D01*
X030069Y031540D01*
X029775Y031540D02*
X029775Y031230D01*
X029751Y006470D02*
X029648Y006470D01*
X029596Y006419D01*
X029596Y006367D01*
X029648Y006315D01*
X029751Y006315D01*
X029803Y006263D01*
X029803Y006212D01*
X029751Y006160D01*
X029648Y006160D01*
X029596Y006212D01*
X029803Y006419D02*
X029751Y006470D01*
X029891Y006419D02*
X029891Y006212D01*
X029942Y006160D01*
X030046Y006160D01*
X030098Y006212D01*
X030185Y006160D02*
X030392Y006160D01*
X030185Y006160D02*
X030185Y006470D01*
X030098Y006419D02*
X030046Y006470D01*
X029942Y006470D01*
X029891Y006419D01*
X028892Y006419D02*
X028840Y006470D01*
X028685Y006470D01*
X028685Y006160D01*
X028840Y006160D01*
X028892Y006212D01*
X028892Y006419D01*
X028598Y006470D02*
X028598Y006160D01*
X028391Y006470D01*
X028391Y006160D01*
X028303Y006212D02*
X028303Y006315D01*
X028199Y006315D01*
X028096Y006212D02*
X028148Y006160D01*
X028251Y006160D01*
X028303Y006212D01*
X028303Y006419D02*
X028251Y006470D01*
X028148Y006470D01*
X028096Y006419D01*
X028096Y006212D01*
X027642Y006212D02*
X027642Y006419D01*
X027590Y006470D01*
X027435Y006470D01*
X027435Y006160D01*
X027590Y006160D01*
X027642Y006212D01*
X027348Y006160D02*
X027348Y006470D01*
X027141Y006470D02*
X027141Y006160D01*
X027053Y006212D02*
X027053Y006315D01*
X026949Y006315D01*
X026846Y006212D02*
X026898Y006160D01*
X027001Y006160D01*
X027053Y006212D01*
X027053Y006419D02*
X027001Y006470D01*
X026898Y006470D01*
X026846Y006419D01*
X026846Y006212D01*
X027141Y006470D02*
X027348Y006160D01*
X027142Y004720D02*
X027142Y004513D01*
X027039Y004410D01*
X026935Y004513D01*
X026935Y004720D01*
X026848Y004720D02*
X026641Y004720D01*
X026641Y004565D01*
X026744Y004617D01*
X026796Y004617D01*
X026848Y004565D01*
X026848Y004462D01*
X026796Y004410D01*
X026692Y004410D01*
X026641Y004462D01*
X028221Y004169D02*
X028221Y004117D01*
X028273Y004065D01*
X028376Y004065D01*
X028428Y004013D01*
X028428Y003962D01*
X028376Y003910D01*
X028273Y003910D01*
X028221Y003962D01*
X028221Y004169D02*
X028273Y004220D01*
X028376Y004220D01*
X028428Y004169D01*
X028516Y004220D02*
X028671Y004220D01*
X028723Y004169D01*
X028723Y003962D01*
X028671Y003910D01*
X028516Y003910D01*
X028516Y004220D01*
X028810Y004117D02*
X028914Y004220D01*
X029017Y004117D01*
X029017Y003910D01*
X029017Y004065D02*
X028810Y004065D01*
X028810Y004117D02*
X028810Y003910D01*
X030096Y004410D02*
X030303Y004410D01*
X030391Y004410D02*
X030598Y004617D01*
X030598Y004669D01*
X030546Y004720D01*
X030442Y004720D01*
X030391Y004669D01*
X030199Y004720D02*
X030199Y004410D01*
X030391Y004410D02*
X030598Y004410D01*
X030685Y004513D02*
X030789Y004410D01*
X030892Y004513D01*
X030892Y004720D01*
X030685Y004720D02*
X030685Y004513D01*
X030199Y004720D02*
X030096Y004617D01*
X033141Y004565D02*
X033244Y004617D01*
X033296Y004617D01*
X033348Y004565D01*
X033348Y004462D01*
X033296Y004410D01*
X033192Y004410D01*
X033141Y004462D01*
X033141Y004565D02*
X033141Y004720D01*
X033348Y004720D01*
X033435Y004720D02*
X033435Y004513D01*
X033539Y004410D01*
X033642Y004513D01*
X033642Y004720D01*
X034721Y004169D02*
X034721Y004117D01*
X034773Y004065D01*
X034876Y004065D01*
X034928Y004013D01*
X034928Y003962D01*
X034876Y003910D01*
X034773Y003910D01*
X034721Y003962D01*
X034721Y004169D02*
X034773Y004220D01*
X034876Y004220D01*
X034928Y004169D01*
X035016Y004220D02*
X035171Y004220D01*
X035223Y004169D01*
X035223Y003962D01*
X035171Y003910D01*
X035016Y003910D01*
X035016Y004220D01*
X035310Y004117D02*
X035310Y003910D01*
X035310Y004065D02*
X035517Y004065D01*
X035517Y004117D02*
X035517Y003910D01*
X035517Y004117D02*
X035414Y004220D01*
X035310Y004117D01*
X036596Y004410D02*
X036803Y004410D01*
X036891Y004410D02*
X037098Y004617D01*
X037098Y004669D01*
X037046Y004720D01*
X036942Y004720D01*
X036891Y004669D01*
X036699Y004720D02*
X036699Y004410D01*
X036891Y004410D02*
X037098Y004410D01*
X037185Y004513D02*
X037289Y004410D01*
X037392Y004513D01*
X037392Y004720D01*
X037185Y004720D02*
X037185Y004513D01*
X036699Y004720D02*
X036596Y004617D01*
X036546Y006160D02*
X036598Y006212D01*
X036546Y006160D02*
X036442Y006160D01*
X036391Y006212D01*
X036391Y006419D01*
X036442Y006470D01*
X036546Y006470D01*
X036598Y006419D01*
X036685Y006470D02*
X036685Y006160D01*
X036892Y006160D01*
X036303Y006212D02*
X036251Y006160D01*
X036148Y006160D01*
X036096Y006212D01*
X036148Y006315D02*
X036251Y006315D01*
X036303Y006263D01*
X036303Y006212D01*
X036148Y006315D02*
X036096Y006367D01*
X036096Y006419D01*
X036148Y006470D01*
X036251Y006470D01*
X036303Y006419D01*
X035392Y006419D02*
X035340Y006470D01*
X035185Y006470D01*
X035185Y006160D01*
X035340Y006160D01*
X035392Y006212D01*
X035392Y006419D01*
X035098Y006470D02*
X035098Y006160D01*
X034891Y006470D01*
X034891Y006160D01*
X034803Y006212D02*
X034803Y006315D01*
X034699Y006315D01*
X034596Y006212D02*
X034648Y006160D01*
X034751Y006160D01*
X034803Y006212D01*
X034803Y006419D02*
X034751Y006470D01*
X034648Y006470D01*
X034596Y006419D01*
X034596Y006212D01*
X034142Y006212D02*
X034142Y006419D01*
X034090Y006470D01*
X033935Y006470D01*
X033935Y006160D01*
X034090Y006160D01*
X034142Y006212D01*
X033848Y006160D02*
X033848Y006470D01*
X033641Y006470D02*
X033641Y006160D01*
X033553Y006212D02*
X033553Y006315D01*
X033449Y006315D01*
X033346Y006212D02*
X033398Y006160D01*
X033501Y006160D01*
X033553Y006212D01*
X033553Y006419D02*
X033501Y006470D01*
X033398Y006470D01*
X033346Y006419D01*
X033346Y006212D01*
X033641Y006470D02*
X033848Y006160D01*
X039641Y004720D02*
X039641Y004565D01*
X039744Y004617D01*
X039796Y004617D01*
X039848Y004565D01*
X039848Y004462D01*
X039796Y004410D01*
X039692Y004410D01*
X039641Y004462D01*
X039641Y004720D02*
X039848Y004720D01*
X039935Y004720D02*
X039935Y004513D01*
X040039Y004410D01*
X040142Y004513D01*
X040142Y004720D01*
X041221Y004169D02*
X041221Y004117D01*
X041273Y004065D01*
X041376Y004065D01*
X041428Y004013D01*
X041428Y003962D01*
X041376Y003910D01*
X041273Y003910D01*
X041221Y003962D01*
X041221Y004169D02*
X041273Y004220D01*
X041376Y004220D01*
X041428Y004169D01*
X041516Y004220D02*
X041671Y004220D01*
X041723Y004169D01*
X041723Y003962D01*
X041671Y003910D01*
X041516Y003910D01*
X041516Y004220D01*
X041810Y004117D02*
X041810Y003910D01*
X041810Y004065D02*
X042017Y004065D01*
X042017Y004117D02*
X042017Y003910D01*
X042017Y004117D02*
X041914Y004220D01*
X041810Y004117D01*
X043096Y004410D02*
X043303Y004410D01*
X043391Y004410D02*
X043598Y004617D01*
X043598Y004669D01*
X043546Y004720D01*
X043442Y004720D01*
X043391Y004669D01*
X043199Y004720D02*
X043199Y004410D01*
X043391Y004410D02*
X043598Y004410D01*
X043685Y004513D02*
X043789Y004410D01*
X043892Y004513D01*
X043892Y004720D01*
X043685Y004720D02*
X043685Y004513D01*
X043199Y004720D02*
X043096Y004617D01*
X043046Y006160D02*
X043098Y006212D01*
X043046Y006160D02*
X042942Y006160D01*
X042891Y006212D01*
X042891Y006419D01*
X042942Y006470D01*
X043046Y006470D01*
X043098Y006419D01*
X043185Y006470D02*
X043185Y006160D01*
X043392Y006160D01*
X042803Y006212D02*
X042751Y006160D01*
X042648Y006160D01*
X042596Y006212D01*
X042648Y006315D02*
X042751Y006315D01*
X042803Y006263D01*
X042803Y006212D01*
X042648Y006315D02*
X042596Y006367D01*
X042596Y006419D01*
X042648Y006470D01*
X042751Y006470D01*
X042803Y006419D01*
X041892Y006419D02*
X041840Y006470D01*
X041685Y006470D01*
X041685Y006160D01*
X041840Y006160D01*
X041892Y006212D01*
X041892Y006419D01*
X041598Y006470D02*
X041598Y006160D01*
X041391Y006470D01*
X041391Y006160D01*
X041303Y006212D02*
X041303Y006315D01*
X041199Y006315D01*
X041096Y006212D02*
X041148Y006160D01*
X041251Y006160D01*
X041303Y006212D01*
X041303Y006419D02*
X041251Y006470D01*
X041148Y006470D01*
X041096Y006419D01*
X041096Y006212D01*
X040642Y006212D02*
X040642Y006419D01*
X040590Y006470D01*
X040435Y006470D01*
X040435Y006160D01*
X040590Y006160D01*
X040642Y006212D01*
X040348Y006160D02*
X040348Y006470D01*
X040141Y006470D02*
X040141Y006160D01*
X040053Y006212D02*
X040053Y006315D01*
X039949Y006315D01*
X039846Y006212D02*
X039898Y006160D01*
X040001Y006160D01*
X040053Y006212D01*
X040053Y006419D02*
X040001Y006470D01*
X039898Y006470D01*
X039846Y006419D01*
X039846Y006212D01*
X040141Y006470D02*
X040348Y006160D01*
X024392Y004720D02*
X024392Y004513D01*
X024289Y004410D01*
X024185Y004513D01*
X024185Y004720D01*
X024098Y004669D02*
X024046Y004720D01*
X023942Y004720D01*
X023891Y004669D01*
X023699Y004720D02*
X023699Y004410D01*
X023596Y004410D02*
X023803Y004410D01*
X023891Y004410D02*
X024098Y004617D01*
X024098Y004669D01*
X024098Y004410D02*
X023891Y004410D01*
X023596Y004617D02*
X023699Y004720D01*
X022517Y004117D02*
X022517Y003910D01*
X022517Y004065D02*
X022310Y004065D01*
X022310Y004117D02*
X022414Y004220D01*
X022517Y004117D01*
X022310Y004117D02*
X022310Y003910D01*
X022223Y003962D02*
X022171Y003910D01*
X022016Y003910D01*
X022016Y004220D01*
X022171Y004220D01*
X022223Y004169D01*
X022223Y003962D01*
X021928Y003962D02*
X021876Y003910D01*
X021773Y003910D01*
X021721Y003962D01*
X021773Y004065D02*
X021876Y004065D01*
X021928Y004013D01*
X021928Y003962D01*
X021773Y004065D02*
X021721Y004117D01*
X021721Y004169D01*
X021773Y004220D01*
X021876Y004220D01*
X021928Y004169D01*
X020642Y004513D02*
X020642Y004720D01*
X020642Y004513D02*
X020539Y004410D01*
X020435Y004513D01*
X020435Y004720D01*
X020348Y004720D02*
X020141Y004720D01*
X020141Y004565D01*
X020244Y004617D01*
X020296Y004617D01*
X020348Y004565D01*
X020348Y004462D01*
X020296Y004410D01*
X020192Y004410D01*
X020141Y004462D01*
X020398Y006160D02*
X020346Y006212D01*
X020346Y006419D01*
X020398Y006470D01*
X020501Y006470D01*
X020553Y006419D01*
X020641Y006470D02*
X020848Y006160D01*
X020848Y006470D01*
X020935Y006470D02*
X020935Y006160D01*
X021090Y006160D01*
X021142Y006212D01*
X021142Y006419D01*
X021090Y006470D01*
X020935Y006470D01*
X020641Y006470D02*
X020641Y006160D01*
X020553Y006212D02*
X020553Y006315D01*
X020449Y006315D01*
X020553Y006212D02*
X020501Y006160D01*
X020398Y006160D01*
X021596Y006212D02*
X021648Y006160D01*
X021751Y006160D01*
X021803Y006212D01*
X021803Y006315D01*
X021699Y006315D01*
X021596Y006212D02*
X021596Y006419D01*
X021648Y006470D01*
X021751Y006470D01*
X021803Y006419D01*
X021891Y006470D02*
X022098Y006160D01*
X022098Y006470D01*
X022185Y006470D02*
X022340Y006470D01*
X022392Y006419D01*
X022392Y006212D01*
X022340Y006160D01*
X022185Y006160D01*
X022185Y006470D01*
X021891Y006470D02*
X021891Y006160D01*
X023096Y006212D02*
X023148Y006160D01*
X023251Y006160D01*
X023303Y006212D01*
X023303Y006263D01*
X023251Y006315D01*
X023148Y006315D01*
X023096Y006367D01*
X023096Y006419D01*
X023148Y006470D01*
X023251Y006470D01*
X023303Y006419D01*
X023391Y006419D02*
X023442Y006470D01*
X023546Y006470D01*
X023598Y006419D01*
X023685Y006470D02*
X023685Y006160D01*
X023892Y006160D01*
X023598Y006212D02*
X023546Y006160D01*
X023442Y006160D01*
X023391Y006212D01*
X023391Y006419D01*
X016392Y004720D02*
X016392Y004513D01*
X016289Y004410D01*
X016185Y004513D01*
X016185Y004720D01*
X016098Y004669D02*
X016046Y004720D01*
X015942Y004720D01*
X015891Y004669D01*
X015699Y004720D02*
X015699Y004410D01*
X015596Y004410D02*
X015803Y004410D01*
X015891Y004410D02*
X016098Y004617D01*
X016098Y004669D01*
X016098Y004410D02*
X015891Y004410D01*
X015596Y004617D02*
X015699Y004720D01*
X014267Y004169D02*
X014267Y004117D01*
X014215Y004065D01*
X014060Y004065D01*
X014060Y003910D02*
X014060Y004220D01*
X014215Y004220D01*
X014267Y004169D01*
X014215Y004065D02*
X014267Y004013D01*
X014267Y003962D01*
X014215Y003910D01*
X014060Y003910D01*
X012642Y004513D02*
X012642Y004720D01*
X012642Y004513D02*
X012539Y004410D01*
X012435Y004513D01*
X012435Y004720D01*
X012348Y004720D02*
X012141Y004720D01*
X012141Y004565D01*
X012244Y004617D01*
X012296Y004617D01*
X012348Y004565D01*
X012348Y004462D01*
X012296Y004410D01*
X012192Y004410D01*
X012141Y004462D01*
X012398Y006160D02*
X012501Y006160D01*
X012553Y006212D01*
X012553Y006315D01*
X012449Y006315D01*
X012346Y006212D02*
X012398Y006160D01*
X012346Y006212D02*
X012346Y006419D01*
X012398Y006470D01*
X012501Y006470D01*
X012553Y006419D01*
X012641Y006470D02*
X012848Y006160D01*
X012848Y006470D01*
X012935Y006470D02*
X012935Y006160D01*
X013090Y006160D01*
X013142Y006212D01*
X013142Y006419D01*
X013090Y006470D01*
X012935Y006470D01*
X012641Y006470D02*
X012641Y006160D01*
X013685Y006212D02*
X013737Y006160D01*
X013840Y006160D01*
X013892Y006212D01*
X013892Y006315D01*
X013789Y006315D01*
X013892Y006419D02*
X013840Y006470D01*
X013737Y006470D01*
X013685Y006419D01*
X013685Y006212D01*
X014685Y006263D02*
X014840Y006263D01*
X014892Y006315D01*
X014892Y006419D01*
X014840Y006470D01*
X014685Y006470D01*
X014685Y006160D01*
X014789Y006263D02*
X014892Y006160D01*
D12*
X017018Y010034D03*
X019182Y010034D03*
X025018Y010034D03*
X025682Y010034D03*
X031518Y010034D03*
X032182Y010034D03*
X038018Y010034D03*
X038682Y010034D03*
X044518Y010034D03*
X044518Y027666D03*
X038682Y027666D03*
X038018Y027666D03*
X032182Y027666D03*
X031518Y027666D03*
X025682Y027666D03*
X025018Y027666D03*
X019182Y027666D03*
X018518Y027666D03*
X012682Y027666D03*
X012018Y027666D03*
X006182Y027666D03*
X011182Y010034D03*
D13*
X009480Y012600D02*
X009480Y013600D01*
X010781Y013519D02*
X010809Y013471D01*
X010833Y013422D01*
X010853Y013370D01*
X010870Y013318D01*
X010883Y013264D01*
X010892Y013210D01*
X010898Y013155D01*
X010900Y013100D01*
X010795Y013497D02*
X010765Y013545D01*
X010732Y013590D01*
X010696Y013633D01*
X010658Y013674D01*
X010616Y013711D01*
X010572Y013746D01*
X010526Y013777D01*
X010477Y013806D01*
X010427Y013830D01*
X010375Y013851D01*
X010321Y013869D01*
X010267Y013882D01*
X010212Y013892D01*
X010156Y013898D01*
X010100Y013900D01*
X010900Y013100D02*
X010898Y013044D01*
X010892Y012987D01*
X010882Y012932D01*
X010868Y012877D01*
X010851Y012824D01*
X010829Y012771D01*
X010804Y012721D01*
X010100Y012300D02*
X010046Y012302D01*
X009993Y012307D01*
X009939Y012316D01*
X009887Y012329D01*
X009836Y012345D01*
X009785Y012365D01*
X009736Y012387D01*
X009689Y012413D01*
X009644Y012443D01*
X009601Y012475D01*
X009560Y012510D01*
X009521Y012548D01*
X009485Y012588D01*
X010100Y012300D02*
X010154Y012302D01*
X010208Y012307D01*
X010261Y012316D01*
X010314Y012329D01*
X010365Y012345D01*
X010415Y012365D01*
X010464Y012388D01*
X010512Y012414D01*
X010557Y012443D01*
X010600Y012476D01*
X010641Y012511D01*
X010680Y012549D01*
X010716Y012589D01*
X010749Y012632D01*
X010779Y012677D01*
X010806Y012724D01*
X010100Y013900D02*
X010047Y013898D01*
X009993Y013893D01*
X009941Y013884D01*
X009889Y013872D01*
X009838Y013856D01*
X009788Y013837D01*
X009739Y013814D01*
X009692Y013788D01*
X009647Y013760D01*
X009604Y013728D01*
X009564Y013694D01*
X009525Y013656D01*
X009489Y013617D01*
X009480Y014600D02*
X009480Y015600D01*
X010781Y015519D02*
X010809Y015471D01*
X010833Y015422D01*
X010853Y015370D01*
X010870Y015318D01*
X010883Y015264D01*
X010892Y015210D01*
X010898Y015155D01*
X010900Y015100D01*
X010795Y015497D02*
X010765Y015545D01*
X010732Y015590D01*
X010696Y015633D01*
X010658Y015674D01*
X010616Y015711D01*
X010572Y015746D01*
X010526Y015777D01*
X010477Y015806D01*
X010427Y015830D01*
X010375Y015851D01*
X010321Y015869D01*
X010267Y015882D01*
X010212Y015892D01*
X010156Y015898D01*
X010100Y015900D01*
X010900Y015100D02*
X010898Y015044D01*
X010892Y014987D01*
X010882Y014932D01*
X010868Y014877D01*
X010851Y014824D01*
X010829Y014771D01*
X010804Y014721D01*
X010100Y014300D02*
X010046Y014302D01*
X009993Y014307D01*
X009939Y014316D01*
X009887Y014329D01*
X009836Y014345D01*
X009785Y014365D01*
X009736Y014387D01*
X009689Y014413D01*
X009644Y014443D01*
X009601Y014475D01*
X009560Y014510D01*
X009521Y014548D01*
X009485Y014588D01*
X010100Y014300D02*
X010154Y014302D01*
X010208Y014307D01*
X010261Y014316D01*
X010314Y014329D01*
X010365Y014345D01*
X010415Y014365D01*
X010464Y014388D01*
X010512Y014414D01*
X010557Y014443D01*
X010600Y014476D01*
X010641Y014511D01*
X010680Y014549D01*
X010716Y014589D01*
X010749Y014632D01*
X010779Y014677D01*
X010806Y014724D01*
X010100Y015900D02*
X010047Y015898D01*
X009993Y015893D01*
X009941Y015884D01*
X009889Y015872D01*
X009838Y015856D01*
X009788Y015837D01*
X009739Y015814D01*
X009692Y015788D01*
X009647Y015760D01*
X009604Y015728D01*
X009564Y015694D01*
X009525Y015656D01*
X009489Y015617D01*
X010497Y019905D02*
X010545Y019935D01*
X010590Y019968D01*
X010633Y020004D01*
X010674Y020042D01*
X010711Y020084D01*
X010746Y020128D01*
X010777Y020174D01*
X010806Y020223D01*
X010830Y020273D01*
X010851Y020325D01*
X010869Y020379D01*
X010882Y020433D01*
X010892Y020488D01*
X010898Y020544D01*
X010900Y020600D01*
X010519Y019919D02*
X010471Y019891D01*
X010422Y019867D01*
X010370Y019847D01*
X010318Y019830D01*
X010264Y019817D01*
X010210Y019808D01*
X010155Y019802D01*
X010100Y019800D01*
X010044Y019802D01*
X009987Y019808D01*
X009932Y019818D01*
X009877Y019832D01*
X009824Y019849D01*
X009771Y019871D01*
X009721Y019896D01*
X009724Y019894D02*
X009677Y019921D01*
X009632Y019951D01*
X009589Y019984D01*
X009549Y020020D01*
X009511Y020059D01*
X009476Y020100D01*
X009443Y020143D01*
X009414Y020188D01*
X009388Y020236D01*
X009365Y020285D01*
X009345Y020335D01*
X009329Y020386D01*
X009316Y020439D01*
X009307Y020492D01*
X009302Y020546D01*
X009300Y020600D01*
X009600Y021220D02*
X010600Y021220D01*
X010617Y021211D02*
X010656Y021175D01*
X010694Y021136D01*
X010728Y021096D01*
X010760Y021053D01*
X010788Y021008D01*
X010814Y020961D01*
X010837Y020912D01*
X010856Y020862D01*
X010872Y020811D01*
X010884Y020759D01*
X010893Y020707D01*
X010898Y020653D01*
X010900Y020600D01*
X009588Y021215D02*
X009548Y021179D01*
X009510Y021140D01*
X009475Y021099D01*
X009443Y021056D01*
X009413Y021011D01*
X009387Y020964D01*
X009365Y020915D01*
X009345Y020864D01*
X009329Y020813D01*
X009316Y020761D01*
X009307Y020707D01*
X009302Y020654D01*
X009300Y020600D01*
X010497Y021905D02*
X010545Y021935D01*
X010590Y021968D01*
X010633Y022004D01*
X010674Y022042D01*
X010711Y022084D01*
X010746Y022128D01*
X010777Y022174D01*
X010806Y022223D01*
X010830Y022273D01*
X010851Y022325D01*
X010869Y022379D01*
X010882Y022433D01*
X010892Y022488D01*
X010898Y022544D01*
X010900Y022600D01*
X010519Y021919D02*
X010471Y021891D01*
X010422Y021867D01*
X010370Y021847D01*
X010318Y021830D01*
X010264Y021817D01*
X010210Y021808D01*
X010155Y021802D01*
X010100Y021800D01*
X010044Y021802D01*
X009987Y021808D01*
X009932Y021818D01*
X009877Y021832D01*
X009824Y021849D01*
X009771Y021871D01*
X009721Y021896D01*
X009724Y021894D02*
X009677Y021921D01*
X009632Y021951D01*
X009589Y021984D01*
X009549Y022020D01*
X009511Y022059D01*
X009476Y022100D01*
X009443Y022143D01*
X009414Y022188D01*
X009388Y022236D01*
X009365Y022285D01*
X009345Y022335D01*
X009329Y022386D01*
X009316Y022439D01*
X009307Y022492D01*
X009302Y022546D01*
X009300Y022600D01*
X009600Y023220D02*
X010600Y023220D01*
X010617Y023211D02*
X010656Y023175D01*
X010694Y023136D01*
X010728Y023096D01*
X010760Y023053D01*
X010788Y023008D01*
X010814Y022961D01*
X010837Y022912D01*
X010856Y022862D01*
X010872Y022811D01*
X010884Y022759D01*
X010893Y022707D01*
X010898Y022653D01*
X010900Y022600D01*
X009588Y023215D02*
X009548Y023179D01*
X009510Y023140D01*
X009475Y023099D01*
X009443Y023056D01*
X009413Y023011D01*
X009387Y022964D01*
X009365Y022915D01*
X009345Y022864D01*
X009329Y022813D01*
X009316Y022761D01*
X009307Y022707D01*
X009302Y022654D01*
X009300Y022600D01*
X008480Y024600D02*
X008480Y025600D01*
X009781Y025519D02*
X009809Y025471D01*
X009833Y025422D01*
X009853Y025370D01*
X009870Y025318D01*
X009883Y025264D01*
X009892Y025210D01*
X009898Y025155D01*
X009900Y025100D01*
X009795Y025497D02*
X009765Y025545D01*
X009732Y025590D01*
X009696Y025633D01*
X009658Y025674D01*
X009616Y025711D01*
X009572Y025746D01*
X009526Y025777D01*
X009477Y025806D01*
X009427Y025830D01*
X009375Y025851D01*
X009321Y025869D01*
X009267Y025882D01*
X009212Y025892D01*
X009156Y025898D01*
X009100Y025900D01*
X009900Y025100D02*
X009898Y025044D01*
X009892Y024987D01*
X009882Y024932D01*
X009868Y024877D01*
X009851Y024824D01*
X009829Y024771D01*
X009804Y024721D01*
X009100Y024300D02*
X009046Y024302D01*
X008993Y024307D01*
X008939Y024316D01*
X008887Y024329D01*
X008836Y024345D01*
X008785Y024365D01*
X008736Y024387D01*
X008689Y024413D01*
X008644Y024443D01*
X008601Y024475D01*
X008560Y024510D01*
X008521Y024548D01*
X008485Y024588D01*
X009100Y024300D02*
X009154Y024302D01*
X009208Y024307D01*
X009261Y024316D01*
X009314Y024329D01*
X009365Y024345D01*
X009415Y024365D01*
X009464Y024388D01*
X009512Y024414D01*
X009557Y024443D01*
X009600Y024476D01*
X009641Y024511D01*
X009680Y024549D01*
X009716Y024589D01*
X009749Y024632D01*
X009779Y024677D01*
X009806Y024724D01*
X009100Y025900D02*
X009047Y025898D01*
X008993Y025893D01*
X008941Y025884D01*
X008889Y025872D01*
X008838Y025856D01*
X008788Y025837D01*
X008739Y025814D01*
X008692Y025788D01*
X008647Y025760D01*
X008604Y025728D01*
X008564Y025694D01*
X008525Y025656D01*
X008489Y025617D01*
X014980Y025600D02*
X014980Y024600D01*
X015600Y024300D02*
X015654Y024302D01*
X015708Y024307D01*
X015761Y024316D01*
X015814Y024329D01*
X015865Y024345D01*
X015915Y024365D01*
X015964Y024388D01*
X016012Y024414D01*
X016057Y024443D01*
X016100Y024476D01*
X016141Y024511D01*
X016180Y024549D01*
X016216Y024589D01*
X016249Y024632D01*
X016279Y024677D01*
X016306Y024724D01*
X016295Y025497D02*
X016265Y025545D01*
X016232Y025590D01*
X016196Y025633D01*
X016158Y025674D01*
X016116Y025711D01*
X016072Y025746D01*
X016026Y025777D01*
X015977Y025806D01*
X015927Y025830D01*
X015875Y025851D01*
X015821Y025869D01*
X015767Y025882D01*
X015712Y025892D01*
X015656Y025898D01*
X015600Y025900D01*
X016281Y025519D02*
X016309Y025471D01*
X016333Y025422D01*
X016353Y025370D01*
X016370Y025318D01*
X016383Y025264D01*
X016392Y025210D01*
X016398Y025155D01*
X016400Y025100D01*
X016398Y025044D01*
X016392Y024987D01*
X016382Y024932D01*
X016368Y024877D01*
X016351Y024824D01*
X016329Y024771D01*
X016304Y024721D01*
X015600Y024300D02*
X015546Y024302D01*
X015493Y024307D01*
X015439Y024316D01*
X015387Y024329D01*
X015336Y024345D01*
X015285Y024365D01*
X015236Y024387D01*
X015189Y024413D01*
X015144Y024443D01*
X015101Y024475D01*
X015060Y024510D01*
X015021Y024548D01*
X014985Y024588D01*
X014989Y025617D02*
X015025Y025656D01*
X015064Y025694D01*
X015104Y025728D01*
X015147Y025760D01*
X015192Y025788D01*
X015239Y025814D01*
X015288Y025837D01*
X015338Y025856D01*
X015389Y025872D01*
X015441Y025884D01*
X015493Y025893D01*
X015547Y025898D01*
X015600Y025900D01*
X021480Y025600D02*
X021480Y024600D01*
X022100Y024300D02*
X022154Y024302D01*
X022208Y024307D01*
X022261Y024316D01*
X022314Y024329D01*
X022365Y024345D01*
X022415Y024365D01*
X022464Y024388D01*
X022512Y024414D01*
X022557Y024443D01*
X022600Y024476D01*
X022641Y024511D01*
X022680Y024549D01*
X022716Y024589D01*
X022749Y024632D01*
X022779Y024677D01*
X022806Y024724D01*
X022795Y025497D02*
X022765Y025545D01*
X022732Y025590D01*
X022696Y025633D01*
X022658Y025674D01*
X022616Y025711D01*
X022572Y025746D01*
X022526Y025777D01*
X022477Y025806D01*
X022427Y025830D01*
X022375Y025851D01*
X022321Y025869D01*
X022267Y025882D01*
X022212Y025892D01*
X022156Y025898D01*
X022100Y025900D01*
X022781Y025519D02*
X022809Y025471D01*
X022833Y025422D01*
X022853Y025370D01*
X022870Y025318D01*
X022883Y025264D01*
X022892Y025210D01*
X022898Y025155D01*
X022900Y025100D01*
X022898Y025044D01*
X022892Y024987D01*
X022882Y024932D01*
X022868Y024877D01*
X022851Y024824D01*
X022829Y024771D01*
X022804Y024721D01*
X022100Y024300D02*
X022046Y024302D01*
X021993Y024307D01*
X021939Y024316D01*
X021887Y024329D01*
X021836Y024345D01*
X021785Y024365D01*
X021736Y024387D01*
X021689Y024413D01*
X021644Y024443D01*
X021601Y024475D01*
X021560Y024510D01*
X021521Y024548D01*
X021485Y024588D01*
X021489Y025617D02*
X021525Y025656D01*
X021564Y025694D01*
X021604Y025728D01*
X021647Y025760D01*
X021692Y025788D01*
X021739Y025814D01*
X021788Y025837D01*
X021838Y025856D01*
X021889Y025872D01*
X021941Y025884D01*
X021993Y025893D01*
X022047Y025898D01*
X022100Y025900D01*
X027980Y025600D02*
X027980Y024600D01*
X028600Y024300D02*
X028654Y024302D01*
X028708Y024307D01*
X028761Y024316D01*
X028814Y024329D01*
X028865Y024345D01*
X028915Y024365D01*
X028964Y024388D01*
X029012Y024414D01*
X029057Y024443D01*
X029100Y024476D01*
X029141Y024511D01*
X029180Y024549D01*
X029216Y024589D01*
X029249Y024632D01*
X029279Y024677D01*
X029306Y024724D01*
X029295Y025497D02*
X029265Y025545D01*
X029232Y025590D01*
X029196Y025633D01*
X029158Y025674D01*
X029116Y025711D01*
X029072Y025746D01*
X029026Y025777D01*
X028977Y025806D01*
X028927Y025830D01*
X028875Y025851D01*
X028821Y025869D01*
X028767Y025882D01*
X028712Y025892D01*
X028656Y025898D01*
X028600Y025900D01*
X029281Y025519D02*
X029309Y025471D01*
X029333Y025422D01*
X029353Y025370D01*
X029370Y025318D01*
X029383Y025264D01*
X029392Y025210D01*
X029398Y025155D01*
X029400Y025100D01*
X029398Y025044D01*
X029392Y024987D01*
X029382Y024932D01*
X029368Y024877D01*
X029351Y024824D01*
X029329Y024771D01*
X029304Y024721D01*
X028600Y024300D02*
X028546Y024302D01*
X028493Y024307D01*
X028439Y024316D01*
X028387Y024329D01*
X028336Y024345D01*
X028285Y024365D01*
X028236Y024387D01*
X028189Y024413D01*
X028144Y024443D01*
X028101Y024475D01*
X028060Y024510D01*
X028021Y024548D01*
X027985Y024588D01*
X027989Y025617D02*
X028025Y025656D01*
X028064Y025694D01*
X028104Y025728D01*
X028147Y025760D01*
X028192Y025788D01*
X028239Y025814D01*
X028288Y025837D01*
X028338Y025856D01*
X028389Y025872D01*
X028441Y025884D01*
X028493Y025893D01*
X028547Y025898D01*
X028600Y025900D01*
X034480Y025600D02*
X034480Y024600D01*
X035100Y024300D02*
X035154Y024302D01*
X035208Y024307D01*
X035261Y024316D01*
X035314Y024329D01*
X035365Y024345D01*
X035415Y024365D01*
X035464Y024388D01*
X035512Y024414D01*
X035557Y024443D01*
X035600Y024476D01*
X035641Y024511D01*
X035680Y024549D01*
X035716Y024589D01*
X035749Y024632D01*
X035779Y024677D01*
X035806Y024724D01*
X035795Y025497D02*
X035765Y025545D01*
X035732Y025590D01*
X035696Y025633D01*
X035658Y025674D01*
X035616Y025711D01*
X035572Y025746D01*
X035526Y025777D01*
X035477Y025806D01*
X035427Y025830D01*
X035375Y025851D01*
X035321Y025869D01*
X035267Y025882D01*
X035212Y025892D01*
X035156Y025898D01*
X035100Y025900D01*
X035781Y025519D02*
X035809Y025471D01*
X035833Y025422D01*
X035853Y025370D01*
X035870Y025318D01*
X035883Y025264D01*
X035892Y025210D01*
X035898Y025155D01*
X035900Y025100D01*
X035898Y025044D01*
X035892Y024987D01*
X035882Y024932D01*
X035868Y024877D01*
X035851Y024824D01*
X035829Y024771D01*
X035804Y024721D01*
X035100Y024300D02*
X035046Y024302D01*
X034993Y024307D01*
X034939Y024316D01*
X034887Y024329D01*
X034836Y024345D01*
X034785Y024365D01*
X034736Y024387D01*
X034689Y024413D01*
X034644Y024443D01*
X034601Y024475D01*
X034560Y024510D01*
X034521Y024548D01*
X034485Y024588D01*
X034489Y025617D02*
X034525Y025656D01*
X034564Y025694D01*
X034604Y025728D01*
X034647Y025760D01*
X034692Y025788D01*
X034739Y025814D01*
X034788Y025837D01*
X034838Y025856D01*
X034889Y025872D01*
X034941Y025884D01*
X034993Y025893D01*
X035047Y025898D01*
X035100Y025900D01*
X040980Y025600D02*
X040980Y024600D01*
X041600Y024300D02*
X041654Y024302D01*
X041708Y024307D01*
X041761Y024316D01*
X041814Y024329D01*
X041865Y024345D01*
X041915Y024365D01*
X041964Y024388D01*
X042012Y024414D01*
X042057Y024443D01*
X042100Y024476D01*
X042141Y024511D01*
X042180Y024549D01*
X042216Y024589D01*
X042249Y024632D01*
X042279Y024677D01*
X042306Y024724D01*
X042295Y025497D02*
X042265Y025545D01*
X042232Y025590D01*
X042196Y025633D01*
X042158Y025674D01*
X042116Y025711D01*
X042072Y025746D01*
X042026Y025777D01*
X041977Y025806D01*
X041927Y025830D01*
X041875Y025851D01*
X041821Y025869D01*
X041767Y025882D01*
X041712Y025892D01*
X041656Y025898D01*
X041600Y025900D01*
X042281Y025519D02*
X042309Y025471D01*
X042333Y025422D01*
X042353Y025370D01*
X042370Y025318D01*
X042383Y025264D01*
X042392Y025210D01*
X042398Y025155D01*
X042400Y025100D01*
X042398Y025044D01*
X042392Y024987D01*
X042382Y024932D01*
X042368Y024877D01*
X042351Y024824D01*
X042329Y024771D01*
X042304Y024721D01*
X041600Y024300D02*
X041546Y024302D01*
X041493Y024307D01*
X041439Y024316D01*
X041387Y024329D01*
X041336Y024345D01*
X041285Y024365D01*
X041236Y024387D01*
X041189Y024413D01*
X041144Y024443D01*
X041101Y024475D01*
X041060Y024510D01*
X041021Y024548D01*
X040985Y024588D01*
X040989Y025617D02*
X041025Y025656D01*
X041064Y025694D01*
X041104Y025728D01*
X041147Y025760D01*
X041192Y025788D01*
X041239Y025814D01*
X041288Y025837D01*
X041338Y025856D01*
X041389Y025872D01*
X041441Y025884D01*
X041493Y025893D01*
X041547Y025898D01*
X041600Y025900D01*
X026064Y020175D02*
X026066Y020195D01*
X026071Y020215D01*
X026081Y020233D01*
X026093Y020250D01*
X026108Y020264D01*
X026126Y020274D01*
X026145Y020282D01*
X026165Y020286D01*
X026185Y020286D01*
X026205Y020282D01*
X026224Y020274D01*
X026242Y020264D01*
X026257Y020250D01*
X026269Y020233D01*
X026279Y020215D01*
X026284Y020195D01*
X026286Y020175D01*
X026284Y020155D01*
X026279Y020135D01*
X026269Y020117D01*
X026257Y020100D01*
X026242Y020086D01*
X026224Y020076D01*
X026205Y020068D01*
X026185Y020064D01*
X026165Y020064D01*
X026145Y020068D01*
X026126Y020076D01*
X026108Y020086D01*
X026093Y020100D01*
X026081Y020117D01*
X026071Y020135D01*
X026066Y020155D01*
X026064Y020175D01*
D14*
X005919Y008330D02*
X005919Y005870D01*
X007281Y005870D01*
X007281Y008330D01*
X005919Y008330D01*
X009439Y008350D02*
X009761Y008350D01*
X009761Y007850D02*
X009439Y007850D01*
X016320Y012350D02*
X016880Y012350D01*
X016880Y012850D02*
X016320Y012850D01*
X016320Y013350D02*
X016880Y013350D01*
X016880Y013850D02*
X016320Y013850D01*
X016320Y014350D02*
X016880Y014350D01*
X016880Y014850D02*
X016320Y014850D01*
X011850Y014939D02*
X011850Y015261D01*
X011350Y015261D02*
X011350Y014939D01*
X010100Y014500D02*
X010053Y014502D01*
X010005Y014508D01*
X009959Y014517D01*
X009913Y014530D01*
X009869Y014546D01*
X009825Y014567D01*
X009784Y014590D01*
X009745Y014616D01*
X009708Y014646D01*
X009673Y014679D01*
X009641Y014714D01*
X009612Y014751D01*
X010100Y015700D02*
X010145Y015698D01*
X010191Y015693D01*
X010235Y015685D01*
X010279Y015673D01*
X010322Y015657D01*
X010364Y015639D01*
X010404Y015617D01*
X010442Y015593D01*
X010478Y015566D01*
X010513Y015536D01*
X010544Y015503D01*
X010574Y015468D01*
X010548Y015499D02*
X010579Y015461D01*
X010607Y015421D01*
X010631Y015379D01*
X010652Y015336D01*
X010669Y015290D01*
X010682Y015244D01*
X010692Y015196D01*
X010698Y015148D01*
X010700Y015100D01*
X010100Y015700D02*
X010055Y015698D01*
X010009Y015693D01*
X009965Y015685D01*
X009921Y015673D01*
X009878Y015657D01*
X009836Y015639D01*
X009796Y015617D01*
X009758Y015593D01*
X009722Y015566D01*
X009687Y015536D01*
X009656Y015503D01*
X009626Y015468D01*
X009500Y015100D02*
X009502Y015053D01*
X009507Y015006D01*
X009517Y014960D01*
X009530Y014914D01*
X009546Y014870D01*
X009566Y014827D01*
X009589Y014786D01*
X009615Y014747D01*
X009644Y014710D01*
X009500Y015100D02*
X009502Y015146D01*
X009507Y015192D01*
X009516Y015238D01*
X009528Y015282D01*
X009544Y015326D01*
X009563Y015368D01*
X009585Y015409D01*
X009611Y015447D01*
X009639Y015484D01*
X010100Y014500D02*
X010146Y014502D01*
X010192Y014507D01*
X010238Y014516D01*
X010283Y014528D01*
X010326Y014544D01*
X010368Y014563D01*
X010409Y014586D01*
X010448Y014611D01*
X010484Y014639D01*
X010519Y014670D01*
X010551Y014704D01*
X010580Y014740D01*
X010100Y015500D02*
X010061Y015498D01*
X010022Y015492D01*
X009984Y015483D01*
X009947Y015470D01*
X009911Y015453D01*
X009878Y015433D01*
X009846Y015409D01*
X009817Y015383D01*
X009791Y015354D01*
X009767Y015322D01*
X009747Y015289D01*
X009730Y015253D01*
X009717Y015216D01*
X009708Y015178D01*
X009702Y015139D01*
X009700Y015100D01*
X009850Y015100D02*
X009852Y015130D01*
X009857Y015160D01*
X009866Y015189D01*
X009879Y015216D01*
X009894Y015242D01*
X009913Y015266D01*
X009934Y015287D01*
X009958Y015306D01*
X009984Y015321D01*
X010011Y015334D01*
X010040Y015343D01*
X010070Y015348D01*
X010100Y015350D01*
X010700Y015100D02*
X010698Y015054D01*
X010693Y015008D01*
X010684Y014962D01*
X010672Y014918D01*
X010656Y014874D01*
X010637Y014832D01*
X010615Y014791D01*
X010589Y014753D01*
X010561Y014716D01*
X010500Y015100D02*
X010498Y015061D01*
X010492Y015022D01*
X010483Y014984D01*
X010470Y014947D01*
X010453Y014911D01*
X010433Y014878D01*
X010409Y014846D01*
X010383Y014817D01*
X010354Y014791D01*
X010322Y014767D01*
X010289Y014747D01*
X010253Y014730D01*
X010216Y014717D01*
X010178Y014708D01*
X010139Y014702D01*
X010100Y014700D01*
X010100Y014850D02*
X010130Y014852D01*
X010160Y014857D01*
X010189Y014866D01*
X010216Y014879D01*
X010242Y014894D01*
X010266Y014913D01*
X010287Y014934D01*
X010306Y014958D01*
X010321Y014984D01*
X010334Y015011D01*
X010343Y015040D01*
X010348Y015070D01*
X010350Y015100D01*
X011350Y013261D02*
X011350Y012939D01*
X011850Y012939D02*
X011850Y013261D01*
X010100Y012500D02*
X010053Y012502D01*
X010005Y012508D01*
X009959Y012517D01*
X009913Y012530D01*
X009869Y012546D01*
X009825Y012567D01*
X009784Y012590D01*
X009745Y012616D01*
X009708Y012646D01*
X009673Y012679D01*
X009641Y012714D01*
X009612Y012751D01*
X010100Y013700D02*
X010145Y013698D01*
X010191Y013693D01*
X010235Y013685D01*
X010279Y013673D01*
X010322Y013657D01*
X010364Y013639D01*
X010404Y013617D01*
X010442Y013593D01*
X010478Y013566D01*
X010513Y013536D01*
X010544Y013503D01*
X010574Y013468D01*
X010548Y013499D02*
X010579Y013461D01*
X010607Y013421D01*
X010631Y013379D01*
X010652Y013336D01*
X010669Y013290D01*
X010682Y013244D01*
X010692Y013196D01*
X010698Y013148D01*
X010700Y013100D01*
X010100Y013700D02*
X010055Y013698D01*
X010009Y013693D01*
X009965Y013685D01*
X009921Y013673D01*
X009878Y013657D01*
X009836Y013639D01*
X009796Y013617D01*
X009758Y013593D01*
X009722Y013566D01*
X009687Y013536D01*
X009656Y013503D01*
X009626Y013468D01*
X009500Y013100D02*
X009502Y013053D01*
X009507Y013006D01*
X009517Y012960D01*
X009530Y012914D01*
X009546Y012870D01*
X009566Y012827D01*
X009589Y012786D01*
X009615Y012747D01*
X009644Y012710D01*
X009500Y013100D02*
X009502Y013146D01*
X009507Y013192D01*
X009516Y013238D01*
X009528Y013282D01*
X009544Y013326D01*
X009563Y013368D01*
X009585Y013409D01*
X009611Y013447D01*
X009639Y013484D01*
X010100Y012500D02*
X010146Y012502D01*
X010192Y012507D01*
X010238Y012516D01*
X010283Y012528D01*
X010326Y012544D01*
X010368Y012563D01*
X010409Y012586D01*
X010448Y012611D01*
X010484Y012639D01*
X010519Y012670D01*
X010551Y012704D01*
X010580Y012740D01*
X010100Y013500D02*
X010061Y013498D01*
X010022Y013492D01*
X009984Y013483D01*
X009947Y013470D01*
X009911Y013453D01*
X009878Y013433D01*
X009846Y013409D01*
X009817Y013383D01*
X009791Y013354D01*
X009767Y013322D01*
X009747Y013289D01*
X009730Y013253D01*
X009717Y013216D01*
X009708Y013178D01*
X009702Y013139D01*
X009700Y013100D01*
X009850Y013100D02*
X009852Y013130D01*
X009857Y013160D01*
X009866Y013189D01*
X009879Y013216D01*
X009894Y013242D01*
X009913Y013266D01*
X009934Y013287D01*
X009958Y013306D01*
X009984Y013321D01*
X010011Y013334D01*
X010040Y013343D01*
X010070Y013348D01*
X010100Y013350D01*
X010700Y013100D02*
X010698Y013054D01*
X010693Y013008D01*
X010684Y012962D01*
X010672Y012918D01*
X010656Y012874D01*
X010637Y012832D01*
X010615Y012791D01*
X010589Y012753D01*
X010561Y012716D01*
X010500Y013100D02*
X010498Y013061D01*
X010492Y013022D01*
X010483Y012984D01*
X010470Y012947D01*
X010453Y012911D01*
X010433Y012878D01*
X010409Y012846D01*
X010383Y012817D01*
X010354Y012791D01*
X010322Y012767D01*
X010289Y012747D01*
X010253Y012730D01*
X010216Y012717D01*
X010178Y012708D01*
X010139Y012702D01*
X010100Y012700D01*
X010100Y012850D02*
X010130Y012852D01*
X010160Y012857D01*
X010189Y012866D01*
X010216Y012879D01*
X010242Y012894D01*
X010266Y012913D01*
X010287Y012934D01*
X010306Y012958D01*
X010321Y012984D01*
X010334Y013011D01*
X010343Y013040D01*
X010348Y013070D01*
X010350Y013100D01*
X019780Y018225D02*
X019780Y018980D01*
X020420Y018980D02*
X020420Y018225D01*
X021183Y018122D02*
X021503Y017802D01*
X021503Y018229D01*
X021503Y018446D02*
X021503Y018873D01*
X021503Y019091D02*
X021503Y019518D01*
X021396Y019518D02*
X021823Y019518D01*
X021716Y019735D02*
X021183Y019735D01*
X021396Y019518D02*
X021183Y019304D01*
X021396Y019091D01*
X021823Y019091D01*
X021716Y019735D02*
X021823Y019842D01*
X021823Y020056D01*
X021716Y020162D01*
X021183Y020162D01*
X021183Y018122D02*
X021823Y018122D01*
X021716Y017584D02*
X021183Y017584D01*
X021183Y017157D02*
X021716Y017157D01*
X021823Y017264D01*
X021823Y017478D01*
X021716Y017584D01*
X021823Y016940D02*
X021823Y016513D01*
X021396Y016940D01*
X021289Y016940D01*
X021183Y016833D01*
X021183Y016619D01*
X021289Y016513D01*
X021289Y016295D02*
X021396Y016295D01*
X021503Y016188D01*
X021610Y016295D01*
X021716Y016295D01*
X021823Y016188D01*
X021823Y015975D01*
X021716Y015868D01*
X021823Y015651D02*
X021396Y015651D01*
X021183Y015437D01*
X021396Y015224D01*
X021823Y015224D01*
X021716Y015006D02*
X021503Y015006D01*
X021503Y014793D01*
X021716Y015006D02*
X021823Y014899D01*
X021823Y014686D01*
X021716Y014579D01*
X021289Y014579D01*
X021183Y014686D01*
X021183Y014899D01*
X021289Y015006D01*
X021503Y015224D02*
X021503Y015651D01*
X021289Y015868D02*
X021183Y015975D01*
X021183Y016188D01*
X021289Y016295D01*
X021503Y016188D02*
X021503Y016082D01*
X021823Y014362D02*
X021823Y013934D01*
X021183Y013934D01*
X021183Y014362D01*
X021503Y014148D02*
X021503Y013934D01*
X021183Y013717D02*
X021823Y013717D01*
X021823Y013290D02*
X021183Y013290D01*
X021396Y013503D01*
X021183Y013717D01*
X021183Y013072D02*
X021183Y012645D01*
X021183Y012859D02*
X021823Y012859D01*
X021823Y012428D02*
X021396Y012428D01*
X021183Y012214D01*
X021396Y012001D01*
X021823Y012001D01*
X021503Y012001D02*
X021503Y012428D01*
X028850Y015320D02*
X028850Y015880D01*
X029350Y015880D02*
X029350Y015320D01*
X029350Y017320D02*
X029350Y017880D01*
X028850Y017880D02*
X028850Y017320D01*
X028350Y022939D02*
X028350Y023261D01*
X027850Y023261D02*
X027850Y022939D01*
X030350Y022939D02*
X030350Y023261D01*
X030850Y023261D02*
X030850Y022939D01*
X031350Y022939D02*
X031350Y023261D01*
X031850Y023261D02*
X031850Y022939D01*
X035100Y025700D02*
X035145Y025698D01*
X035191Y025693D01*
X035235Y025685D01*
X035279Y025673D01*
X035322Y025657D01*
X035364Y025639D01*
X035404Y025617D01*
X035442Y025593D01*
X035478Y025566D01*
X035513Y025536D01*
X035544Y025503D01*
X035574Y025468D01*
X035548Y025499D02*
X035579Y025461D01*
X035607Y025421D01*
X035631Y025379D01*
X035652Y025336D01*
X035669Y025290D01*
X035682Y025244D01*
X035692Y025196D01*
X035698Y025148D01*
X035700Y025100D01*
X035100Y024500D02*
X035053Y024502D01*
X035005Y024508D01*
X034959Y024517D01*
X034913Y024530D01*
X034869Y024546D01*
X034825Y024567D01*
X034784Y024590D01*
X034745Y024616D01*
X034708Y024646D01*
X034673Y024679D01*
X034641Y024714D01*
X034612Y024751D01*
X034500Y025100D02*
X034502Y025146D01*
X034507Y025192D01*
X034516Y025238D01*
X034528Y025282D01*
X034544Y025326D01*
X034563Y025368D01*
X034585Y025409D01*
X034611Y025447D01*
X034639Y025484D01*
X034500Y025100D02*
X034502Y025053D01*
X034507Y025006D01*
X034517Y024960D01*
X034530Y024914D01*
X034546Y024870D01*
X034566Y024827D01*
X034589Y024786D01*
X034615Y024747D01*
X034644Y024710D01*
X035100Y024500D02*
X035146Y024502D01*
X035192Y024507D01*
X035238Y024516D01*
X035283Y024528D01*
X035326Y024544D01*
X035368Y024563D01*
X035409Y024586D01*
X035448Y024611D01*
X035484Y024639D01*
X035519Y024670D01*
X035551Y024704D01*
X035580Y024740D01*
X035100Y025700D02*
X035055Y025698D01*
X035009Y025693D01*
X034965Y025685D01*
X034921Y025673D01*
X034878Y025657D01*
X034836Y025639D01*
X034796Y025617D01*
X034758Y025593D01*
X034722Y025566D01*
X034687Y025536D01*
X034656Y025503D01*
X034626Y025468D01*
X035700Y025100D02*
X035698Y025054D01*
X035693Y025008D01*
X035684Y024962D01*
X035672Y024918D01*
X035656Y024874D01*
X035637Y024832D01*
X035615Y024791D01*
X035589Y024753D01*
X035561Y024716D01*
X035100Y025500D02*
X035061Y025498D01*
X035022Y025492D01*
X034984Y025483D01*
X034947Y025470D01*
X034911Y025453D01*
X034878Y025433D01*
X034846Y025409D01*
X034817Y025383D01*
X034791Y025354D01*
X034767Y025322D01*
X034747Y025289D01*
X034730Y025253D01*
X034717Y025216D01*
X034708Y025178D01*
X034702Y025139D01*
X034700Y025100D01*
X034850Y025100D02*
X034852Y025130D01*
X034857Y025160D01*
X034866Y025189D01*
X034879Y025216D01*
X034894Y025242D01*
X034913Y025266D01*
X034934Y025287D01*
X034958Y025306D01*
X034984Y025321D01*
X035011Y025334D01*
X035040Y025343D01*
X035070Y025348D01*
X035100Y025350D01*
X035500Y025100D02*
X035498Y025061D01*
X035492Y025022D01*
X035483Y024984D01*
X035470Y024947D01*
X035453Y024911D01*
X035433Y024878D01*
X035409Y024846D01*
X035383Y024817D01*
X035354Y024791D01*
X035322Y024767D01*
X035289Y024747D01*
X035253Y024730D01*
X035216Y024717D01*
X035178Y024708D01*
X035139Y024702D01*
X035100Y024700D01*
X035100Y024850D02*
X035130Y024852D01*
X035160Y024857D01*
X035189Y024866D01*
X035216Y024879D01*
X035242Y024894D01*
X035266Y024913D01*
X035287Y024934D01*
X035306Y024958D01*
X035321Y024984D01*
X035334Y025011D01*
X035343Y025040D01*
X035348Y025070D01*
X035350Y025100D01*
X041600Y025700D02*
X041645Y025698D01*
X041691Y025693D01*
X041735Y025685D01*
X041779Y025673D01*
X041822Y025657D01*
X041864Y025639D01*
X041904Y025617D01*
X041942Y025593D01*
X041978Y025566D01*
X042013Y025536D01*
X042044Y025503D01*
X042074Y025468D01*
X042048Y025499D02*
X042079Y025461D01*
X042107Y025421D01*
X042131Y025379D01*
X042152Y025336D01*
X042169Y025290D01*
X042182Y025244D01*
X042192Y025196D01*
X042198Y025148D01*
X042200Y025100D01*
X041600Y024500D02*
X041553Y024502D01*
X041505Y024508D01*
X041459Y024517D01*
X041413Y024530D01*
X041369Y024546D01*
X041325Y024567D01*
X041284Y024590D01*
X041245Y024616D01*
X041208Y024646D01*
X041173Y024679D01*
X041141Y024714D01*
X041112Y024751D01*
X041000Y025100D02*
X041002Y025146D01*
X041007Y025192D01*
X041016Y025238D01*
X041028Y025282D01*
X041044Y025326D01*
X041063Y025368D01*
X041085Y025409D01*
X041111Y025447D01*
X041139Y025484D01*
X041000Y025100D02*
X041002Y025053D01*
X041007Y025006D01*
X041017Y024960D01*
X041030Y024914D01*
X041046Y024870D01*
X041066Y024827D01*
X041089Y024786D01*
X041115Y024747D01*
X041144Y024710D01*
X041600Y024500D02*
X041646Y024502D01*
X041692Y024507D01*
X041738Y024516D01*
X041783Y024528D01*
X041826Y024544D01*
X041868Y024563D01*
X041909Y024586D01*
X041948Y024611D01*
X041984Y024639D01*
X042019Y024670D01*
X042051Y024704D01*
X042080Y024740D01*
X041600Y025700D02*
X041555Y025698D01*
X041509Y025693D01*
X041465Y025685D01*
X041421Y025673D01*
X041378Y025657D01*
X041336Y025639D01*
X041296Y025617D01*
X041258Y025593D01*
X041222Y025566D01*
X041187Y025536D01*
X041156Y025503D01*
X041126Y025468D01*
X042200Y025100D02*
X042198Y025054D01*
X042193Y025008D01*
X042184Y024962D01*
X042172Y024918D01*
X042156Y024874D01*
X042137Y024832D01*
X042115Y024791D01*
X042089Y024753D01*
X042061Y024716D01*
X041600Y025500D02*
X041561Y025498D01*
X041522Y025492D01*
X041484Y025483D01*
X041447Y025470D01*
X041411Y025453D01*
X041378Y025433D01*
X041346Y025409D01*
X041317Y025383D01*
X041291Y025354D01*
X041267Y025322D01*
X041247Y025289D01*
X041230Y025253D01*
X041217Y025216D01*
X041208Y025178D01*
X041202Y025139D01*
X041200Y025100D01*
X041350Y025100D02*
X041352Y025130D01*
X041357Y025160D01*
X041366Y025189D01*
X041379Y025216D01*
X041394Y025242D01*
X041413Y025266D01*
X041434Y025287D01*
X041458Y025306D01*
X041484Y025321D01*
X041511Y025334D01*
X041540Y025343D01*
X041570Y025348D01*
X041600Y025350D01*
X042000Y025100D02*
X041998Y025061D01*
X041992Y025022D01*
X041983Y024984D01*
X041970Y024947D01*
X041953Y024911D01*
X041933Y024878D01*
X041909Y024846D01*
X041883Y024817D01*
X041854Y024791D01*
X041822Y024767D01*
X041789Y024747D01*
X041753Y024730D01*
X041716Y024717D01*
X041678Y024708D01*
X041639Y024702D01*
X041600Y024700D01*
X041600Y024850D02*
X041630Y024852D01*
X041660Y024857D01*
X041689Y024866D01*
X041716Y024879D01*
X041742Y024894D01*
X041766Y024913D01*
X041787Y024934D01*
X041806Y024958D01*
X041821Y024984D01*
X041834Y025011D01*
X041843Y025040D01*
X041848Y025070D01*
X041850Y025100D01*
X028600Y024500D02*
X028553Y024502D01*
X028505Y024508D01*
X028459Y024517D01*
X028413Y024530D01*
X028369Y024546D01*
X028325Y024567D01*
X028284Y024590D01*
X028245Y024616D01*
X028208Y024646D01*
X028173Y024679D01*
X028141Y024714D01*
X028112Y024751D01*
X028600Y025700D02*
X028645Y025698D01*
X028691Y025693D01*
X028735Y025685D01*
X028779Y025673D01*
X028822Y025657D01*
X028864Y025639D01*
X028904Y025617D01*
X028942Y025593D01*
X028978Y025566D01*
X029013Y025536D01*
X029044Y025503D01*
X029074Y025468D01*
X029048Y025499D02*
X029079Y025461D01*
X029107Y025421D01*
X029131Y025379D01*
X029152Y025336D01*
X029169Y025290D01*
X029182Y025244D01*
X029192Y025196D01*
X029198Y025148D01*
X029200Y025100D01*
X028600Y025700D02*
X028555Y025698D01*
X028509Y025693D01*
X028465Y025685D01*
X028421Y025673D01*
X028378Y025657D01*
X028336Y025639D01*
X028296Y025617D01*
X028258Y025593D01*
X028222Y025566D01*
X028187Y025536D01*
X028156Y025503D01*
X028126Y025468D01*
X028000Y025100D02*
X028002Y025053D01*
X028007Y025006D01*
X028017Y024960D01*
X028030Y024914D01*
X028046Y024870D01*
X028066Y024827D01*
X028089Y024786D01*
X028115Y024747D01*
X028144Y024710D01*
X028000Y025100D02*
X028002Y025146D01*
X028007Y025192D01*
X028016Y025238D01*
X028028Y025282D01*
X028044Y025326D01*
X028063Y025368D01*
X028085Y025409D01*
X028111Y025447D01*
X028139Y025484D01*
X028600Y024500D02*
X028646Y024502D01*
X028692Y024507D01*
X028738Y024516D01*
X028783Y024528D01*
X028826Y024544D01*
X028868Y024563D01*
X028909Y024586D01*
X028948Y024611D01*
X028984Y024639D01*
X029019Y024670D01*
X029051Y024704D01*
X029080Y024740D01*
X028600Y025500D02*
X028561Y025498D01*
X028522Y025492D01*
X028484Y025483D01*
X028447Y025470D01*
X028411Y025453D01*
X028378Y025433D01*
X028346Y025409D01*
X028317Y025383D01*
X028291Y025354D01*
X028267Y025322D01*
X028247Y025289D01*
X028230Y025253D01*
X028217Y025216D01*
X028208Y025178D01*
X028202Y025139D01*
X028200Y025100D01*
X028350Y025100D02*
X028352Y025130D01*
X028357Y025160D01*
X028366Y025189D01*
X028379Y025216D01*
X028394Y025242D01*
X028413Y025266D01*
X028434Y025287D01*
X028458Y025306D01*
X028484Y025321D01*
X028511Y025334D01*
X028540Y025343D01*
X028570Y025348D01*
X028600Y025350D01*
X029200Y025100D02*
X029198Y025054D01*
X029193Y025008D01*
X029184Y024962D01*
X029172Y024918D01*
X029156Y024874D01*
X029137Y024832D01*
X029115Y024791D01*
X029089Y024753D01*
X029061Y024716D01*
X029000Y025100D02*
X028998Y025061D01*
X028992Y025022D01*
X028983Y024984D01*
X028970Y024947D01*
X028953Y024911D01*
X028933Y024878D01*
X028909Y024846D01*
X028883Y024817D01*
X028854Y024791D01*
X028822Y024767D01*
X028789Y024747D01*
X028753Y024730D01*
X028716Y024717D01*
X028678Y024708D01*
X028639Y024702D01*
X028600Y024700D01*
X028600Y024850D02*
X028630Y024852D01*
X028660Y024857D01*
X028689Y024866D01*
X028716Y024879D01*
X028742Y024894D01*
X028766Y024913D01*
X028787Y024934D01*
X028806Y024958D01*
X028821Y024984D01*
X028834Y025011D01*
X028843Y025040D01*
X028848Y025070D01*
X028850Y025100D01*
X022100Y024500D02*
X022053Y024502D01*
X022005Y024508D01*
X021959Y024517D01*
X021913Y024530D01*
X021869Y024546D01*
X021825Y024567D01*
X021784Y024590D01*
X021745Y024616D01*
X021708Y024646D01*
X021673Y024679D01*
X021641Y024714D01*
X021612Y024751D01*
X022100Y025700D02*
X022145Y025698D01*
X022191Y025693D01*
X022235Y025685D01*
X022279Y025673D01*
X022322Y025657D01*
X022364Y025639D01*
X022404Y025617D01*
X022442Y025593D01*
X022478Y025566D01*
X022513Y025536D01*
X022544Y025503D01*
X022574Y025468D01*
X022548Y025499D02*
X022579Y025461D01*
X022607Y025421D01*
X022631Y025379D01*
X022652Y025336D01*
X022669Y025290D01*
X022682Y025244D01*
X022692Y025196D01*
X022698Y025148D01*
X022700Y025100D01*
X022100Y025700D02*
X022055Y025698D01*
X022009Y025693D01*
X021965Y025685D01*
X021921Y025673D01*
X021878Y025657D01*
X021836Y025639D01*
X021796Y025617D01*
X021758Y025593D01*
X021722Y025566D01*
X021687Y025536D01*
X021656Y025503D01*
X021626Y025468D01*
X021500Y025100D02*
X021502Y025053D01*
X021507Y025006D01*
X021517Y024960D01*
X021530Y024914D01*
X021546Y024870D01*
X021566Y024827D01*
X021589Y024786D01*
X021615Y024747D01*
X021644Y024710D01*
X021500Y025100D02*
X021502Y025146D01*
X021507Y025192D01*
X021516Y025238D01*
X021528Y025282D01*
X021544Y025326D01*
X021563Y025368D01*
X021585Y025409D01*
X021611Y025447D01*
X021639Y025484D01*
X022100Y024500D02*
X022146Y024502D01*
X022192Y024507D01*
X022238Y024516D01*
X022283Y024528D01*
X022326Y024544D01*
X022368Y024563D01*
X022409Y024586D01*
X022448Y024611D01*
X022484Y024639D01*
X022519Y024670D01*
X022551Y024704D01*
X022580Y024740D01*
X022100Y025500D02*
X022061Y025498D01*
X022022Y025492D01*
X021984Y025483D01*
X021947Y025470D01*
X021911Y025453D01*
X021878Y025433D01*
X021846Y025409D01*
X021817Y025383D01*
X021791Y025354D01*
X021767Y025322D01*
X021747Y025289D01*
X021730Y025253D01*
X021717Y025216D01*
X021708Y025178D01*
X021702Y025139D01*
X021700Y025100D01*
X021850Y025100D02*
X021852Y025130D01*
X021857Y025160D01*
X021866Y025189D01*
X021879Y025216D01*
X021894Y025242D01*
X021913Y025266D01*
X021934Y025287D01*
X021958Y025306D01*
X021984Y025321D01*
X022011Y025334D01*
X022040Y025343D01*
X022070Y025348D01*
X022100Y025350D01*
X022700Y025100D02*
X022698Y025054D01*
X022693Y025008D01*
X022684Y024962D01*
X022672Y024918D01*
X022656Y024874D01*
X022637Y024832D01*
X022615Y024791D01*
X022589Y024753D01*
X022561Y024716D01*
X022500Y025100D02*
X022498Y025061D01*
X022492Y025022D01*
X022483Y024984D01*
X022470Y024947D01*
X022453Y024911D01*
X022433Y024878D01*
X022409Y024846D01*
X022383Y024817D01*
X022354Y024791D01*
X022322Y024767D01*
X022289Y024747D01*
X022253Y024730D01*
X022216Y024717D01*
X022178Y024708D01*
X022139Y024702D01*
X022100Y024700D01*
X022100Y024850D02*
X022130Y024852D01*
X022160Y024857D01*
X022189Y024866D01*
X022216Y024879D01*
X022242Y024894D01*
X022266Y024913D01*
X022287Y024934D01*
X022306Y024958D01*
X022321Y024984D01*
X022334Y025011D01*
X022343Y025040D01*
X022348Y025070D01*
X022350Y025100D01*
X017050Y023180D02*
X016150Y023180D01*
X016150Y022520D02*
X017050Y022520D01*
X017050Y021930D02*
X016150Y021930D01*
X016150Y021270D02*
X017050Y021270D01*
X015600Y024500D02*
X015553Y024502D01*
X015505Y024508D01*
X015459Y024517D01*
X015413Y024530D01*
X015369Y024546D01*
X015325Y024567D01*
X015284Y024590D01*
X015245Y024616D01*
X015208Y024646D01*
X015173Y024679D01*
X015141Y024714D01*
X015112Y024751D01*
X015600Y025700D02*
X015645Y025698D01*
X015691Y025693D01*
X015735Y025685D01*
X015779Y025673D01*
X015822Y025657D01*
X015864Y025639D01*
X015904Y025617D01*
X015942Y025593D01*
X015978Y025566D01*
X016013Y025536D01*
X016044Y025503D01*
X016074Y025468D01*
X016048Y025499D02*
X016079Y025461D01*
X016107Y025421D01*
X016131Y025379D01*
X016152Y025336D01*
X016169Y025290D01*
X016182Y025244D01*
X016192Y025196D01*
X016198Y025148D01*
X016200Y025100D01*
X015600Y025700D02*
X015555Y025698D01*
X015509Y025693D01*
X015465Y025685D01*
X015421Y025673D01*
X015378Y025657D01*
X015336Y025639D01*
X015296Y025617D01*
X015258Y025593D01*
X015222Y025566D01*
X015187Y025536D01*
X015156Y025503D01*
X015126Y025468D01*
X015000Y025100D02*
X015002Y025053D01*
X015007Y025006D01*
X015017Y024960D01*
X015030Y024914D01*
X015046Y024870D01*
X015066Y024827D01*
X015089Y024786D01*
X015115Y024747D01*
X015144Y024710D01*
X015000Y025100D02*
X015002Y025146D01*
X015007Y025192D01*
X015016Y025238D01*
X015028Y025282D01*
X015044Y025326D01*
X015063Y025368D01*
X015085Y025409D01*
X015111Y025447D01*
X015139Y025484D01*
X015600Y024500D02*
X015646Y024502D01*
X015692Y024507D01*
X015738Y024516D01*
X015783Y024528D01*
X015826Y024544D01*
X015868Y024563D01*
X015909Y024586D01*
X015948Y024611D01*
X015984Y024639D01*
X016019Y024670D01*
X016051Y024704D01*
X016080Y024740D01*
X015600Y025500D02*
X015561Y025498D01*
X015522Y025492D01*
X015484Y025483D01*
X015447Y025470D01*
X015411Y025453D01*
X015378Y025433D01*
X015346Y025409D01*
X015317Y025383D01*
X015291Y025354D01*
X015267Y025322D01*
X015247Y025289D01*
X015230Y025253D01*
X015217Y025216D01*
X015208Y025178D01*
X015202Y025139D01*
X015200Y025100D01*
X015350Y025100D02*
X015352Y025130D01*
X015357Y025160D01*
X015366Y025189D01*
X015379Y025216D01*
X015394Y025242D01*
X015413Y025266D01*
X015434Y025287D01*
X015458Y025306D01*
X015484Y025321D01*
X015511Y025334D01*
X015540Y025343D01*
X015570Y025348D01*
X015600Y025350D01*
X016200Y025100D02*
X016198Y025054D01*
X016193Y025008D01*
X016184Y024962D01*
X016172Y024918D01*
X016156Y024874D01*
X016137Y024832D01*
X016115Y024791D01*
X016089Y024753D01*
X016061Y024716D01*
X016000Y025100D02*
X015998Y025061D01*
X015992Y025022D01*
X015983Y024984D01*
X015970Y024947D01*
X015953Y024911D01*
X015933Y024878D01*
X015909Y024846D01*
X015883Y024817D01*
X015854Y024791D01*
X015822Y024767D01*
X015789Y024747D01*
X015753Y024730D01*
X015716Y024717D01*
X015678Y024708D01*
X015639Y024702D01*
X015600Y024700D01*
X015600Y024850D02*
X015630Y024852D01*
X015660Y024857D01*
X015689Y024866D01*
X015716Y024879D01*
X015742Y024894D01*
X015766Y024913D01*
X015787Y024934D01*
X015806Y024958D01*
X015821Y024984D01*
X015834Y025011D01*
X015843Y025040D01*
X015848Y025070D01*
X015850Y025100D01*
X010700Y022600D02*
X010698Y022645D01*
X010693Y022691D01*
X010685Y022735D01*
X010673Y022779D01*
X010657Y022822D01*
X010639Y022864D01*
X010617Y022904D01*
X010593Y022942D01*
X010566Y022978D01*
X010536Y023013D01*
X010503Y023044D01*
X010468Y023074D01*
X010484Y023061D02*
X010447Y023089D01*
X010409Y023115D01*
X010368Y023137D01*
X010326Y023156D01*
X010282Y023172D01*
X010238Y023184D01*
X010192Y023193D01*
X010146Y023198D01*
X010100Y023200D01*
X010100Y023000D02*
X010139Y022998D01*
X010178Y022992D01*
X010216Y022983D01*
X010253Y022970D01*
X010289Y022953D01*
X010322Y022933D01*
X010354Y022909D01*
X010383Y022883D01*
X010409Y022854D01*
X010433Y022822D01*
X010453Y022789D01*
X010470Y022753D01*
X010483Y022716D01*
X010492Y022678D01*
X010498Y022639D01*
X010500Y022600D01*
X010499Y022152D02*
X010461Y022121D01*
X010421Y022093D01*
X010379Y022069D01*
X010336Y022048D01*
X010290Y022031D01*
X010244Y022018D01*
X010196Y022008D01*
X010148Y022002D01*
X010100Y022000D01*
X010054Y022002D01*
X010008Y022007D01*
X009962Y022016D01*
X009918Y022028D01*
X009874Y022044D01*
X009832Y022063D01*
X009791Y022085D01*
X009753Y022111D01*
X009716Y022139D01*
X009500Y022600D02*
X009502Y022647D01*
X009508Y022695D01*
X009517Y022741D01*
X009530Y022787D01*
X009546Y022831D01*
X009567Y022875D01*
X009590Y022916D01*
X009616Y022955D01*
X009646Y022992D01*
X009679Y023027D01*
X009714Y023059D01*
X009751Y023088D01*
X010100Y022850D02*
X010130Y022848D01*
X010160Y022843D01*
X010189Y022834D01*
X010216Y022821D01*
X010242Y022806D01*
X010266Y022787D01*
X010287Y022766D01*
X010306Y022742D01*
X010321Y022716D01*
X010334Y022689D01*
X010343Y022660D01*
X010348Y022630D01*
X010350Y022600D01*
X010700Y022600D02*
X010698Y022555D01*
X010693Y022509D01*
X010685Y022465D01*
X010673Y022421D01*
X010657Y022378D01*
X010639Y022336D01*
X010617Y022296D01*
X010593Y022258D01*
X010566Y022222D01*
X010536Y022187D01*
X010503Y022156D01*
X010468Y022126D01*
X010100Y023200D02*
X010053Y023198D01*
X010006Y023193D01*
X009960Y023183D01*
X009914Y023170D01*
X009870Y023154D01*
X009827Y023134D01*
X009786Y023111D01*
X009747Y023085D01*
X009710Y023056D01*
X009700Y022600D02*
X009702Y022561D01*
X009708Y022522D01*
X009717Y022484D01*
X009730Y022447D01*
X009747Y022411D01*
X009767Y022378D01*
X009791Y022346D01*
X009817Y022317D01*
X009846Y022291D01*
X009878Y022267D01*
X009911Y022247D01*
X009947Y022230D01*
X009984Y022217D01*
X010022Y022208D01*
X010061Y022202D01*
X010100Y022200D01*
X010100Y022350D02*
X010070Y022352D01*
X010040Y022357D01*
X010011Y022366D01*
X009984Y022379D01*
X009958Y022394D01*
X009934Y022413D01*
X009913Y022434D01*
X009894Y022458D01*
X009879Y022484D01*
X009866Y022511D01*
X009857Y022540D01*
X009852Y022570D01*
X009850Y022600D01*
X009500Y022600D02*
X009502Y022554D01*
X009507Y022508D01*
X009516Y022462D01*
X009528Y022417D01*
X009544Y022374D01*
X009563Y022332D01*
X009586Y022291D01*
X009611Y022252D01*
X009639Y022216D01*
X009670Y022181D01*
X009704Y022149D01*
X009740Y022120D01*
X010100Y021200D02*
X010146Y021198D01*
X010192Y021193D01*
X010238Y021184D01*
X010282Y021172D01*
X010326Y021156D01*
X010368Y021137D01*
X010409Y021115D01*
X010447Y021089D01*
X010484Y021061D01*
X010468Y021074D02*
X010503Y021044D01*
X010536Y021013D01*
X010566Y020978D01*
X010593Y020942D01*
X010617Y020904D01*
X010639Y020864D01*
X010657Y020822D01*
X010673Y020779D01*
X010685Y020735D01*
X010693Y020691D01*
X010698Y020645D01*
X010700Y020600D01*
X010499Y020152D02*
X010461Y020121D01*
X010421Y020093D01*
X010379Y020069D01*
X010336Y020048D01*
X010290Y020031D01*
X010244Y020018D01*
X010196Y020008D01*
X010148Y020002D01*
X010100Y020000D01*
X010054Y020002D01*
X010008Y020007D01*
X009962Y020016D01*
X009918Y020028D01*
X009874Y020044D01*
X009832Y020063D01*
X009791Y020085D01*
X009753Y020111D01*
X009716Y020139D01*
X009500Y020600D02*
X009502Y020647D01*
X009508Y020695D01*
X009517Y020741D01*
X009530Y020787D01*
X009546Y020831D01*
X009567Y020875D01*
X009590Y020916D01*
X009616Y020955D01*
X009646Y020992D01*
X009679Y021027D01*
X009714Y021059D01*
X009751Y021088D01*
X010100Y021000D02*
X010139Y020998D01*
X010178Y020992D01*
X010216Y020983D01*
X010253Y020970D01*
X010289Y020953D01*
X010322Y020933D01*
X010354Y020909D01*
X010383Y020883D01*
X010409Y020854D01*
X010433Y020822D01*
X010453Y020789D01*
X010470Y020753D01*
X010483Y020716D01*
X010492Y020678D01*
X010498Y020639D01*
X010500Y020600D01*
X010700Y020600D02*
X010698Y020555D01*
X010693Y020509D01*
X010685Y020465D01*
X010673Y020421D01*
X010657Y020378D01*
X010639Y020336D01*
X010617Y020296D01*
X010593Y020258D01*
X010566Y020222D01*
X010536Y020187D01*
X010503Y020156D01*
X010468Y020126D01*
X010100Y021200D02*
X010053Y021198D01*
X010006Y021193D01*
X009960Y021183D01*
X009914Y021170D01*
X009870Y021154D01*
X009827Y021134D01*
X009786Y021111D01*
X009747Y021085D01*
X009710Y021056D01*
X010100Y020850D02*
X010130Y020848D01*
X010160Y020843D01*
X010189Y020834D01*
X010216Y020821D01*
X010242Y020806D01*
X010266Y020787D01*
X010287Y020766D01*
X010306Y020742D01*
X010321Y020716D01*
X010334Y020689D01*
X010343Y020660D01*
X010348Y020630D01*
X010350Y020600D01*
X010100Y020200D02*
X010061Y020202D01*
X010022Y020208D01*
X009984Y020217D01*
X009947Y020230D01*
X009911Y020247D01*
X009878Y020267D01*
X009846Y020291D01*
X009817Y020317D01*
X009791Y020346D01*
X009767Y020378D01*
X009747Y020411D01*
X009730Y020447D01*
X009717Y020484D01*
X009708Y020522D01*
X009702Y020561D01*
X009700Y020600D01*
X009850Y020600D02*
X009852Y020570D01*
X009857Y020540D01*
X009866Y020511D01*
X009879Y020484D01*
X009894Y020458D01*
X009913Y020434D01*
X009934Y020413D01*
X009958Y020394D01*
X009984Y020379D01*
X010011Y020366D01*
X010040Y020357D01*
X010070Y020352D01*
X010100Y020350D01*
X009740Y020120D02*
X009704Y020149D01*
X009670Y020181D01*
X009639Y020216D01*
X009611Y020252D01*
X009586Y020291D01*
X009563Y020332D01*
X009544Y020374D01*
X009528Y020417D01*
X009516Y020462D01*
X009507Y020508D01*
X009502Y020554D01*
X009500Y020600D01*
X008500Y025100D02*
X008502Y025146D01*
X008507Y025192D01*
X008516Y025238D01*
X008528Y025282D01*
X008544Y025326D01*
X008563Y025368D01*
X008585Y025409D01*
X008611Y025447D01*
X008639Y025484D01*
X009548Y025499D02*
X009579Y025461D01*
X009607Y025421D01*
X009631Y025379D01*
X009652Y025336D01*
X009669Y025290D01*
X009682Y025244D01*
X009692Y025196D01*
X009698Y025148D01*
X009700Y025100D01*
X009100Y024500D02*
X009053Y024502D01*
X009005Y024508D01*
X008959Y024517D01*
X008913Y024530D01*
X008869Y024546D01*
X008825Y024567D01*
X008784Y024590D01*
X008745Y024616D01*
X008708Y024646D01*
X008673Y024679D01*
X008641Y024714D01*
X008612Y024751D01*
X009100Y025700D02*
X009145Y025698D01*
X009191Y025693D01*
X009235Y025685D01*
X009279Y025673D01*
X009322Y025657D01*
X009364Y025639D01*
X009404Y025617D01*
X009442Y025593D01*
X009478Y025566D01*
X009513Y025536D01*
X009544Y025503D01*
X009574Y025468D01*
X008500Y025100D02*
X008502Y025053D01*
X008507Y025006D01*
X008517Y024960D01*
X008530Y024914D01*
X008546Y024870D01*
X008566Y024827D01*
X008589Y024786D01*
X008615Y024747D01*
X008644Y024710D01*
X009100Y024500D02*
X009146Y024502D01*
X009192Y024507D01*
X009238Y024516D01*
X009283Y024528D01*
X009326Y024544D01*
X009368Y024563D01*
X009409Y024586D01*
X009448Y024611D01*
X009484Y024639D01*
X009519Y024670D01*
X009551Y024704D01*
X009580Y024740D01*
X009100Y025700D02*
X009055Y025698D01*
X009009Y025693D01*
X008965Y025685D01*
X008921Y025673D01*
X008878Y025657D01*
X008836Y025639D01*
X008796Y025617D01*
X008758Y025593D01*
X008722Y025566D01*
X008687Y025536D01*
X008656Y025503D01*
X008626Y025468D01*
X009700Y025100D02*
X009698Y025054D01*
X009693Y025008D01*
X009684Y024962D01*
X009672Y024918D01*
X009656Y024874D01*
X009637Y024832D01*
X009615Y024791D01*
X009589Y024753D01*
X009561Y024716D01*
X009100Y025500D02*
X009061Y025498D01*
X009022Y025492D01*
X008984Y025483D01*
X008947Y025470D01*
X008911Y025453D01*
X008878Y025433D01*
X008846Y025409D01*
X008817Y025383D01*
X008791Y025354D01*
X008767Y025322D01*
X008747Y025289D01*
X008730Y025253D01*
X008717Y025216D01*
X008708Y025178D01*
X008702Y025139D01*
X008700Y025100D01*
X008850Y025100D02*
X008852Y025130D01*
X008857Y025160D01*
X008866Y025189D01*
X008879Y025216D01*
X008894Y025242D01*
X008913Y025266D01*
X008934Y025287D01*
X008958Y025306D01*
X008984Y025321D01*
X009011Y025334D01*
X009040Y025343D01*
X009070Y025348D01*
X009100Y025350D01*
X009500Y025100D02*
X009498Y025061D01*
X009492Y025022D01*
X009483Y024984D01*
X009470Y024947D01*
X009453Y024911D01*
X009433Y024878D01*
X009409Y024846D01*
X009383Y024817D01*
X009354Y024791D01*
X009322Y024767D01*
X009289Y024747D01*
X009253Y024730D01*
X009216Y024717D01*
X009178Y024708D01*
X009139Y024702D01*
X009100Y024700D01*
X009100Y024850D02*
X009130Y024852D01*
X009160Y024857D01*
X009189Y024866D01*
X009216Y024879D01*
X009242Y024894D01*
X009266Y024913D01*
X009287Y024934D01*
X009306Y024958D01*
X009321Y024984D01*
X009334Y025011D01*
X009343Y025040D01*
X009348Y025070D01*
X009350Y025100D01*
D15*
X006306Y023521D02*
X006306Y023276D01*
X006244Y023256D02*
X005304Y023256D01*
X005304Y023194D01*
X005306Y023178D01*
X005310Y023163D01*
X005318Y023148D01*
X005328Y023136D01*
X005340Y023126D01*
X005355Y023118D01*
X005370Y023114D01*
X005386Y023112D01*
X004191Y023112D01*
X004191Y023521D01*
X004036Y023521D01*
X004036Y023358D01*
X003791Y023358D01*
X003791Y023521D01*
X003648Y023521D01*
X003648Y023112D01*
X002770Y023112D01*
X003362Y023112D01*
X003301Y022683D02*
X004385Y022765D01*
X004385Y022683D01*
X003444Y022581D01*
X003444Y022377D01*
X004385Y022274D01*
X004385Y022193D01*
X003301Y022295D01*
X003282Y022299D01*
X003263Y022305D01*
X003246Y022315D01*
X003230Y022327D01*
X003217Y022342D01*
X003206Y022359D01*
X003199Y022377D01*
X003199Y022602D02*
X003206Y022620D01*
X003217Y022637D01*
X003230Y022652D01*
X003246Y022664D01*
X003263Y022674D01*
X003282Y022680D01*
X003301Y022684D01*
X003200Y022601D02*
X003191Y022564D01*
X003185Y022527D01*
X003183Y022489D01*
X003185Y022451D01*
X003191Y022414D01*
X003200Y022377D01*
X003301Y022091D02*
X004896Y022009D01*
X004914Y022006D01*
X004931Y021999D01*
X004946Y021990D01*
X004959Y021977D01*
X004968Y021962D01*
X004975Y021945D01*
X004978Y021927D01*
X004977Y021927D02*
X004977Y021273D01*
X004978Y021273D02*
X004975Y021255D01*
X004968Y021238D01*
X004959Y021223D01*
X004946Y021210D01*
X004931Y021201D01*
X004914Y021194D01*
X004896Y021191D01*
X003301Y021110D01*
X003301Y021109D02*
X003285Y021111D01*
X003270Y021115D01*
X003255Y021123D01*
X003243Y021133D01*
X003233Y021145D01*
X003225Y021160D01*
X003221Y021175D01*
X003219Y021191D01*
X003221Y021207D01*
X003225Y021222D01*
X003233Y021237D01*
X003243Y021249D01*
X003255Y021259D01*
X003270Y021267D01*
X003285Y021271D01*
X003301Y021273D01*
X004650Y021355D01*
X004650Y021845D01*
X003301Y021927D01*
X003285Y021929D01*
X003270Y021933D01*
X003255Y021941D01*
X003243Y021951D01*
X003233Y021963D01*
X003225Y021978D01*
X003221Y021993D01*
X003219Y022009D01*
X003220Y022009D02*
X003220Y022009D01*
X003219Y022009D02*
X003221Y022025D01*
X003225Y022040D01*
X003233Y022055D01*
X003243Y022067D01*
X003255Y022077D01*
X003270Y022085D01*
X003285Y022089D01*
X003301Y022091D01*
X002770Y023112D02*
X002770Y020088D01*
X003362Y020088D01*
X003648Y020088D02*
X003648Y019679D01*
X003791Y019679D01*
X003791Y019842D01*
X004036Y019842D01*
X004036Y019679D01*
X004191Y019679D01*
X004191Y020088D01*
X006204Y020088D01*
X006245Y019944D02*
X006272Y019946D01*
X006299Y019951D01*
X006325Y019959D01*
X006350Y019970D01*
X006373Y019984D01*
X006394Y020001D01*
X006413Y020020D01*
X006430Y020041D01*
X006444Y020064D01*
X006455Y020089D01*
X006463Y020115D01*
X006468Y020142D01*
X006470Y020169D01*
X006306Y020190D02*
X006306Y020415D01*
X006449Y020415D01*
X006469Y020415D02*
X006469Y023031D01*
X006306Y023010D02*
X006306Y022785D01*
X006449Y022785D01*
X006469Y022785D02*
X006469Y022397D01*
X006449Y022397D02*
X005713Y022397D01*
X005713Y020823D01*
X005713Y020803D02*
X006449Y020803D01*
X006469Y020803D02*
X006469Y020415D01*
X006306Y020190D02*
X006304Y020172D01*
X006300Y020155D01*
X006292Y020139D01*
X006282Y020124D01*
X006270Y020112D01*
X006255Y020102D01*
X006239Y020094D01*
X006222Y020090D01*
X006204Y020088D01*
X006244Y019945D02*
X005304Y019945D01*
X005304Y020006D01*
X005306Y020022D01*
X005310Y020037D01*
X005318Y020052D01*
X005328Y020064D01*
X005340Y020074D01*
X005355Y020082D01*
X005370Y020086D01*
X005386Y020088D01*
X004477Y020088D01*
X004385Y020435D02*
X004385Y020517D01*
X003444Y020619D01*
X003444Y020823D01*
X004385Y020926D01*
X004385Y021007D01*
X003301Y020905D01*
X003282Y020901D01*
X003263Y020895D01*
X003246Y020885D01*
X003230Y020873D01*
X003217Y020858D01*
X003206Y020841D01*
X003199Y020823D01*
X003199Y020599D02*
X003206Y020581D01*
X003217Y020564D01*
X003230Y020549D01*
X003246Y020537D01*
X003263Y020527D01*
X003282Y020521D01*
X003301Y020517D01*
X004385Y020435D01*
X003648Y020088D02*
X002770Y020088D01*
X002770Y020088D01*
X003370Y019330D02*
X003523Y019177D01*
X003677Y019330D01*
X003677Y018870D01*
X003830Y018870D02*
X003984Y018870D01*
X003907Y018870D02*
X003907Y019330D01*
X003830Y019330D02*
X003984Y019330D01*
X004137Y019330D02*
X004444Y018870D01*
X004444Y019330D01*
X004598Y019330D02*
X004751Y019330D01*
X004674Y019330D02*
X004674Y018870D01*
X004598Y018870D02*
X004751Y018870D01*
X004905Y019100D02*
X005212Y019100D01*
X005365Y018947D02*
X005442Y018870D01*
X005595Y018870D01*
X005672Y018947D01*
X005672Y019330D01*
X005825Y019254D02*
X005902Y019330D01*
X006056Y019330D01*
X006132Y019254D01*
X006056Y019100D02*
X006132Y019023D01*
X006132Y018947D01*
X006056Y018870D01*
X005902Y018870D01*
X005825Y018947D01*
X005902Y019100D02*
X006056Y019100D01*
X005902Y019100D02*
X005825Y019177D01*
X005825Y019254D01*
X005365Y019330D02*
X005365Y018947D01*
X005774Y019679D02*
X005938Y019679D01*
X005938Y019842D01*
X006142Y019842D01*
X006142Y019679D01*
X006306Y019679D01*
X006306Y019924D01*
X005774Y019924D02*
X005774Y019679D01*
X006286Y019330D02*
X006516Y019330D01*
X006593Y019254D01*
X006593Y019177D01*
X006516Y019100D01*
X006286Y019100D01*
X006286Y018870D02*
X006516Y018870D01*
X006593Y018947D01*
X006593Y019023D01*
X006516Y019100D01*
X006746Y019100D02*
X007053Y019100D01*
X007207Y019177D02*
X007283Y019100D01*
X007437Y019100D01*
X007514Y019023D01*
X007514Y018947D01*
X007437Y018870D01*
X007283Y018870D01*
X007207Y018947D01*
X007207Y019177D02*
X007207Y019254D01*
X007283Y019330D01*
X007437Y019330D01*
X007514Y019254D01*
X007667Y019254D02*
X007667Y018947D01*
X007744Y018870D01*
X007897Y018870D01*
X007974Y018947D01*
X008127Y018870D02*
X008127Y019330D01*
X007974Y019254D02*
X007897Y019330D01*
X007744Y019330D01*
X007667Y019254D01*
X008127Y019100D02*
X008434Y019100D01*
X008434Y019330D02*
X008434Y018870D01*
X008588Y018870D02*
X008741Y018870D01*
X008665Y018870D02*
X008665Y019330D01*
X008741Y019330D02*
X008588Y019330D01*
X008895Y019330D02*
X008895Y018870D01*
X009202Y018870D01*
X009355Y018870D02*
X009662Y018870D01*
X009815Y018870D02*
X010046Y018870D01*
X010122Y018947D01*
X010122Y019254D01*
X010046Y019330D01*
X009815Y019330D01*
X009815Y018870D01*
X009355Y018870D02*
X009355Y019330D01*
X009202Y019330D02*
X008895Y019330D01*
X008895Y019100D02*
X009048Y019100D01*
X010276Y019100D02*
X010583Y019100D01*
X010736Y018947D02*
X010813Y018870D01*
X010966Y018870D01*
X011043Y018947D01*
X011043Y019023D01*
X010966Y019100D01*
X010890Y019100D01*
X010966Y019100D02*
X011043Y019177D01*
X011043Y019254D01*
X010966Y019330D01*
X010813Y019330D01*
X010736Y019254D01*
X011197Y019254D02*
X011273Y019330D01*
X011427Y019330D01*
X011504Y019254D01*
X011504Y019177D01*
X011197Y018870D01*
X011504Y018870D01*
X011657Y018947D02*
X011734Y018870D01*
X011887Y018870D01*
X011964Y018947D01*
X011964Y019254D01*
X011657Y018947D01*
X011657Y019254D01*
X011734Y019330D01*
X011887Y019330D01*
X011964Y019254D01*
X012117Y019254D02*
X012194Y019330D01*
X012348Y019330D01*
X012424Y019254D01*
X012117Y018947D01*
X012194Y018870D01*
X012348Y018870D01*
X012424Y018947D01*
X012424Y019254D01*
X012578Y019330D02*
X012578Y019100D01*
X012731Y019177D01*
X012808Y019177D01*
X012885Y019100D01*
X012885Y018947D01*
X012808Y018870D01*
X012655Y018870D01*
X012578Y018947D01*
X012578Y019330D02*
X012885Y019330D01*
X013038Y019100D02*
X013345Y019100D01*
X013499Y019254D02*
X013575Y019330D01*
X013729Y019330D01*
X013806Y019254D01*
X013806Y019177D01*
X013499Y018870D01*
X013806Y018870D01*
X013959Y018947D02*
X014266Y019254D01*
X014266Y018947D01*
X014189Y018870D01*
X014036Y018870D01*
X013959Y018947D01*
X013959Y019254D01*
X014036Y019330D01*
X014189Y019330D01*
X014266Y019254D01*
X014419Y019177D02*
X014573Y019330D01*
X014573Y018870D01*
X014726Y018870D02*
X014419Y018870D01*
X016120Y019004D02*
X016197Y019080D01*
X016350Y019080D01*
X016427Y019004D01*
X016427Y018927D01*
X016120Y018620D01*
X016427Y018620D01*
X016580Y018620D02*
X016887Y018927D01*
X016887Y019004D01*
X016811Y019080D01*
X016657Y019080D01*
X016580Y019004D01*
X016580Y018620D02*
X016887Y018620D01*
X017041Y018620D02*
X017271Y018620D01*
X017348Y018697D01*
X017348Y018850D01*
X017271Y018927D01*
X017041Y018927D01*
X017041Y018467D01*
X017501Y018620D02*
X017501Y019080D01*
X017808Y019080D01*
X017655Y018850D02*
X017501Y018850D01*
X016980Y019290D02*
X016220Y019290D01*
X016220Y019910D02*
X016980Y019910D01*
X019120Y018967D02*
X019273Y018813D01*
X019120Y018660D01*
X019580Y018660D01*
X019655Y018588D02*
X020115Y018588D01*
X020115Y018741D02*
X019655Y018741D01*
X019655Y018588D02*
X019809Y018434D01*
X019655Y018281D01*
X020115Y018281D01*
X020039Y018127D02*
X019962Y018127D01*
X019885Y018051D01*
X019885Y017821D01*
X020039Y017821D01*
X020115Y017897D01*
X020115Y018051D01*
X020039Y018127D01*
X019885Y017821D02*
X019732Y017974D01*
X019655Y018127D01*
X019580Y018199D02*
X019580Y018506D01*
X019580Y018353D02*
X019120Y018353D01*
X019273Y018199D01*
X019655Y017514D02*
X020115Y017514D01*
X020115Y017667D02*
X020115Y017360D01*
X019809Y017360D02*
X019655Y017514D01*
X019885Y018741D02*
X019885Y019048D01*
X019809Y019202D02*
X019809Y019509D01*
X020115Y019202D01*
X020115Y019509D01*
X020115Y019048D02*
X019655Y019048D01*
X019580Y018967D02*
X019120Y018967D01*
X016980Y017910D02*
X016220Y017910D01*
X016220Y017290D02*
X016980Y017290D01*
X016811Y017080D02*
X016657Y017080D01*
X016580Y017004D01*
X016427Y017004D02*
X016350Y017080D01*
X016197Y017080D01*
X016120Y017004D01*
X016427Y017004D02*
X016427Y016927D01*
X016120Y016620D01*
X016427Y016620D01*
X016580Y016620D02*
X016887Y016927D01*
X016887Y017004D01*
X016811Y017080D01*
X017041Y016927D02*
X017041Y016467D01*
X017041Y016620D02*
X017271Y016620D01*
X017348Y016697D01*
X017348Y016850D01*
X017271Y016927D01*
X017041Y016927D01*
X016887Y016620D02*
X016580Y016620D01*
X017501Y016620D02*
X017501Y017080D01*
X017808Y017080D01*
X017655Y016850D02*
X017501Y016850D01*
X016987Y014180D02*
X016680Y013873D01*
X016757Y013950D02*
X016987Y013720D01*
X016867Y013480D02*
X016560Y013173D01*
X016636Y013250D02*
X016867Y013020D01*
X016757Y012950D02*
X016987Y012720D01*
X016680Y012720D02*
X016680Y013180D01*
X016560Y013020D02*
X016560Y013480D01*
X016527Y013720D02*
X016220Y013720D01*
X016373Y013720D02*
X016373Y014180D01*
X016220Y014027D01*
X016680Y014180D02*
X016680Y013720D01*
X016253Y013480D02*
X016253Y013020D01*
X016220Y013027D02*
X016373Y013180D01*
X016373Y012720D01*
X016220Y012720D02*
X016527Y012720D01*
X016680Y012873D02*
X016987Y013180D01*
X016406Y013020D02*
X016099Y013020D01*
X016099Y013327D02*
X016253Y013480D01*
X012480Y014820D02*
X012480Y015127D01*
X012480Y015280D02*
X012020Y015280D01*
X012250Y015357D02*
X012480Y015587D01*
X012327Y015280D02*
X012020Y015587D01*
X012020Y014973D02*
X012480Y014973D01*
X012173Y014820D02*
X012020Y014973D01*
X011080Y013217D02*
X010850Y012986D01*
X010927Y012910D02*
X010620Y013217D01*
X010620Y012910D02*
X011080Y012910D01*
X011080Y012756D02*
X011080Y012449D01*
X011080Y012603D02*
X010620Y012603D01*
X010773Y012449D01*
X008796Y012731D02*
X008796Y013038D01*
X008796Y013191D02*
X008489Y013498D01*
X008412Y013498D01*
X008335Y013422D01*
X008335Y013268D01*
X008412Y013191D01*
X008335Y012884D02*
X008796Y012884D01*
X008796Y013191D02*
X008796Y013498D01*
X008642Y013652D02*
X008335Y013652D01*
X008335Y013959D02*
X008642Y013959D01*
X008796Y013805D01*
X008642Y013652D01*
X008335Y012884D02*
X008489Y012731D01*
X008565Y012578D02*
X008565Y012271D01*
X008412Y012424D02*
X008719Y012424D01*
X006549Y012193D02*
X006549Y011886D01*
X006472Y011809D01*
X006242Y011809D01*
X006242Y012269D01*
X006472Y012269D01*
X006549Y012193D01*
X006089Y012269D02*
X006089Y011809D01*
X005782Y012269D01*
X005782Y011809D01*
X005628Y011886D02*
X005628Y012039D01*
X005475Y012039D01*
X005628Y011886D02*
X005552Y011809D01*
X005398Y011809D01*
X005321Y011886D01*
X005321Y012193D01*
X005398Y012269D01*
X005552Y012269D01*
X005628Y012193D01*
X008565Y014520D02*
X008565Y014827D01*
X008565Y014980D02*
X008489Y015133D01*
X008489Y015210D01*
X008565Y015287D01*
X008719Y015287D01*
X008796Y015210D01*
X008796Y015057D01*
X008719Y014980D01*
X008565Y014980D02*
X008335Y014980D01*
X008335Y015287D01*
X008335Y015440D02*
X008642Y015440D01*
X008796Y015594D01*
X008642Y015747D01*
X008335Y015747D01*
X008412Y014673D02*
X008719Y014673D01*
X006584Y015886D02*
X006584Y016193D01*
X006507Y016269D01*
X006277Y016269D01*
X006277Y015809D01*
X006507Y015809D01*
X006584Y015886D01*
X006123Y015809D02*
X006123Y016269D01*
X005816Y016269D02*
X005816Y015809D01*
X005663Y015886D02*
X005663Y016039D01*
X005509Y016039D01*
X005356Y015886D02*
X005356Y016193D01*
X005433Y016269D01*
X005586Y016269D01*
X005663Y016193D01*
X005816Y016269D02*
X006123Y015809D01*
X005663Y015886D02*
X005586Y015809D01*
X005433Y015809D01*
X005356Y015886D01*
X006286Y018870D02*
X006286Y019330D01*
X006306Y020823D02*
X006306Y022377D01*
X005509Y022315D02*
X005509Y020885D01*
X005507Y020869D01*
X005503Y020854D01*
X005495Y020839D01*
X005485Y020827D01*
X005473Y020817D01*
X005458Y020809D01*
X005443Y020805D01*
X005427Y020803D01*
X005407Y020805D01*
X005388Y020811D01*
X005370Y020820D01*
X005355Y020833D01*
X005342Y020848D01*
X005333Y020866D01*
X005327Y020885D01*
X005325Y020905D01*
X005325Y022295D01*
X005327Y022315D01*
X005333Y022334D01*
X005342Y022352D01*
X005355Y022367D01*
X005370Y022380D01*
X005388Y022389D01*
X005407Y022395D01*
X005427Y022397D01*
X005427Y022397D01*
X005443Y022395D01*
X005458Y022391D01*
X005473Y022383D01*
X005485Y022373D01*
X005495Y022361D01*
X005503Y022346D01*
X005507Y022331D01*
X005509Y022315D01*
X005386Y023112D02*
X004477Y023112D01*
X005386Y023112D02*
X006204Y023112D01*
X006244Y023256D02*
X006271Y023254D01*
X006298Y023249D01*
X006324Y023241D01*
X006349Y023230D01*
X006372Y023216D01*
X006393Y023199D01*
X006412Y023180D01*
X006429Y023159D01*
X006443Y023136D01*
X006454Y023111D01*
X006462Y023085D01*
X006467Y023058D01*
X006469Y023031D01*
X006306Y023010D02*
X006304Y023028D01*
X006300Y023045D01*
X006292Y023061D01*
X006282Y023076D01*
X006270Y023088D01*
X006255Y023098D01*
X006239Y023106D01*
X006222Y023110D01*
X006204Y023112D01*
X006142Y023358D02*
X005938Y023358D01*
X005938Y023521D01*
X005774Y023521D01*
X005774Y023276D01*
X006142Y023358D02*
X006142Y023521D01*
X006306Y023521D01*
X003200Y020823D02*
X003191Y020786D01*
X003185Y020749D01*
X003183Y020711D01*
X003185Y020673D01*
X003191Y020636D01*
X003200Y020599D01*
X003370Y019330D02*
X003370Y018870D01*
X004137Y018870D02*
X004137Y019330D01*
X012117Y019254D02*
X012117Y018947D01*
X016199Y022120D02*
X016506Y022427D01*
X016506Y022504D01*
X016429Y022580D01*
X016276Y022580D01*
X016199Y022504D01*
X016660Y022504D02*
X016736Y022580D01*
X016890Y022580D01*
X016967Y022504D01*
X016967Y022427D01*
X016660Y022120D01*
X016967Y022120D01*
X016506Y022120D02*
X016199Y022120D01*
X016199Y023370D02*
X016506Y023677D01*
X016506Y023754D01*
X016429Y023830D01*
X016276Y023830D01*
X016199Y023754D01*
X016199Y023370D02*
X016506Y023370D01*
X016660Y023370D02*
X016967Y023677D01*
X016967Y023754D01*
X016890Y023830D01*
X016736Y023830D01*
X016660Y023754D01*
X016660Y023370D02*
X016967Y023370D01*
X023620Y022427D02*
X023773Y022580D01*
X023773Y022120D01*
X023620Y022120D02*
X023927Y022120D01*
X024080Y022197D02*
X024157Y022120D01*
X024311Y022120D01*
X024387Y022197D01*
X024387Y022504D01*
X024080Y022197D01*
X024080Y022504D01*
X024157Y022580D01*
X024311Y022580D01*
X024387Y022504D01*
X024541Y022504D02*
X024618Y022580D01*
X024771Y022580D01*
X024848Y022504D01*
X024541Y022197D01*
X024618Y022120D01*
X024771Y022120D01*
X024848Y022197D01*
X024848Y022504D01*
X025001Y022427D02*
X025231Y022427D01*
X025308Y022350D01*
X025308Y022120D01*
X025462Y022120D02*
X025462Y022580D01*
X025768Y022580D01*
X025615Y022350D02*
X025462Y022350D01*
X025001Y022427D02*
X025001Y022120D01*
X024541Y022197D02*
X024541Y022504D01*
X024480Y022790D02*
X023720Y022790D01*
X023720Y023410D02*
X024480Y023410D01*
X027120Y023217D02*
X027427Y022910D01*
X027350Y022986D02*
X027580Y023217D01*
X027580Y022910D02*
X027120Y022910D01*
X027120Y022603D02*
X027580Y022603D01*
X027580Y022756D02*
X027580Y022449D01*
X027273Y022449D02*
X027120Y022603D01*
X028480Y022573D02*
X028480Y022266D01*
X028941Y022266D01*
X028941Y022573D01*
X028941Y022726D02*
X028941Y023033D01*
X028710Y022880D02*
X028710Y022726D01*
X028480Y022726D02*
X028941Y022726D01*
X028710Y022419D02*
X028710Y022266D01*
X028634Y022112D02*
X028710Y022036D01*
X028710Y021805D01*
X028710Y021652D02*
X028710Y021498D01*
X028710Y021652D02*
X028864Y021652D01*
X028941Y021575D01*
X028941Y021422D01*
X028864Y021345D01*
X028557Y021345D01*
X028480Y021422D01*
X028480Y021575D01*
X028557Y021652D01*
X028480Y021805D02*
X028480Y022036D01*
X028557Y022112D01*
X028634Y022112D01*
X028710Y022036D02*
X028787Y022112D01*
X028864Y022112D01*
X028941Y022036D01*
X028941Y021805D01*
X028480Y021805D01*
X028480Y021192D02*
X028480Y021038D01*
X028480Y021115D02*
X028941Y021115D01*
X028941Y021038D02*
X028941Y021192D01*
X028941Y020885D02*
X028941Y020578D01*
X028864Y020578D01*
X028557Y020885D01*
X028480Y020885D01*
X028480Y020578D01*
X028710Y020424D02*
X028710Y020117D01*
X028710Y019964D02*
X028864Y019964D01*
X028941Y019887D01*
X028941Y019734D01*
X028864Y019657D01*
X028864Y019503D02*
X028557Y019503D01*
X028864Y019197D01*
X028941Y019273D01*
X028941Y019427D01*
X028864Y019503D01*
X028710Y019657D02*
X028634Y019810D01*
X028634Y019887D01*
X028710Y019964D01*
X028790Y019980D02*
X028790Y019220D01*
X028864Y019197D02*
X028557Y019197D01*
X028480Y019273D01*
X028480Y019427D01*
X028557Y019503D01*
X028580Y019506D02*
X028350Y019506D01*
X028273Y019429D01*
X028273Y019199D01*
X028580Y019199D01*
X028557Y019043D02*
X028864Y018736D01*
X028941Y018736D01*
X028941Y019043D01*
X028580Y018969D02*
X028580Y018816D01*
X028503Y018739D01*
X028196Y019046D01*
X028503Y019046D01*
X028580Y018969D01*
X028557Y019043D02*
X028480Y019043D01*
X028480Y018736D01*
X028503Y018739D02*
X028196Y018739D01*
X028120Y018816D01*
X028120Y018969D01*
X028196Y019046D01*
X028196Y018585D02*
X028503Y018278D01*
X028580Y018355D01*
X028580Y018509D01*
X028503Y018585D01*
X028196Y018585D01*
X028120Y018509D01*
X028120Y018355D01*
X028196Y018278D01*
X028503Y018278D01*
X028557Y018276D02*
X028634Y018276D01*
X028710Y018352D01*
X028710Y018506D01*
X028787Y018583D01*
X028864Y018583D01*
X028941Y018506D01*
X028941Y018352D01*
X028864Y018276D01*
X028557Y018276D02*
X028480Y018352D01*
X028480Y018506D01*
X028557Y018583D01*
X028580Y018125D02*
X028580Y017818D01*
X028680Y017867D02*
X028527Y017636D01*
X028373Y017867D01*
X028273Y017818D02*
X028120Y017971D01*
X028580Y017971D01*
X028680Y017636D02*
X028220Y017636D01*
X028296Y017483D02*
X028603Y017176D01*
X028680Y017253D01*
X028680Y017406D01*
X028603Y017483D01*
X028296Y017483D01*
X028220Y017406D01*
X028220Y017253D01*
X028296Y017176D01*
X028603Y017176D01*
X028680Y017022D02*
X028680Y016716D01*
X028680Y016869D02*
X028220Y016869D01*
X028373Y016716D01*
X029520Y016141D02*
X029980Y016141D01*
X029827Y016141D02*
X029673Y016371D01*
X029827Y016141D02*
X029980Y016371D01*
X029903Y015987D02*
X029596Y015987D01*
X029903Y015680D01*
X029980Y015757D01*
X029980Y015911D01*
X029903Y015987D01*
X029903Y015680D02*
X029596Y015680D01*
X029520Y015757D01*
X029520Y015911D01*
X029596Y015987D01*
X029980Y015527D02*
X029980Y015220D01*
X029980Y015373D02*
X029520Y015373D01*
X029673Y015220D01*
X030290Y015220D02*
X030290Y015980D01*
X030910Y015980D02*
X030910Y015220D01*
X031120Y015273D02*
X031580Y015273D01*
X031580Y015120D02*
X031580Y015427D01*
X031503Y015580D02*
X031196Y015887D01*
X031503Y015887D01*
X031580Y015811D01*
X031580Y015657D01*
X031503Y015580D01*
X031196Y015580D01*
X031120Y015657D01*
X031120Y015811D01*
X031196Y015887D01*
X031196Y016041D02*
X031120Y016118D01*
X031120Y016271D01*
X031196Y016348D01*
X031503Y016041D01*
X031580Y016118D01*
X031580Y016271D01*
X031503Y016348D01*
X031196Y016348D01*
X031273Y016501D02*
X031273Y016731D01*
X031350Y016808D01*
X031580Y016808D01*
X031580Y016962D02*
X031120Y016962D01*
X031120Y017268D01*
X031350Y017115D02*
X031350Y016962D01*
X031273Y016501D02*
X031580Y016501D01*
X031503Y016041D02*
X031196Y016041D01*
X031120Y015273D02*
X031273Y015120D01*
X029410Y019220D02*
X029410Y019980D01*
X028710Y019657D02*
X028480Y019657D01*
X028480Y019964D01*
X028350Y019813D02*
X028350Y019660D01*
X028580Y019660D02*
X028120Y019660D01*
X028120Y019967D01*
X029696Y021759D02*
X029620Y021835D01*
X029620Y021989D01*
X029696Y022066D01*
X029773Y022066D01*
X030080Y021759D01*
X030080Y022066D01*
X030080Y022219D02*
X030080Y022296D01*
X030003Y022296D01*
X030003Y022219D01*
X030080Y022219D01*
X030080Y022449D02*
X029773Y022756D01*
X029696Y022756D01*
X029620Y022679D01*
X029620Y022526D01*
X029696Y022449D01*
X030080Y022449D02*
X030080Y022756D01*
X030080Y022910D02*
X029620Y022910D01*
X029850Y022986D02*
X030080Y023217D01*
X029927Y022910D02*
X029620Y023217D01*
X030620Y023217D02*
X030927Y022910D01*
X030850Y022986D02*
X031080Y023217D01*
X031080Y022910D02*
X030620Y022910D01*
X030696Y022756D02*
X030620Y022679D01*
X030620Y022526D01*
X030696Y022449D01*
X030696Y022756D02*
X030773Y022756D01*
X031080Y022449D01*
X031080Y022756D01*
X031080Y022296D02*
X031080Y022219D01*
X031003Y022219D01*
X031003Y022296D01*
X031080Y022296D01*
X031080Y022066D02*
X031080Y021759D01*
X031080Y021912D02*
X030620Y021912D01*
X030773Y021759D01*
X028480Y022726D02*
X028480Y023033D01*
X009967Y010004D02*
X009967Y009697D01*
X009890Y009620D01*
X009660Y009620D01*
X009660Y010080D01*
X009890Y010080D01*
X009967Y010004D01*
X009506Y010080D02*
X009199Y010080D01*
X009199Y009620D01*
X009506Y009620D01*
X009353Y009850D02*
X009199Y009850D01*
X009046Y009850D02*
X008969Y009773D01*
X008739Y009773D01*
X008739Y009620D02*
X008739Y010080D01*
X008969Y010080D01*
X009046Y010004D01*
X009046Y009850D01*
X008892Y009773D02*
X009046Y009620D01*
X009423Y009346D02*
X009787Y009346D01*
X009717Y009080D02*
X009410Y008773D01*
X009423Y008854D02*
X009777Y008854D01*
X009717Y008620D02*
X009486Y008850D01*
X009410Y009080D02*
X009410Y008620D01*
X009256Y008620D02*
X008949Y008620D01*
X009103Y008620D02*
X009103Y009080D01*
X008949Y008927D01*
X005253Y031870D02*
X004946Y031870D01*
X004870Y031947D01*
X004870Y032100D01*
X004946Y032177D01*
X005253Y031870D01*
X005330Y031947D01*
X005330Y032100D01*
X005253Y032177D01*
X004946Y032177D01*
X004730Y032030D02*
X004730Y033180D01*
X004870Y033174D02*
X005023Y033328D01*
X005330Y033328D01*
X005100Y033328D02*
X005100Y033021D01*
X005023Y033021D02*
X004870Y033174D01*
X005023Y033021D02*
X005330Y033021D01*
X005253Y032868D02*
X005330Y032791D01*
X005330Y032637D01*
X005253Y032561D01*
X005100Y032561D02*
X005023Y032714D01*
X005023Y032791D01*
X005100Y032868D01*
X005253Y032868D01*
X005100Y032561D02*
X004870Y032561D01*
X004870Y032868D01*
X005253Y032407D02*
X005330Y032407D01*
X005330Y032330D01*
X005253Y032330D01*
X005253Y032407D01*
X003470Y032020D02*
X003470Y033180D01*
D16*
X010400Y008862D02*
X010400Y008615D01*
X010523Y008738D02*
X010276Y008738D01*
D17*
X009541Y008864D03*
X009541Y009336D03*
D18*
X009541Y009100D03*
D19*
X009305Y009100D03*
X009895Y009100D03*
D20*
X009892Y008099D03*
X009312Y008099D03*
D21*
X008875Y008167D02*
X008875Y007867D01*
X008875Y008017D02*
X008425Y008017D01*
X008575Y007867D01*
X008875Y007706D02*
X008875Y007406D01*
X008875Y007556D02*
X008425Y007556D01*
X008575Y007406D01*
X008650Y007246D02*
X008650Y007096D01*
X008650Y007246D02*
X008800Y007246D01*
X008875Y007171D01*
X008875Y007021D01*
X008800Y006946D01*
X008500Y006946D01*
X008425Y007021D01*
X008425Y007171D01*
X008500Y007246D01*
X008425Y006786D02*
X008425Y006485D01*
X008875Y006485D01*
X008875Y006786D01*
X008650Y006636D02*
X008650Y006485D01*
X008650Y006325D02*
X008725Y006250D01*
X008725Y006025D01*
X008875Y006025D02*
X008425Y006025D01*
X008425Y006250D01*
X008500Y006325D01*
X008650Y006325D01*
X008725Y006175D02*
X008875Y006325D01*
X008875Y008327D02*
X008875Y008627D01*
X008875Y008477D02*
X008425Y008477D01*
X008575Y008327D01*
X008425Y008787D02*
X008425Y009088D01*
X008500Y009088D01*
X008800Y008787D01*
X008875Y008787D01*
X008887Y011029D02*
X003376Y011029D01*
X003376Y017250D01*
X008887Y017250D01*
X008887Y011029D01*
X013312Y014900D02*
X013251Y014856D01*
X013193Y014810D01*
X013136Y014761D01*
X013083Y014709D01*
X013032Y014654D01*
X012984Y014596D01*
X012940Y014536D01*
X012898Y014474D01*
X012860Y014410D01*
X012825Y014344D01*
X012794Y014276D01*
X012767Y014206D01*
X012743Y014135D01*
X012723Y014063D01*
X012706Y013990D01*
X012694Y013917D01*
X012685Y013842D01*
X012681Y013768D01*
X012680Y013693D01*
X012684Y013618D01*
X012691Y013544D01*
X012702Y013470D01*
X012717Y013397D01*
X012736Y013324D01*
X012758Y013253D01*
X012785Y013183D01*
X012815Y013115D01*
X012848Y013048D01*
X012885Y012983D01*
X012925Y012920D01*
X012969Y012859D01*
X013016Y012801D01*
X013066Y012745D01*
X013118Y012692D01*
X013174Y012642D01*
X013231Y012595D01*
X013292Y012550D01*
X013354Y012510D01*
X013419Y012472D01*
X013486Y012438D01*
X013554Y012407D01*
X013623Y012380D01*
X013695Y012357D01*
X013767Y012338D01*
X013840Y012322D01*
X013914Y012310D01*
X013988Y012302D01*
X014063Y012298D01*
X014137Y012298D01*
X014212Y012302D01*
X014286Y012310D01*
X014360Y012322D01*
X014433Y012338D01*
X014505Y012357D01*
X014577Y012380D01*
X014646Y012407D01*
X014714Y012438D01*
X014781Y012472D01*
X014846Y012510D01*
X014908Y012550D01*
X014969Y012595D01*
X015026Y012642D01*
X015082Y012692D01*
X015134Y012745D01*
X015184Y012801D01*
X015231Y012859D01*
X015275Y012920D01*
X015315Y012983D01*
X015352Y013048D01*
X015385Y013115D01*
X015415Y013183D01*
X015442Y013253D01*
X015464Y013324D01*
X015483Y013397D01*
X015498Y013470D01*
X015509Y013544D01*
X015516Y013618D01*
X015520Y013693D01*
X015519Y013768D01*
X015515Y013842D01*
X015506Y013917D01*
X015494Y013990D01*
X015477Y014063D01*
X015457Y014135D01*
X015433Y014206D01*
X015406Y014276D01*
X015375Y014344D01*
X015340Y014410D01*
X015302Y014474D01*
X015260Y014536D01*
X015216Y014596D01*
X015168Y014654D01*
X015117Y014709D01*
X015064Y014761D01*
X015007Y014810D01*
X014949Y014856D01*
X014888Y014900D01*
X014887Y014899D02*
X013313Y014899D01*
X017984Y017488D02*
X017984Y019675D01*
X017986Y019694D01*
X017990Y019713D01*
X017998Y019731D01*
X018008Y019748D01*
X018020Y019763D01*
X018035Y019775D01*
X018052Y019785D01*
X018070Y019793D01*
X018089Y019797D01*
X018108Y019799D01*
X018108Y019800D02*
X019105Y019800D01*
X019105Y019799D02*
X019124Y019797D01*
X019143Y019792D01*
X019161Y019784D01*
X019176Y019773D01*
X019190Y019759D01*
X019201Y019744D01*
X019209Y019726D01*
X019214Y019707D01*
X019216Y019688D01*
X019216Y017512D01*
X019214Y017493D01*
X019209Y017474D01*
X019201Y017457D01*
X019190Y017441D01*
X019176Y017427D01*
X019161Y017416D01*
X019143Y017408D01*
X019124Y017403D01*
X019105Y017401D01*
X019105Y017400D02*
X018072Y017400D01*
X018055Y017402D01*
X018038Y017407D01*
X018023Y017415D01*
X018010Y017426D01*
X017999Y017439D01*
X017991Y017454D01*
X017986Y017471D01*
X017984Y017488D01*
X018102Y017794D02*
X018102Y019445D01*
X018102Y019446D02*
X018107Y019471D01*
X018115Y019495D01*
X018126Y019517D01*
X018141Y019538D01*
X018158Y019557D01*
X018178Y019573D01*
X018200Y019585D01*
X018223Y019595D01*
X018248Y019601D01*
X018273Y019604D01*
X018299Y019603D01*
X018901Y019603D01*
X018901Y019602D02*
X018923Y019600D01*
X018945Y019596D01*
X018966Y019588D01*
X018986Y019577D01*
X019004Y019564D01*
X019020Y019548D01*
X019033Y019530D01*
X019044Y019510D01*
X019052Y019489D01*
X019056Y019467D01*
X019058Y019445D01*
X019059Y019445D02*
X019059Y017755D01*
X019058Y017755D02*
X019056Y017733D01*
X019052Y017711D01*
X019044Y017690D01*
X019033Y017670D01*
X019020Y017652D01*
X019004Y017636D01*
X018986Y017623D01*
X018966Y017612D01*
X018945Y017604D01*
X018923Y017600D01*
X018901Y017598D01*
X018901Y017597D02*
X018299Y017597D01*
X018273Y017599D01*
X018248Y017604D01*
X018224Y017612D01*
X018201Y017623D01*
X018179Y017638D01*
X018160Y017655D01*
X018143Y017674D01*
X018128Y017696D01*
X018117Y017719D01*
X018109Y017743D01*
X018104Y017768D01*
X018102Y017794D01*
X029219Y023071D02*
X029219Y012323D01*
X047919Y012323D01*
X047919Y023071D01*
X029219Y023071D01*
X040994Y020100D02*
X044340Y020100D01*
X044340Y014982D01*
X040994Y014982D01*
D22*
X031601Y022812D03*
X031601Y023392D03*
X030601Y023392D03*
X030601Y022812D03*
X028101Y022812D03*
X028101Y023392D03*
X011599Y015388D03*
X011599Y014808D03*
X011601Y013392D03*
X011601Y012812D03*
D23*
X004100Y031847D03*
X004100Y033357D03*
D24*
X029100Y020122D03*
X029100Y019078D03*
X030600Y016122D03*
X030600Y015078D03*
D25*
X026175Y016425D03*
X024600Y016425D03*
X023025Y016425D03*
X023025Y020775D03*
X024600Y020775D03*
X026175Y020775D03*
D26*
X025860Y020775D03*
X025545Y020775D03*
X023655Y020775D03*
X023340Y020775D03*
X023340Y016425D03*
X023655Y016425D03*
X025545Y016425D03*
X025860Y016425D03*
D27*
X025230Y016425D03*
X024915Y016425D03*
X024285Y016425D03*
X023970Y016425D03*
X023970Y020775D03*
X024285Y020775D03*
X024915Y020775D03*
X025230Y020775D03*
D28*
X026775Y020175D03*
X026775Y018600D03*
X026775Y017025D03*
X022425Y017025D03*
X022425Y018600D03*
X022425Y020175D03*
D29*
X022425Y019860D03*
X022425Y019545D03*
X022425Y017655D03*
X022425Y017340D03*
X026775Y017340D03*
X026775Y017655D03*
X026775Y019545D03*
X026775Y019860D03*
D30*
X026775Y019230D03*
X026775Y018915D03*
X026775Y018285D03*
X026775Y017970D03*
X022425Y017970D03*
X022425Y018285D03*
X022425Y018915D03*
X022425Y019230D03*
D31*
X023578Y023100D03*
X024622Y023100D03*
X017122Y019600D03*
X016078Y019600D03*
X016078Y017600D03*
X017122Y017600D03*
D32*
X020100Y018080D03*
X020100Y019120D03*
D33*
X029100Y017940D03*
X029100Y017260D03*
X029100Y015940D03*
X029100Y015260D03*
D34*
X017155Y021600D03*
X016045Y021600D03*
X016045Y022850D03*
X017155Y022850D03*
D35*
X005600Y007100D03*
D36*
X007600Y007100D03*
X007600Y006200D03*
X007600Y008000D03*
D37*
X016260Y012600D03*
X016940Y012600D03*
X016940Y013600D03*
X016260Y013600D03*
X016260Y014600D03*
X016940Y014600D03*
M02*
