G75*
%MOIN*%
%OFA0B0*%
%FSLAX24Y24*%
%IPPOS*%
%LPD*%
%AMOC8*
5,1,8,0,0,1.08239X$1,22.5*
%
%ADD10C,0.0000*%
%ADD11C,0.0030*%
%ADD12R,0.0118X0.0059*%
%ADD13R,0.0118X0.0118*%
%ADD14C,0.0040*%
%ADD15C,0.0080*%
%ADD16C,0.0100*%
%ADD17C,0.0060*%
%ADD18C,0.0010*%
%ADD19C,0.0050*%
%ADD20C,0.0020*%
D10*
X003100Y000158D02*
X003100Y018454D01*
X039170Y018454D01*
X039170Y000158D01*
X003100Y000158D01*
X004923Y005892D02*
X004925Y005918D01*
X004931Y005944D01*
X004941Y005969D01*
X004954Y005992D01*
X004970Y006012D01*
X004990Y006030D01*
X005012Y006045D01*
X005035Y006057D01*
X005061Y006065D01*
X005087Y006069D01*
X005113Y006069D01*
X005139Y006065D01*
X005165Y006057D01*
X005189Y006045D01*
X005210Y006030D01*
X005230Y006012D01*
X005246Y005992D01*
X005259Y005969D01*
X005269Y005944D01*
X005275Y005918D01*
X005277Y005892D01*
X005275Y005866D01*
X005269Y005840D01*
X005259Y005815D01*
X005246Y005792D01*
X005230Y005772D01*
X005210Y005754D01*
X005188Y005739D01*
X005165Y005727D01*
X005139Y005719D01*
X005113Y005715D01*
X005087Y005715D01*
X005061Y005719D01*
X005035Y005727D01*
X005011Y005739D01*
X004990Y005754D01*
X004970Y005772D01*
X004954Y005792D01*
X004941Y005815D01*
X004931Y005840D01*
X004925Y005866D01*
X004923Y005892D01*
X004923Y007624D02*
X004925Y007650D01*
X004931Y007676D01*
X004941Y007701D01*
X004954Y007724D01*
X004970Y007744D01*
X004990Y007762D01*
X005012Y007777D01*
X005035Y007789D01*
X005061Y007797D01*
X005087Y007801D01*
X005113Y007801D01*
X005139Y007797D01*
X005165Y007789D01*
X005189Y007777D01*
X005210Y007762D01*
X005230Y007744D01*
X005246Y007724D01*
X005259Y007701D01*
X005269Y007676D01*
X005275Y007650D01*
X005277Y007624D01*
X005275Y007598D01*
X005269Y007572D01*
X005259Y007547D01*
X005246Y007524D01*
X005230Y007504D01*
X005210Y007486D01*
X005188Y007471D01*
X005165Y007459D01*
X005139Y007451D01*
X005113Y007447D01*
X005087Y007447D01*
X005061Y007451D01*
X005035Y007459D01*
X005011Y007471D01*
X004990Y007486D01*
X004970Y007504D01*
X004954Y007524D01*
X004941Y007547D01*
X004931Y007572D01*
X004925Y007598D01*
X004923Y007624D01*
X012982Y009758D02*
X012984Y009779D01*
X012990Y009799D01*
X012999Y009819D01*
X013011Y009836D01*
X013026Y009850D01*
X013044Y009862D01*
X013064Y009870D01*
X013084Y009875D01*
X013105Y009876D01*
X013126Y009873D01*
X013146Y009867D01*
X013165Y009856D01*
X013182Y009843D01*
X013195Y009827D01*
X013206Y009809D01*
X013214Y009789D01*
X013218Y009769D01*
X013218Y009747D01*
X013214Y009727D01*
X013206Y009707D01*
X013195Y009689D01*
X013182Y009673D01*
X013165Y009660D01*
X013146Y009649D01*
X013126Y009643D01*
X013105Y009640D01*
X013084Y009641D01*
X013064Y009646D01*
X013044Y009654D01*
X013026Y009666D01*
X013011Y009680D01*
X012999Y009697D01*
X012990Y009717D01*
X012984Y009737D01*
X012982Y009758D01*
X013883Y003258D02*
X013885Y003301D01*
X013891Y003344D01*
X013901Y003386D01*
X013915Y003427D01*
X013932Y003466D01*
X013953Y003504D01*
X013977Y003539D01*
X014005Y003573D01*
X014035Y003603D01*
X014069Y003631D01*
X014104Y003655D01*
X014142Y003676D01*
X014181Y003693D01*
X014222Y003707D01*
X014264Y003717D01*
X014307Y003723D01*
X014350Y003725D01*
X014393Y003723D01*
X014436Y003717D01*
X014478Y003707D01*
X014519Y003693D01*
X014558Y003676D01*
X014596Y003655D01*
X014631Y003631D01*
X014665Y003603D01*
X014695Y003573D01*
X014723Y003539D01*
X014747Y003504D01*
X014768Y003466D01*
X014785Y003427D01*
X014799Y003386D01*
X014809Y003344D01*
X014815Y003301D01*
X014817Y003258D01*
X014815Y003215D01*
X014809Y003172D01*
X014799Y003130D01*
X014785Y003089D01*
X014768Y003050D01*
X014747Y003012D01*
X014723Y002977D01*
X014695Y002943D01*
X014665Y002913D01*
X014631Y002885D01*
X014596Y002861D01*
X014558Y002840D01*
X014519Y002823D01*
X014478Y002809D01*
X014436Y002799D01*
X014393Y002793D01*
X014350Y002791D01*
X014307Y002793D01*
X014264Y002799D01*
X014222Y002809D01*
X014181Y002823D01*
X014142Y002840D01*
X014104Y002861D01*
X014069Y002885D01*
X014035Y002913D01*
X014005Y002943D01*
X013977Y002977D01*
X013953Y003012D01*
X013932Y003050D01*
X013915Y003089D01*
X013901Y003130D01*
X013891Y003172D01*
X013885Y003215D01*
X013883Y003258D01*
X013425Y002658D02*
X013427Y002684D01*
X013433Y002710D01*
X013442Y002734D01*
X013455Y002757D01*
X013472Y002777D01*
X013491Y002795D01*
X013513Y002810D01*
X013536Y002821D01*
X013561Y002829D01*
X013587Y002833D01*
X013613Y002833D01*
X013639Y002829D01*
X013664Y002821D01*
X013688Y002810D01*
X013709Y002795D01*
X013728Y002777D01*
X013745Y002757D01*
X013758Y002734D01*
X013767Y002710D01*
X013773Y002684D01*
X013775Y002658D01*
X013773Y002632D01*
X013767Y002606D01*
X013758Y002582D01*
X013745Y002559D01*
X013728Y002539D01*
X013709Y002521D01*
X013687Y002506D01*
X013664Y002495D01*
X013639Y002487D01*
X013613Y002483D01*
X013587Y002483D01*
X013561Y002487D01*
X013536Y002495D01*
X013512Y002506D01*
X013491Y002521D01*
X013472Y002539D01*
X013455Y002559D01*
X013442Y002582D01*
X013433Y002606D01*
X013427Y002632D01*
X013425Y002658D01*
X013425Y001858D02*
X013427Y001884D01*
X013433Y001910D01*
X013442Y001934D01*
X013455Y001957D01*
X013472Y001977D01*
X013491Y001995D01*
X013513Y002010D01*
X013536Y002021D01*
X013561Y002029D01*
X013587Y002033D01*
X013613Y002033D01*
X013639Y002029D01*
X013664Y002021D01*
X013688Y002010D01*
X013709Y001995D01*
X013728Y001977D01*
X013745Y001957D01*
X013758Y001934D01*
X013767Y001910D01*
X013773Y001884D01*
X013775Y001858D01*
X013773Y001832D01*
X013767Y001806D01*
X013758Y001782D01*
X013745Y001759D01*
X013728Y001739D01*
X013709Y001721D01*
X013687Y001706D01*
X013664Y001695D01*
X013639Y001687D01*
X013613Y001683D01*
X013587Y001683D01*
X013561Y001687D01*
X013536Y001695D01*
X013512Y001706D01*
X013491Y001721D01*
X013472Y001739D01*
X013455Y001759D01*
X013442Y001782D01*
X013433Y001806D01*
X013427Y001832D01*
X013425Y001858D01*
X013883Y001258D02*
X013885Y001301D01*
X013891Y001344D01*
X013901Y001386D01*
X013915Y001427D01*
X013932Y001466D01*
X013953Y001504D01*
X013977Y001539D01*
X014005Y001573D01*
X014035Y001603D01*
X014069Y001631D01*
X014104Y001655D01*
X014142Y001676D01*
X014181Y001693D01*
X014222Y001707D01*
X014264Y001717D01*
X014307Y001723D01*
X014350Y001725D01*
X014393Y001723D01*
X014436Y001717D01*
X014478Y001707D01*
X014519Y001693D01*
X014558Y001676D01*
X014596Y001655D01*
X014631Y001631D01*
X014665Y001603D01*
X014695Y001573D01*
X014723Y001539D01*
X014747Y001504D01*
X014768Y001466D01*
X014785Y001427D01*
X014799Y001386D01*
X014809Y001344D01*
X014815Y001301D01*
X014817Y001258D01*
X014815Y001215D01*
X014809Y001172D01*
X014799Y001130D01*
X014785Y001089D01*
X014768Y001050D01*
X014747Y001012D01*
X014723Y000977D01*
X014695Y000943D01*
X014665Y000913D01*
X014631Y000885D01*
X014596Y000861D01*
X014558Y000840D01*
X014519Y000823D01*
X014478Y000809D01*
X014436Y000799D01*
X014393Y000793D01*
X014350Y000791D01*
X014307Y000793D01*
X014264Y000799D01*
X014222Y000809D01*
X014181Y000823D01*
X014142Y000840D01*
X014104Y000861D01*
X014069Y000885D01*
X014035Y000913D01*
X014005Y000943D01*
X013977Y000977D01*
X013953Y001012D01*
X013932Y001050D01*
X013915Y001089D01*
X013901Y001130D01*
X013891Y001172D01*
X013885Y001215D01*
X013883Y001258D01*
X015133Y001258D02*
X015135Y001301D01*
X015141Y001344D01*
X015151Y001386D01*
X015165Y001427D01*
X015182Y001466D01*
X015203Y001504D01*
X015227Y001539D01*
X015255Y001573D01*
X015285Y001603D01*
X015319Y001631D01*
X015354Y001655D01*
X015392Y001676D01*
X015431Y001693D01*
X015472Y001707D01*
X015514Y001717D01*
X015557Y001723D01*
X015600Y001725D01*
X015643Y001723D01*
X015686Y001717D01*
X015728Y001707D01*
X015769Y001693D01*
X015808Y001676D01*
X015846Y001655D01*
X015881Y001631D01*
X015915Y001603D01*
X015945Y001573D01*
X015973Y001539D01*
X015997Y001504D01*
X016018Y001466D01*
X016035Y001427D01*
X016049Y001386D01*
X016059Y001344D01*
X016065Y001301D01*
X016067Y001258D01*
X016065Y001215D01*
X016059Y001172D01*
X016049Y001130D01*
X016035Y001089D01*
X016018Y001050D01*
X015997Y001012D01*
X015973Y000977D01*
X015945Y000943D01*
X015915Y000913D01*
X015881Y000885D01*
X015846Y000861D01*
X015808Y000840D01*
X015769Y000823D01*
X015728Y000809D01*
X015686Y000799D01*
X015643Y000793D01*
X015600Y000791D01*
X015557Y000793D01*
X015514Y000799D01*
X015472Y000809D01*
X015431Y000823D01*
X015392Y000840D01*
X015354Y000861D01*
X015319Y000885D01*
X015285Y000913D01*
X015255Y000943D01*
X015227Y000977D01*
X015203Y001012D01*
X015182Y001050D01*
X015165Y001089D01*
X015151Y001130D01*
X015141Y001172D01*
X015135Y001215D01*
X015133Y001258D01*
X015425Y002258D02*
X015427Y002284D01*
X015433Y002310D01*
X015442Y002334D01*
X015455Y002357D01*
X015472Y002377D01*
X015491Y002395D01*
X015513Y002410D01*
X015536Y002421D01*
X015561Y002429D01*
X015587Y002433D01*
X015613Y002433D01*
X015639Y002429D01*
X015664Y002421D01*
X015688Y002410D01*
X015709Y002395D01*
X015728Y002377D01*
X015745Y002357D01*
X015758Y002334D01*
X015767Y002310D01*
X015773Y002284D01*
X015775Y002258D01*
X015773Y002232D01*
X015767Y002206D01*
X015758Y002182D01*
X015745Y002159D01*
X015728Y002139D01*
X015709Y002121D01*
X015687Y002106D01*
X015664Y002095D01*
X015639Y002087D01*
X015613Y002083D01*
X015587Y002083D01*
X015561Y002087D01*
X015536Y002095D01*
X015512Y002106D01*
X015491Y002121D01*
X015472Y002139D01*
X015455Y002159D01*
X015442Y002182D01*
X015433Y002206D01*
X015427Y002232D01*
X015425Y002258D01*
X015133Y003258D02*
X015135Y003301D01*
X015141Y003344D01*
X015151Y003386D01*
X015165Y003427D01*
X015182Y003466D01*
X015203Y003504D01*
X015227Y003539D01*
X015255Y003573D01*
X015285Y003603D01*
X015319Y003631D01*
X015354Y003655D01*
X015392Y003676D01*
X015431Y003693D01*
X015472Y003707D01*
X015514Y003717D01*
X015557Y003723D01*
X015600Y003725D01*
X015643Y003723D01*
X015686Y003717D01*
X015728Y003707D01*
X015769Y003693D01*
X015808Y003676D01*
X015846Y003655D01*
X015881Y003631D01*
X015915Y003603D01*
X015945Y003573D01*
X015973Y003539D01*
X015997Y003504D01*
X016018Y003466D01*
X016035Y003427D01*
X016049Y003386D01*
X016059Y003344D01*
X016065Y003301D01*
X016067Y003258D01*
X016065Y003215D01*
X016059Y003172D01*
X016049Y003130D01*
X016035Y003089D01*
X016018Y003050D01*
X015997Y003012D01*
X015973Y002977D01*
X015945Y002943D01*
X015915Y002913D01*
X015881Y002885D01*
X015846Y002861D01*
X015808Y002840D01*
X015769Y002823D01*
X015728Y002809D01*
X015686Y002799D01*
X015643Y002793D01*
X015600Y002791D01*
X015557Y002793D01*
X015514Y002799D01*
X015472Y002809D01*
X015431Y002823D01*
X015392Y002840D01*
X015354Y002861D01*
X015319Y002885D01*
X015285Y002913D01*
X015255Y002943D01*
X015227Y002977D01*
X015203Y003012D01*
X015182Y003050D01*
X015165Y003089D01*
X015151Y003130D01*
X015141Y003172D01*
X015135Y003215D01*
X015133Y003258D01*
D11*
X013400Y010773D02*
X013400Y011020D01*
X013523Y010896D02*
X013276Y010896D01*
D12*
X012541Y011022D03*
X012541Y011494D03*
D13*
X012541Y011258D03*
D14*
X012506Y011278D02*
X012199Y011278D01*
X012353Y011278D02*
X012353Y011738D01*
X012199Y011585D01*
X012296Y011778D02*
X012142Y011931D01*
X012219Y011931D02*
X011989Y011931D01*
X011989Y011778D02*
X011989Y012238D01*
X012219Y012238D01*
X012296Y012162D01*
X012296Y012008D01*
X012219Y011931D01*
X012449Y012008D02*
X012603Y012008D01*
X012660Y011738D02*
X012660Y011278D01*
X012660Y011431D02*
X012967Y011738D01*
X012910Y011778D02*
X013140Y011778D01*
X013217Y011855D01*
X013217Y012162D01*
X013140Y012238D01*
X012910Y012238D01*
X012910Y011778D01*
X012756Y011778D02*
X012449Y011778D01*
X012449Y012238D01*
X012756Y012238D01*
X012736Y011508D02*
X012967Y011278D01*
X011580Y010818D02*
X011120Y010818D01*
X011120Y011125D01*
X011350Y010971D02*
X011350Y010818D01*
X011273Y010664D02*
X011580Y010664D01*
X011580Y010434D01*
X011503Y010357D01*
X011273Y010357D01*
X011196Y010204D02*
X011503Y009897D01*
X011580Y009974D01*
X011580Y010127D01*
X011503Y010204D01*
X011196Y010204D01*
X011120Y010127D01*
X011120Y009974D01*
X011196Y009897D01*
X011503Y009897D01*
X011580Y009743D02*
X011580Y009436D01*
X011580Y009590D02*
X011120Y009590D01*
X011273Y009436D01*
X010501Y010278D02*
X010501Y010738D01*
X010808Y010738D01*
X010655Y010508D02*
X010501Y010508D01*
X010348Y010585D02*
X010348Y010278D01*
X010118Y010278D01*
X010041Y010355D01*
X010041Y010585D01*
X009887Y010662D02*
X009580Y010355D01*
X009657Y010278D01*
X009811Y010278D01*
X009887Y010355D01*
X009887Y010662D01*
X009811Y010738D01*
X009657Y010738D01*
X009580Y010662D01*
X009580Y010355D01*
X009427Y010278D02*
X009120Y010278D01*
X009273Y010278D02*
X009273Y010738D01*
X009120Y010585D01*
X005386Y008270D02*
X005370Y008272D01*
X005355Y008276D01*
X005340Y008284D01*
X005328Y008294D01*
X005318Y008306D01*
X005310Y008321D01*
X005306Y008336D01*
X005304Y008352D01*
X005304Y008414D01*
X005386Y008270D02*
X004477Y008270D01*
X004385Y007923D02*
X004385Y007841D01*
X003444Y007739D01*
X003444Y007535D01*
X004385Y007433D01*
X004385Y007351D01*
X003301Y007453D01*
X003282Y007457D01*
X003263Y007463D01*
X003246Y007473D01*
X003230Y007485D01*
X003217Y007500D01*
X003206Y007517D01*
X003199Y007535D01*
X003199Y007760D02*
X003206Y007778D01*
X003217Y007795D01*
X003230Y007810D01*
X003246Y007822D01*
X003263Y007832D01*
X003282Y007838D01*
X003301Y007842D01*
X003301Y007841D02*
X004385Y007923D01*
X003200Y007759D02*
X003191Y007722D01*
X003185Y007685D01*
X003183Y007647D01*
X003185Y007609D01*
X003191Y007572D01*
X003200Y007535D01*
X003301Y007249D02*
X004896Y007167D01*
X004914Y007164D01*
X004931Y007157D01*
X004946Y007148D01*
X004959Y007135D01*
X004968Y007120D01*
X004975Y007103D01*
X004978Y007085D01*
X004977Y007085D02*
X004977Y006431D01*
X004978Y006431D02*
X004975Y006413D01*
X004968Y006396D01*
X004959Y006381D01*
X004946Y006368D01*
X004931Y006359D01*
X004914Y006352D01*
X004896Y006349D01*
X003301Y006268D01*
X003301Y006267D02*
X003285Y006269D01*
X003270Y006273D01*
X003255Y006281D01*
X003243Y006291D01*
X003233Y006303D01*
X003225Y006318D01*
X003221Y006333D01*
X003219Y006349D01*
X003221Y006365D01*
X003225Y006380D01*
X003233Y006395D01*
X003243Y006407D01*
X003255Y006417D01*
X003270Y006425D01*
X003285Y006429D01*
X003301Y006431D01*
X004650Y006513D01*
X004650Y007003D01*
X003301Y007085D01*
X003285Y007087D01*
X003270Y007091D01*
X003255Y007099D01*
X003243Y007109D01*
X003233Y007121D01*
X003225Y007136D01*
X003221Y007151D01*
X003219Y007167D01*
X003220Y007167D02*
X003220Y007167D01*
X003219Y007167D02*
X003221Y007183D01*
X003225Y007198D01*
X003233Y007213D01*
X003243Y007225D01*
X003255Y007235D01*
X003270Y007243D01*
X003285Y007247D01*
X003301Y007249D01*
X003362Y008270D02*
X002770Y008270D01*
X002770Y005246D01*
X003362Y005246D01*
X003301Y005675D02*
X004385Y005593D01*
X004385Y005675D01*
X003444Y005777D01*
X003444Y005981D01*
X004385Y006084D01*
X004385Y006165D01*
X003301Y006063D01*
X003282Y006059D01*
X003263Y006053D01*
X003246Y006043D01*
X003230Y006031D01*
X003217Y006016D01*
X003206Y005999D01*
X003199Y005981D01*
X003199Y005757D02*
X003206Y005739D01*
X003217Y005722D01*
X003230Y005707D01*
X003246Y005695D01*
X003263Y005685D01*
X003282Y005679D01*
X003301Y005675D01*
X003200Y005757D02*
X003191Y005794D01*
X003185Y005831D01*
X003183Y005869D01*
X003185Y005907D01*
X003191Y005944D01*
X003200Y005981D01*
X002770Y005246D02*
X002770Y005246D01*
X003370Y004488D02*
X003523Y004335D01*
X003677Y004488D01*
X003677Y004028D01*
X003830Y004028D02*
X003984Y004028D01*
X003907Y004028D02*
X003907Y004488D01*
X003830Y004488D02*
X003984Y004488D01*
X004137Y004488D02*
X004444Y004028D01*
X004444Y004488D01*
X004598Y004488D02*
X004751Y004488D01*
X004674Y004488D02*
X004674Y004028D01*
X004598Y004028D02*
X004751Y004028D01*
X004905Y004258D02*
X005212Y004258D01*
X005365Y004105D02*
X005442Y004028D01*
X005595Y004028D01*
X005672Y004105D01*
X005672Y004488D01*
X005825Y004412D02*
X005825Y004335D01*
X005902Y004258D01*
X006056Y004258D01*
X006132Y004181D01*
X006132Y004105D01*
X006056Y004028D01*
X005902Y004028D01*
X005825Y004105D01*
X005825Y004412D02*
X005902Y004488D01*
X006056Y004488D01*
X006132Y004412D01*
X006286Y004488D02*
X006516Y004488D01*
X006593Y004412D01*
X006593Y004335D01*
X006516Y004258D01*
X006286Y004258D01*
X006286Y004028D02*
X006516Y004028D01*
X006593Y004105D01*
X006593Y004181D01*
X006516Y004258D01*
X006286Y004028D02*
X006286Y004488D01*
X005365Y004488D02*
X005365Y004105D01*
X005304Y005103D02*
X005304Y005164D01*
X005306Y005180D01*
X005310Y005195D01*
X005318Y005210D01*
X005328Y005222D01*
X005340Y005232D01*
X005355Y005240D01*
X005370Y005244D01*
X005386Y005246D01*
X004477Y005246D01*
X004137Y004488D02*
X004137Y004028D01*
X003370Y004028D02*
X003370Y004488D01*
X005325Y006063D02*
X005325Y007453D01*
X005327Y007473D01*
X005333Y007492D01*
X005342Y007510D01*
X005355Y007525D01*
X005370Y007538D01*
X005388Y007547D01*
X005407Y007553D01*
X005427Y007555D01*
X005427Y007555D01*
X005443Y007553D01*
X005458Y007549D01*
X005473Y007541D01*
X005485Y007531D01*
X005495Y007519D01*
X005503Y007504D01*
X005507Y007489D01*
X005509Y007473D01*
X005509Y006043D01*
X005507Y006027D01*
X005503Y006012D01*
X005495Y005997D01*
X005485Y005985D01*
X005473Y005975D01*
X005458Y005967D01*
X005443Y005963D01*
X005427Y005961D01*
X005407Y005963D01*
X005388Y005969D01*
X005370Y005978D01*
X005355Y005991D01*
X005342Y006006D01*
X005333Y006024D01*
X005327Y006043D01*
X005325Y006063D01*
X005713Y005961D02*
X006449Y005961D01*
X006469Y005961D02*
X006469Y005573D01*
X006449Y005573D02*
X006306Y005573D01*
X007449Y006028D02*
X007756Y006335D01*
X007756Y006412D01*
X007679Y006488D01*
X007526Y006488D01*
X007449Y006412D01*
X007449Y006028D02*
X007756Y006028D01*
X007910Y006028D02*
X008217Y006335D01*
X008217Y006412D01*
X008140Y006488D01*
X007986Y006488D01*
X007910Y006412D01*
X007910Y006028D02*
X008217Y006028D01*
X008217Y007153D02*
X007910Y007153D01*
X008217Y007460D01*
X008217Y007537D01*
X008140Y007613D01*
X007986Y007613D01*
X007910Y007537D01*
X007756Y007537D02*
X007679Y007613D01*
X007526Y007613D01*
X007449Y007537D01*
X007756Y007537D02*
X007756Y007460D01*
X007449Y007153D01*
X007756Y007153D01*
X006469Y007555D02*
X006469Y007943D01*
X006449Y007943D02*
X006306Y007943D01*
X006449Y007555D02*
X005713Y007555D01*
X012620Y007662D02*
X012697Y007738D01*
X012850Y007738D01*
X012927Y007662D01*
X012927Y007585D01*
X012620Y007278D01*
X012927Y007278D01*
X013080Y007278D02*
X013387Y007585D01*
X013387Y007662D01*
X013311Y007738D01*
X013157Y007738D01*
X013080Y007662D01*
X013080Y007278D02*
X013387Y007278D01*
X013541Y007278D02*
X013771Y007278D01*
X013848Y007355D01*
X013848Y007508D01*
X013771Y007585D01*
X013541Y007585D01*
X013541Y007125D01*
X014001Y007278D02*
X014001Y007738D01*
X014308Y007738D01*
X014155Y007508D02*
X014001Y007508D01*
X016245Y008403D02*
X016552Y008403D01*
X016705Y008403D02*
X016705Y008863D01*
X016859Y008710D01*
X017012Y008863D01*
X017012Y008403D01*
X016398Y008403D02*
X016398Y008863D01*
X016245Y008710D01*
X016041Y010758D02*
X016041Y011218D01*
X016271Y011218D01*
X016348Y011142D01*
X016348Y010988D01*
X016271Y010911D01*
X016041Y010911D01*
X015887Y010911D02*
X015887Y010835D01*
X015811Y010758D01*
X015657Y010758D01*
X015580Y010835D01*
X015427Y010835D02*
X015350Y010758D01*
X015120Y010758D01*
X015120Y011218D01*
X015350Y011218D01*
X015427Y011142D01*
X015427Y011065D01*
X015350Y010988D01*
X015120Y010988D01*
X015350Y010988D02*
X015427Y010911D01*
X015427Y010835D01*
X015580Y011065D02*
X015657Y010988D01*
X015811Y010988D01*
X015887Y010911D01*
X015887Y011142D02*
X015811Y011218D01*
X015657Y011218D01*
X015580Y011142D01*
X015580Y011065D01*
X016501Y011218D02*
X016808Y011218D01*
X016808Y011142D01*
X016501Y010835D01*
X016501Y010758D01*
X016962Y010835D02*
X017038Y010758D01*
X017192Y010758D01*
X017268Y010835D01*
X017268Y010988D01*
X017192Y011065D01*
X017115Y011065D01*
X016962Y010988D01*
X016962Y011218D01*
X017268Y011218D01*
X019943Y011778D02*
X020250Y011778D01*
X020096Y011778D02*
X020096Y012238D01*
X019943Y012085D01*
X020403Y012162D02*
X020480Y012238D01*
X020634Y012238D01*
X020710Y012162D01*
X020403Y011855D01*
X020480Y011778D01*
X020634Y011778D01*
X020710Y011855D01*
X020710Y012162D01*
X020864Y012162D02*
X020941Y012238D01*
X021094Y012238D01*
X021171Y012162D01*
X020864Y011855D01*
X020941Y011778D01*
X021094Y011778D01*
X021171Y011855D01*
X021171Y012162D01*
X021324Y012085D02*
X021324Y011778D01*
X021324Y012085D02*
X021554Y012085D01*
X021631Y012008D01*
X021631Y011778D01*
X021785Y011778D02*
X021785Y012238D01*
X022092Y012238D01*
X021938Y012008D02*
X021785Y012008D01*
X020864Y011855D02*
X020864Y012162D01*
X020403Y012162D02*
X020403Y011855D01*
X022120Y013474D02*
X022350Y013243D01*
X022350Y013550D01*
X022503Y013704D02*
X022503Y013781D01*
X022580Y013781D01*
X022580Y013704D01*
X022503Y013704D01*
X022503Y013934D02*
X022580Y013934D01*
X022503Y013934D02*
X022196Y014241D01*
X022120Y014241D01*
X022120Y013934D01*
X022120Y014394D02*
X022580Y014394D01*
X022427Y014394D02*
X022273Y014625D01*
X022427Y014394D02*
X022580Y014625D01*
X022580Y013474D02*
X022120Y013474D01*
X019001Y013778D02*
X018771Y013931D01*
X019001Y014085D01*
X018771Y014238D02*
X018771Y013778D01*
X018618Y014162D02*
X018311Y013855D01*
X018311Y013778D01*
X018157Y013778D02*
X018080Y013778D01*
X018080Y013855D01*
X018157Y013855D01*
X018157Y013778D01*
X017850Y013778D02*
X017850Y014238D01*
X017620Y014008D01*
X017927Y014008D01*
X018311Y014238D02*
X018618Y014238D01*
X018618Y014162D01*
X014501Y014085D02*
X014271Y013931D01*
X014501Y013778D01*
X014271Y013778D02*
X014271Y014238D01*
X014118Y014238D02*
X014118Y014162D01*
X013811Y013855D01*
X013811Y013778D01*
X013657Y013778D02*
X013580Y013778D01*
X013580Y013855D01*
X013657Y013855D01*
X013657Y013778D01*
X013350Y013778D02*
X013350Y014238D01*
X013120Y014008D01*
X013427Y014008D01*
X013811Y014238D02*
X014118Y014238D01*
X010001Y014085D02*
X009771Y013931D01*
X010001Y013778D01*
X009771Y013778D02*
X009771Y014238D01*
X009618Y014238D02*
X009618Y014162D01*
X009311Y013855D01*
X009311Y013778D01*
X009157Y013778D02*
X009080Y013778D01*
X009080Y013855D01*
X009157Y013855D01*
X009157Y013778D01*
X008850Y013778D02*
X008850Y014238D01*
X008620Y014008D01*
X008927Y014008D01*
X009311Y014238D02*
X009618Y014238D01*
X005501Y014085D02*
X005271Y013931D01*
X005501Y013778D01*
X005271Y013778D02*
X005271Y014238D01*
X005118Y014238D02*
X005118Y014162D01*
X004811Y013855D01*
X004811Y013778D01*
X004657Y013778D02*
X004580Y013778D01*
X004580Y013855D01*
X004657Y013855D01*
X004657Y013778D01*
X004350Y013778D02*
X004350Y014238D01*
X004120Y014008D01*
X004427Y014008D01*
X004811Y014238D02*
X005118Y014238D01*
X012697Y005738D02*
X012620Y005662D01*
X012697Y005738D02*
X012850Y005738D01*
X012927Y005662D01*
X012927Y005585D01*
X012620Y005278D01*
X012927Y005278D01*
X013080Y005278D02*
X013387Y005585D01*
X013387Y005662D01*
X013311Y005738D01*
X013157Y005738D01*
X013080Y005662D01*
X013080Y005278D02*
X013387Y005278D01*
X013541Y005278D02*
X013771Y005278D01*
X013848Y005355D01*
X013848Y005508D01*
X013771Y005585D01*
X013541Y005585D01*
X013541Y005125D01*
X013953Y005245D02*
X014106Y005399D01*
X014106Y004938D01*
X013953Y004938D02*
X014260Y004938D01*
X014413Y005015D02*
X014490Y004938D01*
X014643Y004938D01*
X014720Y005015D01*
X014720Y005092D01*
X014643Y005169D01*
X014413Y005169D01*
X014413Y005015D01*
X014413Y005169D02*
X014567Y005322D01*
X014720Y005399D01*
X014874Y005399D02*
X015027Y005245D01*
X015181Y005399D01*
X015181Y004938D01*
X015334Y004938D02*
X015334Y005399D01*
X015334Y005169D02*
X015641Y005169D01*
X015794Y005245D02*
X016101Y005245D01*
X015794Y004938D01*
X016101Y004938D01*
X015641Y004938D02*
X015641Y005399D01*
X014874Y005399D02*
X014874Y004938D01*
X014001Y005278D02*
X014001Y005738D01*
X014308Y005738D01*
X014155Y005508D02*
X014001Y005508D01*
X024095Y005411D02*
X024095Y005564D01*
X024171Y005641D01*
X024478Y005334D01*
X024555Y005411D01*
X024555Y005564D01*
X024478Y005641D01*
X024171Y005641D01*
X024095Y005794D02*
X024555Y005794D01*
X024402Y005794D02*
X024248Y006025D01*
X024402Y005794D02*
X024555Y006025D01*
X024478Y005334D02*
X024171Y005334D01*
X024095Y005411D01*
X024095Y005027D02*
X024555Y005027D01*
X024555Y004874D02*
X024555Y005181D01*
X024248Y004874D02*
X024095Y005027D01*
X025773Y006778D02*
X025620Y006931D01*
X026080Y006931D01*
X026080Y006778D02*
X026080Y007085D01*
X026003Y007238D02*
X025696Y007545D01*
X026003Y007545D01*
X026080Y007469D01*
X026080Y007315D01*
X026003Y007238D01*
X025696Y007238D01*
X025620Y007315D01*
X025620Y007469D01*
X025696Y007545D01*
X025696Y007699D02*
X025620Y007776D01*
X025620Y007929D01*
X025696Y008006D01*
X026003Y007699D01*
X026080Y007776D01*
X026080Y007929D01*
X026003Y008006D01*
X025696Y008006D01*
X025773Y008159D02*
X025773Y008389D01*
X025850Y008466D01*
X026080Y008466D01*
X026080Y008620D02*
X025620Y008620D01*
X025620Y008927D01*
X025850Y008773D02*
X025850Y008620D01*
X025773Y008159D02*
X026080Y008159D01*
X026003Y007699D02*
X025696Y007699D01*
X025773Y009974D02*
X025620Y010127D01*
X026080Y010127D01*
X026080Y010278D02*
X026080Y010585D01*
X026080Y010511D02*
X026003Y010434D01*
X025696Y010741D01*
X026003Y010741D01*
X026080Y010664D01*
X026080Y010511D01*
X026080Y010431D02*
X025620Y010431D01*
X025773Y010278D01*
X025696Y010434D02*
X025620Y010511D01*
X025620Y010664D01*
X025696Y010741D01*
X025696Y010738D02*
X025620Y010815D01*
X025620Y010969D01*
X025696Y011045D01*
X026003Y010738D01*
X026080Y010815D01*
X026080Y010969D01*
X026003Y011045D01*
X025696Y011045D01*
X025773Y011125D02*
X025927Y010894D01*
X026080Y011125D01*
X026080Y011199D02*
X025620Y011199D01*
X025773Y011429D02*
X025927Y011199D01*
X026080Y011429D01*
X026080Y010894D02*
X025620Y010894D01*
X025696Y010738D02*
X026003Y010738D01*
X026003Y010434D02*
X025696Y010434D01*
X026080Y010281D02*
X026080Y009974D01*
X037980Y007989D02*
X037980Y007759D01*
X038441Y007759D01*
X038441Y007989D01*
X038364Y008066D01*
X038057Y008066D01*
X037980Y007989D01*
X037980Y007606D02*
X038441Y007606D01*
X038441Y007299D02*
X037980Y007299D01*
X038134Y007452D01*
X037980Y007606D01*
X038057Y007145D02*
X037980Y007069D01*
X037980Y006915D01*
X038057Y006838D01*
X038134Y006838D01*
X038210Y006915D01*
X038210Y007069D01*
X038287Y007145D01*
X038364Y007145D01*
X038441Y007069D01*
X038441Y006915D01*
X038364Y006838D01*
X038441Y006685D02*
X038441Y006378D01*
X037980Y006378D01*
X037980Y006685D01*
X038210Y006532D02*
X038210Y006378D01*
X037980Y006225D02*
X037980Y005918D01*
X038441Y005918D01*
X038441Y006225D01*
X038210Y006071D02*
X038210Y005918D01*
X038134Y005764D02*
X038210Y005687D01*
X038210Y005457D01*
X038210Y005304D02*
X038210Y005150D01*
X038210Y005304D02*
X038364Y005304D01*
X038441Y005227D01*
X038441Y005074D01*
X038364Y004997D01*
X038057Y004997D01*
X037980Y005074D01*
X037980Y005227D01*
X038057Y005304D01*
X037980Y005457D02*
X037980Y005687D01*
X038057Y005764D01*
X038134Y005764D01*
X038210Y005687D02*
X038287Y005764D01*
X038364Y005764D01*
X038441Y005687D01*
X038441Y005457D01*
X037980Y005457D01*
X037980Y004843D02*
X037980Y004690D01*
X037980Y004767D02*
X038441Y004767D01*
X038441Y004843D02*
X038441Y004690D01*
X038441Y004536D02*
X038441Y004230D01*
X038364Y004230D01*
X038057Y004536D01*
X037980Y004536D01*
X037980Y004230D01*
X038210Y004076D02*
X038210Y003769D01*
X038210Y003616D02*
X038364Y003616D01*
X038441Y003539D01*
X038441Y003386D01*
X038364Y003309D01*
X038210Y003309D02*
X038134Y003462D01*
X038134Y003539D01*
X038210Y003616D01*
X037980Y003616D02*
X037980Y003309D01*
X038210Y003309D01*
X038057Y003155D02*
X038364Y003155D01*
X038441Y003079D01*
X038441Y002925D01*
X038364Y002848D01*
X038057Y003155D01*
X037980Y003079D01*
X037980Y002925D01*
X038057Y002848D01*
X038364Y002848D01*
X038441Y002695D02*
X038441Y002388D01*
X038364Y002388D01*
X038057Y002695D01*
X037980Y002695D01*
X037980Y002388D01*
X038057Y002235D02*
X037980Y002158D01*
X037980Y002004D01*
X038057Y001928D01*
X038134Y001928D01*
X038210Y002004D01*
X038210Y002158D01*
X038287Y002235D01*
X038364Y002235D01*
X038441Y002158D01*
X038441Y002004D01*
X038364Y001928D01*
D15*
X028100Y002368D02*
X027990Y002258D01*
X028100Y002368D02*
X028100Y002758D01*
X028100Y003148D01*
X027990Y003258D01*
X028000Y002758D02*
X028100Y002758D01*
X027250Y002758D02*
X026950Y002758D01*
X026200Y002758D02*
X026100Y002758D01*
X026100Y002368D01*
X026210Y002258D01*
X026100Y002758D02*
X026100Y003148D01*
X026210Y003258D01*
X022990Y005526D02*
X022832Y005368D01*
X019368Y005368D01*
X019210Y005526D01*
X019210Y008990D01*
X019368Y009148D01*
X022832Y009148D01*
X022990Y008990D01*
X022990Y005526D01*
X021706Y003258D02*
X020494Y003258D01*
X020100Y002746D02*
X020100Y001770D01*
X020494Y001258D02*
X021706Y001258D01*
X022100Y001758D02*
X022100Y002746D01*
X020600Y002258D02*
X020602Y002302D01*
X020608Y002346D01*
X020618Y002389D01*
X020631Y002431D01*
X020648Y002472D01*
X020669Y002511D01*
X020693Y002548D01*
X020720Y002583D01*
X020750Y002615D01*
X020783Y002645D01*
X020819Y002671D01*
X020856Y002695D01*
X020896Y002714D01*
X020937Y002731D01*
X020980Y002743D01*
X021023Y002752D01*
X021067Y002757D01*
X021111Y002758D01*
X021155Y002755D01*
X021199Y002748D01*
X021242Y002737D01*
X021284Y002723D01*
X021324Y002705D01*
X021363Y002683D01*
X021399Y002659D01*
X021433Y002631D01*
X021465Y002600D01*
X021494Y002566D01*
X021520Y002530D01*
X021542Y002492D01*
X021561Y002452D01*
X021576Y002410D01*
X021588Y002368D01*
X021596Y002324D01*
X021600Y002280D01*
X021600Y002236D01*
X021596Y002192D01*
X021588Y002148D01*
X021576Y002106D01*
X021561Y002064D01*
X021542Y002024D01*
X021520Y001986D01*
X021494Y001950D01*
X021465Y001916D01*
X021433Y001885D01*
X021399Y001857D01*
X021363Y001833D01*
X021324Y001811D01*
X021284Y001793D01*
X021242Y001779D01*
X021199Y001768D01*
X021155Y001761D01*
X021111Y001758D01*
X021067Y001759D01*
X021023Y001764D01*
X020980Y001773D01*
X020937Y001785D01*
X020896Y001802D01*
X020856Y001821D01*
X020819Y001845D01*
X020783Y001871D01*
X020750Y001901D01*
X020720Y001933D01*
X020693Y001968D01*
X020669Y002005D01*
X020648Y002044D01*
X020631Y002085D01*
X020618Y002127D01*
X020608Y002170D01*
X020602Y002214D01*
X020600Y002258D01*
X017390Y010558D02*
X014810Y010558D01*
X014810Y011958D01*
X017390Y011958D01*
X017390Y010558D01*
X017100Y016508D02*
X017100Y017008D01*
X015600Y017008D02*
X015600Y016508D01*
X012600Y016508D02*
X012600Y017008D01*
X011100Y017008D02*
X011100Y016508D01*
X008100Y016508D02*
X008100Y017008D01*
X006600Y017008D02*
X006600Y016508D01*
X003600Y016508D02*
X003600Y017008D01*
X020100Y017008D02*
X020100Y016508D01*
X026600Y016368D02*
X026710Y016258D01*
X026600Y016368D02*
X026600Y016758D01*
X026600Y017148D01*
X026710Y017258D01*
X026700Y016758D02*
X026600Y016758D01*
X027450Y016758D02*
X027750Y016758D01*
X028500Y016758D02*
X028600Y016758D01*
X028600Y017148D01*
X028490Y017258D01*
X028600Y016758D02*
X028600Y016368D01*
X028490Y016258D01*
X031100Y016368D02*
X031210Y016258D01*
X031100Y016368D02*
X031100Y016758D01*
X031100Y017148D01*
X031210Y017258D01*
X031200Y016758D02*
X031100Y016758D01*
X031950Y016758D02*
X032250Y016758D01*
X033000Y016758D02*
X033100Y016758D01*
X033100Y017148D01*
X032990Y017258D01*
X033100Y016758D02*
X033100Y016368D01*
X032990Y016258D01*
X035600Y016368D02*
X035710Y016258D01*
X035600Y016368D02*
X035600Y016758D01*
X035600Y017148D01*
X035710Y017258D01*
X035700Y016758D02*
X035600Y016758D01*
X036450Y016758D02*
X036750Y016758D01*
X037500Y016758D02*
X037600Y016758D01*
X037600Y017148D01*
X037490Y017258D01*
X037600Y016758D02*
X037600Y016368D01*
X037490Y016258D01*
X037191Y015242D02*
X036009Y015242D01*
X036009Y015164D01*
X036009Y014829D02*
X036009Y014671D01*
X036009Y014337D02*
X036009Y014179D01*
X036009Y013845D02*
X036009Y013687D01*
X036009Y013353D02*
X036009Y013274D01*
X037191Y013274D01*
X037191Y013353D01*
X037191Y013687D02*
X037191Y013845D01*
X037191Y014179D02*
X037191Y014337D01*
X037191Y014671D02*
X037191Y014829D01*
X037191Y015164D02*
X037191Y015242D01*
X036430Y015101D02*
X036432Y015109D01*
X036437Y015116D01*
X036444Y015120D01*
X036452Y015121D01*
X036460Y015118D01*
X036466Y015113D01*
X036470Y015105D01*
X036470Y015097D01*
X036466Y015089D01*
X036460Y015084D01*
X036452Y015081D01*
X036444Y015082D01*
X036437Y015086D01*
X036432Y015093D01*
X036430Y015101D01*
X036400Y013774D02*
X036402Y013802D01*
X036408Y013829D01*
X036417Y013855D01*
X036430Y013880D01*
X036447Y013903D01*
X036466Y013923D01*
X036488Y013940D01*
X036512Y013954D01*
X036538Y013964D01*
X036565Y013971D01*
X036593Y013974D01*
X036621Y013973D01*
X036648Y013968D01*
X036675Y013959D01*
X036700Y013947D01*
X036723Y013932D01*
X036744Y013913D01*
X036762Y013892D01*
X036777Y013868D01*
X036788Y013842D01*
X036796Y013816D01*
X036800Y013788D01*
X036800Y013760D01*
X036796Y013732D01*
X036788Y013706D01*
X036777Y013680D01*
X036762Y013656D01*
X036744Y013635D01*
X036723Y013616D01*
X036700Y013601D01*
X036675Y013589D01*
X036648Y013580D01*
X036621Y013575D01*
X036593Y013574D01*
X036565Y013577D01*
X036538Y013584D01*
X036512Y013594D01*
X036488Y013608D01*
X036466Y013625D01*
X036447Y013645D01*
X036430Y013668D01*
X036417Y013693D01*
X036408Y013719D01*
X036402Y013746D01*
X036400Y013774D01*
X005100Y003148D02*
X004990Y003258D01*
X004600Y003258D01*
X004210Y003258D01*
X004100Y003148D01*
X004600Y003158D02*
X004600Y003258D01*
X004600Y002408D02*
X004600Y002108D01*
X004600Y001358D02*
X004600Y001258D01*
X004990Y001258D01*
X005100Y001368D01*
X004600Y001258D02*
X004210Y001258D01*
X004100Y001368D01*
D16*
X022564Y008833D02*
X022566Y008853D01*
X022571Y008873D01*
X022581Y008891D01*
X022593Y008908D01*
X022608Y008922D01*
X022626Y008932D01*
X022645Y008940D01*
X022665Y008944D01*
X022685Y008944D01*
X022705Y008940D01*
X022724Y008932D01*
X022742Y008922D01*
X022757Y008908D01*
X022769Y008891D01*
X022779Y008873D01*
X022784Y008853D01*
X022786Y008833D01*
X022784Y008813D01*
X022779Y008793D01*
X022769Y008775D01*
X022757Y008758D01*
X022742Y008744D01*
X022724Y008734D01*
X022705Y008726D01*
X022685Y008722D01*
X022665Y008722D01*
X022645Y008726D01*
X022626Y008734D01*
X022608Y008744D01*
X022593Y008758D01*
X022581Y008775D01*
X022571Y008793D01*
X022566Y008813D01*
X022564Y008833D01*
D17*
X018323Y008714D02*
X018216Y008820D01*
X017683Y008820D01*
X017683Y008393D02*
X018216Y008393D01*
X018323Y008500D01*
X018323Y008714D01*
X018323Y008176D02*
X017896Y008176D01*
X017683Y007962D01*
X017896Y007749D01*
X018323Y007749D01*
X018003Y007749D02*
X018003Y008176D01*
X018003Y007531D02*
X018003Y007104D01*
X018003Y006887D02*
X018003Y006460D01*
X017683Y006780D01*
X018323Y006780D01*
X018216Y006242D02*
X017683Y006242D01*
X017683Y005815D02*
X018216Y005815D01*
X018323Y005922D01*
X018323Y006136D01*
X018216Y006242D01*
X018323Y005598D02*
X018323Y005171D01*
X017896Y005598D01*
X017789Y005598D01*
X017683Y005491D01*
X017683Y005277D01*
X017789Y005171D01*
X017789Y004953D02*
X017896Y004953D01*
X018003Y004846D01*
X018110Y004953D01*
X018216Y004953D01*
X018323Y004846D01*
X018323Y004633D01*
X018216Y004526D01*
X018323Y004309D02*
X017896Y004309D01*
X017683Y004095D01*
X017896Y003882D01*
X018323Y003882D01*
X018216Y003664D02*
X018003Y003664D01*
X018003Y003451D01*
X018216Y003664D02*
X018323Y003557D01*
X018323Y003344D01*
X018216Y003237D01*
X017789Y003237D01*
X017683Y003344D01*
X017683Y003557D01*
X017789Y003664D01*
X018003Y003882D02*
X018003Y004309D01*
X017789Y004526D02*
X017683Y004633D01*
X017683Y004846D01*
X017789Y004953D01*
X018003Y004846D02*
X018003Y004740D01*
X018323Y003020D02*
X018323Y002593D01*
X017683Y002593D01*
X017683Y003020D01*
X018003Y002806D02*
X018003Y002593D01*
X017683Y002375D02*
X018323Y002375D01*
X017896Y002161D02*
X017683Y002375D01*
X017896Y002161D02*
X017683Y001948D01*
X018323Y001948D01*
X018323Y001517D02*
X017683Y001517D01*
X017683Y001730D02*
X017683Y001303D01*
X017896Y001086D02*
X017683Y000872D01*
X017896Y000659D01*
X018323Y000659D01*
X018003Y000659D02*
X018003Y001086D01*
X017896Y001086D02*
X018323Y001086D01*
X006281Y010028D02*
X006281Y012488D01*
X004919Y012488D01*
X004919Y010028D01*
X006281Y010028D01*
X026980Y013008D02*
X028220Y013008D01*
X028243Y013010D01*
X028266Y013015D01*
X028288Y013024D01*
X028308Y013037D01*
X028326Y013052D01*
X028341Y013070D01*
X028354Y013090D01*
X028363Y013112D01*
X028368Y013135D01*
X028370Y013158D01*
X026980Y013008D02*
X026957Y013010D01*
X026934Y013015D01*
X026912Y013024D01*
X026892Y013037D01*
X026874Y013052D01*
X026859Y013070D01*
X026846Y013090D01*
X026837Y013112D01*
X026832Y013135D01*
X026830Y013158D01*
X026830Y014858D02*
X026832Y014881D01*
X026837Y014904D01*
X026846Y014926D01*
X026859Y014946D01*
X026874Y014964D01*
X026892Y014979D01*
X026912Y014992D01*
X026934Y015001D01*
X026957Y015006D01*
X026980Y015008D01*
X027400Y015008D01*
X027800Y015008D01*
X028220Y015008D01*
X028243Y015006D01*
X028266Y015001D01*
X028288Y014992D01*
X028308Y014979D01*
X028326Y014964D01*
X028341Y014946D01*
X028354Y014926D01*
X028363Y014904D01*
X028368Y014881D01*
X028370Y014858D01*
X027800Y015008D02*
X027798Y014981D01*
X027793Y014954D01*
X027783Y014928D01*
X027771Y014904D01*
X027755Y014882D01*
X027737Y014862D01*
X027715Y014845D01*
X027692Y014830D01*
X027667Y014820D01*
X027641Y014812D01*
X027614Y014808D01*
X027586Y014808D01*
X027559Y014812D01*
X027533Y014820D01*
X027508Y014830D01*
X027485Y014845D01*
X027463Y014862D01*
X027445Y014882D01*
X027429Y014904D01*
X027417Y014928D01*
X027407Y014954D01*
X027402Y014981D01*
X027400Y015008D01*
X031480Y015008D02*
X031900Y015008D01*
X032300Y015008D01*
X032720Y015008D01*
X032743Y015006D01*
X032766Y015001D01*
X032788Y014992D01*
X032808Y014979D01*
X032826Y014964D01*
X032841Y014946D01*
X032854Y014926D01*
X032863Y014904D01*
X032868Y014881D01*
X032870Y014858D01*
X032300Y015008D02*
X032298Y014981D01*
X032293Y014954D01*
X032283Y014928D01*
X032271Y014904D01*
X032255Y014882D01*
X032237Y014862D01*
X032215Y014845D01*
X032192Y014830D01*
X032167Y014820D01*
X032141Y014812D01*
X032114Y014808D01*
X032086Y014808D01*
X032059Y014812D01*
X032033Y014820D01*
X032008Y014830D01*
X031985Y014845D01*
X031963Y014862D01*
X031945Y014882D01*
X031929Y014904D01*
X031917Y014928D01*
X031907Y014954D01*
X031902Y014981D01*
X031900Y015008D01*
X031480Y015008D02*
X031457Y015006D01*
X031434Y015001D01*
X031412Y014992D01*
X031392Y014979D01*
X031374Y014964D01*
X031359Y014946D01*
X031346Y014926D01*
X031337Y014904D01*
X031332Y014881D01*
X031330Y014858D01*
X031330Y013158D02*
X031332Y013135D01*
X031337Y013112D01*
X031346Y013090D01*
X031359Y013070D01*
X031374Y013052D01*
X031392Y013037D01*
X031412Y013024D01*
X031434Y013015D01*
X031457Y013010D01*
X031480Y013008D01*
X032720Y013008D01*
X032743Y013010D01*
X032766Y013015D01*
X032788Y013024D01*
X032808Y013037D01*
X032826Y013052D01*
X032841Y013070D01*
X032854Y013090D01*
X032863Y013112D01*
X032868Y013135D01*
X032870Y013158D01*
D18*
X021408Y003028D02*
X021383Y003053D01*
X021333Y003053D01*
X021308Y003028D01*
X021308Y002928D01*
X021333Y002903D01*
X021383Y002903D01*
X021408Y002928D01*
X021260Y002903D02*
X021260Y003003D01*
X021160Y003003D02*
X021160Y002928D01*
X021185Y002903D01*
X021260Y002903D01*
X020965Y002903D02*
X020940Y002928D01*
X020940Y003028D01*
X020915Y003003D02*
X020965Y003003D01*
X020868Y002978D02*
X020868Y002953D01*
X020767Y002953D01*
X020767Y002928D02*
X020767Y002978D01*
X020792Y003003D01*
X020843Y003003D01*
X020868Y002978D01*
X020843Y002903D02*
X020792Y002903D01*
X020767Y002928D01*
X020720Y002928D02*
X020695Y002953D01*
X020645Y002953D01*
X020620Y002978D01*
X020645Y003003D01*
X020720Y003003D01*
X020720Y002928D02*
X020695Y002903D01*
X020620Y002903D01*
X020573Y002953D02*
X020473Y002953D01*
X020473Y002928D02*
X020473Y002978D01*
X020498Y003003D01*
X020548Y003003D01*
X020573Y002978D01*
X020573Y002953D01*
X020548Y002903D02*
X020498Y002903D01*
X020473Y002928D01*
X020426Y002903D02*
X020376Y002953D01*
X020401Y002953D02*
X020326Y002953D01*
X020326Y002903D02*
X020326Y003053D01*
X020401Y003053D01*
X020426Y003028D01*
X020426Y002978D01*
X020401Y002953D01*
D19*
X015716Y006170D02*
X015716Y008346D01*
X015714Y008365D01*
X015709Y008384D01*
X015701Y008402D01*
X015690Y008417D01*
X015676Y008431D01*
X015661Y008442D01*
X015643Y008450D01*
X015624Y008455D01*
X015605Y008457D01*
X015605Y008458D02*
X014608Y008458D01*
X014608Y008457D02*
X014589Y008455D01*
X014570Y008451D01*
X014552Y008443D01*
X014535Y008433D01*
X014520Y008421D01*
X014508Y008406D01*
X014498Y008389D01*
X014490Y008371D01*
X014486Y008352D01*
X014484Y008333D01*
X014484Y006146D01*
X014486Y006129D01*
X014491Y006112D01*
X014499Y006097D01*
X014510Y006084D01*
X014523Y006073D01*
X014538Y006065D01*
X014555Y006060D01*
X014572Y006058D01*
X015605Y006058D01*
X015605Y006059D02*
X015624Y006061D01*
X015643Y006066D01*
X015661Y006074D01*
X015676Y006085D01*
X015690Y006099D01*
X015701Y006115D01*
X015709Y006132D01*
X015714Y006151D01*
X015716Y006170D01*
X015559Y006413D02*
X015559Y008104D01*
X015558Y008104D02*
X015556Y008126D01*
X015552Y008148D01*
X015544Y008169D01*
X015533Y008189D01*
X015520Y008207D01*
X015504Y008223D01*
X015486Y008236D01*
X015466Y008247D01*
X015445Y008255D01*
X015423Y008259D01*
X015401Y008261D01*
X014799Y008261D01*
X014773Y008262D01*
X014748Y008259D01*
X014723Y008253D01*
X014700Y008243D01*
X014678Y008231D01*
X014658Y008215D01*
X014641Y008196D01*
X014626Y008175D01*
X014615Y008153D01*
X014607Y008129D01*
X014602Y008104D01*
X014602Y006452D01*
X014604Y006426D01*
X014609Y006401D01*
X014617Y006377D01*
X014628Y006354D01*
X014643Y006332D01*
X014660Y006313D01*
X014679Y006296D01*
X014701Y006281D01*
X014724Y006270D01*
X014748Y006262D01*
X014773Y006257D01*
X014799Y006255D01*
X015401Y006255D01*
X015401Y006256D02*
X015423Y006258D01*
X015445Y006262D01*
X015466Y006270D01*
X015486Y006281D01*
X015504Y006294D01*
X015520Y006310D01*
X015533Y006328D01*
X015544Y006348D01*
X015552Y006369D01*
X015556Y006391D01*
X015558Y006413D01*
X005875Y010183D02*
X005425Y010183D01*
X005425Y010408D01*
X005500Y010483D01*
X005650Y010483D01*
X005725Y010408D01*
X005725Y010183D01*
X005725Y010333D02*
X005875Y010483D01*
X005875Y010643D02*
X005425Y010643D01*
X005425Y010944D01*
X005500Y011104D02*
X005800Y011104D01*
X005875Y011179D01*
X005875Y011329D01*
X005800Y011404D01*
X005650Y011404D01*
X005650Y011254D01*
X005500Y011404D02*
X005425Y011329D01*
X005425Y011179D01*
X005500Y011104D01*
X005650Y010794D02*
X005650Y010643D01*
X005875Y010643D02*
X005875Y010944D01*
X005875Y011564D02*
X005875Y011864D01*
X005875Y011714D02*
X005425Y011714D01*
X005575Y011564D01*
X005575Y012025D02*
X005425Y012175D01*
X005875Y012175D01*
X005875Y012025D02*
X005875Y012325D01*
X005875Y012485D02*
X005875Y012785D01*
X005875Y012635D02*
X005425Y012635D01*
X005575Y012485D01*
X005425Y012945D02*
X005425Y013246D01*
X005500Y013246D01*
X005800Y012945D01*
X005875Y012945D01*
X027719Y009229D02*
X027719Y001731D01*
X036919Y001731D01*
X036919Y009229D01*
X027719Y009229D01*
X031825Y011771D02*
X031975Y011921D01*
X031825Y012071D01*
X032275Y012071D01*
X032275Y012231D02*
X031975Y012531D01*
X031900Y012531D01*
X031825Y012456D01*
X031825Y012306D01*
X031900Y012231D01*
X032275Y012231D02*
X032275Y012531D01*
X032050Y012691D02*
X032050Y012992D01*
X032050Y013152D02*
X031975Y013302D01*
X031975Y013377D01*
X032050Y013452D01*
X032200Y013452D01*
X032275Y013377D01*
X032275Y013227D01*
X032200Y013152D01*
X032050Y013152D02*
X031825Y013152D01*
X031825Y013452D01*
X031975Y013612D02*
X031825Y013762D01*
X032275Y013762D01*
X032275Y013612D02*
X032275Y013912D01*
X032275Y014073D02*
X031975Y014373D01*
X031900Y014373D01*
X031825Y014298D01*
X031825Y014148D01*
X031900Y014073D01*
X032275Y014073D02*
X032275Y014373D01*
X032275Y012917D02*
X031825Y012917D01*
X032050Y012691D01*
X032275Y011771D02*
X031825Y011771D01*
D20*
X031470Y013008D02*
X031470Y015008D01*
X036010Y013208D02*
X036057Y013161D01*
X036103Y013208D01*
X036103Y013068D01*
X036157Y013068D02*
X036157Y013208D01*
X036227Y013208D01*
X036251Y013185D01*
X036251Y013138D01*
X036227Y013115D01*
X036157Y013115D01*
X036010Y013068D02*
X036010Y013208D01*
X036305Y013208D02*
X036305Y013068D01*
X036398Y013068D01*
X036452Y013091D02*
X036475Y013068D01*
X036522Y013068D01*
X036545Y013091D01*
X036545Y013115D01*
X036522Y013138D01*
X036499Y013138D01*
X036522Y013138D02*
X036545Y013161D01*
X036545Y013185D01*
X036522Y013208D01*
X036475Y013208D01*
X036452Y013185D01*
X036599Y013161D02*
X036646Y013208D01*
X036646Y013068D01*
X036599Y013068D02*
X036693Y013068D01*
X036747Y013068D02*
X036840Y013068D01*
X036793Y013068D02*
X036793Y013208D01*
X036747Y013161D01*
X036894Y013138D02*
X036941Y013161D01*
X036964Y013161D01*
X036987Y013138D01*
X036987Y013091D01*
X036964Y013068D01*
X036917Y013068D01*
X036894Y013091D01*
X036894Y013138D02*
X036894Y013208D01*
X036987Y013208D01*
X037041Y013161D02*
X037088Y013208D01*
X037135Y013161D01*
X037135Y013068D01*
X037189Y013068D02*
X037282Y013161D01*
X037282Y013185D01*
X037259Y013208D01*
X037212Y013208D01*
X037189Y013185D01*
X037135Y013138D02*
X037041Y013138D01*
X037041Y013161D02*
X037041Y013068D01*
X037189Y013068D02*
X037282Y013068D01*
X037336Y013068D02*
X037429Y013068D01*
X037483Y013091D02*
X037507Y013068D01*
X037553Y013068D01*
X037577Y013091D01*
X037577Y013138D01*
X037530Y013138D01*
X037483Y013185D02*
X037483Y013091D01*
X037483Y013185D02*
X037507Y013208D01*
X037553Y013208D01*
X037577Y013185D01*
X037631Y013161D02*
X037677Y013208D01*
X037724Y013161D01*
X037724Y013068D01*
X037778Y013091D02*
X037778Y013115D01*
X037801Y013138D01*
X037848Y013138D01*
X037871Y013115D01*
X037871Y013091D01*
X037848Y013068D01*
X037801Y013068D01*
X037778Y013091D01*
X037801Y013138D02*
X037778Y013161D01*
X037778Y013185D01*
X037801Y013208D01*
X037848Y013208D01*
X037871Y013185D01*
X037871Y013161D01*
X037848Y013138D01*
X037724Y013138D02*
X037631Y013138D01*
X037631Y013161D02*
X037631Y013068D01*
X037336Y013068D02*
X037336Y013208D01*
X026970Y013008D02*
X026970Y015008D01*
M02*
