G75*
%MOIN*%
%OFA0B0*%
%FSLAX24Y24*%
%IPPOS*%
%LPD*%
%AMOC8*
5,1,8,0,0,1.08239X$1,22.5*
%
%ADD10C,0.0000*%
%ADD11C,0.0040*%
%ADD12C,0.0080*%
%ADD13C,0.0010*%
%ADD14C,0.0030*%
%ADD15R,0.0059X0.0118*%
%ADD16R,0.0118X0.0118*%
%ADD17C,0.0060*%
%ADD18C,0.0020*%
%ADD19C,0.0050*%
D10*
X003100Y000158D02*
X003100Y018454D01*
X039170Y018454D01*
X039170Y000158D01*
X003100Y000158D01*
X004923Y005892D02*
X004925Y005918D01*
X004931Y005944D01*
X004941Y005969D01*
X004954Y005992D01*
X004970Y006012D01*
X004990Y006030D01*
X005012Y006045D01*
X005035Y006057D01*
X005061Y006065D01*
X005087Y006069D01*
X005113Y006069D01*
X005139Y006065D01*
X005165Y006057D01*
X005189Y006045D01*
X005210Y006030D01*
X005230Y006012D01*
X005246Y005992D01*
X005259Y005969D01*
X005269Y005944D01*
X005275Y005918D01*
X005277Y005892D01*
X005275Y005866D01*
X005269Y005840D01*
X005259Y005815D01*
X005246Y005792D01*
X005230Y005772D01*
X005210Y005754D01*
X005188Y005739D01*
X005165Y005727D01*
X005139Y005719D01*
X005113Y005715D01*
X005087Y005715D01*
X005061Y005719D01*
X005035Y005727D01*
X005011Y005739D01*
X004990Y005754D01*
X004970Y005772D01*
X004954Y005792D01*
X004941Y005815D01*
X004931Y005840D01*
X004925Y005866D01*
X004923Y005892D01*
X004923Y007624D02*
X004925Y007650D01*
X004931Y007676D01*
X004941Y007701D01*
X004954Y007724D01*
X004970Y007744D01*
X004990Y007762D01*
X005012Y007777D01*
X005035Y007789D01*
X005061Y007797D01*
X005087Y007801D01*
X005113Y007801D01*
X005139Y007797D01*
X005165Y007789D01*
X005189Y007777D01*
X005210Y007762D01*
X005230Y007744D01*
X005246Y007724D01*
X005259Y007701D01*
X005269Y007676D01*
X005275Y007650D01*
X005277Y007624D01*
X005275Y007598D01*
X005269Y007572D01*
X005259Y007547D01*
X005246Y007524D01*
X005230Y007504D01*
X005210Y007486D01*
X005188Y007471D01*
X005165Y007459D01*
X005139Y007451D01*
X005113Y007447D01*
X005087Y007447D01*
X005061Y007451D01*
X005035Y007459D01*
X005011Y007471D01*
X004990Y007486D01*
X004970Y007504D01*
X004954Y007524D01*
X004941Y007547D01*
X004931Y007572D01*
X004925Y007598D01*
X004923Y007624D01*
X012982Y009758D02*
X012984Y009779D01*
X012990Y009799D01*
X012999Y009819D01*
X013011Y009836D01*
X013026Y009850D01*
X013044Y009862D01*
X013064Y009870D01*
X013084Y009875D01*
X013105Y009876D01*
X013126Y009873D01*
X013146Y009867D01*
X013165Y009856D01*
X013182Y009843D01*
X013195Y009827D01*
X013206Y009809D01*
X013214Y009789D01*
X013218Y009769D01*
X013218Y009747D01*
X013214Y009727D01*
X013206Y009707D01*
X013195Y009689D01*
X013182Y009673D01*
X013165Y009660D01*
X013146Y009649D01*
X013126Y009643D01*
X013105Y009640D01*
X013084Y009641D01*
X013064Y009646D01*
X013044Y009654D01*
X013026Y009666D01*
X013011Y009680D01*
X012999Y009697D01*
X012990Y009717D01*
X012984Y009737D01*
X012982Y009758D01*
X013883Y003258D02*
X013885Y003301D01*
X013891Y003344D01*
X013901Y003386D01*
X013915Y003427D01*
X013932Y003466D01*
X013953Y003504D01*
X013977Y003539D01*
X014005Y003573D01*
X014035Y003603D01*
X014069Y003631D01*
X014104Y003655D01*
X014142Y003676D01*
X014181Y003693D01*
X014222Y003707D01*
X014264Y003717D01*
X014307Y003723D01*
X014350Y003725D01*
X014393Y003723D01*
X014436Y003717D01*
X014478Y003707D01*
X014519Y003693D01*
X014558Y003676D01*
X014596Y003655D01*
X014631Y003631D01*
X014665Y003603D01*
X014695Y003573D01*
X014723Y003539D01*
X014747Y003504D01*
X014768Y003466D01*
X014785Y003427D01*
X014799Y003386D01*
X014809Y003344D01*
X014815Y003301D01*
X014817Y003258D01*
X014815Y003215D01*
X014809Y003172D01*
X014799Y003130D01*
X014785Y003089D01*
X014768Y003050D01*
X014747Y003012D01*
X014723Y002977D01*
X014695Y002943D01*
X014665Y002913D01*
X014631Y002885D01*
X014596Y002861D01*
X014558Y002840D01*
X014519Y002823D01*
X014478Y002809D01*
X014436Y002799D01*
X014393Y002793D01*
X014350Y002791D01*
X014307Y002793D01*
X014264Y002799D01*
X014222Y002809D01*
X014181Y002823D01*
X014142Y002840D01*
X014104Y002861D01*
X014069Y002885D01*
X014035Y002913D01*
X014005Y002943D01*
X013977Y002977D01*
X013953Y003012D01*
X013932Y003050D01*
X013915Y003089D01*
X013901Y003130D01*
X013891Y003172D01*
X013885Y003215D01*
X013883Y003258D01*
X013425Y002658D02*
X013427Y002684D01*
X013433Y002710D01*
X013442Y002734D01*
X013455Y002757D01*
X013472Y002777D01*
X013491Y002795D01*
X013513Y002810D01*
X013536Y002821D01*
X013561Y002829D01*
X013587Y002833D01*
X013613Y002833D01*
X013639Y002829D01*
X013664Y002821D01*
X013688Y002810D01*
X013709Y002795D01*
X013728Y002777D01*
X013745Y002757D01*
X013758Y002734D01*
X013767Y002710D01*
X013773Y002684D01*
X013775Y002658D01*
X013773Y002632D01*
X013767Y002606D01*
X013758Y002582D01*
X013745Y002559D01*
X013728Y002539D01*
X013709Y002521D01*
X013687Y002506D01*
X013664Y002495D01*
X013639Y002487D01*
X013613Y002483D01*
X013587Y002483D01*
X013561Y002487D01*
X013536Y002495D01*
X013512Y002506D01*
X013491Y002521D01*
X013472Y002539D01*
X013455Y002559D01*
X013442Y002582D01*
X013433Y002606D01*
X013427Y002632D01*
X013425Y002658D01*
X013425Y001858D02*
X013427Y001884D01*
X013433Y001910D01*
X013442Y001934D01*
X013455Y001957D01*
X013472Y001977D01*
X013491Y001995D01*
X013513Y002010D01*
X013536Y002021D01*
X013561Y002029D01*
X013587Y002033D01*
X013613Y002033D01*
X013639Y002029D01*
X013664Y002021D01*
X013688Y002010D01*
X013709Y001995D01*
X013728Y001977D01*
X013745Y001957D01*
X013758Y001934D01*
X013767Y001910D01*
X013773Y001884D01*
X013775Y001858D01*
X013773Y001832D01*
X013767Y001806D01*
X013758Y001782D01*
X013745Y001759D01*
X013728Y001739D01*
X013709Y001721D01*
X013687Y001706D01*
X013664Y001695D01*
X013639Y001687D01*
X013613Y001683D01*
X013587Y001683D01*
X013561Y001687D01*
X013536Y001695D01*
X013512Y001706D01*
X013491Y001721D01*
X013472Y001739D01*
X013455Y001759D01*
X013442Y001782D01*
X013433Y001806D01*
X013427Y001832D01*
X013425Y001858D01*
X013883Y001258D02*
X013885Y001301D01*
X013891Y001344D01*
X013901Y001386D01*
X013915Y001427D01*
X013932Y001466D01*
X013953Y001504D01*
X013977Y001539D01*
X014005Y001573D01*
X014035Y001603D01*
X014069Y001631D01*
X014104Y001655D01*
X014142Y001676D01*
X014181Y001693D01*
X014222Y001707D01*
X014264Y001717D01*
X014307Y001723D01*
X014350Y001725D01*
X014393Y001723D01*
X014436Y001717D01*
X014478Y001707D01*
X014519Y001693D01*
X014558Y001676D01*
X014596Y001655D01*
X014631Y001631D01*
X014665Y001603D01*
X014695Y001573D01*
X014723Y001539D01*
X014747Y001504D01*
X014768Y001466D01*
X014785Y001427D01*
X014799Y001386D01*
X014809Y001344D01*
X014815Y001301D01*
X014817Y001258D01*
X014815Y001215D01*
X014809Y001172D01*
X014799Y001130D01*
X014785Y001089D01*
X014768Y001050D01*
X014747Y001012D01*
X014723Y000977D01*
X014695Y000943D01*
X014665Y000913D01*
X014631Y000885D01*
X014596Y000861D01*
X014558Y000840D01*
X014519Y000823D01*
X014478Y000809D01*
X014436Y000799D01*
X014393Y000793D01*
X014350Y000791D01*
X014307Y000793D01*
X014264Y000799D01*
X014222Y000809D01*
X014181Y000823D01*
X014142Y000840D01*
X014104Y000861D01*
X014069Y000885D01*
X014035Y000913D01*
X014005Y000943D01*
X013977Y000977D01*
X013953Y001012D01*
X013932Y001050D01*
X013915Y001089D01*
X013901Y001130D01*
X013891Y001172D01*
X013885Y001215D01*
X013883Y001258D01*
X015133Y001258D02*
X015135Y001301D01*
X015141Y001344D01*
X015151Y001386D01*
X015165Y001427D01*
X015182Y001466D01*
X015203Y001504D01*
X015227Y001539D01*
X015255Y001573D01*
X015285Y001603D01*
X015319Y001631D01*
X015354Y001655D01*
X015392Y001676D01*
X015431Y001693D01*
X015472Y001707D01*
X015514Y001717D01*
X015557Y001723D01*
X015600Y001725D01*
X015643Y001723D01*
X015686Y001717D01*
X015728Y001707D01*
X015769Y001693D01*
X015808Y001676D01*
X015846Y001655D01*
X015881Y001631D01*
X015915Y001603D01*
X015945Y001573D01*
X015973Y001539D01*
X015997Y001504D01*
X016018Y001466D01*
X016035Y001427D01*
X016049Y001386D01*
X016059Y001344D01*
X016065Y001301D01*
X016067Y001258D01*
X016065Y001215D01*
X016059Y001172D01*
X016049Y001130D01*
X016035Y001089D01*
X016018Y001050D01*
X015997Y001012D01*
X015973Y000977D01*
X015945Y000943D01*
X015915Y000913D01*
X015881Y000885D01*
X015846Y000861D01*
X015808Y000840D01*
X015769Y000823D01*
X015728Y000809D01*
X015686Y000799D01*
X015643Y000793D01*
X015600Y000791D01*
X015557Y000793D01*
X015514Y000799D01*
X015472Y000809D01*
X015431Y000823D01*
X015392Y000840D01*
X015354Y000861D01*
X015319Y000885D01*
X015285Y000913D01*
X015255Y000943D01*
X015227Y000977D01*
X015203Y001012D01*
X015182Y001050D01*
X015165Y001089D01*
X015151Y001130D01*
X015141Y001172D01*
X015135Y001215D01*
X015133Y001258D01*
X015425Y002258D02*
X015427Y002284D01*
X015433Y002310D01*
X015442Y002334D01*
X015455Y002357D01*
X015472Y002377D01*
X015491Y002395D01*
X015513Y002410D01*
X015536Y002421D01*
X015561Y002429D01*
X015587Y002433D01*
X015613Y002433D01*
X015639Y002429D01*
X015664Y002421D01*
X015688Y002410D01*
X015709Y002395D01*
X015728Y002377D01*
X015745Y002357D01*
X015758Y002334D01*
X015767Y002310D01*
X015773Y002284D01*
X015775Y002258D01*
X015773Y002232D01*
X015767Y002206D01*
X015758Y002182D01*
X015745Y002159D01*
X015728Y002139D01*
X015709Y002121D01*
X015687Y002106D01*
X015664Y002095D01*
X015639Y002087D01*
X015613Y002083D01*
X015587Y002083D01*
X015561Y002087D01*
X015536Y002095D01*
X015512Y002106D01*
X015491Y002121D01*
X015472Y002139D01*
X015455Y002159D01*
X015442Y002182D01*
X015433Y002206D01*
X015427Y002232D01*
X015425Y002258D01*
X015133Y003258D02*
X015135Y003301D01*
X015141Y003344D01*
X015151Y003386D01*
X015165Y003427D01*
X015182Y003466D01*
X015203Y003504D01*
X015227Y003539D01*
X015255Y003573D01*
X015285Y003603D01*
X015319Y003631D01*
X015354Y003655D01*
X015392Y003676D01*
X015431Y003693D01*
X015472Y003707D01*
X015514Y003717D01*
X015557Y003723D01*
X015600Y003725D01*
X015643Y003723D01*
X015686Y003717D01*
X015728Y003707D01*
X015769Y003693D01*
X015808Y003676D01*
X015846Y003655D01*
X015881Y003631D01*
X015915Y003603D01*
X015945Y003573D01*
X015973Y003539D01*
X015997Y003504D01*
X016018Y003466D01*
X016035Y003427D01*
X016049Y003386D01*
X016059Y003344D01*
X016065Y003301D01*
X016067Y003258D01*
X016065Y003215D01*
X016059Y003172D01*
X016049Y003130D01*
X016035Y003089D01*
X016018Y003050D01*
X015997Y003012D01*
X015973Y002977D01*
X015945Y002943D01*
X015915Y002913D01*
X015881Y002885D01*
X015846Y002861D01*
X015808Y002840D01*
X015769Y002823D01*
X015728Y002809D01*
X015686Y002799D01*
X015643Y002793D01*
X015600Y002791D01*
X015557Y002793D01*
X015514Y002799D01*
X015472Y002809D01*
X015431Y002823D01*
X015392Y002840D01*
X015354Y002861D01*
X015319Y002885D01*
X015285Y002913D01*
X015255Y002943D01*
X015227Y002977D01*
X015203Y003012D01*
X015182Y003050D01*
X015165Y003089D01*
X015151Y003130D01*
X015141Y003172D01*
X015135Y003215D01*
X015133Y003258D01*
D11*
X012080Y002625D02*
X012080Y002318D01*
X011620Y002318D01*
X011620Y002164D02*
X011850Y002164D01*
X011927Y002087D01*
X011927Y001857D01*
X011620Y001857D01*
X011697Y001704D02*
X011620Y001627D01*
X011620Y001474D01*
X011697Y001397D01*
X012004Y001704D01*
X011697Y001704D01*
X012004Y001704D02*
X012080Y001627D01*
X012080Y001474D01*
X012004Y001397D01*
X011697Y001397D01*
X011697Y001243D02*
X011620Y001167D01*
X011620Y001013D01*
X011697Y000936D01*
X012004Y001243D01*
X011697Y001243D01*
X011697Y000936D02*
X012004Y000936D01*
X012080Y001013D01*
X012080Y001167D01*
X012004Y001243D01*
X011620Y000783D02*
X011620Y000476D01*
X011620Y000630D02*
X012080Y000630D01*
X011927Y000476D01*
X011850Y002318D02*
X011850Y002471D01*
X009830Y003431D02*
X009677Y003278D01*
X009830Y003431D02*
X009370Y003431D01*
X009370Y003278D02*
X009370Y003585D01*
X009447Y003738D02*
X009754Y004045D01*
X009447Y004045D01*
X009370Y003969D01*
X009370Y003815D01*
X009447Y003738D01*
X009754Y003738D01*
X009830Y003815D01*
X009830Y003969D01*
X009754Y004045D01*
X009677Y004199D02*
X009447Y004199D01*
X009370Y004276D01*
X009370Y004506D01*
X009677Y004506D01*
X009600Y004659D02*
X009600Y004813D01*
X009830Y004659D02*
X009830Y004966D01*
X009830Y004659D02*
X009370Y004659D01*
X008927Y006278D02*
X009080Y006431D01*
X008620Y006431D01*
X008620Y006278D02*
X008620Y006585D01*
X008697Y006738D02*
X008620Y006815D01*
X008620Y006969D01*
X008697Y007045D01*
X009004Y007045D01*
X008697Y006738D01*
X009004Y006738D01*
X009080Y006815D01*
X009080Y006969D01*
X009004Y007045D01*
X008927Y007199D02*
X008697Y007199D01*
X008620Y007276D01*
X008620Y007506D01*
X008927Y007506D01*
X008850Y007659D02*
X008850Y007813D01*
X009080Y007659D02*
X009080Y007966D01*
X009080Y007659D02*
X008620Y007659D01*
X021120Y003620D02*
X021580Y003620D01*
X021580Y003927D01*
X021350Y003773D02*
X021350Y003620D01*
X021350Y003466D02*
X021120Y003466D01*
X021350Y003466D02*
X021427Y003389D01*
X021427Y003159D01*
X021120Y003159D01*
X021197Y003006D02*
X021120Y002929D01*
X021120Y002776D01*
X021197Y002699D01*
X021504Y003006D01*
X021197Y003006D01*
X021095Y002904D02*
X021248Y002674D01*
X021402Y002904D01*
X021504Y003006D02*
X021580Y002929D01*
X021580Y002776D01*
X021504Y002699D01*
X021197Y002699D01*
X021095Y002674D02*
X021555Y002674D01*
X021504Y002545D02*
X021197Y002238D01*
X021120Y002315D01*
X021120Y002469D01*
X021197Y002545D01*
X021504Y002545D01*
X021580Y002469D01*
X021580Y002315D01*
X021504Y002238D01*
X021197Y002238D01*
X021172Y002213D02*
X021479Y002520D01*
X021172Y002520D01*
X021095Y002444D01*
X021095Y002290D01*
X021172Y002213D01*
X021479Y002213D01*
X021555Y002290D01*
X021555Y002444D01*
X021479Y002520D01*
X021120Y002085D02*
X021120Y001778D01*
X021095Y001753D02*
X021095Y002060D01*
X021120Y001931D02*
X021580Y001931D01*
X021427Y001778D01*
X021402Y001753D02*
X021555Y001906D01*
X021095Y001906D01*
X029140Y003976D02*
X029140Y004206D01*
X029217Y004283D01*
X029293Y004283D01*
X029370Y004206D01*
X029370Y003976D01*
X029140Y003976D02*
X029600Y003976D01*
X029600Y004206D01*
X029524Y004283D01*
X029447Y004283D01*
X029370Y004206D01*
X029447Y004436D02*
X029370Y004513D01*
X029370Y004667D01*
X029293Y004743D01*
X029217Y004743D01*
X029140Y004667D01*
X029140Y004513D01*
X029217Y004436D01*
X029447Y004436D02*
X029524Y004436D01*
X029600Y004513D01*
X029600Y004667D01*
X029524Y004743D01*
X029600Y004897D02*
X029600Y005127D01*
X029524Y005204D01*
X029370Y005204D01*
X029293Y005127D01*
X029293Y004897D01*
X029140Y004897D02*
X029600Y004897D01*
X029600Y005357D02*
X029600Y005664D01*
X029524Y005664D01*
X029217Y005357D01*
X029140Y005357D01*
X029217Y005818D02*
X029140Y005894D01*
X029140Y006048D01*
X029217Y006125D01*
X029370Y006125D01*
X029447Y006048D01*
X029447Y005971D01*
X029370Y005818D01*
X029600Y005818D01*
X029600Y006125D01*
X031870Y005000D02*
X032100Y004769D01*
X032023Y004693D02*
X032330Y005000D01*
X032330Y004693D02*
X031870Y004693D01*
X031870Y004539D02*
X031870Y004232D01*
X031870Y004386D02*
X032330Y004386D01*
X032177Y004232D01*
X032870Y004232D02*
X032870Y004539D01*
X032870Y004386D02*
X033330Y004386D01*
X033177Y004232D01*
X033330Y004693D02*
X032870Y004693D01*
X033023Y004693D02*
X033330Y005000D01*
X033100Y004769D02*
X032870Y005000D01*
X033870Y005000D02*
X034100Y004769D01*
X034023Y004693D02*
X034330Y005000D01*
X034330Y004693D02*
X033870Y004693D01*
X033870Y004539D02*
X033870Y004232D01*
X033870Y004386D02*
X034330Y004386D01*
X034177Y004232D01*
X033330Y002000D02*
X033023Y001693D01*
X033100Y001769D02*
X032870Y002000D01*
X032870Y001693D02*
X033330Y001693D01*
X033330Y001386D02*
X032870Y001386D01*
X032870Y001539D02*
X032870Y001232D01*
X033177Y001232D02*
X033330Y001386D01*
X032330Y001386D02*
X031870Y001386D01*
X031870Y001539D02*
X031870Y001232D01*
X032177Y001232D02*
X032330Y001386D01*
X032330Y001693D02*
X031870Y001693D01*
X032023Y001693D02*
X032330Y002000D01*
X032100Y001769D02*
X031870Y002000D01*
X031870Y008403D02*
X032330Y008403D01*
X032330Y008633D01*
X032254Y008710D01*
X032100Y008710D01*
X032023Y008633D01*
X032023Y008403D01*
X032023Y008556D02*
X031870Y008710D01*
X031870Y008863D02*
X031870Y009170D01*
X031870Y009324D02*
X031870Y009554D01*
X031947Y009631D01*
X032254Y009631D01*
X032330Y009554D01*
X032330Y009324D01*
X031870Y009324D01*
X032100Y009017D02*
X032100Y008863D01*
X032330Y008863D02*
X031870Y008863D01*
X032330Y008863D02*
X032330Y009170D01*
X032870Y009170D02*
X032870Y008863D01*
X033330Y008863D01*
X033330Y009170D01*
X033330Y009324D02*
X033330Y009554D01*
X033254Y009631D01*
X032947Y009631D01*
X032870Y009554D01*
X032870Y009324D01*
X033330Y009324D01*
X033100Y009017D02*
X033100Y008863D01*
X033100Y008710D02*
X033023Y008633D01*
X033023Y008403D01*
X032870Y008403D02*
X033330Y008403D01*
X033330Y008633D01*
X033254Y008710D01*
X033100Y008710D01*
X033023Y008556D02*
X032870Y008710D01*
X033870Y008710D02*
X034023Y008556D01*
X034023Y008633D02*
X034023Y008403D01*
X033870Y008403D02*
X034330Y008403D01*
X034330Y008633D01*
X034254Y008710D01*
X034100Y008710D01*
X034023Y008633D01*
X034100Y008863D02*
X034100Y009017D01*
X033870Y008863D02*
X033870Y009170D01*
X033870Y009324D02*
X033870Y009554D01*
X033947Y009631D01*
X034254Y009631D01*
X034330Y009554D01*
X034330Y009324D01*
X033870Y009324D01*
X033870Y008863D02*
X034330Y008863D01*
X034330Y009170D01*
X036540Y013778D02*
X036540Y014238D01*
X036233Y014238D01*
X036387Y014008D02*
X036540Y014008D01*
X036694Y014008D02*
X036694Y013778D01*
X036694Y014008D02*
X036771Y014085D01*
X037001Y014085D01*
X037001Y013778D01*
X037154Y013855D02*
X037154Y014162D01*
X037461Y013855D01*
X037384Y013778D01*
X037231Y013778D01*
X037154Y013855D01*
X037154Y014162D02*
X037231Y014238D01*
X037384Y014238D01*
X037461Y014162D01*
X037461Y013855D01*
X037615Y013855D02*
X037615Y014162D01*
X037922Y013855D01*
X037845Y013778D01*
X037691Y013778D01*
X037615Y013855D01*
X037922Y013855D02*
X037922Y014162D01*
X037845Y014238D01*
X037691Y014238D01*
X037615Y014162D01*
X038075Y013778D02*
X038382Y013778D01*
X038229Y013778D02*
X038229Y014238D01*
X038382Y014085D01*
X037922Y014778D02*
X037615Y014778D01*
X037768Y014778D02*
X037768Y015238D01*
X037922Y015085D01*
X037461Y015162D02*
X037461Y014855D01*
X037154Y015162D01*
X037154Y014855D01*
X037231Y014778D01*
X037384Y014778D01*
X037461Y014855D01*
X037461Y015162D02*
X037384Y015238D01*
X037231Y015238D01*
X037154Y015162D01*
X037001Y015085D02*
X037001Y014855D01*
X036924Y014778D01*
X036694Y014778D01*
X036694Y015085D01*
X036540Y015008D02*
X036387Y015008D01*
X036540Y014778D02*
X036540Y015238D01*
X036233Y015238D01*
X036540Y015778D02*
X036540Y016238D01*
X036233Y016238D01*
X036387Y016008D02*
X036540Y016008D01*
X036694Y016008D02*
X036694Y015778D01*
X036694Y016008D02*
X036771Y016085D01*
X037001Y016085D01*
X037001Y015778D01*
X037154Y015855D02*
X037154Y016162D01*
X037461Y015855D01*
X037384Y015778D01*
X037231Y015778D01*
X037154Y015855D01*
X037154Y016162D02*
X037231Y016238D01*
X037384Y016238D01*
X037461Y016162D01*
X037461Y015855D01*
X037615Y015855D02*
X037615Y016162D01*
X037922Y015855D01*
X037845Y015778D01*
X037691Y015778D01*
X037615Y015855D01*
X037922Y015855D02*
X037922Y016162D01*
X037845Y016238D01*
X037691Y016238D01*
X037615Y016162D01*
X038075Y015778D02*
X038382Y015778D01*
X038229Y015778D02*
X038229Y016238D01*
X038382Y016085D01*
X029382Y015585D02*
X029229Y015738D01*
X029229Y015278D01*
X029382Y015278D02*
X029075Y015278D01*
X028922Y015355D02*
X028615Y015662D01*
X028615Y015355D01*
X028691Y015278D01*
X028845Y015278D01*
X028922Y015355D01*
X028922Y015662D01*
X028845Y015738D01*
X028691Y015738D01*
X028615Y015662D01*
X028461Y015662D02*
X028384Y015738D01*
X028231Y015738D01*
X028154Y015662D01*
X028461Y015355D01*
X028384Y015278D01*
X028231Y015278D01*
X028154Y015355D01*
X028154Y015662D01*
X028001Y015585D02*
X027771Y015585D01*
X027694Y015508D01*
X027694Y015278D01*
X027540Y015278D02*
X027540Y015738D01*
X027233Y015738D01*
X027387Y015508D02*
X027540Y015508D01*
X028001Y015585D02*
X028001Y015278D01*
X028461Y015355D02*
X028461Y015662D01*
X028384Y014238D02*
X028231Y014238D01*
X028154Y014162D01*
X028461Y013855D01*
X028384Y013778D01*
X028231Y013778D01*
X028154Y013855D01*
X028154Y014162D01*
X028001Y014085D02*
X027771Y014085D01*
X027694Y014008D01*
X027694Y013778D01*
X027540Y013778D02*
X027540Y014238D01*
X027233Y014238D01*
X027387Y014008D02*
X027540Y014008D01*
X028001Y014085D02*
X028001Y013778D01*
X028461Y013855D02*
X028461Y014162D01*
X028384Y014238D01*
X028615Y014162D02*
X028691Y014238D01*
X028845Y014238D01*
X028922Y014162D01*
X029075Y014162D02*
X029152Y014238D01*
X029305Y014238D01*
X029382Y014162D01*
X029075Y014162D02*
X029075Y014085D01*
X029382Y013778D01*
X029075Y013778D01*
X028922Y013778D02*
X028615Y014085D01*
X028615Y014162D01*
X028615Y013778D02*
X028922Y013778D01*
D12*
X024100Y016368D02*
X023990Y016258D01*
X024100Y016368D02*
X024100Y016758D01*
X024100Y017148D01*
X023990Y017258D01*
X024000Y016758D02*
X024100Y016758D01*
X023250Y016758D02*
X022950Y016758D01*
X022200Y016758D02*
X022100Y016758D01*
X022100Y017148D01*
X022210Y017258D01*
X022100Y016758D02*
X022100Y016368D01*
X022210Y016258D01*
X028400Y006548D02*
X028400Y003968D01*
X029800Y003968D01*
X029800Y006548D01*
X028400Y006548D01*
X035600Y005864D02*
X035600Y004652D01*
X036112Y004258D02*
X037100Y004258D01*
X037600Y004652D02*
X037600Y005864D01*
X037088Y006258D02*
X036112Y006258D01*
X036100Y005258D02*
X036102Y005302D01*
X036108Y005346D01*
X036118Y005389D01*
X036131Y005431D01*
X036148Y005472D01*
X036169Y005511D01*
X036193Y005548D01*
X036220Y005583D01*
X036250Y005615D01*
X036283Y005645D01*
X036319Y005671D01*
X036356Y005695D01*
X036396Y005714D01*
X036437Y005731D01*
X036480Y005743D01*
X036523Y005752D01*
X036567Y005757D01*
X036611Y005758D01*
X036655Y005755D01*
X036699Y005748D01*
X036742Y005737D01*
X036784Y005723D01*
X036824Y005705D01*
X036863Y005683D01*
X036899Y005659D01*
X036933Y005631D01*
X036965Y005600D01*
X036994Y005566D01*
X037020Y005530D01*
X037042Y005492D01*
X037061Y005452D01*
X037076Y005410D01*
X037088Y005368D01*
X037096Y005324D01*
X037100Y005280D01*
X037100Y005236D01*
X037096Y005192D01*
X037088Y005148D01*
X037076Y005106D01*
X037061Y005064D01*
X037042Y005024D01*
X037020Y004986D01*
X036994Y004950D01*
X036965Y004916D01*
X036933Y004885D01*
X036899Y004857D01*
X036863Y004833D01*
X036824Y004811D01*
X036784Y004793D01*
X036742Y004779D01*
X036699Y004768D01*
X036655Y004761D01*
X036611Y004758D01*
X036567Y004759D01*
X036523Y004764D01*
X036480Y004773D01*
X036437Y004785D01*
X036396Y004802D01*
X036356Y004821D01*
X036319Y004845D01*
X036283Y004871D01*
X036250Y004901D01*
X036220Y004933D01*
X036193Y004968D01*
X036169Y005005D01*
X036148Y005044D01*
X036131Y005085D01*
X036118Y005127D01*
X036108Y005170D01*
X036102Y005214D01*
X036100Y005258D01*
X008545Y003652D02*
X008545Y002864D01*
X007994Y002864D01*
X007994Y002652D02*
X008545Y002652D01*
X008545Y001864D01*
X007994Y001864D01*
X007994Y001652D02*
X008545Y001652D01*
X008545Y000864D01*
X007994Y000864D01*
X007718Y000982D02*
X007718Y001258D01*
X007482Y001494D01*
X007482Y001022D01*
X007718Y001258D01*
X007718Y001534D01*
X007718Y001982D02*
X007718Y002258D01*
X007482Y002494D01*
X007482Y002022D01*
X007718Y002258D01*
X007718Y002534D01*
X007718Y002982D02*
X007718Y003258D01*
X007482Y003494D01*
X007482Y003022D01*
X007718Y003258D01*
X007718Y003534D01*
X007994Y003652D02*
X008545Y003652D01*
X007206Y003652D02*
X006655Y003652D01*
X006655Y002864D01*
X007206Y002864D01*
X007206Y002652D02*
X006655Y002652D01*
X006655Y001864D01*
X007206Y001864D01*
X007206Y001652D02*
X006655Y001652D01*
X006655Y000864D01*
X007206Y000864D01*
D13*
X007267Y001803D02*
X007242Y001828D01*
X007242Y001853D01*
X007267Y001878D01*
X007342Y001878D01*
X007342Y001828D01*
X007317Y001803D01*
X007267Y001803D01*
X007342Y001878D02*
X007292Y001928D01*
X007242Y001953D01*
X007390Y001928D02*
X007490Y001828D01*
X007465Y001803D01*
X007415Y001803D01*
X007390Y001828D01*
X007390Y001928D01*
X007415Y001953D01*
X007465Y001953D01*
X007490Y001928D01*
X007490Y001828D01*
X007537Y001803D02*
X007637Y001803D01*
X007537Y001903D01*
X007537Y001928D01*
X007562Y001953D01*
X007612Y001953D01*
X007637Y001928D01*
X007734Y001953D02*
X007734Y001803D01*
X007784Y001803D02*
X007684Y001803D01*
X007784Y001903D02*
X007734Y001953D01*
X007832Y001928D02*
X007857Y001953D01*
X007932Y001953D01*
X007932Y001803D01*
X007857Y001803D01*
X007832Y001828D01*
X007832Y001928D01*
X007979Y001803D02*
X008079Y001803D01*
X008029Y001803D02*
X008029Y001953D01*
X008079Y001903D01*
X008126Y001903D02*
X008151Y001878D01*
X008201Y001878D01*
X008226Y001903D01*
X008226Y001928D01*
X008201Y001953D01*
X008151Y001953D01*
X008126Y001928D01*
X008126Y001903D01*
X008151Y001878D02*
X008126Y001853D01*
X008126Y001828D01*
X008151Y001803D01*
X008201Y001803D01*
X008226Y001828D01*
X008226Y001853D01*
X008201Y001878D01*
X008274Y001878D02*
X008274Y001828D01*
X008299Y001803D01*
X008349Y001803D01*
X008374Y001828D01*
X008374Y001878D02*
X008324Y001903D01*
X008299Y001903D01*
X008274Y001878D01*
X008274Y001953D02*
X008374Y001953D01*
X008374Y001878D01*
X008421Y001803D02*
X008421Y001953D01*
X008521Y001953D02*
X008421Y001803D01*
X008521Y001803D02*
X008521Y001953D01*
X008618Y001953D02*
X008618Y001803D01*
X008668Y001803D02*
X008568Y001803D01*
X008668Y001903D02*
X008618Y001953D01*
X008618Y002803D02*
X008618Y002953D01*
X008668Y002903D01*
X008668Y002803D02*
X008568Y002803D01*
X008521Y002803D02*
X008521Y002953D01*
X008421Y002803D01*
X008421Y002953D01*
X008374Y002953D02*
X008374Y002878D01*
X008324Y002903D01*
X008299Y002903D01*
X008274Y002878D01*
X008274Y002828D01*
X008299Y002803D01*
X008349Y002803D01*
X008374Y002828D01*
X008374Y002953D02*
X008274Y002953D01*
X008226Y002928D02*
X008226Y002903D01*
X008201Y002878D01*
X008151Y002878D01*
X008126Y002853D01*
X008126Y002828D01*
X008151Y002803D01*
X008201Y002803D01*
X008226Y002828D01*
X008226Y002853D01*
X008201Y002878D01*
X008151Y002878D02*
X008126Y002903D01*
X008126Y002928D01*
X008151Y002953D01*
X008201Y002953D01*
X008226Y002928D01*
X008079Y002903D02*
X008029Y002953D01*
X008029Y002803D01*
X008079Y002803D02*
X007979Y002803D01*
X007932Y002803D02*
X007857Y002803D01*
X007832Y002828D01*
X007832Y002928D01*
X007857Y002953D01*
X007932Y002953D01*
X007932Y002803D01*
X007784Y002803D02*
X007684Y002803D01*
X007637Y002803D02*
X007537Y002903D01*
X007537Y002928D01*
X007562Y002953D01*
X007612Y002953D01*
X007637Y002928D01*
X007734Y002953D02*
X007734Y002803D01*
X007637Y002803D02*
X007537Y002803D01*
X007490Y002828D02*
X007390Y002928D01*
X007390Y002828D01*
X007415Y002803D01*
X007465Y002803D01*
X007490Y002828D01*
X007490Y002928D01*
X007465Y002953D01*
X007415Y002953D01*
X007390Y002928D01*
X007342Y002878D02*
X007267Y002878D01*
X007242Y002853D01*
X007242Y002828D01*
X007267Y002803D01*
X007317Y002803D01*
X007342Y002828D01*
X007342Y002878D01*
X007292Y002928D01*
X007242Y002953D01*
X007734Y002953D02*
X007784Y002903D01*
X007784Y003803D02*
X007684Y003803D01*
X007637Y003803D02*
X007537Y003903D01*
X007537Y003928D01*
X007562Y003953D01*
X007612Y003953D01*
X007637Y003928D01*
X007734Y003953D02*
X007734Y003803D01*
X007637Y003803D02*
X007537Y003803D01*
X007490Y003828D02*
X007390Y003928D01*
X007390Y003828D01*
X007415Y003803D01*
X007465Y003803D01*
X007490Y003828D01*
X007490Y003928D01*
X007465Y003953D01*
X007415Y003953D01*
X007390Y003928D01*
X007342Y003878D02*
X007267Y003878D01*
X007242Y003853D01*
X007242Y003828D01*
X007267Y003803D01*
X007317Y003803D01*
X007342Y003828D01*
X007342Y003878D01*
X007292Y003928D01*
X007242Y003953D01*
X007734Y003953D02*
X007784Y003903D01*
X007832Y003928D02*
X007857Y003953D01*
X007932Y003953D01*
X007932Y003803D01*
X007857Y003803D01*
X007832Y003828D01*
X007832Y003928D01*
X007979Y003803D02*
X008079Y003803D01*
X008029Y003803D02*
X008029Y003953D01*
X008079Y003903D01*
X008126Y003903D02*
X008151Y003878D01*
X008201Y003878D01*
X008226Y003903D01*
X008226Y003928D01*
X008201Y003953D01*
X008151Y003953D01*
X008126Y003928D01*
X008126Y003903D01*
X008151Y003878D02*
X008126Y003853D01*
X008126Y003828D01*
X008151Y003803D01*
X008201Y003803D01*
X008226Y003828D01*
X008226Y003853D01*
X008201Y003878D01*
X008274Y003878D02*
X008274Y003828D01*
X008299Y003803D01*
X008349Y003803D01*
X008374Y003828D01*
X008374Y003878D02*
X008324Y003903D01*
X008299Y003903D01*
X008274Y003878D01*
X008274Y003953D02*
X008374Y003953D01*
X008374Y003878D01*
X008421Y003803D02*
X008421Y003953D01*
X008521Y003953D02*
X008421Y003803D01*
X008521Y003803D02*
X008521Y003953D01*
X008618Y003953D02*
X008618Y003803D01*
X008668Y003803D02*
X008568Y003803D01*
X008668Y003903D02*
X008618Y003953D01*
X035755Y005601D02*
X035755Y005627D01*
X035780Y005652D01*
X035905Y005652D01*
X035905Y005576D01*
X035880Y005551D01*
X035830Y005551D01*
X035805Y005576D01*
X035805Y005652D01*
X035830Y005699D02*
X035805Y005724D01*
X035805Y005799D01*
X035905Y005799D01*
X035905Y005846D02*
X035805Y005846D01*
X035855Y005846D02*
X035905Y005896D01*
X035905Y005921D01*
X035880Y005969D02*
X035905Y005994D01*
X035905Y006044D01*
X035880Y006069D01*
X035855Y006069D01*
X035855Y005969D01*
X035830Y005969D02*
X035880Y005969D01*
X035830Y005969D02*
X035805Y005994D01*
X035805Y006044D01*
X035830Y005699D02*
X035905Y005699D01*
X035805Y005503D02*
X035805Y005453D01*
X035805Y005478D02*
X035905Y005478D01*
X035905Y005453D01*
X035880Y005405D02*
X035880Y005355D01*
X035880Y005308D02*
X035805Y005308D01*
X035805Y005380D02*
X035930Y005380D01*
X035955Y005405D01*
X035955Y005478D02*
X035980Y005478D01*
X035880Y005308D02*
X035905Y005283D01*
X035905Y005208D01*
X035805Y005208D01*
X035830Y005160D02*
X035880Y005160D01*
X035905Y005135D01*
X035905Y005085D01*
X035880Y005060D01*
X035830Y005060D01*
X035805Y005085D01*
X035805Y005135D01*
X035830Y005160D01*
X035830Y005013D02*
X035805Y004988D01*
X035805Y004938D01*
X035830Y004913D01*
X035930Y004913D01*
X035955Y004938D01*
X035955Y004988D01*
X035930Y005013D01*
D14*
X034462Y006835D02*
X034462Y007082D01*
X034585Y006958D02*
X034338Y006958D01*
X033585Y006958D02*
X033338Y006958D01*
X033462Y006835D02*
X033462Y007082D01*
X032585Y006958D02*
X032338Y006958D01*
X032462Y006835D02*
X032462Y007082D01*
D15*
X032336Y007817D03*
X031864Y007817D03*
X032864Y007817D03*
X033336Y007817D03*
X033864Y007817D03*
X034336Y007817D03*
D16*
X034100Y007817D03*
X033100Y007817D03*
X032100Y007817D03*
D17*
X023720Y013008D02*
X022480Y013008D01*
X022457Y013010D01*
X022434Y013015D01*
X022412Y013024D01*
X022392Y013037D01*
X022374Y013052D01*
X022359Y013070D01*
X022346Y013090D01*
X022337Y013112D01*
X022332Y013135D01*
X022330Y013158D01*
X023720Y013008D02*
X023743Y013010D01*
X023766Y013015D01*
X023788Y013024D01*
X023808Y013037D01*
X023826Y013052D01*
X023841Y013070D01*
X023854Y013090D01*
X023863Y013112D01*
X023868Y013135D01*
X023870Y013158D01*
X023870Y014858D02*
X023868Y014881D01*
X023863Y014904D01*
X023854Y014926D01*
X023841Y014946D01*
X023826Y014964D01*
X023808Y014979D01*
X023788Y014992D01*
X023766Y015001D01*
X023743Y015006D01*
X023720Y015008D01*
X023300Y015008D01*
X022900Y015008D01*
X022480Y015008D01*
X022457Y015006D01*
X022434Y015001D01*
X022412Y014992D01*
X022392Y014979D01*
X022374Y014964D01*
X022359Y014946D01*
X022346Y014926D01*
X022337Y014904D01*
X022332Y014881D01*
X022330Y014858D01*
X022900Y015008D02*
X022902Y014981D01*
X022907Y014954D01*
X022917Y014928D01*
X022929Y014904D01*
X022945Y014882D01*
X022963Y014862D01*
X022985Y014845D01*
X023008Y014830D01*
X023033Y014820D01*
X023059Y014812D01*
X023086Y014808D01*
X023114Y014808D01*
X023141Y014812D01*
X023167Y014820D01*
X023192Y014830D01*
X023215Y014845D01*
X023237Y014862D01*
X023255Y014882D01*
X023271Y014904D01*
X023283Y014928D01*
X023293Y014954D01*
X023298Y014981D01*
X023300Y015008D01*
D18*
X023730Y015008D02*
X023730Y013008D01*
D19*
X023375Y012917D02*
X023375Y012767D01*
X023300Y012691D01*
X023225Y012691D01*
X023150Y012767D01*
X023150Y012917D01*
X023075Y012992D01*
X023000Y012992D01*
X022925Y012917D01*
X022925Y012767D01*
X023000Y012691D01*
X023075Y012691D01*
X023150Y012767D01*
X023150Y012917D02*
X023225Y012992D01*
X023300Y012992D01*
X023375Y012917D01*
X023375Y013152D02*
X023375Y013377D01*
X023300Y013452D01*
X023225Y013452D01*
X023150Y013377D01*
X023150Y013152D01*
X022925Y013152D02*
X023375Y013152D01*
X023150Y013377D02*
X023075Y013452D01*
X023000Y013452D01*
X022925Y013377D01*
X022925Y013152D01*
X022925Y012531D02*
X022925Y012231D01*
X022925Y012381D02*
X023375Y012381D01*
X023225Y012231D01*
X023300Y012071D02*
X023375Y011996D01*
X023375Y011846D01*
X023300Y011771D01*
X023225Y011771D01*
X023150Y011846D01*
X023150Y011996D01*
X023075Y012071D01*
X023000Y012071D01*
X022925Y011996D01*
X022925Y011846D01*
X023000Y011771D01*
X023000Y011611D02*
X023300Y011611D01*
X023375Y011535D01*
X023375Y011310D01*
X022925Y011310D01*
X022925Y011535D01*
X023000Y011611D01*
X022925Y013612D02*
X023225Y013912D01*
X023300Y013912D01*
X023375Y013837D01*
X023375Y013687D01*
X023300Y013612D01*
X022925Y013612D02*
X022925Y013912D01*
X023000Y014073D02*
X023300Y014373D01*
X023000Y014373D01*
X022925Y014298D01*
X022925Y014148D01*
X023000Y014073D01*
X023300Y014073D01*
X023375Y014148D01*
X023375Y014298D01*
X023300Y014373D01*
M02*
