G75*
%MOIN*%
%OFA0B0*%
%FSLAX24Y24*%
%IPPOS*%
%LPD*%
%AMOC8*
5,1,8,0,0,1.08239X$1,22.5*
%
%ADD10R,0.0709X0.0630*%
%ADD11R,0.0472X0.0551*%
%ADD12R,0.0630X0.0512*%
%ADD13R,0.0591X0.0512*%
%ADD14R,0.0472X0.0472*%
%ADD15R,0.0750X0.1250*%
%ADD16R,0.0630X0.0709*%
%ADD17R,0.0800X0.0260*%
%ADD18R,0.0551X0.0472*%
%ADD19R,0.0551X0.1378*%
D10*
X009600Y001707D03*
X009600Y002809D03*
X011100Y002809D03*
X011100Y001707D03*
X009600Y006207D03*
X009600Y007309D03*
X022100Y002809D03*
X022100Y001707D03*
D11*
X007009Y001258D03*
X008191Y001258D03*
X008191Y002258D03*
X007009Y002258D03*
X007009Y003258D03*
X008191Y003258D03*
D12*
X020600Y002632D03*
X020600Y001884D03*
D13*
X032100Y002384D03*
X032100Y003132D03*
X033100Y003132D03*
X033100Y002384D03*
X033100Y005384D03*
X032100Y005384D03*
X032100Y006132D03*
X033100Y006132D03*
X034100Y006132D03*
X034100Y005384D03*
D14*
X034100Y007345D03*
X033100Y007345D03*
X032100Y007345D03*
X032100Y008171D03*
X033100Y008171D03*
X034100Y008171D03*
D15*
X035725Y006633D03*
X037475Y006633D03*
X037475Y003883D03*
X035725Y003883D03*
D16*
X036049Y013258D03*
X036049Y014258D03*
X036049Y015258D03*
X037151Y015258D03*
X037151Y014258D03*
X037151Y013258D03*
X028151Y013258D03*
X027049Y013258D03*
X027049Y014758D03*
X028151Y014758D03*
D17*
X024310Y014758D03*
X024310Y014258D03*
X024310Y013758D03*
X024310Y013258D03*
X021890Y013258D03*
X021890Y013758D03*
X021890Y014258D03*
X021890Y014758D03*
D18*
X030320Y006168D03*
X030320Y005258D03*
X030320Y004348D03*
D19*
X027880Y005258D03*
M02*
