G75*
%MOIN*%
%OFA0B0*%
%FSLAX24Y24*%
%IPPOS*%
%LPD*%
%AMOC8*
5,1,8,0,0,1.08239X$1,22.5*
%
%ADD10C,0.0000*%
%ADD11C,0.0310*%
%ADD12R,0.0709X0.0630*%
%ADD13R,0.0472X0.0551*%
%ADD14R,0.0630X0.0512*%
%ADD15R,0.0591X0.0512*%
%ADD16R,0.0472X0.0472*%
%ADD17R,0.0750X0.1250*%
%ADD18C,0.0600*%
%ADD19R,0.0630X0.0709*%
%ADD20R,0.0800X0.0260*%
%ADD21R,0.0551X0.0472*%
%ADD22R,0.0551X0.1378*%
%ADD23C,0.0740*%
%ADD24C,0.0240*%
%ADD25C,0.0240*%
%ADD26C,0.0160*%
%ADD27C,0.0180*%
%ADD28C,0.0120*%
D10*
X003100Y000158D02*
X003100Y018454D01*
X039170Y018454D01*
X039170Y000158D01*
X003100Y000158D01*
X004923Y005892D02*
X004925Y005918D01*
X004931Y005944D01*
X004941Y005969D01*
X004954Y005992D01*
X004970Y006012D01*
X004990Y006030D01*
X005012Y006045D01*
X005035Y006057D01*
X005061Y006065D01*
X005087Y006069D01*
X005113Y006069D01*
X005139Y006065D01*
X005165Y006057D01*
X005189Y006045D01*
X005210Y006030D01*
X005230Y006012D01*
X005246Y005992D01*
X005259Y005969D01*
X005269Y005944D01*
X005275Y005918D01*
X005277Y005892D01*
X005275Y005866D01*
X005269Y005840D01*
X005259Y005815D01*
X005246Y005792D01*
X005230Y005772D01*
X005210Y005754D01*
X005188Y005739D01*
X005165Y005727D01*
X005139Y005719D01*
X005113Y005715D01*
X005087Y005715D01*
X005061Y005719D01*
X005035Y005727D01*
X005011Y005739D01*
X004990Y005754D01*
X004970Y005772D01*
X004954Y005792D01*
X004941Y005815D01*
X004931Y005840D01*
X004925Y005866D01*
X004923Y005892D01*
X004923Y007624D02*
X004925Y007650D01*
X004931Y007676D01*
X004941Y007701D01*
X004954Y007724D01*
X004970Y007744D01*
X004990Y007762D01*
X005012Y007777D01*
X005035Y007789D01*
X005061Y007797D01*
X005087Y007801D01*
X005113Y007801D01*
X005139Y007797D01*
X005165Y007789D01*
X005189Y007777D01*
X005210Y007762D01*
X005230Y007744D01*
X005246Y007724D01*
X005259Y007701D01*
X005269Y007676D01*
X005275Y007650D01*
X005277Y007624D01*
X005275Y007598D01*
X005269Y007572D01*
X005259Y007547D01*
X005246Y007524D01*
X005230Y007504D01*
X005210Y007486D01*
X005188Y007471D01*
X005165Y007459D01*
X005139Y007451D01*
X005113Y007447D01*
X005087Y007447D01*
X005061Y007451D01*
X005035Y007459D01*
X005011Y007471D01*
X004990Y007486D01*
X004970Y007504D01*
X004954Y007524D01*
X004941Y007547D01*
X004931Y007572D01*
X004925Y007598D01*
X004923Y007624D01*
X012982Y009758D02*
X012984Y009779D01*
X012990Y009799D01*
X012999Y009819D01*
X013011Y009836D01*
X013026Y009850D01*
X013044Y009862D01*
X013064Y009870D01*
X013084Y009875D01*
X013105Y009876D01*
X013126Y009873D01*
X013146Y009867D01*
X013165Y009856D01*
X013182Y009843D01*
X013195Y009827D01*
X013206Y009809D01*
X013214Y009789D01*
X013218Y009769D01*
X013218Y009747D01*
X013214Y009727D01*
X013206Y009707D01*
X013195Y009689D01*
X013182Y009673D01*
X013165Y009660D01*
X013146Y009649D01*
X013126Y009643D01*
X013105Y009640D01*
X013084Y009641D01*
X013064Y009646D01*
X013044Y009654D01*
X013026Y009666D01*
X013011Y009680D01*
X012999Y009697D01*
X012990Y009717D01*
X012984Y009737D01*
X012982Y009758D01*
X013883Y003258D02*
X013885Y003301D01*
X013891Y003344D01*
X013901Y003386D01*
X013915Y003427D01*
X013932Y003466D01*
X013953Y003504D01*
X013977Y003539D01*
X014005Y003573D01*
X014035Y003603D01*
X014069Y003631D01*
X014104Y003655D01*
X014142Y003676D01*
X014181Y003693D01*
X014222Y003707D01*
X014264Y003717D01*
X014307Y003723D01*
X014350Y003725D01*
X014393Y003723D01*
X014436Y003717D01*
X014478Y003707D01*
X014519Y003693D01*
X014558Y003676D01*
X014596Y003655D01*
X014631Y003631D01*
X014665Y003603D01*
X014695Y003573D01*
X014723Y003539D01*
X014747Y003504D01*
X014768Y003466D01*
X014785Y003427D01*
X014799Y003386D01*
X014809Y003344D01*
X014815Y003301D01*
X014817Y003258D01*
X014815Y003215D01*
X014809Y003172D01*
X014799Y003130D01*
X014785Y003089D01*
X014768Y003050D01*
X014747Y003012D01*
X014723Y002977D01*
X014695Y002943D01*
X014665Y002913D01*
X014631Y002885D01*
X014596Y002861D01*
X014558Y002840D01*
X014519Y002823D01*
X014478Y002809D01*
X014436Y002799D01*
X014393Y002793D01*
X014350Y002791D01*
X014307Y002793D01*
X014264Y002799D01*
X014222Y002809D01*
X014181Y002823D01*
X014142Y002840D01*
X014104Y002861D01*
X014069Y002885D01*
X014035Y002913D01*
X014005Y002943D01*
X013977Y002977D01*
X013953Y003012D01*
X013932Y003050D01*
X013915Y003089D01*
X013901Y003130D01*
X013891Y003172D01*
X013885Y003215D01*
X013883Y003258D01*
X013425Y002658D02*
X013427Y002684D01*
X013433Y002710D01*
X013442Y002734D01*
X013455Y002757D01*
X013472Y002777D01*
X013491Y002795D01*
X013513Y002810D01*
X013536Y002821D01*
X013561Y002829D01*
X013587Y002833D01*
X013613Y002833D01*
X013639Y002829D01*
X013664Y002821D01*
X013688Y002810D01*
X013709Y002795D01*
X013728Y002777D01*
X013745Y002757D01*
X013758Y002734D01*
X013767Y002710D01*
X013773Y002684D01*
X013775Y002658D01*
X013773Y002632D01*
X013767Y002606D01*
X013758Y002582D01*
X013745Y002559D01*
X013728Y002539D01*
X013709Y002521D01*
X013687Y002506D01*
X013664Y002495D01*
X013639Y002487D01*
X013613Y002483D01*
X013587Y002483D01*
X013561Y002487D01*
X013536Y002495D01*
X013512Y002506D01*
X013491Y002521D01*
X013472Y002539D01*
X013455Y002559D01*
X013442Y002582D01*
X013433Y002606D01*
X013427Y002632D01*
X013425Y002658D01*
X013425Y001858D02*
X013427Y001884D01*
X013433Y001910D01*
X013442Y001934D01*
X013455Y001957D01*
X013472Y001977D01*
X013491Y001995D01*
X013513Y002010D01*
X013536Y002021D01*
X013561Y002029D01*
X013587Y002033D01*
X013613Y002033D01*
X013639Y002029D01*
X013664Y002021D01*
X013688Y002010D01*
X013709Y001995D01*
X013728Y001977D01*
X013745Y001957D01*
X013758Y001934D01*
X013767Y001910D01*
X013773Y001884D01*
X013775Y001858D01*
X013773Y001832D01*
X013767Y001806D01*
X013758Y001782D01*
X013745Y001759D01*
X013728Y001739D01*
X013709Y001721D01*
X013687Y001706D01*
X013664Y001695D01*
X013639Y001687D01*
X013613Y001683D01*
X013587Y001683D01*
X013561Y001687D01*
X013536Y001695D01*
X013512Y001706D01*
X013491Y001721D01*
X013472Y001739D01*
X013455Y001759D01*
X013442Y001782D01*
X013433Y001806D01*
X013427Y001832D01*
X013425Y001858D01*
X013883Y001258D02*
X013885Y001301D01*
X013891Y001344D01*
X013901Y001386D01*
X013915Y001427D01*
X013932Y001466D01*
X013953Y001504D01*
X013977Y001539D01*
X014005Y001573D01*
X014035Y001603D01*
X014069Y001631D01*
X014104Y001655D01*
X014142Y001676D01*
X014181Y001693D01*
X014222Y001707D01*
X014264Y001717D01*
X014307Y001723D01*
X014350Y001725D01*
X014393Y001723D01*
X014436Y001717D01*
X014478Y001707D01*
X014519Y001693D01*
X014558Y001676D01*
X014596Y001655D01*
X014631Y001631D01*
X014665Y001603D01*
X014695Y001573D01*
X014723Y001539D01*
X014747Y001504D01*
X014768Y001466D01*
X014785Y001427D01*
X014799Y001386D01*
X014809Y001344D01*
X014815Y001301D01*
X014817Y001258D01*
X014815Y001215D01*
X014809Y001172D01*
X014799Y001130D01*
X014785Y001089D01*
X014768Y001050D01*
X014747Y001012D01*
X014723Y000977D01*
X014695Y000943D01*
X014665Y000913D01*
X014631Y000885D01*
X014596Y000861D01*
X014558Y000840D01*
X014519Y000823D01*
X014478Y000809D01*
X014436Y000799D01*
X014393Y000793D01*
X014350Y000791D01*
X014307Y000793D01*
X014264Y000799D01*
X014222Y000809D01*
X014181Y000823D01*
X014142Y000840D01*
X014104Y000861D01*
X014069Y000885D01*
X014035Y000913D01*
X014005Y000943D01*
X013977Y000977D01*
X013953Y001012D01*
X013932Y001050D01*
X013915Y001089D01*
X013901Y001130D01*
X013891Y001172D01*
X013885Y001215D01*
X013883Y001258D01*
X015133Y001258D02*
X015135Y001301D01*
X015141Y001344D01*
X015151Y001386D01*
X015165Y001427D01*
X015182Y001466D01*
X015203Y001504D01*
X015227Y001539D01*
X015255Y001573D01*
X015285Y001603D01*
X015319Y001631D01*
X015354Y001655D01*
X015392Y001676D01*
X015431Y001693D01*
X015472Y001707D01*
X015514Y001717D01*
X015557Y001723D01*
X015600Y001725D01*
X015643Y001723D01*
X015686Y001717D01*
X015728Y001707D01*
X015769Y001693D01*
X015808Y001676D01*
X015846Y001655D01*
X015881Y001631D01*
X015915Y001603D01*
X015945Y001573D01*
X015973Y001539D01*
X015997Y001504D01*
X016018Y001466D01*
X016035Y001427D01*
X016049Y001386D01*
X016059Y001344D01*
X016065Y001301D01*
X016067Y001258D01*
X016065Y001215D01*
X016059Y001172D01*
X016049Y001130D01*
X016035Y001089D01*
X016018Y001050D01*
X015997Y001012D01*
X015973Y000977D01*
X015945Y000943D01*
X015915Y000913D01*
X015881Y000885D01*
X015846Y000861D01*
X015808Y000840D01*
X015769Y000823D01*
X015728Y000809D01*
X015686Y000799D01*
X015643Y000793D01*
X015600Y000791D01*
X015557Y000793D01*
X015514Y000799D01*
X015472Y000809D01*
X015431Y000823D01*
X015392Y000840D01*
X015354Y000861D01*
X015319Y000885D01*
X015285Y000913D01*
X015255Y000943D01*
X015227Y000977D01*
X015203Y001012D01*
X015182Y001050D01*
X015165Y001089D01*
X015151Y001130D01*
X015141Y001172D01*
X015135Y001215D01*
X015133Y001258D01*
X015425Y002258D02*
X015427Y002284D01*
X015433Y002310D01*
X015442Y002334D01*
X015455Y002357D01*
X015472Y002377D01*
X015491Y002395D01*
X015513Y002410D01*
X015536Y002421D01*
X015561Y002429D01*
X015587Y002433D01*
X015613Y002433D01*
X015639Y002429D01*
X015664Y002421D01*
X015688Y002410D01*
X015709Y002395D01*
X015728Y002377D01*
X015745Y002357D01*
X015758Y002334D01*
X015767Y002310D01*
X015773Y002284D01*
X015775Y002258D01*
X015773Y002232D01*
X015767Y002206D01*
X015758Y002182D01*
X015745Y002159D01*
X015728Y002139D01*
X015709Y002121D01*
X015687Y002106D01*
X015664Y002095D01*
X015639Y002087D01*
X015613Y002083D01*
X015587Y002083D01*
X015561Y002087D01*
X015536Y002095D01*
X015512Y002106D01*
X015491Y002121D01*
X015472Y002139D01*
X015455Y002159D01*
X015442Y002182D01*
X015433Y002206D01*
X015427Y002232D01*
X015425Y002258D01*
X015133Y003258D02*
X015135Y003301D01*
X015141Y003344D01*
X015151Y003386D01*
X015165Y003427D01*
X015182Y003466D01*
X015203Y003504D01*
X015227Y003539D01*
X015255Y003573D01*
X015285Y003603D01*
X015319Y003631D01*
X015354Y003655D01*
X015392Y003676D01*
X015431Y003693D01*
X015472Y003707D01*
X015514Y003717D01*
X015557Y003723D01*
X015600Y003725D01*
X015643Y003723D01*
X015686Y003717D01*
X015728Y003707D01*
X015769Y003693D01*
X015808Y003676D01*
X015846Y003655D01*
X015881Y003631D01*
X015915Y003603D01*
X015945Y003573D01*
X015973Y003539D01*
X015997Y003504D01*
X016018Y003466D01*
X016035Y003427D01*
X016049Y003386D01*
X016059Y003344D01*
X016065Y003301D01*
X016067Y003258D01*
X016065Y003215D01*
X016059Y003172D01*
X016049Y003130D01*
X016035Y003089D01*
X016018Y003050D01*
X015997Y003012D01*
X015973Y002977D01*
X015945Y002943D01*
X015915Y002913D01*
X015881Y002885D01*
X015846Y002861D01*
X015808Y002840D01*
X015769Y002823D01*
X015728Y002809D01*
X015686Y002799D01*
X015643Y002793D01*
X015600Y002791D01*
X015557Y002793D01*
X015514Y002799D01*
X015472Y002809D01*
X015431Y002823D01*
X015392Y002840D01*
X015354Y002861D01*
X015319Y002885D01*
X015285Y002913D01*
X015255Y002943D01*
X015227Y002977D01*
X015203Y003012D01*
X015182Y003050D01*
X015165Y003089D01*
X015151Y003130D01*
X015141Y003172D01*
X015135Y003215D01*
X015133Y003258D01*
D11*
X015100Y002508D03*
X014600Y002508D03*
X014100Y002508D03*
X014100Y002008D03*
X014600Y002008D03*
X015100Y002008D03*
D12*
X011100Y001707D03*
X011100Y002809D03*
X009600Y002809D03*
X009600Y001707D03*
X009600Y006207D03*
X009600Y007309D03*
X022100Y002809D03*
X022100Y001707D03*
D13*
X008191Y001258D03*
X007009Y001258D03*
X007009Y002258D03*
X008191Y002258D03*
X008191Y003258D03*
X007009Y003258D03*
D14*
X020600Y002632D03*
X020600Y001884D03*
D15*
X032100Y002384D03*
X032100Y003132D03*
X033100Y003132D03*
X033100Y002384D03*
X033100Y005384D03*
X032100Y005384D03*
X032100Y006132D03*
X033100Y006132D03*
X034100Y006132D03*
X034100Y005384D03*
D16*
X034100Y007345D03*
X033100Y007345D03*
X032100Y007345D03*
X032100Y008171D03*
X033100Y008171D03*
X034100Y008171D03*
D17*
X035725Y006633D03*
X037475Y006633D03*
X037475Y003883D03*
X035725Y003883D03*
D18*
X027650Y003058D02*
X027650Y002458D01*
X026550Y002458D02*
X026550Y003058D01*
X027050Y016458D02*
X027050Y017058D01*
X028150Y017058D02*
X028150Y016458D01*
X031550Y016458D02*
X031550Y017058D01*
X032650Y017058D02*
X032650Y016458D01*
X036050Y016458D02*
X036050Y017058D01*
X037150Y017058D02*
X037150Y016458D01*
X023650Y016458D02*
X023650Y017058D01*
X022550Y017058D02*
X022550Y016458D01*
X004900Y002808D02*
X004300Y002808D01*
X004300Y001708D02*
X004900Y001708D01*
D19*
X027049Y013258D03*
X028151Y013258D03*
X028151Y014758D03*
X027049Y014758D03*
X036049Y014258D03*
X036049Y013258D03*
X037151Y013258D03*
X037151Y014258D03*
X037151Y015258D03*
X036049Y015258D03*
D20*
X024310Y014758D03*
X024310Y014258D03*
X024310Y013758D03*
X024310Y013258D03*
X021890Y013258D03*
X021890Y013758D03*
X021890Y014258D03*
X021890Y014758D03*
D21*
X030320Y006168D03*
X030320Y005258D03*
X030320Y004348D03*
D22*
X027880Y005258D03*
D23*
X019600Y016388D02*
X019600Y017128D01*
X018600Y017128D02*
X018600Y016388D01*
X017600Y016388D02*
X017600Y017128D01*
X015100Y017128D02*
X015100Y016388D01*
X014100Y016388D02*
X014100Y017128D01*
X013100Y017128D02*
X013100Y016388D01*
X010600Y016388D02*
X010600Y017128D01*
X009600Y017128D02*
X009600Y016388D01*
X008600Y016388D02*
X008600Y017128D01*
X006100Y017128D02*
X006100Y016388D01*
X005100Y016388D02*
X005100Y017128D01*
X004100Y017128D02*
X004100Y016388D01*
D24*
X004140Y016698D02*
X004100Y016758D01*
X004140Y016698D02*
X004140Y015818D01*
X007660Y015818D01*
X008600Y016758D01*
X009820Y017738D02*
X007100Y017738D01*
X006140Y016778D01*
X006100Y016758D01*
X009820Y017738D02*
X010540Y017018D01*
X010540Y016778D01*
X010600Y016758D01*
X010700Y016698D01*
X011580Y015818D01*
X015100Y015818D01*
X015100Y016758D01*
X017600Y016758D02*
X017660Y016698D01*
X017660Y016538D01*
X021260Y012938D01*
X022700Y012938D01*
X023740Y013978D01*
X023900Y013818D01*
X024220Y013818D01*
X024310Y013758D01*
X024380Y013738D01*
X026540Y013738D01*
X026620Y013818D01*
X027020Y013818D01*
X032380Y013818D01*
X033660Y015098D01*
X035500Y015098D01*
X035500Y015018D01*
X035500Y015098D02*
X035980Y015098D01*
X036049Y015258D01*
X036060Y015258D01*
X036060Y014298D01*
X036049Y014258D01*
X037180Y016698D02*
X037150Y016758D01*
X037100Y016858D01*
X036380Y017578D01*
X033420Y017578D01*
X032700Y016858D01*
X032650Y016758D01*
X032620Y016698D01*
X031900Y015978D01*
X028940Y015978D01*
X028220Y016698D01*
X028150Y016758D01*
X028060Y016778D01*
X027260Y017578D01*
X023420Y017578D01*
X022620Y016778D01*
X022550Y016758D01*
X026540Y013738D02*
X027020Y013258D01*
X027049Y013258D01*
X037180Y016698D02*
X038140Y016698D01*
X038140Y005978D01*
X037660Y005498D01*
X036060Y005498D01*
X035180Y004618D01*
X031020Y004618D01*
X030380Y005258D01*
X030320Y005258D01*
X030320Y004348D02*
X030220Y004298D01*
X027100Y004298D01*
X026060Y003258D01*
X024300Y003258D01*
X022540Y003258D01*
X022140Y002858D01*
X022100Y002809D01*
X022220Y003098D01*
X020860Y003098D01*
X016060Y006778D02*
X010220Y006778D01*
X009660Y006218D01*
X009600Y006207D01*
X009500Y006138D01*
X008860Y005498D01*
X006940Y005498D01*
X004620Y003178D01*
X004620Y002858D01*
X004600Y002808D01*
X004600Y001708D02*
X004620Y001658D01*
X006540Y001658D01*
X006940Y001258D01*
X007009Y001258D01*
X009600Y002809D02*
X009660Y002858D01*
X011020Y002858D01*
X011100Y002809D01*
X011100Y002858D01*
X011260Y003018D01*
X012540Y003018D01*
X012540Y003898D01*
X013420Y003018D02*
X013630Y003228D01*
X013420Y003018D02*
X012540Y003018D01*
X016060Y006778D02*
X017180Y007898D01*
X030320Y004348D02*
X030380Y004298D01*
X031180Y003498D01*
X031260Y003578D01*
X033500Y003578D01*
X034060Y003018D01*
X036620Y003018D01*
X037420Y003818D01*
X037475Y003883D01*
X034100Y005384D02*
X034060Y005418D01*
X033180Y005418D01*
X033100Y005384D01*
X033020Y005418D01*
X032140Y005418D01*
X032100Y005384D01*
X033100Y005384D02*
X033100Y004938D01*
X031420Y003258D02*
X031180Y003498D01*
D25*
X031420Y003258D03*
X032620Y002698D03*
X032140Y001818D03*
X033100Y004938D03*
X032620Y006378D03*
X032620Y007018D03*
X032540Y008218D03*
X033580Y008218D03*
X032860Y009178D03*
X029820Y008058D03*
X026860Y005818D03*
X025980Y004538D03*
X024300Y003258D03*
X023740Y002938D03*
X023180Y002218D03*
X021100Y002778D03*
X020860Y003098D03*
X021580Y004138D03*
X018620Y003018D03*
X020060Y001978D03*
X015740Y004538D03*
X015100Y003898D03*
X016380Y005178D03*
X017980Y006138D03*
X017820Y006778D03*
X017180Y007898D03*
X015180Y009018D03*
X012220Y009658D03*
X011260Y008538D03*
X010540Y008538D03*
X007820Y007098D03*
X007420Y005178D03*
X011740Y006458D03*
X012540Y003898D03*
X012060Y002458D03*
X012940Y001978D03*
X020780Y006938D03*
X020540Y007658D03*
X020220Y007898D03*
X020780Y008138D03*
X021180Y008138D03*
X021500Y007898D03*
X021740Y008138D03*
X021980Y006938D03*
X024220Y006858D03*
X024220Y007258D03*
X024220Y007818D03*
X024380Y009098D03*
X024860Y009658D03*
X025420Y009498D03*
X023420Y010378D03*
X022780Y010378D03*
X021980Y010378D03*
X020140Y010378D03*
X019580Y010378D03*
X018860Y010378D03*
X017500Y011418D03*
X023660Y013258D03*
X023740Y013978D03*
X026540Y015098D03*
X027020Y013818D03*
X027580Y013498D03*
X033660Y015098D03*
X035500Y015018D03*
X035500Y013818D03*
X011020Y011738D03*
X007740Y012138D03*
D26*
X014975Y003758D02*
X014975Y002883D01*
X014600Y002508D01*
X014100Y002508D02*
X014100Y002758D01*
X013630Y003228D01*
X013600Y003258D01*
X015100Y002508D02*
X015350Y002758D01*
X016100Y002758D01*
X016100Y001758D02*
X015350Y001758D01*
X015100Y002008D01*
X014975Y001633D02*
X014975Y000883D01*
X014975Y001633D02*
X014600Y002008D01*
X014100Y002008D02*
X014100Y001758D01*
X013630Y001288D01*
X013600Y001258D01*
D27*
X013630Y001288D02*
X012940Y001978D01*
X012060Y002458D02*
X013980Y000538D01*
X014620Y000538D01*
X014940Y000858D01*
X014975Y000883D01*
X016100Y001758D02*
X016140Y001818D01*
X017900Y003578D01*
X025020Y003578D01*
X025980Y004538D01*
X024860Y003818D02*
X026860Y005818D01*
X024220Y006858D02*
X025980Y008618D01*
X025980Y012618D01*
X020380Y012618D01*
X015340Y017658D01*
X014860Y017658D01*
X014140Y016938D01*
X014140Y016778D01*
X014100Y016758D01*
X007900Y012378D02*
X004780Y015498D01*
X004060Y015498D01*
X003580Y015978D01*
X003580Y017658D01*
X004380Y017658D01*
X005100Y016938D01*
X005100Y016758D01*
X007900Y012378D02*
X025740Y012378D01*
X025740Y008778D01*
X024220Y007258D01*
X024220Y007818D02*
X024220Y008538D01*
X024700Y009018D01*
X024700Y009418D01*
X019820Y009418D01*
X018860Y010378D01*
X019580Y010378D02*
X020300Y009658D01*
X024860Y009658D01*
X025420Y009498D02*
X023500Y011418D01*
X017500Y011418D01*
X019820Y010698D02*
X020140Y010378D01*
X019820Y010698D02*
X013260Y010698D01*
X012220Y009658D01*
X012060Y009338D02*
X011260Y008538D01*
X010540Y008538D02*
X012940Y010938D01*
X021420Y010938D01*
X021980Y010378D01*
X020700Y009178D02*
X015420Y009178D01*
X015260Y009338D01*
X012060Y009338D01*
X010540Y008218D02*
X009660Y007338D01*
X009600Y007309D01*
X009580Y007258D01*
X007980Y007258D01*
X007820Y007098D01*
X007420Y005178D02*
X007020Y005178D01*
X007020Y003258D01*
X007009Y003258D01*
X007009Y002258D02*
X007020Y002218D01*
X007740Y001498D01*
X007740Y000778D01*
X011100Y000778D01*
X011660Y001338D01*
X011660Y002298D01*
X009180Y002298D01*
X009020Y002458D01*
X009020Y004218D01*
X015580Y004218D01*
X016300Y003498D01*
X016300Y002778D01*
X016140Y002778D01*
X016100Y002758D01*
X014975Y003758D02*
X015020Y003818D01*
X015100Y003898D01*
X015740Y004538D02*
X016380Y005178D01*
X017980Y006138D02*
X020300Y003818D01*
X024860Y003818D01*
X023180Y002218D02*
X023420Y001978D01*
X030860Y001978D01*
X031980Y003098D01*
X032060Y003098D01*
X032100Y003132D01*
X032620Y002698D02*
X032860Y002458D01*
X033100Y002458D01*
X033100Y002384D01*
X033580Y002058D02*
X033580Y003098D01*
X033100Y003098D01*
X033100Y003132D01*
X032140Y002378D02*
X032100Y002384D01*
X032140Y002378D02*
X032140Y001818D01*
X032700Y001178D02*
X033580Y002058D01*
X032700Y001178D02*
X020460Y001178D01*
X018620Y003018D01*
X020060Y001978D02*
X020460Y001978D01*
X020540Y001898D01*
X020600Y001884D01*
X020620Y001818D01*
X020700Y001738D01*
X022060Y001738D01*
X022100Y001707D01*
X021580Y004138D02*
X023580Y006138D01*
X030300Y006138D01*
X030320Y006168D01*
X030860Y006618D02*
X029500Y006618D01*
X029500Y008138D01*
X029740Y008378D01*
X031100Y008378D01*
X032060Y007418D01*
X032100Y007345D01*
X032620Y007018D02*
X032780Y007018D01*
X033100Y007338D01*
X033100Y007345D01*
X034100Y007345D02*
X034140Y007418D01*
X036220Y007418D01*
X036300Y007338D01*
X036300Y005818D01*
X034380Y005818D01*
X034140Y006058D01*
X034100Y006132D01*
X033100Y006138D02*
X033100Y006132D01*
X033100Y006138D02*
X032860Y006138D01*
X032620Y006378D01*
X032100Y006132D02*
X032060Y006138D01*
X031340Y006138D01*
X030860Y006618D01*
X031180Y006698D02*
X035660Y006698D01*
X035725Y006633D01*
X034100Y008171D02*
X034060Y008218D01*
X033580Y008218D01*
X033100Y008171D02*
X033100Y009178D01*
X032860Y009178D01*
X032540Y008218D02*
X032140Y008218D01*
X032100Y008171D01*
X031180Y006698D02*
X029820Y008058D01*
X024380Y009098D02*
X022860Y007578D01*
X021420Y007578D01*
X020780Y006938D01*
X021500Y006458D02*
X011740Y006458D01*
X010540Y008218D02*
X020700Y008218D01*
X020780Y008138D01*
X020860Y008458D02*
X021180Y008138D01*
X020860Y008458D02*
X015740Y008458D01*
X015180Y009018D01*
X017820Y006778D02*
X019660Y006778D01*
X020540Y007658D01*
X021740Y008138D02*
X020700Y009178D01*
X021980Y006938D02*
X021500Y006458D01*
X021900Y013258D02*
X021890Y013258D01*
X021900Y013258D02*
X022060Y013418D01*
X022300Y013418D01*
X023580Y014698D01*
X023580Y016698D01*
X023650Y016758D01*
X026540Y015098D02*
X026700Y015098D01*
X027020Y014778D01*
X027049Y014758D01*
X028140Y014778D02*
X028151Y014758D01*
X028140Y014778D02*
X028140Y015978D01*
X027820Y015978D01*
X027100Y016698D01*
X027050Y016758D01*
X027580Y013498D02*
X027900Y013498D01*
X028140Y013258D01*
X028151Y013258D01*
X024310Y013258D02*
X023660Y013258D01*
X035500Y013818D02*
X036060Y013258D01*
X036049Y013258D01*
X037151Y013258D02*
X037180Y013258D01*
X037180Y014218D01*
X037151Y014258D01*
X037180Y014298D01*
X037180Y015258D01*
X037151Y015258D01*
X037180Y015338D01*
X036060Y016458D01*
X036060Y016698D01*
X036050Y016758D01*
D28*
X023420Y010378D02*
X022780Y010378D01*
X021980Y011178D01*
X011580Y011178D01*
X011020Y011738D01*
X008140Y011738D01*
X007740Y012138D01*
X007740Y012058D01*
X003820Y012058D01*
X003820Y002618D01*
X004060Y002378D01*
X005100Y002378D01*
X005420Y002698D01*
X008220Y002698D01*
X008220Y003258D01*
X008191Y003258D01*
X008220Y002698D02*
X008220Y002298D01*
X008191Y002258D01*
X008220Y002218D01*
X008220Y001738D01*
X009580Y001738D01*
X009600Y001707D01*
X009660Y001738D01*
X011100Y001738D01*
X011100Y001707D01*
X008220Y001738D02*
X008220Y001258D01*
X008191Y001258D01*
X020220Y007898D02*
X021500Y007898D01*
X021100Y002778D02*
X021100Y002698D01*
X021500Y002298D01*
X022860Y002298D01*
X023500Y002938D01*
X023740Y002938D01*
X021100Y002778D02*
X021020Y002698D01*
X020620Y002698D01*
X020600Y002632D01*
M02*
