%
M48
M72
T01C0.0120
T02C0.0236
T03C0.0350
T04C0.0354
T05C0.0400
T06C0.0440
T07C0.0935
%
T01
X7420Y5178
X7820Y7098
X10540Y8538
X11260Y8538
X12220Y9658
X11020Y11738
X7740Y12138
X15180Y9018
X17180Y7898
X17820Y6778
X17980Y6138
X16380Y5178
X15740Y4538
X15100Y3898
X12540Y3898
X12060Y2458
X12940Y1978
X18620Y3018
X20060Y1978
X21100Y2778
X20860Y3098
X21580Y4138
X23740Y2938
X24300Y3258
X23180Y2218
X25980Y4538
X26860Y5818
X24220Y6858
X24220Y7258
X24220Y7818
X24380Y9098
X24860Y9658
X25420Y9498
X23420Y10378
X22780Y10378
X21980Y10378
X20140Y10378
X19580Y10378
X18860Y10378
X17500Y11418
X20780Y8138
X21180Y8138
X21500Y7898
X21740Y8138
X20540Y7658
X20220Y7898
X20780Y6938
X21980Y6938
X29820Y8058
X32540Y8218
X33580Y8218
X32860Y9178
X32620Y7018
X32620Y6378
X33100Y4938
X31420Y3258
X32620Y2698
X32140Y1818
X27580Y13498
X27020Y13818
X26540Y15098
X23740Y13978
X23660Y13258
X33660Y15098
X35500Y15018
X35500Y13818
X11740Y6458
T02
X13100Y9758
T03
X13600Y2658
X13600Y1858
X15600Y2258
T04
X5100Y5892
X5100Y7624
T05
X4600Y1708
X4600Y2808
X22550Y16758
X23650Y16758
X27050Y16758
X28150Y16758
X31550Y16758
X32650Y16758
X36050Y16758
X37150Y16758
X27650Y2758
X26550Y2758
T06
X19600Y16758
X18600Y16758
X17600Y16758
X15100Y16758
X14100Y16758
X13100Y16758
X10600Y16758
X9600Y16758
X8600Y16758
X6100Y16758
X5100Y16758
X4100Y16758
T07
X14350Y3258
X15600Y3258
X15600Y1258
X14350Y1258
M30
