G75*
%MOIN*%
%OFA0B0*%
%FSLAX24Y24*%
%IPPOS*%
%LPD*%
%AMOC8*
5,1,8,0,0,1.08239X$1,22.5*
%
%ADD10C,0.0000*%
%ADD11C,0.0080*%
%ADD12C,0.0010*%
%ADD13R,0.0364X0.0450*%
%ADD14C,0.0060*%
%ADD15C,0.0100*%
%ADD16C,0.0050*%
%ADD17C,0.0040*%
%ADD18R,0.0200X0.0100*%
%ADD19R,0.0150X0.0050*%
%ADD20R,0.0100X0.0100*%
%ADD21C,0.0020*%
D10*
X000100Y000100D02*
X000100Y031896D01*
X036670Y031896D01*
X036670Y000100D01*
X000100Y000100D01*
X003760Y004950D02*
X003762Y005000D01*
X003768Y005050D01*
X003778Y005099D01*
X003791Y005148D01*
X003809Y005195D01*
X003830Y005241D01*
X003854Y005284D01*
X003882Y005326D01*
X003913Y005366D01*
X003947Y005403D01*
X003984Y005437D01*
X004024Y005468D01*
X004066Y005496D01*
X004109Y005520D01*
X004155Y005541D01*
X004202Y005559D01*
X004251Y005572D01*
X004300Y005582D01*
X004350Y005588D01*
X004400Y005590D01*
X004450Y005588D01*
X004500Y005582D01*
X004549Y005572D01*
X004598Y005559D01*
X004645Y005541D01*
X004691Y005520D01*
X004734Y005496D01*
X004776Y005468D01*
X004816Y005437D01*
X004853Y005403D01*
X004887Y005366D01*
X004918Y005326D01*
X004946Y005284D01*
X004970Y005241D01*
X004991Y005195D01*
X005009Y005148D01*
X005022Y005099D01*
X005032Y005050D01*
X005038Y005000D01*
X005040Y004950D01*
X005038Y004900D01*
X005032Y004850D01*
X005022Y004801D01*
X005009Y004752D01*
X004991Y004705D01*
X004970Y004659D01*
X004946Y004616D01*
X004918Y004574D01*
X004887Y004534D01*
X004853Y004497D01*
X004816Y004463D01*
X004776Y004432D01*
X004734Y004404D01*
X004691Y004380D01*
X004645Y004359D01*
X004598Y004341D01*
X004549Y004328D01*
X004500Y004318D01*
X004450Y004312D01*
X004400Y004310D01*
X004350Y004312D01*
X004300Y004318D01*
X004251Y004328D01*
X004202Y004341D01*
X004155Y004359D01*
X004109Y004380D01*
X004066Y004404D01*
X004024Y004432D01*
X003984Y004463D01*
X003947Y004497D01*
X003913Y004534D01*
X003882Y004574D01*
X003854Y004616D01*
X003830Y004659D01*
X003809Y004705D01*
X003791Y004752D01*
X003778Y004801D01*
X003768Y004850D01*
X003762Y004900D01*
X003760Y004950D01*
X007760Y004950D02*
X007762Y005000D01*
X007768Y005050D01*
X007778Y005099D01*
X007791Y005148D01*
X007809Y005195D01*
X007830Y005241D01*
X007854Y005284D01*
X007882Y005326D01*
X007913Y005366D01*
X007947Y005403D01*
X007984Y005437D01*
X008024Y005468D01*
X008066Y005496D01*
X008109Y005520D01*
X008155Y005541D01*
X008202Y005559D01*
X008251Y005572D01*
X008300Y005582D01*
X008350Y005588D01*
X008400Y005590D01*
X008450Y005588D01*
X008500Y005582D01*
X008549Y005572D01*
X008598Y005559D01*
X008645Y005541D01*
X008691Y005520D01*
X008734Y005496D01*
X008776Y005468D01*
X008816Y005437D01*
X008853Y005403D01*
X008887Y005366D01*
X008918Y005326D01*
X008946Y005284D01*
X008970Y005241D01*
X008991Y005195D01*
X009009Y005148D01*
X009022Y005099D01*
X009032Y005050D01*
X009038Y005000D01*
X009040Y004950D01*
X009038Y004900D01*
X009032Y004850D01*
X009022Y004801D01*
X009009Y004752D01*
X008991Y004705D01*
X008970Y004659D01*
X008946Y004616D01*
X008918Y004574D01*
X008887Y004534D01*
X008853Y004497D01*
X008816Y004463D01*
X008776Y004432D01*
X008734Y004404D01*
X008691Y004380D01*
X008645Y004359D01*
X008598Y004341D01*
X008549Y004328D01*
X008500Y004318D01*
X008450Y004312D01*
X008400Y004310D01*
X008350Y004312D01*
X008300Y004318D01*
X008251Y004328D01*
X008202Y004341D01*
X008155Y004359D01*
X008109Y004380D01*
X008066Y004404D01*
X008024Y004432D01*
X007984Y004463D01*
X007947Y004497D01*
X007913Y004534D01*
X007882Y004574D01*
X007854Y004616D01*
X007830Y004659D01*
X007809Y004705D01*
X007791Y004752D01*
X007778Y004801D01*
X007768Y004850D01*
X007762Y004900D01*
X007760Y004950D01*
X010510Y004950D02*
X010512Y005000D01*
X010518Y005050D01*
X010528Y005099D01*
X010541Y005148D01*
X010559Y005195D01*
X010580Y005241D01*
X010604Y005284D01*
X010632Y005326D01*
X010663Y005366D01*
X010697Y005403D01*
X010734Y005437D01*
X010774Y005468D01*
X010816Y005496D01*
X010859Y005520D01*
X010905Y005541D01*
X010952Y005559D01*
X011001Y005572D01*
X011050Y005582D01*
X011100Y005588D01*
X011150Y005590D01*
X011200Y005588D01*
X011250Y005582D01*
X011299Y005572D01*
X011348Y005559D01*
X011395Y005541D01*
X011441Y005520D01*
X011484Y005496D01*
X011526Y005468D01*
X011566Y005437D01*
X011603Y005403D01*
X011637Y005366D01*
X011668Y005326D01*
X011696Y005284D01*
X011720Y005241D01*
X011741Y005195D01*
X011759Y005148D01*
X011772Y005099D01*
X011782Y005050D01*
X011788Y005000D01*
X011790Y004950D01*
X011788Y004900D01*
X011782Y004850D01*
X011772Y004801D01*
X011759Y004752D01*
X011741Y004705D01*
X011720Y004659D01*
X011696Y004616D01*
X011668Y004574D01*
X011637Y004534D01*
X011603Y004497D01*
X011566Y004463D01*
X011526Y004432D01*
X011484Y004404D01*
X011441Y004380D01*
X011395Y004359D01*
X011348Y004341D01*
X011299Y004328D01*
X011250Y004318D01*
X011200Y004312D01*
X011150Y004310D01*
X011100Y004312D01*
X011050Y004318D01*
X011001Y004328D01*
X010952Y004341D01*
X010905Y004359D01*
X010859Y004380D01*
X010816Y004404D01*
X010774Y004432D01*
X010734Y004463D01*
X010697Y004497D01*
X010663Y004534D01*
X010632Y004574D01*
X010604Y004616D01*
X010580Y004659D01*
X010559Y004705D01*
X010541Y004752D01*
X010528Y004801D01*
X010518Y004850D01*
X010512Y004900D01*
X010510Y004950D01*
X014510Y004950D02*
X014512Y005000D01*
X014518Y005050D01*
X014528Y005099D01*
X014541Y005148D01*
X014559Y005195D01*
X014580Y005241D01*
X014604Y005284D01*
X014632Y005326D01*
X014663Y005366D01*
X014697Y005403D01*
X014734Y005437D01*
X014774Y005468D01*
X014816Y005496D01*
X014859Y005520D01*
X014905Y005541D01*
X014952Y005559D01*
X015001Y005572D01*
X015050Y005582D01*
X015100Y005588D01*
X015150Y005590D01*
X015200Y005588D01*
X015250Y005582D01*
X015299Y005572D01*
X015348Y005559D01*
X015395Y005541D01*
X015441Y005520D01*
X015484Y005496D01*
X015526Y005468D01*
X015566Y005437D01*
X015603Y005403D01*
X015637Y005366D01*
X015668Y005326D01*
X015696Y005284D01*
X015720Y005241D01*
X015741Y005195D01*
X015759Y005148D01*
X015772Y005099D01*
X015782Y005050D01*
X015788Y005000D01*
X015790Y004950D01*
X015788Y004900D01*
X015782Y004850D01*
X015772Y004801D01*
X015759Y004752D01*
X015741Y004705D01*
X015720Y004659D01*
X015696Y004616D01*
X015668Y004574D01*
X015637Y004534D01*
X015603Y004497D01*
X015566Y004463D01*
X015526Y004432D01*
X015484Y004404D01*
X015441Y004380D01*
X015395Y004359D01*
X015348Y004341D01*
X015299Y004328D01*
X015250Y004318D01*
X015200Y004312D01*
X015150Y004310D01*
X015100Y004312D01*
X015050Y004318D01*
X015001Y004328D01*
X014952Y004341D01*
X014905Y004359D01*
X014859Y004380D01*
X014816Y004404D01*
X014774Y004432D01*
X014734Y004463D01*
X014697Y004497D01*
X014663Y004534D01*
X014632Y004574D01*
X014604Y004616D01*
X014580Y004659D01*
X014559Y004705D01*
X014541Y004752D01*
X014528Y004801D01*
X014518Y004850D01*
X014512Y004900D01*
X014510Y004950D01*
X017260Y004900D02*
X017262Y004950D01*
X017268Y005000D01*
X017278Y005049D01*
X017291Y005098D01*
X017309Y005145D01*
X017330Y005191D01*
X017354Y005234D01*
X017382Y005276D01*
X017413Y005316D01*
X017447Y005353D01*
X017484Y005387D01*
X017524Y005418D01*
X017566Y005446D01*
X017609Y005470D01*
X017655Y005491D01*
X017702Y005509D01*
X017751Y005522D01*
X017800Y005532D01*
X017850Y005538D01*
X017900Y005540D01*
X017950Y005538D01*
X018000Y005532D01*
X018049Y005522D01*
X018098Y005509D01*
X018145Y005491D01*
X018191Y005470D01*
X018234Y005446D01*
X018276Y005418D01*
X018316Y005387D01*
X018353Y005353D01*
X018387Y005316D01*
X018418Y005276D01*
X018446Y005234D01*
X018470Y005191D01*
X018491Y005145D01*
X018509Y005098D01*
X018522Y005049D01*
X018532Y005000D01*
X018538Y004950D01*
X018540Y004900D01*
X018538Y004850D01*
X018532Y004800D01*
X018522Y004751D01*
X018509Y004702D01*
X018491Y004655D01*
X018470Y004609D01*
X018446Y004566D01*
X018418Y004524D01*
X018387Y004484D01*
X018353Y004447D01*
X018316Y004413D01*
X018276Y004382D01*
X018234Y004354D01*
X018191Y004330D01*
X018145Y004309D01*
X018098Y004291D01*
X018049Y004278D01*
X018000Y004268D01*
X017950Y004262D01*
X017900Y004260D01*
X017850Y004262D01*
X017800Y004268D01*
X017751Y004278D01*
X017702Y004291D01*
X017655Y004309D01*
X017609Y004330D01*
X017566Y004354D01*
X017524Y004382D01*
X017484Y004413D01*
X017447Y004447D01*
X017413Y004484D01*
X017382Y004524D01*
X017354Y004566D01*
X017330Y004609D01*
X017309Y004655D01*
X017291Y004702D01*
X017278Y004751D01*
X017268Y004800D01*
X017262Y004850D01*
X017260Y004900D01*
X021260Y004900D02*
X021262Y004950D01*
X021268Y005000D01*
X021278Y005049D01*
X021291Y005098D01*
X021309Y005145D01*
X021330Y005191D01*
X021354Y005234D01*
X021382Y005276D01*
X021413Y005316D01*
X021447Y005353D01*
X021484Y005387D01*
X021524Y005418D01*
X021566Y005446D01*
X021609Y005470D01*
X021655Y005491D01*
X021702Y005509D01*
X021751Y005522D01*
X021800Y005532D01*
X021850Y005538D01*
X021900Y005540D01*
X021950Y005538D01*
X022000Y005532D01*
X022049Y005522D01*
X022098Y005509D01*
X022145Y005491D01*
X022191Y005470D01*
X022234Y005446D01*
X022276Y005418D01*
X022316Y005387D01*
X022353Y005353D01*
X022387Y005316D01*
X022418Y005276D01*
X022446Y005234D01*
X022470Y005191D01*
X022491Y005145D01*
X022509Y005098D01*
X022522Y005049D01*
X022532Y005000D01*
X022538Y004950D01*
X022540Y004900D01*
X022538Y004850D01*
X022532Y004800D01*
X022522Y004751D01*
X022509Y004702D01*
X022491Y004655D01*
X022470Y004609D01*
X022446Y004566D01*
X022418Y004524D01*
X022387Y004484D01*
X022353Y004447D01*
X022316Y004413D01*
X022276Y004382D01*
X022234Y004354D01*
X022191Y004330D01*
X022145Y004309D01*
X022098Y004291D01*
X022049Y004278D01*
X022000Y004268D01*
X021950Y004262D01*
X021900Y004260D01*
X021850Y004262D01*
X021800Y004268D01*
X021751Y004278D01*
X021702Y004291D01*
X021655Y004309D01*
X021609Y004330D01*
X021566Y004354D01*
X021524Y004382D01*
X021484Y004413D01*
X021447Y004447D01*
X021413Y004484D01*
X021382Y004524D01*
X021354Y004566D01*
X021330Y004609D01*
X021309Y004655D01*
X021291Y004702D01*
X021278Y004751D01*
X021268Y004800D01*
X021262Y004850D01*
X021260Y004900D01*
X024060Y004900D02*
X024062Y004950D01*
X024068Y005000D01*
X024078Y005049D01*
X024091Y005098D01*
X024109Y005145D01*
X024130Y005191D01*
X024154Y005234D01*
X024182Y005276D01*
X024213Y005316D01*
X024247Y005353D01*
X024284Y005387D01*
X024324Y005418D01*
X024366Y005446D01*
X024409Y005470D01*
X024455Y005491D01*
X024502Y005509D01*
X024551Y005522D01*
X024600Y005532D01*
X024650Y005538D01*
X024700Y005540D01*
X024750Y005538D01*
X024800Y005532D01*
X024849Y005522D01*
X024898Y005509D01*
X024945Y005491D01*
X024991Y005470D01*
X025034Y005446D01*
X025076Y005418D01*
X025116Y005387D01*
X025153Y005353D01*
X025187Y005316D01*
X025218Y005276D01*
X025246Y005234D01*
X025270Y005191D01*
X025291Y005145D01*
X025309Y005098D01*
X025322Y005049D01*
X025332Y005000D01*
X025338Y004950D01*
X025340Y004900D01*
X025338Y004850D01*
X025332Y004800D01*
X025322Y004751D01*
X025309Y004702D01*
X025291Y004655D01*
X025270Y004609D01*
X025246Y004566D01*
X025218Y004524D01*
X025187Y004484D01*
X025153Y004447D01*
X025116Y004413D01*
X025076Y004382D01*
X025034Y004354D01*
X024991Y004330D01*
X024945Y004309D01*
X024898Y004291D01*
X024849Y004278D01*
X024800Y004268D01*
X024750Y004262D01*
X024700Y004260D01*
X024650Y004262D01*
X024600Y004268D01*
X024551Y004278D01*
X024502Y004291D01*
X024455Y004309D01*
X024409Y004330D01*
X024366Y004354D01*
X024324Y004382D01*
X024284Y004413D01*
X024247Y004447D01*
X024213Y004484D01*
X024182Y004524D01*
X024154Y004566D01*
X024130Y004609D01*
X024109Y004655D01*
X024091Y004702D01*
X024078Y004751D01*
X024068Y004800D01*
X024062Y004850D01*
X024060Y004900D01*
X028060Y004900D02*
X028062Y004950D01*
X028068Y005000D01*
X028078Y005049D01*
X028091Y005098D01*
X028109Y005145D01*
X028130Y005191D01*
X028154Y005234D01*
X028182Y005276D01*
X028213Y005316D01*
X028247Y005353D01*
X028284Y005387D01*
X028324Y005418D01*
X028366Y005446D01*
X028409Y005470D01*
X028455Y005491D01*
X028502Y005509D01*
X028551Y005522D01*
X028600Y005532D01*
X028650Y005538D01*
X028700Y005540D01*
X028750Y005538D01*
X028800Y005532D01*
X028849Y005522D01*
X028898Y005509D01*
X028945Y005491D01*
X028991Y005470D01*
X029034Y005446D01*
X029076Y005418D01*
X029116Y005387D01*
X029153Y005353D01*
X029187Y005316D01*
X029218Y005276D01*
X029246Y005234D01*
X029270Y005191D01*
X029291Y005145D01*
X029309Y005098D01*
X029322Y005049D01*
X029332Y005000D01*
X029338Y004950D01*
X029340Y004900D01*
X029338Y004850D01*
X029332Y004800D01*
X029322Y004751D01*
X029309Y004702D01*
X029291Y004655D01*
X029270Y004609D01*
X029246Y004566D01*
X029218Y004524D01*
X029187Y004484D01*
X029153Y004447D01*
X029116Y004413D01*
X029076Y004382D01*
X029034Y004354D01*
X028991Y004330D01*
X028945Y004309D01*
X028898Y004291D01*
X028849Y004278D01*
X028800Y004268D01*
X028750Y004262D01*
X028700Y004260D01*
X028650Y004262D01*
X028600Y004268D01*
X028551Y004278D01*
X028502Y004291D01*
X028455Y004309D01*
X028409Y004330D01*
X028366Y004354D01*
X028324Y004382D01*
X028284Y004413D01*
X028247Y004447D01*
X028213Y004484D01*
X028182Y004524D01*
X028154Y004566D01*
X028130Y004609D01*
X028109Y004655D01*
X028091Y004702D01*
X028078Y004751D01*
X028068Y004800D01*
X028062Y004850D01*
X028060Y004900D01*
X030760Y004900D02*
X030762Y004950D01*
X030768Y005000D01*
X030778Y005049D01*
X030791Y005098D01*
X030809Y005145D01*
X030830Y005191D01*
X030854Y005234D01*
X030882Y005276D01*
X030913Y005316D01*
X030947Y005353D01*
X030984Y005387D01*
X031024Y005418D01*
X031066Y005446D01*
X031109Y005470D01*
X031155Y005491D01*
X031202Y005509D01*
X031251Y005522D01*
X031300Y005532D01*
X031350Y005538D01*
X031400Y005540D01*
X031450Y005538D01*
X031500Y005532D01*
X031549Y005522D01*
X031598Y005509D01*
X031645Y005491D01*
X031691Y005470D01*
X031734Y005446D01*
X031776Y005418D01*
X031816Y005387D01*
X031853Y005353D01*
X031887Y005316D01*
X031918Y005276D01*
X031946Y005234D01*
X031970Y005191D01*
X031991Y005145D01*
X032009Y005098D01*
X032022Y005049D01*
X032032Y005000D01*
X032038Y004950D01*
X032040Y004900D01*
X032038Y004850D01*
X032032Y004800D01*
X032022Y004751D01*
X032009Y004702D01*
X031991Y004655D01*
X031970Y004609D01*
X031946Y004566D01*
X031918Y004524D01*
X031887Y004484D01*
X031853Y004447D01*
X031816Y004413D01*
X031776Y004382D01*
X031734Y004354D01*
X031691Y004330D01*
X031645Y004309D01*
X031598Y004291D01*
X031549Y004278D01*
X031500Y004268D01*
X031450Y004262D01*
X031400Y004260D01*
X031350Y004262D01*
X031300Y004268D01*
X031251Y004278D01*
X031202Y004291D01*
X031155Y004309D01*
X031109Y004330D01*
X031066Y004354D01*
X031024Y004382D01*
X030984Y004413D01*
X030947Y004447D01*
X030913Y004484D01*
X030882Y004524D01*
X030854Y004566D01*
X030830Y004609D01*
X030809Y004655D01*
X030791Y004702D01*
X030778Y004751D01*
X030768Y004800D01*
X030762Y004850D01*
X030760Y004900D01*
X034760Y004900D02*
X034762Y004950D01*
X034768Y005000D01*
X034778Y005049D01*
X034791Y005098D01*
X034809Y005145D01*
X034830Y005191D01*
X034854Y005234D01*
X034882Y005276D01*
X034913Y005316D01*
X034947Y005353D01*
X034984Y005387D01*
X035024Y005418D01*
X035066Y005446D01*
X035109Y005470D01*
X035155Y005491D01*
X035202Y005509D01*
X035251Y005522D01*
X035300Y005532D01*
X035350Y005538D01*
X035400Y005540D01*
X035450Y005538D01*
X035500Y005532D01*
X035549Y005522D01*
X035598Y005509D01*
X035645Y005491D01*
X035691Y005470D01*
X035734Y005446D01*
X035776Y005418D01*
X035816Y005387D01*
X035853Y005353D01*
X035887Y005316D01*
X035918Y005276D01*
X035946Y005234D01*
X035970Y005191D01*
X035991Y005145D01*
X036009Y005098D01*
X036022Y005049D01*
X036032Y005000D01*
X036038Y004950D01*
X036040Y004900D01*
X036038Y004850D01*
X036032Y004800D01*
X036022Y004751D01*
X036009Y004702D01*
X035991Y004655D01*
X035970Y004609D01*
X035946Y004566D01*
X035918Y004524D01*
X035887Y004484D01*
X035853Y004447D01*
X035816Y004413D01*
X035776Y004382D01*
X035734Y004354D01*
X035691Y004330D01*
X035645Y004309D01*
X035598Y004291D01*
X035549Y004278D01*
X035500Y004268D01*
X035450Y004262D01*
X035400Y004260D01*
X035350Y004262D01*
X035300Y004268D01*
X035251Y004278D01*
X035202Y004291D01*
X035155Y004309D01*
X035109Y004330D01*
X035066Y004354D01*
X035024Y004382D01*
X034984Y004413D01*
X034947Y004447D01*
X034913Y004484D01*
X034882Y004524D01*
X034854Y004566D01*
X034830Y004609D01*
X034809Y004655D01*
X034791Y004702D01*
X034778Y004751D01*
X034768Y004800D01*
X034762Y004850D01*
X034760Y004900D01*
X033260Y013650D02*
X033262Y013700D01*
X033268Y013750D01*
X033278Y013799D01*
X033291Y013848D01*
X033309Y013895D01*
X033330Y013941D01*
X033354Y013984D01*
X033382Y014026D01*
X033413Y014066D01*
X033447Y014103D01*
X033484Y014137D01*
X033524Y014168D01*
X033566Y014196D01*
X033609Y014220D01*
X033655Y014241D01*
X033702Y014259D01*
X033751Y014272D01*
X033800Y014282D01*
X033850Y014288D01*
X033900Y014290D01*
X033950Y014288D01*
X034000Y014282D01*
X034049Y014272D01*
X034098Y014259D01*
X034145Y014241D01*
X034191Y014220D01*
X034234Y014196D01*
X034276Y014168D01*
X034316Y014137D01*
X034353Y014103D01*
X034387Y014066D01*
X034418Y014026D01*
X034446Y013984D01*
X034470Y013941D01*
X034491Y013895D01*
X034509Y013848D01*
X034522Y013799D01*
X034532Y013750D01*
X034538Y013700D01*
X034540Y013650D01*
X034538Y013600D01*
X034532Y013550D01*
X034522Y013501D01*
X034509Y013452D01*
X034491Y013405D01*
X034470Y013359D01*
X034446Y013316D01*
X034418Y013274D01*
X034387Y013234D01*
X034353Y013197D01*
X034316Y013163D01*
X034276Y013132D01*
X034234Y013104D01*
X034191Y013080D01*
X034145Y013059D01*
X034098Y013041D01*
X034049Y013028D01*
X034000Y013018D01*
X033950Y013012D01*
X033900Y013010D01*
X033850Y013012D01*
X033800Y013018D01*
X033751Y013028D01*
X033702Y013041D01*
X033655Y013059D01*
X033609Y013080D01*
X033566Y013104D01*
X033524Y013132D01*
X033484Y013163D01*
X033447Y013197D01*
X033413Y013234D01*
X033382Y013274D01*
X033354Y013316D01*
X033330Y013359D01*
X033309Y013405D01*
X033291Y013452D01*
X033278Y013501D01*
X033268Y013550D01*
X033262Y013600D01*
X033260Y013650D01*
X033260Y018150D02*
X033262Y018200D01*
X033268Y018250D01*
X033278Y018299D01*
X033291Y018348D01*
X033309Y018395D01*
X033330Y018441D01*
X033354Y018484D01*
X033382Y018526D01*
X033413Y018566D01*
X033447Y018603D01*
X033484Y018637D01*
X033524Y018668D01*
X033566Y018696D01*
X033609Y018720D01*
X033655Y018741D01*
X033702Y018759D01*
X033751Y018772D01*
X033800Y018782D01*
X033850Y018788D01*
X033900Y018790D01*
X033950Y018788D01*
X034000Y018782D01*
X034049Y018772D01*
X034098Y018759D01*
X034145Y018741D01*
X034191Y018720D01*
X034234Y018696D01*
X034276Y018668D01*
X034316Y018637D01*
X034353Y018603D01*
X034387Y018566D01*
X034418Y018526D01*
X034446Y018484D01*
X034470Y018441D01*
X034491Y018395D01*
X034509Y018348D01*
X034522Y018299D01*
X034532Y018250D01*
X034538Y018200D01*
X034540Y018150D01*
X034538Y018100D01*
X034532Y018050D01*
X034522Y018001D01*
X034509Y017952D01*
X034491Y017905D01*
X034470Y017859D01*
X034446Y017816D01*
X034418Y017774D01*
X034387Y017734D01*
X034353Y017697D01*
X034316Y017663D01*
X034276Y017632D01*
X034234Y017604D01*
X034191Y017580D01*
X034145Y017559D01*
X034098Y017541D01*
X034049Y017528D01*
X034000Y017518D01*
X033950Y017512D01*
X033900Y017510D01*
X033850Y017512D01*
X033800Y017518D01*
X033751Y017528D01*
X033702Y017541D01*
X033655Y017559D01*
X033609Y017580D01*
X033566Y017604D01*
X033524Y017632D01*
X033484Y017663D01*
X033447Y017697D01*
X033413Y017734D01*
X033382Y017774D01*
X033354Y017816D01*
X033330Y017859D01*
X033309Y017905D01*
X033291Y017952D01*
X033278Y018001D01*
X033268Y018050D01*
X033262Y018100D01*
X033260Y018150D01*
X034410Y025950D02*
X034412Y026000D01*
X034418Y026050D01*
X034428Y026099D01*
X034441Y026148D01*
X034459Y026195D01*
X034480Y026241D01*
X034504Y026284D01*
X034532Y026326D01*
X034563Y026366D01*
X034597Y026403D01*
X034634Y026437D01*
X034674Y026468D01*
X034716Y026496D01*
X034759Y026520D01*
X034805Y026541D01*
X034852Y026559D01*
X034901Y026572D01*
X034950Y026582D01*
X035000Y026588D01*
X035050Y026590D01*
X035100Y026588D01*
X035150Y026582D01*
X035199Y026572D01*
X035248Y026559D01*
X035295Y026541D01*
X035341Y026520D01*
X035384Y026496D01*
X035426Y026468D01*
X035466Y026437D01*
X035503Y026403D01*
X035537Y026366D01*
X035568Y026326D01*
X035596Y026284D01*
X035620Y026241D01*
X035641Y026195D01*
X035659Y026148D01*
X035672Y026099D01*
X035682Y026050D01*
X035688Y026000D01*
X035690Y025950D01*
X035688Y025900D01*
X035682Y025850D01*
X035672Y025801D01*
X035659Y025752D01*
X035641Y025705D01*
X035620Y025659D01*
X035596Y025616D01*
X035568Y025574D01*
X035537Y025534D01*
X035503Y025497D01*
X035466Y025463D01*
X035426Y025432D01*
X035384Y025404D01*
X035341Y025380D01*
X035295Y025359D01*
X035248Y025341D01*
X035199Y025328D01*
X035150Y025318D01*
X035100Y025312D01*
X035050Y025310D01*
X035000Y025312D01*
X034950Y025318D01*
X034901Y025328D01*
X034852Y025341D01*
X034805Y025359D01*
X034759Y025380D01*
X034716Y025404D01*
X034674Y025432D01*
X034634Y025463D01*
X034597Y025497D01*
X034563Y025534D01*
X034532Y025574D01*
X034504Y025616D01*
X034480Y025659D01*
X034459Y025705D01*
X034441Y025752D01*
X034428Y025801D01*
X034418Y025850D01*
X034412Y025900D01*
X034410Y025950D01*
X030410Y025950D02*
X030412Y026000D01*
X030418Y026050D01*
X030428Y026099D01*
X030441Y026148D01*
X030459Y026195D01*
X030480Y026241D01*
X030504Y026284D01*
X030532Y026326D01*
X030563Y026366D01*
X030597Y026403D01*
X030634Y026437D01*
X030674Y026468D01*
X030716Y026496D01*
X030759Y026520D01*
X030805Y026541D01*
X030852Y026559D01*
X030901Y026572D01*
X030950Y026582D01*
X031000Y026588D01*
X031050Y026590D01*
X031100Y026588D01*
X031150Y026582D01*
X031199Y026572D01*
X031248Y026559D01*
X031295Y026541D01*
X031341Y026520D01*
X031384Y026496D01*
X031426Y026468D01*
X031466Y026437D01*
X031503Y026403D01*
X031537Y026366D01*
X031568Y026326D01*
X031596Y026284D01*
X031620Y026241D01*
X031641Y026195D01*
X031659Y026148D01*
X031672Y026099D01*
X031682Y026050D01*
X031688Y026000D01*
X031690Y025950D01*
X031688Y025900D01*
X031682Y025850D01*
X031672Y025801D01*
X031659Y025752D01*
X031641Y025705D01*
X031620Y025659D01*
X031596Y025616D01*
X031568Y025574D01*
X031537Y025534D01*
X031503Y025497D01*
X031466Y025463D01*
X031426Y025432D01*
X031384Y025404D01*
X031341Y025380D01*
X031295Y025359D01*
X031248Y025341D01*
X031199Y025328D01*
X031150Y025318D01*
X031100Y025312D01*
X031050Y025310D01*
X031000Y025312D01*
X030950Y025318D01*
X030901Y025328D01*
X030852Y025341D01*
X030805Y025359D01*
X030759Y025380D01*
X030716Y025404D01*
X030674Y025432D01*
X030634Y025463D01*
X030597Y025497D01*
X030563Y025534D01*
X030532Y025574D01*
X030504Y025616D01*
X030480Y025659D01*
X030459Y025705D01*
X030441Y025752D01*
X030428Y025801D01*
X030418Y025850D01*
X030412Y025900D01*
X030410Y025950D01*
X028160Y025950D02*
X028162Y026000D01*
X028168Y026050D01*
X028178Y026099D01*
X028191Y026148D01*
X028209Y026195D01*
X028230Y026241D01*
X028254Y026284D01*
X028282Y026326D01*
X028313Y026366D01*
X028347Y026403D01*
X028384Y026437D01*
X028424Y026468D01*
X028466Y026496D01*
X028509Y026520D01*
X028555Y026541D01*
X028602Y026559D01*
X028651Y026572D01*
X028700Y026582D01*
X028750Y026588D01*
X028800Y026590D01*
X028850Y026588D01*
X028900Y026582D01*
X028949Y026572D01*
X028998Y026559D01*
X029045Y026541D01*
X029091Y026520D01*
X029134Y026496D01*
X029176Y026468D01*
X029216Y026437D01*
X029253Y026403D01*
X029287Y026366D01*
X029318Y026326D01*
X029346Y026284D01*
X029370Y026241D01*
X029391Y026195D01*
X029409Y026148D01*
X029422Y026099D01*
X029432Y026050D01*
X029438Y026000D01*
X029440Y025950D01*
X029438Y025900D01*
X029432Y025850D01*
X029422Y025801D01*
X029409Y025752D01*
X029391Y025705D01*
X029370Y025659D01*
X029346Y025616D01*
X029318Y025574D01*
X029287Y025534D01*
X029253Y025497D01*
X029216Y025463D01*
X029176Y025432D01*
X029134Y025404D01*
X029091Y025380D01*
X029045Y025359D01*
X028998Y025341D01*
X028949Y025328D01*
X028900Y025318D01*
X028850Y025312D01*
X028800Y025310D01*
X028750Y025312D01*
X028700Y025318D01*
X028651Y025328D01*
X028602Y025341D01*
X028555Y025359D01*
X028509Y025380D01*
X028466Y025404D01*
X028424Y025432D01*
X028384Y025463D01*
X028347Y025497D01*
X028313Y025534D01*
X028282Y025574D01*
X028254Y025616D01*
X028230Y025659D01*
X028209Y025705D01*
X028191Y025752D01*
X028178Y025801D01*
X028168Y025850D01*
X028162Y025900D01*
X028160Y025950D01*
X024160Y025950D02*
X024162Y026000D01*
X024168Y026050D01*
X024178Y026099D01*
X024191Y026148D01*
X024209Y026195D01*
X024230Y026241D01*
X024254Y026284D01*
X024282Y026326D01*
X024313Y026366D01*
X024347Y026403D01*
X024384Y026437D01*
X024424Y026468D01*
X024466Y026496D01*
X024509Y026520D01*
X024555Y026541D01*
X024602Y026559D01*
X024651Y026572D01*
X024700Y026582D01*
X024750Y026588D01*
X024800Y026590D01*
X024850Y026588D01*
X024900Y026582D01*
X024949Y026572D01*
X024998Y026559D01*
X025045Y026541D01*
X025091Y026520D01*
X025134Y026496D01*
X025176Y026468D01*
X025216Y026437D01*
X025253Y026403D01*
X025287Y026366D01*
X025318Y026326D01*
X025346Y026284D01*
X025370Y026241D01*
X025391Y026195D01*
X025409Y026148D01*
X025422Y026099D01*
X025432Y026050D01*
X025438Y026000D01*
X025440Y025950D01*
X025438Y025900D01*
X025432Y025850D01*
X025422Y025801D01*
X025409Y025752D01*
X025391Y025705D01*
X025370Y025659D01*
X025346Y025616D01*
X025318Y025574D01*
X025287Y025534D01*
X025253Y025497D01*
X025216Y025463D01*
X025176Y025432D01*
X025134Y025404D01*
X025091Y025380D01*
X025045Y025359D01*
X024998Y025341D01*
X024949Y025328D01*
X024900Y025318D01*
X024850Y025312D01*
X024800Y025310D01*
X024750Y025312D01*
X024700Y025318D01*
X024651Y025328D01*
X024602Y025341D01*
X024555Y025359D01*
X024509Y025380D01*
X024466Y025404D01*
X024424Y025432D01*
X024384Y025463D01*
X024347Y025497D01*
X024313Y025534D01*
X024282Y025574D01*
X024254Y025616D01*
X024230Y025659D01*
X024209Y025705D01*
X024191Y025752D01*
X024178Y025801D01*
X024168Y025850D01*
X024162Y025900D01*
X024160Y025950D01*
X003073Y028161D02*
X003075Y028187D01*
X003081Y028213D01*
X003091Y028238D01*
X003104Y028261D01*
X003120Y028281D01*
X003140Y028299D01*
X003162Y028314D01*
X003185Y028326D01*
X003211Y028334D01*
X003237Y028338D01*
X003263Y028338D01*
X003289Y028334D01*
X003315Y028326D01*
X003339Y028314D01*
X003360Y028299D01*
X003380Y028281D01*
X003396Y028261D01*
X003409Y028238D01*
X003419Y028213D01*
X003425Y028187D01*
X003427Y028161D01*
X003425Y028135D01*
X003419Y028109D01*
X003409Y028084D01*
X003396Y028061D01*
X003380Y028041D01*
X003360Y028023D01*
X003338Y028008D01*
X003315Y027996D01*
X003289Y027988D01*
X003263Y027984D01*
X003237Y027984D01*
X003211Y027988D01*
X003185Y027996D01*
X003161Y028008D01*
X003140Y028023D01*
X003120Y028041D01*
X003104Y028061D01*
X003091Y028084D01*
X003081Y028109D01*
X003075Y028135D01*
X003073Y028161D01*
X003073Y029539D02*
X003075Y029565D01*
X003081Y029591D01*
X003091Y029616D01*
X003104Y029639D01*
X003120Y029659D01*
X003140Y029677D01*
X003162Y029692D01*
X003185Y029704D01*
X003211Y029712D01*
X003237Y029716D01*
X003263Y029716D01*
X003289Y029712D01*
X003315Y029704D01*
X003339Y029692D01*
X003360Y029677D01*
X003380Y029659D01*
X003396Y029639D01*
X003409Y029616D01*
X003419Y029591D01*
X003425Y029565D01*
X003427Y029539D01*
X003425Y029513D01*
X003419Y029487D01*
X003409Y029462D01*
X003396Y029439D01*
X003380Y029419D01*
X003360Y029401D01*
X003338Y029386D01*
X003315Y029374D01*
X003289Y029366D01*
X003263Y029362D01*
X003237Y029362D01*
X003211Y029366D01*
X003185Y029374D01*
X003161Y029386D01*
X003140Y029401D01*
X003120Y029419D01*
X003104Y029439D01*
X003091Y029462D01*
X003081Y029487D01*
X003075Y029513D01*
X003073Y029539D01*
X002369Y019884D02*
X002371Y019920D01*
X002377Y019956D01*
X002387Y019991D01*
X002400Y020025D01*
X002417Y020057D01*
X002437Y020087D01*
X002461Y020114D01*
X002487Y020139D01*
X002516Y020161D01*
X002547Y020180D01*
X002580Y020195D01*
X002614Y020207D01*
X002650Y020215D01*
X002686Y020219D01*
X002722Y020219D01*
X002758Y020215D01*
X002794Y020207D01*
X002828Y020195D01*
X002861Y020180D01*
X002892Y020161D01*
X002921Y020139D01*
X002947Y020114D01*
X002971Y020087D01*
X002991Y020057D01*
X003008Y020025D01*
X003021Y019991D01*
X003031Y019956D01*
X003037Y019920D01*
X003039Y019884D01*
X003037Y019848D01*
X003031Y019812D01*
X003021Y019777D01*
X003008Y019743D01*
X002991Y019711D01*
X002971Y019681D01*
X002947Y019654D01*
X002921Y019629D01*
X002892Y019607D01*
X002861Y019588D01*
X002828Y019573D01*
X002794Y019561D01*
X002758Y019553D01*
X002722Y019549D01*
X002686Y019549D01*
X002650Y019553D01*
X002614Y019561D01*
X002580Y019573D01*
X002547Y019588D01*
X002516Y019607D01*
X002487Y019629D01*
X002461Y019654D01*
X002437Y019681D01*
X002417Y019711D01*
X002400Y019743D01*
X002387Y019777D01*
X002377Y019812D01*
X002371Y019848D01*
X002369Y019884D01*
X002369Y017916D02*
X002371Y017952D01*
X002377Y017988D01*
X002387Y018023D01*
X002400Y018057D01*
X002417Y018089D01*
X002437Y018119D01*
X002461Y018146D01*
X002487Y018171D01*
X002516Y018193D01*
X002547Y018212D01*
X002580Y018227D01*
X002614Y018239D01*
X002650Y018247D01*
X002686Y018251D01*
X002722Y018251D01*
X002758Y018247D01*
X002794Y018239D01*
X002828Y018227D01*
X002861Y018212D01*
X002892Y018193D01*
X002921Y018171D01*
X002947Y018146D01*
X002971Y018119D01*
X002991Y018089D01*
X003008Y018057D01*
X003021Y018023D01*
X003031Y017988D01*
X003037Y017952D01*
X003039Y017916D01*
X003037Y017880D01*
X003031Y017844D01*
X003021Y017809D01*
X003008Y017775D01*
X002991Y017743D01*
X002971Y017713D01*
X002947Y017686D01*
X002921Y017661D01*
X002892Y017639D01*
X002861Y017620D01*
X002828Y017605D01*
X002794Y017593D01*
X002758Y017585D01*
X002722Y017581D01*
X002686Y017581D01*
X002650Y017585D01*
X002614Y017593D01*
X002580Y017605D01*
X002547Y017620D01*
X002516Y017639D01*
X002487Y017661D01*
X002461Y017686D01*
X002437Y017713D01*
X002417Y017743D01*
X002400Y017775D01*
X002387Y017809D01*
X002377Y017844D01*
X002371Y017880D01*
X002369Y017916D01*
D11*
X002231Y015034D02*
X003413Y015034D01*
X002231Y015034D02*
X002231Y013066D01*
X003413Y013066D01*
X004987Y013066D02*
X005775Y013066D01*
X006169Y013459D01*
X006169Y014641D01*
X005775Y015034D01*
X004987Y015034D01*
X003693Y008014D02*
X003693Y000691D01*
X009107Y000691D01*
X009107Y008014D01*
X003693Y008014D01*
X010443Y008014D02*
X010443Y000691D01*
X015857Y000691D01*
X015857Y008014D01*
X010443Y008014D01*
X017193Y007964D02*
X017193Y000641D01*
X022607Y000641D01*
X022607Y007964D01*
X017193Y007964D01*
X023993Y007964D02*
X023993Y000641D01*
X029407Y000641D01*
X029407Y007964D01*
X023993Y007964D01*
X029600Y012730D02*
X032100Y012730D01*
X033400Y012730D02*
X038200Y012730D01*
X038200Y019070D01*
X033400Y019070D01*
X032100Y019070D02*
X029600Y019070D01*
X029600Y012730D01*
X030693Y007964D02*
X030693Y000641D01*
X036107Y000641D01*
X036107Y007964D01*
X030693Y007964D01*
X030343Y022886D02*
X030343Y030209D01*
X035757Y030209D01*
X035757Y022886D01*
X030343Y022886D01*
X029507Y022886D02*
X029507Y030209D01*
X024093Y030209D01*
X024093Y022886D01*
X029507Y022886D01*
X015027Y025000D02*
X015029Y025096D01*
X015035Y025192D01*
X015045Y025287D01*
X015059Y025382D01*
X015076Y025477D01*
X015098Y025570D01*
X015124Y025663D01*
X015153Y025754D01*
X015186Y025844D01*
X015223Y025933D01*
X015263Y026020D01*
X015307Y026106D01*
X015354Y026189D01*
X015405Y026271D01*
X015459Y026350D01*
X015517Y026427D01*
X015577Y026501D01*
X015641Y026573D01*
X015707Y026643D01*
X015777Y026709D01*
X015849Y026773D01*
X015923Y026833D01*
X016000Y026891D01*
X016079Y026945D01*
X016161Y026996D01*
X016244Y027043D01*
X016330Y027087D01*
X016417Y027127D01*
X016506Y027164D01*
X016596Y027197D01*
X016687Y027226D01*
X016780Y027252D01*
X016873Y027274D01*
X016968Y027291D01*
X017063Y027305D01*
X017158Y027315D01*
X017254Y027321D01*
X017350Y027323D01*
X017446Y027321D01*
X017542Y027315D01*
X017637Y027305D01*
X017732Y027291D01*
X017827Y027274D01*
X017920Y027252D01*
X018013Y027226D01*
X018104Y027197D01*
X018194Y027164D01*
X018283Y027127D01*
X018370Y027087D01*
X018456Y027043D01*
X018539Y026996D01*
X018621Y026945D01*
X018700Y026891D01*
X018777Y026833D01*
X018851Y026773D01*
X018923Y026709D01*
X018993Y026643D01*
X019059Y026573D01*
X019123Y026501D01*
X019183Y026427D01*
X019241Y026350D01*
X019295Y026271D01*
X019346Y026189D01*
X019393Y026106D01*
X019437Y026020D01*
X019477Y025933D01*
X019514Y025844D01*
X019547Y025754D01*
X019576Y025663D01*
X019602Y025570D01*
X019624Y025477D01*
X019641Y025382D01*
X019655Y025287D01*
X019665Y025192D01*
X019671Y025096D01*
X019673Y025000D01*
X019671Y024904D01*
X019665Y024808D01*
X019655Y024713D01*
X019641Y024618D01*
X019624Y024523D01*
X019602Y024430D01*
X019576Y024337D01*
X019547Y024246D01*
X019514Y024156D01*
X019477Y024067D01*
X019437Y023980D01*
X019393Y023894D01*
X019346Y023811D01*
X019295Y023729D01*
X019241Y023650D01*
X019183Y023573D01*
X019123Y023499D01*
X019059Y023427D01*
X018993Y023357D01*
X018923Y023291D01*
X018851Y023227D01*
X018777Y023167D01*
X018700Y023109D01*
X018621Y023055D01*
X018539Y023004D01*
X018456Y022957D01*
X018370Y022913D01*
X018283Y022873D01*
X018194Y022836D01*
X018104Y022803D01*
X018013Y022774D01*
X017920Y022748D01*
X017827Y022726D01*
X017732Y022709D01*
X017637Y022695D01*
X017542Y022685D01*
X017446Y022679D01*
X017350Y022677D01*
X017254Y022679D01*
X017158Y022685D01*
X017063Y022695D01*
X016968Y022709D01*
X016873Y022726D01*
X016780Y022748D01*
X016687Y022774D01*
X016596Y022803D01*
X016506Y022836D01*
X016417Y022873D01*
X016330Y022913D01*
X016244Y022957D01*
X016161Y023004D01*
X016079Y023055D01*
X016000Y023109D01*
X015923Y023167D01*
X015849Y023227D01*
X015777Y023291D01*
X015707Y023357D01*
X015641Y023427D01*
X015577Y023499D01*
X015517Y023573D01*
X015459Y023650D01*
X015405Y023729D01*
X015354Y023811D01*
X015307Y023894D01*
X015263Y023980D01*
X015223Y024067D01*
X015186Y024156D01*
X015153Y024246D01*
X015124Y024337D01*
X015098Y024430D01*
X015076Y024523D01*
X015059Y024618D01*
X015045Y024713D01*
X015035Y024808D01*
X015029Y024904D01*
X015027Y025000D01*
X008150Y028794D02*
X008150Y030006D01*
X007638Y030400D02*
X006650Y030400D01*
X006150Y030006D02*
X006150Y028794D01*
X006662Y028400D02*
X007638Y028400D01*
X006650Y029400D02*
X006652Y029444D01*
X006658Y029488D01*
X006668Y029531D01*
X006681Y029573D01*
X006698Y029614D01*
X006719Y029653D01*
X006743Y029690D01*
X006770Y029725D01*
X006800Y029757D01*
X006833Y029787D01*
X006869Y029813D01*
X006906Y029837D01*
X006946Y029856D01*
X006987Y029873D01*
X007030Y029885D01*
X007073Y029894D01*
X007117Y029899D01*
X007161Y029900D01*
X007205Y029897D01*
X007249Y029890D01*
X007292Y029879D01*
X007334Y029865D01*
X007374Y029847D01*
X007413Y029825D01*
X007449Y029801D01*
X007483Y029773D01*
X007515Y029742D01*
X007544Y029708D01*
X007570Y029672D01*
X007592Y029634D01*
X007611Y029594D01*
X007626Y029552D01*
X007638Y029510D01*
X007646Y029466D01*
X007650Y029422D01*
X007650Y029378D01*
X007646Y029334D01*
X007638Y029290D01*
X007626Y029248D01*
X007611Y029206D01*
X007592Y029166D01*
X007570Y029128D01*
X007544Y029092D01*
X007515Y029058D01*
X007483Y029027D01*
X007449Y028999D01*
X007413Y028975D01*
X007374Y028953D01*
X007334Y028935D01*
X007292Y028921D01*
X007249Y028910D01*
X007205Y028903D01*
X007161Y028900D01*
X007117Y028901D01*
X007073Y028906D01*
X007030Y028915D01*
X006987Y028927D01*
X006946Y028944D01*
X006906Y028963D01*
X006869Y028987D01*
X006833Y029013D01*
X006800Y029043D01*
X006770Y029075D01*
X006743Y029110D01*
X006719Y029147D01*
X006698Y029186D01*
X006681Y029227D01*
X006668Y029269D01*
X006658Y029312D01*
X006652Y029356D01*
X006650Y029400D01*
D12*
X006667Y029445D02*
X006642Y029470D01*
X006667Y029445D02*
X006717Y029445D01*
X006742Y029470D01*
X006742Y029570D01*
X006717Y029595D01*
X006667Y029595D01*
X006642Y029570D01*
X006790Y029545D02*
X006790Y029445D01*
X006865Y029445D01*
X006890Y029470D01*
X006890Y029545D01*
X007085Y029545D02*
X007135Y029545D01*
X007110Y029570D02*
X007110Y029470D01*
X007085Y029445D01*
X007182Y029495D02*
X007283Y029495D01*
X007283Y029470D02*
X007283Y029520D01*
X007258Y029545D01*
X007207Y029545D01*
X007182Y029520D01*
X007182Y029495D01*
X007207Y029445D02*
X007258Y029445D01*
X007283Y029470D01*
X007330Y029470D02*
X007355Y029495D01*
X007405Y029495D01*
X007430Y029520D01*
X007405Y029545D01*
X007330Y029545D01*
X007330Y029470D02*
X007355Y029445D01*
X007430Y029445D01*
X007477Y029495D02*
X007577Y029495D01*
X007577Y029470D02*
X007577Y029520D01*
X007552Y029545D01*
X007502Y029545D01*
X007477Y029520D01*
X007477Y029495D01*
X007502Y029445D02*
X007552Y029445D01*
X007577Y029470D01*
X007624Y029445D02*
X007674Y029495D01*
X007649Y029495D02*
X007724Y029495D01*
X007724Y029445D02*
X007724Y029595D01*
X007649Y029595D01*
X007624Y029570D01*
X007624Y029520D01*
X007649Y029495D01*
X024919Y029433D02*
X024919Y029640D01*
X025125Y029640D02*
X025125Y029433D01*
X025022Y029330D01*
X024919Y029433D01*
X025213Y029485D02*
X025213Y029382D01*
X025265Y029330D01*
X025368Y029330D01*
X025420Y029382D01*
X025420Y029485D02*
X025317Y029537D01*
X025265Y029537D01*
X025213Y029485D01*
X025213Y029640D02*
X025420Y029640D01*
X025420Y029485D01*
X026794Y029830D02*
X027000Y030140D01*
X027088Y030140D02*
X027295Y030140D01*
X027192Y030140D02*
X027192Y029830D01*
X027000Y029830D02*
X026794Y030140D01*
X028374Y029640D02*
X028374Y029433D01*
X028477Y029330D01*
X028581Y029433D01*
X028581Y029640D01*
X028669Y029589D02*
X028720Y029640D01*
X028824Y029640D01*
X028875Y029589D01*
X029067Y029640D02*
X029067Y029330D01*
X029170Y029330D02*
X028963Y029330D01*
X028875Y029330D02*
X028669Y029537D01*
X028669Y029589D01*
X028669Y029330D02*
X028875Y029330D01*
X029170Y029537D02*
X029067Y029640D01*
X027920Y027890D02*
X027765Y027890D01*
X027713Y027839D01*
X027713Y027735D01*
X027765Y027683D01*
X027920Y027683D01*
X027920Y027580D02*
X027920Y027890D01*
X027817Y027683D02*
X027713Y027580D01*
X027625Y027580D02*
X027419Y027890D01*
X027625Y027890D02*
X027419Y027580D01*
X027170Y027632D02*
X027118Y027580D01*
X027015Y027580D01*
X026963Y027632D01*
X026963Y027735D01*
X027067Y027735D01*
X027170Y027632D02*
X027170Y027839D01*
X027118Y027890D01*
X027015Y027890D01*
X026963Y027839D01*
X026875Y027890D02*
X026669Y027580D01*
X026669Y027890D01*
X026581Y027890D02*
X026426Y027890D01*
X026374Y027839D01*
X026374Y027632D01*
X026426Y027580D01*
X026581Y027580D01*
X026581Y027890D01*
X026875Y027890D02*
X026875Y027580D01*
X025920Y027632D02*
X025868Y027580D01*
X025765Y027580D01*
X025713Y027632D01*
X025713Y027735D01*
X025817Y027735D01*
X025920Y027632D02*
X025920Y027839D01*
X025868Y027890D01*
X025765Y027890D01*
X025713Y027839D01*
X025625Y027890D02*
X025419Y027580D01*
X025419Y027890D01*
X025331Y027890D02*
X025176Y027890D01*
X025124Y027839D01*
X025124Y027632D01*
X025176Y027580D01*
X025331Y027580D01*
X025331Y027890D01*
X025625Y027890D02*
X025625Y027580D01*
X031374Y027632D02*
X031374Y027839D01*
X031426Y027890D01*
X031581Y027890D01*
X031581Y027580D01*
X031426Y027580D01*
X031374Y027632D01*
X031669Y027580D02*
X031669Y027890D01*
X031875Y027890D02*
X031669Y027580D01*
X031875Y027580D02*
X031875Y027890D01*
X031963Y027839D02*
X032015Y027890D01*
X032118Y027890D01*
X032170Y027839D01*
X032170Y027632D01*
X032118Y027580D01*
X032015Y027580D01*
X031963Y027632D01*
X031963Y027735D01*
X032067Y027735D01*
X032624Y027632D02*
X032624Y027839D01*
X032676Y027890D01*
X032831Y027890D01*
X032831Y027580D01*
X032676Y027580D01*
X032624Y027632D01*
X032919Y027580D02*
X032919Y027890D01*
X033125Y027890D02*
X032919Y027580D01*
X033125Y027580D02*
X033125Y027890D01*
X033213Y027839D02*
X033265Y027890D01*
X033368Y027890D01*
X033420Y027839D01*
X033420Y027632D01*
X033368Y027580D01*
X033265Y027580D01*
X033213Y027632D01*
X033213Y027735D01*
X033317Y027735D01*
X034124Y027580D02*
X034331Y027580D01*
X034331Y027890D01*
X034419Y027839D02*
X034470Y027890D01*
X034574Y027890D01*
X034625Y027839D01*
X034625Y027632D01*
X034574Y027580D01*
X034470Y027580D01*
X034419Y027632D01*
X034713Y027632D02*
X034765Y027580D01*
X034868Y027580D01*
X034920Y027632D01*
X034868Y027735D02*
X034765Y027735D01*
X034713Y027683D01*
X034713Y027632D01*
X034868Y027735D02*
X034920Y027787D01*
X034920Y027839D01*
X034868Y027890D01*
X034765Y027890D01*
X034713Y027839D01*
X034727Y029330D02*
X034624Y029433D01*
X034624Y029640D01*
X034831Y029640D02*
X034831Y029433D01*
X034727Y029330D01*
X034919Y029330D02*
X035125Y029330D01*
X034919Y029537D01*
X034919Y029589D01*
X034970Y029640D01*
X035074Y029640D01*
X035125Y029589D01*
X035317Y029640D02*
X035317Y029330D01*
X035420Y029330D02*
X035213Y029330D01*
X035420Y029537D02*
X035317Y029640D01*
X033545Y029882D02*
X033493Y029830D01*
X033390Y029830D01*
X033338Y029882D01*
X033338Y029933D01*
X033390Y029985D01*
X033493Y029985D01*
X033545Y030037D01*
X033545Y030089D01*
X033493Y030140D01*
X033390Y030140D01*
X033338Y030089D01*
X033250Y030140D02*
X033095Y030140D01*
X033044Y030089D01*
X033044Y029882D01*
X033095Y029830D01*
X033250Y029830D01*
X033250Y030140D01*
X032956Y030037D02*
X032852Y030140D01*
X032749Y030037D01*
X032749Y029830D01*
X032749Y029985D02*
X032956Y029985D01*
X032956Y030037D02*
X032956Y029830D01*
X031670Y029640D02*
X031670Y029485D01*
X031567Y029537D01*
X031515Y029537D01*
X031463Y029485D01*
X031463Y029382D01*
X031515Y029330D01*
X031618Y029330D01*
X031670Y029382D01*
X031670Y029640D02*
X031463Y029640D01*
X031375Y029640D02*
X031375Y029433D01*
X031272Y029330D01*
X031169Y029433D01*
X031169Y029640D01*
X004874Y014520D02*
X004849Y014545D01*
X004799Y014545D01*
X004774Y014520D01*
X004774Y014495D01*
X004799Y014470D01*
X004774Y014445D01*
X004774Y014420D01*
X004799Y014395D01*
X004849Y014395D01*
X004874Y014420D01*
X004824Y014470D02*
X004799Y014470D01*
X004726Y014420D02*
X004701Y014395D01*
X004651Y014395D01*
X004626Y014420D01*
X004626Y014445D01*
X004651Y014470D01*
X004676Y014470D01*
X004651Y014470D02*
X004626Y014495D01*
X004626Y014520D01*
X004651Y014545D01*
X004701Y014545D01*
X004726Y014520D01*
X004579Y014495D02*
X004579Y014420D01*
X004554Y014395D01*
X004479Y014395D01*
X004479Y014495D01*
X004432Y014470D02*
X004382Y014470D01*
X004432Y014395D02*
X004432Y014545D01*
X004332Y014545D01*
X004137Y014495D02*
X004087Y014545D01*
X004087Y014395D01*
X004137Y014395D02*
X004037Y014395D01*
X003990Y014420D02*
X003965Y014395D01*
X003915Y014395D01*
X003890Y014420D01*
X003890Y014520D01*
X003990Y014420D01*
X003990Y014520D01*
X003965Y014545D01*
X003915Y014545D01*
X003890Y014520D01*
X003842Y014545D02*
X003842Y014445D01*
X003792Y014395D01*
X003742Y014445D01*
X003742Y014545D01*
X004608Y003320D02*
X004608Y003010D01*
X004815Y003010D02*
X004815Y003320D01*
X004711Y003217D01*
X004608Y003320D01*
X004902Y003320D02*
X004902Y003010D01*
X005006Y003113D01*
X005109Y003010D01*
X005109Y003320D01*
X005197Y003269D02*
X005197Y003165D01*
X005249Y003113D01*
X005404Y003113D01*
X005404Y003010D02*
X005404Y003320D01*
X005249Y003320D01*
X005197Y003269D01*
X006108Y003269D02*
X006108Y003062D01*
X006160Y003010D01*
X006315Y003010D01*
X006315Y003320D01*
X006160Y003320D01*
X006108Y003269D01*
X006402Y003320D02*
X006402Y003010D01*
X006609Y003320D01*
X006609Y003010D01*
X006697Y003062D02*
X006697Y003165D01*
X006801Y003165D01*
X006904Y003062D02*
X006852Y003010D01*
X006749Y003010D01*
X006697Y003062D01*
X006697Y003269D02*
X006749Y003320D01*
X006852Y003320D01*
X006904Y003269D01*
X006904Y003062D01*
X007358Y003062D02*
X007358Y003269D01*
X007410Y003320D01*
X007565Y003320D01*
X007565Y003010D01*
X007410Y003010D01*
X007358Y003062D01*
X007652Y003010D02*
X007652Y003320D01*
X007859Y003320D02*
X007652Y003010D01*
X007859Y003010D02*
X007859Y003320D01*
X007947Y003269D02*
X007999Y003320D01*
X008102Y003320D01*
X008154Y003269D01*
X008154Y003062D01*
X008102Y003010D01*
X007999Y003010D01*
X007947Y003062D01*
X007947Y003165D01*
X008051Y003165D01*
X008065Y001570D02*
X008065Y001363D01*
X007961Y001260D01*
X007858Y001363D01*
X007858Y001570D01*
X008152Y001570D02*
X008359Y001570D01*
X008359Y001415D01*
X008256Y001467D01*
X008204Y001467D01*
X008152Y001415D01*
X008152Y001312D01*
X008204Y001260D01*
X008308Y001260D01*
X008359Y001312D01*
X006681Y001070D02*
X006577Y001070D01*
X006629Y001070D02*
X006629Y000760D01*
X006681Y000760D02*
X006577Y000760D01*
X006484Y000760D02*
X006277Y001070D01*
X006190Y001019D02*
X006190Y000812D01*
X006138Y000760D01*
X006035Y000760D01*
X005983Y000812D01*
X005983Y001019D01*
X006035Y001070D01*
X006138Y001070D01*
X006190Y001019D01*
X004904Y001260D02*
X004697Y001260D01*
X004609Y001260D02*
X004402Y001467D01*
X004402Y001519D01*
X004454Y001570D01*
X004558Y001570D01*
X004609Y001519D01*
X004801Y001570D02*
X004801Y001260D01*
X004609Y001260D02*
X004402Y001260D01*
X004315Y001363D02*
X004211Y001260D01*
X004108Y001363D01*
X004108Y001570D01*
X004315Y001570D02*
X004315Y001363D01*
X004801Y001570D02*
X004904Y001467D01*
X010858Y001363D02*
X010858Y001570D01*
X010858Y001363D02*
X010961Y001260D01*
X011065Y001363D01*
X011065Y001570D01*
X011152Y001519D02*
X011204Y001570D01*
X011308Y001570D01*
X011359Y001519D01*
X011551Y001570D02*
X011551Y001260D01*
X011654Y001260D02*
X011447Y001260D01*
X011359Y001260D02*
X011152Y001467D01*
X011152Y001519D01*
X011152Y001260D02*
X011359Y001260D01*
X011654Y001467D02*
X011551Y001570D01*
X012733Y001019D02*
X012733Y000812D01*
X012785Y000760D01*
X012888Y000760D01*
X012940Y000812D01*
X012940Y001019D01*
X012888Y001070D01*
X012785Y001070D01*
X012733Y001019D01*
X013027Y001070D02*
X013234Y000760D01*
X013327Y000760D02*
X013431Y000760D01*
X013379Y000760D02*
X013379Y001070D01*
X013431Y001070D02*
X013327Y001070D01*
X014608Y001363D02*
X014711Y001260D01*
X014815Y001363D01*
X014815Y001570D01*
X014902Y001570D02*
X015109Y001570D01*
X015109Y001415D01*
X015006Y001467D01*
X014954Y001467D01*
X014902Y001415D01*
X014902Y001312D01*
X014954Y001260D01*
X015058Y001260D01*
X015109Y001312D01*
X014608Y001363D02*
X014608Y001570D01*
X014609Y003010D02*
X014609Y003320D01*
X014402Y003010D01*
X014402Y003320D01*
X014315Y003320D02*
X014160Y003320D01*
X014108Y003269D01*
X014108Y003062D01*
X014160Y003010D01*
X014315Y003010D01*
X014315Y003320D01*
X014697Y003269D02*
X014749Y003320D01*
X014852Y003320D01*
X014904Y003269D01*
X014904Y003062D01*
X014852Y003010D01*
X014749Y003010D01*
X014697Y003062D01*
X014697Y003165D01*
X014801Y003165D01*
X013654Y003062D02*
X013602Y003010D01*
X013499Y003010D01*
X013447Y003062D01*
X013447Y003165D01*
X013551Y003165D01*
X013654Y003062D02*
X013654Y003269D01*
X013602Y003320D01*
X013499Y003320D01*
X013447Y003269D01*
X013359Y003320D02*
X013152Y003010D01*
X013152Y003320D01*
X013065Y003320D02*
X012910Y003320D01*
X012858Y003269D01*
X012858Y003062D01*
X012910Y003010D01*
X013065Y003010D01*
X013065Y003320D01*
X013359Y003320D02*
X013359Y003010D01*
X012154Y003010D02*
X012154Y003320D01*
X011999Y003320D01*
X011947Y003269D01*
X011947Y003165D01*
X011999Y003113D01*
X012154Y003113D01*
X011859Y003010D02*
X011756Y003113D01*
X011652Y003010D01*
X011652Y003320D01*
X011565Y003320D02*
X011461Y003217D01*
X011358Y003320D01*
X011358Y003010D01*
X011565Y003010D02*
X011565Y003320D01*
X011859Y003320D02*
X011859Y003010D01*
X017608Y001520D02*
X017608Y001313D01*
X017711Y001210D01*
X017815Y001313D01*
X017815Y001520D01*
X017902Y001469D02*
X017954Y001520D01*
X018058Y001520D01*
X018109Y001469D01*
X018301Y001520D02*
X018301Y001210D01*
X018404Y001210D02*
X018197Y001210D01*
X018109Y001210D02*
X017902Y001417D01*
X017902Y001469D01*
X017902Y001210D02*
X018109Y001210D01*
X018404Y001417D02*
X018301Y001520D01*
X019483Y000969D02*
X019483Y000762D01*
X019535Y000710D01*
X019638Y000710D01*
X019690Y000762D01*
X019690Y000969D01*
X019638Y001020D01*
X019535Y001020D01*
X019483Y000969D01*
X019777Y001020D02*
X019984Y000710D01*
X020077Y000710D02*
X020181Y000710D01*
X020129Y000710D02*
X020129Y001020D01*
X020181Y001020D02*
X020077Y001020D01*
X021358Y001313D02*
X021461Y001210D01*
X021565Y001313D01*
X021565Y001520D01*
X021652Y001520D02*
X021859Y001520D01*
X021859Y001365D01*
X021756Y001417D01*
X021704Y001417D01*
X021652Y001365D01*
X021652Y001262D01*
X021704Y001210D01*
X021808Y001210D01*
X021859Y001262D01*
X021358Y001313D02*
X021358Y001520D01*
X021359Y002960D02*
X021359Y003270D01*
X021152Y002960D01*
X021152Y003270D01*
X021065Y003270D02*
X020910Y003270D01*
X020858Y003219D01*
X020858Y003012D01*
X020910Y002960D01*
X021065Y002960D01*
X021065Y003270D01*
X021447Y003219D02*
X021499Y003270D01*
X021602Y003270D01*
X021654Y003219D01*
X021654Y003012D01*
X021602Y002960D01*
X021499Y002960D01*
X021447Y003012D01*
X021447Y003115D01*
X021551Y003115D01*
X020404Y003012D02*
X020352Y002960D01*
X020249Y002960D01*
X020197Y003012D01*
X020197Y003115D01*
X020301Y003115D01*
X020404Y003012D02*
X020404Y003219D01*
X020352Y003270D01*
X020249Y003270D01*
X020197Y003219D01*
X020109Y003270D02*
X019902Y002960D01*
X019902Y003270D01*
X019815Y003270D02*
X019660Y003270D01*
X019608Y003219D01*
X019608Y003012D01*
X019660Y002960D01*
X019815Y002960D01*
X019815Y003270D01*
X020109Y003270D02*
X020109Y002960D01*
X018904Y002960D02*
X018904Y003270D01*
X018749Y003270D01*
X018697Y003219D01*
X018697Y003115D01*
X018749Y003063D01*
X018904Y003063D01*
X018609Y002960D02*
X018609Y003270D01*
X018402Y003270D02*
X018402Y002960D01*
X018506Y003063D01*
X018609Y002960D01*
X018315Y002960D02*
X018315Y003270D01*
X018211Y003167D01*
X018108Y003270D01*
X018108Y002960D01*
X024408Y001520D02*
X024408Y001313D01*
X024511Y001210D01*
X024615Y001313D01*
X024615Y001520D01*
X024702Y001469D02*
X024754Y001520D01*
X024858Y001520D01*
X024909Y001469D01*
X025101Y001520D02*
X025101Y001210D01*
X025204Y001210D02*
X024997Y001210D01*
X024909Y001210D02*
X024702Y001417D01*
X024702Y001469D01*
X024702Y001210D02*
X024909Y001210D01*
X025204Y001417D02*
X025101Y001520D01*
X026283Y000969D02*
X026283Y000762D01*
X026335Y000710D01*
X026438Y000710D01*
X026490Y000762D01*
X026490Y000969D01*
X026438Y001020D01*
X026335Y001020D01*
X026283Y000969D01*
X026577Y001020D02*
X026784Y000710D01*
X026877Y000710D02*
X026981Y000710D01*
X026929Y000710D02*
X026929Y001020D01*
X026981Y001020D02*
X026877Y001020D01*
X028158Y001313D02*
X028261Y001210D01*
X028365Y001313D01*
X028365Y001520D01*
X028452Y001520D02*
X028659Y001520D01*
X028659Y001365D01*
X028556Y001417D01*
X028504Y001417D01*
X028452Y001365D01*
X028452Y001262D01*
X028504Y001210D01*
X028608Y001210D01*
X028659Y001262D01*
X028158Y001313D02*
X028158Y001520D01*
X028159Y002960D02*
X028159Y003270D01*
X027952Y002960D01*
X027952Y003270D01*
X027865Y003270D02*
X027865Y002960D01*
X027710Y002960D01*
X027658Y003012D01*
X027658Y003219D01*
X027710Y003270D01*
X027865Y003270D01*
X028247Y003219D02*
X028299Y003270D01*
X028402Y003270D01*
X028454Y003219D01*
X028454Y003012D01*
X028402Y002960D01*
X028299Y002960D01*
X028247Y003012D01*
X028247Y003115D01*
X028351Y003115D01*
X027204Y003012D02*
X027152Y002960D01*
X027049Y002960D01*
X026997Y003012D01*
X026997Y003115D01*
X027101Y003115D01*
X027204Y003012D02*
X027204Y003219D01*
X027152Y003270D01*
X027049Y003270D01*
X026997Y003219D01*
X026909Y003270D02*
X026702Y002960D01*
X026702Y003270D01*
X026615Y003270D02*
X026615Y002960D01*
X026460Y002960D01*
X026408Y003012D01*
X026408Y003219D01*
X026460Y003270D01*
X026615Y003270D01*
X026909Y003270D02*
X026909Y002960D01*
X025704Y002960D02*
X025704Y003270D01*
X025549Y003270D01*
X025497Y003219D01*
X025497Y003115D01*
X025549Y003063D01*
X025704Y003063D01*
X025409Y002960D02*
X025409Y003270D01*
X025202Y003270D02*
X025202Y002960D01*
X025306Y003063D01*
X025409Y002960D01*
X025115Y002960D02*
X025115Y003270D01*
X025011Y003167D01*
X024908Y003270D01*
X024908Y002960D01*
X031108Y001520D02*
X031108Y001313D01*
X031211Y001210D01*
X031315Y001313D01*
X031315Y001520D01*
X031402Y001469D02*
X031454Y001520D01*
X031558Y001520D01*
X031609Y001469D01*
X031801Y001520D02*
X031801Y001210D01*
X031904Y001210D02*
X031697Y001210D01*
X031609Y001210D02*
X031402Y001417D01*
X031402Y001469D01*
X031402Y001210D02*
X031609Y001210D01*
X031904Y001417D02*
X031801Y001520D01*
X032983Y000969D02*
X032983Y000762D01*
X033035Y000710D01*
X033138Y000710D01*
X033190Y000762D01*
X033190Y000969D01*
X033138Y001020D01*
X033035Y001020D01*
X032983Y000969D01*
X033277Y001020D02*
X033484Y000710D01*
X033577Y000710D02*
X033681Y000710D01*
X033629Y000710D02*
X033629Y001020D01*
X033681Y001020D02*
X033577Y001020D01*
X034858Y001313D02*
X034858Y001520D01*
X034858Y001313D02*
X034961Y001210D01*
X035065Y001313D01*
X035065Y001520D01*
X035152Y001520D02*
X035359Y001520D01*
X035359Y001365D01*
X035256Y001417D01*
X035204Y001417D01*
X035152Y001365D01*
X035152Y001262D01*
X035204Y001210D01*
X035308Y001210D01*
X035359Y001262D01*
X035102Y002960D02*
X034999Y002960D01*
X034947Y003012D01*
X034947Y003115D01*
X035051Y003115D01*
X035154Y003012D02*
X035102Y002960D01*
X035154Y003012D02*
X035154Y003219D01*
X035102Y003270D01*
X034999Y003270D01*
X034947Y003219D01*
X034859Y003270D02*
X034652Y002960D01*
X034652Y003270D01*
X034565Y003270D02*
X034410Y003270D01*
X034358Y003219D01*
X034358Y003012D01*
X034410Y002960D01*
X034565Y002960D01*
X034565Y003270D01*
X034859Y003270D02*
X034859Y002960D01*
X033904Y003012D02*
X033852Y002960D01*
X033749Y002960D01*
X033697Y003012D01*
X033697Y003115D01*
X033801Y003115D01*
X033904Y003012D02*
X033904Y003219D01*
X033852Y003270D01*
X033749Y003270D01*
X033697Y003219D01*
X033609Y003270D02*
X033402Y002960D01*
X033402Y003270D01*
X033315Y003270D02*
X033315Y002960D01*
X033160Y002960D01*
X033108Y003012D01*
X033108Y003219D01*
X033160Y003270D01*
X033315Y003270D01*
X033609Y003270D02*
X033609Y002960D01*
X032404Y002960D02*
X032404Y003270D01*
X032249Y003270D01*
X032197Y003219D01*
X032197Y003115D01*
X032249Y003063D01*
X032404Y003063D01*
X032109Y002960D02*
X032109Y003270D01*
X031902Y003270D02*
X031902Y002960D01*
X032006Y003063D01*
X032109Y002960D01*
X031815Y002960D02*
X031815Y003270D01*
X031711Y003167D01*
X031608Y003270D01*
X031608Y002960D01*
D13*
X030482Y006834D03*
X029618Y006834D03*
X023782Y006834D03*
X022818Y006834D03*
X016982Y006834D03*
X016068Y006884D03*
X010232Y006884D03*
X009318Y006884D03*
X003482Y006884D03*
X023882Y024016D03*
X029718Y024016D03*
X030132Y024016D03*
X035968Y024016D03*
X036318Y006834D03*
D14*
X036205Y006621D02*
X035991Y006621D01*
X035885Y006514D01*
X035991Y006300D02*
X035885Y006194D01*
X035885Y006087D01*
X035991Y005980D01*
X036205Y005980D01*
X036312Y006087D01*
X036205Y006300D02*
X035991Y006300D01*
X036205Y006300D02*
X036312Y006407D01*
X036312Y006514D01*
X036205Y006621D01*
X036529Y006514D02*
X036636Y006621D01*
X036849Y006621D01*
X036956Y006514D01*
X036529Y006514D02*
X036529Y006407D01*
X036956Y005980D01*
X036529Y005980D01*
X037174Y005980D02*
X037601Y005980D01*
X037387Y005980D02*
X037387Y006621D01*
X037601Y006407D01*
X037818Y006621D02*
X038032Y006621D01*
X037925Y006621D02*
X037925Y006087D01*
X038032Y005980D01*
X038138Y005980D01*
X038245Y006087D01*
X038463Y005980D02*
X038676Y006194D01*
X038569Y006194D02*
X038890Y006194D01*
X038890Y005980D02*
X038890Y006621D01*
X038569Y006621D01*
X038463Y006514D01*
X038463Y006300D01*
X038569Y006194D01*
X035667Y006621D02*
X035240Y006621D01*
X035453Y006621D02*
X035453Y005980D01*
X035022Y005980D02*
X035022Y006621D01*
X034702Y006621D01*
X034595Y006514D01*
X034595Y006300D01*
X034702Y006194D01*
X035022Y006194D01*
X034809Y006194D02*
X034595Y005980D01*
X034378Y005980D02*
X034378Y006407D01*
X034164Y006621D01*
X033951Y006407D01*
X033951Y005980D01*
X033733Y005980D02*
X033520Y005980D01*
X033627Y005980D02*
X033627Y006621D01*
X033733Y006621D02*
X033520Y006621D01*
X033304Y006514D02*
X033304Y006087D01*
X033197Y005980D01*
X032983Y005980D01*
X032877Y006087D01*
X032877Y006300D01*
X033090Y006300D01*
X032877Y006514D02*
X032983Y006621D01*
X033197Y006621D01*
X033304Y006514D01*
X032659Y006621D02*
X032659Y005980D01*
X032659Y006300D02*
X032232Y006300D01*
X032190Y006194D02*
X031869Y006194D01*
X031763Y006300D01*
X031763Y006514D01*
X031869Y006621D01*
X032190Y006621D01*
X032190Y005980D01*
X032232Y005980D02*
X032232Y006621D01*
X032015Y006621D02*
X031588Y006621D01*
X031801Y006621D02*
X031801Y005980D01*
X031763Y005980D02*
X031976Y006194D01*
X031545Y006087D02*
X031438Y005980D01*
X031332Y005980D01*
X031225Y006087D01*
X031225Y006621D01*
X031332Y006621D02*
X031118Y006621D01*
X030901Y006407D02*
X030687Y006621D01*
X030687Y005980D01*
X030474Y005980D02*
X030901Y005980D01*
X030256Y005980D02*
X029829Y006407D01*
X029829Y006514D01*
X029936Y006621D01*
X030149Y006621D01*
X030256Y006514D01*
X030256Y005980D02*
X029829Y005980D01*
X029612Y006087D02*
X029505Y005980D01*
X029291Y005980D01*
X029185Y006087D01*
X029185Y006194D01*
X029291Y006300D01*
X029505Y006300D01*
X029612Y006407D01*
X029612Y006514D01*
X029505Y006621D01*
X029291Y006621D01*
X029185Y006514D01*
X028967Y006621D02*
X028540Y006621D01*
X028753Y006621D02*
X028753Y005980D01*
X028322Y005980D02*
X028322Y006621D01*
X028002Y006621D01*
X027895Y006514D01*
X027895Y006300D01*
X028002Y006194D01*
X028322Y006194D01*
X028109Y006194D02*
X027895Y005980D01*
X027678Y005980D02*
X027678Y006407D01*
X027464Y006621D01*
X027251Y006407D01*
X027251Y005980D01*
X027033Y005980D02*
X026820Y005980D01*
X026927Y005980D02*
X026927Y006621D01*
X027033Y006621D02*
X026820Y006621D01*
X026604Y006514D02*
X026604Y006087D01*
X026497Y005980D01*
X026283Y005980D01*
X026177Y006087D01*
X026177Y006300D01*
X026390Y006300D01*
X026177Y006514D02*
X026283Y006621D01*
X026497Y006621D01*
X026604Y006514D01*
X025959Y006621D02*
X025959Y005980D01*
X025959Y006300D02*
X025532Y006300D01*
X025390Y006194D02*
X025069Y006194D01*
X024963Y006300D01*
X024963Y006514D01*
X025069Y006621D01*
X025390Y006621D01*
X025390Y005980D01*
X025532Y005980D02*
X025532Y006621D01*
X025315Y006621D02*
X024888Y006621D01*
X025101Y006621D02*
X025101Y005980D01*
X024963Y005980D02*
X025176Y006194D01*
X024745Y006087D02*
X024638Y005980D01*
X024532Y005980D01*
X024425Y006087D01*
X024425Y006621D01*
X024532Y006621D02*
X024318Y006621D01*
X024101Y006407D02*
X023887Y006621D01*
X023887Y005980D01*
X023674Y005980D02*
X024101Y005980D01*
X023456Y005980D02*
X023029Y006407D01*
X023029Y006514D01*
X023136Y006621D01*
X023349Y006621D01*
X023456Y006514D01*
X022812Y006514D02*
X022812Y006407D01*
X022705Y006300D01*
X022491Y006300D01*
X022385Y006194D01*
X022385Y006087D01*
X022491Y005980D01*
X022705Y005980D01*
X022812Y006087D01*
X023029Y005980D02*
X023456Y005980D01*
X022812Y006514D02*
X022705Y006621D01*
X022491Y006621D01*
X022385Y006514D01*
X022167Y006621D02*
X021740Y006621D01*
X021953Y006621D02*
X021953Y005980D01*
X021522Y005980D02*
X021522Y006621D01*
X021202Y006621D01*
X021095Y006514D01*
X021095Y006300D01*
X021202Y006194D01*
X021522Y006194D01*
X021309Y006194D02*
X021095Y005980D01*
X020878Y005980D02*
X020878Y006407D01*
X020664Y006621D01*
X020451Y006407D01*
X020451Y005980D01*
X020233Y005980D02*
X020020Y005980D01*
X020127Y005980D02*
X020127Y006621D01*
X020233Y006621D02*
X020020Y006621D01*
X019804Y006514D02*
X019804Y006087D01*
X019697Y005980D01*
X019483Y005980D01*
X019377Y006087D01*
X019377Y006300D01*
X019590Y006300D01*
X019377Y006514D02*
X019483Y006621D01*
X019697Y006621D01*
X019804Y006514D01*
X019159Y006621D02*
X019159Y005980D01*
X019159Y006300D02*
X018732Y006300D01*
X018640Y006244D02*
X018319Y006244D01*
X018213Y006350D01*
X018213Y006564D01*
X018319Y006671D01*
X018640Y006671D01*
X018640Y006030D01*
X018732Y005980D02*
X018732Y006621D01*
X018515Y006621D02*
X018088Y006621D01*
X018301Y006621D02*
X018301Y005980D01*
X018213Y006030D02*
X018426Y006244D01*
X017995Y006137D02*
X017888Y006030D01*
X017782Y006030D01*
X017675Y006137D01*
X017675Y006671D01*
X017782Y006671D02*
X017568Y006671D01*
X017351Y006457D02*
X017137Y006671D01*
X017137Y006030D01*
X016924Y006030D02*
X017351Y006030D01*
X016706Y006030D02*
X016279Y006457D01*
X016279Y006564D01*
X016386Y006671D01*
X016599Y006671D01*
X016706Y006564D01*
X016706Y006030D02*
X016279Y006030D01*
X016062Y006137D02*
X015955Y006030D01*
X015741Y006030D01*
X015635Y006137D01*
X015635Y006244D01*
X015741Y006350D01*
X015955Y006350D01*
X016062Y006457D01*
X016062Y006564D01*
X015955Y006671D01*
X015741Y006671D01*
X015635Y006564D01*
X015417Y006671D02*
X014990Y006671D01*
X015203Y006671D02*
X015203Y006030D01*
X014772Y006030D02*
X014772Y006671D01*
X014452Y006671D01*
X014345Y006564D01*
X014345Y006350D01*
X014452Y006244D01*
X014772Y006244D01*
X014559Y006244D02*
X014345Y006030D01*
X014128Y006030D02*
X014128Y006457D01*
X013914Y006671D01*
X013701Y006457D01*
X013701Y006030D01*
X013483Y006030D02*
X013270Y006030D01*
X013377Y006030D02*
X013377Y006671D01*
X013483Y006671D02*
X013270Y006671D01*
X013054Y006564D02*
X013054Y006137D01*
X012947Y006030D01*
X012733Y006030D01*
X012627Y006137D01*
X012627Y006350D01*
X012840Y006350D01*
X012627Y006564D02*
X012733Y006671D01*
X012947Y006671D01*
X013054Y006564D01*
X013701Y006350D02*
X014128Y006350D01*
X012409Y006350D02*
X011982Y006350D01*
X011890Y006244D02*
X011569Y006244D01*
X011463Y006350D01*
X011463Y006564D01*
X011569Y006671D01*
X011890Y006671D01*
X011890Y006030D01*
X011982Y006030D02*
X011982Y006671D01*
X011765Y006671D02*
X011338Y006671D01*
X011551Y006671D02*
X011551Y006030D01*
X011463Y006030D02*
X011676Y006244D01*
X011245Y006137D02*
X011138Y006030D01*
X011032Y006030D01*
X010925Y006137D01*
X010925Y006671D01*
X011032Y006671D02*
X010818Y006671D01*
X010601Y006457D02*
X010387Y006671D01*
X010387Y006030D01*
X010174Y006030D02*
X010601Y006030D01*
X009956Y006030D02*
X009529Y006457D01*
X009529Y006564D01*
X009636Y006671D01*
X009849Y006671D01*
X009956Y006564D01*
X009956Y006030D02*
X009529Y006030D01*
X009312Y006137D02*
X009205Y006030D01*
X008991Y006030D01*
X008885Y006137D01*
X008885Y006244D01*
X008991Y006350D01*
X009205Y006350D01*
X009312Y006457D01*
X009312Y006564D01*
X009205Y006671D01*
X008991Y006671D01*
X008885Y006564D01*
X008667Y006671D02*
X008240Y006671D01*
X008453Y006671D02*
X008453Y006030D01*
X008022Y006030D02*
X008022Y006671D01*
X007702Y006671D01*
X007595Y006564D01*
X007595Y006350D01*
X007702Y006244D01*
X008022Y006244D01*
X007809Y006244D02*
X007595Y006030D01*
X007378Y006030D02*
X007378Y006457D01*
X007164Y006671D01*
X006951Y006457D01*
X006951Y006030D01*
X006733Y006030D02*
X006520Y006030D01*
X006627Y006030D02*
X006627Y006671D01*
X006733Y006671D02*
X006520Y006671D01*
X006304Y006564D02*
X006304Y006137D01*
X006197Y006030D01*
X005983Y006030D01*
X005877Y006137D01*
X005877Y006350D01*
X006090Y006350D01*
X005877Y006564D02*
X005983Y006671D01*
X006197Y006671D01*
X006304Y006564D01*
X006951Y006350D02*
X007378Y006350D01*
X005659Y006350D02*
X005232Y006350D01*
X005232Y006030D02*
X005232Y006671D01*
X005015Y006671D02*
X004588Y006671D01*
X004801Y006671D02*
X004801Y006030D01*
X005659Y006030D02*
X005659Y006671D01*
X004650Y008525D02*
X001275Y008525D01*
X000900Y008525D01*
X000650Y008900D01*
X000650Y012400D01*
X000900Y012775D01*
X001275Y012775D01*
X001400Y012652D01*
X004650Y012652D01*
X004650Y008652D01*
X001400Y008652D01*
X001275Y008525D01*
X001275Y012775D01*
X004650Y012775D01*
X004650Y012652D01*
X001400Y012652D02*
X001400Y008652D01*
X004650Y008652D02*
X004650Y008525D01*
X008000Y008500D02*
X008045Y008502D01*
X008091Y008507D01*
X008135Y008515D01*
X008179Y008527D01*
X008222Y008543D01*
X008264Y008561D01*
X008304Y008583D01*
X008342Y008607D01*
X008378Y008634D01*
X008413Y008664D01*
X008444Y008697D01*
X008474Y008732D01*
X008000Y009700D02*
X007953Y009698D01*
X007905Y009692D01*
X007859Y009683D01*
X007813Y009670D01*
X007769Y009654D01*
X007725Y009633D01*
X007684Y009610D01*
X007645Y009584D01*
X007608Y009554D01*
X007573Y009521D01*
X007541Y009486D01*
X007512Y009449D01*
X008000Y009700D02*
X008046Y009698D01*
X008092Y009693D01*
X008138Y009684D01*
X008183Y009672D01*
X008226Y009656D01*
X008268Y009637D01*
X008309Y009614D01*
X008348Y009589D01*
X008384Y009561D01*
X008419Y009530D01*
X008451Y009496D01*
X008480Y009460D01*
X008000Y008500D02*
X007955Y008502D01*
X007909Y008507D01*
X007865Y008515D01*
X007821Y008527D01*
X007778Y008543D01*
X007736Y008561D01*
X007696Y008583D01*
X007658Y008607D01*
X007622Y008634D01*
X007587Y008664D01*
X007556Y008697D01*
X007526Y008732D01*
X012409Y006671D02*
X012409Y006030D01*
X015150Y008400D02*
X015195Y008402D01*
X015241Y008407D01*
X015285Y008415D01*
X015329Y008427D01*
X015372Y008443D01*
X015414Y008461D01*
X015454Y008483D01*
X015492Y008507D01*
X015528Y008534D01*
X015563Y008564D01*
X015594Y008597D01*
X015624Y008632D01*
X015150Y009600D02*
X015103Y009598D01*
X015055Y009592D01*
X015009Y009583D01*
X014963Y009570D01*
X014919Y009554D01*
X014875Y009533D01*
X014834Y009510D01*
X014795Y009484D01*
X014758Y009454D01*
X014723Y009421D01*
X014691Y009386D01*
X014662Y009349D01*
X015150Y009600D02*
X015196Y009598D01*
X015242Y009593D01*
X015288Y009584D01*
X015333Y009572D01*
X015376Y009556D01*
X015418Y009537D01*
X015459Y009514D01*
X015498Y009489D01*
X015534Y009461D01*
X015569Y009430D01*
X015601Y009396D01*
X015630Y009360D01*
X015150Y008400D02*
X015105Y008402D01*
X015059Y008407D01*
X015015Y008415D01*
X014971Y008427D01*
X014928Y008443D01*
X014886Y008461D01*
X014846Y008483D01*
X014808Y008507D01*
X014772Y008534D01*
X014737Y008564D01*
X014706Y008597D01*
X014676Y008632D01*
X020451Y006300D02*
X020878Y006300D01*
X021700Y008400D02*
X021745Y008402D01*
X021791Y008407D01*
X021835Y008415D01*
X021879Y008427D01*
X021922Y008443D01*
X021964Y008461D01*
X022004Y008483D01*
X022042Y008507D01*
X022078Y008534D01*
X022113Y008564D01*
X022144Y008597D01*
X022174Y008632D01*
X021700Y009600D02*
X021653Y009598D01*
X021605Y009592D01*
X021559Y009583D01*
X021513Y009570D01*
X021469Y009554D01*
X021425Y009533D01*
X021384Y009510D01*
X021345Y009484D01*
X021308Y009454D01*
X021273Y009421D01*
X021241Y009386D01*
X021212Y009349D01*
X021700Y009600D02*
X021746Y009598D01*
X021792Y009593D01*
X021838Y009584D01*
X021883Y009572D01*
X021926Y009556D01*
X021968Y009537D01*
X022009Y009514D01*
X022048Y009489D01*
X022084Y009461D01*
X022119Y009430D01*
X022151Y009396D01*
X022180Y009360D01*
X021700Y008400D02*
X021655Y008402D01*
X021609Y008407D01*
X021565Y008415D01*
X021521Y008427D01*
X021478Y008443D01*
X021436Y008461D01*
X021396Y008483D01*
X021358Y008507D01*
X021322Y008534D01*
X021287Y008564D01*
X021256Y008597D01*
X021226Y008632D01*
X027251Y006300D02*
X027678Y006300D01*
X028800Y008400D02*
X028845Y008402D01*
X028891Y008407D01*
X028935Y008415D01*
X028979Y008427D01*
X029022Y008443D01*
X029064Y008461D01*
X029104Y008483D01*
X029142Y008507D01*
X029178Y008534D01*
X029213Y008564D01*
X029244Y008597D01*
X029274Y008632D01*
X028800Y009600D02*
X028753Y009598D01*
X028705Y009592D01*
X028659Y009583D01*
X028613Y009570D01*
X028569Y009554D01*
X028525Y009533D01*
X028484Y009510D01*
X028445Y009484D01*
X028408Y009454D01*
X028373Y009421D01*
X028341Y009386D01*
X028312Y009349D01*
X028800Y009600D02*
X028846Y009598D01*
X028892Y009593D01*
X028938Y009584D01*
X028983Y009572D01*
X029026Y009556D01*
X029068Y009537D01*
X029109Y009514D01*
X029148Y009489D01*
X029184Y009461D01*
X029219Y009430D01*
X029251Y009396D01*
X029280Y009360D01*
X028800Y008400D02*
X028755Y008402D01*
X028709Y008407D01*
X028665Y008415D01*
X028621Y008427D01*
X028578Y008443D01*
X028536Y008461D01*
X028496Y008483D01*
X028458Y008507D01*
X028422Y008534D01*
X028387Y008564D01*
X028356Y008597D01*
X028326Y008632D01*
X033951Y006300D02*
X034378Y006300D01*
X035730Y009410D02*
X035701Y009446D01*
X035669Y009480D01*
X035634Y009511D01*
X035598Y009539D01*
X035559Y009564D01*
X035518Y009587D01*
X035476Y009606D01*
X035433Y009622D01*
X035388Y009634D01*
X035342Y009643D01*
X035296Y009648D01*
X035250Y009650D01*
X035724Y008682D02*
X035694Y008647D01*
X035663Y008614D01*
X035628Y008584D01*
X035592Y008557D01*
X035554Y008533D01*
X035514Y008511D01*
X035472Y008493D01*
X035429Y008477D01*
X035385Y008465D01*
X035341Y008457D01*
X035295Y008452D01*
X035250Y008450D01*
X034762Y009399D02*
X034791Y009436D01*
X034823Y009471D01*
X034858Y009504D01*
X034895Y009534D01*
X034934Y009560D01*
X034975Y009583D01*
X035019Y009604D01*
X035063Y009620D01*
X035109Y009633D01*
X035155Y009642D01*
X035203Y009648D01*
X035250Y009650D01*
X034776Y008682D02*
X034806Y008647D01*
X034837Y008614D01*
X034872Y008584D01*
X034908Y008557D01*
X034946Y008533D01*
X034986Y008511D01*
X035028Y008493D01*
X035071Y008477D01*
X035115Y008465D01*
X035159Y008457D01*
X035205Y008452D01*
X035250Y008450D01*
X035020Y024230D02*
X034806Y024230D01*
X034913Y024230D02*
X034913Y024871D01*
X035020Y024871D02*
X034806Y024871D01*
X034590Y024764D02*
X034484Y024871D01*
X034270Y024871D01*
X034163Y024764D01*
X034163Y024657D01*
X034590Y024230D01*
X034163Y024230D01*
X033946Y024337D02*
X033839Y024230D01*
X033625Y024230D01*
X033519Y024337D01*
X033946Y024337D02*
X033946Y024764D01*
X033839Y024871D01*
X033625Y024871D01*
X033519Y024764D01*
X028770Y024871D02*
X028770Y024230D01*
X028770Y024444D02*
X028450Y024444D01*
X028343Y024550D01*
X028343Y024764D01*
X028450Y024871D01*
X028770Y024871D01*
X028556Y024444D02*
X028343Y024230D01*
X028125Y024337D02*
X028019Y024230D01*
X027805Y024230D01*
X027698Y024337D01*
X027698Y024444D01*
X027805Y024550D01*
X028019Y024550D01*
X028125Y024657D01*
X028125Y024764D01*
X028019Y024871D01*
X027805Y024871D01*
X027698Y024764D01*
X027481Y024764D02*
X027374Y024871D01*
X027161Y024871D01*
X027054Y024764D01*
X027054Y024657D01*
X027481Y024230D01*
X027054Y024230D01*
X026836Y024337D02*
X026730Y024230D01*
X026516Y024230D01*
X026409Y024337D01*
X026409Y024444D01*
X026516Y024550D01*
X026623Y024550D01*
X026516Y024550D02*
X026409Y024657D01*
X026409Y024764D01*
X026516Y024871D01*
X026730Y024871D01*
X026836Y024764D01*
X026192Y024764D02*
X026085Y024871D01*
X025872Y024871D01*
X025765Y024764D01*
X025765Y024657D01*
X026192Y024230D01*
X025765Y024230D01*
X022400Y024950D02*
X022398Y024905D01*
X022393Y024859D01*
X022385Y024815D01*
X022373Y024771D01*
X022357Y024728D01*
X022339Y024686D01*
X022317Y024646D01*
X022293Y024608D01*
X022266Y024572D01*
X022236Y024537D01*
X022203Y024506D01*
X022168Y024476D01*
X022400Y024950D02*
X022398Y024995D01*
X022393Y025041D01*
X022385Y025085D01*
X022373Y025129D01*
X022357Y025172D01*
X022339Y025214D01*
X022317Y025254D01*
X022293Y025292D01*
X022266Y025328D01*
X022236Y025363D01*
X022203Y025394D01*
X022168Y025424D01*
X022199Y025398D02*
X022161Y025429D01*
X022121Y025457D01*
X022079Y025481D01*
X022036Y025502D01*
X021990Y025519D01*
X021944Y025532D01*
X021896Y025542D01*
X021848Y025548D01*
X021800Y025550D01*
X021754Y025548D01*
X021708Y025543D01*
X021662Y025534D01*
X021618Y025522D01*
X021574Y025506D01*
X021532Y025487D01*
X021491Y025465D01*
X021453Y025439D01*
X021416Y025411D01*
X021200Y024950D02*
X021202Y024903D01*
X021208Y024855D01*
X021217Y024809D01*
X021230Y024763D01*
X021246Y024719D01*
X021267Y024675D01*
X021290Y024634D01*
X021316Y024595D01*
X021346Y024558D01*
X021379Y024523D01*
X021414Y024491D01*
X021451Y024462D01*
X021200Y024950D02*
X021202Y024996D01*
X021207Y025042D01*
X021216Y025088D01*
X021228Y025133D01*
X021244Y025176D01*
X021263Y025218D01*
X021286Y025259D01*
X021311Y025298D01*
X021339Y025334D01*
X021370Y025369D01*
X021404Y025401D01*
X021440Y025430D01*
X022118Y026376D02*
X022153Y026406D01*
X022186Y026437D01*
X022216Y026472D01*
X022243Y026508D01*
X022267Y026546D01*
X022289Y026586D01*
X022307Y026628D01*
X022323Y026671D01*
X022335Y026715D01*
X022343Y026759D01*
X022348Y026805D01*
X022350Y026850D01*
X022149Y027298D02*
X022111Y027329D01*
X022071Y027357D01*
X022029Y027381D01*
X021986Y027402D01*
X021940Y027419D01*
X021894Y027432D01*
X021846Y027442D01*
X021798Y027448D01*
X021750Y027450D01*
X021704Y027448D01*
X021658Y027443D01*
X021612Y027434D01*
X021568Y027422D01*
X021524Y027406D01*
X021482Y027387D01*
X021441Y027365D01*
X021403Y027339D01*
X021366Y027311D01*
X021150Y026850D02*
X021152Y026803D01*
X021158Y026755D01*
X021167Y026709D01*
X021180Y026663D01*
X021196Y026619D01*
X021217Y026575D01*
X021240Y026534D01*
X021266Y026495D01*
X021296Y026458D01*
X021329Y026423D01*
X021364Y026391D01*
X021401Y026362D01*
X021150Y026850D02*
X021152Y026896D01*
X021157Y026942D01*
X021166Y026988D01*
X021178Y027033D01*
X021194Y027076D01*
X021213Y027118D01*
X021236Y027159D01*
X021261Y027198D01*
X021289Y027234D01*
X021320Y027269D01*
X021354Y027301D01*
X021390Y027330D01*
X022118Y027324D02*
X022153Y027294D01*
X022186Y027263D01*
X022216Y027228D01*
X022243Y027192D01*
X022267Y027154D01*
X022289Y027114D01*
X022307Y027072D01*
X022323Y027029D01*
X022335Y026985D01*
X022343Y026941D01*
X022348Y026895D01*
X022350Y026850D01*
X022068Y028226D02*
X022103Y028256D01*
X022136Y028287D01*
X022166Y028322D01*
X022193Y028358D01*
X022217Y028396D01*
X022239Y028436D01*
X022257Y028478D01*
X022273Y028521D01*
X022285Y028565D01*
X022293Y028609D01*
X022298Y028655D01*
X022300Y028700D01*
X022099Y029148D02*
X022061Y029179D01*
X022021Y029207D01*
X021979Y029231D01*
X021936Y029252D01*
X021890Y029269D01*
X021844Y029282D01*
X021796Y029292D01*
X021748Y029298D01*
X021700Y029300D01*
X021654Y029298D01*
X021608Y029293D01*
X021562Y029284D01*
X021518Y029272D01*
X021474Y029256D01*
X021432Y029237D01*
X021391Y029215D01*
X021353Y029189D01*
X021316Y029161D01*
X021100Y028700D02*
X021102Y028653D01*
X021108Y028605D01*
X021117Y028559D01*
X021130Y028513D01*
X021146Y028469D01*
X021167Y028425D01*
X021190Y028384D01*
X021216Y028345D01*
X021246Y028308D01*
X021279Y028273D01*
X021314Y028241D01*
X021351Y028212D01*
X021100Y028700D02*
X021102Y028746D01*
X021107Y028792D01*
X021116Y028838D01*
X021128Y028883D01*
X021144Y028926D01*
X021163Y028968D01*
X021186Y029009D01*
X021211Y029048D01*
X021239Y029084D01*
X021270Y029119D01*
X021304Y029151D01*
X021340Y029180D01*
X022068Y029174D02*
X022103Y029144D01*
X022136Y029113D01*
X022166Y029078D01*
X022193Y029042D01*
X022217Y029004D01*
X022239Y028964D01*
X022257Y028922D01*
X022273Y028879D01*
X022285Y028835D01*
X022293Y028791D01*
X022298Y028745D01*
X022300Y028700D01*
X019890Y028600D02*
X019890Y028000D01*
X019890Y027470D01*
X019550Y027470D01*
X018900Y027470D01*
X015900Y027470D01*
X015250Y027470D01*
X014900Y027470D01*
X014900Y028000D01*
X014900Y028600D01*
X014900Y029100D01*
X014900Y029700D01*
X014900Y030220D01*
X015250Y030220D01*
X015900Y030220D01*
X018900Y030220D01*
X019550Y030220D01*
X019890Y030220D01*
X019890Y029700D01*
X019890Y029100D01*
X019890Y028600D01*
X019550Y028600D01*
X019550Y029100D01*
X019890Y029100D01*
X019890Y029700D02*
X019550Y029700D01*
X019550Y030220D01*
X018900Y030220D02*
X018900Y030490D01*
X015900Y030490D01*
X015900Y030220D01*
X016400Y030100D02*
X016400Y030000D01*
X016400Y030100D02*
X016230Y029770D01*
X016570Y029770D01*
X016400Y030100D01*
X015792Y029570D02*
X015792Y029030D01*
X015972Y029030D02*
X015612Y029030D01*
X015250Y029100D02*
X015250Y028600D01*
X014900Y028600D01*
X014600Y028200D02*
X014600Y029700D01*
X014350Y029950D01*
X013850Y029950D01*
X013600Y029700D01*
X013600Y028200D01*
X013350Y027950D01*
X012850Y027950D01*
X012600Y028200D01*
X012600Y029700D01*
X012350Y029950D01*
X011850Y029950D01*
X011600Y029700D01*
X011600Y028200D01*
X011350Y027950D01*
X010850Y027950D01*
X010600Y028200D01*
X010600Y029700D01*
X010350Y029950D01*
X009850Y029950D01*
X009600Y029700D01*
X009350Y029950D01*
X008850Y029950D01*
X008600Y029700D01*
X008600Y028200D01*
X008850Y027950D01*
X009350Y027950D01*
X009600Y028200D01*
X009600Y029700D01*
X010600Y029700D02*
X010850Y029950D01*
X011350Y029950D01*
X011600Y029700D01*
X012600Y029700D02*
X012850Y029950D01*
X013350Y029950D01*
X013600Y029700D01*
X014900Y029700D02*
X015250Y029700D01*
X015250Y030220D01*
X015792Y029570D02*
X015972Y029390D01*
X015250Y029100D02*
X014900Y029100D01*
X014600Y028200D02*
X014350Y027950D01*
X013850Y027950D01*
X013600Y028200D01*
X012600Y028200D02*
X012350Y027950D01*
X011850Y027950D01*
X011600Y028200D01*
X010600Y028200D02*
X010350Y027950D01*
X009850Y027950D01*
X009600Y028200D01*
X014900Y028000D02*
X015250Y028000D01*
X015250Y027470D01*
X015900Y027470D02*
X015900Y025100D01*
X017400Y025600D01*
X018900Y025100D01*
X018900Y027470D01*
X019550Y027470D02*
X019550Y028000D01*
X019890Y028000D01*
X004400Y026450D02*
X004353Y026448D01*
X004305Y026442D01*
X004259Y026433D01*
X004213Y026420D01*
X004169Y026404D01*
X004125Y026383D01*
X004084Y026360D01*
X004045Y026334D01*
X004008Y026304D01*
X003973Y026271D01*
X003941Y026236D01*
X003912Y026199D01*
X004400Y025250D02*
X004445Y025252D01*
X004491Y025257D01*
X004535Y025265D01*
X004579Y025277D01*
X004622Y025293D01*
X004664Y025311D01*
X004704Y025333D01*
X004742Y025357D01*
X004778Y025384D01*
X004813Y025414D01*
X004844Y025447D01*
X004874Y025482D01*
X004400Y025250D02*
X004355Y025252D01*
X004309Y025257D01*
X004265Y025265D01*
X004221Y025277D01*
X004178Y025293D01*
X004136Y025311D01*
X004096Y025333D01*
X004058Y025357D01*
X004022Y025384D01*
X003987Y025414D01*
X003956Y025447D01*
X003926Y025482D01*
X004400Y026450D02*
X004446Y026448D01*
X004492Y026443D01*
X004538Y026434D01*
X004583Y026422D01*
X004626Y026406D01*
X004668Y026387D01*
X004709Y026364D01*
X004748Y026339D01*
X004784Y026311D01*
X004819Y026280D01*
X004851Y026246D01*
X004880Y026210D01*
X004400Y024750D02*
X004353Y024748D01*
X004305Y024742D01*
X004259Y024733D01*
X004213Y024720D01*
X004169Y024704D01*
X004125Y024683D01*
X004084Y024660D01*
X004045Y024634D01*
X004008Y024604D01*
X003973Y024571D01*
X003941Y024536D01*
X003912Y024499D01*
X004400Y023550D02*
X004445Y023552D01*
X004491Y023557D01*
X004535Y023565D01*
X004579Y023577D01*
X004622Y023593D01*
X004664Y023611D01*
X004704Y023633D01*
X004742Y023657D01*
X004778Y023684D01*
X004813Y023714D01*
X004844Y023747D01*
X004874Y023782D01*
X004400Y023550D02*
X004355Y023552D01*
X004309Y023557D01*
X004265Y023565D01*
X004221Y023577D01*
X004178Y023593D01*
X004136Y023611D01*
X004096Y023633D01*
X004058Y023657D01*
X004022Y023684D01*
X003987Y023714D01*
X003956Y023747D01*
X003926Y023782D01*
X004400Y024750D02*
X004446Y024748D01*
X004492Y024743D01*
X004538Y024734D01*
X004583Y024722D01*
X004626Y024706D01*
X004668Y024687D01*
X004709Y024664D01*
X004748Y024639D01*
X004784Y024611D01*
X004819Y024580D01*
X004851Y024546D01*
X004880Y024510D01*
X002600Y024750D02*
X002553Y024748D01*
X002505Y024742D01*
X002459Y024733D01*
X002413Y024720D01*
X002369Y024704D01*
X002325Y024683D01*
X002284Y024660D01*
X002245Y024634D01*
X002208Y024604D01*
X002173Y024571D01*
X002141Y024536D01*
X002112Y024499D01*
X002600Y023550D02*
X002645Y023552D01*
X002691Y023557D01*
X002735Y023565D01*
X002779Y023577D01*
X002822Y023593D01*
X002864Y023611D01*
X002904Y023633D01*
X002942Y023657D01*
X002978Y023684D01*
X003013Y023714D01*
X003044Y023747D01*
X003074Y023782D01*
X002600Y023550D02*
X002555Y023552D01*
X002509Y023557D01*
X002465Y023565D01*
X002421Y023577D01*
X002378Y023593D01*
X002336Y023611D01*
X002296Y023633D01*
X002258Y023657D01*
X002222Y023684D01*
X002187Y023714D01*
X002156Y023747D01*
X002126Y023782D01*
X002600Y024750D02*
X002646Y024748D01*
X002692Y024743D01*
X002738Y024734D01*
X002783Y024722D01*
X002826Y024706D01*
X002868Y024687D01*
X002909Y024664D01*
X002948Y024639D01*
X002984Y024611D01*
X003019Y024580D01*
X003051Y024546D01*
X003080Y024510D01*
X002112Y026149D02*
X002141Y026186D01*
X002173Y026221D01*
X002208Y026254D01*
X002245Y026284D01*
X002284Y026310D01*
X002325Y026333D01*
X002369Y026354D01*
X002413Y026370D01*
X002459Y026383D01*
X002505Y026392D01*
X002553Y026398D01*
X002600Y026400D01*
X003074Y025432D02*
X003044Y025397D01*
X003013Y025364D01*
X002978Y025334D01*
X002942Y025307D01*
X002904Y025283D01*
X002864Y025261D01*
X002822Y025243D01*
X002779Y025227D01*
X002735Y025215D01*
X002691Y025207D01*
X002645Y025202D01*
X002600Y025200D01*
X003080Y026160D02*
X003051Y026196D01*
X003019Y026230D01*
X002984Y026261D01*
X002948Y026289D01*
X002909Y026314D01*
X002868Y026337D01*
X002826Y026356D01*
X002783Y026372D01*
X002738Y026384D01*
X002692Y026393D01*
X002646Y026398D01*
X002600Y026400D01*
X002126Y025432D02*
X002156Y025397D01*
X002187Y025364D01*
X002222Y025334D01*
X002258Y025307D01*
X002296Y025283D01*
X002336Y025261D01*
X002378Y025243D01*
X002421Y025227D01*
X002465Y025215D01*
X002509Y025207D01*
X002555Y025202D01*
X002600Y025200D01*
D15*
X003306Y026176D02*
X003279Y026223D01*
X003249Y026268D01*
X003216Y026311D01*
X003180Y026351D01*
X003141Y026389D01*
X003100Y026424D01*
X003057Y026457D01*
X003012Y026486D01*
X002964Y026512D01*
X002915Y026535D01*
X002865Y026555D01*
X002814Y026571D01*
X002761Y026584D01*
X002708Y026593D01*
X002654Y026598D01*
X002600Y026600D01*
X003295Y025403D02*
X003265Y025355D01*
X003232Y025310D01*
X003196Y025267D01*
X003158Y025226D01*
X003116Y025189D01*
X003072Y025154D01*
X003026Y025123D01*
X002977Y025094D01*
X002927Y025070D01*
X002875Y025049D01*
X002821Y025031D01*
X002767Y025018D01*
X002712Y025008D01*
X002656Y025002D01*
X002600Y025000D01*
X002547Y025002D01*
X002493Y025007D01*
X002441Y025016D01*
X002389Y025028D01*
X002338Y025044D01*
X002288Y025063D01*
X002239Y025086D01*
X002192Y025112D01*
X002147Y025140D01*
X002104Y025172D01*
X002064Y025206D01*
X002025Y025244D01*
X001989Y025283D01*
X001985Y026312D02*
X002021Y026352D01*
X002060Y026390D01*
X002101Y026425D01*
X002144Y026457D01*
X002189Y026487D01*
X002236Y026513D01*
X002285Y026535D01*
X002336Y026555D01*
X002387Y026571D01*
X002439Y026584D01*
X002493Y026593D01*
X002546Y026598D01*
X002600Y026600D01*
X004400Y026650D02*
X004454Y026648D01*
X004508Y026643D01*
X004561Y026634D01*
X004614Y026621D01*
X004665Y026605D01*
X004715Y026585D01*
X004764Y026562D01*
X004812Y026536D01*
X004857Y026507D01*
X004900Y026474D01*
X004941Y026439D01*
X004980Y026401D01*
X005016Y026361D01*
X005049Y026318D01*
X005079Y026273D01*
X005106Y026226D01*
X005095Y025453D02*
X005065Y025405D01*
X005032Y025360D01*
X004996Y025317D01*
X004958Y025276D01*
X004916Y025239D01*
X004872Y025204D01*
X004826Y025173D01*
X004777Y025144D01*
X004727Y025120D01*
X004675Y025099D01*
X004621Y025081D01*
X004567Y025068D01*
X004512Y025058D01*
X004456Y025052D01*
X004400Y025050D01*
X004347Y025052D01*
X004293Y025057D01*
X004241Y025066D01*
X004189Y025078D01*
X004138Y025094D01*
X004088Y025113D01*
X004039Y025136D01*
X003992Y025162D01*
X003947Y025190D01*
X003904Y025222D01*
X003864Y025256D01*
X003825Y025294D01*
X003789Y025333D01*
X003785Y026362D02*
X003821Y026402D01*
X003860Y026440D01*
X003901Y026475D01*
X003944Y026507D01*
X003989Y026537D01*
X004036Y026563D01*
X004085Y026585D01*
X004136Y026605D01*
X004187Y026621D01*
X004239Y026634D01*
X004293Y026643D01*
X004346Y026648D01*
X004400Y026650D01*
X005095Y023753D02*
X005065Y023705D01*
X005032Y023660D01*
X004996Y023617D01*
X004958Y023576D01*
X004916Y023539D01*
X004872Y023504D01*
X004826Y023473D01*
X004777Y023444D01*
X004727Y023420D01*
X004675Y023399D01*
X004621Y023381D01*
X004567Y023368D01*
X004512Y023358D01*
X004456Y023352D01*
X004400Y023350D01*
X005106Y024526D02*
X005079Y024573D01*
X005049Y024618D01*
X005016Y024661D01*
X004980Y024701D01*
X004941Y024739D01*
X004900Y024774D01*
X004857Y024807D01*
X004812Y024836D01*
X004764Y024862D01*
X004715Y024885D01*
X004665Y024905D01*
X004614Y024921D01*
X004561Y024934D01*
X004508Y024943D01*
X004454Y024948D01*
X004400Y024950D01*
X003789Y023633D02*
X003825Y023594D01*
X003864Y023556D01*
X003904Y023522D01*
X003947Y023490D01*
X003992Y023462D01*
X004039Y023436D01*
X004088Y023413D01*
X004138Y023394D01*
X004189Y023378D01*
X004241Y023366D01*
X004293Y023357D01*
X004347Y023352D01*
X004400Y023350D01*
X003785Y024662D02*
X003821Y024702D01*
X003860Y024740D01*
X003901Y024775D01*
X003944Y024807D01*
X003989Y024837D01*
X004036Y024863D01*
X004085Y024885D01*
X004136Y024905D01*
X004187Y024921D01*
X004239Y024934D01*
X004293Y024943D01*
X004346Y024948D01*
X004400Y024950D01*
X003295Y023753D02*
X003265Y023705D01*
X003232Y023660D01*
X003196Y023617D01*
X003158Y023576D01*
X003116Y023539D01*
X003072Y023504D01*
X003026Y023473D01*
X002977Y023444D01*
X002927Y023420D01*
X002875Y023399D01*
X002821Y023381D01*
X002767Y023368D01*
X002712Y023358D01*
X002656Y023352D01*
X002600Y023350D01*
X003306Y024526D02*
X003279Y024573D01*
X003249Y024618D01*
X003216Y024661D01*
X003180Y024701D01*
X003141Y024739D01*
X003100Y024774D01*
X003057Y024807D01*
X003012Y024836D01*
X002964Y024862D01*
X002915Y024885D01*
X002865Y024905D01*
X002814Y024921D01*
X002761Y024934D01*
X002708Y024943D01*
X002654Y024948D01*
X002600Y024950D01*
X001989Y023633D02*
X002025Y023594D01*
X002064Y023556D01*
X002104Y023522D01*
X002147Y023490D01*
X002192Y023462D01*
X002239Y023436D01*
X002288Y023413D01*
X002338Y023394D01*
X002389Y023378D01*
X002441Y023366D01*
X002493Y023357D01*
X002547Y023352D01*
X002600Y023350D01*
X001985Y024662D02*
X002021Y024702D01*
X002060Y024740D01*
X002101Y024775D01*
X002144Y024807D01*
X002189Y024837D01*
X002236Y024863D01*
X002285Y024885D01*
X002336Y024905D01*
X002387Y024921D01*
X002439Y024934D01*
X002493Y024943D01*
X002546Y024948D01*
X002600Y024950D01*
X021250Y026230D02*
X022250Y026230D01*
X021750Y027650D02*
X021694Y027648D01*
X021637Y027642D01*
X021582Y027632D01*
X021527Y027618D01*
X021474Y027601D01*
X021421Y027579D01*
X021371Y027554D01*
X021200Y028080D02*
X022200Y028080D01*
X021700Y029500D02*
X021644Y029498D01*
X021587Y029492D01*
X021532Y029482D01*
X021477Y029468D01*
X021424Y029451D01*
X021371Y029429D01*
X021321Y029404D01*
X021700Y029500D02*
X021755Y029498D01*
X021810Y029492D01*
X021864Y029483D01*
X021918Y029470D01*
X021970Y029453D01*
X022022Y029433D01*
X022071Y029409D01*
X022119Y029381D01*
X021750Y027650D02*
X021805Y027648D01*
X021860Y027642D01*
X021914Y027633D01*
X021968Y027620D01*
X022020Y027603D01*
X022072Y027583D01*
X022121Y027559D01*
X022169Y027531D01*
X021800Y025750D02*
X021855Y025748D01*
X021910Y025742D01*
X021964Y025733D01*
X022018Y025720D01*
X022070Y025703D01*
X022122Y025683D01*
X022171Y025659D01*
X022219Y025631D01*
X021800Y025750D02*
X021744Y025748D01*
X021687Y025742D01*
X021632Y025732D01*
X021577Y025718D01*
X021524Y025701D01*
X021471Y025679D01*
X021421Y025654D01*
X021300Y024330D02*
X022300Y024330D01*
X022395Y008603D02*
X022365Y008555D01*
X022332Y008510D01*
X022296Y008467D01*
X022258Y008426D01*
X022216Y008389D01*
X022172Y008354D01*
X022126Y008323D01*
X022077Y008294D01*
X022027Y008270D01*
X021975Y008249D01*
X021921Y008231D01*
X021867Y008218D01*
X021812Y008208D01*
X021756Y008202D01*
X021700Y008200D01*
X022406Y009376D02*
X022379Y009423D01*
X022349Y009468D01*
X022316Y009511D01*
X022280Y009551D01*
X022241Y009589D01*
X022200Y009624D01*
X022157Y009657D01*
X022112Y009686D01*
X022064Y009712D01*
X022015Y009735D01*
X021965Y009755D01*
X021914Y009771D01*
X021861Y009784D01*
X021808Y009793D01*
X021754Y009798D01*
X021700Y009800D01*
X021089Y008483D02*
X021125Y008444D01*
X021164Y008406D01*
X021204Y008372D01*
X021247Y008340D01*
X021292Y008312D01*
X021339Y008286D01*
X021388Y008263D01*
X021438Y008244D01*
X021489Y008228D01*
X021541Y008216D01*
X021593Y008207D01*
X021647Y008202D01*
X021700Y008200D01*
X021085Y009512D02*
X021121Y009552D01*
X021160Y009590D01*
X021201Y009625D01*
X021244Y009657D01*
X021289Y009687D01*
X021336Y009713D01*
X021385Y009735D01*
X021436Y009755D01*
X021487Y009771D01*
X021539Y009784D01*
X021593Y009793D01*
X021646Y009798D01*
X021700Y009800D01*
X015845Y008603D02*
X015815Y008555D01*
X015782Y008510D01*
X015746Y008467D01*
X015708Y008426D01*
X015666Y008389D01*
X015622Y008354D01*
X015576Y008323D01*
X015527Y008294D01*
X015477Y008270D01*
X015425Y008249D01*
X015371Y008231D01*
X015317Y008218D01*
X015262Y008208D01*
X015206Y008202D01*
X015150Y008200D01*
X015856Y009376D02*
X015829Y009423D01*
X015799Y009468D01*
X015766Y009511D01*
X015730Y009551D01*
X015691Y009589D01*
X015650Y009624D01*
X015607Y009657D01*
X015562Y009686D01*
X015514Y009712D01*
X015465Y009735D01*
X015415Y009755D01*
X015364Y009771D01*
X015311Y009784D01*
X015258Y009793D01*
X015204Y009798D01*
X015150Y009800D01*
X014539Y008483D02*
X014575Y008444D01*
X014614Y008406D01*
X014654Y008372D01*
X014697Y008340D01*
X014742Y008312D01*
X014789Y008286D01*
X014838Y008263D01*
X014888Y008244D01*
X014939Y008228D01*
X014991Y008216D01*
X015043Y008207D01*
X015097Y008202D01*
X015150Y008200D01*
X014535Y009512D02*
X014571Y009552D01*
X014610Y009590D01*
X014651Y009625D01*
X014694Y009657D01*
X014739Y009687D01*
X014786Y009713D01*
X014835Y009735D01*
X014886Y009755D01*
X014937Y009771D01*
X014989Y009784D01*
X015043Y009793D01*
X015096Y009798D01*
X015150Y009800D01*
X008695Y008703D02*
X008665Y008655D01*
X008632Y008610D01*
X008596Y008567D01*
X008558Y008526D01*
X008516Y008489D01*
X008472Y008454D01*
X008426Y008423D01*
X008377Y008394D01*
X008327Y008370D01*
X008275Y008349D01*
X008221Y008331D01*
X008167Y008318D01*
X008112Y008308D01*
X008056Y008302D01*
X008000Y008300D01*
X008706Y009476D02*
X008679Y009523D01*
X008649Y009568D01*
X008616Y009611D01*
X008580Y009651D01*
X008541Y009689D01*
X008500Y009724D01*
X008457Y009757D01*
X008412Y009786D01*
X008364Y009812D01*
X008315Y009835D01*
X008265Y009855D01*
X008214Y009871D01*
X008161Y009884D01*
X008108Y009893D01*
X008054Y009898D01*
X008000Y009900D01*
X007389Y008583D02*
X007425Y008544D01*
X007464Y008506D01*
X007504Y008472D01*
X007547Y008440D01*
X007592Y008412D01*
X007639Y008386D01*
X007688Y008363D01*
X007738Y008344D01*
X007789Y008328D01*
X007841Y008316D01*
X007893Y008307D01*
X007947Y008302D01*
X008000Y008300D01*
X007385Y009612D02*
X007421Y009652D01*
X007460Y009690D01*
X007501Y009725D01*
X007544Y009757D01*
X007589Y009787D01*
X007636Y009813D01*
X007685Y009835D01*
X007736Y009855D01*
X007787Y009871D01*
X007839Y009884D01*
X007893Y009893D01*
X007946Y009898D01*
X008000Y009900D01*
X028800Y009800D02*
X028854Y009798D01*
X028908Y009793D01*
X028961Y009784D01*
X029014Y009771D01*
X029065Y009755D01*
X029115Y009735D01*
X029164Y009712D01*
X029212Y009686D01*
X029257Y009657D01*
X029300Y009624D01*
X029341Y009589D01*
X029380Y009551D01*
X029416Y009511D01*
X029449Y009468D01*
X029479Y009423D01*
X029506Y009376D01*
X029495Y008603D02*
X029465Y008555D01*
X029432Y008510D01*
X029396Y008467D01*
X029358Y008426D01*
X029316Y008389D01*
X029272Y008354D01*
X029226Y008323D01*
X029177Y008294D01*
X029127Y008270D01*
X029075Y008249D01*
X029021Y008231D01*
X028967Y008218D01*
X028912Y008208D01*
X028856Y008202D01*
X028800Y008200D01*
X028747Y008202D01*
X028693Y008207D01*
X028641Y008216D01*
X028589Y008228D01*
X028538Y008244D01*
X028488Y008263D01*
X028439Y008286D01*
X028392Y008312D01*
X028347Y008340D01*
X028304Y008372D01*
X028264Y008406D01*
X028225Y008444D01*
X028189Y008483D01*
X028185Y009512D02*
X028221Y009552D01*
X028260Y009590D01*
X028301Y009625D01*
X028344Y009657D01*
X028389Y009687D01*
X028436Y009713D01*
X028485Y009735D01*
X028536Y009755D01*
X028587Y009771D01*
X028639Y009784D01*
X028693Y009793D01*
X028746Y009798D01*
X028800Y009800D01*
X035250Y009850D02*
X035304Y009848D01*
X035358Y009843D01*
X035411Y009834D01*
X035464Y009821D01*
X035515Y009805D01*
X035565Y009785D01*
X035614Y009762D01*
X035662Y009736D01*
X035707Y009707D01*
X035750Y009674D01*
X035791Y009639D01*
X035830Y009601D01*
X035866Y009561D01*
X035899Y009518D01*
X035929Y009473D01*
X035956Y009426D01*
X035945Y008653D02*
X035915Y008605D01*
X035882Y008560D01*
X035846Y008517D01*
X035808Y008476D01*
X035766Y008439D01*
X035722Y008404D01*
X035676Y008373D01*
X035627Y008344D01*
X035577Y008320D01*
X035525Y008299D01*
X035471Y008281D01*
X035417Y008268D01*
X035362Y008258D01*
X035306Y008252D01*
X035250Y008250D01*
X035197Y008252D01*
X035143Y008257D01*
X035091Y008266D01*
X035039Y008278D01*
X034988Y008294D01*
X034938Y008313D01*
X034889Y008336D01*
X034842Y008362D01*
X034797Y008390D01*
X034754Y008422D01*
X034714Y008456D01*
X034675Y008494D01*
X034639Y008533D01*
X034635Y009562D02*
X034671Y009602D01*
X034710Y009640D01*
X034751Y009675D01*
X034794Y009707D01*
X034839Y009737D01*
X034886Y009763D01*
X034935Y009785D01*
X034986Y009805D01*
X035037Y009821D01*
X035089Y009834D01*
X035143Y009843D01*
X035196Y009848D01*
X035250Y009850D01*
D16*
X035440Y008575D02*
X035440Y008125D01*
X035515Y008125D02*
X035364Y008125D01*
X035208Y008200D02*
X035208Y008425D01*
X035208Y008200D02*
X035133Y008125D01*
X034907Y008125D01*
X034907Y008425D01*
X034747Y008350D02*
X034672Y008425D01*
X034522Y008425D01*
X034447Y008350D01*
X034447Y008275D01*
X034747Y008275D01*
X034747Y008200D02*
X034747Y008350D01*
X034747Y008200D02*
X034672Y008125D01*
X034522Y008125D01*
X035440Y008575D02*
X035515Y008575D01*
X035675Y008500D02*
X035675Y008425D01*
X035750Y008350D01*
X035975Y008350D01*
X035975Y008125D02*
X035975Y008575D01*
X035750Y008575D01*
X035675Y008500D01*
X035750Y008350D02*
X035675Y008275D01*
X035675Y008200D01*
X035750Y008125D01*
X035975Y008125D01*
X029575Y008125D02*
X029350Y008125D01*
X029275Y008200D01*
X029275Y008275D01*
X029350Y008350D01*
X029575Y008350D01*
X029575Y008125D02*
X029575Y008575D01*
X029350Y008575D01*
X029275Y008500D01*
X029275Y008425D01*
X029350Y008350D01*
X029115Y008125D02*
X028964Y008125D01*
X029040Y008125D02*
X029040Y008575D01*
X029115Y008575D01*
X028808Y008425D02*
X028808Y008200D01*
X028733Y008125D01*
X028507Y008125D01*
X028507Y008425D01*
X028347Y008350D02*
X028272Y008425D01*
X028122Y008425D01*
X028047Y008350D01*
X028047Y008275D01*
X028347Y008275D01*
X028347Y008200D02*
X028347Y008350D01*
X028347Y008200D02*
X028272Y008125D01*
X028122Y008125D01*
X026150Y008908D02*
X026150Y009905D01*
X026149Y009905D02*
X026147Y009924D01*
X026142Y009943D01*
X026134Y009961D01*
X026123Y009976D01*
X026109Y009990D01*
X026094Y010001D01*
X026076Y010009D01*
X026057Y010014D01*
X026038Y010016D01*
X023862Y010016D01*
X023843Y010014D01*
X023824Y010009D01*
X023807Y010001D01*
X023791Y009990D01*
X023777Y009976D01*
X023766Y009961D01*
X023758Y009943D01*
X023753Y009924D01*
X023751Y009905D01*
X023750Y009905D02*
X023750Y008872D01*
X023752Y008855D01*
X023757Y008838D01*
X023765Y008823D01*
X023776Y008810D01*
X023789Y008799D01*
X023804Y008791D01*
X023821Y008786D01*
X023838Y008784D01*
X026025Y008784D01*
X026044Y008786D01*
X026063Y008790D01*
X026081Y008798D01*
X026098Y008808D01*
X026113Y008820D01*
X026125Y008835D01*
X026135Y008852D01*
X026143Y008870D01*
X026147Y008889D01*
X026149Y008908D01*
X025953Y009099D02*
X025953Y009701D01*
X025952Y009701D02*
X025950Y009723D01*
X025946Y009745D01*
X025938Y009766D01*
X025927Y009786D01*
X025914Y009804D01*
X025898Y009820D01*
X025880Y009833D01*
X025860Y009844D01*
X025839Y009852D01*
X025817Y009856D01*
X025795Y009858D01*
X025795Y009859D02*
X024105Y009859D01*
X024105Y009858D02*
X024083Y009856D01*
X024061Y009852D01*
X024040Y009844D01*
X024020Y009833D01*
X024002Y009820D01*
X023986Y009804D01*
X023973Y009786D01*
X023962Y009766D01*
X023954Y009745D01*
X023950Y009723D01*
X023948Y009701D01*
X023947Y009701D02*
X023947Y009099D01*
X023949Y009073D01*
X023954Y009048D01*
X023962Y009024D01*
X023973Y009001D01*
X023988Y008979D01*
X024005Y008960D01*
X024024Y008943D01*
X024046Y008928D01*
X024069Y008917D01*
X024093Y008909D01*
X024118Y008904D01*
X024144Y008902D01*
X025795Y008902D01*
X025796Y008902D02*
X025821Y008907D01*
X025845Y008915D01*
X025867Y008926D01*
X025888Y008941D01*
X025907Y008958D01*
X025923Y008978D01*
X025935Y009000D01*
X025945Y009023D01*
X025951Y009048D01*
X025954Y009073D01*
X025953Y009099D01*
X022425Y008675D02*
X022425Y008225D01*
X022200Y008225D01*
X022125Y008300D01*
X022125Y008375D01*
X022200Y008450D01*
X022425Y008450D01*
X022200Y008450D02*
X022125Y008525D01*
X022125Y008600D01*
X022200Y008675D01*
X022425Y008675D01*
X021965Y008675D02*
X021965Y008225D01*
X021664Y008225D01*
X021504Y008300D02*
X021504Y008525D01*
X021504Y008300D02*
X021429Y008225D01*
X021204Y008225D01*
X021204Y008525D01*
X021044Y008450D02*
X021044Y008300D01*
X020969Y008225D01*
X020819Y008225D01*
X020744Y008375D02*
X021044Y008375D01*
X021044Y008450D02*
X020969Y008525D01*
X020819Y008525D01*
X020744Y008450D01*
X020744Y008375D01*
X015975Y008350D02*
X015750Y008350D01*
X015675Y008275D01*
X015675Y008200D01*
X015750Y008125D01*
X015975Y008125D01*
X015975Y008575D01*
X015750Y008575D01*
X015675Y008500D01*
X015675Y008425D01*
X015750Y008350D01*
X015515Y008125D02*
X015364Y008125D01*
X015440Y008125D02*
X015440Y008575D01*
X015515Y008575D01*
X015208Y008425D02*
X015208Y008200D01*
X015133Y008125D01*
X014907Y008125D01*
X014907Y008425D01*
X014747Y008350D02*
X014672Y008425D01*
X014522Y008425D01*
X014447Y008350D01*
X014447Y008275D01*
X014747Y008275D01*
X014747Y008200D02*
X014747Y008350D01*
X014747Y008200D02*
X014672Y008125D01*
X014522Y008125D01*
X008725Y008225D02*
X008500Y008225D01*
X008425Y008300D01*
X008425Y008375D01*
X008500Y008450D01*
X008725Y008450D01*
X008725Y008225D02*
X008725Y008675D01*
X008500Y008675D01*
X008425Y008600D01*
X008425Y008525D01*
X008500Y008450D01*
X008265Y008225D02*
X008114Y008225D01*
X008190Y008225D02*
X008190Y008675D01*
X008265Y008675D01*
X007958Y008525D02*
X007958Y008300D01*
X007883Y008225D01*
X007657Y008225D01*
X007657Y008525D01*
X007497Y008450D02*
X007422Y008525D01*
X007272Y008525D01*
X007197Y008450D01*
X007197Y008375D01*
X007497Y008375D01*
X007497Y008300D02*
X007497Y008450D01*
X007497Y008300D02*
X007422Y008225D01*
X007272Y008225D01*
X007376Y010475D02*
X007076Y010475D01*
X006916Y010475D02*
X006916Y010925D01*
X006766Y010775D01*
X006616Y010925D01*
X006616Y010475D01*
X006456Y010550D02*
X006381Y010475D01*
X006230Y010475D01*
X006155Y010550D01*
X006155Y010625D01*
X006230Y010700D01*
X006306Y010700D01*
X006230Y010700D02*
X006155Y010775D01*
X006155Y010850D01*
X006230Y010925D01*
X006381Y010925D01*
X006456Y010850D01*
X005995Y010850D02*
X005920Y010925D01*
X005770Y010925D01*
X005695Y010850D01*
X005695Y010550D01*
X005770Y010475D01*
X005920Y010475D01*
X005995Y010550D01*
X005920Y010700D02*
X005695Y010700D01*
X005535Y010700D02*
X005235Y010700D01*
X005074Y010550D02*
X004774Y010850D01*
X004774Y010550D01*
X004849Y010475D01*
X004999Y010475D01*
X005074Y010550D01*
X005074Y010850D01*
X004999Y010925D01*
X004849Y010925D01*
X004774Y010850D01*
X004614Y010925D02*
X004464Y010925D01*
X004539Y010925D02*
X004539Y010475D01*
X004614Y010475D02*
X004464Y010475D01*
X004307Y010550D02*
X004232Y010475D01*
X004082Y010475D01*
X004007Y010550D01*
X004007Y010625D01*
X004082Y010700D01*
X004232Y010700D01*
X004307Y010775D01*
X004307Y010850D01*
X004232Y010925D01*
X004082Y010925D01*
X004007Y010850D01*
X003847Y010700D02*
X003547Y010700D01*
X003386Y010550D02*
X003311Y010475D01*
X003161Y010475D01*
X003086Y010550D01*
X003086Y010625D01*
X003161Y010700D01*
X003236Y010700D01*
X003161Y010700D02*
X003086Y010775D01*
X003086Y010850D01*
X003161Y010925D01*
X003311Y010925D01*
X003386Y010850D01*
X002926Y010550D02*
X002851Y010550D01*
X002851Y010475D01*
X002926Y010475D01*
X002926Y010550D01*
X002696Y010550D02*
X002621Y010475D01*
X002471Y010475D01*
X002396Y010550D01*
X002396Y010625D01*
X002471Y010700D01*
X002546Y010700D01*
X002471Y010700D02*
X002396Y010775D01*
X002396Y010850D01*
X002471Y010925D01*
X002621Y010925D01*
X002696Y010850D01*
X002235Y010925D02*
X002235Y010475D01*
X002235Y010700D02*
X002085Y010700D01*
X002235Y010925D02*
X001935Y010925D01*
X005310Y010925D02*
X005310Y010475D01*
X005535Y010700D02*
X005310Y010925D01*
X005920Y010700D02*
X005995Y010775D01*
X005995Y010850D01*
X007376Y010925D02*
X007376Y010475D01*
X006837Y015750D02*
X001326Y015750D01*
X001326Y021971D01*
X006837Y021971D01*
X006837Y015750D01*
X014850Y020895D02*
X014850Y021892D01*
X014851Y021892D02*
X014853Y021911D01*
X014857Y021930D01*
X014865Y021948D01*
X014875Y021965D01*
X014887Y021980D01*
X014902Y021992D01*
X014919Y022002D01*
X014937Y022010D01*
X014956Y022014D01*
X014975Y022016D01*
X017162Y022016D01*
X017179Y022014D01*
X017196Y022009D01*
X017211Y022001D01*
X017224Y021990D01*
X017235Y021977D01*
X017243Y021962D01*
X017248Y021945D01*
X017250Y021928D01*
X017250Y020895D01*
X017249Y020895D02*
X017247Y020876D01*
X017242Y020857D01*
X017234Y020840D01*
X017223Y020824D01*
X017209Y020810D01*
X017194Y020799D01*
X017176Y020791D01*
X017157Y020786D01*
X017138Y020784D01*
X014962Y020784D01*
X014943Y020786D01*
X014924Y020791D01*
X014907Y020799D01*
X014891Y020810D01*
X014877Y020824D01*
X014866Y020840D01*
X014858Y020857D01*
X014853Y020876D01*
X014851Y020895D01*
X015047Y021099D02*
X015047Y021701D01*
X015046Y021727D01*
X015049Y021752D01*
X015055Y021777D01*
X015065Y021800D01*
X015077Y021822D01*
X015093Y021842D01*
X015112Y021859D01*
X015133Y021874D01*
X015155Y021885D01*
X015179Y021893D01*
X015204Y021898D01*
X015205Y021898D02*
X016856Y021898D01*
X016882Y021896D01*
X016907Y021891D01*
X016931Y021883D01*
X016955Y021872D01*
X016976Y021857D01*
X016995Y021840D01*
X017012Y021821D01*
X017027Y021800D01*
X017038Y021776D01*
X017046Y021752D01*
X017051Y021727D01*
X017053Y021701D01*
X017053Y021099D01*
X017052Y021099D02*
X017050Y021077D01*
X017046Y021055D01*
X017038Y021034D01*
X017027Y021014D01*
X017014Y020996D01*
X016998Y020980D01*
X016980Y020967D01*
X016960Y020956D01*
X016939Y020948D01*
X016917Y020944D01*
X016895Y020942D01*
X016895Y020941D02*
X015205Y020941D01*
X015205Y020942D02*
X015183Y020944D01*
X015161Y020948D01*
X015140Y020956D01*
X015120Y020967D01*
X015102Y020980D01*
X015086Y020996D01*
X015073Y021014D01*
X015062Y021034D01*
X015054Y021055D01*
X015050Y021077D01*
X015048Y021099D01*
X019160Y025525D02*
X019085Y025600D01*
X019085Y025900D01*
X019160Y025975D01*
X019385Y025975D01*
X019385Y025525D01*
X019160Y025525D01*
X019546Y025525D02*
X019846Y025525D01*
X019846Y025975D01*
X019546Y025975D01*
X019696Y025750D02*
X019846Y025750D01*
X020006Y025525D02*
X020306Y025525D01*
X020306Y025975D01*
X020466Y025750D02*
X020767Y025750D01*
X020927Y025750D02*
X021002Y025675D01*
X021227Y025675D01*
X021227Y025525D02*
X021227Y025975D01*
X021002Y025975D01*
X020927Y025900D01*
X020927Y025750D01*
X021077Y025675D02*
X020927Y025525D01*
X021387Y025600D02*
X021387Y025900D01*
X021462Y025975D01*
X021612Y025975D01*
X021687Y025900D01*
X021687Y025600D01*
X021612Y025525D01*
X021462Y025525D01*
X021387Y025600D01*
X021848Y025525D02*
X022148Y025525D01*
X022148Y025975D01*
X022308Y025900D02*
X022383Y025975D01*
X022533Y025975D01*
X022608Y025900D01*
X022608Y025600D01*
X022533Y025525D01*
X022383Y025525D01*
X022308Y025600D01*
X022308Y025900D01*
X022768Y025900D02*
X022843Y025975D01*
X022993Y025975D01*
X023069Y025900D01*
X023069Y025600D01*
X022993Y025525D01*
X022843Y025525D01*
X022768Y025600D01*
X023225Y025525D02*
X023375Y025525D01*
X023300Y025525D02*
X023300Y025975D01*
X023375Y025975D02*
X023225Y025975D01*
X023536Y025900D02*
X023536Y025825D01*
X023611Y025750D01*
X023836Y025750D01*
X023836Y025525D02*
X023611Y025525D01*
X023536Y025600D01*
X023536Y025675D01*
X023611Y025750D01*
X023536Y025900D02*
X023611Y025975D01*
X023836Y025975D01*
X023836Y025525D01*
X023736Y027475D02*
X023511Y027475D01*
X023436Y027550D01*
X023436Y027625D01*
X023511Y027700D01*
X023736Y027700D01*
X023736Y027475D02*
X023736Y027925D01*
X023511Y027925D01*
X023436Y027850D01*
X023436Y027775D01*
X023511Y027700D01*
X023275Y027475D02*
X023125Y027475D01*
X023200Y027475D02*
X023200Y027925D01*
X023275Y027925D02*
X023125Y027925D01*
X022969Y027850D02*
X022969Y027550D01*
X022893Y027475D01*
X022743Y027475D01*
X022668Y027550D01*
X022508Y027550D02*
X022433Y027475D01*
X022283Y027475D01*
X022208Y027550D01*
X022208Y027850D01*
X022283Y027925D01*
X022433Y027925D01*
X022508Y027850D01*
X022508Y027550D01*
X022668Y027850D02*
X022743Y027925D01*
X022893Y027925D01*
X022969Y027850D01*
X022048Y027925D02*
X022048Y027475D01*
X021748Y027475D01*
X021587Y027550D02*
X021512Y027475D01*
X021362Y027475D01*
X021287Y027550D01*
X021287Y027850D01*
X021362Y027925D01*
X021512Y027925D01*
X021587Y027850D01*
X021587Y027550D01*
X021127Y027475D02*
X021127Y027925D01*
X020902Y027925D01*
X020827Y027850D01*
X020827Y027700D01*
X020902Y027625D01*
X021127Y027625D01*
X020977Y027625D02*
X020827Y027475D01*
X020667Y027700D02*
X020366Y027700D01*
X020206Y027475D02*
X019906Y027475D01*
X019746Y027475D02*
X019446Y027475D01*
X019285Y027475D02*
X019060Y027475D01*
X018985Y027550D01*
X018985Y027850D01*
X019060Y027925D01*
X019285Y027925D01*
X019285Y027475D01*
X019596Y027700D02*
X019746Y027700D01*
X019746Y027925D02*
X019746Y027475D01*
X020206Y027475D02*
X020206Y027925D01*
X019746Y027925D02*
X019446Y027925D01*
X018427Y027175D02*
X018202Y027175D01*
X018127Y027100D01*
X018127Y026950D01*
X018202Y026875D01*
X018427Y026875D01*
X018427Y026725D02*
X018427Y027175D01*
X018277Y026875D02*
X018127Y026725D01*
X017967Y026950D02*
X017666Y026950D01*
X017506Y026800D02*
X017431Y026725D01*
X017281Y026725D01*
X017206Y026800D01*
X017046Y026800D02*
X016971Y026725D01*
X016821Y026725D01*
X016746Y026800D01*
X016746Y026875D01*
X016821Y026950D01*
X017046Y026950D01*
X017046Y026800D01*
X017046Y026950D02*
X016896Y027100D01*
X016746Y027175D01*
X016585Y027175D02*
X016360Y027175D01*
X016285Y027100D01*
X016285Y026950D01*
X016360Y026875D01*
X016585Y026875D01*
X016585Y026725D02*
X016585Y027175D01*
X017206Y027100D02*
X017281Y027175D01*
X017431Y027175D01*
X017506Y027100D01*
X017506Y026800D01*
X019110Y029575D02*
X019035Y029650D01*
X019035Y029950D01*
X019110Y030025D01*
X019335Y030025D01*
X019335Y029575D01*
X019110Y029575D01*
X019496Y029575D02*
X019796Y029575D01*
X019796Y030025D01*
X019496Y030025D01*
X019646Y029800D02*
X019796Y029800D01*
X019956Y029575D02*
X020256Y029575D01*
X020256Y030025D01*
X020416Y029800D02*
X020717Y029800D01*
X020877Y029800D02*
X020952Y029725D01*
X021177Y029725D01*
X021177Y029575D02*
X021177Y030025D01*
X020952Y030025D01*
X020877Y029950D01*
X020877Y029800D01*
X021027Y029725D02*
X020877Y029575D01*
X021337Y029650D02*
X021337Y029950D01*
X021412Y030025D01*
X021562Y030025D01*
X021637Y029950D01*
X021637Y029650D01*
X021562Y029575D01*
X021412Y029575D01*
X021337Y029650D01*
X021798Y029575D02*
X022098Y029575D01*
X022098Y030025D01*
X022258Y029950D02*
X022333Y030025D01*
X022483Y030025D01*
X022558Y029950D01*
X022558Y029650D01*
X022483Y029575D01*
X022333Y029575D01*
X022258Y029650D01*
X022258Y029950D01*
X022718Y029950D02*
X022793Y030025D01*
X022943Y030025D01*
X023019Y029950D01*
X023019Y029650D01*
X022943Y029575D01*
X022793Y029575D01*
X022718Y029650D01*
X023175Y029575D02*
X023325Y029575D01*
X023250Y029575D02*
X023250Y030025D01*
X023325Y030025D02*
X023175Y030025D01*
X023486Y029950D02*
X023486Y029875D01*
X023561Y029800D01*
X023786Y029800D01*
X023786Y029575D02*
X023786Y030025D01*
X023561Y030025D01*
X023486Y029950D01*
X023561Y029800D02*
X023486Y029725D01*
X023486Y029650D01*
X023561Y029575D01*
X023786Y029575D01*
X005025Y025575D02*
X005025Y025125D01*
X005025Y025275D02*
X004800Y025275D01*
X004725Y025350D01*
X004725Y025500D01*
X004800Y025575D01*
X005025Y025575D01*
X004875Y025275D02*
X004725Y025125D01*
X004565Y025125D02*
X004565Y025575D01*
X004264Y025575D01*
X004104Y025575D02*
X003879Y025575D01*
X003804Y025500D01*
X003804Y025200D01*
X003879Y025125D01*
X004104Y025125D01*
X004104Y025575D01*
X004414Y025350D02*
X004565Y025350D01*
X004565Y025125D02*
X004264Y025125D01*
X004314Y024975D02*
X004615Y024975D01*
X004615Y024525D01*
X004314Y024525D01*
X004154Y024525D02*
X003929Y024525D01*
X003854Y024600D01*
X003854Y024900D01*
X003929Y024975D01*
X004154Y024975D01*
X004154Y024525D01*
X004464Y024750D02*
X004615Y024750D01*
X004775Y024750D02*
X004850Y024675D01*
X005075Y024675D01*
X005075Y024525D02*
X005075Y024975D01*
X004850Y024975D01*
X004775Y024900D01*
X004775Y024750D01*
X004925Y024675D02*
X004775Y024525D01*
X003125Y024475D02*
X003125Y024925D01*
X002900Y024925D01*
X002825Y024850D01*
X002825Y024700D01*
X002900Y024625D01*
X003125Y024625D01*
X002975Y024625D02*
X002825Y024475D01*
X002665Y024475D02*
X002665Y024925D01*
X002364Y024925D01*
X002364Y025025D02*
X002665Y025025D01*
X002665Y025475D01*
X002364Y025475D01*
X002204Y025475D02*
X002204Y025025D01*
X001979Y025025D01*
X001904Y025100D01*
X001904Y025400D01*
X001979Y025475D01*
X002204Y025475D01*
X002514Y025250D02*
X002665Y025250D01*
X002825Y025250D02*
X002825Y025400D01*
X002900Y025475D01*
X003125Y025475D01*
X003125Y025025D01*
X003125Y025175D02*
X002900Y025175D01*
X002825Y025250D01*
X002975Y025175D02*
X002825Y025025D01*
X002665Y024700D02*
X002514Y024700D01*
X002665Y024475D02*
X002364Y024475D01*
X002204Y024475D02*
X002204Y024925D01*
X001979Y024925D01*
X001904Y024850D01*
X001904Y024550D01*
X001979Y024475D01*
X002204Y024475D01*
D17*
X001793Y026921D02*
X001793Y026921D01*
X001780Y026922D01*
X001767Y026927D01*
X001755Y026934D01*
X001745Y026944D01*
X001738Y026956D01*
X001733Y026969D01*
X001732Y026982D01*
X001732Y027352D01*
X001947Y027136D02*
X001958Y027136D01*
X001975Y027134D01*
X001992Y027129D01*
X002007Y027121D01*
X002020Y027110D01*
X002031Y027097D01*
X002039Y027082D01*
X002044Y027065D01*
X002046Y027048D01*
X002047Y027048D02*
X002047Y026982D01*
X002046Y026982D02*
X002048Y026968D01*
X002052Y026956D01*
X002059Y026944D01*
X002069Y026934D01*
X002081Y026927D01*
X002093Y026923D01*
X002107Y026921D01*
X002122Y026923D01*
X002136Y026928D01*
X002148Y026935D01*
X002159Y026946D01*
X002166Y026958D01*
X002171Y026972D01*
X002173Y026987D01*
X002174Y026987D02*
X002174Y027330D01*
X001947Y027136D02*
X001930Y027134D01*
X001913Y027129D01*
X001898Y027121D01*
X001885Y027110D01*
X001874Y027097D01*
X001866Y027082D01*
X001861Y027065D01*
X001859Y027048D01*
X001859Y026987D01*
X001857Y026972D01*
X001852Y026958D01*
X001845Y026946D01*
X001834Y026935D01*
X001822Y026928D01*
X001808Y026923D01*
X001793Y026921D01*
X001219Y027374D02*
X001219Y027981D01*
X001221Y028003D01*
X001226Y028024D01*
X001234Y028044D01*
X001245Y028062D01*
X001259Y028079D01*
X001276Y028093D01*
X001294Y028104D01*
X001314Y028112D01*
X001335Y028117D01*
X001357Y028119D01*
X001373Y028119D01*
X002819Y028185D01*
X002833Y028184D01*
X002847Y028180D01*
X002858Y028172D01*
X002868Y028162D01*
X002875Y028150D01*
X002879Y028137D01*
X002880Y028123D01*
X002877Y028109D01*
X002871Y028096D01*
X002863Y028086D01*
X002851Y028077D01*
X002839Y028071D01*
X002825Y028069D01*
X001489Y027981D01*
X001490Y027981D02*
X001471Y027978D01*
X001454Y027971D01*
X001438Y027962D01*
X001424Y027949D01*
X001413Y027934D01*
X001405Y027918D01*
X001400Y027900D01*
X001399Y027881D01*
X001401Y027863D01*
X001407Y027845D01*
X001416Y027829D01*
X001428Y027815D01*
X001443Y027803D01*
X001459Y027794D01*
X001477Y027789D01*
X001495Y027787D01*
X001495Y027788D02*
X002836Y027699D01*
X002848Y027697D01*
X002859Y027691D01*
X002868Y027683D01*
X002875Y027673D01*
X002879Y027662D01*
X002880Y027650D01*
X002880Y027374D01*
X003813Y027352D02*
X003813Y026982D01*
X003812Y026982D02*
X003814Y026969D01*
X003818Y026956D01*
X003825Y026944D01*
X003835Y026934D01*
X003847Y026927D01*
X003860Y026922D01*
X003873Y026921D01*
X003874Y026921D02*
X003874Y026921D01*
X003889Y026923D01*
X003903Y026928D01*
X003915Y026935D01*
X003926Y026946D01*
X003933Y026958D01*
X003938Y026972D01*
X003940Y026987D01*
X003940Y027048D01*
X003942Y027065D01*
X003947Y027082D01*
X003955Y027097D01*
X003966Y027110D01*
X003979Y027121D01*
X003994Y027129D01*
X004011Y027134D01*
X004028Y027136D01*
X004039Y027136D01*
X004056Y027134D01*
X004073Y027129D01*
X004088Y027121D01*
X004101Y027110D01*
X004112Y027097D01*
X004120Y027082D01*
X004125Y027065D01*
X004127Y027048D01*
X004127Y026982D01*
X004129Y026968D01*
X004133Y026956D01*
X004140Y026944D01*
X004150Y026934D01*
X004162Y026927D01*
X004174Y026923D01*
X004188Y026921D01*
X004203Y026923D01*
X004217Y026928D01*
X004229Y026935D01*
X004240Y026946D01*
X004247Y026958D01*
X004252Y026972D01*
X004254Y026987D01*
X004254Y027357D01*
X004254Y027352D02*
X004254Y027848D01*
X004252Y027870D01*
X004247Y027892D01*
X004238Y027913D01*
X004227Y027932D01*
X004212Y027949D01*
X004195Y027964D01*
X004176Y027975D01*
X004155Y027984D01*
X004133Y027989D01*
X004111Y027991D01*
X004111Y027992D02*
X003901Y027992D01*
X004254Y027352D02*
X000750Y027352D01*
X000750Y030349D01*
X002174Y030349D01*
X002174Y030718D01*
X002174Y030719D02*
X002173Y030732D01*
X002168Y030745D01*
X002161Y030757D01*
X002151Y030767D01*
X002139Y030774D01*
X002126Y030779D01*
X002113Y030780D01*
X002113Y030779D02*
X002113Y030779D01*
X002098Y030777D01*
X002084Y030772D01*
X002072Y030765D01*
X002061Y030754D01*
X002054Y030742D01*
X002049Y030728D01*
X002047Y030713D01*
X002047Y030652D01*
X002071Y030600D02*
X001994Y030523D01*
X001994Y030447D01*
X002071Y030370D01*
X002224Y030370D01*
X002301Y030447D01*
X002454Y030447D02*
X002531Y030370D01*
X002684Y030370D01*
X002761Y030447D01*
X002761Y030600D02*
X002608Y030677D01*
X002531Y030677D01*
X002454Y030600D01*
X002454Y030447D01*
X002224Y030600D02*
X002071Y030600D01*
X001958Y030564D02*
X001947Y030564D01*
X001930Y030566D01*
X001913Y030571D01*
X001898Y030579D01*
X001885Y030590D01*
X001874Y030603D01*
X001866Y030618D01*
X001861Y030635D01*
X001859Y030652D01*
X001859Y030718D01*
X001857Y030732D01*
X001853Y030744D01*
X001846Y030756D01*
X001836Y030766D01*
X001824Y030773D01*
X001812Y030777D01*
X001798Y030779D01*
X001783Y030777D01*
X001769Y030772D01*
X001757Y030765D01*
X001746Y030754D01*
X001739Y030742D01*
X001734Y030728D01*
X001732Y030713D01*
X001732Y030371D01*
X001687Y030370D02*
X001687Y030830D01*
X001840Y030830D02*
X001533Y030830D01*
X001958Y030564D02*
X001975Y030566D01*
X001992Y030571D01*
X002007Y030579D01*
X002020Y030590D01*
X002031Y030603D01*
X002039Y030618D01*
X002044Y030635D01*
X002046Y030652D01*
X001994Y030754D02*
X002071Y030830D01*
X002224Y030830D01*
X002301Y030754D01*
X002301Y030677D01*
X002224Y030600D01*
X002174Y030349D02*
X004254Y030349D01*
X004254Y030718D01*
X004255Y030719D02*
X004254Y030732D01*
X004249Y030745D01*
X004242Y030757D01*
X004232Y030767D01*
X004220Y030774D01*
X004207Y030779D01*
X004194Y030780D01*
X004194Y030779D02*
X004194Y030779D01*
X004179Y030777D01*
X004165Y030772D01*
X004153Y030765D01*
X004142Y030754D01*
X004135Y030742D01*
X004130Y030728D01*
X004128Y030713D01*
X004127Y030713D02*
X004127Y030652D01*
X004125Y030635D01*
X004120Y030618D01*
X004112Y030603D01*
X004101Y030590D01*
X004088Y030579D01*
X004073Y030571D01*
X004056Y030566D01*
X004039Y030564D01*
X004028Y030564D01*
X004011Y030566D01*
X003994Y030571D01*
X003979Y030579D01*
X003966Y030590D01*
X003955Y030603D01*
X003947Y030618D01*
X003942Y030635D01*
X003940Y030652D01*
X003940Y030718D01*
X003938Y030732D01*
X003934Y030744D01*
X003927Y030756D01*
X003917Y030766D01*
X003905Y030773D01*
X003893Y030777D01*
X003879Y030779D01*
X003864Y030777D01*
X003850Y030772D01*
X003838Y030765D01*
X003827Y030754D01*
X003820Y030742D01*
X003815Y030728D01*
X003813Y030713D01*
X003813Y030371D01*
X003835Y030370D02*
X003835Y030830D01*
X003989Y030677D01*
X004142Y030830D01*
X004142Y030370D01*
X004254Y030349D02*
X004254Y029846D01*
X004252Y029824D01*
X004247Y029803D01*
X004239Y029783D01*
X004228Y029765D01*
X004214Y029748D01*
X004197Y029734D01*
X004179Y029723D01*
X004159Y029715D01*
X004138Y029710D01*
X004116Y029708D01*
X003885Y029708D01*
X003682Y030370D02*
X003452Y030370D01*
X003375Y030447D01*
X003375Y030523D01*
X003452Y030600D01*
X003682Y030600D01*
X003682Y030370D02*
X003682Y030830D01*
X003452Y030830D01*
X003375Y030754D01*
X003375Y030677D01*
X003452Y030600D01*
X003222Y030600D02*
X002915Y030600D01*
X002761Y030600D02*
X002761Y030830D01*
X002454Y030830D01*
X002880Y030327D02*
X002880Y030051D01*
X002880Y030050D02*
X002879Y030038D01*
X002875Y030027D01*
X002868Y030017D01*
X002859Y030009D01*
X002848Y030003D01*
X002836Y030001D01*
X001495Y029913D01*
X001477Y029911D01*
X001459Y029906D01*
X001443Y029897D01*
X001428Y029885D01*
X001416Y029871D01*
X001407Y029855D01*
X001401Y029837D01*
X001399Y029819D01*
X001400Y029800D01*
X001405Y029782D01*
X001413Y029766D01*
X001424Y029751D01*
X001438Y029738D01*
X001454Y029729D01*
X001471Y029722D01*
X001490Y029719D01*
X001489Y029719D02*
X002825Y029631D01*
X002839Y029629D01*
X002851Y029623D01*
X002863Y029614D01*
X002871Y029604D01*
X002877Y029591D01*
X002880Y029577D01*
X002879Y029563D01*
X002875Y029550D01*
X002868Y029538D01*
X002858Y029528D01*
X002847Y029520D01*
X002833Y029516D01*
X002819Y029515D01*
X001373Y029581D01*
X001357Y029581D01*
X001335Y029583D01*
X001314Y029588D01*
X001294Y029596D01*
X001276Y029607D01*
X001259Y029621D01*
X001245Y029638D01*
X001234Y029656D01*
X001226Y029676D01*
X001221Y029697D01*
X001219Y029719D01*
X001219Y030327D01*
X001279Y029361D02*
X002852Y029278D01*
X002875Y029276D01*
X002896Y029271D01*
X002917Y029262D01*
X002937Y029250D01*
X002954Y029236D01*
X002968Y029219D01*
X002980Y029199D01*
X002989Y029178D01*
X002994Y029157D01*
X002996Y029134D01*
X002996Y028555D01*
X002994Y028534D01*
X002989Y028514D01*
X002981Y028495D01*
X002971Y028477D01*
X002957Y028461D01*
X002941Y028447D01*
X002923Y028437D01*
X002904Y028429D01*
X002884Y028424D01*
X002863Y028422D01*
X002864Y028422D02*
X001279Y028340D01*
X001280Y028339D02*
X001266Y028340D01*
X001253Y028345D01*
X001242Y028353D01*
X001233Y028363D01*
X001227Y028376D01*
X001224Y028389D01*
X001225Y028403D01*
X001230Y028416D01*
X001238Y028427D01*
X001248Y028436D01*
X001261Y028442D01*
X001274Y028445D01*
X001274Y028444D02*
X002499Y028511D01*
X002523Y028513D01*
X002547Y028518D01*
X002570Y028526D01*
X002591Y028538D01*
X002611Y028553D01*
X002628Y028570D01*
X002643Y028590D01*
X002655Y028611D01*
X002663Y028634D01*
X002668Y028658D01*
X002670Y028682D01*
X002670Y029029D01*
X002671Y029029D02*
X002669Y029053D01*
X002664Y029076D01*
X002656Y029098D01*
X002645Y029119D01*
X002630Y029138D01*
X002614Y029154D01*
X002595Y029169D01*
X002574Y029180D01*
X002552Y029188D01*
X002529Y029193D01*
X002505Y029195D01*
X002477Y029195D01*
X001279Y029250D01*
X001266Y029252D01*
X001253Y029258D01*
X001242Y029267D01*
X001234Y029278D01*
X001229Y029291D01*
X001227Y029305D01*
X001229Y029319D01*
X001234Y029332D01*
X001242Y029343D01*
X001253Y029352D01*
X001266Y029358D01*
X001279Y029360D01*
X004296Y030600D02*
X004603Y030600D01*
X004756Y030447D02*
X004833Y030370D01*
X004986Y030370D01*
X005063Y030447D01*
X004756Y030754D01*
X004756Y030447D01*
X004756Y030754D02*
X004833Y030830D01*
X004986Y030830D01*
X005063Y030754D01*
X005063Y030447D01*
X005217Y030447D02*
X005293Y030370D01*
X005447Y030370D01*
X005524Y030447D01*
X005524Y030600D01*
X005293Y030600D01*
X005217Y030523D01*
X005217Y030447D01*
X005370Y030754D02*
X005524Y030600D01*
X005370Y030754D02*
X005217Y030830D01*
X005677Y030830D02*
X005984Y030370D01*
X006137Y030447D02*
X006214Y030370D01*
X006368Y030370D01*
X006444Y030447D01*
X006444Y030830D01*
X006598Y030600D02*
X006905Y030600D01*
X007058Y030523D02*
X007058Y030447D01*
X007135Y030370D01*
X007365Y030370D01*
X007365Y030830D01*
X007135Y030830D01*
X007058Y030754D01*
X007058Y030677D01*
X007135Y030600D01*
X007365Y030600D01*
X007519Y030523D02*
X007519Y030447D01*
X007595Y030370D01*
X007749Y030370D01*
X007826Y030447D01*
X007979Y030447D02*
X008056Y030370D01*
X008209Y030370D01*
X008286Y030447D01*
X008286Y030830D01*
X008439Y030600D02*
X008746Y030600D01*
X008900Y030370D02*
X009053Y030370D01*
X008976Y030370D02*
X008976Y030830D01*
X008900Y030830D02*
X009053Y030830D01*
X009207Y030830D02*
X009207Y030370D01*
X009514Y030830D01*
X009514Y030370D01*
X009667Y030370D02*
X009821Y030370D01*
X009744Y030370D02*
X009744Y030830D01*
X009821Y030830D02*
X009667Y030830D01*
X009974Y030830D02*
X010127Y030677D01*
X010281Y030830D01*
X010281Y030370D01*
X009974Y030370D02*
X009974Y030830D01*
X007979Y030830D02*
X007979Y030447D01*
X007826Y030677D02*
X007826Y030754D01*
X007749Y030830D01*
X007595Y030830D01*
X007519Y030754D01*
X007595Y030600D02*
X007519Y030523D01*
X007595Y030600D02*
X007749Y030600D01*
X007826Y030677D01*
X007135Y030600D02*
X007058Y030523D01*
X006137Y030447D02*
X006137Y030830D01*
X005984Y030830D02*
X005677Y030370D01*
X008825Y027527D02*
X008979Y027527D01*
X008902Y027604D02*
X008902Y027297D01*
X008825Y027220D01*
X009132Y027527D02*
X009209Y027527D01*
X009362Y027373D01*
X009362Y027220D02*
X009362Y027527D01*
X009516Y027450D02*
X009592Y027527D01*
X009746Y027527D01*
X009823Y027450D01*
X009823Y027297D01*
X009746Y027220D01*
X009592Y027220D01*
X009516Y027297D01*
X009516Y027450D01*
X009976Y027450D02*
X009976Y027604D01*
X010053Y027680D01*
X010283Y027680D01*
X010283Y027220D01*
X010283Y027373D02*
X010053Y027373D01*
X009976Y027450D01*
X010897Y027450D02*
X010897Y027220D01*
X010897Y027450D02*
X010974Y027527D01*
X011204Y027527D01*
X011204Y027220D01*
X011357Y027297D02*
X011357Y027450D01*
X011434Y027527D01*
X011587Y027527D01*
X011664Y027450D01*
X011664Y027297D01*
X011587Y027220D01*
X011434Y027220D01*
X011357Y027297D01*
X011818Y027220D02*
X011971Y027220D01*
X011894Y027220D02*
X011894Y027527D01*
X011971Y027527D01*
X012125Y027527D02*
X012355Y027527D01*
X012432Y027450D01*
X012355Y027373D01*
X012201Y027373D01*
X012125Y027297D01*
X012201Y027220D01*
X012432Y027220D01*
X012585Y027220D02*
X012585Y027450D01*
X012662Y027527D01*
X012892Y027527D01*
X012892Y027220D01*
X013045Y027220D02*
X013276Y027220D01*
X013352Y027297D01*
X013276Y027373D01*
X013045Y027373D01*
X013045Y027450D02*
X013045Y027220D01*
X013045Y027450D02*
X013122Y027527D01*
X013276Y027527D01*
X013506Y027527D02*
X013659Y027527D01*
X013582Y027604D02*
X013582Y027297D01*
X013506Y027220D01*
X013813Y027220D02*
X014120Y027527D01*
X014273Y027680D02*
X014580Y027680D01*
X014580Y027220D01*
X014273Y027220D01*
X014120Y027220D02*
X013813Y027527D01*
X014427Y027450D02*
X014580Y027450D01*
X011894Y027680D02*
X011894Y027757D01*
X008530Y026204D02*
X008453Y026280D01*
X008300Y026280D01*
X008223Y026204D01*
X008223Y026127D01*
X008530Y025820D01*
X008223Y025820D01*
X008070Y025820D02*
X007763Y026127D01*
X007763Y026204D01*
X007839Y026280D01*
X007993Y026280D01*
X008070Y026204D01*
X008070Y025820D02*
X007763Y025820D01*
X007889Y025080D02*
X007813Y025004D01*
X007813Y024927D01*
X008120Y024620D01*
X007813Y024620D01*
X008273Y024620D02*
X008580Y024620D01*
X008273Y024927D01*
X008273Y025004D01*
X008350Y025080D01*
X008503Y025080D01*
X008580Y025004D01*
X008120Y025004D02*
X008043Y025080D01*
X007889Y025080D01*
X004536Y021191D02*
X004613Y021115D01*
X004613Y020808D01*
X004536Y020731D01*
X004382Y020731D01*
X004306Y020808D01*
X004306Y020961D01*
X004459Y020961D01*
X004306Y021115D02*
X004382Y021191D01*
X004536Y021191D01*
X004152Y021191D02*
X003845Y020731D01*
X003845Y021191D01*
X003692Y021191D02*
X003462Y021191D01*
X003385Y021115D01*
X003385Y020808D01*
X003462Y020731D01*
X003692Y020731D01*
X003692Y021191D01*
X004152Y021191D02*
X004152Y020731D01*
X006286Y020462D02*
X006439Y020616D01*
X006746Y020616D01*
X006700Y020568D02*
X006547Y020568D01*
X006470Y020491D01*
X006470Y020337D01*
X006547Y020261D01*
X006592Y020156D02*
X006669Y020156D01*
X006746Y020079D01*
X006746Y019925D01*
X006669Y019849D01*
X006547Y019877D02*
X006470Y019800D01*
X006470Y019647D01*
X006547Y019570D01*
X006854Y019877D01*
X006547Y019877D01*
X006547Y020030D02*
X006547Y020107D01*
X006470Y020107D01*
X006470Y020030D01*
X006547Y020030D01*
X006592Y020156D02*
X006286Y019849D01*
X006286Y020156D01*
X006439Y020309D02*
X006286Y020462D01*
X006439Y020309D02*
X006746Y020309D01*
X006700Y020261D02*
X006777Y020414D01*
X006777Y020491D01*
X006700Y020568D01*
X006700Y020721D02*
X006700Y021028D01*
X006777Y021028D02*
X006470Y021028D01*
X006777Y021028D02*
X006930Y020874D01*
X006777Y020721D01*
X006470Y020721D01*
X006930Y020568D02*
X006930Y020261D01*
X006700Y020261D01*
X006854Y019877D02*
X006930Y019800D01*
X006930Y019647D01*
X006854Y019570D01*
X006547Y019570D01*
X006592Y019388D02*
X006746Y019542D01*
X006286Y019542D01*
X006286Y019695D02*
X006286Y019388D01*
X006516Y019235D02*
X006516Y018928D01*
X006669Y019081D02*
X006362Y019081D01*
X006439Y018367D02*
X006746Y018367D01*
X006439Y018367D02*
X006286Y018213D01*
X006439Y018060D01*
X006746Y018060D01*
X006746Y017907D02*
X006746Y017600D01*
X006516Y017600D01*
X006592Y017753D01*
X006592Y017830D01*
X006516Y017907D01*
X006362Y017907D01*
X006286Y017830D01*
X006286Y017676D01*
X006362Y017600D01*
X006516Y017446D02*
X006516Y017139D01*
X006669Y017293D02*
X006362Y017293D01*
X004647Y017115D02*
X004647Y016808D01*
X004570Y016731D01*
X004417Y016731D01*
X004340Y016808D01*
X004340Y016961D01*
X004494Y016961D01*
X004647Y017115D02*
X004570Y017191D01*
X004417Y017191D01*
X004340Y017115D01*
X004187Y017191D02*
X004187Y016731D01*
X003880Y016731D02*
X003880Y017191D01*
X003726Y017191D02*
X003496Y017191D01*
X003419Y017115D01*
X003419Y016808D01*
X003496Y016731D01*
X003726Y016731D01*
X003726Y017191D01*
X004187Y017191D02*
X003880Y016731D01*
X008470Y016685D02*
X008547Y016609D01*
X008854Y016916D01*
X008547Y016916D01*
X008470Y016839D01*
X008470Y016685D01*
X008547Y016609D02*
X008854Y016609D01*
X008930Y016685D01*
X008930Y016839D01*
X008854Y016916D01*
X008547Y017069D02*
X008547Y017146D01*
X008470Y017146D01*
X008470Y017069D01*
X008547Y017069D01*
X008547Y017299D02*
X008470Y017376D01*
X008470Y017529D01*
X008547Y017606D01*
X008700Y017606D01*
X008777Y017529D01*
X008777Y017453D01*
X008700Y017299D01*
X008930Y017299D01*
X008930Y017606D01*
X008777Y017760D02*
X008930Y017913D01*
X008777Y018067D01*
X008470Y018067D01*
X008700Y018067D02*
X008700Y017760D01*
X008777Y017760D02*
X008470Y017760D01*
X015141Y019885D02*
X015448Y019885D01*
X015141Y020191D01*
X015448Y020191D01*
X015602Y020115D02*
X015909Y020115D01*
X015909Y019885D02*
X015909Y020345D01*
X016062Y020345D02*
X016062Y019885D01*
X016369Y019885D02*
X016369Y020345D01*
X016216Y020191D01*
X016062Y020345D01*
X015602Y020345D02*
X015602Y019885D01*
X016523Y019961D02*
X016523Y020038D01*
X016599Y020115D01*
X016829Y020115D01*
X016829Y019961D01*
X016753Y019885D01*
X016599Y019885D01*
X016523Y019961D01*
X016829Y020115D02*
X016676Y020268D01*
X016523Y020345D01*
X017136Y020345D02*
X017136Y019885D01*
X016983Y019885D02*
X017290Y019885D01*
X017290Y020191D02*
X017136Y020345D01*
X026883Y017330D02*
X027267Y016870D01*
X027421Y016870D02*
X027728Y016870D01*
X027574Y016870D02*
X027574Y017330D01*
X027728Y017177D01*
X027267Y017254D02*
X027267Y017330D01*
X027190Y017330D01*
X027190Y017254D01*
X027267Y017254D01*
X026960Y016947D02*
X026883Y016947D01*
X026883Y016870D01*
X026960Y016870D01*
X026960Y016947D01*
X026933Y016480D02*
X027317Y016020D01*
X027471Y016020D02*
X027778Y016020D01*
X027624Y016020D02*
X027624Y016480D01*
X027778Y016327D01*
X027317Y016404D02*
X027317Y016480D01*
X027240Y016480D01*
X027240Y016404D01*
X027317Y016404D01*
X027010Y016097D02*
X026933Y016097D01*
X026933Y016020D01*
X027010Y016020D01*
X027010Y016097D01*
X027033Y015580D02*
X027417Y015120D01*
X027571Y015120D02*
X027878Y015120D01*
X027724Y015120D02*
X027724Y015580D01*
X027878Y015427D01*
X028491Y015504D02*
X028491Y015197D01*
X028568Y015120D01*
X028722Y015120D01*
X028798Y015197D01*
X028952Y015197D02*
X028952Y015120D01*
X029029Y015120D01*
X029029Y015197D01*
X028952Y015197D01*
X029182Y015197D02*
X029182Y015504D01*
X029259Y015580D01*
X029412Y015580D01*
X029489Y015504D01*
X029489Y015427D01*
X029412Y015350D01*
X029182Y015350D01*
X029182Y015197D02*
X029259Y015120D01*
X029412Y015120D01*
X029489Y015197D01*
X029642Y015350D02*
X029949Y015350D01*
X029719Y015580D01*
X029719Y015120D01*
X029669Y014780D02*
X029899Y014550D01*
X029592Y014550D01*
X029439Y014627D02*
X029362Y014550D01*
X029132Y014550D01*
X029132Y014397D02*
X029132Y014704D01*
X029209Y014780D01*
X029362Y014780D01*
X029439Y014704D01*
X029439Y014627D01*
X029439Y014397D02*
X029362Y014320D01*
X029209Y014320D01*
X029132Y014397D01*
X028979Y014397D02*
X028902Y014397D01*
X028902Y014320D01*
X028979Y014320D01*
X028979Y014397D01*
X028748Y014397D02*
X028672Y014320D01*
X028518Y014320D01*
X028441Y014397D01*
X028441Y014704D01*
X028518Y014780D01*
X028672Y014780D01*
X028748Y014704D01*
X028748Y014627D01*
X028672Y014550D01*
X028441Y014550D01*
X027828Y014627D02*
X027674Y014780D01*
X027674Y014320D01*
X027521Y014320D02*
X027828Y014320D01*
X027367Y014320D02*
X026983Y014780D01*
X027290Y014780D02*
X027290Y014704D01*
X027367Y014704D01*
X027367Y014780D01*
X027290Y014780D01*
X027110Y015120D02*
X027033Y015120D01*
X027033Y015197D01*
X027110Y015197D01*
X027110Y015120D01*
X027340Y015504D02*
X027417Y015504D01*
X027417Y015580D01*
X027340Y015580D01*
X027340Y015504D01*
X028491Y015504D02*
X028568Y015580D01*
X028722Y015580D01*
X028798Y015504D01*
X028798Y015427D01*
X028722Y015350D01*
X028491Y015350D01*
X028468Y016020D02*
X028391Y016097D01*
X028391Y016404D01*
X028468Y016480D01*
X028622Y016480D01*
X028698Y016404D01*
X028698Y016327D01*
X028622Y016250D01*
X028391Y016250D01*
X028468Y016020D02*
X028622Y016020D01*
X028698Y016097D01*
X028852Y016097D02*
X028852Y016020D01*
X028929Y016020D01*
X028929Y016097D01*
X028852Y016097D01*
X029082Y016097D02*
X029082Y016404D01*
X029159Y016480D01*
X029312Y016480D01*
X029389Y016404D01*
X029389Y016327D01*
X029312Y016250D01*
X029082Y016250D01*
X029082Y016097D02*
X029159Y016020D01*
X029312Y016020D01*
X029389Y016097D01*
X029542Y016250D02*
X029849Y016250D01*
X029619Y016480D01*
X029619Y016020D01*
X029569Y016870D02*
X029569Y017330D01*
X029799Y017100D01*
X029492Y017100D01*
X029339Y017177D02*
X029262Y017100D01*
X029032Y017100D01*
X029032Y016947D02*
X029032Y017254D01*
X029109Y017330D01*
X029262Y017330D01*
X029339Y017254D01*
X029339Y017177D01*
X029339Y016947D02*
X029262Y016870D01*
X029109Y016870D01*
X029032Y016947D01*
X028879Y016947D02*
X028802Y016947D01*
X028802Y016870D01*
X028879Y016870D01*
X028879Y016947D01*
X028648Y016947D02*
X028572Y016870D01*
X028418Y016870D01*
X028341Y016947D01*
X028341Y017254D01*
X028418Y017330D01*
X028572Y017330D01*
X028648Y017254D01*
X028648Y017177D01*
X028572Y017100D01*
X028341Y017100D01*
X028334Y017720D02*
X028181Y017720D01*
X028104Y017797D01*
X028104Y018104D01*
X028411Y017797D01*
X028334Y017720D01*
X028411Y017797D02*
X028411Y018104D01*
X028334Y018180D01*
X028181Y018180D01*
X028104Y018104D01*
X027951Y018027D02*
X027721Y018027D01*
X027644Y017950D01*
X027644Y017720D01*
X027490Y017720D02*
X027490Y018180D01*
X027183Y018180D01*
X027337Y017950D02*
X027490Y017950D01*
X027951Y018027D02*
X027951Y017720D01*
X028565Y017797D02*
X028565Y018104D01*
X028872Y017797D01*
X028795Y017720D01*
X028641Y017720D01*
X028565Y017797D01*
X028872Y017797D02*
X028872Y018104D01*
X028795Y018180D01*
X028641Y018180D01*
X028565Y018104D01*
X029025Y017720D02*
X029332Y017720D01*
X029179Y017720D02*
X029179Y018180D01*
X029332Y018027D01*
X029669Y014780D02*
X029669Y014320D01*
X029279Y013880D02*
X029279Y013420D01*
X029432Y013420D02*
X029125Y013420D01*
X028972Y013497D02*
X028665Y013804D01*
X028665Y013497D01*
X028741Y013420D01*
X028895Y013420D01*
X028972Y013497D01*
X028972Y013804D01*
X028895Y013880D01*
X028741Y013880D01*
X028665Y013804D01*
X028511Y013804D02*
X028511Y013497D01*
X028204Y013804D01*
X028204Y013497D01*
X028281Y013420D01*
X028434Y013420D01*
X028511Y013497D01*
X028511Y013804D02*
X028434Y013880D01*
X028281Y013880D01*
X028204Y013804D01*
X028051Y013727D02*
X027821Y013727D01*
X027744Y013650D01*
X027744Y013420D01*
X027590Y013420D02*
X027590Y013880D01*
X027283Y013880D01*
X027437Y013650D02*
X027590Y013650D01*
X028051Y013727D02*
X028051Y013420D01*
X029279Y013880D02*
X029432Y013727D01*
X027060Y014320D02*
X026983Y014320D01*
X026983Y014397D01*
X027060Y014397D01*
X027060Y014320D01*
X026045Y011116D02*
X025892Y011116D01*
X025815Y011039D01*
X025815Y010962D01*
X026122Y010655D01*
X025815Y010655D01*
X025662Y010732D02*
X025585Y010655D01*
X025432Y010655D01*
X025355Y010732D01*
X025355Y010886D01*
X025432Y010962D01*
X025508Y010962D01*
X025662Y010886D01*
X025662Y011116D01*
X025355Y011116D01*
X025201Y011116D02*
X025048Y010962D01*
X024894Y011116D01*
X024894Y010655D01*
X024741Y010655D02*
X024741Y011116D01*
X024741Y010886D02*
X024434Y010886D01*
X024281Y010962D02*
X023974Y010962D01*
X024281Y010655D01*
X023974Y010655D01*
X024434Y010655D02*
X024434Y011116D01*
X025201Y011116D02*
X025201Y010655D01*
X026045Y011116D02*
X026122Y011039D01*
X033920Y015020D02*
X034380Y015020D01*
X034380Y015250D01*
X034304Y015327D01*
X034150Y015327D01*
X034073Y015250D01*
X034073Y015020D01*
X034073Y015173D02*
X033920Y015327D01*
X033997Y015480D02*
X033920Y015557D01*
X033920Y015634D01*
X033997Y015711D01*
X034380Y015711D01*
X034380Y015787D02*
X034380Y015634D01*
X034150Y015941D02*
X034150Y016248D01*
X034150Y016401D02*
X034227Y016555D01*
X034227Y016631D01*
X034150Y016708D01*
X033997Y016708D01*
X033920Y016631D01*
X033920Y016478D01*
X033997Y016401D01*
X034150Y016401D02*
X034380Y016401D01*
X034380Y016708D01*
X034380Y016171D02*
X033920Y016171D01*
X034150Y015941D02*
X034380Y016171D01*
X017108Y030697D02*
X017031Y030620D01*
X016878Y030620D01*
X016801Y030697D01*
X016801Y030773D01*
X016878Y030850D01*
X017031Y030850D01*
X017108Y030927D01*
X017108Y031004D01*
X017031Y031080D01*
X016878Y031080D01*
X016801Y031004D01*
X016647Y031080D02*
X016417Y031080D01*
X016340Y031004D01*
X016340Y030850D01*
X016417Y030773D01*
X016647Y030773D01*
X016647Y030620D02*
X016647Y031080D01*
X016187Y031080D02*
X016033Y031080D01*
X016110Y031080D02*
X016110Y030620D01*
X016187Y030620D02*
X016033Y030620D01*
D18*
X016400Y029890D03*
D19*
X016475Y029815D03*
X016325Y029815D03*
D20*
X016400Y029970D03*
D21*
X016675Y024030D02*
X016675Y023810D01*
X016675Y023920D02*
X016822Y023920D01*
X016822Y023810D02*
X016822Y024030D01*
X016896Y024030D02*
X017043Y024030D01*
X016970Y024030D02*
X016970Y023810D01*
X017117Y023920D02*
X017154Y023883D01*
X017264Y023883D01*
X017264Y023810D02*
X017264Y024030D01*
X017154Y024030D01*
X017117Y023993D01*
X017117Y023920D01*
X017338Y023920D02*
X017375Y023883D01*
X017485Y023883D01*
X017485Y023810D02*
X017485Y024030D01*
X017375Y024030D01*
X017338Y023993D01*
X017338Y023920D01*
X017412Y023883D02*
X017338Y023810D01*
X017559Y023810D02*
X017706Y023810D01*
X017706Y024030D01*
X017559Y024030D01*
X017633Y023920D02*
X017706Y023920D01*
X017780Y023993D02*
X017927Y023847D01*
X017927Y023810D01*
X017780Y023810D01*
X017780Y023993D02*
X017780Y024030D01*
X017927Y024030D01*
X018001Y024030D02*
X018001Y023993D01*
X018148Y023847D01*
X018148Y023810D01*
X018001Y023810D01*
X018001Y024030D02*
X018148Y024030D01*
X018222Y024030D02*
X018222Y023847D01*
X018259Y023810D01*
X018332Y023810D01*
X018369Y023847D01*
X018369Y024030D01*
X018443Y023993D02*
X018443Y023957D01*
X018480Y023920D01*
X018590Y023920D01*
X018590Y023810D02*
X018480Y023810D01*
X018443Y023847D01*
X018443Y023883D01*
X018480Y023920D01*
X018443Y023993D02*
X018480Y024030D01*
X018590Y024030D01*
X018590Y023810D01*
M02*
