G75*
%MOIN*%
%OFA0B0*%
%FSLAX24Y24*%
%IPPOS*%
%LPD*%
%AMOC8*
5,1,8,0,0,1.08239X$1,22.5*
%
%ADD10R,0.1004X0.1063*%
%ADD11R,0.2000X0.0500*%
%ADD12R,0.1339X0.0748*%
%ADD13R,0.0630X0.0709*%
%ADD14R,0.0591X0.0394*%
%ADD15R,0.0300X0.0600*%
%ADD16R,0.0984X0.1181*%
%ADD17R,0.0866X0.0984*%
%ADD18R,0.0787X0.0197*%
%ADD19R,0.0630X0.0787*%
D10*
X002952Y014050D03*
X005448Y014050D03*
D11*
X006025Y009650D03*
X006025Y010650D03*
X006025Y011650D03*
D12*
X007700Y016682D03*
X007700Y018218D03*
X007700Y019532D03*
X007700Y021068D03*
D13*
X027999Y017900D03*
X029101Y017900D03*
X029051Y013700D03*
X027949Y013700D03*
D14*
X028236Y014550D03*
X029064Y014550D03*
X029064Y015400D03*
X029064Y016200D03*
X028236Y016200D03*
X028236Y015400D03*
X028236Y017050D03*
X029064Y017050D03*
D15*
X007900Y028400D03*
X006400Y028400D03*
X006400Y030400D03*
X007900Y030400D03*
D16*
X015001Y021400D03*
X017060Y021400D03*
X023940Y009400D03*
X025999Y009400D03*
D17*
X004037Y027196D03*
X001951Y027196D03*
X001951Y030504D03*
X004037Y030504D03*
D18*
X004136Y029480D03*
X004136Y029165D03*
X004136Y028850D03*
X004136Y028535D03*
X004136Y028220D03*
D19*
X007649Y026050D03*
X008751Y026050D03*
X008751Y024850D03*
X007649Y024850D03*
M02*
