%
M48
M72
T01C0.0197
T02C0.0236
T03C0.0315
T04C0.0320
T05C0.0354
T06C0.0360
T07C0.0400
T08C0.0642
T09C0.0669
T10C0.0787
T11C0.0866
T12C0.1280
T13C0.1280
%
T01
X4910Y3200
X6860Y6640
X10340Y9270
X11650Y8170
X13480Y8020
X17080Y8270
X17080Y5910
X19340Y5800
X22780Y9430
X23950Y10700
X24250Y11100
X24450Y11750
X25350Y10850
X27230Y10400
X23170Y11800
X22550Y12830
X21670Y14300
X20440Y14800
X19420Y15590
X18870Y14950
X19180Y13910
X18190Y13900
X17940Y14260
X17500Y12950
X16650Y12950
X15450Y13010
X15590Y12310
X15040Y12330
X14320Y11940
X13730Y11560
X13830Y13010
X13310Y13020
X12560Y13930
X13080Y14660
X13570Y14940
X14050Y15260
X13670Y15890
X13250Y15650
X13140Y16130
X14480Y16700
X14850Y16460
X15040Y16020
X16350Y16310
X16310Y16930
X17840Y16700
X18300Y17050
X17950Y17450
X18570Y18170
X20400Y17950
X19690Y16680
X20400Y16350
X22350Y15800
X22850Y15200
X23902Y15151
X24850Y15150
X26200Y16250
X26320Y17060
X25350Y17800
X24790Y17230
X24650Y16680
X23920Y17260
X23560Y16930
X23120Y16640
X23530Y18560
X22600Y19150
X22520Y20090
X23540Y20620
X26500Y20150
X26480Y21400
X28950Y21750
X31430Y20160
X32050Y20150
X34500Y15850
X24260Y24560
X22990Y24410
X23030Y26270
X22880Y27910
X24160Y29460
X25410Y27310
X26710Y26140
X26800Y25560
X20100Y25130
X19910Y26390
X19980Y23660
X20390Y23270
X19210Y22990
X18790Y23560
X18430Y21160
X17220Y20220
X18430Y19750
X15100Y20350
X14820Y19920
X14440Y20270
X13850Y19650
X13300Y21540
X12630Y21450
X13530Y22330
X12080Y23470
X11600Y24460
X11760Y25380
X12750Y24580
X13020Y27550
X13610Y27930
X10560Y29880
X8430Y29473
X7900Y27730
X5500Y26250
X4950Y27800
X9700Y18630
X8380Y17530
X10250Y15710
X11310Y15710
X11440Y15010
X11760Y14610
X10600Y13380
X9840Y12770
X9100Y11600
X8100Y11600
X7850Y12450
X10340Y10880
X15520Y11520
X16417Y14274
X16190Y14900
X16473Y15280
X17740Y16020
X19150Y13050
X11910Y17650
X8910Y15390
X7000Y15150
X4700Y11550
X4700Y10200
X26170Y5790
X29780Y6880
X32790Y5790
T02
X26250Y8250
X23750Y8250
X17300Y22700
X14850Y22650
X3900Y21900
X1500Y23350
X2232Y16750
T03
X20800Y24950
X21800Y24950
X22800Y24950
X22750Y26850
X21750Y26850
X20750Y26850
X20700Y28700
X21700Y28700
X22700Y28700
T04
X11300Y21600
X10300Y21600
X4900Y24150
X3900Y24150
X3100Y24150
X2100Y24150
X2100Y25800
X3100Y25800
X3900Y25850
X4900Y25850
X7500Y9100
X8500Y9100
X14650Y9000
X15650Y9000
X21200Y9000
X22200Y9000
X28300Y9000
X29300Y9000
X34750Y9050
X35750Y9050
T05
X30400Y14150
X31400Y14650
X30400Y15150
X31400Y15650
X30400Y16150
X31400Y16650
X30400Y17150
X31400Y17650
X18630Y25000
X16070Y25000
X25550Y28450
X26550Y28450
X27550Y28450
X27050Y29450
X26050Y29450
X28050Y29450
X31800Y28450
X32800Y28450
X33800Y28450
X33300Y29450
X32300Y29450
X34300Y29450
X3250Y29539
X3250Y28161
X5650Y2450
X6650Y2450
X7650Y2450
X7150Y1450
X6150Y1450
X5150Y1450
X11900Y1450
X12900Y1450
X13900Y1450
X13400Y2450
X14400Y2450
X12400Y2450
X18650Y1400
X19650Y1400
X20650Y1400
X20150Y2400
X21150Y2400
X19150Y2400
X25450Y1400
X26450Y1400
X27450Y1400
X26950Y2400
X25950Y2400
X27950Y2400
X32150Y1400
X33150Y1400
X34150Y1400
X33650Y2400
X32650Y2400
X34650Y2400
T06
X18400Y28350
X17400Y28350
X17400Y29350
X18400Y29350
X16400Y29350
X16400Y28350
T07
X14100Y28450
X13100Y28450
X12100Y28450
X11100Y28450
X10100Y28450
X9100Y28450
X9100Y29450
X10100Y29450
X11100Y29450
X12100Y29450
X13100Y29450
X14100Y29450
X17950Y11850
X18950Y11850
X35506Y13292
X35506Y14292
X35506Y17508
X35506Y18508
T08
X32699Y18949
X32699Y12851
T09
X2704Y17916
X2704Y19884
T10
X1916Y18900
X4081Y17916
X5519Y17837
X6050Y15829
X5519Y19963
X4081Y19884
X6050Y21971
T11
X2704Y21971
X2704Y15829
T12
X33900Y13650
X33900Y18150
T13
X35050Y25950
X31050Y25950
X28800Y25950
X24800Y25950
X24700Y4900
X21900Y4900
X17900Y4900
X15150Y4950
X11150Y4950
X8400Y4950
X4400Y4950
X28700Y4900
X31400Y4900
X35400Y4900
M30
