G75*
%MOIN*%
%OFA0B0*%
%FSLAX24Y24*%
%IPPOS*%
%LPD*%
%AMOC8*
5,1,8,0,0,1.08239X$1,22.5*
%
%ADD10R,0.0512X0.0591*%
%ADD11R,0.0748X0.1339*%
%ADD12R,0.0709X0.0630*%
%ADD13R,0.0472X0.0551*%
%ADD14R,0.0630X0.0512*%
%ADD15R,0.0591X0.0512*%
%ADD16R,0.0551X0.0472*%
%ADD17R,0.0750X0.1250*%
%ADD18R,0.0880X0.0480*%
%ADD19R,0.0866X0.1417*%
D10*
X010726Y026700D03*
X011474Y026700D03*
X017226Y026700D03*
X017974Y026700D03*
X023726Y026700D03*
X024474Y026700D03*
X030226Y026700D03*
X030974Y026700D03*
X036726Y026575D03*
X037474Y026575D03*
D11*
X010332Y001700D03*
X011868Y001700D03*
D12*
X015100Y006649D03*
X016100Y006649D03*
X016100Y007751D03*
X015100Y007751D03*
X019600Y005751D03*
X019600Y004649D03*
X010100Y012149D03*
X010100Y013251D03*
D13*
X012509Y008200D03*
X013691Y008200D03*
X013691Y007200D03*
X013691Y006200D03*
X012509Y006200D03*
X012509Y007200D03*
D14*
X021600Y005574D03*
X021600Y004826D03*
D15*
X032600Y006326D03*
X032600Y007074D03*
X033600Y007074D03*
X033600Y006326D03*
X033600Y008826D03*
X032600Y008826D03*
X032600Y009574D03*
X033600Y009574D03*
X034600Y009574D03*
X034600Y008826D03*
D16*
X034600Y010609D03*
X033600Y010609D03*
X032600Y010609D03*
X032600Y011791D03*
X033600Y011791D03*
X034600Y011791D03*
D17*
X029475Y010575D03*
X027725Y010575D03*
X027725Y007825D03*
X029475Y007825D03*
D18*
X027380Y024290D03*
X027380Y025200D03*
X027380Y026110D03*
X020880Y026110D03*
X020880Y025200D03*
X020880Y024290D03*
X014380Y024290D03*
X014380Y025200D03*
X014380Y026110D03*
X007880Y026110D03*
X007880Y025200D03*
X007880Y024290D03*
X033880Y024290D03*
X033880Y025200D03*
X033880Y026110D03*
D19*
X036320Y025200D03*
X029820Y025200D03*
X023320Y025200D03*
X016820Y025200D03*
X010320Y025200D03*
M02*
