%
M48
M72
T01C0.0120
T02C0.0315
T03C0.0350
T04C0.0354
T05C0.0433
T06C0.0669
T07C0.0787
T08C0.0866
T09C0.0935
T10C0.1260
T11C0.1280
%
T01
X9420Y7480
X10780Y6520
X13260Y6840
X13980Y7720
X12940Y8600
X13980Y9000
X15740Y10600
X16460Y10520
X16460Y11720
X16460Y12840
X16460Y13240
X19740Y11080
X20140Y11080
X20620Y10760
X20940Y10600
X20940Y10200
X20940Y9880
X20300Y9320
X19980Y9320
X19420Y9960
X19260Y10760
X20940Y11080
X24060Y11080
X26620Y12040
X24380Y13240
X22700Y13880
X21660Y14280
X21340Y14200
X22380Y15640
X23740Y15640
X26300Y17480
X26940Y16840
X25100Y17800
X26620Y18920
X25980Y19640
X23180Y19640
X22380Y18840
X21740Y17800
X19820Y19640
X19180Y20760
X19180Y21080
X17020Y19480
X17340Y19160
X15260Y20840
X12620Y21160
X14860Y23800
X11900Y26280
X7260Y23720
X18380Y26280
X24780Y26200
X31420Y26280
X37180Y22920
X37740Y26040
X32380Y21480
X32460Y20760
X32060Y20760
X31500Y14280
X27260Y9080
X25980Y9000
X24140Y7400
X22300Y6520
X22620Y5880
X23500Y5880
X20620Y6520
X19020Y5480
X19020Y4920
X17900Y6520
X15500Y5640
X17100Y4280
X17580Y3560
X19500Y3320
X19820Y2520
X22940Y3000
X23660Y3320
X15340Y4200
X13580Y4200
X12620Y2280
X16460Y9320
X12060Y12040
X11500Y11400
X10140Y12680
X9020Y12680
X8220Y13400
X7580Y13160
X7580Y13720
X6940Y13640
X7580Y12680
X7660Y12120
X11180Y9640
X11820Y14200
T02
X27600Y13694
X28600Y13694
X29600Y13694
X30600Y13694
X31600Y13694
X32600Y13694
X33600Y13694
X34600Y13694
X35600Y13694
X36600Y13694
X36600Y4899
X35600Y4899
X34600Y4899
X33600Y4899
X32600Y4899
X31600Y4899
X30600Y4899
X29600Y4899
X28600Y4899
X27600Y4899
T03
X16100Y4200
X14100Y3800
X14100Y4600
T04
X5600Y11834
X5600Y13566
X9350Y21200
X10350Y21200
X11350Y21200
X10850Y22200
X9850Y22200
X8850Y22200
X15350Y22200
X16350Y22200
X17350Y22200
X16850Y21200
X15850Y21200
X17850Y21200
X21850Y22200
X22850Y22200
X23850Y22200
X23350Y21200
X22350Y21200
X24350Y21200
X28350Y22200
X29350Y22200
X30350Y22200
X29850Y21200
X28850Y21200
X30850Y21200
X34850Y22200
X35850Y22200
X36850Y22200
X36350Y21200
X35350Y21200
X37350Y21200
T05
X4600Y17200
T06
X5254Y7184
X5254Y5216
T07
X4466Y6200
X6631Y5216
X8069Y5137
X8600Y3129
X6631Y7184
X8069Y7263
X8600Y9271
T08
X5254Y9271
X5254Y3129
T09
X14850Y3200
X16100Y3200
X16100Y5200
X14850Y5200
T10
X4100Y1200
X40100Y1200
X40100Y27200
X4100Y27200
T11
X8100Y18700
X12100Y18700
X14600Y18700
X18600Y18700
X21100Y18700
X25100Y18700
X27600Y18700
X31600Y18700
X34100Y18700
X38100Y18700
M30
