G75*
%MOIN*%
%OFA0B0*%
%FSLAX24Y24*%
%IPPOS*%
%LPD*%
%AMOC8*
5,1,8,0,0,1.08239X$1,22.5*
%
%ADD10C,0.0000*%
%ADD11C,0.0001*%
%ADD12R,0.0118X0.0256*%
%ADD13R,0.0256X0.0118*%
%ADD14C,0.0554*%
%ADD15R,0.0630X0.0787*%
%ADD16C,0.0705*%
%ADD17C,0.0320*%
%ADD18R,0.0356X0.0356*%
%ADD19C,0.0160*%
D10*
X000260Y001204D02*
X000260Y032700D01*
X039630Y032700D01*
X039630Y001204D01*
X000260Y001204D01*
X001120Y003204D02*
X001122Y003254D01*
X001128Y003304D01*
X001138Y003353D01*
X001151Y003402D01*
X001169Y003449D01*
X001190Y003495D01*
X001214Y003538D01*
X001242Y003580D01*
X001273Y003620D01*
X001307Y003657D01*
X001344Y003691D01*
X001384Y003722D01*
X001426Y003750D01*
X001469Y003774D01*
X001515Y003795D01*
X001562Y003813D01*
X001611Y003826D01*
X001660Y003836D01*
X001710Y003842D01*
X001760Y003844D01*
X001810Y003842D01*
X001860Y003836D01*
X001909Y003826D01*
X001958Y003813D01*
X002005Y003795D01*
X002051Y003774D01*
X002094Y003750D01*
X002136Y003722D01*
X002176Y003691D01*
X002213Y003657D01*
X002247Y003620D01*
X002278Y003580D01*
X002306Y003538D01*
X002330Y003495D01*
X002351Y003449D01*
X002369Y003402D01*
X002382Y003353D01*
X002392Y003304D01*
X002398Y003254D01*
X002400Y003204D01*
X002398Y003154D01*
X002392Y003104D01*
X002382Y003055D01*
X002369Y003006D01*
X002351Y002959D01*
X002330Y002913D01*
X002306Y002870D01*
X002278Y002828D01*
X002247Y002788D01*
X002213Y002751D01*
X002176Y002717D01*
X002136Y002686D01*
X002094Y002658D01*
X002051Y002634D01*
X002005Y002613D01*
X001958Y002595D01*
X001909Y002582D01*
X001860Y002572D01*
X001810Y002566D01*
X001760Y002564D01*
X001710Y002566D01*
X001660Y002572D01*
X001611Y002582D01*
X001562Y002595D01*
X001515Y002613D01*
X001469Y002634D01*
X001426Y002658D01*
X001384Y002686D01*
X001344Y002717D01*
X001307Y002751D01*
X001273Y002788D01*
X001242Y002828D01*
X001214Y002870D01*
X001190Y002913D01*
X001169Y002959D01*
X001151Y003006D01*
X001138Y003055D01*
X001128Y003104D01*
X001122Y003154D01*
X001120Y003204D01*
X005120Y003204D02*
X005122Y003254D01*
X005128Y003304D01*
X005138Y003353D01*
X005151Y003402D01*
X005169Y003449D01*
X005190Y003495D01*
X005214Y003538D01*
X005242Y003580D01*
X005273Y003620D01*
X005307Y003657D01*
X005344Y003691D01*
X005384Y003722D01*
X005426Y003750D01*
X005469Y003774D01*
X005515Y003795D01*
X005562Y003813D01*
X005611Y003826D01*
X005660Y003836D01*
X005710Y003842D01*
X005760Y003844D01*
X005810Y003842D01*
X005860Y003836D01*
X005909Y003826D01*
X005958Y003813D01*
X006005Y003795D01*
X006051Y003774D01*
X006094Y003750D01*
X006136Y003722D01*
X006176Y003691D01*
X006213Y003657D01*
X006247Y003620D01*
X006278Y003580D01*
X006306Y003538D01*
X006330Y003495D01*
X006351Y003449D01*
X006369Y003402D01*
X006382Y003353D01*
X006392Y003304D01*
X006398Y003254D01*
X006400Y003204D01*
X006398Y003154D01*
X006392Y003104D01*
X006382Y003055D01*
X006369Y003006D01*
X006351Y002959D01*
X006330Y002913D01*
X006306Y002870D01*
X006278Y002828D01*
X006247Y002788D01*
X006213Y002751D01*
X006176Y002717D01*
X006136Y002686D01*
X006094Y002658D01*
X006051Y002634D01*
X006005Y002613D01*
X005958Y002595D01*
X005909Y002582D01*
X005860Y002572D01*
X005810Y002566D01*
X005760Y002564D01*
X005710Y002566D01*
X005660Y002572D01*
X005611Y002582D01*
X005562Y002595D01*
X005515Y002613D01*
X005469Y002634D01*
X005426Y002658D01*
X005384Y002686D01*
X005344Y002717D01*
X005307Y002751D01*
X005273Y002788D01*
X005242Y002828D01*
X005214Y002870D01*
X005190Y002913D01*
X005169Y002959D01*
X005151Y003006D01*
X005138Y003055D01*
X005128Y003104D01*
X005122Y003154D01*
X005120Y003204D01*
X007732Y005584D02*
X007774Y005569D01*
X007818Y005564D01*
X008900Y005564D01*
X008900Y006844D01*
X007620Y006844D01*
X007620Y005762D01*
X007625Y005718D01*
X007640Y005676D01*
X007663Y005638D01*
X007695Y005607D01*
X007732Y005584D01*
D11*
X007732Y005583D02*
X008900Y005583D01*
X008900Y005582D02*
X007735Y005582D01*
X007738Y005581D02*
X008900Y005581D01*
X008900Y005580D02*
X007741Y005580D01*
X007744Y005579D02*
X008900Y005579D01*
X008900Y005578D02*
X007747Y005578D01*
X007750Y005577D02*
X008900Y005577D01*
X008900Y005576D02*
X007752Y005576D01*
X007755Y005575D02*
X008900Y005575D01*
X008900Y005574D02*
X007758Y005574D01*
X007761Y005573D02*
X008900Y005573D01*
X008900Y005572D02*
X007764Y005572D01*
X007767Y005571D02*
X008900Y005571D01*
X008900Y005570D02*
X007770Y005570D01*
X007772Y005569D02*
X008900Y005569D01*
X008900Y005568D02*
X007778Y005568D01*
X007787Y005567D02*
X008900Y005567D01*
X008900Y005566D02*
X007796Y005566D01*
X007805Y005565D02*
X008900Y005565D01*
X008900Y005564D02*
X007814Y005564D01*
X007731Y005584D02*
X008900Y005584D01*
X008900Y005585D02*
X007729Y005585D01*
X007728Y005586D02*
X008900Y005586D01*
X008900Y005587D02*
X007726Y005587D01*
X007724Y005588D02*
X008900Y005588D01*
X008900Y005589D02*
X007723Y005589D01*
X007721Y005590D02*
X008900Y005590D01*
X008900Y005591D02*
X007720Y005591D01*
X007718Y005592D02*
X008900Y005592D01*
X008900Y005593D02*
X007716Y005593D01*
X007715Y005594D02*
X008900Y005594D01*
X008900Y005595D02*
X007713Y005595D01*
X007712Y005596D02*
X008900Y005596D01*
X008900Y005597D02*
X007710Y005597D01*
X007708Y005598D02*
X008900Y005598D01*
X008900Y005599D02*
X007707Y005599D01*
X007705Y005600D02*
X008900Y005600D01*
X008900Y005601D02*
X007704Y005601D01*
X007702Y005602D02*
X008900Y005602D01*
X008900Y005603D02*
X007701Y005603D01*
X007699Y005604D02*
X008900Y005604D01*
X008900Y005605D02*
X007697Y005605D01*
X007696Y005606D02*
X008900Y005606D01*
X008900Y005607D02*
X007694Y005607D01*
X007693Y005608D02*
X008900Y005608D01*
X008900Y005609D02*
X007692Y005609D01*
X007691Y005610D02*
X008900Y005610D01*
X008900Y005611D02*
X007690Y005611D01*
X007689Y005612D02*
X008900Y005612D01*
X008900Y005613D02*
X007688Y005613D01*
X007687Y005614D02*
X008900Y005614D01*
X008900Y005615D02*
X007686Y005615D01*
X007685Y005616D02*
X008900Y005616D01*
X008900Y005617D02*
X007684Y005617D01*
X007683Y005618D02*
X008900Y005618D01*
X008900Y005619D02*
X007682Y005619D01*
X007681Y005620D02*
X008900Y005620D01*
X008900Y005621D02*
X007680Y005621D01*
X007679Y005622D02*
X008900Y005622D01*
X008900Y005623D02*
X007678Y005623D01*
X007677Y005624D02*
X008900Y005624D01*
X008900Y005625D02*
X007676Y005625D01*
X007675Y005626D02*
X008900Y005626D01*
X008900Y005627D02*
X007674Y005627D01*
X007673Y005628D02*
X008900Y005628D01*
X008900Y005629D02*
X007672Y005629D01*
X007671Y005630D02*
X008900Y005630D01*
X008900Y005631D02*
X007670Y005631D01*
X007669Y005632D02*
X008900Y005632D01*
X008900Y005633D02*
X007668Y005633D01*
X007667Y005634D02*
X008900Y005634D01*
X008900Y005635D02*
X007666Y005635D01*
X007665Y005636D02*
X008900Y005636D01*
X008900Y005637D02*
X007664Y005637D01*
X007663Y005638D02*
X008900Y005638D01*
X008900Y005639D02*
X007663Y005639D01*
X007662Y005640D02*
X008900Y005640D01*
X008900Y005641D02*
X007661Y005641D01*
X007661Y005642D02*
X008900Y005642D01*
X008900Y005643D02*
X007660Y005643D01*
X007660Y005644D02*
X008900Y005644D01*
X008900Y005645D02*
X007659Y005645D01*
X007658Y005646D02*
X008900Y005646D01*
X008900Y005647D02*
X007658Y005647D01*
X007657Y005648D02*
X008900Y005648D01*
X008900Y005649D02*
X007656Y005649D01*
X007656Y005650D02*
X008900Y005650D01*
X008900Y005651D02*
X007655Y005651D01*
X007655Y005652D02*
X008900Y005652D01*
X008900Y005653D02*
X007654Y005653D01*
X007653Y005654D02*
X008900Y005654D01*
X008900Y005655D02*
X007653Y005655D01*
X007652Y005656D02*
X008900Y005656D01*
X008900Y005657D02*
X007651Y005657D01*
X007651Y005658D02*
X008900Y005658D01*
X008900Y005659D02*
X007650Y005659D01*
X007650Y005660D02*
X008900Y005660D01*
X008900Y005661D02*
X007649Y005661D01*
X007648Y005662D02*
X008900Y005662D01*
X008900Y005663D02*
X007648Y005663D01*
X007647Y005664D02*
X008900Y005664D01*
X008900Y005665D02*
X007646Y005665D01*
X007646Y005666D02*
X008900Y005666D01*
X008900Y005667D02*
X007645Y005667D01*
X007645Y005668D02*
X008900Y005668D01*
X008900Y005669D02*
X007644Y005669D01*
X007643Y005670D02*
X008900Y005670D01*
X008900Y005671D02*
X007643Y005671D01*
X007642Y005672D02*
X008900Y005672D01*
X008900Y005673D02*
X007641Y005673D01*
X007641Y005674D02*
X008900Y005674D01*
X008900Y005675D02*
X007640Y005675D01*
X007640Y005676D02*
X008900Y005676D01*
X008900Y005677D02*
X007639Y005677D01*
X007639Y005678D02*
X008900Y005678D01*
X008900Y005679D02*
X007639Y005679D01*
X007638Y005680D02*
X008900Y005680D01*
X008900Y005681D02*
X007638Y005681D01*
X007638Y005682D02*
X008900Y005682D01*
X008900Y005683D02*
X007637Y005683D01*
X007637Y005684D02*
X008900Y005684D01*
X008900Y005685D02*
X007637Y005685D01*
X007636Y005686D02*
X008900Y005686D01*
X008900Y005687D02*
X007636Y005687D01*
X007635Y005688D02*
X008900Y005688D01*
X008900Y005689D02*
X007635Y005689D01*
X007635Y005690D02*
X008900Y005690D01*
X008900Y005691D02*
X007634Y005691D01*
X007634Y005692D02*
X008900Y005692D01*
X008900Y005693D02*
X007634Y005693D01*
X007633Y005694D02*
X008900Y005694D01*
X008900Y005695D02*
X007633Y005695D01*
X007633Y005696D02*
X008900Y005696D01*
X008900Y005697D02*
X007632Y005697D01*
X007632Y005698D02*
X008900Y005698D01*
X008900Y005699D02*
X007632Y005699D01*
X007631Y005700D02*
X008900Y005700D01*
X008900Y005701D02*
X007631Y005701D01*
X007631Y005702D02*
X008900Y005702D01*
X008900Y005703D02*
X007630Y005703D01*
X007630Y005704D02*
X008900Y005704D01*
X008900Y005705D02*
X007630Y005705D01*
X007629Y005706D02*
X008900Y005706D01*
X008900Y005707D02*
X007629Y005707D01*
X007628Y005708D02*
X008900Y005708D01*
X008900Y005709D02*
X007628Y005709D01*
X007628Y005710D02*
X008900Y005710D01*
X008900Y005711D02*
X007627Y005711D01*
X007627Y005712D02*
X008900Y005712D01*
X008900Y005713D02*
X007627Y005713D01*
X007626Y005714D02*
X008900Y005714D01*
X008900Y005715D02*
X007626Y005715D01*
X007626Y005716D02*
X008900Y005716D01*
X008900Y005717D02*
X007625Y005717D01*
X007625Y005718D02*
X008900Y005718D01*
X008900Y005719D02*
X007625Y005719D01*
X007625Y005720D02*
X008900Y005720D01*
X008900Y005721D02*
X007625Y005721D01*
X007625Y005722D02*
X008900Y005722D01*
X008900Y005723D02*
X007625Y005723D01*
X007624Y005724D02*
X008900Y005724D01*
X008900Y005725D02*
X007624Y005725D01*
X007624Y005726D02*
X008900Y005726D01*
X008900Y005727D02*
X007624Y005727D01*
X007624Y005728D02*
X008900Y005728D01*
X008900Y005729D02*
X007624Y005729D01*
X007624Y005730D02*
X008900Y005730D01*
X008900Y005731D02*
X007624Y005731D01*
X007624Y005732D02*
X008900Y005732D01*
X008900Y005733D02*
X007623Y005733D01*
X007623Y005734D02*
X008900Y005734D01*
X008900Y005735D02*
X007623Y005735D01*
X007623Y005736D02*
X008900Y005736D01*
X008900Y005737D02*
X007623Y005737D01*
X007623Y005738D02*
X008900Y005738D01*
X008900Y005739D02*
X007623Y005739D01*
X007623Y005740D02*
X008900Y005740D01*
X008900Y005741D02*
X007623Y005741D01*
X007622Y005742D02*
X008900Y005742D01*
X008900Y005743D02*
X007622Y005743D01*
X007622Y005744D02*
X008900Y005744D01*
X008900Y005745D02*
X007622Y005745D01*
X007622Y005746D02*
X008900Y005746D01*
X008900Y005747D02*
X007622Y005747D01*
X007622Y005748D02*
X008900Y005748D01*
X008900Y005749D02*
X007622Y005749D01*
X007622Y005750D02*
X008900Y005750D01*
X008900Y005751D02*
X007621Y005751D01*
X007621Y005752D02*
X008900Y005752D01*
X008900Y005753D02*
X007621Y005753D01*
X007621Y005754D02*
X008900Y005754D01*
X008900Y005755D02*
X007621Y005755D01*
X007621Y005756D02*
X008900Y005756D01*
X008900Y005757D02*
X007621Y005757D01*
X007621Y005758D02*
X008900Y005758D01*
X008900Y005759D02*
X007621Y005759D01*
X007620Y005760D02*
X008900Y005760D01*
X008900Y005761D02*
X007620Y005761D01*
X007620Y005762D02*
X008900Y005762D01*
X008900Y005763D02*
X007620Y005763D01*
X007620Y005764D02*
X008900Y005764D01*
X008900Y005765D02*
X007620Y005765D01*
X007620Y005766D02*
X008900Y005766D01*
X008900Y005767D02*
X007620Y005767D01*
X007620Y005768D02*
X008900Y005768D01*
X008900Y005769D02*
X007620Y005769D01*
X007620Y005770D02*
X008900Y005770D01*
X008900Y005771D02*
X007620Y005771D01*
X007620Y005772D02*
X008900Y005772D01*
X008900Y005773D02*
X007620Y005773D01*
X007620Y005774D02*
X008900Y005774D01*
X008900Y005775D02*
X007620Y005775D01*
X007620Y005776D02*
X008900Y005776D01*
X008900Y005777D02*
X007620Y005777D01*
X007620Y005778D02*
X008900Y005778D01*
X008900Y005779D02*
X007620Y005779D01*
X007620Y005780D02*
X008900Y005780D01*
X008900Y005781D02*
X007620Y005781D01*
X007620Y005782D02*
X008900Y005782D01*
X008900Y005783D02*
X007620Y005783D01*
X007620Y005784D02*
X008900Y005784D01*
X008900Y005785D02*
X007620Y005785D01*
X007620Y005786D02*
X008900Y005786D01*
X008900Y005787D02*
X007620Y005787D01*
X007620Y005788D02*
X008900Y005788D01*
X008900Y005789D02*
X007620Y005789D01*
X007620Y005790D02*
X008900Y005790D01*
X008900Y005791D02*
X007620Y005791D01*
X007620Y005792D02*
X008900Y005792D01*
X008900Y005793D02*
X007620Y005793D01*
X007620Y005794D02*
X008900Y005794D01*
X008900Y005795D02*
X007620Y005795D01*
X007620Y005796D02*
X008900Y005796D01*
X008900Y005797D02*
X007620Y005797D01*
X007620Y005798D02*
X008900Y005798D01*
X008900Y005799D02*
X007620Y005799D01*
X007620Y005800D02*
X008900Y005800D01*
X008900Y005801D02*
X007620Y005801D01*
X007620Y005802D02*
X008900Y005802D01*
X008900Y005803D02*
X007620Y005803D01*
X007620Y005804D02*
X008900Y005804D01*
X008900Y005805D02*
X007620Y005805D01*
X007620Y005806D02*
X008900Y005806D01*
X008900Y005807D02*
X007620Y005807D01*
X007620Y005808D02*
X008900Y005808D01*
X008900Y005809D02*
X007620Y005809D01*
X007620Y005810D02*
X008900Y005810D01*
X008900Y005811D02*
X007620Y005811D01*
X007620Y005812D02*
X008900Y005812D01*
X008900Y005813D02*
X007620Y005813D01*
X007620Y005814D02*
X008900Y005814D01*
X008900Y005815D02*
X007620Y005815D01*
X007620Y005816D02*
X008900Y005816D01*
X008900Y005817D02*
X007620Y005817D01*
X007620Y005818D02*
X008900Y005818D01*
X008900Y005819D02*
X007620Y005819D01*
X007620Y005820D02*
X008900Y005820D01*
X008900Y005821D02*
X007620Y005821D01*
X007620Y005822D02*
X008900Y005822D01*
X008900Y005823D02*
X007620Y005823D01*
X007620Y005824D02*
X008900Y005824D01*
X008900Y005825D02*
X007620Y005825D01*
X007620Y005826D02*
X008900Y005826D01*
X008900Y005827D02*
X007620Y005827D01*
X007620Y005828D02*
X008900Y005828D01*
X008900Y005829D02*
X007620Y005829D01*
X007620Y005830D02*
X008900Y005830D01*
X008900Y005831D02*
X007620Y005831D01*
X007620Y005832D02*
X008900Y005832D01*
X008900Y005833D02*
X007620Y005833D01*
X007620Y005834D02*
X008900Y005834D01*
X008900Y005835D02*
X007620Y005835D01*
X007620Y005836D02*
X008900Y005836D01*
X008900Y005837D02*
X007620Y005837D01*
X007620Y005838D02*
X008900Y005838D01*
X008900Y005839D02*
X007620Y005839D01*
X007620Y005840D02*
X008900Y005840D01*
X008900Y005841D02*
X007620Y005841D01*
X007620Y005842D02*
X008900Y005842D01*
X008900Y005843D02*
X007620Y005843D01*
X007620Y005844D02*
X008900Y005844D01*
X008900Y005845D02*
X007620Y005845D01*
X007620Y005846D02*
X008900Y005846D01*
X008900Y005847D02*
X007620Y005847D01*
X007620Y005848D02*
X008900Y005848D01*
X008900Y005849D02*
X007620Y005849D01*
X007620Y005850D02*
X008900Y005850D01*
X008900Y005851D02*
X007620Y005851D01*
X007620Y005852D02*
X008900Y005852D01*
X008900Y005853D02*
X007620Y005853D01*
X007620Y005854D02*
X008900Y005854D01*
X008900Y005855D02*
X007620Y005855D01*
X007620Y005856D02*
X008900Y005856D01*
X008900Y005857D02*
X007620Y005857D01*
X007620Y005858D02*
X008900Y005858D01*
X008900Y005859D02*
X007620Y005859D01*
X007620Y005860D02*
X008900Y005860D01*
X008900Y005861D02*
X007620Y005861D01*
X007620Y005862D02*
X008900Y005862D01*
X008900Y005863D02*
X007620Y005863D01*
X007620Y005864D02*
X008900Y005864D01*
X008900Y005865D02*
X007620Y005865D01*
X007620Y005866D02*
X008900Y005866D01*
X008900Y005867D02*
X007620Y005867D01*
X007620Y005868D02*
X008900Y005868D01*
X008900Y005869D02*
X007620Y005869D01*
X007620Y005870D02*
X008900Y005870D01*
X008900Y005871D02*
X007620Y005871D01*
X007620Y005872D02*
X008900Y005872D01*
X008900Y005873D02*
X007620Y005873D01*
X007620Y005874D02*
X008900Y005874D01*
X008900Y005875D02*
X007620Y005875D01*
X007620Y005876D02*
X008900Y005876D01*
X008900Y005877D02*
X007620Y005877D01*
X007620Y005878D02*
X008900Y005878D01*
X008900Y005879D02*
X007620Y005879D01*
X007620Y005880D02*
X008900Y005880D01*
X008900Y005881D02*
X007620Y005881D01*
X007620Y005882D02*
X008900Y005882D01*
X008900Y005883D02*
X007620Y005883D01*
X007620Y005884D02*
X008900Y005884D01*
X008900Y005885D02*
X007620Y005885D01*
X007620Y005886D02*
X008900Y005886D01*
X008900Y005887D02*
X007620Y005887D01*
X007620Y005888D02*
X008900Y005888D01*
X008900Y005889D02*
X007620Y005889D01*
X007620Y005890D02*
X008900Y005890D01*
X008900Y005891D02*
X007620Y005891D01*
X007620Y005892D02*
X008900Y005892D01*
X008900Y005893D02*
X007620Y005893D01*
X007620Y005894D02*
X008900Y005894D01*
X008900Y005895D02*
X007620Y005895D01*
X007620Y005896D02*
X008900Y005896D01*
X008900Y005897D02*
X007620Y005897D01*
X007620Y005898D02*
X008900Y005898D01*
X008900Y005899D02*
X007620Y005899D01*
X007620Y005900D02*
X008900Y005900D01*
X008900Y005901D02*
X007620Y005901D01*
X007620Y005902D02*
X008900Y005902D01*
X008900Y005903D02*
X007620Y005903D01*
X007620Y005904D02*
X008900Y005904D01*
X008900Y005905D02*
X007620Y005905D01*
X007620Y005906D02*
X008900Y005906D01*
X008900Y005907D02*
X007620Y005907D01*
X007620Y005908D02*
X008900Y005908D01*
X008900Y005909D02*
X007620Y005909D01*
X007620Y005910D02*
X008900Y005910D01*
X008900Y005911D02*
X007620Y005911D01*
X007620Y005912D02*
X008900Y005912D01*
X008900Y005913D02*
X007620Y005913D01*
X007620Y005914D02*
X008900Y005914D01*
X008900Y005915D02*
X007620Y005915D01*
X007620Y005916D02*
X008900Y005916D01*
X008900Y005917D02*
X007620Y005917D01*
X007620Y005918D02*
X008900Y005918D01*
X008900Y005919D02*
X007620Y005919D01*
X007620Y005920D02*
X008900Y005920D01*
X008900Y005921D02*
X007620Y005921D01*
X007620Y005922D02*
X008900Y005922D01*
X008900Y005923D02*
X007620Y005923D01*
X007620Y005924D02*
X008900Y005924D01*
X008900Y005925D02*
X007620Y005925D01*
X007620Y005926D02*
X008900Y005926D01*
X008900Y005927D02*
X007620Y005927D01*
X007620Y005928D02*
X008900Y005928D01*
X008900Y005929D02*
X007620Y005929D01*
X007620Y005930D02*
X008900Y005930D01*
X008900Y005931D02*
X007620Y005931D01*
X007620Y005932D02*
X008900Y005932D01*
X008900Y005933D02*
X007620Y005933D01*
X007620Y005934D02*
X008900Y005934D01*
X008900Y005935D02*
X007620Y005935D01*
X007620Y005936D02*
X008900Y005936D01*
X008900Y005937D02*
X007620Y005937D01*
X007620Y005938D02*
X008900Y005938D01*
X008900Y005939D02*
X007620Y005939D01*
X007620Y005940D02*
X008900Y005940D01*
X008900Y005941D02*
X007620Y005941D01*
X007620Y005942D02*
X008900Y005942D01*
X008900Y005943D02*
X007620Y005943D01*
X007620Y005944D02*
X008900Y005944D01*
X008900Y005945D02*
X007620Y005945D01*
X007620Y005946D02*
X008900Y005946D01*
X008900Y005947D02*
X007620Y005947D01*
X007620Y005948D02*
X008900Y005948D01*
X008900Y005949D02*
X007620Y005949D01*
X007620Y005950D02*
X008900Y005950D01*
X008900Y005951D02*
X007620Y005951D01*
X007620Y005952D02*
X008900Y005952D01*
X008900Y005953D02*
X007620Y005953D01*
X007620Y005954D02*
X008900Y005954D01*
X008900Y005955D02*
X007620Y005955D01*
X007620Y005956D02*
X008900Y005956D01*
X008900Y005957D02*
X007620Y005957D01*
X007620Y005958D02*
X008900Y005958D01*
X008900Y005959D02*
X007620Y005959D01*
X007620Y005960D02*
X008900Y005960D01*
X008900Y005961D02*
X007620Y005961D01*
X007620Y005962D02*
X008900Y005962D01*
X008900Y005963D02*
X007620Y005963D01*
X007620Y005964D02*
X008900Y005964D01*
X008900Y005965D02*
X007620Y005965D01*
X007620Y005966D02*
X008900Y005966D01*
X008900Y005967D02*
X007620Y005967D01*
X007620Y005968D02*
X008900Y005968D01*
X008900Y005969D02*
X007620Y005969D01*
X007620Y005970D02*
X008900Y005970D01*
X008900Y005971D02*
X007620Y005971D01*
X007620Y005972D02*
X008900Y005972D01*
X008900Y005973D02*
X007620Y005973D01*
X007620Y005974D02*
X008900Y005974D01*
X008900Y005975D02*
X007620Y005975D01*
X007620Y005976D02*
X008900Y005976D01*
X008900Y005977D02*
X007620Y005977D01*
X007620Y005978D02*
X008900Y005978D01*
X008900Y005979D02*
X007620Y005979D01*
X007620Y005980D02*
X008900Y005980D01*
X008900Y005981D02*
X007620Y005981D01*
X007620Y005982D02*
X008900Y005982D01*
X008900Y005983D02*
X007620Y005983D01*
X007620Y005984D02*
X008900Y005984D01*
X008900Y005985D02*
X007620Y005985D01*
X007620Y005986D02*
X008900Y005986D01*
X008900Y005987D02*
X007620Y005987D01*
X007620Y005988D02*
X008900Y005988D01*
X008900Y005989D02*
X007620Y005989D01*
X007620Y005990D02*
X008900Y005990D01*
X008900Y005991D02*
X007620Y005991D01*
X007620Y005992D02*
X008900Y005992D01*
X008900Y005993D02*
X007620Y005993D01*
X007620Y005994D02*
X008900Y005994D01*
X008900Y005995D02*
X007620Y005995D01*
X007620Y005996D02*
X008900Y005996D01*
X008900Y005997D02*
X007620Y005997D01*
X007620Y005998D02*
X008900Y005998D01*
X008900Y005999D02*
X007620Y005999D01*
X007620Y006000D02*
X008900Y006000D01*
X008900Y006001D02*
X007620Y006001D01*
X007620Y006002D02*
X008900Y006002D01*
X008900Y006003D02*
X007620Y006003D01*
X007620Y006004D02*
X008900Y006004D01*
X008900Y006005D02*
X007620Y006005D01*
X007620Y006006D02*
X008900Y006006D01*
X008900Y006007D02*
X007620Y006007D01*
X007620Y006008D02*
X008900Y006008D01*
X008900Y006009D02*
X007620Y006009D01*
X007620Y006010D02*
X008900Y006010D01*
X008900Y006011D02*
X007620Y006011D01*
X007620Y006012D02*
X008900Y006012D01*
X008900Y006013D02*
X007620Y006013D01*
X007620Y006014D02*
X008900Y006014D01*
X008900Y006015D02*
X007620Y006015D01*
X007620Y006016D02*
X008900Y006016D01*
X008900Y006017D02*
X007620Y006017D01*
X007620Y006018D02*
X008900Y006018D01*
X008900Y006019D02*
X007620Y006019D01*
X007620Y006020D02*
X008900Y006020D01*
X008900Y006021D02*
X007620Y006021D01*
X007620Y006022D02*
X008900Y006022D01*
X008900Y006023D02*
X007620Y006023D01*
X007620Y006024D02*
X008900Y006024D01*
X008900Y006025D02*
X007620Y006025D01*
X007620Y006026D02*
X008900Y006026D01*
X008900Y006027D02*
X007620Y006027D01*
X007620Y006028D02*
X008900Y006028D01*
X008900Y006029D02*
X007620Y006029D01*
X007620Y006030D02*
X008900Y006030D01*
X008900Y006031D02*
X007620Y006031D01*
X007620Y006032D02*
X008900Y006032D01*
X008900Y006033D02*
X007620Y006033D01*
X007620Y006034D02*
X008900Y006034D01*
X008900Y006035D02*
X007620Y006035D01*
X007620Y006036D02*
X008900Y006036D01*
X008900Y006037D02*
X007620Y006037D01*
X007620Y006038D02*
X008900Y006038D01*
X008900Y006039D02*
X007620Y006039D01*
X007620Y006040D02*
X008900Y006040D01*
X008900Y006041D02*
X007620Y006041D01*
X007620Y006042D02*
X008900Y006042D01*
X008900Y006043D02*
X007620Y006043D01*
X007620Y006044D02*
X008900Y006044D01*
X008900Y006045D02*
X007620Y006045D01*
X007620Y006046D02*
X008900Y006046D01*
X008900Y006047D02*
X007620Y006047D01*
X007620Y006048D02*
X008900Y006048D01*
X008900Y006049D02*
X007620Y006049D01*
X007620Y006050D02*
X008900Y006050D01*
X008900Y006051D02*
X007620Y006051D01*
X007620Y006052D02*
X008900Y006052D01*
X008900Y006053D02*
X007620Y006053D01*
X007620Y006054D02*
X008900Y006054D01*
X008900Y006055D02*
X007620Y006055D01*
X007620Y006056D02*
X008900Y006056D01*
X008900Y006057D02*
X007620Y006057D01*
X007620Y006058D02*
X008900Y006058D01*
X008900Y006059D02*
X007620Y006059D01*
X007620Y006060D02*
X008900Y006060D01*
X008900Y006061D02*
X007620Y006061D01*
X007620Y006062D02*
X008900Y006062D01*
X008900Y006063D02*
X007620Y006063D01*
X007620Y006064D02*
X008900Y006064D01*
X008900Y006065D02*
X007620Y006065D01*
X007620Y006066D02*
X008900Y006066D01*
X008900Y006067D02*
X007620Y006067D01*
X007620Y006068D02*
X008900Y006068D01*
X008900Y006069D02*
X007620Y006069D01*
X007620Y006070D02*
X008900Y006070D01*
X008900Y006071D02*
X007620Y006071D01*
X007620Y006072D02*
X008900Y006072D01*
X008900Y006073D02*
X007620Y006073D01*
X007620Y006074D02*
X008900Y006074D01*
X008900Y006075D02*
X007620Y006075D01*
X007620Y006076D02*
X008900Y006076D01*
X008900Y006077D02*
X007620Y006077D01*
X007620Y006078D02*
X008900Y006078D01*
X008900Y006079D02*
X007620Y006079D01*
X007620Y006080D02*
X008900Y006080D01*
X008900Y006081D02*
X007620Y006081D01*
X007620Y006082D02*
X008900Y006082D01*
X008900Y006083D02*
X007620Y006083D01*
X007620Y006084D02*
X008900Y006084D01*
X008900Y006085D02*
X007620Y006085D01*
X007620Y006086D02*
X008900Y006086D01*
X008900Y006087D02*
X007620Y006087D01*
X007620Y006088D02*
X008900Y006088D01*
X008900Y006089D02*
X007620Y006089D01*
X007620Y006090D02*
X008900Y006090D01*
X008900Y006091D02*
X007620Y006091D01*
X007620Y006092D02*
X008900Y006092D01*
X008900Y006093D02*
X007620Y006093D01*
X007620Y006094D02*
X008900Y006094D01*
X008900Y006095D02*
X007620Y006095D01*
X007620Y006096D02*
X008900Y006096D01*
X008900Y006097D02*
X007620Y006097D01*
X007620Y006098D02*
X008900Y006098D01*
X008900Y006099D02*
X007620Y006099D01*
X007620Y006100D02*
X008900Y006100D01*
X008900Y006101D02*
X007620Y006101D01*
X007620Y006102D02*
X008900Y006102D01*
X008900Y006103D02*
X007620Y006103D01*
X007620Y006104D02*
X008900Y006104D01*
X008900Y006105D02*
X007620Y006105D01*
X007620Y006106D02*
X008900Y006106D01*
X008900Y006107D02*
X007620Y006107D01*
X007620Y006108D02*
X008900Y006108D01*
X008900Y006109D02*
X007620Y006109D01*
X007620Y006110D02*
X008900Y006110D01*
X008900Y006111D02*
X007620Y006111D01*
X007620Y006112D02*
X008900Y006112D01*
X008900Y006113D02*
X007620Y006113D01*
X007620Y006114D02*
X008900Y006114D01*
X008900Y006115D02*
X007620Y006115D01*
X007620Y006116D02*
X008900Y006116D01*
X008900Y006117D02*
X007620Y006117D01*
X007620Y006118D02*
X008900Y006118D01*
X008900Y006119D02*
X007620Y006119D01*
X007620Y006120D02*
X008900Y006120D01*
X008900Y006121D02*
X007620Y006121D01*
X007620Y006122D02*
X008900Y006122D01*
X008900Y006123D02*
X007620Y006123D01*
X007620Y006124D02*
X008900Y006124D01*
X008900Y006125D02*
X007620Y006125D01*
X007620Y006126D02*
X008900Y006126D01*
X008900Y006127D02*
X007620Y006127D01*
X007620Y006128D02*
X008900Y006128D01*
X008900Y006129D02*
X007620Y006129D01*
X007620Y006130D02*
X008900Y006130D01*
X008900Y006131D02*
X007620Y006131D01*
X007620Y006132D02*
X008900Y006132D01*
X008900Y006133D02*
X007620Y006133D01*
X007620Y006134D02*
X008900Y006134D01*
X008900Y006135D02*
X007620Y006135D01*
X007620Y006136D02*
X008900Y006136D01*
X008900Y006137D02*
X007620Y006137D01*
X007620Y006138D02*
X008900Y006138D01*
X008900Y006139D02*
X007620Y006139D01*
X007620Y006140D02*
X008900Y006140D01*
X008900Y006141D02*
X007620Y006141D01*
X007620Y006142D02*
X008900Y006142D01*
X008900Y006143D02*
X007620Y006143D01*
X007620Y006144D02*
X008900Y006144D01*
X008900Y006145D02*
X007620Y006145D01*
X007620Y006146D02*
X008900Y006146D01*
X008900Y006147D02*
X007620Y006147D01*
X007620Y006148D02*
X008900Y006148D01*
X008900Y006149D02*
X007620Y006149D01*
X007620Y006150D02*
X008900Y006150D01*
X008900Y006151D02*
X007620Y006151D01*
X007620Y006152D02*
X008900Y006152D01*
X008900Y006153D02*
X007620Y006153D01*
X007620Y006154D02*
X008900Y006154D01*
X008900Y006155D02*
X007620Y006155D01*
X007620Y006156D02*
X008900Y006156D01*
X008900Y006157D02*
X007620Y006157D01*
X007620Y006158D02*
X008900Y006158D01*
X008900Y006159D02*
X007620Y006159D01*
X007620Y006160D02*
X008900Y006160D01*
X008900Y006161D02*
X007620Y006161D01*
X007620Y006162D02*
X008900Y006162D01*
X008900Y006163D02*
X007620Y006163D01*
X007620Y006164D02*
X008900Y006164D01*
X008900Y006165D02*
X007620Y006165D01*
X007620Y006166D02*
X008900Y006166D01*
X008900Y006167D02*
X007620Y006167D01*
X007620Y006168D02*
X008900Y006168D01*
X008900Y006169D02*
X007620Y006169D01*
X007620Y006170D02*
X008900Y006170D01*
X008900Y006171D02*
X007620Y006171D01*
X007620Y006172D02*
X008900Y006172D01*
X008900Y006173D02*
X007620Y006173D01*
X007620Y006174D02*
X008900Y006174D01*
X008900Y006175D02*
X007620Y006175D01*
X007620Y006176D02*
X008900Y006176D01*
X008900Y006177D02*
X007620Y006177D01*
X007620Y006178D02*
X008900Y006178D01*
X008900Y006179D02*
X007620Y006179D01*
X007620Y006180D02*
X008900Y006180D01*
X008900Y006181D02*
X007620Y006181D01*
X007620Y006182D02*
X008900Y006182D01*
X008900Y006183D02*
X007620Y006183D01*
X007620Y006184D02*
X008900Y006184D01*
X008900Y006185D02*
X007620Y006185D01*
X007620Y006186D02*
X008900Y006186D01*
X008900Y006187D02*
X007620Y006187D01*
X007620Y006188D02*
X008900Y006188D01*
X008900Y006189D02*
X007620Y006189D01*
X007620Y006190D02*
X008900Y006190D01*
X008900Y006191D02*
X007620Y006191D01*
X007620Y006192D02*
X008900Y006192D01*
X008900Y006193D02*
X007620Y006193D01*
X007620Y006194D02*
X008900Y006194D01*
X008900Y006195D02*
X007620Y006195D01*
X007620Y006196D02*
X008900Y006196D01*
X008900Y006197D02*
X007620Y006197D01*
X007620Y006198D02*
X008900Y006198D01*
X008900Y006199D02*
X007620Y006199D01*
X007620Y006200D02*
X008900Y006200D01*
X008900Y006201D02*
X007620Y006201D01*
X007620Y006202D02*
X008900Y006202D01*
X008900Y006203D02*
X007620Y006203D01*
X007620Y006204D02*
X008900Y006204D01*
X008900Y006205D02*
X007620Y006205D01*
X007620Y006206D02*
X008900Y006206D01*
X008900Y006207D02*
X007620Y006207D01*
X007620Y006208D02*
X008900Y006208D01*
X008900Y006209D02*
X007620Y006209D01*
X007620Y006210D02*
X008900Y006210D01*
X008900Y006211D02*
X007620Y006211D01*
X007620Y006212D02*
X008900Y006212D01*
X008900Y006213D02*
X007620Y006213D01*
X007620Y006214D02*
X008900Y006214D01*
X008900Y006215D02*
X007620Y006215D01*
X007620Y006216D02*
X008900Y006216D01*
X008900Y006217D02*
X007620Y006217D01*
X007620Y006218D02*
X008900Y006218D01*
X008900Y006219D02*
X007620Y006219D01*
X007620Y006220D02*
X008900Y006220D01*
X008900Y006221D02*
X007620Y006221D01*
X007620Y006222D02*
X008900Y006222D01*
X008900Y006223D02*
X007620Y006223D01*
X007620Y006224D02*
X008900Y006224D01*
X008900Y006225D02*
X007620Y006225D01*
X007620Y006226D02*
X008900Y006226D01*
X008900Y006227D02*
X007620Y006227D01*
X007620Y006228D02*
X008900Y006228D01*
X008900Y006229D02*
X007620Y006229D01*
X007620Y006230D02*
X008900Y006230D01*
X008900Y006231D02*
X007620Y006231D01*
X007620Y006232D02*
X008900Y006232D01*
X008900Y006233D02*
X007620Y006233D01*
X007620Y006234D02*
X008900Y006234D01*
X008900Y006235D02*
X007620Y006235D01*
X007620Y006236D02*
X008900Y006236D01*
X008900Y006237D02*
X007620Y006237D01*
X007620Y006238D02*
X008900Y006238D01*
X008900Y006239D02*
X007620Y006239D01*
X007620Y006240D02*
X008900Y006240D01*
X008900Y006241D02*
X007620Y006241D01*
X007620Y006242D02*
X008900Y006242D01*
X008900Y006243D02*
X007620Y006243D01*
X007620Y006244D02*
X008900Y006244D01*
X008900Y006245D02*
X007620Y006245D01*
X007620Y006246D02*
X008900Y006246D01*
X008900Y006247D02*
X007620Y006247D01*
X007620Y006248D02*
X008900Y006248D01*
X008900Y006249D02*
X007620Y006249D01*
X007620Y006250D02*
X008900Y006250D01*
X008900Y006251D02*
X007620Y006251D01*
X007620Y006252D02*
X008900Y006252D01*
X008900Y006253D02*
X007620Y006253D01*
X007620Y006254D02*
X008900Y006254D01*
X008900Y006255D02*
X007620Y006255D01*
X007620Y006256D02*
X008900Y006256D01*
X008900Y006257D02*
X007620Y006257D01*
X007620Y006258D02*
X008900Y006258D01*
X008900Y006259D02*
X007620Y006259D01*
X007620Y006260D02*
X008900Y006260D01*
X008900Y006261D02*
X007620Y006261D01*
X007620Y006262D02*
X008900Y006262D01*
X008900Y006263D02*
X007620Y006263D01*
X007620Y006264D02*
X008900Y006264D01*
X008900Y006265D02*
X007620Y006265D01*
X007620Y006266D02*
X008900Y006266D01*
X008900Y006267D02*
X007620Y006267D01*
X007620Y006268D02*
X008900Y006268D01*
X008900Y006269D02*
X007620Y006269D01*
X007620Y006270D02*
X008900Y006270D01*
X008900Y006271D02*
X007620Y006271D01*
X007620Y006272D02*
X008900Y006272D01*
X008900Y006273D02*
X007620Y006273D01*
X007620Y006274D02*
X008900Y006274D01*
X008900Y006275D02*
X007620Y006275D01*
X007620Y006276D02*
X008900Y006276D01*
X008900Y006277D02*
X007620Y006277D01*
X007620Y006278D02*
X008900Y006278D01*
X008900Y006279D02*
X007620Y006279D01*
X007620Y006280D02*
X008900Y006280D01*
X008900Y006281D02*
X007620Y006281D01*
X007620Y006282D02*
X008900Y006282D01*
X008900Y006283D02*
X007620Y006283D01*
X007620Y006284D02*
X008900Y006284D01*
X008900Y006285D02*
X007620Y006285D01*
X007620Y006286D02*
X008900Y006286D01*
X008900Y006287D02*
X007620Y006287D01*
X007620Y006288D02*
X008900Y006288D01*
X008900Y006289D02*
X007620Y006289D01*
X007620Y006290D02*
X008900Y006290D01*
X008900Y006291D02*
X007620Y006291D01*
X007620Y006292D02*
X008900Y006292D01*
X008900Y006293D02*
X007620Y006293D01*
X007620Y006294D02*
X008900Y006294D01*
X008900Y006295D02*
X007620Y006295D01*
X007620Y006296D02*
X008900Y006296D01*
X008900Y006297D02*
X007620Y006297D01*
X007620Y006298D02*
X008900Y006298D01*
X008900Y006299D02*
X007620Y006299D01*
X007620Y006300D02*
X008900Y006300D01*
X008900Y006301D02*
X007620Y006301D01*
X007620Y006302D02*
X008900Y006302D01*
X008900Y006303D02*
X007620Y006303D01*
X007620Y006304D02*
X008900Y006304D01*
X008900Y006305D02*
X007620Y006305D01*
X007620Y006306D02*
X008900Y006306D01*
X008900Y006307D02*
X007620Y006307D01*
X007620Y006308D02*
X008900Y006308D01*
X008900Y006309D02*
X007620Y006309D01*
X007620Y006310D02*
X008900Y006310D01*
X008900Y006311D02*
X007620Y006311D01*
X007620Y006312D02*
X008900Y006312D01*
X008900Y006313D02*
X007620Y006313D01*
X007620Y006314D02*
X008900Y006314D01*
X008900Y006315D02*
X007620Y006315D01*
X007620Y006316D02*
X008900Y006316D01*
X008900Y006317D02*
X007620Y006317D01*
X007620Y006318D02*
X008900Y006318D01*
X008900Y006319D02*
X007620Y006319D01*
X007620Y006320D02*
X008900Y006320D01*
X008900Y006321D02*
X007620Y006321D01*
X007620Y006322D02*
X008900Y006322D01*
X008900Y006323D02*
X007620Y006323D01*
X007620Y006324D02*
X008900Y006324D01*
X008900Y006325D02*
X007620Y006325D01*
X007620Y006326D02*
X008900Y006326D01*
X008900Y006327D02*
X007620Y006327D01*
X007620Y006328D02*
X008900Y006328D01*
X008900Y006329D02*
X007620Y006329D01*
X007620Y006330D02*
X008900Y006330D01*
X008900Y006331D02*
X007620Y006331D01*
X007620Y006332D02*
X008900Y006332D01*
X008900Y006333D02*
X007620Y006333D01*
X007620Y006334D02*
X008900Y006334D01*
X008900Y006335D02*
X007620Y006335D01*
X007620Y006336D02*
X008900Y006336D01*
X008900Y006337D02*
X007620Y006337D01*
X007620Y006338D02*
X008900Y006338D01*
X008900Y006339D02*
X007620Y006339D01*
X007620Y006340D02*
X008900Y006340D01*
X008900Y006341D02*
X007620Y006341D01*
X007620Y006342D02*
X008900Y006342D01*
X008900Y006343D02*
X007620Y006343D01*
X007620Y006344D02*
X008900Y006344D01*
X008900Y006345D02*
X007620Y006345D01*
X007620Y006346D02*
X008900Y006346D01*
X008900Y006347D02*
X007620Y006347D01*
X007620Y006348D02*
X008900Y006348D01*
X008900Y006349D02*
X007620Y006349D01*
X007620Y006350D02*
X008900Y006350D01*
X008900Y006351D02*
X007620Y006351D01*
X007620Y006352D02*
X008900Y006352D01*
X008900Y006353D02*
X007620Y006353D01*
X007620Y006354D02*
X008900Y006354D01*
X008900Y006355D02*
X007620Y006355D01*
X007620Y006356D02*
X008900Y006356D01*
X008900Y006357D02*
X007620Y006357D01*
X007620Y006358D02*
X008900Y006358D01*
X008900Y006359D02*
X007620Y006359D01*
X007620Y006360D02*
X008900Y006360D01*
X008900Y006361D02*
X007620Y006361D01*
X007620Y006362D02*
X008900Y006362D01*
X008900Y006363D02*
X007620Y006363D01*
X007620Y006364D02*
X008900Y006364D01*
X008900Y006365D02*
X007620Y006365D01*
X007620Y006366D02*
X008900Y006366D01*
X008900Y006367D02*
X007620Y006367D01*
X007620Y006368D02*
X008900Y006368D01*
X008900Y006369D02*
X007620Y006369D01*
X007620Y006370D02*
X008900Y006370D01*
X008900Y006371D02*
X007620Y006371D01*
X007620Y006372D02*
X008900Y006372D01*
X008900Y006373D02*
X007620Y006373D01*
X007620Y006374D02*
X008900Y006374D01*
X008900Y006375D02*
X007620Y006375D01*
X007620Y006376D02*
X008900Y006376D01*
X008900Y006377D02*
X007620Y006377D01*
X007620Y006378D02*
X008900Y006378D01*
X008900Y006379D02*
X007620Y006379D01*
X007620Y006380D02*
X008900Y006380D01*
X008900Y006381D02*
X007620Y006381D01*
X007620Y006382D02*
X008900Y006382D01*
X008900Y006383D02*
X007620Y006383D01*
X007620Y006384D02*
X008900Y006384D01*
X008900Y006385D02*
X007620Y006385D01*
X007620Y006386D02*
X008900Y006386D01*
X008900Y006387D02*
X007620Y006387D01*
X007620Y006388D02*
X008900Y006388D01*
X008900Y006389D02*
X007620Y006389D01*
X007620Y006390D02*
X008900Y006390D01*
X008900Y006391D02*
X007620Y006391D01*
X007620Y006392D02*
X008900Y006392D01*
X008900Y006393D02*
X007620Y006393D01*
X007620Y006394D02*
X008900Y006394D01*
X008900Y006395D02*
X007620Y006395D01*
X007620Y006396D02*
X008900Y006396D01*
X008900Y006397D02*
X007620Y006397D01*
X007620Y006398D02*
X008900Y006398D01*
X008900Y006399D02*
X007620Y006399D01*
X007620Y006400D02*
X008900Y006400D01*
X008900Y006401D02*
X007620Y006401D01*
X007620Y006402D02*
X008900Y006402D01*
X008900Y006403D02*
X007620Y006403D01*
X007620Y006404D02*
X008900Y006404D01*
X008900Y006405D02*
X007620Y006405D01*
X007620Y006406D02*
X008900Y006406D01*
X008900Y006407D02*
X007620Y006407D01*
X007620Y006408D02*
X008900Y006408D01*
X008900Y006409D02*
X007620Y006409D01*
X007620Y006410D02*
X008900Y006410D01*
X008900Y006411D02*
X007620Y006411D01*
X007620Y006412D02*
X008900Y006412D01*
X008900Y006413D02*
X007620Y006413D01*
X007620Y006414D02*
X008900Y006414D01*
X008900Y006415D02*
X007620Y006415D01*
X007620Y006416D02*
X008900Y006416D01*
X008900Y006417D02*
X007620Y006417D01*
X007620Y006418D02*
X008900Y006418D01*
X008900Y006419D02*
X007620Y006419D01*
X007620Y006420D02*
X008900Y006420D01*
X008900Y006421D02*
X007620Y006421D01*
X007620Y006422D02*
X008900Y006422D01*
X008900Y006423D02*
X007620Y006423D01*
X007620Y006424D02*
X008900Y006424D01*
X008900Y006425D02*
X007620Y006425D01*
X007620Y006426D02*
X008900Y006426D01*
X008900Y006427D02*
X007620Y006427D01*
X007620Y006428D02*
X008900Y006428D01*
X008900Y006429D02*
X007620Y006429D01*
X007620Y006430D02*
X008900Y006430D01*
X008900Y006431D02*
X007620Y006431D01*
X007620Y006432D02*
X008900Y006432D01*
X008900Y006433D02*
X007620Y006433D01*
X007620Y006434D02*
X008900Y006434D01*
X008900Y006435D02*
X007620Y006435D01*
X007620Y006436D02*
X008900Y006436D01*
X008900Y006437D02*
X007620Y006437D01*
X007620Y006438D02*
X008900Y006438D01*
X008900Y006439D02*
X007620Y006439D01*
X007620Y006440D02*
X008900Y006440D01*
X008900Y006441D02*
X007620Y006441D01*
X007620Y006442D02*
X008900Y006442D01*
X008900Y006443D02*
X007620Y006443D01*
X007620Y006444D02*
X008900Y006444D01*
X008900Y006445D02*
X007620Y006445D01*
X007620Y006446D02*
X008900Y006446D01*
X008900Y006447D02*
X007620Y006447D01*
X007620Y006448D02*
X008900Y006448D01*
X008900Y006449D02*
X007620Y006449D01*
X007620Y006450D02*
X008900Y006450D01*
X008900Y006451D02*
X007620Y006451D01*
X007620Y006452D02*
X008900Y006452D01*
X008900Y006453D02*
X007620Y006453D01*
X007620Y006454D02*
X008900Y006454D01*
X008900Y006455D02*
X007620Y006455D01*
X007620Y006456D02*
X008900Y006456D01*
X008900Y006457D02*
X007620Y006457D01*
X007620Y006458D02*
X008900Y006458D01*
X008900Y006459D02*
X007620Y006459D01*
X007620Y006460D02*
X008900Y006460D01*
X008900Y006461D02*
X007620Y006461D01*
X007620Y006462D02*
X008900Y006462D01*
X008900Y006463D02*
X007620Y006463D01*
X007620Y006464D02*
X008900Y006464D01*
X008900Y006465D02*
X007620Y006465D01*
X007620Y006466D02*
X008900Y006466D01*
X008900Y006467D02*
X007620Y006467D01*
X007620Y006468D02*
X008900Y006468D01*
X008900Y006469D02*
X007620Y006469D01*
X007620Y006470D02*
X008900Y006470D01*
X008900Y006471D02*
X007620Y006471D01*
X007620Y006472D02*
X008900Y006472D01*
X008900Y006473D02*
X007620Y006473D01*
X007620Y006474D02*
X008900Y006474D01*
X008900Y006475D02*
X007620Y006475D01*
X007620Y006476D02*
X008900Y006476D01*
X008900Y006477D02*
X007620Y006477D01*
X007620Y006478D02*
X008900Y006478D01*
X008900Y006479D02*
X007620Y006479D01*
X007620Y006480D02*
X008900Y006480D01*
X008900Y006481D02*
X007620Y006481D01*
X007620Y006482D02*
X008900Y006482D01*
X008900Y006483D02*
X007620Y006483D01*
X007620Y006484D02*
X008900Y006484D01*
X008900Y006485D02*
X007620Y006485D01*
X007620Y006486D02*
X008900Y006486D01*
X008900Y006487D02*
X007620Y006487D01*
X007620Y006488D02*
X008900Y006488D01*
X008900Y006489D02*
X007620Y006489D01*
X007620Y006490D02*
X008900Y006490D01*
X008900Y006491D02*
X007620Y006491D01*
X007620Y006492D02*
X008900Y006492D01*
X008900Y006493D02*
X007620Y006493D01*
X007620Y006494D02*
X008900Y006494D01*
X008900Y006495D02*
X007620Y006495D01*
X007620Y006496D02*
X008900Y006496D01*
X008900Y006497D02*
X007620Y006497D01*
X007620Y006498D02*
X008900Y006498D01*
X008900Y006499D02*
X007620Y006499D01*
X007620Y006500D02*
X008900Y006500D01*
X008900Y006501D02*
X007620Y006501D01*
X007620Y006502D02*
X008900Y006502D01*
X008900Y006503D02*
X007620Y006503D01*
X007620Y006504D02*
X008900Y006504D01*
X008900Y006505D02*
X007620Y006505D01*
X007620Y006506D02*
X008900Y006506D01*
X008900Y006507D02*
X007620Y006507D01*
X007620Y006508D02*
X008900Y006508D01*
X008900Y006509D02*
X007620Y006509D01*
X007620Y006510D02*
X008900Y006510D01*
X008900Y006511D02*
X007620Y006511D01*
X007620Y006512D02*
X008900Y006512D01*
X008900Y006513D02*
X007620Y006513D01*
X007620Y006514D02*
X008900Y006514D01*
X008900Y006515D02*
X007620Y006515D01*
X007620Y006516D02*
X008900Y006516D01*
X008900Y006517D02*
X007620Y006517D01*
X007620Y006518D02*
X008900Y006518D01*
X008900Y006519D02*
X007620Y006519D01*
X007620Y006520D02*
X008900Y006520D01*
X008900Y006521D02*
X007620Y006521D01*
X007620Y006522D02*
X008900Y006522D01*
X008900Y006523D02*
X007620Y006523D01*
X007620Y006524D02*
X008900Y006524D01*
X008900Y006525D02*
X007620Y006525D01*
X007620Y006526D02*
X008900Y006526D01*
X008900Y006527D02*
X007620Y006527D01*
X007620Y006528D02*
X008900Y006528D01*
X008900Y006529D02*
X007620Y006529D01*
X007620Y006530D02*
X008900Y006530D01*
X008900Y006531D02*
X007620Y006531D01*
X007620Y006532D02*
X008900Y006532D01*
X008900Y006533D02*
X007620Y006533D01*
X007620Y006534D02*
X008900Y006534D01*
X008900Y006535D02*
X007620Y006535D01*
X007620Y006536D02*
X008900Y006536D01*
X008900Y006537D02*
X007620Y006537D01*
X007620Y006538D02*
X008900Y006538D01*
X008900Y006539D02*
X007620Y006539D01*
X007620Y006540D02*
X008900Y006540D01*
X008900Y006541D02*
X007620Y006541D01*
X007620Y006542D02*
X008900Y006542D01*
X008900Y006543D02*
X007620Y006543D01*
X007620Y006544D02*
X008900Y006544D01*
X008900Y006545D02*
X007620Y006545D01*
X007620Y006546D02*
X008900Y006546D01*
X008900Y006547D02*
X007620Y006547D01*
X007620Y006548D02*
X008900Y006548D01*
X008900Y006549D02*
X007620Y006549D01*
X007620Y006550D02*
X008900Y006550D01*
X008900Y006551D02*
X007620Y006551D01*
X007620Y006552D02*
X008900Y006552D01*
X008900Y006553D02*
X007620Y006553D01*
X007620Y006554D02*
X008900Y006554D01*
X008900Y006555D02*
X007620Y006555D01*
X007620Y006556D02*
X008900Y006556D01*
X008900Y006557D02*
X007620Y006557D01*
X007620Y006558D02*
X008900Y006558D01*
X008900Y006559D02*
X007620Y006559D01*
X007620Y006560D02*
X008900Y006560D01*
X008900Y006561D02*
X007620Y006561D01*
X007620Y006562D02*
X008900Y006562D01*
X008900Y006563D02*
X007620Y006563D01*
X008900Y006563D01*
X008900Y006564D02*
X007620Y006564D01*
X007620Y006565D02*
X008900Y006565D01*
X008900Y006566D02*
X007620Y006566D01*
X007620Y006567D02*
X008900Y006567D01*
X008900Y006568D02*
X007620Y006568D01*
X007620Y006569D02*
X008900Y006569D01*
X008900Y006570D02*
X007620Y006570D01*
X007620Y006571D02*
X008900Y006571D01*
X008900Y006572D02*
X007620Y006572D01*
X007620Y006573D02*
X008900Y006573D01*
X008900Y006574D02*
X007620Y006574D01*
X007620Y006575D02*
X008900Y006575D01*
X008900Y006576D02*
X007620Y006576D01*
X007620Y006577D02*
X008900Y006577D01*
X008900Y006578D02*
X007620Y006578D01*
X007620Y006579D02*
X008900Y006579D01*
X008900Y006580D02*
X007620Y006580D01*
X007620Y006581D02*
X008900Y006581D01*
X008900Y006582D02*
X007620Y006582D01*
X007620Y006583D02*
X008900Y006583D01*
X008900Y006584D02*
X007620Y006584D01*
X007620Y006585D02*
X008900Y006585D01*
X008900Y006586D02*
X007620Y006586D01*
X007620Y006587D02*
X008900Y006587D01*
X008900Y006588D02*
X007620Y006588D01*
X007620Y006589D02*
X008900Y006589D01*
X008900Y006590D02*
X007620Y006590D01*
X007620Y006591D02*
X008900Y006591D01*
X008900Y006592D02*
X007620Y006592D01*
X007620Y006593D02*
X008900Y006593D01*
X008900Y006594D02*
X007620Y006594D01*
X007620Y006595D02*
X008900Y006595D01*
X008900Y006596D02*
X007620Y006596D01*
X007620Y006597D02*
X008900Y006597D01*
X008900Y006598D02*
X007620Y006598D01*
X007620Y006599D02*
X008900Y006599D01*
X008900Y006600D02*
X007620Y006600D01*
X007620Y006601D02*
X008900Y006601D01*
X008900Y006602D02*
X007620Y006602D01*
X007620Y006603D02*
X008900Y006603D01*
X008900Y006604D02*
X007620Y006604D01*
X007620Y006605D02*
X008900Y006605D01*
X008900Y006606D02*
X007620Y006606D01*
X007620Y006607D02*
X008900Y006607D01*
X008900Y006608D02*
X007620Y006608D01*
X007620Y006609D02*
X008900Y006609D01*
X008900Y006610D02*
X007620Y006610D01*
X007620Y006611D02*
X008900Y006611D01*
X008900Y006612D02*
X007620Y006612D01*
X007620Y006613D02*
X008900Y006613D01*
X008900Y006614D02*
X007620Y006614D01*
X007620Y006615D02*
X008900Y006615D01*
X008900Y006616D02*
X007620Y006616D01*
X007620Y006617D02*
X008900Y006617D01*
X008900Y006618D02*
X007620Y006618D01*
X007620Y006619D02*
X008900Y006619D01*
X008900Y006620D02*
X007620Y006620D01*
X007620Y006621D02*
X008900Y006621D01*
X008900Y006622D02*
X007620Y006622D01*
X007620Y006623D02*
X008900Y006623D01*
X008900Y006624D02*
X007620Y006624D01*
X007620Y006625D02*
X008900Y006625D01*
X008900Y006626D02*
X007620Y006626D01*
X007620Y006627D02*
X008900Y006627D01*
X008900Y006628D02*
X007620Y006628D01*
X007620Y006629D02*
X008900Y006629D01*
X008900Y006630D02*
X007620Y006630D01*
X007620Y006631D02*
X008900Y006631D01*
X008900Y006632D02*
X007620Y006632D01*
X007620Y006633D02*
X008900Y006633D01*
X008900Y006634D02*
X007620Y006634D01*
X007620Y006635D02*
X008900Y006635D01*
X008900Y006636D02*
X007620Y006636D01*
X007620Y006637D02*
X008900Y006637D01*
X008900Y006638D02*
X007620Y006638D01*
X007620Y006639D02*
X008900Y006639D01*
X008900Y006640D02*
X007620Y006640D01*
X007620Y006641D02*
X008900Y006641D01*
X008900Y006642D02*
X007620Y006642D01*
X007620Y006643D02*
X008900Y006643D01*
X008900Y006644D02*
X007620Y006644D01*
X007620Y006645D02*
X008900Y006645D01*
X008900Y006646D02*
X007620Y006646D01*
X007620Y006647D02*
X008900Y006647D01*
X008900Y006648D02*
X007620Y006648D01*
X007620Y006649D02*
X008900Y006649D01*
X008900Y006650D02*
X007620Y006650D01*
X007620Y006651D02*
X008900Y006651D01*
X008900Y006652D02*
X007620Y006652D01*
X007620Y006653D02*
X008900Y006653D01*
X008900Y006654D02*
X007620Y006654D01*
X007620Y006655D02*
X008900Y006655D01*
X008900Y006656D02*
X007620Y006656D01*
X007620Y006657D02*
X008900Y006657D01*
X008900Y006658D02*
X007620Y006658D01*
X007620Y006659D02*
X008900Y006659D01*
X008900Y006660D02*
X007620Y006660D01*
X007620Y006661D02*
X008900Y006661D01*
X008900Y006662D02*
X007620Y006662D01*
X007620Y006663D02*
X008900Y006663D01*
X008900Y006664D02*
X007620Y006664D01*
X007620Y006665D02*
X008900Y006665D01*
X008900Y006666D02*
X007620Y006666D01*
X007620Y006667D02*
X008900Y006667D01*
X008900Y006668D02*
X007620Y006668D01*
X007620Y006669D02*
X008900Y006669D01*
X008900Y006670D02*
X007620Y006670D01*
X007620Y006671D02*
X008900Y006671D01*
X008900Y006672D02*
X007620Y006672D01*
X007620Y006673D02*
X008900Y006673D01*
X008900Y006674D02*
X007620Y006674D01*
X007620Y006675D02*
X008900Y006675D01*
X008900Y006676D02*
X007620Y006676D01*
X007620Y006677D02*
X008900Y006677D01*
X008900Y006678D02*
X007620Y006678D01*
X007620Y006679D02*
X008900Y006679D01*
X008900Y006680D02*
X007620Y006680D01*
X007620Y006681D02*
X008900Y006681D01*
X008900Y006682D02*
X007620Y006682D01*
X007620Y006683D02*
X008900Y006683D01*
X008900Y006684D02*
X007620Y006684D01*
X007620Y006685D02*
X008900Y006685D01*
X008900Y006686D02*
X007620Y006686D01*
X007620Y006687D02*
X008900Y006687D01*
X008900Y006688D02*
X007620Y006688D01*
X007620Y006689D02*
X008900Y006689D01*
X008900Y006690D02*
X007620Y006690D01*
X007620Y006691D02*
X008900Y006691D01*
X008900Y006692D02*
X007620Y006692D01*
X007620Y006693D02*
X008900Y006693D01*
X008900Y006694D02*
X007620Y006694D01*
X007620Y006695D02*
X008900Y006695D01*
X008900Y006696D02*
X007620Y006696D01*
X007620Y006697D02*
X008900Y006697D01*
X008900Y006698D02*
X007620Y006698D01*
X007620Y006699D02*
X008900Y006699D01*
X008900Y006700D02*
X007620Y006700D01*
X007620Y006701D02*
X008900Y006701D01*
X008900Y006702D02*
X007620Y006702D01*
X007620Y006703D02*
X008900Y006703D01*
X008900Y006704D02*
X007620Y006704D01*
X007620Y006705D02*
X008900Y006705D01*
X008900Y006706D02*
X007620Y006706D01*
X007620Y006707D02*
X008900Y006707D01*
X008900Y006708D02*
X007620Y006708D01*
X007620Y006709D02*
X008900Y006709D01*
X008900Y006710D02*
X007620Y006710D01*
X007620Y006711D02*
X008900Y006711D01*
X008900Y006712D02*
X007620Y006712D01*
X007620Y006713D02*
X008900Y006713D01*
X008900Y006714D02*
X007620Y006714D01*
X007620Y006715D02*
X008900Y006715D01*
X008900Y006716D02*
X007620Y006716D01*
X007620Y006717D02*
X008900Y006717D01*
X008900Y006718D02*
X007620Y006718D01*
X007620Y006719D02*
X008900Y006719D01*
X008900Y006720D02*
X007620Y006720D01*
X007620Y006721D02*
X008900Y006721D01*
X008900Y006722D02*
X007620Y006722D01*
X007620Y006723D02*
X008900Y006723D01*
X008900Y006724D02*
X007620Y006724D01*
X007620Y006725D02*
X008900Y006725D01*
X008900Y006726D02*
X007620Y006726D01*
X007620Y006727D02*
X008900Y006727D01*
X008900Y006728D02*
X007620Y006728D01*
X007620Y006729D02*
X008900Y006729D01*
X008900Y006730D02*
X007620Y006730D01*
X007620Y006731D02*
X008900Y006731D01*
X008900Y006732D02*
X007620Y006732D01*
X007620Y006733D02*
X008900Y006733D01*
X008900Y006734D02*
X007620Y006734D01*
X007620Y006735D02*
X008900Y006735D01*
X008900Y006736D02*
X007620Y006736D01*
X007620Y006737D02*
X008900Y006737D01*
X008900Y006738D02*
X007620Y006738D01*
X007620Y006739D02*
X008900Y006739D01*
X008900Y006740D02*
X007620Y006740D01*
X007620Y006741D02*
X008900Y006741D01*
X008900Y006742D02*
X007620Y006742D01*
X007620Y006743D02*
X008900Y006743D01*
X008900Y006744D02*
X007620Y006744D01*
X007620Y006745D02*
X008900Y006745D01*
X008900Y006746D02*
X007620Y006746D01*
X007620Y006747D02*
X008900Y006747D01*
X008900Y006748D02*
X007620Y006748D01*
X007620Y006749D02*
X008900Y006749D01*
X008900Y006750D02*
X007620Y006750D01*
X007620Y006751D02*
X008900Y006751D01*
X008900Y006752D02*
X007620Y006752D01*
X007620Y006753D02*
X008900Y006753D01*
X008900Y006754D02*
X007620Y006754D01*
X007620Y006755D02*
X008900Y006755D01*
X008900Y006756D02*
X007620Y006756D01*
X007620Y006757D02*
X008900Y006757D01*
X008900Y006758D02*
X007620Y006758D01*
X007620Y006759D02*
X008900Y006759D01*
X008900Y006760D02*
X007620Y006760D01*
X007620Y006761D02*
X008900Y006761D01*
X008900Y006762D02*
X007620Y006762D01*
X007620Y006763D02*
X008900Y006763D01*
X008900Y006764D02*
X007620Y006764D01*
X007620Y006765D02*
X008900Y006765D01*
X008900Y006766D02*
X007620Y006766D01*
X007620Y006767D02*
X008900Y006767D01*
X008900Y006768D02*
X007620Y006768D01*
X007620Y006769D02*
X008900Y006769D01*
X008900Y006770D02*
X007620Y006770D01*
X007620Y006771D02*
X008900Y006771D01*
X008900Y006772D02*
X007620Y006772D01*
X007620Y006773D02*
X008900Y006773D01*
X008900Y006774D02*
X007620Y006774D01*
X007620Y006775D02*
X008900Y006775D01*
X008900Y006776D02*
X007620Y006776D01*
X007620Y006777D02*
X008900Y006777D01*
X008900Y006778D02*
X007620Y006778D01*
X007620Y006779D02*
X008900Y006779D01*
X008900Y006780D02*
X007620Y006780D01*
X007620Y006781D02*
X008900Y006781D01*
X008900Y006782D02*
X007620Y006782D01*
X007620Y006783D02*
X008900Y006783D01*
X008900Y006784D02*
X007620Y006784D01*
X007620Y006785D02*
X008900Y006785D01*
X008900Y006786D02*
X007620Y006786D01*
X007620Y006787D02*
X008900Y006787D01*
X008900Y006788D02*
X007620Y006788D01*
X007620Y006789D02*
X008900Y006789D01*
X008900Y006790D02*
X007620Y006790D01*
X007620Y006791D02*
X008900Y006791D01*
X008900Y006792D02*
X007620Y006792D01*
X007620Y006793D02*
X008900Y006793D01*
X008900Y006794D02*
X007620Y006794D01*
X007620Y006795D02*
X008900Y006795D01*
X008900Y006796D02*
X007620Y006796D01*
X007620Y006797D02*
X008900Y006797D01*
X008900Y006798D02*
X007620Y006798D01*
X007620Y006799D02*
X008900Y006799D01*
X008900Y006800D02*
X007620Y006800D01*
X007620Y006801D02*
X008900Y006801D01*
X008900Y006802D02*
X007620Y006802D01*
X007620Y006803D02*
X008900Y006803D01*
X008900Y006804D02*
X007620Y006804D01*
X007620Y006805D02*
X008900Y006805D01*
X008900Y006806D02*
X007620Y006806D01*
X007620Y006807D02*
X008900Y006807D01*
X008900Y006808D02*
X007620Y006808D01*
X007620Y006809D02*
X008900Y006809D01*
X008900Y006810D02*
X007620Y006810D01*
X007620Y006811D02*
X008900Y006811D01*
X008900Y006812D02*
X007620Y006812D01*
X007620Y006813D02*
X008900Y006813D01*
X008900Y006814D02*
X007620Y006814D01*
X007620Y006815D02*
X008900Y006815D01*
X008900Y006816D02*
X007620Y006816D01*
X007620Y006817D02*
X008900Y006817D01*
X008900Y006818D02*
X007620Y006818D01*
X007620Y006819D02*
X008900Y006819D01*
X008900Y006820D02*
X007620Y006820D01*
X007620Y006821D02*
X008900Y006821D01*
X008900Y006822D02*
X007620Y006822D01*
X007620Y006823D02*
X008900Y006823D01*
X008900Y006824D02*
X007620Y006824D01*
X007620Y006825D02*
X008900Y006825D01*
X008900Y006826D02*
X007620Y006826D01*
X007620Y006827D02*
X008900Y006827D01*
X008900Y006828D02*
X007620Y006828D01*
X007620Y006829D02*
X008900Y006829D01*
X008900Y006830D02*
X007620Y006830D01*
X007620Y006831D02*
X008900Y006831D01*
X008900Y006832D02*
X007620Y006832D01*
X007620Y006833D02*
X008900Y006833D01*
X008900Y006834D02*
X007620Y006834D01*
X007620Y006835D02*
X008900Y006835D01*
X008900Y006836D02*
X007620Y006836D01*
X007620Y006837D02*
X008900Y006837D01*
X008900Y006838D02*
X007620Y006838D01*
X007620Y006839D02*
X008900Y006839D01*
X008900Y006840D02*
X007620Y006840D01*
X007620Y006841D02*
X008900Y006841D01*
X008900Y006842D02*
X007620Y006842D01*
X007620Y006843D02*
X008900Y006843D01*
D12*
X008772Y007109D03*
X008516Y007109D03*
X008260Y007109D03*
X008004Y007109D03*
X007748Y007109D03*
X007748Y005298D03*
X008004Y005298D03*
X008260Y005298D03*
X008516Y005298D03*
X008772Y005298D03*
D13*
X009166Y005692D03*
X009166Y005948D03*
X009166Y006204D03*
X009166Y006460D03*
X009166Y006716D03*
X007354Y006716D03*
X007354Y006460D03*
X007354Y006204D03*
X007354Y005948D03*
X007354Y005692D03*
D14*
X005010Y005704D03*
X004010Y005704D03*
X003010Y005704D03*
X002510Y006704D03*
X003510Y006704D03*
X004510Y006704D03*
D15*
X010209Y006204D03*
X011311Y006204D03*
D16*
X010244Y003556D02*
X010244Y002851D01*
X008276Y002851D02*
X008276Y003556D01*
D17*
X008260Y003204D02*
X007260Y004204D01*
X007260Y004704D01*
X007640Y004660D02*
X007640Y004361D01*
X007957Y004044D01*
X008162Y004129D01*
X008390Y004129D01*
X008600Y004042D01*
X008761Y003881D01*
X008848Y003670D01*
X008848Y002737D01*
X008761Y002527D01*
X008600Y002366D01*
X008390Y002279D01*
X008162Y002279D01*
X007951Y002366D01*
X007790Y002527D01*
X007703Y002737D01*
X007703Y003223D01*
X007045Y003882D01*
X006938Y003989D01*
X006880Y004128D01*
X006880Y004306D01*
X006491Y004306D01*
X006362Y004435D01*
X006362Y004973D01*
X006460Y005071D01*
X006460Y005080D01*
X005840Y005699D01*
X005840Y005699D01*
X005756Y005784D01*
X005756Y005784D01*
X005636Y005904D01*
X005510Y005904D01*
X005534Y005830D01*
X005547Y005746D01*
X005547Y005704D01*
X005010Y005704D01*
X005010Y005704D01*
X005010Y005704D01*
X004010Y005704D01*
X004010Y005704D01*
X004473Y005704D01*
X005010Y005704D01*
X005547Y005704D01*
X005547Y005662D01*
X005534Y005578D01*
X005508Y005498D01*
X005469Y005422D01*
X005420Y005354D01*
X005360Y005294D01*
X005292Y005244D01*
X005216Y005206D01*
X005136Y005180D01*
X005052Y005167D01*
X005010Y005167D01*
X005010Y005704D01*
X005010Y005704D01*
X005010Y005167D01*
X004968Y005167D01*
X004884Y005180D01*
X004804Y005206D01*
X004728Y005244D01*
X004660Y005294D01*
X004600Y005354D01*
X004551Y005422D01*
X004512Y005498D01*
X004510Y005504D01*
X004508Y005498D01*
X004469Y005422D01*
X004420Y005354D01*
X004360Y005294D01*
X004292Y005244D01*
X004216Y005206D01*
X004136Y005180D01*
X004052Y005167D01*
X004010Y005167D01*
X004010Y005704D01*
X004010Y005704D01*
X004010Y005167D01*
X003968Y005167D01*
X003884Y005180D01*
X003804Y005206D01*
X003728Y005244D01*
X003660Y005294D01*
X003600Y005354D01*
X003551Y005422D01*
X003512Y005498D01*
X003490Y005565D01*
X003431Y005422D01*
X003292Y005282D01*
X003109Y005207D01*
X002911Y005207D01*
X002728Y005282D01*
X002589Y005422D01*
X002513Y005605D01*
X002513Y005803D01*
X002589Y005985D01*
X002696Y006093D01*
X002583Y006207D01*
X002411Y006207D01*
X002228Y006282D01*
X002089Y006422D01*
X002013Y006605D01*
X002013Y006803D01*
X002089Y006985D01*
X002228Y007125D01*
X002411Y007201D01*
X002609Y007201D01*
X002792Y007125D01*
X002931Y006985D01*
X003007Y006803D01*
X003007Y006631D01*
X003013Y006625D01*
X003013Y006803D01*
X003089Y006985D01*
X003228Y007125D01*
X003411Y007201D01*
X003609Y007201D01*
X003792Y007125D01*
X003931Y006985D01*
X004007Y006803D01*
X004007Y006605D01*
X003965Y006504D01*
X004055Y006504D01*
X004013Y006605D01*
X004013Y006803D01*
X004089Y006985D01*
X004228Y007125D01*
X004411Y007201D01*
X004609Y007201D01*
X004792Y007125D01*
X004931Y006985D01*
X005007Y006803D01*
X005007Y006605D01*
X004965Y006504D01*
X005820Y006504D01*
X005930Y006458D01*
X006014Y006374D01*
X006014Y006374D01*
X006134Y006254D01*
X006786Y006254D01*
X006734Y006306D01*
X006491Y006306D01*
X006362Y006435D01*
X006362Y006973D01*
X006491Y007102D01*
X007029Y007102D01*
X007136Y006995D01*
X007460Y006995D01*
X007469Y007004D01*
X007469Y007328D01*
X007598Y007457D01*
X007806Y007457D01*
X007822Y007468D01*
X007869Y007487D01*
X007919Y007497D01*
X007960Y007497D01*
X007960Y008013D01*
X008006Y008124D01*
X008090Y008208D01*
X008256Y008374D01*
X008340Y008458D01*
X008450Y008504D01*
X011570Y008504D01*
X011680Y008458D01*
X011930Y008208D01*
X012014Y008124D01*
X012060Y008013D01*
X012060Y007394D01*
X012014Y007284D01*
X011764Y007034D01*
X011680Y006949D01*
X011570Y006904D01*
X010634Y006904D01*
X010560Y006830D01*
X010560Y006817D01*
X010615Y006817D01*
X010744Y006689D01*
X010744Y006661D01*
X010746Y006673D01*
X010766Y006721D01*
X010794Y006763D01*
X010830Y006799D01*
X010873Y006828D01*
X010920Y006847D01*
X010971Y006857D01*
X011311Y006857D01*
X011311Y006204D01*
X011311Y006204D01*
X011311Y006857D01*
X011652Y006857D01*
X011702Y006847D01*
X011749Y006828D01*
X011792Y006799D01*
X011828Y006763D01*
X011857Y006721D01*
X011876Y006673D01*
X011886Y006623D01*
X011886Y006204D01*
X011311Y006204D01*
X011311Y006204D01*
X011311Y006204D01*
X011311Y005550D01*
X010971Y005550D01*
X010920Y005560D01*
X010873Y005580D01*
X010830Y005608D01*
X010794Y005644D01*
X010766Y005687D01*
X010746Y005734D01*
X010744Y005746D01*
X010744Y005719D01*
X010624Y005599D01*
X010624Y003986D01*
X010730Y003881D01*
X010817Y003670D01*
X010817Y002737D01*
X010730Y002527D01*
X010569Y002366D01*
X010358Y002279D01*
X010130Y002279D01*
X009920Y002366D01*
X009759Y002527D01*
X009672Y002737D01*
X009672Y003670D01*
X009759Y003881D01*
X009864Y003986D01*
X009864Y005590D01*
X009803Y005590D01*
X009674Y005719D01*
X009674Y006689D01*
X009803Y006817D01*
X009960Y006817D01*
X009960Y007013D01*
X010006Y007124D01*
X010090Y007208D01*
X010340Y007458D01*
X010450Y007504D01*
X011386Y007504D01*
X011460Y007578D01*
X011460Y007830D01*
X011386Y007904D01*
X009658Y007904D01*
X009658Y007435D01*
X009529Y007306D01*
X009051Y007306D01*
X009051Y007035D01*
X009166Y007035D01*
X009166Y006739D01*
X009166Y006739D01*
X009166Y007035D01*
X009319Y007035D01*
X009369Y007025D01*
X009417Y007005D01*
X009459Y006977D01*
X009495Y006940D01*
X009524Y006898D01*
X009543Y006850D01*
X009553Y006800D01*
X009553Y006716D01*
X009408Y006716D01*
X009408Y006716D01*
X009553Y006716D01*
X009553Y006631D01*
X009543Y006581D01*
X009524Y006533D01*
X009513Y006518D01*
X009513Y006402D01*
X009524Y006386D01*
X009543Y006339D01*
X009553Y006288D01*
X009553Y006204D01*
X009464Y006204D01*
X009464Y006204D01*
X009553Y006204D01*
X009553Y006119D01*
X009545Y006076D01*
X009553Y006033D01*
X009553Y005948D01*
X009464Y005948D01*
X009464Y005948D01*
X009464Y005948D01*
X009553Y005948D01*
X009553Y005863D01*
X009545Y005820D01*
X009553Y005777D01*
X009553Y005692D01*
X009464Y005692D01*
X009464Y005692D01*
X009553Y005692D01*
X009553Y005607D01*
X009543Y005557D01*
X009524Y005510D01*
X009495Y005467D01*
X009459Y005431D01*
X009417Y005403D01*
X009369Y005383D01*
X009319Y005373D01*
X009166Y005373D01*
X009166Y005692D01*
X009166Y005692D01*
X009166Y005948D01*
X009166Y005948D01*
X009166Y006181D01*
X009166Y006181D01*
X009166Y005948D01*
X009166Y005948D01*
X009166Y005692D01*
X009166Y005692D01*
X009166Y005373D01*
X009091Y005373D01*
X009091Y005298D01*
X008795Y005298D01*
X008795Y005298D01*
X009091Y005298D01*
X009091Y005145D01*
X009082Y005102D01*
X009529Y005102D01*
X009658Y004973D01*
X009658Y004435D01*
X009529Y004306D01*
X008991Y004306D01*
X008893Y004404D01*
X008450Y004404D01*
X008340Y004449D01*
X008256Y004534D01*
X008256Y004534D01*
X008006Y004784D01*
X007960Y004894D01*
X007960Y004950D01*
X007931Y004950D01*
X007640Y004660D01*
X007688Y004707D02*
X008082Y004707D01*
X007640Y004389D02*
X008908Y004389D01*
X008531Y004070D02*
X009864Y004070D01*
X009864Y004389D02*
X009612Y004389D01*
X009658Y004707D02*
X009864Y004707D01*
X009864Y005026D02*
X009605Y005026D01*
X009864Y005344D02*
X009091Y005344D01*
X009166Y005663D02*
X009166Y005663D01*
X009166Y005981D02*
X009166Y005981D01*
X009553Y005981D02*
X009674Y005981D01*
X009674Y006300D02*
X009551Y006300D01*
X009551Y006618D02*
X009674Y006618D01*
X009498Y006937D02*
X009960Y006937D01*
X010137Y007255D02*
X009051Y007255D01*
X009166Y006937D02*
X009166Y006937D01*
X009658Y007574D02*
X011456Y007574D01*
X011397Y007892D02*
X009658Y007892D01*
X008093Y008211D02*
X000520Y008211D01*
X000520Y008529D02*
X012260Y008529D01*
X012260Y008704D02*
X000520Y008704D01*
X000520Y001464D01*
X012260Y001464D01*
X012260Y008704D01*
X012260Y008211D02*
X011927Y008211D01*
X012060Y007892D02*
X012260Y007892D01*
X012260Y007574D02*
X012060Y007574D01*
X011986Y007255D02*
X012260Y007255D01*
X012260Y006937D02*
X011649Y006937D01*
X011886Y006618D02*
X012260Y006618D01*
X012260Y006300D02*
X011886Y006300D01*
X011886Y006204D02*
X011311Y006204D01*
X011311Y005550D01*
X011652Y005550D01*
X011702Y005560D01*
X011749Y005580D01*
X011792Y005608D01*
X011828Y005644D01*
X011857Y005687D01*
X011876Y005734D01*
X011886Y005784D01*
X011886Y006204D01*
X011886Y005981D02*
X012260Y005981D01*
X012260Y005663D02*
X011840Y005663D01*
X012260Y005344D02*
X010624Y005344D01*
X010624Y005026D02*
X012260Y005026D01*
X012260Y004707D02*
X010624Y004707D01*
X010624Y004389D02*
X012260Y004389D01*
X012260Y004070D02*
X010624Y004070D01*
X010783Y003752D02*
X012260Y003752D01*
X012260Y003433D02*
X010817Y003433D01*
X010817Y003115D02*
X012260Y003115D01*
X012260Y002796D02*
X010817Y002796D01*
X010680Y002478D02*
X012260Y002478D01*
X012260Y002159D02*
X000520Y002159D01*
X000520Y001841D02*
X012260Y001841D01*
X012260Y001522D02*
X000520Y001522D01*
X000944Y002294D02*
X002576Y002294D01*
X002670Y002388D01*
X002670Y004020D01*
X002576Y004114D01*
X000944Y004114D01*
X000850Y004020D01*
X000850Y002388D01*
X000944Y002294D01*
X000850Y002478D02*
X000520Y002478D01*
X000520Y002796D02*
X000850Y002796D01*
X000850Y003115D02*
X000520Y003115D01*
X000520Y003433D02*
X000850Y003433D01*
X000850Y003752D02*
X000520Y003752D01*
X000520Y004070D02*
X000900Y004070D01*
X000520Y004389D02*
X006408Y004389D01*
X006362Y004707D02*
X000520Y004707D01*
X000520Y005026D02*
X006415Y005026D01*
X006195Y005344D02*
X005410Y005344D01*
X005547Y005663D02*
X005877Y005663D01*
X006088Y006300D02*
X006740Y006300D01*
X006362Y006618D02*
X005007Y006618D01*
X004952Y006937D02*
X006362Y006937D01*
X007469Y007255D02*
X000520Y007255D01*
X000520Y006937D02*
X002068Y006937D01*
X002013Y006618D02*
X000520Y006618D01*
X000520Y006300D02*
X002211Y006300D01*
X002587Y005981D02*
X000520Y005981D01*
X000520Y005663D02*
X002513Y005663D01*
X002666Y005344D02*
X000520Y005344D01*
X002620Y004070D02*
X004900Y004070D01*
X004944Y004114D02*
X004850Y004020D01*
X004850Y002388D01*
X004944Y002294D01*
X006576Y002294D01*
X006670Y002388D01*
X006670Y004020D01*
X006576Y004114D01*
X004944Y004114D01*
X004850Y003752D02*
X002670Y003752D01*
X002670Y003433D02*
X004850Y003433D01*
X004850Y003115D02*
X002670Y003115D01*
X002670Y002796D02*
X004850Y002796D01*
X004850Y002478D02*
X002670Y002478D01*
X003354Y005344D02*
X003610Y005344D01*
X004010Y005344D02*
X004010Y005344D01*
X004010Y005663D02*
X004010Y005663D01*
X004410Y005344D02*
X004610Y005344D01*
X005010Y005344D02*
X005010Y005344D01*
X005010Y005663D02*
X005010Y005663D01*
X004013Y006618D02*
X004007Y006618D01*
X003952Y006937D02*
X004068Y006937D01*
X003068Y006937D02*
X002952Y006937D01*
X000520Y007574D02*
X007960Y007574D01*
X007960Y007892D02*
X000520Y007892D01*
X006620Y004070D02*
X006904Y004070D01*
X006670Y003752D02*
X007175Y003752D01*
X007493Y003433D02*
X006670Y003433D01*
X006670Y003115D02*
X007703Y003115D01*
X007703Y002796D02*
X006670Y002796D01*
X006670Y002478D02*
X007840Y002478D01*
X008712Y002478D02*
X009808Y002478D01*
X009672Y002796D02*
X008848Y002796D01*
X008848Y003115D02*
X009672Y003115D01*
X009672Y003433D02*
X008848Y003433D01*
X008814Y003752D02*
X009706Y003752D01*
X010244Y003204D02*
X010244Y006168D01*
X010209Y006204D01*
X010688Y005663D02*
X010782Y005663D01*
X011311Y005663D02*
X011311Y005663D01*
X011311Y005981D02*
X011311Y005981D01*
X011311Y006300D02*
X011311Y006300D01*
X011311Y006618D02*
X011311Y006618D01*
X009730Y005663D02*
X009553Y005663D01*
X008021Y004070D02*
X007931Y004070D01*
D18*
X006760Y004704D03*
X006760Y006704D03*
X007260Y007704D03*
X009260Y007704D03*
X009260Y004704D03*
D19*
X008510Y004704D01*
X008260Y004954D01*
X008260Y005298D01*
X008004Y005298D01*
X007760Y005286D02*
X007760Y005204D01*
X007260Y004704D01*
X007260Y005031D01*
X007354Y005125D01*
X007354Y005692D01*
X007354Y005948D02*
X007349Y005954D01*
X006010Y005954D01*
X006760Y005204D01*
X006760Y004704D01*
X007748Y005298D02*
X007760Y005286D01*
X007354Y006460D02*
X007004Y006460D01*
X006760Y006704D01*
X006010Y005954D02*
X005760Y006204D01*
X003010Y006204D01*
X002510Y006704D01*
X007260Y007704D02*
X007760Y007704D01*
X008004Y007460D01*
X008004Y007109D01*
X008260Y007109D02*
X008260Y007954D01*
X008510Y008204D01*
X011510Y008204D01*
X011760Y007954D01*
X011760Y007454D01*
X011510Y007204D01*
X010510Y007204D01*
X010260Y006954D01*
X010260Y006255D01*
X010209Y006204D01*
X008516Y007109D02*
X008516Y007460D01*
X008760Y007704D01*
X009260Y007704D01*
X008276Y003204D02*
X008260Y003204D01*
M02*
