G75*
%MOIN*%
%OFA0B0*%
%FSLAX24Y24*%
%IPPOS*%
%LPD*%
%AMOC8*
5,1,8,0,0,1.08239X$1,22.5*
%
%ADD10C,0.0000*%
%ADD11C,0.0554*%
%ADD12R,0.0630X0.0709*%
%ADD13C,0.0705*%
%ADD14C,0.0160*%
%ADD15R,0.0356X0.0356*%
D10*
X000260Y001204D02*
X000260Y032700D01*
X039630Y032700D01*
X039630Y001204D01*
X000260Y001204D01*
X001120Y003204D02*
X001122Y003254D01*
X001128Y003304D01*
X001138Y003353D01*
X001151Y003402D01*
X001169Y003449D01*
X001190Y003495D01*
X001214Y003538D01*
X001242Y003580D01*
X001273Y003620D01*
X001307Y003657D01*
X001344Y003691D01*
X001384Y003722D01*
X001426Y003750D01*
X001469Y003774D01*
X001515Y003795D01*
X001562Y003813D01*
X001611Y003826D01*
X001660Y003836D01*
X001710Y003842D01*
X001760Y003844D01*
X001810Y003842D01*
X001860Y003836D01*
X001909Y003826D01*
X001958Y003813D01*
X002005Y003795D01*
X002051Y003774D01*
X002094Y003750D01*
X002136Y003722D01*
X002176Y003691D01*
X002213Y003657D01*
X002247Y003620D01*
X002278Y003580D01*
X002306Y003538D01*
X002330Y003495D01*
X002351Y003449D01*
X002369Y003402D01*
X002382Y003353D01*
X002392Y003304D01*
X002398Y003254D01*
X002400Y003204D01*
X002398Y003154D01*
X002392Y003104D01*
X002382Y003055D01*
X002369Y003006D01*
X002351Y002959D01*
X002330Y002913D01*
X002306Y002870D01*
X002278Y002828D01*
X002247Y002788D01*
X002213Y002751D01*
X002176Y002717D01*
X002136Y002686D01*
X002094Y002658D01*
X002051Y002634D01*
X002005Y002613D01*
X001958Y002595D01*
X001909Y002582D01*
X001860Y002572D01*
X001810Y002566D01*
X001760Y002564D01*
X001710Y002566D01*
X001660Y002572D01*
X001611Y002582D01*
X001562Y002595D01*
X001515Y002613D01*
X001469Y002634D01*
X001426Y002658D01*
X001384Y002686D01*
X001344Y002717D01*
X001307Y002751D01*
X001273Y002788D01*
X001242Y002828D01*
X001214Y002870D01*
X001190Y002913D01*
X001169Y002959D01*
X001151Y003006D01*
X001138Y003055D01*
X001128Y003104D01*
X001122Y003154D01*
X001120Y003204D01*
X005120Y003204D02*
X005122Y003254D01*
X005128Y003304D01*
X005138Y003353D01*
X005151Y003402D01*
X005169Y003449D01*
X005190Y003495D01*
X005214Y003538D01*
X005242Y003580D01*
X005273Y003620D01*
X005307Y003657D01*
X005344Y003691D01*
X005384Y003722D01*
X005426Y003750D01*
X005469Y003774D01*
X005515Y003795D01*
X005562Y003813D01*
X005611Y003826D01*
X005660Y003836D01*
X005710Y003842D01*
X005760Y003844D01*
X005810Y003842D01*
X005860Y003836D01*
X005909Y003826D01*
X005958Y003813D01*
X006005Y003795D01*
X006051Y003774D01*
X006094Y003750D01*
X006136Y003722D01*
X006176Y003691D01*
X006213Y003657D01*
X006247Y003620D01*
X006278Y003580D01*
X006306Y003538D01*
X006330Y003495D01*
X006351Y003449D01*
X006369Y003402D01*
X006382Y003353D01*
X006392Y003304D01*
X006398Y003254D01*
X006400Y003204D01*
X006398Y003154D01*
X006392Y003104D01*
X006382Y003055D01*
X006369Y003006D01*
X006351Y002959D01*
X006330Y002913D01*
X006306Y002870D01*
X006278Y002828D01*
X006247Y002788D01*
X006213Y002751D01*
X006176Y002717D01*
X006136Y002686D01*
X006094Y002658D01*
X006051Y002634D01*
X006005Y002613D01*
X005958Y002595D01*
X005909Y002582D01*
X005860Y002572D01*
X005810Y002566D01*
X005760Y002564D01*
X005710Y002566D01*
X005660Y002572D01*
X005611Y002582D01*
X005562Y002595D01*
X005515Y002613D01*
X005469Y002634D01*
X005426Y002658D01*
X005384Y002686D01*
X005344Y002717D01*
X005307Y002751D01*
X005273Y002788D01*
X005242Y002828D01*
X005214Y002870D01*
X005190Y002913D01*
X005169Y002959D01*
X005151Y003006D01*
X005138Y003055D01*
X005128Y003104D01*
X005122Y003154D01*
X005120Y003204D01*
D11*
X005010Y005704D03*
X004010Y005704D03*
X003010Y005704D03*
X002510Y006704D03*
X003510Y006704D03*
X004510Y006704D03*
D12*
X007709Y006704D03*
X007709Y005704D03*
X008811Y005704D03*
X008811Y006704D03*
D13*
X008276Y003556D02*
X008276Y002851D01*
X010244Y002851D02*
X010244Y003556D01*
D14*
X009260Y004704D02*
X006760Y004704D01*
X007709Y005704D02*
X004010Y005704D01*
X003510Y006204D02*
X003010Y005704D01*
X003510Y006204D02*
X005760Y006204D01*
X006260Y006704D01*
X006760Y006704D01*
X007260Y007153D02*
X007260Y007704D01*
X007260Y007153D02*
X007709Y006704D01*
X007709Y005704D01*
X008811Y005704D02*
X009260Y005255D01*
X009260Y004704D01*
X008811Y006704D02*
X008760Y006704D01*
X009260Y007204D01*
X009260Y007704D01*
D15*
X009260Y007704D03*
X007260Y007704D03*
X006760Y006704D03*
X006760Y004704D03*
X009260Y004704D03*
M02*
