G75*
%MOIN*%
%OFA0B0*%
%FSLAX24Y24*%
%IPPOS*%
%LPD*%
%AMOC8*
5,1,8,0,0,1.08239X$1,22.5*
%
%ADD10R,0.0472X0.0551*%
%ADD11R,0.0512X0.0591*%
%ADD12R,0.0591X0.0512*%
%ADD13R,0.0709X0.0630*%
%ADD14R,0.0197X0.0591*%
%ADD15R,0.0591X0.0197*%
%ADD16R,0.1250X0.0750*%
%ADD17R,0.0630X0.0709*%
%ADD18R,0.0710X0.0630*%
%ADD19R,0.0630X0.0512*%
%ADD20R,0.1181X0.0984*%
%ADD21R,0.0984X0.0787*%
%ADD22R,0.1299X0.0787*%
%ADD23R,0.1220X0.0197*%
%ADD24R,0.0630X0.0787*%
%ADD25R,0.1378X0.0551*%
D10*
X010009Y005200D03*
X011191Y005200D03*
X011191Y007200D03*
X010009Y007200D03*
X020509Y002700D03*
X021691Y002700D03*
X023190Y023980D03*
X024100Y023980D03*
X025010Y023980D03*
X022191Y024200D03*
X021009Y024200D03*
X018510Y023980D03*
X017600Y023980D03*
X016690Y023980D03*
X015691Y024200D03*
X014509Y024200D03*
X012010Y023980D03*
X011100Y023980D03*
X010190Y023980D03*
X009191Y024200D03*
X008009Y024200D03*
X027509Y024200D03*
X028691Y024200D03*
X029690Y023980D03*
X030600Y023980D03*
X031510Y023980D03*
X034009Y024200D03*
X035191Y024200D03*
X036190Y023980D03*
X037100Y023980D03*
X038010Y023980D03*
D11*
X034974Y025575D03*
X034226Y025575D03*
X028474Y025700D03*
X027726Y025700D03*
X021974Y025700D03*
X021226Y025700D03*
X015474Y025700D03*
X014726Y025700D03*
X008974Y025700D03*
X008226Y025700D03*
X018726Y002700D03*
X019474Y002700D03*
D12*
X012600Y004826D03*
X012600Y005574D03*
X012600Y006865D03*
X012600Y007535D03*
D13*
X024600Y010149D03*
X024600Y011251D03*
D14*
X021675Y012483D03*
X021360Y012483D03*
X021045Y012483D03*
X020730Y012483D03*
X020415Y012483D03*
X020100Y012483D03*
X019785Y012483D03*
X019470Y012483D03*
X019155Y012483D03*
X018840Y012483D03*
X018525Y012483D03*
X018525Y007917D03*
X018840Y007917D03*
X019155Y007917D03*
X019470Y007917D03*
X019785Y007917D03*
X020100Y007917D03*
X020415Y007917D03*
X020730Y007917D03*
X021045Y007917D03*
X021360Y007917D03*
X021675Y007917D03*
D15*
X022383Y008625D03*
X022383Y008940D03*
X022383Y009255D03*
X022383Y009570D03*
X022383Y009885D03*
X022383Y010200D03*
X022383Y010515D03*
X022383Y010830D03*
X022383Y011145D03*
X022383Y011460D03*
X022383Y011775D03*
X017817Y011775D03*
X017817Y011460D03*
X017817Y011145D03*
X017817Y010830D03*
X017817Y010515D03*
X017817Y010200D03*
X017817Y009885D03*
X017817Y009570D03*
X017817Y009255D03*
X017817Y008940D03*
X017817Y008625D03*
D16*
X018725Y006075D03*
X018725Y004325D03*
X021475Y004325D03*
X021475Y006075D03*
D17*
X013151Y010700D03*
X012049Y010700D03*
X012049Y012700D03*
X013151Y012700D03*
X019674Y014200D03*
X020776Y014200D03*
D18*
X016100Y012260D03*
X016100Y011140D03*
D19*
X024600Y008574D03*
X024600Y007826D03*
D20*
X014600Y010690D03*
X014600Y012749D03*
D21*
X004419Y014452D03*
X004419Y010948D03*
D22*
X006742Y010948D03*
X006742Y014452D03*
D23*
X006781Y013330D03*
X006781Y013015D03*
X006781Y012700D03*
X006781Y012385D03*
X006781Y012070D03*
D24*
X009549Y012200D03*
X010651Y012200D03*
X010651Y013450D03*
X009549Y013450D03*
D25*
X011100Y026420D03*
X017600Y026420D03*
X024100Y026420D03*
X030600Y026420D03*
X037100Y026420D03*
M02*
