G75*
%MOIN*%
%OFA0B0*%
%FSLAX24Y24*%
%IPPOS*%
%LPD*%
%AMOC8*
5,1,8,0,0,1.08239X$1,22.5*
%
%ADD10C,0.0000*%
%ADD11C,0.0040*%
%ADD12C,0.0080*%
%ADD13C,0.0010*%
D10*
X003100Y000100D02*
X003100Y028396D01*
X041170Y028396D01*
X041170Y000100D01*
X003100Y000100D01*
X003470Y001200D02*
X003472Y001250D01*
X003478Y001300D01*
X003488Y001349D01*
X003502Y001397D01*
X003519Y001444D01*
X003540Y001489D01*
X003565Y001533D01*
X003593Y001574D01*
X003625Y001613D01*
X003659Y001650D01*
X003696Y001684D01*
X003736Y001714D01*
X003778Y001741D01*
X003822Y001765D01*
X003868Y001786D01*
X003915Y001802D01*
X003963Y001815D01*
X004013Y001824D01*
X004062Y001829D01*
X004113Y001830D01*
X004163Y001827D01*
X004212Y001820D01*
X004261Y001809D01*
X004309Y001794D01*
X004355Y001776D01*
X004400Y001754D01*
X004443Y001728D01*
X004484Y001699D01*
X004523Y001667D01*
X004559Y001632D01*
X004591Y001594D01*
X004621Y001554D01*
X004648Y001511D01*
X004671Y001467D01*
X004690Y001421D01*
X004706Y001373D01*
X004718Y001324D01*
X004726Y001275D01*
X004730Y001225D01*
X004730Y001175D01*
X004726Y001125D01*
X004718Y001076D01*
X004706Y001027D01*
X004690Y000979D01*
X004671Y000933D01*
X004648Y000889D01*
X004621Y000846D01*
X004591Y000806D01*
X004559Y000768D01*
X004523Y000733D01*
X004484Y000701D01*
X004443Y000672D01*
X004400Y000646D01*
X004355Y000624D01*
X004309Y000606D01*
X004261Y000591D01*
X004212Y000580D01*
X004163Y000573D01*
X004113Y000570D01*
X004062Y000571D01*
X004013Y000576D01*
X003963Y000585D01*
X003915Y000598D01*
X003868Y000614D01*
X003822Y000635D01*
X003778Y000659D01*
X003736Y000686D01*
X003696Y000716D01*
X003659Y000750D01*
X003625Y000787D01*
X003593Y000826D01*
X003565Y000867D01*
X003540Y000911D01*
X003519Y000956D01*
X003502Y001003D01*
X003488Y001051D01*
X003478Y001100D01*
X003472Y001150D01*
X003470Y001200D01*
X004919Y005216D02*
X004921Y005252D01*
X004927Y005288D01*
X004937Y005323D01*
X004950Y005357D01*
X004967Y005389D01*
X004987Y005419D01*
X005011Y005446D01*
X005037Y005471D01*
X005066Y005493D01*
X005097Y005512D01*
X005130Y005527D01*
X005164Y005539D01*
X005200Y005547D01*
X005236Y005551D01*
X005272Y005551D01*
X005308Y005547D01*
X005344Y005539D01*
X005378Y005527D01*
X005411Y005512D01*
X005442Y005493D01*
X005471Y005471D01*
X005497Y005446D01*
X005521Y005419D01*
X005541Y005389D01*
X005558Y005357D01*
X005571Y005323D01*
X005581Y005288D01*
X005587Y005252D01*
X005589Y005216D01*
X005587Y005180D01*
X005581Y005144D01*
X005571Y005109D01*
X005558Y005075D01*
X005541Y005043D01*
X005521Y005013D01*
X005497Y004986D01*
X005471Y004961D01*
X005442Y004939D01*
X005411Y004920D01*
X005378Y004905D01*
X005344Y004893D01*
X005308Y004885D01*
X005272Y004881D01*
X005236Y004881D01*
X005200Y004885D01*
X005164Y004893D01*
X005130Y004905D01*
X005097Y004920D01*
X005066Y004939D01*
X005037Y004961D01*
X005011Y004986D01*
X004987Y005013D01*
X004967Y005043D01*
X004950Y005075D01*
X004937Y005109D01*
X004927Y005144D01*
X004921Y005180D01*
X004919Y005216D01*
X004919Y007184D02*
X004921Y007220D01*
X004927Y007256D01*
X004937Y007291D01*
X004950Y007325D01*
X004967Y007357D01*
X004987Y007387D01*
X005011Y007414D01*
X005037Y007439D01*
X005066Y007461D01*
X005097Y007480D01*
X005130Y007495D01*
X005164Y007507D01*
X005200Y007515D01*
X005236Y007519D01*
X005272Y007519D01*
X005308Y007515D01*
X005344Y007507D01*
X005378Y007495D01*
X005411Y007480D01*
X005442Y007461D01*
X005471Y007439D01*
X005497Y007414D01*
X005521Y007387D01*
X005541Y007357D01*
X005558Y007325D01*
X005571Y007291D01*
X005581Y007256D01*
X005587Y007220D01*
X005589Y007184D01*
X005587Y007148D01*
X005581Y007112D01*
X005571Y007077D01*
X005558Y007043D01*
X005541Y007011D01*
X005521Y006981D01*
X005497Y006954D01*
X005471Y006929D01*
X005442Y006907D01*
X005411Y006888D01*
X005378Y006873D01*
X005344Y006861D01*
X005308Y006853D01*
X005272Y006849D01*
X005236Y006849D01*
X005200Y006853D01*
X005164Y006861D01*
X005130Y006873D01*
X005097Y006888D01*
X005066Y006907D01*
X005037Y006929D01*
X005011Y006954D01*
X004987Y006981D01*
X004967Y007011D01*
X004950Y007043D01*
X004937Y007077D01*
X004927Y007112D01*
X004921Y007148D01*
X004919Y007184D01*
X005423Y011834D02*
X005425Y011860D01*
X005431Y011886D01*
X005441Y011911D01*
X005454Y011934D01*
X005470Y011954D01*
X005490Y011972D01*
X005512Y011987D01*
X005535Y011999D01*
X005561Y012007D01*
X005587Y012011D01*
X005613Y012011D01*
X005639Y012007D01*
X005665Y011999D01*
X005689Y011987D01*
X005710Y011972D01*
X005730Y011954D01*
X005746Y011934D01*
X005759Y011911D01*
X005769Y011886D01*
X005775Y011860D01*
X005777Y011834D01*
X005775Y011808D01*
X005769Y011782D01*
X005759Y011757D01*
X005746Y011734D01*
X005730Y011714D01*
X005710Y011696D01*
X005688Y011681D01*
X005665Y011669D01*
X005639Y011661D01*
X005613Y011657D01*
X005587Y011657D01*
X005561Y011661D01*
X005535Y011669D01*
X005511Y011681D01*
X005490Y011696D01*
X005470Y011714D01*
X005454Y011734D01*
X005441Y011757D01*
X005431Y011782D01*
X005425Y011808D01*
X005423Y011834D01*
X005423Y013566D02*
X005425Y013592D01*
X005431Y013618D01*
X005441Y013643D01*
X005454Y013666D01*
X005470Y013686D01*
X005490Y013704D01*
X005512Y013719D01*
X005535Y013731D01*
X005561Y013739D01*
X005587Y013743D01*
X005613Y013743D01*
X005639Y013739D01*
X005665Y013731D01*
X005689Y013719D01*
X005710Y013704D01*
X005730Y013686D01*
X005746Y013666D01*
X005759Y013643D01*
X005769Y013618D01*
X005775Y013592D01*
X005777Y013566D01*
X005775Y013540D01*
X005769Y013514D01*
X005759Y013489D01*
X005746Y013466D01*
X005730Y013446D01*
X005710Y013428D01*
X005688Y013413D01*
X005665Y013401D01*
X005639Y013393D01*
X005613Y013389D01*
X005587Y013389D01*
X005561Y013393D01*
X005535Y013401D01*
X005511Y013413D01*
X005490Y013428D01*
X005470Y013446D01*
X005454Y013466D01*
X005441Y013489D01*
X005431Y013514D01*
X005425Y013540D01*
X005423Y013566D01*
X007460Y018700D02*
X007462Y018750D01*
X007468Y018800D01*
X007478Y018849D01*
X007491Y018898D01*
X007509Y018945D01*
X007530Y018991D01*
X007554Y019034D01*
X007582Y019076D01*
X007613Y019116D01*
X007647Y019153D01*
X007684Y019187D01*
X007724Y019218D01*
X007766Y019246D01*
X007809Y019270D01*
X007855Y019291D01*
X007902Y019309D01*
X007951Y019322D01*
X008000Y019332D01*
X008050Y019338D01*
X008100Y019340D01*
X008150Y019338D01*
X008200Y019332D01*
X008249Y019322D01*
X008298Y019309D01*
X008345Y019291D01*
X008391Y019270D01*
X008434Y019246D01*
X008476Y019218D01*
X008516Y019187D01*
X008553Y019153D01*
X008587Y019116D01*
X008618Y019076D01*
X008646Y019034D01*
X008670Y018991D01*
X008691Y018945D01*
X008709Y018898D01*
X008722Y018849D01*
X008732Y018800D01*
X008738Y018750D01*
X008740Y018700D01*
X008738Y018650D01*
X008732Y018600D01*
X008722Y018551D01*
X008709Y018502D01*
X008691Y018455D01*
X008670Y018409D01*
X008646Y018366D01*
X008618Y018324D01*
X008587Y018284D01*
X008553Y018247D01*
X008516Y018213D01*
X008476Y018182D01*
X008434Y018154D01*
X008391Y018130D01*
X008345Y018109D01*
X008298Y018091D01*
X008249Y018078D01*
X008200Y018068D01*
X008150Y018062D01*
X008100Y018060D01*
X008050Y018062D01*
X008000Y018068D01*
X007951Y018078D01*
X007902Y018091D01*
X007855Y018109D01*
X007809Y018130D01*
X007766Y018154D01*
X007724Y018182D01*
X007684Y018213D01*
X007647Y018247D01*
X007613Y018284D01*
X007582Y018324D01*
X007554Y018366D01*
X007530Y018409D01*
X007509Y018455D01*
X007491Y018502D01*
X007478Y018551D01*
X007468Y018600D01*
X007462Y018650D01*
X007460Y018700D01*
X011460Y018700D02*
X011462Y018750D01*
X011468Y018800D01*
X011478Y018849D01*
X011491Y018898D01*
X011509Y018945D01*
X011530Y018991D01*
X011554Y019034D01*
X011582Y019076D01*
X011613Y019116D01*
X011647Y019153D01*
X011684Y019187D01*
X011724Y019218D01*
X011766Y019246D01*
X011809Y019270D01*
X011855Y019291D01*
X011902Y019309D01*
X011951Y019322D01*
X012000Y019332D01*
X012050Y019338D01*
X012100Y019340D01*
X012150Y019338D01*
X012200Y019332D01*
X012249Y019322D01*
X012298Y019309D01*
X012345Y019291D01*
X012391Y019270D01*
X012434Y019246D01*
X012476Y019218D01*
X012516Y019187D01*
X012553Y019153D01*
X012587Y019116D01*
X012618Y019076D01*
X012646Y019034D01*
X012670Y018991D01*
X012691Y018945D01*
X012709Y018898D01*
X012722Y018849D01*
X012732Y018800D01*
X012738Y018750D01*
X012740Y018700D01*
X012738Y018650D01*
X012732Y018600D01*
X012722Y018551D01*
X012709Y018502D01*
X012691Y018455D01*
X012670Y018409D01*
X012646Y018366D01*
X012618Y018324D01*
X012587Y018284D01*
X012553Y018247D01*
X012516Y018213D01*
X012476Y018182D01*
X012434Y018154D01*
X012391Y018130D01*
X012345Y018109D01*
X012298Y018091D01*
X012249Y018078D01*
X012200Y018068D01*
X012150Y018062D01*
X012100Y018060D01*
X012050Y018062D01*
X012000Y018068D01*
X011951Y018078D01*
X011902Y018091D01*
X011855Y018109D01*
X011809Y018130D01*
X011766Y018154D01*
X011724Y018182D01*
X011684Y018213D01*
X011647Y018247D01*
X011613Y018284D01*
X011582Y018324D01*
X011554Y018366D01*
X011530Y018409D01*
X011509Y018455D01*
X011491Y018502D01*
X011478Y018551D01*
X011468Y018600D01*
X011462Y018650D01*
X011460Y018700D01*
X013960Y018700D02*
X013962Y018750D01*
X013968Y018800D01*
X013978Y018849D01*
X013991Y018898D01*
X014009Y018945D01*
X014030Y018991D01*
X014054Y019034D01*
X014082Y019076D01*
X014113Y019116D01*
X014147Y019153D01*
X014184Y019187D01*
X014224Y019218D01*
X014266Y019246D01*
X014309Y019270D01*
X014355Y019291D01*
X014402Y019309D01*
X014451Y019322D01*
X014500Y019332D01*
X014550Y019338D01*
X014600Y019340D01*
X014650Y019338D01*
X014700Y019332D01*
X014749Y019322D01*
X014798Y019309D01*
X014845Y019291D01*
X014891Y019270D01*
X014934Y019246D01*
X014976Y019218D01*
X015016Y019187D01*
X015053Y019153D01*
X015087Y019116D01*
X015118Y019076D01*
X015146Y019034D01*
X015170Y018991D01*
X015191Y018945D01*
X015209Y018898D01*
X015222Y018849D01*
X015232Y018800D01*
X015238Y018750D01*
X015240Y018700D01*
X015238Y018650D01*
X015232Y018600D01*
X015222Y018551D01*
X015209Y018502D01*
X015191Y018455D01*
X015170Y018409D01*
X015146Y018366D01*
X015118Y018324D01*
X015087Y018284D01*
X015053Y018247D01*
X015016Y018213D01*
X014976Y018182D01*
X014934Y018154D01*
X014891Y018130D01*
X014845Y018109D01*
X014798Y018091D01*
X014749Y018078D01*
X014700Y018068D01*
X014650Y018062D01*
X014600Y018060D01*
X014550Y018062D01*
X014500Y018068D01*
X014451Y018078D01*
X014402Y018091D01*
X014355Y018109D01*
X014309Y018130D01*
X014266Y018154D01*
X014224Y018182D01*
X014184Y018213D01*
X014147Y018247D01*
X014113Y018284D01*
X014082Y018324D01*
X014054Y018366D01*
X014030Y018409D01*
X014009Y018455D01*
X013991Y018502D01*
X013978Y018551D01*
X013968Y018600D01*
X013962Y018650D01*
X013960Y018700D01*
X017960Y018700D02*
X017962Y018750D01*
X017968Y018800D01*
X017978Y018849D01*
X017991Y018898D01*
X018009Y018945D01*
X018030Y018991D01*
X018054Y019034D01*
X018082Y019076D01*
X018113Y019116D01*
X018147Y019153D01*
X018184Y019187D01*
X018224Y019218D01*
X018266Y019246D01*
X018309Y019270D01*
X018355Y019291D01*
X018402Y019309D01*
X018451Y019322D01*
X018500Y019332D01*
X018550Y019338D01*
X018600Y019340D01*
X018650Y019338D01*
X018700Y019332D01*
X018749Y019322D01*
X018798Y019309D01*
X018845Y019291D01*
X018891Y019270D01*
X018934Y019246D01*
X018976Y019218D01*
X019016Y019187D01*
X019053Y019153D01*
X019087Y019116D01*
X019118Y019076D01*
X019146Y019034D01*
X019170Y018991D01*
X019191Y018945D01*
X019209Y018898D01*
X019222Y018849D01*
X019232Y018800D01*
X019238Y018750D01*
X019240Y018700D01*
X019238Y018650D01*
X019232Y018600D01*
X019222Y018551D01*
X019209Y018502D01*
X019191Y018455D01*
X019170Y018409D01*
X019146Y018366D01*
X019118Y018324D01*
X019087Y018284D01*
X019053Y018247D01*
X019016Y018213D01*
X018976Y018182D01*
X018934Y018154D01*
X018891Y018130D01*
X018845Y018109D01*
X018798Y018091D01*
X018749Y018078D01*
X018700Y018068D01*
X018650Y018062D01*
X018600Y018060D01*
X018550Y018062D01*
X018500Y018068D01*
X018451Y018078D01*
X018402Y018091D01*
X018355Y018109D01*
X018309Y018130D01*
X018266Y018154D01*
X018224Y018182D01*
X018184Y018213D01*
X018147Y018247D01*
X018113Y018284D01*
X018082Y018324D01*
X018054Y018366D01*
X018030Y018409D01*
X018009Y018455D01*
X017991Y018502D01*
X017978Y018551D01*
X017968Y018600D01*
X017962Y018650D01*
X017960Y018700D01*
X020460Y018700D02*
X020462Y018750D01*
X020468Y018800D01*
X020478Y018849D01*
X020491Y018898D01*
X020509Y018945D01*
X020530Y018991D01*
X020554Y019034D01*
X020582Y019076D01*
X020613Y019116D01*
X020647Y019153D01*
X020684Y019187D01*
X020724Y019218D01*
X020766Y019246D01*
X020809Y019270D01*
X020855Y019291D01*
X020902Y019309D01*
X020951Y019322D01*
X021000Y019332D01*
X021050Y019338D01*
X021100Y019340D01*
X021150Y019338D01*
X021200Y019332D01*
X021249Y019322D01*
X021298Y019309D01*
X021345Y019291D01*
X021391Y019270D01*
X021434Y019246D01*
X021476Y019218D01*
X021516Y019187D01*
X021553Y019153D01*
X021587Y019116D01*
X021618Y019076D01*
X021646Y019034D01*
X021670Y018991D01*
X021691Y018945D01*
X021709Y018898D01*
X021722Y018849D01*
X021732Y018800D01*
X021738Y018750D01*
X021740Y018700D01*
X021738Y018650D01*
X021732Y018600D01*
X021722Y018551D01*
X021709Y018502D01*
X021691Y018455D01*
X021670Y018409D01*
X021646Y018366D01*
X021618Y018324D01*
X021587Y018284D01*
X021553Y018247D01*
X021516Y018213D01*
X021476Y018182D01*
X021434Y018154D01*
X021391Y018130D01*
X021345Y018109D01*
X021298Y018091D01*
X021249Y018078D01*
X021200Y018068D01*
X021150Y018062D01*
X021100Y018060D01*
X021050Y018062D01*
X021000Y018068D01*
X020951Y018078D01*
X020902Y018091D01*
X020855Y018109D01*
X020809Y018130D01*
X020766Y018154D01*
X020724Y018182D01*
X020684Y018213D01*
X020647Y018247D01*
X020613Y018284D01*
X020582Y018324D01*
X020554Y018366D01*
X020530Y018409D01*
X020509Y018455D01*
X020491Y018502D01*
X020478Y018551D01*
X020468Y018600D01*
X020462Y018650D01*
X020460Y018700D01*
X024460Y018700D02*
X024462Y018750D01*
X024468Y018800D01*
X024478Y018849D01*
X024491Y018898D01*
X024509Y018945D01*
X024530Y018991D01*
X024554Y019034D01*
X024582Y019076D01*
X024613Y019116D01*
X024647Y019153D01*
X024684Y019187D01*
X024724Y019218D01*
X024766Y019246D01*
X024809Y019270D01*
X024855Y019291D01*
X024902Y019309D01*
X024951Y019322D01*
X025000Y019332D01*
X025050Y019338D01*
X025100Y019340D01*
X025150Y019338D01*
X025200Y019332D01*
X025249Y019322D01*
X025298Y019309D01*
X025345Y019291D01*
X025391Y019270D01*
X025434Y019246D01*
X025476Y019218D01*
X025516Y019187D01*
X025553Y019153D01*
X025587Y019116D01*
X025618Y019076D01*
X025646Y019034D01*
X025670Y018991D01*
X025691Y018945D01*
X025709Y018898D01*
X025722Y018849D01*
X025732Y018800D01*
X025738Y018750D01*
X025740Y018700D01*
X025738Y018650D01*
X025732Y018600D01*
X025722Y018551D01*
X025709Y018502D01*
X025691Y018455D01*
X025670Y018409D01*
X025646Y018366D01*
X025618Y018324D01*
X025587Y018284D01*
X025553Y018247D01*
X025516Y018213D01*
X025476Y018182D01*
X025434Y018154D01*
X025391Y018130D01*
X025345Y018109D01*
X025298Y018091D01*
X025249Y018078D01*
X025200Y018068D01*
X025150Y018062D01*
X025100Y018060D01*
X025050Y018062D01*
X025000Y018068D01*
X024951Y018078D01*
X024902Y018091D01*
X024855Y018109D01*
X024809Y018130D01*
X024766Y018154D01*
X024724Y018182D01*
X024684Y018213D01*
X024647Y018247D01*
X024613Y018284D01*
X024582Y018324D01*
X024554Y018366D01*
X024530Y018409D01*
X024509Y018455D01*
X024491Y018502D01*
X024478Y018551D01*
X024468Y018600D01*
X024462Y018650D01*
X024460Y018700D01*
X026960Y018700D02*
X026962Y018750D01*
X026968Y018800D01*
X026978Y018849D01*
X026991Y018898D01*
X027009Y018945D01*
X027030Y018991D01*
X027054Y019034D01*
X027082Y019076D01*
X027113Y019116D01*
X027147Y019153D01*
X027184Y019187D01*
X027224Y019218D01*
X027266Y019246D01*
X027309Y019270D01*
X027355Y019291D01*
X027402Y019309D01*
X027451Y019322D01*
X027500Y019332D01*
X027550Y019338D01*
X027600Y019340D01*
X027650Y019338D01*
X027700Y019332D01*
X027749Y019322D01*
X027798Y019309D01*
X027845Y019291D01*
X027891Y019270D01*
X027934Y019246D01*
X027976Y019218D01*
X028016Y019187D01*
X028053Y019153D01*
X028087Y019116D01*
X028118Y019076D01*
X028146Y019034D01*
X028170Y018991D01*
X028191Y018945D01*
X028209Y018898D01*
X028222Y018849D01*
X028232Y018800D01*
X028238Y018750D01*
X028240Y018700D01*
X028238Y018650D01*
X028232Y018600D01*
X028222Y018551D01*
X028209Y018502D01*
X028191Y018455D01*
X028170Y018409D01*
X028146Y018366D01*
X028118Y018324D01*
X028087Y018284D01*
X028053Y018247D01*
X028016Y018213D01*
X027976Y018182D01*
X027934Y018154D01*
X027891Y018130D01*
X027845Y018109D01*
X027798Y018091D01*
X027749Y018078D01*
X027700Y018068D01*
X027650Y018062D01*
X027600Y018060D01*
X027550Y018062D01*
X027500Y018068D01*
X027451Y018078D01*
X027402Y018091D01*
X027355Y018109D01*
X027309Y018130D01*
X027266Y018154D01*
X027224Y018182D01*
X027184Y018213D01*
X027147Y018247D01*
X027113Y018284D01*
X027082Y018324D01*
X027054Y018366D01*
X027030Y018409D01*
X027009Y018455D01*
X026991Y018502D01*
X026978Y018551D01*
X026968Y018600D01*
X026962Y018650D01*
X026960Y018700D01*
X030960Y018700D02*
X030962Y018750D01*
X030968Y018800D01*
X030978Y018849D01*
X030991Y018898D01*
X031009Y018945D01*
X031030Y018991D01*
X031054Y019034D01*
X031082Y019076D01*
X031113Y019116D01*
X031147Y019153D01*
X031184Y019187D01*
X031224Y019218D01*
X031266Y019246D01*
X031309Y019270D01*
X031355Y019291D01*
X031402Y019309D01*
X031451Y019322D01*
X031500Y019332D01*
X031550Y019338D01*
X031600Y019340D01*
X031650Y019338D01*
X031700Y019332D01*
X031749Y019322D01*
X031798Y019309D01*
X031845Y019291D01*
X031891Y019270D01*
X031934Y019246D01*
X031976Y019218D01*
X032016Y019187D01*
X032053Y019153D01*
X032087Y019116D01*
X032118Y019076D01*
X032146Y019034D01*
X032170Y018991D01*
X032191Y018945D01*
X032209Y018898D01*
X032222Y018849D01*
X032232Y018800D01*
X032238Y018750D01*
X032240Y018700D01*
X032238Y018650D01*
X032232Y018600D01*
X032222Y018551D01*
X032209Y018502D01*
X032191Y018455D01*
X032170Y018409D01*
X032146Y018366D01*
X032118Y018324D01*
X032087Y018284D01*
X032053Y018247D01*
X032016Y018213D01*
X031976Y018182D01*
X031934Y018154D01*
X031891Y018130D01*
X031845Y018109D01*
X031798Y018091D01*
X031749Y018078D01*
X031700Y018068D01*
X031650Y018062D01*
X031600Y018060D01*
X031550Y018062D01*
X031500Y018068D01*
X031451Y018078D01*
X031402Y018091D01*
X031355Y018109D01*
X031309Y018130D01*
X031266Y018154D01*
X031224Y018182D01*
X031184Y018213D01*
X031147Y018247D01*
X031113Y018284D01*
X031082Y018324D01*
X031054Y018366D01*
X031030Y018409D01*
X031009Y018455D01*
X030991Y018502D01*
X030978Y018551D01*
X030968Y018600D01*
X030962Y018650D01*
X030960Y018700D01*
X033460Y018700D02*
X033462Y018750D01*
X033468Y018800D01*
X033478Y018849D01*
X033491Y018898D01*
X033509Y018945D01*
X033530Y018991D01*
X033554Y019034D01*
X033582Y019076D01*
X033613Y019116D01*
X033647Y019153D01*
X033684Y019187D01*
X033724Y019218D01*
X033766Y019246D01*
X033809Y019270D01*
X033855Y019291D01*
X033902Y019309D01*
X033951Y019322D01*
X034000Y019332D01*
X034050Y019338D01*
X034100Y019340D01*
X034150Y019338D01*
X034200Y019332D01*
X034249Y019322D01*
X034298Y019309D01*
X034345Y019291D01*
X034391Y019270D01*
X034434Y019246D01*
X034476Y019218D01*
X034516Y019187D01*
X034553Y019153D01*
X034587Y019116D01*
X034618Y019076D01*
X034646Y019034D01*
X034670Y018991D01*
X034691Y018945D01*
X034709Y018898D01*
X034722Y018849D01*
X034732Y018800D01*
X034738Y018750D01*
X034740Y018700D01*
X034738Y018650D01*
X034732Y018600D01*
X034722Y018551D01*
X034709Y018502D01*
X034691Y018455D01*
X034670Y018409D01*
X034646Y018366D01*
X034618Y018324D01*
X034587Y018284D01*
X034553Y018247D01*
X034516Y018213D01*
X034476Y018182D01*
X034434Y018154D01*
X034391Y018130D01*
X034345Y018109D01*
X034298Y018091D01*
X034249Y018078D01*
X034200Y018068D01*
X034150Y018062D01*
X034100Y018060D01*
X034050Y018062D01*
X034000Y018068D01*
X033951Y018078D01*
X033902Y018091D01*
X033855Y018109D01*
X033809Y018130D01*
X033766Y018154D01*
X033724Y018182D01*
X033684Y018213D01*
X033647Y018247D01*
X033613Y018284D01*
X033582Y018324D01*
X033554Y018366D01*
X033530Y018409D01*
X033509Y018455D01*
X033491Y018502D01*
X033478Y018551D01*
X033468Y018600D01*
X033462Y018650D01*
X033460Y018700D01*
X037460Y018700D02*
X037462Y018750D01*
X037468Y018800D01*
X037478Y018849D01*
X037491Y018898D01*
X037509Y018945D01*
X037530Y018991D01*
X037554Y019034D01*
X037582Y019076D01*
X037613Y019116D01*
X037647Y019153D01*
X037684Y019187D01*
X037724Y019218D01*
X037766Y019246D01*
X037809Y019270D01*
X037855Y019291D01*
X037902Y019309D01*
X037951Y019322D01*
X038000Y019332D01*
X038050Y019338D01*
X038100Y019340D01*
X038150Y019338D01*
X038200Y019332D01*
X038249Y019322D01*
X038298Y019309D01*
X038345Y019291D01*
X038391Y019270D01*
X038434Y019246D01*
X038476Y019218D01*
X038516Y019187D01*
X038553Y019153D01*
X038587Y019116D01*
X038618Y019076D01*
X038646Y019034D01*
X038670Y018991D01*
X038691Y018945D01*
X038709Y018898D01*
X038722Y018849D01*
X038732Y018800D01*
X038738Y018750D01*
X038740Y018700D01*
X038738Y018650D01*
X038732Y018600D01*
X038722Y018551D01*
X038709Y018502D01*
X038691Y018455D01*
X038670Y018409D01*
X038646Y018366D01*
X038618Y018324D01*
X038587Y018284D01*
X038553Y018247D01*
X038516Y018213D01*
X038476Y018182D01*
X038434Y018154D01*
X038391Y018130D01*
X038345Y018109D01*
X038298Y018091D01*
X038249Y018078D01*
X038200Y018068D01*
X038150Y018062D01*
X038100Y018060D01*
X038050Y018062D01*
X038000Y018068D01*
X037951Y018078D01*
X037902Y018091D01*
X037855Y018109D01*
X037809Y018130D01*
X037766Y018154D01*
X037724Y018182D01*
X037684Y018213D01*
X037647Y018247D01*
X037613Y018284D01*
X037582Y018324D01*
X037554Y018366D01*
X037530Y018409D01*
X037509Y018455D01*
X037491Y018502D01*
X037478Y018551D01*
X037468Y018600D01*
X037462Y018650D01*
X037460Y018700D01*
X039470Y027200D02*
X039472Y027250D01*
X039478Y027300D01*
X039488Y027349D01*
X039502Y027397D01*
X039519Y027444D01*
X039540Y027489D01*
X039565Y027533D01*
X039593Y027574D01*
X039625Y027613D01*
X039659Y027650D01*
X039696Y027684D01*
X039736Y027714D01*
X039778Y027741D01*
X039822Y027765D01*
X039868Y027786D01*
X039915Y027802D01*
X039963Y027815D01*
X040013Y027824D01*
X040062Y027829D01*
X040113Y027830D01*
X040163Y027827D01*
X040212Y027820D01*
X040261Y027809D01*
X040309Y027794D01*
X040355Y027776D01*
X040400Y027754D01*
X040443Y027728D01*
X040484Y027699D01*
X040523Y027667D01*
X040559Y027632D01*
X040591Y027594D01*
X040621Y027554D01*
X040648Y027511D01*
X040671Y027467D01*
X040690Y027421D01*
X040706Y027373D01*
X040718Y027324D01*
X040726Y027275D01*
X040730Y027225D01*
X040730Y027175D01*
X040726Y027125D01*
X040718Y027076D01*
X040706Y027027D01*
X040690Y026979D01*
X040671Y026933D01*
X040648Y026889D01*
X040621Y026846D01*
X040591Y026806D01*
X040559Y026768D01*
X040523Y026733D01*
X040484Y026701D01*
X040443Y026672D01*
X040400Y026646D01*
X040355Y026624D01*
X040309Y026606D01*
X040261Y026591D01*
X040212Y026580D01*
X040163Y026573D01*
X040113Y026570D01*
X040062Y026571D01*
X040013Y026576D01*
X039963Y026585D01*
X039915Y026598D01*
X039868Y026614D01*
X039822Y026635D01*
X039778Y026659D01*
X039736Y026686D01*
X039696Y026716D01*
X039659Y026750D01*
X039625Y026787D01*
X039593Y026826D01*
X039565Y026867D01*
X039540Y026911D01*
X039519Y026956D01*
X039502Y027003D01*
X039488Y027051D01*
X039478Y027100D01*
X039472Y027150D01*
X039470Y027200D01*
X015633Y005200D02*
X015635Y005243D01*
X015641Y005286D01*
X015651Y005328D01*
X015665Y005369D01*
X015682Y005408D01*
X015703Y005446D01*
X015727Y005481D01*
X015755Y005515D01*
X015785Y005545D01*
X015819Y005573D01*
X015854Y005597D01*
X015892Y005618D01*
X015931Y005635D01*
X015972Y005649D01*
X016014Y005659D01*
X016057Y005665D01*
X016100Y005667D01*
X016143Y005665D01*
X016186Y005659D01*
X016228Y005649D01*
X016269Y005635D01*
X016308Y005618D01*
X016346Y005597D01*
X016381Y005573D01*
X016415Y005545D01*
X016445Y005515D01*
X016473Y005481D01*
X016497Y005446D01*
X016518Y005408D01*
X016535Y005369D01*
X016549Y005328D01*
X016559Y005286D01*
X016565Y005243D01*
X016567Y005200D01*
X016565Y005157D01*
X016559Y005114D01*
X016549Y005072D01*
X016535Y005031D01*
X016518Y004992D01*
X016497Y004954D01*
X016473Y004919D01*
X016445Y004885D01*
X016415Y004855D01*
X016381Y004827D01*
X016346Y004803D01*
X016308Y004782D01*
X016269Y004765D01*
X016228Y004751D01*
X016186Y004741D01*
X016143Y004735D01*
X016100Y004733D01*
X016057Y004735D01*
X016014Y004741D01*
X015972Y004751D01*
X015931Y004765D01*
X015892Y004782D01*
X015854Y004803D01*
X015819Y004827D01*
X015785Y004855D01*
X015755Y004885D01*
X015727Y004919D01*
X015703Y004954D01*
X015682Y004992D01*
X015665Y005031D01*
X015651Y005072D01*
X015641Y005114D01*
X015635Y005157D01*
X015633Y005200D01*
X014383Y005200D02*
X014385Y005243D01*
X014391Y005286D01*
X014401Y005328D01*
X014415Y005369D01*
X014432Y005408D01*
X014453Y005446D01*
X014477Y005481D01*
X014505Y005515D01*
X014535Y005545D01*
X014569Y005573D01*
X014604Y005597D01*
X014642Y005618D01*
X014681Y005635D01*
X014722Y005649D01*
X014764Y005659D01*
X014807Y005665D01*
X014850Y005667D01*
X014893Y005665D01*
X014936Y005659D01*
X014978Y005649D01*
X015019Y005635D01*
X015058Y005618D01*
X015096Y005597D01*
X015131Y005573D01*
X015165Y005545D01*
X015195Y005515D01*
X015223Y005481D01*
X015247Y005446D01*
X015268Y005408D01*
X015285Y005369D01*
X015299Y005328D01*
X015309Y005286D01*
X015315Y005243D01*
X015317Y005200D01*
X015315Y005157D01*
X015309Y005114D01*
X015299Y005072D01*
X015285Y005031D01*
X015268Y004992D01*
X015247Y004954D01*
X015223Y004919D01*
X015195Y004885D01*
X015165Y004855D01*
X015131Y004827D01*
X015096Y004803D01*
X015058Y004782D01*
X015019Y004765D01*
X014978Y004751D01*
X014936Y004741D01*
X014893Y004735D01*
X014850Y004733D01*
X014807Y004735D01*
X014764Y004741D01*
X014722Y004751D01*
X014681Y004765D01*
X014642Y004782D01*
X014604Y004803D01*
X014569Y004827D01*
X014535Y004855D01*
X014505Y004885D01*
X014477Y004919D01*
X014453Y004954D01*
X014432Y004992D01*
X014415Y005031D01*
X014401Y005072D01*
X014391Y005114D01*
X014385Y005157D01*
X014383Y005200D01*
X013925Y004600D02*
X013927Y004626D01*
X013933Y004652D01*
X013942Y004676D01*
X013955Y004699D01*
X013972Y004719D01*
X013991Y004737D01*
X014013Y004752D01*
X014036Y004763D01*
X014061Y004771D01*
X014087Y004775D01*
X014113Y004775D01*
X014139Y004771D01*
X014164Y004763D01*
X014188Y004752D01*
X014209Y004737D01*
X014228Y004719D01*
X014245Y004699D01*
X014258Y004676D01*
X014267Y004652D01*
X014273Y004626D01*
X014275Y004600D01*
X014273Y004574D01*
X014267Y004548D01*
X014258Y004524D01*
X014245Y004501D01*
X014228Y004481D01*
X014209Y004463D01*
X014187Y004448D01*
X014164Y004437D01*
X014139Y004429D01*
X014113Y004425D01*
X014087Y004425D01*
X014061Y004429D01*
X014036Y004437D01*
X014012Y004448D01*
X013991Y004463D01*
X013972Y004481D01*
X013955Y004501D01*
X013942Y004524D01*
X013933Y004548D01*
X013927Y004574D01*
X013925Y004600D01*
X013925Y003800D02*
X013927Y003826D01*
X013933Y003852D01*
X013942Y003876D01*
X013955Y003899D01*
X013972Y003919D01*
X013991Y003937D01*
X014013Y003952D01*
X014036Y003963D01*
X014061Y003971D01*
X014087Y003975D01*
X014113Y003975D01*
X014139Y003971D01*
X014164Y003963D01*
X014188Y003952D01*
X014209Y003937D01*
X014228Y003919D01*
X014245Y003899D01*
X014258Y003876D01*
X014267Y003852D01*
X014273Y003826D01*
X014275Y003800D01*
X014273Y003774D01*
X014267Y003748D01*
X014258Y003724D01*
X014245Y003701D01*
X014228Y003681D01*
X014209Y003663D01*
X014187Y003648D01*
X014164Y003637D01*
X014139Y003629D01*
X014113Y003625D01*
X014087Y003625D01*
X014061Y003629D01*
X014036Y003637D01*
X014012Y003648D01*
X013991Y003663D01*
X013972Y003681D01*
X013955Y003701D01*
X013942Y003724D01*
X013933Y003748D01*
X013927Y003774D01*
X013925Y003800D01*
X014383Y003200D02*
X014385Y003243D01*
X014391Y003286D01*
X014401Y003328D01*
X014415Y003369D01*
X014432Y003408D01*
X014453Y003446D01*
X014477Y003481D01*
X014505Y003515D01*
X014535Y003545D01*
X014569Y003573D01*
X014604Y003597D01*
X014642Y003618D01*
X014681Y003635D01*
X014722Y003649D01*
X014764Y003659D01*
X014807Y003665D01*
X014850Y003667D01*
X014893Y003665D01*
X014936Y003659D01*
X014978Y003649D01*
X015019Y003635D01*
X015058Y003618D01*
X015096Y003597D01*
X015131Y003573D01*
X015165Y003545D01*
X015195Y003515D01*
X015223Y003481D01*
X015247Y003446D01*
X015268Y003408D01*
X015285Y003369D01*
X015299Y003328D01*
X015309Y003286D01*
X015315Y003243D01*
X015317Y003200D01*
X015315Y003157D01*
X015309Y003114D01*
X015299Y003072D01*
X015285Y003031D01*
X015268Y002992D01*
X015247Y002954D01*
X015223Y002919D01*
X015195Y002885D01*
X015165Y002855D01*
X015131Y002827D01*
X015096Y002803D01*
X015058Y002782D01*
X015019Y002765D01*
X014978Y002751D01*
X014936Y002741D01*
X014893Y002735D01*
X014850Y002733D01*
X014807Y002735D01*
X014764Y002741D01*
X014722Y002751D01*
X014681Y002765D01*
X014642Y002782D01*
X014604Y002803D01*
X014569Y002827D01*
X014535Y002855D01*
X014505Y002885D01*
X014477Y002919D01*
X014453Y002954D01*
X014432Y002992D01*
X014415Y003031D01*
X014401Y003072D01*
X014391Y003114D01*
X014385Y003157D01*
X014383Y003200D01*
X015633Y003200D02*
X015635Y003243D01*
X015641Y003286D01*
X015651Y003328D01*
X015665Y003369D01*
X015682Y003408D01*
X015703Y003446D01*
X015727Y003481D01*
X015755Y003515D01*
X015785Y003545D01*
X015819Y003573D01*
X015854Y003597D01*
X015892Y003618D01*
X015931Y003635D01*
X015972Y003649D01*
X016014Y003659D01*
X016057Y003665D01*
X016100Y003667D01*
X016143Y003665D01*
X016186Y003659D01*
X016228Y003649D01*
X016269Y003635D01*
X016308Y003618D01*
X016346Y003597D01*
X016381Y003573D01*
X016415Y003545D01*
X016445Y003515D01*
X016473Y003481D01*
X016497Y003446D01*
X016518Y003408D01*
X016535Y003369D01*
X016549Y003328D01*
X016559Y003286D01*
X016565Y003243D01*
X016567Y003200D01*
X016565Y003157D01*
X016559Y003114D01*
X016549Y003072D01*
X016535Y003031D01*
X016518Y002992D01*
X016497Y002954D01*
X016473Y002919D01*
X016445Y002885D01*
X016415Y002855D01*
X016381Y002827D01*
X016346Y002803D01*
X016308Y002782D01*
X016269Y002765D01*
X016228Y002751D01*
X016186Y002741D01*
X016143Y002735D01*
X016100Y002733D01*
X016057Y002735D01*
X016014Y002741D01*
X015972Y002751D01*
X015931Y002765D01*
X015892Y002782D01*
X015854Y002803D01*
X015819Y002827D01*
X015785Y002855D01*
X015755Y002885D01*
X015727Y002919D01*
X015703Y002954D01*
X015682Y002992D01*
X015665Y003031D01*
X015651Y003072D01*
X015641Y003114D01*
X015635Y003157D01*
X015633Y003200D01*
X015925Y004200D02*
X015927Y004226D01*
X015933Y004252D01*
X015942Y004276D01*
X015955Y004299D01*
X015972Y004319D01*
X015991Y004337D01*
X016013Y004352D01*
X016036Y004363D01*
X016061Y004371D01*
X016087Y004375D01*
X016113Y004375D01*
X016139Y004371D01*
X016164Y004363D01*
X016188Y004352D01*
X016209Y004337D01*
X016228Y004319D01*
X016245Y004299D01*
X016258Y004276D01*
X016267Y004252D01*
X016273Y004226D01*
X016275Y004200D01*
X016273Y004174D01*
X016267Y004148D01*
X016258Y004124D01*
X016245Y004101D01*
X016228Y004081D01*
X016209Y004063D01*
X016187Y004048D01*
X016164Y004037D01*
X016139Y004029D01*
X016113Y004025D01*
X016087Y004025D01*
X016061Y004029D01*
X016036Y004037D01*
X016012Y004048D01*
X015991Y004063D01*
X015972Y004081D01*
X015955Y004101D01*
X015942Y004124D01*
X015933Y004148D01*
X015927Y004174D01*
X015925Y004200D01*
X039470Y001200D02*
X039472Y001250D01*
X039478Y001300D01*
X039488Y001349D01*
X039502Y001397D01*
X039519Y001444D01*
X039540Y001489D01*
X039565Y001533D01*
X039593Y001574D01*
X039625Y001613D01*
X039659Y001650D01*
X039696Y001684D01*
X039736Y001714D01*
X039778Y001741D01*
X039822Y001765D01*
X039868Y001786D01*
X039915Y001802D01*
X039963Y001815D01*
X040013Y001824D01*
X040062Y001829D01*
X040113Y001830D01*
X040163Y001827D01*
X040212Y001820D01*
X040261Y001809D01*
X040309Y001794D01*
X040355Y001776D01*
X040400Y001754D01*
X040443Y001728D01*
X040484Y001699D01*
X040523Y001667D01*
X040559Y001632D01*
X040591Y001594D01*
X040621Y001554D01*
X040648Y001511D01*
X040671Y001467D01*
X040690Y001421D01*
X040706Y001373D01*
X040718Y001324D01*
X040726Y001275D01*
X040730Y001225D01*
X040730Y001175D01*
X040726Y001125D01*
X040718Y001076D01*
X040706Y001027D01*
X040690Y000979D01*
X040671Y000933D01*
X040648Y000889D01*
X040621Y000846D01*
X040591Y000806D01*
X040559Y000768D01*
X040523Y000733D01*
X040484Y000701D01*
X040443Y000672D01*
X040400Y000646D01*
X040355Y000624D01*
X040309Y000606D01*
X040261Y000591D01*
X040212Y000580D01*
X040163Y000573D01*
X040113Y000570D01*
X040062Y000571D01*
X040013Y000576D01*
X039963Y000585D01*
X039915Y000598D01*
X039868Y000614D01*
X039822Y000635D01*
X039778Y000659D01*
X039736Y000686D01*
X039696Y000716D01*
X039659Y000750D01*
X039625Y000787D01*
X039593Y000826D01*
X039565Y000867D01*
X039540Y000911D01*
X039519Y000956D01*
X039502Y001003D01*
X039488Y001051D01*
X039478Y001100D01*
X039472Y001150D01*
X039470Y001200D01*
X003470Y027200D02*
X003472Y027250D01*
X003478Y027300D01*
X003488Y027349D01*
X003502Y027397D01*
X003519Y027444D01*
X003540Y027489D01*
X003565Y027533D01*
X003593Y027574D01*
X003625Y027613D01*
X003659Y027650D01*
X003696Y027684D01*
X003736Y027714D01*
X003778Y027741D01*
X003822Y027765D01*
X003868Y027786D01*
X003915Y027802D01*
X003963Y027815D01*
X004013Y027824D01*
X004062Y027829D01*
X004113Y027830D01*
X004163Y027827D01*
X004212Y027820D01*
X004261Y027809D01*
X004309Y027794D01*
X004355Y027776D01*
X004400Y027754D01*
X004443Y027728D01*
X004484Y027699D01*
X004523Y027667D01*
X004559Y027632D01*
X004591Y027594D01*
X004621Y027554D01*
X004648Y027511D01*
X004671Y027467D01*
X004690Y027421D01*
X004706Y027373D01*
X004718Y027324D01*
X004726Y027275D01*
X004730Y027225D01*
X004730Y027175D01*
X004726Y027125D01*
X004718Y027076D01*
X004706Y027027D01*
X004690Y026979D01*
X004671Y026933D01*
X004648Y026889D01*
X004621Y026846D01*
X004591Y026806D01*
X004559Y026768D01*
X004523Y026733D01*
X004484Y026701D01*
X004443Y026672D01*
X004400Y026646D01*
X004355Y026624D01*
X004309Y026606D01*
X004261Y026591D01*
X004212Y026580D01*
X004163Y026573D01*
X004113Y026570D01*
X004062Y026571D01*
X004013Y026576D01*
X003963Y026585D01*
X003915Y026598D01*
X003868Y026614D01*
X003822Y026635D01*
X003778Y026659D01*
X003736Y026686D01*
X003696Y026716D01*
X003659Y026750D01*
X003625Y026787D01*
X003593Y026826D01*
X003565Y026867D01*
X003540Y026911D01*
X003519Y026956D01*
X003502Y027003D01*
X003488Y027051D01*
X003478Y027100D01*
X003472Y027150D01*
X003470Y027200D01*
D11*
X009580Y013908D02*
X009580Y013601D01*
X009120Y013601D01*
X009120Y013448D02*
X009427Y013448D01*
X009350Y013601D02*
X009350Y013755D01*
X009120Y013448D02*
X009120Y013218D01*
X009197Y013141D01*
X009427Y013141D01*
X009504Y012987D02*
X009197Y012680D01*
X009120Y012757D01*
X009120Y012911D01*
X009197Y012987D01*
X009504Y012987D01*
X009580Y012911D01*
X009580Y012757D01*
X009504Y012680D01*
X009197Y012680D01*
X009120Y012527D02*
X009120Y012220D01*
X009120Y012373D02*
X009580Y012373D01*
X009427Y012220D01*
X014350Y008255D02*
X014350Y008101D01*
X014427Y007948D02*
X014120Y007948D01*
X014120Y007718D01*
X014197Y007641D01*
X014427Y007641D01*
X014504Y007487D02*
X014197Y007487D01*
X014120Y007411D01*
X014120Y007257D01*
X014197Y007180D01*
X014504Y007487D01*
X014580Y007411D01*
X014580Y007257D01*
X014504Y007180D01*
X014197Y007180D01*
X014120Y007027D02*
X014120Y006720D01*
X014120Y006873D02*
X014580Y006873D01*
X014427Y006720D01*
X014580Y008101D02*
X014120Y008101D01*
X014580Y008101D02*
X014580Y008408D01*
X016620Y007260D02*
X017080Y007260D01*
X017080Y007567D01*
X016850Y007413D02*
X016850Y007260D01*
X016850Y007106D02*
X016620Y007106D01*
X016850Y007106D02*
X016927Y007029D01*
X016927Y006799D01*
X016620Y006799D01*
X016697Y006646D02*
X016620Y006569D01*
X016620Y006416D01*
X016697Y006339D01*
X017004Y006646D01*
X016697Y006646D01*
X017004Y006646D02*
X017080Y006569D01*
X017080Y006416D01*
X017004Y006339D01*
X016697Y006339D01*
X016697Y006185D02*
X016620Y006109D01*
X016620Y005955D01*
X016697Y005878D01*
X017004Y006185D01*
X016697Y006185D01*
X016697Y005878D02*
X017004Y005878D01*
X017080Y005955D01*
X017080Y006109D01*
X017004Y006185D01*
X016620Y005725D02*
X016620Y005418D01*
X016620Y005571D02*
X017080Y005571D01*
X016927Y005418D01*
X018620Y005411D02*
X018620Y005257D01*
X018697Y005180D01*
X019004Y005487D01*
X018697Y005487D01*
X018620Y005411D01*
X018697Y005641D02*
X019004Y005948D01*
X018697Y005948D01*
X018620Y005871D01*
X018620Y005718D01*
X018697Y005641D01*
X019004Y005641D01*
X019080Y005718D01*
X019080Y005871D01*
X019004Y005948D01*
X018927Y006101D02*
X018927Y006331D01*
X018850Y006408D01*
X018620Y006408D01*
X018620Y006562D02*
X019080Y006562D01*
X019080Y006868D01*
X018850Y006715D02*
X018850Y006562D01*
X018927Y006101D02*
X018620Y006101D01*
X019004Y005487D02*
X019080Y005411D01*
X019080Y005257D01*
X019004Y005180D01*
X018697Y005180D01*
X018620Y005027D02*
X018620Y004720D01*
X018620Y004873D02*
X019080Y004873D01*
X018927Y004720D01*
X022095Y004695D02*
X022095Y005002D01*
X022095Y004848D02*
X022555Y004848D01*
X022402Y004695D01*
X022479Y005155D02*
X022172Y005155D01*
X022479Y005462D01*
X022172Y005462D01*
X022095Y005386D01*
X022095Y005232D01*
X022172Y005155D01*
X022479Y005155D02*
X022555Y005232D01*
X022555Y005386D01*
X022479Y005462D01*
X022555Y005616D02*
X022095Y005616D01*
X022248Y005616D02*
X022095Y005846D01*
X022248Y005616D02*
X022402Y005846D01*
X032370Y005942D02*
X032600Y005711D01*
X032523Y005635D02*
X032830Y005942D01*
X032830Y005635D02*
X032370Y005635D01*
X032370Y005481D02*
X032370Y005174D01*
X032370Y005328D02*
X032830Y005328D01*
X032677Y005174D01*
X033370Y005174D02*
X033370Y005481D01*
X033370Y005328D02*
X033830Y005328D01*
X033677Y005174D01*
X033830Y005635D02*
X033370Y005635D01*
X033523Y005635D02*
X033830Y005942D01*
X033600Y005711D02*
X033370Y005942D01*
X033370Y007674D02*
X033370Y007981D01*
X033370Y007828D02*
X033830Y007828D01*
X033677Y007674D01*
X033830Y008135D02*
X033370Y008135D01*
X033523Y008135D02*
X033830Y008442D01*
X033600Y008211D02*
X033370Y008442D01*
X032830Y008442D02*
X032523Y008135D01*
X032600Y008211D02*
X032370Y008442D01*
X032370Y008135D02*
X032830Y008135D01*
X032830Y007828D02*
X032370Y007828D01*
X032370Y007981D02*
X032370Y007674D01*
X032677Y007674D02*
X032830Y007828D01*
X034370Y007828D02*
X034830Y007828D01*
X034677Y007674D01*
X034370Y007674D02*
X034370Y007981D01*
X034370Y008135D02*
X034830Y008135D01*
X034600Y008211D02*
X034370Y008442D01*
X034523Y008135D02*
X034830Y008442D01*
X034819Y010970D02*
X035126Y010970D01*
X035126Y011430D01*
X034819Y011430D01*
X034665Y011430D02*
X034665Y010970D01*
X034435Y010970D01*
X034358Y011047D01*
X034358Y011354D01*
X034435Y011430D01*
X034665Y011430D01*
X034586Y011430D02*
X034356Y011430D01*
X034279Y011354D01*
X034279Y011200D01*
X034356Y011123D01*
X034586Y011123D01*
X034586Y010970D02*
X034586Y011430D01*
X034433Y011123D02*
X034279Y010970D01*
X034126Y010970D02*
X034126Y011430D01*
X033819Y011430D01*
X033665Y011430D02*
X033665Y010970D01*
X033435Y010970D01*
X033358Y011047D01*
X033358Y011354D01*
X033435Y011430D01*
X033665Y011430D01*
X033972Y011200D02*
X034126Y011200D01*
X034126Y010970D02*
X033819Y010970D01*
X034972Y011200D02*
X035126Y011200D01*
X035279Y011200D02*
X035356Y011123D01*
X035586Y011123D01*
X035586Y010970D02*
X035586Y011430D01*
X035356Y011430D01*
X035279Y011354D01*
X035279Y011200D01*
X035433Y011123D02*
X035279Y010970D01*
X035358Y011047D02*
X035358Y011354D01*
X035435Y011430D01*
X035665Y011430D01*
X035665Y010970D01*
X035435Y010970D01*
X035358Y011047D01*
X035819Y010970D02*
X036126Y010970D01*
X036126Y011430D01*
X035819Y011430D01*
X035972Y011200D02*
X036126Y011200D01*
X036279Y011200D02*
X036356Y011123D01*
X036586Y011123D01*
X036586Y010970D02*
X036586Y011430D01*
X036356Y011430D01*
X036279Y011354D01*
X036279Y011200D01*
X036433Y011123D02*
X036279Y010970D01*
X011941Y002854D02*
X011941Y002547D01*
X011634Y002854D01*
X011634Y002547D01*
X011711Y002470D01*
X011865Y002470D01*
X011941Y002547D01*
X011941Y002854D02*
X011865Y002930D01*
X011711Y002930D01*
X011634Y002854D01*
X011481Y002547D02*
X011404Y002547D01*
X011404Y002470D01*
X011481Y002470D01*
X011481Y002547D01*
X011251Y002547D02*
X011174Y002470D01*
X011021Y002470D01*
X010944Y002547D01*
X010944Y002700D01*
X011021Y002777D01*
X011097Y002777D01*
X011251Y002700D01*
X011251Y002930D01*
X010944Y002930D01*
X010790Y002777D02*
X010637Y002930D01*
X010483Y002777D01*
X010483Y002470D01*
X010483Y002700D02*
X010790Y002700D01*
X010790Y002777D02*
X010790Y002470D01*
D12*
X012155Y005806D02*
X012155Y006594D01*
X012706Y006594D01*
X012706Y006806D02*
X012155Y006806D01*
X012155Y007594D01*
X012706Y007594D01*
X012706Y007806D02*
X012155Y007806D01*
X012155Y008594D01*
X012706Y008594D01*
X012982Y008436D02*
X013218Y008200D01*
X012982Y007964D01*
X012982Y008436D01*
X013218Y008476D02*
X013218Y008200D01*
X013218Y007924D01*
X013494Y007806D02*
X014045Y007806D01*
X014045Y008594D01*
X013494Y008594D01*
X013494Y007594D02*
X014045Y007594D01*
X014045Y006806D01*
X013494Y006806D01*
X013494Y006594D02*
X014045Y006594D01*
X014045Y005806D01*
X013494Y005806D01*
X013218Y005924D02*
X013218Y006200D01*
X012982Y006436D01*
X012982Y005964D01*
X013218Y006200D01*
X013218Y006476D01*
X013218Y006924D02*
X013218Y007200D01*
X012982Y007436D01*
X012982Y006964D01*
X013218Y007200D01*
X013218Y007476D01*
X012706Y005806D02*
X012155Y005806D01*
X027600Y008594D02*
X027600Y009806D01*
X028112Y010200D02*
X029088Y010200D01*
X029600Y009806D02*
X029600Y008594D01*
X029100Y008200D02*
X028112Y008200D01*
X028100Y009200D02*
X028102Y009244D01*
X028108Y009288D01*
X028118Y009331D01*
X028131Y009373D01*
X028148Y009414D01*
X028169Y009453D01*
X028193Y009490D01*
X028220Y009525D01*
X028250Y009557D01*
X028283Y009587D01*
X028319Y009613D01*
X028356Y009637D01*
X028396Y009656D01*
X028437Y009673D01*
X028480Y009685D01*
X028523Y009694D01*
X028567Y009699D01*
X028611Y009700D01*
X028655Y009697D01*
X028699Y009690D01*
X028742Y009679D01*
X028784Y009665D01*
X028824Y009647D01*
X028863Y009625D01*
X028899Y009601D01*
X028933Y009573D01*
X028965Y009542D01*
X028994Y009508D01*
X029020Y009472D01*
X029042Y009434D01*
X029061Y009394D01*
X029076Y009352D01*
X029088Y009310D01*
X029096Y009266D01*
X029100Y009222D01*
X029100Y009178D01*
X029096Y009134D01*
X029088Y009090D01*
X029076Y009048D01*
X029061Y009006D01*
X029042Y008966D01*
X029020Y008928D01*
X028994Y008892D01*
X028965Y008858D01*
X028933Y008827D01*
X028899Y008799D01*
X028863Y008775D01*
X028824Y008753D01*
X028784Y008735D01*
X028742Y008721D01*
X028699Y008710D01*
X028655Y008703D01*
X028611Y008700D01*
X028567Y008701D01*
X028523Y008706D01*
X028480Y008715D01*
X028437Y008727D01*
X028396Y008744D01*
X028356Y008763D01*
X028319Y008787D01*
X028283Y008813D01*
X028250Y008843D01*
X028220Y008875D01*
X028193Y008910D01*
X028169Y008947D01*
X028148Y008986D01*
X028131Y009027D01*
X028118Y009069D01*
X028108Y009112D01*
X028102Y009156D01*
X028100Y009200D01*
X032206Y010255D02*
X032206Y010806D01*
X032364Y011082D02*
X032600Y011318D01*
X032836Y011082D01*
X032364Y011082D01*
X032324Y011318D02*
X032600Y011318D01*
X032876Y011318D01*
X032994Y011594D02*
X032994Y012145D01*
X032206Y012145D01*
X032206Y011594D01*
X033206Y011594D02*
X033206Y012145D01*
X033994Y012145D01*
X033994Y011594D01*
X034206Y011594D02*
X034206Y012145D01*
X034994Y012145D01*
X034994Y011594D01*
X034876Y011318D02*
X034600Y011318D01*
X034364Y011082D01*
X034836Y011082D01*
X034600Y011318D01*
X034324Y011318D01*
X033876Y011318D02*
X033600Y011318D01*
X033364Y011082D01*
X033836Y011082D01*
X033600Y011318D01*
X033324Y011318D01*
X033206Y010806D02*
X033206Y010255D01*
X033994Y010255D01*
X033994Y010806D01*
X034206Y010806D02*
X034206Y010255D01*
X034994Y010255D01*
X034994Y010806D01*
X032994Y010806D02*
X032994Y010255D01*
X032206Y010255D01*
D13*
X027980Y009420D02*
X027955Y009420D01*
X027905Y009420D02*
X027805Y009420D01*
X027805Y009395D02*
X027805Y009445D01*
X027830Y009493D02*
X027805Y009518D01*
X027805Y009593D01*
X027780Y009593D02*
X027905Y009593D01*
X027905Y009518D01*
X027880Y009493D01*
X027830Y009493D01*
X027755Y009543D02*
X027755Y009568D01*
X027780Y009593D01*
X027830Y009641D02*
X027805Y009666D01*
X027805Y009741D01*
X027905Y009741D01*
X027905Y009788D02*
X027805Y009788D01*
X027855Y009788D02*
X027905Y009838D01*
X027905Y009863D01*
X027880Y009911D02*
X027905Y009936D01*
X027905Y009986D01*
X027880Y010011D01*
X027855Y010011D01*
X027855Y009911D01*
X027830Y009911D02*
X027880Y009911D01*
X027830Y009911D02*
X027805Y009936D01*
X027805Y009986D01*
X027830Y009641D02*
X027905Y009641D01*
X027905Y009420D02*
X027905Y009395D01*
X027880Y009347D02*
X027880Y009297D01*
X027880Y009250D02*
X027805Y009250D01*
X027805Y009322D02*
X027930Y009322D01*
X027955Y009347D01*
X027880Y009250D02*
X027905Y009225D01*
X027905Y009150D01*
X027805Y009150D01*
X027830Y009102D02*
X027880Y009102D01*
X027905Y009077D01*
X027905Y009027D01*
X027880Y009002D01*
X027830Y009002D01*
X027805Y009027D01*
X027805Y009077D01*
X027830Y009102D01*
X027830Y008955D02*
X027805Y008930D01*
X027805Y008880D01*
X027830Y008855D01*
X027930Y008855D01*
X027955Y008880D01*
X027955Y008930D01*
X027930Y008955D01*
X014168Y008845D02*
X014118Y008895D01*
X014118Y008745D01*
X014168Y008745D02*
X014068Y008745D01*
X014021Y008745D02*
X014021Y008895D01*
X013921Y008745D01*
X013921Y008895D01*
X013874Y008895D02*
X013874Y008820D01*
X013824Y008845D01*
X013799Y008845D01*
X013774Y008820D01*
X013774Y008770D01*
X013799Y008745D01*
X013849Y008745D01*
X013874Y008770D01*
X013874Y008895D02*
X013774Y008895D01*
X013726Y008870D02*
X013726Y008845D01*
X013701Y008820D01*
X013651Y008820D01*
X013626Y008795D01*
X013626Y008770D01*
X013651Y008745D01*
X013701Y008745D01*
X013726Y008770D01*
X013726Y008795D01*
X013701Y008820D01*
X013651Y008820D02*
X013626Y008845D01*
X013626Y008870D01*
X013651Y008895D01*
X013701Y008895D01*
X013726Y008870D01*
X013579Y008845D02*
X013529Y008895D01*
X013529Y008745D01*
X013579Y008745D02*
X013479Y008745D01*
X013432Y008745D02*
X013357Y008745D01*
X013332Y008770D01*
X013332Y008870D01*
X013357Y008895D01*
X013432Y008895D01*
X013432Y008745D01*
X013284Y008745D02*
X013184Y008745D01*
X013137Y008745D02*
X013037Y008845D01*
X013037Y008870D01*
X013062Y008895D01*
X013112Y008895D01*
X013137Y008870D01*
X013234Y008895D02*
X013234Y008745D01*
X013137Y008745D02*
X013037Y008745D01*
X012990Y008770D02*
X012890Y008870D01*
X012890Y008770D01*
X012915Y008745D01*
X012965Y008745D01*
X012990Y008770D01*
X012990Y008870D01*
X012965Y008895D01*
X012915Y008895D01*
X012890Y008870D01*
X012842Y008820D02*
X012792Y008870D01*
X012742Y008895D01*
X012767Y008820D02*
X012842Y008820D01*
X012842Y008770D01*
X012817Y008745D01*
X012767Y008745D01*
X012742Y008770D01*
X012742Y008795D01*
X012767Y008820D01*
X013234Y008895D02*
X013284Y008845D01*
X013234Y007895D02*
X013234Y007745D01*
X013284Y007745D02*
X013184Y007745D01*
X013137Y007745D02*
X013037Y007845D01*
X013037Y007870D01*
X013062Y007895D01*
X013112Y007895D01*
X013137Y007870D01*
X013234Y007895D02*
X013284Y007845D01*
X013332Y007870D02*
X013357Y007895D01*
X013432Y007895D01*
X013432Y007745D01*
X013357Y007745D01*
X013332Y007770D01*
X013332Y007870D01*
X013479Y007745D02*
X013579Y007745D01*
X013529Y007745D02*
X013529Y007895D01*
X013579Y007845D01*
X013626Y007845D02*
X013651Y007820D01*
X013701Y007820D01*
X013726Y007845D01*
X013726Y007870D01*
X013701Y007895D01*
X013651Y007895D01*
X013626Y007870D01*
X013626Y007845D01*
X013651Y007820D02*
X013626Y007795D01*
X013626Y007770D01*
X013651Y007745D01*
X013701Y007745D01*
X013726Y007770D01*
X013726Y007795D01*
X013701Y007820D01*
X013774Y007820D02*
X013774Y007770D01*
X013799Y007745D01*
X013849Y007745D01*
X013874Y007770D01*
X013874Y007820D02*
X013824Y007845D01*
X013799Y007845D01*
X013774Y007820D01*
X013774Y007895D02*
X013874Y007895D01*
X013874Y007820D01*
X013921Y007745D02*
X013921Y007895D01*
X014021Y007895D02*
X013921Y007745D01*
X014021Y007745D02*
X014021Y007895D01*
X014118Y007895D02*
X014118Y007745D01*
X014168Y007745D02*
X014068Y007745D01*
X014168Y007845D02*
X014118Y007895D01*
X013137Y007745D02*
X013037Y007745D01*
X012990Y007770D02*
X012890Y007870D01*
X012890Y007770D01*
X012915Y007745D01*
X012965Y007745D01*
X012990Y007770D01*
X012990Y007870D01*
X012965Y007895D01*
X012915Y007895D01*
X012890Y007870D01*
X012842Y007820D02*
X012767Y007820D01*
X012742Y007795D01*
X012742Y007770D01*
X012767Y007745D01*
X012817Y007745D01*
X012842Y007770D01*
X012842Y007820D01*
X012792Y007870D01*
X012742Y007895D01*
X012742Y006895D02*
X012792Y006870D01*
X012842Y006820D01*
X012767Y006820D01*
X012742Y006795D01*
X012742Y006770D01*
X012767Y006745D01*
X012817Y006745D01*
X012842Y006770D01*
X012842Y006820D01*
X012890Y006770D02*
X012915Y006745D01*
X012965Y006745D01*
X012990Y006770D01*
X012890Y006870D01*
X012890Y006770D01*
X012990Y006770D02*
X012990Y006870D01*
X012965Y006895D01*
X012915Y006895D01*
X012890Y006870D01*
X013037Y006870D02*
X013062Y006895D01*
X013112Y006895D01*
X013137Y006870D01*
X013037Y006870D02*
X013037Y006845D01*
X013137Y006745D01*
X013037Y006745D01*
X013184Y006745D02*
X013284Y006745D01*
X013234Y006745D02*
X013234Y006895D01*
X013284Y006845D01*
X013332Y006870D02*
X013357Y006895D01*
X013432Y006895D01*
X013432Y006745D01*
X013357Y006745D01*
X013332Y006770D01*
X013332Y006870D01*
X013479Y006745D02*
X013579Y006745D01*
X013529Y006745D02*
X013529Y006895D01*
X013579Y006845D01*
X013626Y006845D02*
X013651Y006820D01*
X013701Y006820D01*
X013726Y006845D01*
X013726Y006870D01*
X013701Y006895D01*
X013651Y006895D01*
X013626Y006870D01*
X013626Y006845D01*
X013651Y006820D02*
X013626Y006795D01*
X013626Y006770D01*
X013651Y006745D01*
X013701Y006745D01*
X013726Y006770D01*
X013726Y006795D01*
X013701Y006820D01*
X013774Y006820D02*
X013774Y006770D01*
X013799Y006745D01*
X013849Y006745D01*
X013874Y006770D01*
X013874Y006820D02*
X013824Y006845D01*
X013799Y006845D01*
X013774Y006820D01*
X013774Y006895D02*
X013874Y006895D01*
X013874Y006820D01*
X013921Y006745D02*
X013921Y006895D01*
X014021Y006895D02*
X013921Y006745D01*
X014021Y006745D02*
X014021Y006895D01*
X014118Y006895D02*
X014118Y006745D01*
X014168Y006745D02*
X014068Y006745D01*
X014168Y006845D02*
X014118Y006895D01*
M02*
