G75*
%MOIN*%
%OFA0B0*%
%FSLAX24Y24*%
%IPPOS*%
%LPD*%
%AMOC8*
5,1,8,0,0,1.08239X$1,22.5*
%
%ADD10C,0.0000*%
%ADD11C,0.0040*%
%ADD12C,0.0080*%
%ADD13C,0.0010*%
%ADD14C,0.0030*%
%ADD15R,0.0059X0.0118*%
%ADD16R,0.0118X0.0118*%
D10*
X003100Y002310D02*
X003100Y020606D01*
X040670Y020606D01*
X040670Y002310D01*
X003100Y002310D01*
X004923Y008044D02*
X004925Y008070D01*
X004931Y008096D01*
X004941Y008121D01*
X004954Y008144D01*
X004970Y008164D01*
X004990Y008182D01*
X005012Y008197D01*
X005035Y008209D01*
X005061Y008217D01*
X005087Y008221D01*
X005113Y008221D01*
X005139Y008217D01*
X005165Y008209D01*
X005189Y008197D01*
X005210Y008182D01*
X005230Y008164D01*
X005246Y008144D01*
X005259Y008121D01*
X005269Y008096D01*
X005275Y008070D01*
X005277Y008044D01*
X005275Y008018D01*
X005269Y007992D01*
X005259Y007967D01*
X005246Y007944D01*
X005230Y007924D01*
X005210Y007906D01*
X005188Y007891D01*
X005165Y007879D01*
X005139Y007871D01*
X005113Y007867D01*
X005087Y007867D01*
X005061Y007871D01*
X005035Y007879D01*
X005011Y007891D01*
X004990Y007906D01*
X004970Y007924D01*
X004954Y007944D01*
X004941Y007967D01*
X004931Y007992D01*
X004925Y008018D01*
X004923Y008044D01*
X004923Y009776D02*
X004925Y009802D01*
X004931Y009828D01*
X004941Y009853D01*
X004954Y009876D01*
X004970Y009896D01*
X004990Y009914D01*
X005012Y009929D01*
X005035Y009941D01*
X005061Y009949D01*
X005087Y009953D01*
X005113Y009953D01*
X005139Y009949D01*
X005165Y009941D01*
X005189Y009929D01*
X005210Y009914D01*
X005230Y009896D01*
X005246Y009876D01*
X005259Y009853D01*
X005269Y009828D01*
X005275Y009802D01*
X005277Y009776D01*
X005275Y009750D01*
X005269Y009724D01*
X005259Y009699D01*
X005246Y009676D01*
X005230Y009656D01*
X005210Y009638D01*
X005188Y009623D01*
X005165Y009611D01*
X005139Y009603D01*
X005113Y009599D01*
X005087Y009599D01*
X005061Y009603D01*
X005035Y009611D01*
X005011Y009623D01*
X004990Y009638D01*
X004970Y009656D01*
X004954Y009676D01*
X004941Y009699D01*
X004931Y009724D01*
X004925Y009750D01*
X004923Y009776D01*
X012982Y011910D02*
X012984Y011931D01*
X012990Y011951D01*
X012999Y011971D01*
X013011Y011988D01*
X013026Y012002D01*
X013044Y012014D01*
X013064Y012022D01*
X013084Y012027D01*
X013105Y012028D01*
X013126Y012025D01*
X013146Y012019D01*
X013165Y012008D01*
X013182Y011995D01*
X013195Y011979D01*
X013206Y011961D01*
X013214Y011941D01*
X013218Y011921D01*
X013218Y011899D01*
X013214Y011879D01*
X013206Y011859D01*
X013195Y011841D01*
X013182Y011825D01*
X013165Y011812D01*
X013146Y011801D01*
X013126Y011795D01*
X013105Y011792D01*
X013084Y011793D01*
X013064Y011798D01*
X013044Y011806D01*
X013026Y011818D01*
X013011Y011832D01*
X012999Y011849D01*
X012990Y011869D01*
X012984Y011889D01*
X012982Y011910D01*
X013425Y004810D02*
X013427Y004836D01*
X013433Y004862D01*
X013442Y004886D01*
X013455Y004909D01*
X013472Y004929D01*
X013491Y004947D01*
X013513Y004962D01*
X013536Y004973D01*
X013561Y004981D01*
X013587Y004985D01*
X013613Y004985D01*
X013639Y004981D01*
X013664Y004973D01*
X013688Y004962D01*
X013709Y004947D01*
X013728Y004929D01*
X013745Y004909D01*
X013758Y004886D01*
X013767Y004862D01*
X013773Y004836D01*
X013775Y004810D01*
X013773Y004784D01*
X013767Y004758D01*
X013758Y004734D01*
X013745Y004711D01*
X013728Y004691D01*
X013709Y004673D01*
X013687Y004658D01*
X013664Y004647D01*
X013639Y004639D01*
X013613Y004635D01*
X013587Y004635D01*
X013561Y004639D01*
X013536Y004647D01*
X013512Y004658D01*
X013491Y004673D01*
X013472Y004691D01*
X013455Y004711D01*
X013442Y004734D01*
X013433Y004758D01*
X013427Y004784D01*
X013425Y004810D01*
X013425Y004010D02*
X013427Y004036D01*
X013433Y004062D01*
X013442Y004086D01*
X013455Y004109D01*
X013472Y004129D01*
X013491Y004147D01*
X013513Y004162D01*
X013536Y004173D01*
X013561Y004181D01*
X013587Y004185D01*
X013613Y004185D01*
X013639Y004181D01*
X013664Y004173D01*
X013688Y004162D01*
X013709Y004147D01*
X013728Y004129D01*
X013745Y004109D01*
X013758Y004086D01*
X013767Y004062D01*
X013773Y004036D01*
X013775Y004010D01*
X013773Y003984D01*
X013767Y003958D01*
X013758Y003934D01*
X013745Y003911D01*
X013728Y003891D01*
X013709Y003873D01*
X013687Y003858D01*
X013664Y003847D01*
X013639Y003839D01*
X013613Y003835D01*
X013587Y003835D01*
X013561Y003839D01*
X013536Y003847D01*
X013512Y003858D01*
X013491Y003873D01*
X013472Y003891D01*
X013455Y003911D01*
X013442Y003934D01*
X013433Y003958D01*
X013427Y003984D01*
X013425Y004010D01*
X015425Y004410D02*
X015427Y004436D01*
X015433Y004462D01*
X015442Y004486D01*
X015455Y004509D01*
X015472Y004529D01*
X015491Y004547D01*
X015513Y004562D01*
X015536Y004573D01*
X015561Y004581D01*
X015587Y004585D01*
X015613Y004585D01*
X015639Y004581D01*
X015664Y004573D01*
X015688Y004562D01*
X015709Y004547D01*
X015728Y004529D01*
X015745Y004509D01*
X015758Y004486D01*
X015767Y004462D01*
X015773Y004436D01*
X015775Y004410D01*
X015773Y004384D01*
X015767Y004358D01*
X015758Y004334D01*
X015745Y004311D01*
X015728Y004291D01*
X015709Y004273D01*
X015687Y004258D01*
X015664Y004247D01*
X015639Y004239D01*
X015613Y004235D01*
X015587Y004235D01*
X015561Y004239D01*
X015536Y004247D01*
X015512Y004258D01*
X015491Y004273D01*
X015472Y004291D01*
X015455Y004311D01*
X015442Y004334D01*
X015433Y004358D01*
X015427Y004384D01*
X015425Y004410D01*
D11*
X012080Y004470D02*
X012080Y004777D01*
X011850Y004623D02*
X011850Y004470D01*
X011850Y004316D02*
X011620Y004316D01*
X011620Y004470D02*
X012080Y004470D01*
X011927Y004240D02*
X011850Y004316D01*
X011927Y004240D02*
X011927Y004009D01*
X011620Y004009D01*
X011697Y003856D02*
X011620Y003779D01*
X011620Y003626D01*
X011697Y003549D01*
X012004Y003856D01*
X011697Y003856D01*
X012004Y003856D02*
X012080Y003779D01*
X012080Y003626D01*
X012004Y003549D01*
X011697Y003549D01*
X011697Y003396D02*
X011620Y003319D01*
X011620Y003165D01*
X011697Y003089D01*
X012004Y003396D01*
X011697Y003396D01*
X012004Y003396D02*
X012080Y003319D01*
X012080Y003165D01*
X012004Y003089D01*
X011697Y003089D01*
X011620Y002935D02*
X011620Y002628D01*
X011620Y002782D02*
X012080Y002782D01*
X011927Y002628D01*
X009677Y005430D02*
X009830Y005584D01*
X009370Y005584D01*
X009370Y005737D02*
X009370Y005430D01*
X009447Y005891D02*
X009754Y006198D01*
X009447Y006198D01*
X009370Y006121D01*
X009370Y005967D01*
X009447Y005891D01*
X009754Y005891D01*
X009830Y005967D01*
X009830Y006121D01*
X009754Y006198D01*
X009677Y006351D02*
X009447Y006351D01*
X009370Y006428D01*
X009370Y006658D01*
X009677Y006658D01*
X009600Y006811D02*
X009600Y006965D01*
X009370Y006811D02*
X009830Y006811D01*
X009830Y007118D01*
X008927Y008430D02*
X009080Y008584D01*
X008620Y008584D01*
X008620Y008737D02*
X008620Y008430D01*
X008697Y008891D02*
X008620Y008967D01*
X008620Y009121D01*
X008697Y009198D01*
X009004Y009198D01*
X008697Y008891D01*
X009004Y008891D01*
X009080Y008967D01*
X009080Y009121D01*
X009004Y009198D01*
X008927Y009351D02*
X008697Y009351D01*
X008620Y009428D01*
X008620Y009658D01*
X008927Y009658D01*
X008850Y009811D02*
X008850Y009965D01*
X008620Y009811D02*
X009080Y009811D01*
X009080Y010118D01*
X021120Y005772D02*
X021580Y005772D01*
X021580Y006079D01*
X021350Y005925D02*
X021350Y005772D01*
X021350Y005618D02*
X021120Y005618D01*
X021350Y005618D02*
X021427Y005542D01*
X021427Y005311D01*
X021120Y005311D01*
X021197Y005158D02*
X021120Y005081D01*
X021120Y004928D01*
X021197Y004851D01*
X021504Y005158D01*
X021197Y005158D01*
X021095Y005056D02*
X021248Y004826D01*
X021402Y005056D01*
X021504Y005158D02*
X021580Y005081D01*
X021580Y004928D01*
X021504Y004851D01*
X021197Y004851D01*
X021095Y004826D02*
X021555Y004826D01*
X021504Y004698D02*
X021197Y004391D01*
X021120Y004467D01*
X021120Y004621D01*
X021197Y004698D01*
X021504Y004698D01*
X021580Y004621D01*
X021580Y004467D01*
X021504Y004391D01*
X021197Y004391D01*
X021172Y004366D02*
X021479Y004673D01*
X021172Y004673D01*
X021095Y004596D01*
X021095Y004442D01*
X021172Y004366D01*
X021479Y004366D01*
X021555Y004442D01*
X021555Y004596D01*
X021479Y004673D01*
X021120Y004237D02*
X021120Y003930D01*
X021095Y003905D02*
X021095Y004212D01*
X021120Y004084D02*
X021580Y004084D01*
X021427Y003930D01*
X021402Y003905D02*
X021555Y004059D01*
X021095Y004059D01*
X034608Y003891D02*
X034915Y003584D01*
X034839Y003660D02*
X034608Y003430D01*
X034915Y003430D02*
X034915Y003891D01*
X035222Y003891D02*
X035222Y003430D01*
X035069Y003430D02*
X035376Y003430D01*
X035376Y003737D02*
X035222Y003891D01*
X035222Y004430D02*
X035222Y004891D01*
X035376Y004737D01*
X035376Y004430D02*
X035069Y004430D01*
X034915Y004430D02*
X034915Y004891D01*
X034839Y004660D02*
X034608Y004430D01*
X034915Y004584D02*
X034608Y004891D01*
X034620Y006384D02*
X034620Y006691D01*
X034620Y006538D02*
X035080Y006538D01*
X034927Y006384D01*
X035620Y006384D02*
X035620Y006691D01*
X035620Y006538D02*
X036080Y006538D01*
X035927Y006384D01*
X036620Y006384D02*
X036620Y006691D01*
X036620Y006538D02*
X037080Y006538D01*
X036927Y006384D01*
X037080Y006845D02*
X036620Y006845D01*
X036773Y006845D02*
X037080Y007152D01*
X036850Y006922D02*
X036620Y007152D01*
X036080Y007152D02*
X035773Y006845D01*
X035850Y006922D02*
X035620Y007152D01*
X035620Y006845D02*
X036080Y006845D01*
X035080Y006845D02*
X034620Y006845D01*
X034773Y006845D02*
X035080Y007152D01*
X034850Y006922D02*
X034620Y007152D01*
X034620Y010555D02*
X035080Y010555D01*
X035080Y010785D01*
X035004Y010862D01*
X034850Y010862D01*
X034773Y010785D01*
X034773Y010555D01*
X034773Y010709D02*
X034620Y010862D01*
X034620Y011016D02*
X034620Y011323D01*
X034620Y011476D02*
X034620Y011706D01*
X034697Y011783D01*
X035004Y011783D01*
X035080Y011706D01*
X035080Y011476D01*
X034620Y011476D01*
X034850Y011169D02*
X034850Y011016D01*
X035080Y011016D02*
X034620Y011016D01*
X035080Y011016D02*
X035080Y011323D01*
X035620Y011323D02*
X035620Y011016D01*
X036080Y011016D01*
X036080Y011323D01*
X036080Y011476D02*
X036080Y011706D01*
X036004Y011783D01*
X035697Y011783D01*
X035620Y011706D01*
X035620Y011476D01*
X036080Y011476D01*
X035850Y011169D02*
X035850Y011016D01*
X035850Y010862D02*
X035773Y010785D01*
X035773Y010555D01*
X035620Y010555D02*
X036080Y010555D01*
X036080Y010785D01*
X036004Y010862D01*
X035850Y010862D01*
X035773Y010709D02*
X035620Y010862D01*
X036620Y010862D02*
X036773Y010709D01*
X036773Y010785D02*
X036773Y010555D01*
X036620Y010555D02*
X037080Y010555D01*
X037080Y010785D01*
X037004Y010862D01*
X036850Y010862D01*
X036773Y010785D01*
X036850Y011016D02*
X036850Y011169D01*
X036620Y011016D02*
X036620Y011323D01*
X036620Y011476D02*
X036620Y011706D01*
X036697Y011783D01*
X037004Y011783D01*
X037080Y011706D01*
X037080Y011476D01*
X036620Y011476D01*
X036620Y011016D02*
X037080Y011016D01*
X037080Y011323D01*
X037001Y015930D02*
X037001Y016237D01*
X036771Y016237D01*
X036694Y016160D01*
X036694Y015930D01*
X036540Y015930D02*
X036540Y016391D01*
X036233Y016391D01*
X036387Y016160D02*
X036540Y016160D01*
X037154Y016007D02*
X037231Y015930D01*
X037384Y015930D01*
X037461Y016007D01*
X037154Y016314D01*
X037154Y016007D01*
X037154Y016314D02*
X037231Y016391D01*
X037384Y016391D01*
X037461Y016314D01*
X037461Y016007D01*
X037615Y016007D02*
X037615Y016314D01*
X037922Y016007D01*
X037845Y015930D01*
X037691Y015930D01*
X037615Y016007D01*
X037922Y016007D02*
X037922Y016314D01*
X037845Y016391D01*
X037691Y016391D01*
X037615Y016314D01*
X038075Y015930D02*
X038382Y015930D01*
X038229Y015930D02*
X038229Y016391D01*
X038382Y016237D01*
X037922Y016930D02*
X037615Y016930D01*
X037768Y016930D02*
X037768Y017391D01*
X037922Y017237D01*
X037461Y017314D02*
X037384Y017391D01*
X037231Y017391D01*
X037154Y017314D01*
X037461Y017007D01*
X037384Y016930D01*
X037231Y016930D01*
X037154Y017007D01*
X037154Y017314D01*
X037001Y017237D02*
X037001Y017007D01*
X036924Y016930D01*
X036694Y016930D01*
X036694Y017237D01*
X036540Y017160D02*
X036387Y017160D01*
X036540Y016930D02*
X036540Y017391D01*
X036233Y017391D01*
X036540Y017930D02*
X036540Y018391D01*
X036233Y018391D01*
X036387Y018160D02*
X036540Y018160D01*
X036694Y018160D02*
X036694Y017930D01*
X036694Y018160D02*
X036771Y018237D01*
X037001Y018237D01*
X037001Y017930D01*
X037154Y018007D02*
X037231Y017930D01*
X037384Y017930D01*
X037461Y018007D01*
X037154Y018314D01*
X037154Y018007D01*
X037154Y018314D02*
X037231Y018391D01*
X037384Y018391D01*
X037461Y018314D01*
X037461Y018007D01*
X037615Y018007D02*
X037691Y017930D01*
X037845Y017930D01*
X037922Y018007D01*
X037615Y018314D01*
X037615Y018007D01*
X037922Y018007D02*
X037922Y018314D01*
X037845Y018391D01*
X037691Y018391D01*
X037615Y018314D01*
X038075Y017930D02*
X038382Y017930D01*
X038229Y017930D02*
X038229Y018391D01*
X038382Y018237D01*
X037461Y017314D02*
X037461Y017007D01*
X029382Y017430D02*
X029075Y017430D01*
X029229Y017430D02*
X029229Y017891D01*
X029382Y017737D01*
X028922Y017814D02*
X028845Y017891D01*
X028691Y017891D01*
X028615Y017814D01*
X028922Y017507D01*
X028845Y017430D01*
X028691Y017430D01*
X028615Y017507D01*
X028615Y017814D01*
X028461Y017814D02*
X028384Y017891D01*
X028231Y017891D01*
X028154Y017814D01*
X028461Y017507D01*
X028384Y017430D01*
X028231Y017430D01*
X028154Y017507D01*
X028154Y017814D01*
X028001Y017737D02*
X027771Y017737D01*
X027694Y017660D01*
X027694Y017430D01*
X027540Y017430D02*
X027540Y017891D01*
X027233Y017891D01*
X027387Y017660D02*
X027540Y017660D01*
X028001Y017737D02*
X028001Y017430D01*
X028461Y017507D02*
X028461Y017814D01*
X028922Y017814D02*
X028922Y017507D01*
X028845Y016391D02*
X028922Y016314D01*
X028845Y016391D02*
X028691Y016391D01*
X028615Y016314D01*
X028615Y016237D01*
X028922Y015930D01*
X028615Y015930D01*
X028461Y016007D02*
X028154Y016314D01*
X028154Y016007D01*
X028231Y015930D01*
X028384Y015930D01*
X028461Y016007D01*
X028461Y016314D01*
X028384Y016391D01*
X028231Y016391D01*
X028154Y016314D01*
X028001Y016237D02*
X027771Y016237D01*
X027694Y016160D01*
X027694Y015930D01*
X027540Y015930D02*
X027540Y016391D01*
X027233Y016391D01*
X027387Y016160D02*
X027540Y016160D01*
X028001Y016237D02*
X028001Y015930D01*
X029075Y015930D02*
X029382Y015930D01*
X029075Y016237D01*
X029075Y016314D01*
X029152Y016391D01*
X029305Y016391D01*
X029382Y016314D01*
D12*
X024100Y018520D02*
X023990Y018410D01*
X024100Y018520D02*
X024100Y018910D01*
X024100Y019300D01*
X023990Y019410D01*
X024000Y018910D02*
X024100Y018910D01*
X023250Y018910D02*
X022950Y018910D01*
X022200Y018910D02*
X022100Y018910D01*
X022100Y019300D01*
X022210Y019410D01*
X022100Y018910D02*
X022100Y018520D01*
X022210Y018410D01*
X008545Y005804D02*
X007994Y005804D01*
X007718Y005686D02*
X007718Y005410D01*
X007482Y005646D01*
X007482Y005174D01*
X007718Y005410D01*
X007718Y005135D01*
X007994Y005017D02*
X008545Y005017D01*
X008545Y005804D01*
X008545Y004804D02*
X007994Y004804D01*
X007718Y004686D02*
X007718Y004410D01*
X007482Y004646D01*
X007482Y004174D01*
X007718Y004410D01*
X007718Y004135D01*
X007994Y004017D02*
X008545Y004017D01*
X008545Y004804D01*
X008545Y003804D02*
X007994Y003804D01*
X007718Y003686D02*
X007718Y003410D01*
X007482Y003646D01*
X007482Y003174D01*
X007718Y003410D01*
X007718Y003135D01*
X007994Y003017D02*
X008545Y003017D01*
X008545Y003804D01*
X007206Y003804D02*
X006655Y003804D01*
X006655Y003017D01*
X007206Y003017D01*
X007206Y004017D02*
X006655Y004017D01*
X006655Y004804D01*
X007206Y004804D01*
X007206Y005017D02*
X006655Y005017D01*
X006655Y005804D01*
X007206Y005804D01*
D13*
X007267Y005955D02*
X007242Y005980D01*
X007242Y006005D01*
X007267Y006030D01*
X007342Y006030D01*
X007342Y005980D01*
X007317Y005955D01*
X007267Y005955D01*
X007342Y006030D02*
X007292Y006080D01*
X007242Y006105D01*
X007390Y006080D02*
X007490Y005980D01*
X007465Y005955D01*
X007415Y005955D01*
X007390Y005980D01*
X007390Y006080D01*
X007415Y006105D01*
X007465Y006105D01*
X007490Y006080D01*
X007490Y005980D01*
X007537Y005955D02*
X007637Y005955D01*
X007537Y006055D01*
X007537Y006080D01*
X007562Y006105D01*
X007612Y006105D01*
X007637Y006080D01*
X007734Y006105D02*
X007734Y005955D01*
X007784Y005955D02*
X007684Y005955D01*
X007784Y006055D02*
X007734Y006105D01*
X007832Y006080D02*
X007857Y006105D01*
X007932Y006105D01*
X007932Y005955D01*
X007857Y005955D01*
X007832Y005980D01*
X007832Y006080D01*
X007979Y005955D02*
X008079Y005955D01*
X008029Y005955D02*
X008029Y006105D01*
X008079Y006055D01*
X008126Y006055D02*
X008151Y006030D01*
X008201Y006030D01*
X008226Y006055D01*
X008226Y006080D01*
X008201Y006105D01*
X008151Y006105D01*
X008126Y006080D01*
X008126Y006055D01*
X008151Y006030D02*
X008126Y006005D01*
X008126Y005980D01*
X008151Y005955D01*
X008201Y005955D01*
X008226Y005980D01*
X008226Y006005D01*
X008201Y006030D01*
X008274Y006030D02*
X008274Y005980D01*
X008299Y005955D01*
X008349Y005955D01*
X008374Y005980D01*
X008374Y006030D02*
X008324Y006055D01*
X008299Y006055D01*
X008274Y006030D01*
X008274Y006105D02*
X008374Y006105D01*
X008374Y006030D01*
X008421Y005955D02*
X008421Y006105D01*
X008521Y006105D02*
X008421Y005955D01*
X008521Y005955D02*
X008521Y006105D01*
X008618Y006105D02*
X008618Y005955D01*
X008668Y005955D02*
X008568Y005955D01*
X008668Y006055D02*
X008618Y006105D01*
X008618Y005105D02*
X008618Y004955D01*
X008668Y004955D02*
X008568Y004955D01*
X008521Y004955D02*
X008521Y005105D01*
X008421Y004955D01*
X008421Y005105D01*
X008374Y005105D02*
X008374Y005030D01*
X008324Y005055D01*
X008299Y005055D01*
X008274Y005030D01*
X008274Y004980D01*
X008299Y004955D01*
X008349Y004955D01*
X008374Y004980D01*
X008374Y005105D02*
X008274Y005105D01*
X008226Y005080D02*
X008226Y005055D01*
X008201Y005030D01*
X008151Y005030D01*
X008126Y005005D01*
X008126Y004980D01*
X008151Y004955D01*
X008201Y004955D01*
X008226Y004980D01*
X008226Y005005D01*
X008201Y005030D01*
X008151Y005030D02*
X008126Y005055D01*
X008126Y005080D01*
X008151Y005105D01*
X008201Y005105D01*
X008226Y005080D01*
X008079Y005055D02*
X008029Y005105D01*
X008029Y004955D01*
X008079Y004955D02*
X007979Y004955D01*
X007932Y004955D02*
X007857Y004955D01*
X007832Y004980D01*
X007832Y005080D01*
X007857Y005105D01*
X007932Y005105D01*
X007932Y004955D01*
X007784Y004955D02*
X007684Y004955D01*
X007637Y004955D02*
X007537Y005055D01*
X007537Y005080D01*
X007562Y005105D01*
X007612Y005105D01*
X007637Y005080D01*
X007734Y005105D02*
X007734Y004955D01*
X007637Y004955D02*
X007537Y004955D01*
X007490Y004980D02*
X007390Y005080D01*
X007390Y004980D01*
X007415Y004955D01*
X007465Y004955D01*
X007490Y004980D01*
X007490Y005080D01*
X007465Y005105D01*
X007415Y005105D01*
X007390Y005080D01*
X007342Y005030D02*
X007292Y005080D01*
X007242Y005105D01*
X007267Y005030D02*
X007342Y005030D01*
X007342Y004980D01*
X007317Y004955D01*
X007267Y004955D01*
X007242Y004980D01*
X007242Y005005D01*
X007267Y005030D01*
X007734Y005105D02*
X007784Y005055D01*
X008618Y005105D02*
X008668Y005055D01*
X008618Y004105D02*
X008618Y003955D01*
X008668Y003955D02*
X008568Y003955D01*
X008521Y003955D02*
X008521Y004105D01*
X008421Y003955D01*
X008421Y004105D01*
X008374Y004105D02*
X008374Y004030D01*
X008324Y004055D01*
X008299Y004055D01*
X008274Y004030D01*
X008274Y003980D01*
X008299Y003955D01*
X008349Y003955D01*
X008374Y003980D01*
X008374Y004105D02*
X008274Y004105D01*
X008226Y004080D02*
X008226Y004055D01*
X008201Y004030D01*
X008151Y004030D01*
X008126Y004005D01*
X008126Y003980D01*
X008151Y003955D01*
X008201Y003955D01*
X008226Y003980D01*
X008226Y004005D01*
X008201Y004030D01*
X008151Y004030D02*
X008126Y004055D01*
X008126Y004080D01*
X008151Y004105D01*
X008201Y004105D01*
X008226Y004080D01*
X008079Y004055D02*
X008029Y004105D01*
X008029Y003955D01*
X008079Y003955D02*
X007979Y003955D01*
X007932Y003955D02*
X007857Y003955D01*
X007832Y003980D01*
X007832Y004080D01*
X007857Y004105D01*
X007932Y004105D01*
X007932Y003955D01*
X007784Y003955D02*
X007684Y003955D01*
X007637Y003955D02*
X007537Y004055D01*
X007537Y004080D01*
X007562Y004105D01*
X007612Y004105D01*
X007637Y004080D01*
X007734Y004105D02*
X007734Y003955D01*
X007637Y003955D02*
X007537Y003955D01*
X007490Y003980D02*
X007465Y003955D01*
X007415Y003955D01*
X007390Y003980D01*
X007390Y004080D01*
X007490Y003980D01*
X007490Y004080D01*
X007465Y004105D01*
X007415Y004105D01*
X007390Y004080D01*
X007342Y004030D02*
X007267Y004030D01*
X007242Y004005D01*
X007242Y003980D01*
X007267Y003955D01*
X007317Y003955D01*
X007342Y003980D01*
X007342Y004030D01*
X007292Y004080D01*
X007242Y004105D01*
X007734Y004105D02*
X007784Y004055D01*
X008618Y004105D02*
X008668Y004055D01*
D14*
X035088Y009110D02*
X035335Y009110D01*
X035212Y008987D02*
X035212Y009234D01*
X036088Y009110D02*
X036335Y009110D01*
X036212Y008987D02*
X036212Y009234D01*
X037088Y009110D02*
X037335Y009110D01*
X037212Y008987D02*
X037212Y009234D01*
D15*
X037086Y009969D03*
X036614Y009969D03*
X036086Y009969D03*
X035614Y009969D03*
X035086Y009969D03*
X034614Y009969D03*
D16*
X034850Y009969D03*
X035850Y009969D03*
X036850Y009969D03*
M02*
