G75*
%MOIN*%
%OFA0B0*%
%FSLAX24Y24*%
%IPPOS*%
%LPD*%
%AMOC8*
5,1,8,0,0,1.08239X$1,22.5*
%
%ADD10R,0.0472X0.0472*%
%ADD11R,0.0512X0.0591*%
%ADD12R,0.0709X0.0630*%
%ADD13R,0.0197X0.0591*%
%ADD14R,0.0591X0.0197*%
%ADD15R,0.1250X0.0750*%
%ADD16R,0.0630X0.0709*%
%ADD17R,0.0710X0.0630*%
%ADD18R,0.0630X0.0512*%
%ADD19R,0.1181X0.0984*%
%ADD20R,0.0984X0.0787*%
%ADD21R,0.1299X0.0787*%
%ADD22R,0.1220X0.0197*%
%ADD23R,0.0630X0.0787*%
%ADD24R,0.0790X0.0590*%
%ADD25R,0.0790X0.1500*%
%ADD26R,0.0750X0.1250*%
%ADD27R,0.0787X0.0630*%
%ADD28R,0.0800X0.0260*%
%ADD29R,0.0472X0.0197*%
%ADD30R,0.0551X0.0472*%
%ADD31R,0.0551X0.1378*%
%ADD32R,0.0472X0.0551*%
%ADD33R,0.1378X0.0551*%
%ADD34R,0.0394X0.0177*%
D10*
X012187Y013410D03*
X013013Y013410D03*
D11*
X012974Y014410D03*
X012226Y014410D03*
D12*
X010600Y014461D03*
X010600Y013359D03*
X025100Y010461D03*
X025100Y009359D03*
D13*
X022675Y007127D03*
X022360Y007127D03*
X022045Y007127D03*
X021730Y007127D03*
X021415Y007127D03*
X021100Y007127D03*
X020785Y007127D03*
X020470Y007127D03*
X020155Y007127D03*
X019840Y007127D03*
X019525Y007127D03*
X019525Y011694D03*
X019840Y011694D03*
X020155Y011694D03*
X020470Y011694D03*
X020785Y011694D03*
X021100Y011694D03*
X021415Y011694D03*
X021730Y011694D03*
X022045Y011694D03*
X022360Y011694D03*
X022675Y011694D03*
D14*
X023383Y010985D03*
X023383Y010670D03*
X023383Y010355D03*
X023383Y010040D03*
X023383Y009725D03*
X023383Y009410D03*
X023383Y009095D03*
X023383Y008780D03*
X023383Y008465D03*
X023383Y008150D03*
X023383Y007835D03*
X018817Y007835D03*
X018817Y008150D03*
X018817Y008465D03*
X018817Y008780D03*
X018817Y009095D03*
X018817Y009410D03*
X018817Y009725D03*
X018817Y010040D03*
X018817Y010355D03*
X018817Y010670D03*
X018817Y010985D03*
D15*
X019725Y005285D03*
X019725Y003535D03*
X022475Y003535D03*
X022475Y005285D03*
D16*
X013651Y008410D03*
X012549Y008410D03*
X012549Y010410D03*
X013651Y010410D03*
X009151Y013410D03*
X008049Y013410D03*
X020674Y013410D03*
X021776Y013410D03*
D17*
X016600Y009970D03*
X016600Y008850D03*
D18*
X025100Y008284D03*
X025100Y007536D03*
D19*
X015100Y008400D03*
X015100Y010459D03*
D20*
X003919Y007158D03*
X003919Y010662D03*
D21*
X006242Y010662D03*
X006242Y007158D03*
D22*
X006281Y008280D03*
X006281Y008595D03*
X006281Y008910D03*
X006281Y009225D03*
X006281Y009540D03*
D23*
X009049Y009660D03*
X010151Y009660D03*
X010151Y008410D03*
X009049Y008410D03*
X008549Y016910D03*
X009651Y016910D03*
X013049Y016910D03*
X014151Y016910D03*
X017549Y016910D03*
X018651Y016910D03*
X005151Y016910D03*
X004049Y016910D03*
D24*
X006840Y014320D03*
X006840Y013420D03*
X006840Y012520D03*
D25*
X004360Y013410D03*
D26*
X027975Y013285D03*
X029725Y013285D03*
X029725Y010535D03*
X027975Y010535D03*
D27*
X026600Y012359D03*
X026600Y013461D03*
X025100Y013461D03*
X025100Y012359D03*
X024660Y015619D03*
X024660Y016721D03*
D28*
X026390Y016910D03*
X026390Y016410D03*
X026390Y015910D03*
X026390Y015410D03*
X028560Y015410D03*
X028560Y015910D03*
X028560Y016410D03*
X028560Y016910D03*
X030890Y016910D03*
X030890Y016410D03*
X030890Y015910D03*
X030890Y015410D03*
X033310Y015410D03*
X033310Y015910D03*
X033310Y016410D03*
X033310Y016910D03*
D29*
X036128Y017148D03*
X036128Y016656D03*
X036128Y016164D03*
X036128Y015672D03*
X037072Y015672D03*
X037072Y016164D03*
X037072Y016656D03*
X037072Y017148D03*
D30*
X030320Y008320D03*
X030320Y007410D03*
X030320Y006500D03*
D31*
X027880Y007410D03*
D32*
X017010Y012190D03*
X016100Y012190D03*
X015190Y012190D03*
D33*
X016100Y014630D03*
D34*
X021013Y016106D03*
X021013Y016362D03*
X021013Y016618D03*
X021013Y016874D03*
X022627Y016874D03*
X022627Y016618D03*
X022627Y016362D03*
X022627Y016106D03*
M02*
