G75*
%MOIN*%
%OFA0B0*%
%FSLAX24Y24*%
%IPPOS*%
%LPD*%
%AMOC8*
5,1,8,0,0,1.08239X$1,22.5*
%
%ADD10C,0.0000*%
%ADD11C,0.0276*%
%ADD12C,0.0350*%
%ADD13C,0.0390*%
%ADD14R,0.0749X0.0670*%
%ADD15R,0.0512X0.0591*%
%ADD16R,0.0670X0.0552*%
%ADD17C,0.0394*%
%ADD18R,0.0552X0.0631*%
%ADD19R,0.0512X0.0512*%
%ADD20R,0.0631X0.0552*%
%ADD21C,0.0640*%
%ADD22R,0.0670X0.0749*%
%ADD23C,0.0780*%
%ADD24C,0.0453*%
D10*
X003100Y002310D02*
X003100Y020606D01*
X040670Y020606D01*
X040670Y002310D01*
X003100Y002310D01*
X004923Y008044D02*
X004925Y008070D01*
X004931Y008096D01*
X004941Y008121D01*
X004954Y008144D01*
X004970Y008164D01*
X004990Y008182D01*
X005012Y008197D01*
X005035Y008209D01*
X005061Y008217D01*
X005087Y008221D01*
X005113Y008221D01*
X005139Y008217D01*
X005165Y008209D01*
X005189Y008197D01*
X005210Y008182D01*
X005230Y008164D01*
X005246Y008144D01*
X005259Y008121D01*
X005269Y008096D01*
X005275Y008070D01*
X005277Y008044D01*
X005275Y008018D01*
X005269Y007992D01*
X005259Y007967D01*
X005246Y007944D01*
X005230Y007924D01*
X005210Y007906D01*
X005188Y007891D01*
X005165Y007879D01*
X005139Y007871D01*
X005113Y007867D01*
X005087Y007867D01*
X005061Y007871D01*
X005035Y007879D01*
X005011Y007891D01*
X004990Y007906D01*
X004970Y007924D01*
X004954Y007944D01*
X004941Y007967D01*
X004931Y007992D01*
X004925Y008018D01*
X004923Y008044D01*
X004923Y009776D02*
X004925Y009802D01*
X004931Y009828D01*
X004941Y009853D01*
X004954Y009876D01*
X004970Y009896D01*
X004990Y009914D01*
X005012Y009929D01*
X005035Y009941D01*
X005061Y009949D01*
X005087Y009953D01*
X005113Y009953D01*
X005139Y009949D01*
X005165Y009941D01*
X005189Y009929D01*
X005210Y009914D01*
X005230Y009896D01*
X005246Y009876D01*
X005259Y009853D01*
X005269Y009828D01*
X005275Y009802D01*
X005277Y009776D01*
X005275Y009750D01*
X005269Y009724D01*
X005259Y009699D01*
X005246Y009676D01*
X005230Y009656D01*
X005210Y009638D01*
X005188Y009623D01*
X005165Y009611D01*
X005139Y009603D01*
X005113Y009599D01*
X005087Y009599D01*
X005061Y009603D01*
X005035Y009611D01*
X005011Y009623D01*
X004990Y009638D01*
X004970Y009656D01*
X004954Y009676D01*
X004941Y009699D01*
X004931Y009724D01*
X004925Y009750D01*
X004923Y009776D01*
X012982Y011910D02*
X012984Y011931D01*
X012990Y011951D01*
X012999Y011971D01*
X013011Y011988D01*
X013026Y012002D01*
X013044Y012014D01*
X013064Y012022D01*
X013084Y012027D01*
X013105Y012028D01*
X013126Y012025D01*
X013146Y012019D01*
X013165Y012008D01*
X013182Y011995D01*
X013195Y011979D01*
X013206Y011961D01*
X013214Y011941D01*
X013218Y011921D01*
X013218Y011899D01*
X013214Y011879D01*
X013206Y011859D01*
X013195Y011841D01*
X013182Y011825D01*
X013165Y011812D01*
X013146Y011801D01*
X013126Y011795D01*
X013105Y011792D01*
X013084Y011793D01*
X013064Y011798D01*
X013044Y011806D01*
X013026Y011818D01*
X013011Y011832D01*
X012999Y011849D01*
X012990Y011869D01*
X012984Y011889D01*
X012982Y011910D01*
X013425Y004810D02*
X013427Y004836D01*
X013433Y004862D01*
X013442Y004886D01*
X013455Y004909D01*
X013472Y004929D01*
X013491Y004947D01*
X013513Y004962D01*
X013536Y004973D01*
X013561Y004981D01*
X013587Y004985D01*
X013613Y004985D01*
X013639Y004981D01*
X013664Y004973D01*
X013688Y004962D01*
X013709Y004947D01*
X013728Y004929D01*
X013745Y004909D01*
X013758Y004886D01*
X013767Y004862D01*
X013773Y004836D01*
X013775Y004810D01*
X013773Y004784D01*
X013767Y004758D01*
X013758Y004734D01*
X013745Y004711D01*
X013728Y004691D01*
X013709Y004673D01*
X013687Y004658D01*
X013664Y004647D01*
X013639Y004639D01*
X013613Y004635D01*
X013587Y004635D01*
X013561Y004639D01*
X013536Y004647D01*
X013512Y004658D01*
X013491Y004673D01*
X013472Y004691D01*
X013455Y004711D01*
X013442Y004734D01*
X013433Y004758D01*
X013427Y004784D01*
X013425Y004810D01*
X013425Y004010D02*
X013427Y004036D01*
X013433Y004062D01*
X013442Y004086D01*
X013455Y004109D01*
X013472Y004129D01*
X013491Y004147D01*
X013513Y004162D01*
X013536Y004173D01*
X013561Y004181D01*
X013587Y004185D01*
X013613Y004185D01*
X013639Y004181D01*
X013664Y004173D01*
X013688Y004162D01*
X013709Y004147D01*
X013728Y004129D01*
X013745Y004109D01*
X013758Y004086D01*
X013767Y004062D01*
X013773Y004036D01*
X013775Y004010D01*
X013773Y003984D01*
X013767Y003958D01*
X013758Y003934D01*
X013745Y003911D01*
X013728Y003891D01*
X013709Y003873D01*
X013687Y003858D01*
X013664Y003847D01*
X013639Y003839D01*
X013613Y003835D01*
X013587Y003835D01*
X013561Y003839D01*
X013536Y003847D01*
X013512Y003858D01*
X013491Y003873D01*
X013472Y003891D01*
X013455Y003911D01*
X013442Y003934D01*
X013433Y003958D01*
X013427Y003984D01*
X013425Y004010D01*
X015425Y004410D02*
X015427Y004436D01*
X015433Y004462D01*
X015442Y004486D01*
X015455Y004509D01*
X015472Y004529D01*
X015491Y004547D01*
X015513Y004562D01*
X015536Y004573D01*
X015561Y004581D01*
X015587Y004585D01*
X015613Y004585D01*
X015639Y004581D01*
X015664Y004573D01*
X015688Y004562D01*
X015709Y004547D01*
X015728Y004529D01*
X015745Y004509D01*
X015758Y004486D01*
X015767Y004462D01*
X015773Y004436D01*
X015775Y004410D01*
X015773Y004384D01*
X015767Y004358D01*
X015758Y004334D01*
X015745Y004311D01*
X015728Y004291D01*
X015709Y004273D01*
X015687Y004258D01*
X015664Y004247D01*
X015639Y004239D01*
X015613Y004235D01*
X015587Y004235D01*
X015561Y004239D01*
X015536Y004247D01*
X015512Y004258D01*
X015491Y004273D01*
X015472Y004291D01*
X015455Y004311D01*
X015442Y004334D01*
X015433Y004358D01*
X015427Y004384D01*
X015425Y004410D01*
D11*
X013100Y011910D03*
D12*
X014100Y004660D03*
X014100Y004160D03*
X014600Y004160D03*
X015100Y004160D03*
X015100Y004660D03*
X014600Y004660D03*
D13*
X013600Y004810D03*
X013600Y004010D03*
X015600Y004410D03*
D14*
X011100Y003859D03*
X011100Y004961D03*
X009600Y004961D03*
X009600Y003859D03*
X009600Y008359D03*
X009600Y009461D03*
X022100Y004961D03*
X022100Y003859D03*
D15*
X008191Y003410D03*
X007009Y003410D03*
X007009Y004410D03*
X008191Y004410D03*
X008191Y005410D03*
X007009Y005410D03*
D16*
X020600Y004784D03*
X020600Y004036D03*
D17*
X005100Y008044D03*
X005100Y009776D03*
D18*
X033476Y004660D03*
X034224Y004660D03*
X034224Y003660D03*
X033476Y003660D03*
D19*
X034850Y009497D03*
X034850Y010324D03*
X035850Y010324D03*
X035850Y009497D03*
X036850Y009497D03*
X036850Y010324D03*
D20*
X036850Y008284D03*
X035850Y008284D03*
X034850Y008284D03*
X034850Y007536D03*
X035850Y007536D03*
X036850Y007536D03*
D21*
X027650Y005210D02*
X027650Y004610D01*
X026550Y004610D02*
X026550Y005210D01*
X039080Y015250D02*
X039680Y015250D01*
X039780Y016250D02*
X039180Y016250D01*
X039080Y017250D02*
X039680Y017250D01*
X039780Y018250D02*
X039180Y018250D01*
X037150Y018610D02*
X037150Y019210D01*
X036050Y019210D02*
X036050Y018610D01*
X032650Y018610D02*
X032650Y019210D01*
X031550Y019210D02*
X031550Y018610D01*
X028150Y018610D02*
X028150Y019210D01*
X027050Y019210D02*
X027050Y018610D01*
X023650Y018610D02*
X023650Y019210D01*
X022550Y019210D02*
X022550Y018610D01*
X004900Y004960D02*
X004300Y004960D01*
X004300Y003860D02*
X004900Y003860D01*
D22*
X027049Y015410D03*
X028151Y015410D03*
X028151Y016910D03*
X027049Y016910D03*
X036049Y016410D03*
X036049Y015410D03*
X037151Y015410D03*
X037151Y016410D03*
X037151Y017410D03*
X036049Y017410D03*
D23*
X019600Y018540D02*
X019600Y019280D01*
X018600Y019280D02*
X018600Y018540D01*
X017600Y018540D02*
X017600Y019280D01*
X015100Y019280D02*
X015100Y018540D01*
X014100Y018540D02*
X014100Y019280D01*
X013100Y019280D02*
X013100Y018540D01*
X010600Y018540D02*
X010600Y019280D01*
X009600Y019280D02*
X009600Y018540D01*
X008600Y018540D02*
X008600Y019280D01*
X006100Y019280D02*
X006100Y018540D01*
X005100Y018540D02*
X005100Y019280D01*
X004100Y019280D02*
X004100Y018540D01*
D24*
X033115Y012132D02*
X033115Y011719D01*
X033615Y011719D02*
X033615Y012132D01*
X034115Y012132D02*
X034115Y011719D01*
X034615Y011719D02*
X034615Y012132D01*
X035115Y012132D02*
X035115Y011719D01*
X035615Y011719D02*
X035615Y012132D01*
X036115Y012132D02*
X036115Y011719D01*
X036615Y011719D02*
X036615Y012132D01*
X037115Y012132D02*
X037115Y011719D01*
X037615Y011719D02*
X037615Y012132D01*
X038115Y012132D02*
X038115Y011719D01*
X038615Y011719D02*
X038615Y012132D01*
X039115Y012132D02*
X039115Y011719D01*
X039615Y011719D02*
X039615Y012132D01*
X039615Y006132D02*
X039615Y005719D01*
X039115Y005719D02*
X039115Y006132D01*
X038615Y006132D02*
X038615Y005719D01*
X038115Y005719D02*
X038115Y006132D01*
X037615Y006132D02*
X037615Y005719D01*
X037115Y005719D02*
X037115Y006132D01*
X036615Y006132D02*
X036615Y005719D01*
X036115Y005719D02*
X036115Y006132D01*
X035615Y006132D02*
X035615Y005719D01*
X035115Y005719D02*
X035115Y006132D01*
X034615Y006132D02*
X034615Y005719D01*
X034115Y005719D02*
X034115Y006132D01*
X033615Y006132D02*
X033615Y005719D01*
X033115Y005719D02*
X033115Y006132D01*
M02*
