%
M48
M72
T01C0.0197
T02C0.0236
T03C0.0276
T04C0.0350
T05C0.0354
T06C0.0400
T07C0.0440
%
T01
X9100Y3330
X11740Y3650
X12460Y4370
X12940Y4370
X12300Y6050
X10220Y7730
X10700Y8770
X11020Y9090
X10620Y10290
X12220Y9650
X15340Y11410
X14700Y12530
X15580Y13970
X17420Y12930
X18940Y12610
X20140Y14290
X18940Y15010
X18300Y15890
X21020Y17250
X21660Y16930
X23740Y16530
X25740Y15410
X25340Y14290
X24460Y13650
X22220Y12610
X21820Y12610
X25020Y11410
X24380Y9650
X24380Y9090
X21740Y9730
X21260Y9410
X20780Y10210
X20300Y9090
X17900Y8530
X17900Y7890
X17900Y7410
X19420Y6210
X19900Y6130
X19820Y4210
X16860Y4850
X16780Y5250
X17900Y10690
X17900Y11090
X12140Y12210
X9980Y14450
X7500Y14450
X6300Y9890
X6140Y7810
X6620Y6530
X24300Y6770
X28300Y6530
X29180Y6850
X30460Y12530
X29100Y14290
X27180Y14770
X27180Y12850
X26460Y17330
X33980Y16370
X35180Y15890
X35500Y16290
X36620Y15890
T02
X13100Y11910
T03
X33115Y11925
X33615Y11925
X34115Y11925
X34615Y11925
X35115Y11925
X35615Y11925
X36115Y11925
X36615Y11925
X37115Y11925
X37615Y11925
X38115Y11925
X38615Y11925
X39115Y11925
X39615Y11925
X39615Y5925
X39115Y5925
X38615Y5925
X38115Y5925
X37615Y5925
X37115Y5925
X36615Y5925
X36115Y5925
X35615Y5925
X35115Y5925
X34615Y5925
X34115Y5925
X33615Y5925
X33115Y5925
T04
X15600Y4410
X13600Y4010
X13600Y4810
T05
X5100Y8044
X5100Y9776
T06
X4600Y3860
X4600Y4960
X22550Y18910
X23650Y18910
X27050Y18910
X28150Y18910
X31550Y18910
X32650Y18910
X36050Y18910
X37150Y18910
X39480Y18250
X39380Y17250
X39480Y16250
X39380Y15250
X27650Y4910
X26550Y4910
T07
X19600Y18910
X18600Y18910
X17600Y18910
X15100Y18910
X14100Y18910
X13100Y18910
X10600Y18910
X9600Y18910
X8600Y18910
X6100Y18910
X5100Y18910
X4100Y18910
M30
