G75*
G70*
%OFA0B0*%
%FSLAX24Y24*%
%IPPOS*%
%LPD*%
%AMOC8*
5,1,8,0,0,1.08239X$1,22.5*
%
%ADD10C,0.0030*%
D10*
X005996Y009606D02*
X006045Y009606D01*
X006142Y009606D02*
X006142Y009558D01*
X006142Y009606D02*
X006335Y009606D01*
X006335Y009558D02*
X006335Y009655D01*
X006287Y009755D02*
X006335Y009803D01*
X006335Y009948D01*
X006383Y009948D02*
X006142Y009948D01*
X006142Y009803D01*
X006190Y009755D01*
X006287Y009755D01*
X006432Y009851D02*
X006432Y009900D01*
X006383Y009948D01*
X006335Y010049D02*
X006045Y010049D01*
X006142Y010098D02*
X006142Y010194D01*
X006190Y010243D01*
X006335Y010243D01*
X006287Y010392D02*
X006335Y010441D01*
X006287Y010392D02*
X006093Y010392D01*
X006142Y010344D02*
X006142Y010441D01*
X006142Y010098D02*
X006190Y010049D01*
X006190Y009457D02*
X006238Y009457D01*
X006238Y009263D01*
X006190Y009263D02*
X006287Y009263D01*
X006335Y009312D01*
X006335Y009409D01*
X006190Y009457D02*
X006142Y009409D01*
X006142Y009312D01*
X006190Y009263D01*
X006335Y009162D02*
X006238Y009066D01*
X006335Y008969D01*
X006045Y008969D01*
X006045Y009162D02*
X006335Y009162D01*
X006287Y010835D02*
X006335Y010883D01*
X006335Y010980D01*
X006287Y011028D01*
X006238Y011028D01*
X006190Y010980D01*
X006190Y010883D01*
X006142Y010835D01*
X006093Y010835D01*
X006045Y010883D01*
X006045Y010980D01*
X006093Y011028D01*
X006190Y011130D02*
X006142Y011178D01*
X006142Y011275D01*
X006190Y011323D01*
X006238Y011323D01*
X006238Y011130D01*
X006190Y011130D02*
X006287Y011130D01*
X006335Y011178D01*
X006335Y011275D01*
X006335Y011424D02*
X006142Y011424D01*
X006142Y011569D01*
X006190Y011618D01*
X006335Y011618D01*
X006335Y011719D02*
X006335Y011864D01*
X006287Y011912D01*
X006238Y011864D01*
X006238Y011767D01*
X006190Y011719D01*
X006142Y011767D01*
X006142Y011912D01*
X006190Y012014D02*
X006142Y012062D01*
X006142Y012159D01*
X006190Y012207D01*
X006287Y012207D01*
X006335Y012159D01*
X006335Y012062D01*
X006287Y012014D01*
X006190Y012014D01*
X006238Y012308D02*
X006142Y012405D01*
X006142Y012453D01*
X006142Y012308D02*
X006335Y012308D01*
X006142Y012848D02*
X006335Y012945D01*
X006142Y013042D01*
X006287Y013143D02*
X006287Y013191D01*
X006335Y013191D01*
X006335Y013143D01*
X006287Y013143D01*
X006335Y013290D02*
X006142Y013484D01*
X006093Y013484D01*
X006045Y013435D01*
X006045Y013339D01*
X006093Y013290D01*
X006335Y013290D02*
X006335Y013484D01*
M02*
