G75*
%MOIN*%
%OFA0B0*%
%FSLAX24Y24*%
%IPPOS*%
%LPD*%
%AMOC8*
5,1,8,0,0,1.08239X$1,22.5*
%
%ADD10C,0.0000*%
%ADD11R,0.0512X0.0591*%
%ADD12R,0.0709X0.0630*%
%ADD13R,0.0197X0.0591*%
%ADD14R,0.0591X0.0197*%
%ADD15R,0.1250X0.0750*%
%ADD16R,0.0630X0.0709*%
%ADD17R,0.0710X0.0630*%
%ADD18R,0.1181X0.0984*%
%ADD19R,0.0984X0.0787*%
%ADD20R,0.1299X0.0787*%
%ADD21R,0.1220X0.0197*%
%ADD22R,0.0630X0.0787*%
%ADD23R,0.0790X0.0590*%
%ADD24R,0.0790X0.1500*%
%ADD25R,0.0750X0.1250*%
%ADD26C,0.0600*%
%ADD27R,0.0787X0.0630*%
%ADD28R,0.0800X0.0260*%
%ADD29R,0.0551X0.0472*%
%ADD30R,0.0551X0.1378*%
%ADD31R,0.0472X0.0551*%
%ADD32R,0.1378X0.0551*%
%ADD33R,0.0394X0.0177*%
%ADD34C,0.0413*%
%ADD35R,0.0472X0.0197*%
%ADD36R,0.0500X0.0250*%
%ADD37R,0.0472X0.0472*%
%ADD38C,0.0740*%
%ADD39C,0.0240*%
%ADD40C,0.0317*%
%ADD41C,0.0120*%
%ADD42R,0.0317X0.0317*%
D10*
X003060Y000249D02*
X003140Y015625D01*
X041550Y015625D01*
X041510Y000209D01*
X003060Y000249D01*
X004923Y005702D02*
X004925Y005728D01*
X004931Y005754D01*
X004941Y005779D01*
X004954Y005802D01*
X004970Y005822D01*
X004990Y005840D01*
X005012Y005855D01*
X005035Y005867D01*
X005061Y005875D01*
X005087Y005879D01*
X005113Y005879D01*
X005139Y005875D01*
X005165Y005867D01*
X005189Y005855D01*
X005210Y005840D01*
X005230Y005822D01*
X005246Y005802D01*
X005259Y005779D01*
X005269Y005754D01*
X005275Y005728D01*
X005277Y005702D01*
X005275Y005676D01*
X005269Y005650D01*
X005259Y005625D01*
X005246Y005602D01*
X005230Y005582D01*
X005210Y005564D01*
X005188Y005549D01*
X005165Y005537D01*
X005139Y005529D01*
X005113Y005525D01*
X005087Y005525D01*
X005061Y005529D01*
X005035Y005537D01*
X005011Y005549D01*
X004990Y005564D01*
X004970Y005582D01*
X004954Y005602D01*
X004941Y005625D01*
X004931Y005650D01*
X004925Y005676D01*
X004923Y005702D01*
X004923Y007435D02*
X004925Y007461D01*
X004931Y007487D01*
X004941Y007512D01*
X004954Y007535D01*
X004970Y007555D01*
X004990Y007573D01*
X005012Y007588D01*
X005035Y007600D01*
X005061Y007608D01*
X005087Y007612D01*
X005113Y007612D01*
X005139Y007608D01*
X005165Y007600D01*
X005189Y007588D01*
X005210Y007573D01*
X005230Y007555D01*
X005246Y007535D01*
X005259Y007512D01*
X005269Y007487D01*
X005275Y007461D01*
X005277Y007435D01*
X005275Y007409D01*
X005269Y007383D01*
X005259Y007358D01*
X005246Y007335D01*
X005230Y007315D01*
X005210Y007297D01*
X005188Y007282D01*
X005165Y007270D01*
X005139Y007262D01*
X005113Y007258D01*
X005087Y007258D01*
X005061Y007262D01*
X005035Y007270D01*
X005011Y007282D01*
X004990Y007297D01*
X004970Y007315D01*
X004954Y007335D01*
X004941Y007358D01*
X004931Y007383D01*
X004925Y007409D01*
X004923Y007435D01*
X012982Y009569D02*
X012984Y009590D01*
X012990Y009610D01*
X012999Y009630D01*
X013011Y009647D01*
X013026Y009661D01*
X013044Y009673D01*
X013064Y009681D01*
X013084Y009686D01*
X013105Y009687D01*
X013126Y009684D01*
X013146Y009678D01*
X013165Y009667D01*
X013182Y009654D01*
X013195Y009638D01*
X013206Y009620D01*
X013214Y009600D01*
X013218Y009580D01*
X013218Y009558D01*
X013214Y009538D01*
X013206Y009518D01*
X013195Y009500D01*
X013182Y009484D01*
X013165Y009471D01*
X013146Y009460D01*
X013126Y009454D01*
X013105Y009451D01*
X013084Y009452D01*
X013064Y009457D01*
X013044Y009465D01*
X013026Y009477D01*
X013011Y009491D01*
X012999Y009508D01*
X012990Y009528D01*
X012984Y009548D01*
X012982Y009569D01*
X013425Y002469D02*
X013427Y002495D01*
X013433Y002521D01*
X013442Y002545D01*
X013455Y002568D01*
X013472Y002588D01*
X013491Y002606D01*
X013513Y002621D01*
X013536Y002632D01*
X013561Y002640D01*
X013587Y002644D01*
X013613Y002644D01*
X013639Y002640D01*
X013664Y002632D01*
X013688Y002621D01*
X013709Y002606D01*
X013728Y002588D01*
X013745Y002568D01*
X013758Y002545D01*
X013767Y002521D01*
X013773Y002495D01*
X013775Y002469D01*
X013773Y002443D01*
X013767Y002417D01*
X013758Y002393D01*
X013745Y002370D01*
X013728Y002350D01*
X013709Y002332D01*
X013687Y002317D01*
X013664Y002306D01*
X013639Y002298D01*
X013613Y002294D01*
X013587Y002294D01*
X013561Y002298D01*
X013536Y002306D01*
X013512Y002317D01*
X013491Y002332D01*
X013472Y002350D01*
X013455Y002370D01*
X013442Y002393D01*
X013433Y002417D01*
X013427Y002443D01*
X013425Y002469D01*
X013425Y001669D02*
X013427Y001695D01*
X013433Y001721D01*
X013442Y001745D01*
X013455Y001768D01*
X013472Y001788D01*
X013491Y001806D01*
X013513Y001821D01*
X013536Y001832D01*
X013561Y001840D01*
X013587Y001844D01*
X013613Y001844D01*
X013639Y001840D01*
X013664Y001832D01*
X013688Y001821D01*
X013709Y001806D01*
X013728Y001788D01*
X013745Y001768D01*
X013758Y001745D01*
X013767Y001721D01*
X013773Y001695D01*
X013775Y001669D01*
X013773Y001643D01*
X013767Y001617D01*
X013758Y001593D01*
X013745Y001570D01*
X013728Y001550D01*
X013709Y001532D01*
X013687Y001517D01*
X013664Y001506D01*
X013639Y001498D01*
X013613Y001494D01*
X013587Y001494D01*
X013561Y001498D01*
X013536Y001506D01*
X013512Y001517D01*
X013491Y001532D01*
X013472Y001550D01*
X013455Y001570D01*
X013442Y001593D01*
X013433Y001617D01*
X013427Y001643D01*
X013425Y001669D01*
X015425Y002069D02*
X015427Y002095D01*
X015433Y002121D01*
X015442Y002145D01*
X015455Y002168D01*
X015472Y002188D01*
X015491Y002206D01*
X015513Y002221D01*
X015536Y002232D01*
X015561Y002240D01*
X015587Y002244D01*
X015613Y002244D01*
X015639Y002240D01*
X015664Y002232D01*
X015688Y002221D01*
X015709Y002206D01*
X015728Y002188D01*
X015745Y002168D01*
X015758Y002145D01*
X015767Y002121D01*
X015773Y002095D01*
X015775Y002069D01*
X015773Y002043D01*
X015767Y002017D01*
X015758Y001993D01*
X015745Y001970D01*
X015728Y001950D01*
X015709Y001932D01*
X015687Y001917D01*
X015664Y001906D01*
X015639Y001898D01*
X015613Y001894D01*
X015587Y001894D01*
X015561Y001898D01*
X015536Y001906D01*
X015512Y001917D01*
X015491Y001932D01*
X015472Y001950D01*
X015455Y001970D01*
X015442Y001993D01*
X015433Y002017D01*
X015427Y002043D01*
X015425Y002069D01*
D11*
X013054Y010989D03*
X012306Y010989D03*
D12*
X010600Y011017D03*
X010600Y012120D03*
X025100Y008120D03*
X025100Y007017D03*
D13*
X022675Y004785D03*
X022360Y004785D03*
X022045Y004785D03*
X021730Y004785D03*
X021415Y004785D03*
X021100Y004785D03*
X020785Y004785D03*
X020470Y004785D03*
X020155Y004785D03*
X019840Y004785D03*
X019525Y004785D03*
X019525Y009352D03*
X019840Y009352D03*
X020155Y009352D03*
X020470Y009352D03*
X020785Y009352D03*
X021100Y009352D03*
X021415Y009352D03*
X021730Y009352D03*
X022045Y009352D03*
X022360Y009352D03*
X022675Y009352D03*
D14*
X023383Y008643D03*
X023383Y008328D03*
X023383Y008014D03*
X023383Y007699D03*
X023383Y007384D03*
X023383Y007069D03*
X023383Y006754D03*
X023383Y006439D03*
X023383Y006124D03*
X023383Y005809D03*
X023383Y005494D03*
X018817Y005494D03*
X018817Y005809D03*
X018817Y006124D03*
X018817Y006439D03*
X018817Y006754D03*
X018817Y007069D03*
X018817Y007384D03*
X018817Y007699D03*
X018817Y008014D03*
X018817Y008328D03*
X018817Y008643D03*
D15*
X019725Y002944D03*
X019725Y001194D03*
X022475Y001194D03*
X022475Y002944D03*
D16*
X013411Y006109D03*
X012309Y006109D03*
X012309Y008109D03*
X013411Y008109D03*
X009151Y011069D03*
X008049Y011069D03*
X020074Y010549D03*
X021176Y010549D03*
D17*
X016360Y007668D03*
X016360Y006549D03*
D18*
X014860Y006099D03*
X014860Y008158D03*
D19*
X003919Y008321D03*
X003919Y004817D03*
D20*
X006242Y004817D03*
X006242Y008321D03*
D21*
X006281Y007199D03*
X006281Y006884D03*
X006281Y006569D03*
X006281Y006254D03*
X006281Y005939D03*
D22*
X009049Y006069D03*
X010151Y006069D03*
X010151Y007319D03*
X009049Y007319D03*
X025109Y005909D03*
X026211Y005909D03*
X026211Y004629D03*
X025109Y004629D03*
D23*
X006840Y010179D03*
X006840Y011079D03*
X006840Y011979D03*
D24*
X004360Y011069D03*
D25*
X029415Y008664D03*
X031165Y008664D03*
X031165Y005914D03*
X029415Y005914D03*
D26*
X027010Y002229D02*
X027010Y001629D01*
X025910Y001629D02*
X025910Y002229D01*
X040120Y011469D02*
X040720Y011469D01*
X040820Y012469D02*
X040220Y012469D01*
X040120Y013469D02*
X040720Y013469D01*
X040820Y014469D02*
X040220Y014469D01*
X034990Y014629D02*
X034990Y014029D01*
X033890Y014029D02*
X033890Y014629D01*
X031490Y014549D02*
X031490Y013949D01*
X030390Y013949D02*
X030390Y014549D01*
X027030Y014629D02*
X027030Y014029D01*
X025930Y014029D02*
X025930Y014629D01*
X020500Y014659D02*
X019900Y014659D01*
X019900Y013559D02*
X020500Y013559D01*
X004900Y002619D02*
X004300Y002619D01*
X004300Y001519D02*
X004900Y001519D01*
D27*
X007580Y013597D03*
X007580Y014700D03*
X008820Y014700D03*
X008820Y013597D03*
X024580Y013437D03*
X024580Y014540D03*
X024620Y011480D03*
X024620Y010377D03*
X027320Y009360D03*
X027320Y008257D03*
D28*
X026830Y010629D03*
X026830Y011129D03*
X026830Y011629D03*
X026830Y012129D03*
X029000Y012129D03*
X029000Y011629D03*
X029000Y011129D03*
X029000Y010629D03*
X030890Y011309D03*
X030890Y011809D03*
X030890Y012309D03*
X030890Y012809D03*
X033310Y012809D03*
X033310Y012309D03*
X033310Y011809D03*
X033310Y011309D03*
D29*
X031400Y004418D03*
X031400Y003509D03*
X031400Y002599D03*
D30*
X028960Y003509D03*
D31*
X018610Y012169D03*
X017700Y012169D03*
X016790Y012169D03*
D32*
X017700Y014609D03*
D33*
X022093Y014212D03*
X022093Y013957D03*
X022093Y013701D03*
X022093Y013445D03*
X023707Y013445D03*
X023707Y013701D03*
X023707Y013957D03*
X023707Y014212D03*
D34*
X034035Y009950D02*
X034035Y009537D01*
X034535Y009537D02*
X034535Y009950D01*
X035035Y009950D02*
X035035Y009537D01*
X035535Y009537D02*
X035535Y009950D01*
X036035Y009950D02*
X036035Y009537D01*
X036535Y009537D02*
X036535Y009950D01*
X037035Y009950D02*
X037035Y009537D01*
X037535Y009537D02*
X037535Y009950D01*
X038035Y009950D02*
X038035Y009537D01*
X038535Y009537D02*
X038535Y009950D01*
X039035Y009950D02*
X039035Y009537D01*
X039535Y009537D02*
X039535Y009950D01*
X040035Y009950D02*
X040035Y009537D01*
X040535Y009537D02*
X040535Y009950D01*
X040535Y003950D02*
X040535Y003537D01*
X040035Y003537D02*
X040035Y003950D01*
X039535Y003950D02*
X039535Y003537D01*
X039035Y003537D02*
X039035Y003950D01*
X038535Y003950D02*
X038535Y003537D01*
X038035Y003537D02*
X038035Y003950D01*
X037535Y003950D02*
X037535Y003537D01*
X037035Y003537D02*
X037035Y003950D01*
X036535Y003950D02*
X036535Y003537D01*
X036035Y003537D02*
X036035Y003950D01*
X035535Y003950D02*
X035535Y003537D01*
X035035Y003537D02*
X035035Y003950D01*
X034535Y003950D02*
X034535Y003537D01*
X034035Y003537D02*
X034035Y003950D01*
D35*
X036748Y012050D03*
X036748Y012543D03*
X036748Y013035D03*
X036748Y013527D03*
X037692Y013527D03*
X037692Y013035D03*
X037692Y012543D03*
X037692Y012050D03*
D36*
X038122Y012041D03*
X038125Y012546D03*
X038126Y013027D03*
X038131Y013524D03*
X036320Y013527D03*
X036316Y013029D03*
X036322Y012549D03*
X036329Y012040D03*
D37*
X027860Y005722D03*
X027860Y004895D03*
D38*
X012020Y013619D02*
X012020Y014359D01*
X011020Y014359D02*
X011020Y013619D01*
X010020Y013619D02*
X010020Y014359D01*
X005980Y014399D02*
X005980Y013659D01*
X004980Y013659D02*
X004980Y014399D01*
X003980Y014399D02*
X003980Y013659D01*
D39*
X004026Y013987D02*
X003980Y014029D01*
X004026Y013987D02*
X004026Y012915D01*
X006756Y010185D01*
X006840Y010179D01*
X006659Y010136D01*
X004709Y008186D01*
X004660Y008089D01*
X004660Y006870D01*
X005586Y005944D01*
X005538Y005846D01*
X005538Y005456D01*
X004611Y004530D01*
X004611Y002629D01*
X004600Y002619D01*
X007390Y005310D02*
X006756Y005944D01*
X006366Y005944D01*
X006281Y005939D01*
X006269Y005944D01*
X005586Y005944D01*
X007390Y005310D02*
X010413Y005310D01*
X010413Y005212D01*
X010413Y005310D02*
X011144Y006041D01*
X012216Y006041D01*
X012309Y006109D01*
X012314Y006139D01*
X012314Y008089D01*
X012309Y008109D01*
X012655Y010477D02*
X011193Y010477D01*
X010705Y010965D01*
X010600Y011017D01*
X010559Y011062D01*
X009194Y011062D01*
X009151Y011069D01*
X009048Y011014D01*
X008268Y010234D01*
X006951Y010234D01*
X006840Y010179D01*
X006854Y010185D01*
X006840Y011079D02*
X006854Y011111D01*
X008024Y011111D01*
X008049Y011069D01*
X007878Y011209D01*
X007878Y013500D01*
X007580Y013597D01*
X007488Y013646D01*
X007146Y013987D01*
X006025Y013987D01*
X005980Y014029D01*
X007580Y013597D02*
X007585Y013597D01*
X008804Y013597D01*
X008820Y013597D01*
X008901Y013646D01*
X008999Y013744D01*
X009925Y013744D01*
X010020Y013989D01*
X010071Y014085D01*
X010071Y014231D01*
X010998Y015157D01*
X023088Y015157D01*
X024014Y014231D01*
X024014Y014212D01*
X024599Y014475D02*
X024580Y014540D01*
X024891Y014329D01*
X025964Y015401D01*
X031375Y015401D01*
X033276Y013500D01*
X033276Y012915D01*
X033310Y012809D01*
X033325Y012769D01*
X033666Y012769D01*
X034276Y012159D01*
X036006Y013890D01*
X036640Y013890D01*
X036786Y013744D01*
X036884Y013792D01*
X037030Y013792D01*
X037664Y014426D01*
X040491Y014426D01*
X040520Y014469D01*
X040420Y011469D02*
X040443Y011452D01*
X040979Y010916D01*
X040979Y009405D01*
X040686Y009112D01*
X038590Y009112D01*
X038493Y009064D01*
X032984Y003555D01*
X031424Y003555D01*
X031400Y003509D01*
X031400Y004418D02*
X031424Y004432D01*
X030888Y004432D01*
X029425Y005895D01*
X029415Y005914D01*
X029474Y005992D01*
X030205Y006724D01*
X030205Y007455D01*
X029415Y005914D02*
X029230Y005797D01*
X028840Y005797D01*
X027963Y004920D01*
X027860Y004895D01*
X027816Y004871D01*
X026451Y004871D01*
X026256Y004676D01*
X026211Y004629D01*
X026256Y004822D01*
X025671Y005407D01*
X025623Y005310D01*
X024501Y005310D01*
X024014Y005797D01*
X023478Y005797D01*
X023383Y005809D01*
X023380Y005797D01*
X021528Y005797D01*
X020748Y006577D01*
X020650Y006626D01*
X020650Y007260D01*
X020309Y007260D01*
X019870Y007699D01*
X018846Y007699D01*
X018817Y007699D01*
X020650Y007260D02*
X020943Y007260D01*
X021430Y007747D01*
X021430Y009307D01*
X021415Y009352D01*
X021430Y009454D01*
X021430Y009697D01*
X021186Y009941D01*
X021186Y010526D01*
X021176Y010549D01*
X022161Y011209D02*
X022161Y011989D01*
X021723Y012427D01*
X018895Y012427D01*
X018700Y012232D01*
X018610Y012169D01*
X018603Y012135D01*
X018456Y012135D01*
X017920Y011599D01*
X013679Y011599D01*
X013630Y011696D01*
X012021Y013305D01*
X012021Y013987D01*
X012020Y013989D01*
X010023Y013987D02*
X010023Y013792D01*
X012265Y011550D01*
X012265Y011014D01*
X012306Y010989D01*
X012655Y010477D02*
X012996Y010819D01*
X012996Y010916D01*
X013054Y010989D01*
X013094Y011014D01*
X013679Y011599D01*
X010023Y013987D02*
X010020Y013989D01*
X019529Y005505D02*
X020650Y006626D01*
X019529Y005505D02*
X019529Y004822D01*
X019525Y004785D01*
X019431Y004725D01*
X017969Y004725D01*
X016409Y003165D01*
X016409Y002872D01*
X016653Y002629D01*
X016945Y002629D01*
X017189Y002872D01*
X019626Y002872D01*
X019725Y002944D01*
X019773Y002921D01*
X020065Y002629D01*
X021186Y002629D01*
X025671Y005407D02*
X025671Y007406D01*
X025184Y007894D01*
X025184Y008040D01*
X025100Y008120D01*
X025086Y008137D01*
X024891Y008332D01*
X023916Y008332D01*
X023916Y009454D01*
X022161Y011209D01*
X024620Y010377D02*
X024648Y010380D01*
X025769Y010380D01*
X025818Y010282D01*
X025818Y009746D01*
X027280Y008284D01*
X027320Y008257D01*
X025769Y010380D02*
X026451Y011062D01*
X026403Y011160D01*
X025671Y011891D01*
X025671Y013402D01*
X024599Y014475D01*
X027030Y014329D02*
X029425Y014329D01*
X030156Y015060D01*
X030693Y015060D01*
X031473Y014280D01*
X031490Y014249D01*
X030890Y012809D02*
X030888Y012769D01*
X030888Y012427D01*
X030890Y012309D01*
X030985Y012330D01*
X033276Y012330D01*
X033310Y012309D01*
X034276Y012159D02*
X034739Y011696D01*
X036640Y011696D01*
X036786Y011842D01*
X036786Y012037D01*
X036748Y012050D01*
X036748Y013527D02*
X036786Y013549D01*
X036786Y013744D01*
X030890Y012309D02*
X030888Y012281D01*
X030888Y011842D01*
X030890Y011809D01*
X030790Y011745D01*
X030303Y011745D01*
X030254Y011696D01*
X027475Y011257D02*
X026939Y011257D01*
X026841Y011160D01*
X026830Y011129D01*
X026744Y011062D01*
X026451Y011062D01*
X023916Y008332D02*
X023429Y008332D01*
X023383Y008328D01*
X029328Y005846D02*
X029415Y005914D01*
X036035Y003744D02*
X036055Y003701D01*
X036055Y003409D01*
X036348Y003116D01*
X037713Y003116D01*
X038005Y003409D01*
X038005Y003701D01*
X038035Y003744D01*
D40*
X030205Y007455D03*
X032496Y010965D03*
X031570Y011842D03*
X030254Y011696D03*
X027963Y011355D03*
X027475Y011257D03*
X026939Y012525D03*
X024063Y010916D03*
X023331Y010770D03*
X023526Y010380D03*
X023965Y010234D03*
X024306Y009405D03*
X025428Y008722D03*
X021820Y007894D03*
X021918Y007455D03*
X021918Y007016D03*
X020894Y007747D03*
X020455Y007650D03*
X020260Y006772D03*
X017871Y006772D03*
X017920Y006090D03*
X017920Y005212D03*
X020016Y003896D03*
X021528Y003896D03*
X021186Y002629D03*
X020016Y001849D03*
X019578Y001849D03*
X018846Y001069D03*
X016994Y002239D03*
X016799Y003019D03*
X014751Y003750D03*
X010413Y005212D03*
X008463Y007162D03*
X009828Y007991D03*
X006366Y005554D03*
X007683Y003165D03*
X015970Y009454D03*
X015629Y009892D03*
X017920Y009112D03*
X017871Y008674D03*
X017530Y008332D03*
X019480Y010234D03*
X019188Y010819D03*
X017725Y013159D03*
X013971Y012135D03*
X011193Y012086D03*
X009389Y014134D03*
X008268Y012086D03*
X007488Y012086D03*
X022259Y012476D03*
X024306Y006041D03*
X024745Y001849D03*
X038493Y011404D03*
X037225Y012330D03*
D41*
X037225Y012622D01*
X037030Y012817D01*
X036981Y012817D01*
X036786Y013012D01*
X036748Y013035D01*
X036748Y012543D02*
X035586Y012543D01*
X035580Y012549D01*
X037274Y013402D02*
X037274Y013646D01*
X037615Y013987D01*
X040833Y013987D01*
X041174Y013646D01*
X041174Y013110D01*
X040540Y012476D01*
X040520Y012469D01*
X040491Y012427D01*
X039078Y012427D01*
X038005Y011355D01*
X033325Y011355D01*
X033310Y011309D01*
X033276Y011306D01*
X031619Y011306D01*
X031326Y011014D01*
X030644Y011014D01*
X030644Y007991D01*
X031814Y006821D01*
X031814Y004091D01*
X031765Y004042D01*
X031229Y004042D01*
X030985Y003799D01*
X030985Y003214D01*
X031083Y003116D01*
X031619Y003116D01*
X031814Y002921D01*
X031814Y002287D01*
X030205Y000679D01*
X018115Y000679D01*
X016116Y002677D01*
X016116Y004725D01*
X017823Y006431D01*
X018798Y006431D01*
X018817Y006439D01*
X018817Y006754D02*
X018846Y006772D01*
X020260Y006772D01*
X020455Y007650D02*
X020114Y007991D01*
X018846Y007991D01*
X018817Y008014D01*
X018798Y007991D01*
X017433Y007991D01*
X015970Y009454D01*
X015629Y009892D02*
X020553Y009892D01*
X020796Y009649D01*
X020796Y009356D01*
X020785Y009352D01*
X021089Y009356D02*
X021100Y009352D01*
X021089Y009356D02*
X021089Y009649D01*
X020211Y010526D01*
X020114Y010526D01*
X020074Y010549D01*
X019480Y010526D02*
X019480Y010234D01*
X019480Y010526D02*
X019188Y010819D01*
X019540Y011131D02*
X015380Y011131D01*
X015380Y011132D02*
X015366Y011130D01*
X015353Y011126D01*
X015341Y011118D01*
X015331Y011108D01*
X015323Y011096D01*
X015319Y011083D01*
X015317Y011069D01*
X015318Y011069D02*
X015318Y009949D01*
X015123Y009949D02*
X015123Y011069D01*
X015122Y011069D02*
X015124Y011100D01*
X015129Y011131D01*
X015139Y011160D01*
X015152Y011189D01*
X015168Y011216D01*
X015187Y011240D01*
X015209Y011262D01*
X015233Y011281D01*
X015260Y011297D01*
X015289Y011310D01*
X015318Y011320D01*
X015349Y011325D01*
X015380Y011327D01*
X015380Y011326D02*
X019540Y011326D01*
X019540Y011131D02*
X019590Y011133D01*
X019639Y011138D01*
X019688Y011147D01*
X019737Y011159D01*
X019784Y011175D01*
X019830Y011194D01*
X019875Y011216D01*
X019917Y011242D01*
X019958Y011270D01*
X019997Y011301D01*
X020034Y011335D01*
X020068Y011372D01*
X020099Y011411D01*
X020127Y011452D01*
X020153Y011494D01*
X020175Y011539D01*
X020194Y011585D01*
X020210Y011632D01*
X020222Y011681D01*
X020231Y011730D01*
X020236Y011779D01*
X020238Y011829D01*
X020237Y011829D02*
X020239Y011847D01*
X020243Y011864D01*
X020251Y011881D01*
X020261Y011895D01*
X020274Y011908D01*
X020289Y011918D01*
X020305Y011926D01*
X020322Y011930D01*
X020340Y011932D01*
X020340Y011931D02*
X021460Y011931D01*
X021460Y012126D02*
X020340Y012126D01*
X020340Y012127D02*
X020307Y012125D01*
X020274Y012120D01*
X020242Y012110D01*
X020211Y012097D01*
X020181Y012081D01*
X020154Y012062D01*
X020129Y012040D01*
X020107Y012015D01*
X020088Y011988D01*
X020072Y011958D01*
X020059Y011927D01*
X020049Y011895D01*
X020044Y011862D01*
X020042Y011829D01*
X020043Y011829D02*
X020041Y011785D01*
X020035Y011742D01*
X020026Y011699D01*
X020013Y011657D01*
X019996Y011616D01*
X019976Y011578D01*
X019952Y011540D01*
X019925Y011506D01*
X019896Y011473D01*
X019863Y011444D01*
X019829Y011417D01*
X019792Y011393D01*
X019753Y011373D01*
X019712Y011356D01*
X019670Y011343D01*
X019627Y011334D01*
X019584Y011328D01*
X019540Y011326D01*
X021460Y011932D02*
X021489Y011930D01*
X021518Y011924D01*
X021545Y011915D01*
X021572Y011902D01*
X021596Y011886D01*
X021618Y011867D01*
X021637Y011845D01*
X021653Y011821D01*
X021666Y011794D01*
X021675Y011767D01*
X021681Y011738D01*
X021683Y011709D01*
X021683Y010069D01*
X021674Y010039D01*
X021674Y009941D01*
X021771Y009844D01*
X021803Y009829D01*
X021803Y009425D01*
X021771Y009405D01*
X021771Y009356D01*
X021730Y009352D01*
X021998Y009399D02*
X021998Y009829D01*
X022015Y009844D01*
X022015Y009990D01*
X021918Y010087D01*
X021878Y010109D01*
X021878Y011709D01*
X021876Y011748D01*
X021871Y011786D01*
X021862Y011823D01*
X021850Y011860D01*
X021834Y011895D01*
X021815Y011929D01*
X021794Y011961D01*
X021769Y011991D01*
X021742Y012018D01*
X021712Y012043D01*
X021680Y012064D01*
X021646Y012083D01*
X021611Y012099D01*
X021574Y012111D01*
X021537Y012120D01*
X021499Y012125D01*
X021460Y012127D01*
X022259Y012476D02*
X023209Y013427D01*
X022454Y014182D01*
X022113Y014182D01*
X022093Y014212D01*
X022064Y013451D02*
X022093Y013445D01*
X022015Y013451D01*
X020358Y013451D01*
X020200Y013559D01*
X020211Y013549D01*
X020309Y013451D01*
X017725Y013159D02*
X017725Y012184D01*
X017700Y012169D01*
X016790Y012169D02*
X016750Y012135D01*
X013971Y012135D01*
X011193Y012086D02*
X010608Y012086D01*
X010600Y012120D01*
X010559Y012086D01*
X008268Y012086D01*
X007488Y012086D02*
X006951Y012086D01*
X006854Y011989D01*
X006840Y011979D01*
X005001Y014036D02*
X004980Y014029D01*
X005001Y014036D02*
X005001Y014182D01*
X005733Y014914D01*
X006220Y014914D01*
X006415Y014719D01*
X007536Y014719D01*
X007580Y014700D01*
X008820Y014700D02*
X008853Y014670D01*
X009389Y014134D01*
X014300Y008931D02*
X014361Y008933D01*
X014423Y008938D01*
X014483Y008948D01*
X014544Y008961D01*
X014603Y008977D01*
X014661Y008997D01*
X014718Y009021D01*
X014773Y009048D01*
X014827Y009078D01*
X014878Y009111D01*
X014928Y009148D01*
X014975Y009187D01*
X015020Y009229D01*
X015062Y009274D01*
X015101Y009321D01*
X015138Y009371D01*
X015171Y009422D01*
X015201Y009476D01*
X015228Y009531D01*
X015252Y009588D01*
X015272Y009646D01*
X015288Y009705D01*
X015301Y009766D01*
X015311Y009826D01*
X015316Y009888D01*
X015318Y009949D01*
X015123Y009949D02*
X015121Y009893D01*
X015115Y009837D01*
X015106Y009782D01*
X015092Y009727D01*
X015075Y009673D01*
X015055Y009621D01*
X015031Y009570D01*
X015003Y009521D01*
X014972Y009474D01*
X014938Y009430D01*
X014901Y009387D01*
X014862Y009348D01*
X014819Y009311D01*
X014775Y009277D01*
X014728Y009246D01*
X014679Y009218D01*
X014628Y009194D01*
X014576Y009174D01*
X014522Y009157D01*
X014467Y009143D01*
X014412Y009134D01*
X014356Y009128D01*
X014300Y009126D01*
X011660Y009126D01*
X011660Y008931D02*
X014300Y008931D01*
X014860Y008158D02*
X014898Y008137D01*
X015873Y008137D01*
X016311Y007699D01*
X016360Y007668D01*
X016360Y007650D01*
X016604Y007406D01*
X018798Y007406D01*
X018817Y007384D01*
X018798Y007114D02*
X018817Y007069D01*
X018798Y007114D02*
X016896Y007114D01*
X016360Y006577D01*
X016360Y006549D01*
X016311Y006529D01*
X015921Y006139D01*
X014898Y006139D01*
X014860Y006099D01*
X014849Y006139D01*
X013435Y006139D01*
X013411Y006109D01*
X011398Y007315D02*
X011398Y008669D01*
X011203Y008669D02*
X011203Y008370D01*
X011397Y008669D02*
X011399Y008701D01*
X011405Y008732D01*
X011414Y008762D01*
X011427Y008791D01*
X011444Y008818D01*
X011463Y008843D01*
X011486Y008866D01*
X011511Y008885D01*
X011538Y008902D01*
X011567Y008915D01*
X011597Y008924D01*
X011628Y008930D01*
X011660Y008932D01*
X011660Y009127D02*
X011620Y009125D01*
X011580Y009120D01*
X011541Y009111D01*
X011503Y009099D01*
X011466Y009084D01*
X011431Y009066D01*
X011397Y009044D01*
X011366Y009020D01*
X011336Y008993D01*
X011309Y008963D01*
X011285Y008932D01*
X011263Y008898D01*
X011245Y008863D01*
X011230Y008826D01*
X011218Y008788D01*
X011209Y008749D01*
X011204Y008709D01*
X011202Y008669D01*
X011202Y008370D02*
X011200Y008307D01*
X011194Y008243D01*
X011185Y008181D01*
X011171Y008118D01*
X011154Y008057D01*
X011134Y007997D01*
X011109Y007939D01*
X011082Y007882D01*
X011050Y007826D01*
X011016Y007773D01*
X010978Y007722D01*
X010938Y007673D01*
X010894Y007627D01*
X010848Y007583D01*
X010799Y007543D01*
X010748Y007505D01*
X010695Y007471D01*
X010639Y007439D01*
X010582Y007412D01*
X010524Y007387D01*
X010464Y007367D01*
X010403Y007350D01*
X010340Y007336D01*
X010278Y007327D01*
X010214Y007321D01*
X010151Y007319D01*
X011397Y007315D02*
X011395Y007245D01*
X011389Y007175D01*
X011379Y007106D01*
X011366Y007038D01*
X011348Y006970D01*
X011327Y006903D01*
X011302Y006838D01*
X011274Y006774D01*
X011242Y006712D01*
X011206Y006652D01*
X011167Y006594D01*
X011125Y006538D01*
X011080Y006485D01*
X011032Y006434D01*
X010981Y006386D01*
X010928Y006341D01*
X010872Y006299D01*
X010814Y006260D01*
X010754Y006224D01*
X010692Y006192D01*
X010628Y006164D01*
X010563Y006139D01*
X010496Y006118D01*
X010428Y006100D01*
X010360Y006087D01*
X010291Y006077D01*
X010221Y006071D01*
X010151Y006069D01*
X009681Y005602D02*
X009681Y007845D01*
X009828Y007991D01*
X009049Y007319D02*
X008999Y007260D01*
X008560Y006821D01*
X006366Y006821D01*
X006318Y006870D01*
X006281Y006884D01*
X006318Y007162D02*
X006281Y007199D01*
X006318Y007162D02*
X008463Y007162D01*
X009020Y007309D02*
X009049Y007319D01*
X008999Y006139D02*
X007341Y006139D01*
X006951Y006529D01*
X006318Y006529D01*
X006281Y006569D01*
X006366Y005554D02*
X006756Y005554D01*
X007683Y004627D01*
X007683Y003165D01*
X009049Y006069D02*
X008999Y006139D01*
X009020Y006109D02*
X009049Y006069D01*
X013411Y008109D02*
X013435Y008137D01*
X014849Y008137D01*
X014860Y008158D01*
X017530Y008332D02*
X018798Y008332D01*
X018817Y008328D01*
X018261Y008674D02*
X018505Y008917D01*
X019724Y008917D01*
X019821Y009015D01*
X019821Y009307D01*
X019840Y009352D01*
X019525Y009352D02*
X019480Y009307D01*
X019285Y009112D01*
X017920Y009112D01*
X017871Y008674D02*
X018261Y008674D01*
X020163Y009064D02*
X020163Y009307D01*
X020155Y009352D01*
X020163Y009064D02*
X020894Y008332D01*
X020894Y007747D01*
X021820Y007894D02*
X022673Y008747D01*
X022405Y009015D01*
X022405Y009307D01*
X022360Y009352D01*
X022045Y009352D02*
X022033Y009354D01*
X022022Y009358D01*
X022012Y009366D01*
X022004Y009376D01*
X022000Y009387D01*
X021998Y009399D01*
X022673Y008747D02*
X022746Y008674D01*
X023380Y008674D01*
X023383Y008643D01*
X023383Y008014D02*
X023429Y007991D01*
X024160Y007991D01*
X025086Y007065D01*
X025100Y007017D01*
X024306Y006431D02*
X024306Y006041D01*
X024306Y006431D02*
X023673Y007065D01*
X023429Y007065D01*
X023383Y007069D01*
X023429Y007357D02*
X023383Y007384D01*
X023429Y007357D02*
X023721Y007357D01*
X025135Y005944D01*
X025109Y005909D01*
X026211Y005909D02*
X026256Y005895D01*
X026403Y005749D01*
X027816Y005749D01*
X027860Y005722D01*
X025769Y004091D02*
X021820Y004091D01*
X021576Y004335D01*
X021235Y004335D01*
X021138Y004432D01*
X021138Y004774D01*
X021100Y004785D01*
X020785Y004785D02*
X020748Y004774D01*
X020748Y004189D01*
X020016Y003457D01*
X017238Y003457D01*
X016799Y003019D01*
X016994Y002239D02*
X018408Y002239D01*
X019431Y001215D01*
X019724Y001215D01*
X019725Y001194D01*
X019188Y001410D01*
X018846Y001069D01*
X019578Y001849D02*
X020016Y002287D01*
X021284Y002287D01*
X021528Y002531D01*
X021528Y003896D01*
X022675Y004785D02*
X022698Y004774D01*
X024989Y004774D01*
X025086Y004676D01*
X025109Y004629D01*
X025769Y004091D02*
X027231Y002629D01*
X031375Y002629D01*
X031400Y002599D01*
X024745Y001849D02*
X020016Y001849D01*
X020016Y003896D02*
X019821Y004091D01*
X019821Y004725D01*
X019840Y004785D01*
X019870Y004822D01*
X019870Y005115D01*
X020211Y005456D01*
X023380Y005456D01*
X023383Y005494D01*
X023383Y006124D02*
X023380Y006139D01*
X022795Y006139D01*
X021918Y007016D01*
X021918Y007455D02*
X022600Y006772D01*
X023380Y006772D01*
X023383Y006754D01*
X025428Y008722D02*
X024404Y009746D01*
X024306Y009746D01*
X023965Y010087D01*
X023965Y010234D01*
X023526Y010234D02*
X023526Y010380D01*
X023526Y010234D02*
X024160Y009600D01*
X024160Y009551D01*
X024306Y009405D01*
X023868Y010770D02*
X023331Y010770D01*
X023868Y010770D02*
X024014Y010916D01*
X024063Y010916D01*
X024599Y011452D01*
X024620Y011480D01*
X025964Y012232D02*
X025964Y014329D01*
X025930Y014329D01*
X024580Y014540D02*
X024253Y014212D01*
X024014Y014212D01*
X023707Y014212D01*
X023209Y013427D02*
X023429Y013207D01*
X024355Y013207D01*
X024550Y013402D01*
X024580Y013437D01*
X025964Y012232D02*
X026549Y011647D01*
X026793Y011647D01*
X026830Y011629D01*
X026830Y012129D02*
X026841Y012135D01*
X026939Y012232D01*
X026939Y012525D01*
X027963Y011355D02*
X028694Y012086D01*
X028986Y012086D01*
X029000Y012129D01*
X029000Y011629D02*
X029035Y011599D01*
X029279Y011599D01*
X029864Y011014D01*
X030644Y011014D01*
X030890Y011309D02*
X030888Y011355D01*
X030156Y011355D01*
X029913Y011599D01*
X029913Y013792D01*
X030351Y014231D01*
X030390Y014249D01*
X031570Y011842D02*
X033276Y011842D01*
X033310Y011809D01*
X032496Y010965D02*
X037908Y010965D01*
X038346Y011404D01*
X038493Y011404D01*
X037692Y013035D02*
X037664Y013061D01*
X037469Y013256D01*
X037420Y013256D01*
X037274Y013402D01*
X037692Y013527D02*
X037713Y013549D01*
X037713Y013695D01*
X037810Y013792D01*
X040101Y013792D01*
X040394Y013500D01*
X040420Y013469D01*
X034035Y009744D02*
X034008Y009697D01*
X032204Y009697D01*
X031180Y008674D01*
X031165Y008664D01*
X028743Y011599D02*
X027329Y010185D01*
X027329Y009405D01*
X027320Y009360D01*
X028743Y011599D02*
X028986Y011599D01*
X029000Y011629D01*
X018817Y006124D02*
X018798Y006090D01*
X017920Y006090D01*
X018505Y005797D02*
X017920Y005212D01*
X018505Y005797D02*
X018798Y005797D01*
X018817Y005809D01*
X017871Y006772D02*
X014849Y003750D01*
X014751Y003750D01*
D42*
X035580Y012549D03*
M02*
