%
M48
M72
T01C0.0197
T02C0.0236
T03C0.0276
T04C0.0350
T05C0.0354
T06C0.0400
T07C0.0440
%
T01
X7683Y3165
X10413Y5212
X8463Y7162
X9828Y7991
X6366Y5554
X14751Y3750
X16799Y3019
X16994Y2239
X18846Y1069
X19578Y1849
X20016Y1849
X21186Y2629
X21528Y3896
X20016Y3896
X17920Y5212
X17920Y6090
X17871Y6772
X17530Y8332
X17871Y8674
X17920Y9112
X19480Y10234
X19188Y10819
X15970Y9454
X15629Y9892
X13971Y12135
X11193Y12086
X9389Y14134
X8268Y12086
X7488Y12086
X17725Y13159
X22259Y12476
X24063Y10916
X23331Y10770
X23526Y10380
X23965Y10234
X24306Y9405
X25428Y8722
X21820Y7894
X21918Y7455
X21918Y7016
X20894Y7747
X20455Y7650
X20260Y6772
X24306Y6041
X24745Y1849
X30205Y7455
X32496Y10965
X31570Y11842
X30254Y11696
X27963Y11355
X27475Y11257
X26939Y12525
X35580Y12549
X37225Y12330
X38493Y11404
T02
X13100Y9569
T03
X34035Y9744
X34535Y9744
X35035Y9744
X35535Y9744
X36035Y9744
X36535Y9744
X37035Y9744
X37535Y9744
X38035Y9744
X38535Y9744
X39035Y9744
X39535Y9744
X40035Y9744
X40535Y9744
X40535Y3744
X40035Y3744
X39535Y3744
X39035Y3744
X38535Y3744
X38035Y3744
X37535Y3744
X37035Y3744
X36535Y3744
X36035Y3744
X35535Y3744
X35035Y3744
X34535Y3744
X34035Y3744
T04
X15600Y2069
X13600Y2469
X13600Y1669
T05
X5100Y5702
X5100Y7435
T06
X4600Y1519
X4600Y2619
X20200Y13559
X20200Y14659
X25930Y14329
X27030Y14329
X30390Y14249
X31490Y14249
X33890Y14329
X34990Y14329
X40420Y13469
X40520Y14469
X40520Y12469
X40420Y11469
X27010Y1929
X25910Y1929
T07
X12020Y13989
X11020Y13989
X10020Y13989
X5980Y14029
X4980Y14029
X3980Y14029
M30
