G75*
%MOIN*%
%OFA0B0*%
%FSLAX24Y24*%
%IPPOS*%
%LPD*%
%AMOC8*
5,1,8,0,0,1.08239X$1,22.5*
%
%ADD10C,0.0000*%
%ADD11C,0.0276*%
%ADD12C,0.0350*%
%ADD13C,0.0390*%
%ADD14R,0.0749X0.0670*%
%ADD15R,0.0512X0.0591*%
%ADD16R,0.0670X0.0552*%
%ADD17C,0.0394*%
%ADD18R,0.0552X0.0631*%
%ADD19R,0.0512X0.0512*%
%ADD20R,0.0631X0.0552*%
%ADD21C,0.0640*%
%ADD22R,0.0670X0.0749*%
%ADD23C,0.0453*%
%ADD24C,0.0780*%
D10*
X003060Y000249D02*
X003140Y015625D01*
X041550Y015625D01*
X041510Y000209D01*
X003060Y000249D01*
X004923Y005702D02*
X004925Y005728D01*
X004931Y005754D01*
X004941Y005779D01*
X004954Y005802D01*
X004970Y005822D01*
X004990Y005840D01*
X005012Y005855D01*
X005035Y005867D01*
X005061Y005875D01*
X005087Y005879D01*
X005113Y005879D01*
X005139Y005875D01*
X005165Y005867D01*
X005189Y005855D01*
X005210Y005840D01*
X005230Y005822D01*
X005246Y005802D01*
X005259Y005779D01*
X005269Y005754D01*
X005275Y005728D01*
X005277Y005702D01*
X005275Y005676D01*
X005269Y005650D01*
X005259Y005625D01*
X005246Y005602D01*
X005230Y005582D01*
X005210Y005564D01*
X005188Y005549D01*
X005165Y005537D01*
X005139Y005529D01*
X005113Y005525D01*
X005087Y005525D01*
X005061Y005529D01*
X005035Y005537D01*
X005011Y005549D01*
X004990Y005564D01*
X004970Y005582D01*
X004954Y005602D01*
X004941Y005625D01*
X004931Y005650D01*
X004925Y005676D01*
X004923Y005702D01*
X004923Y007435D02*
X004925Y007461D01*
X004931Y007487D01*
X004941Y007512D01*
X004954Y007535D01*
X004970Y007555D01*
X004990Y007573D01*
X005012Y007588D01*
X005035Y007600D01*
X005061Y007608D01*
X005087Y007612D01*
X005113Y007612D01*
X005139Y007608D01*
X005165Y007600D01*
X005189Y007588D01*
X005210Y007573D01*
X005230Y007555D01*
X005246Y007535D01*
X005259Y007512D01*
X005269Y007487D01*
X005275Y007461D01*
X005277Y007435D01*
X005275Y007409D01*
X005269Y007383D01*
X005259Y007358D01*
X005246Y007335D01*
X005230Y007315D01*
X005210Y007297D01*
X005188Y007282D01*
X005165Y007270D01*
X005139Y007262D01*
X005113Y007258D01*
X005087Y007258D01*
X005061Y007262D01*
X005035Y007270D01*
X005011Y007282D01*
X004990Y007297D01*
X004970Y007315D01*
X004954Y007335D01*
X004941Y007358D01*
X004931Y007383D01*
X004925Y007409D01*
X004923Y007435D01*
X012982Y009569D02*
X012984Y009590D01*
X012990Y009610D01*
X012999Y009630D01*
X013011Y009647D01*
X013026Y009661D01*
X013044Y009673D01*
X013064Y009681D01*
X013084Y009686D01*
X013105Y009687D01*
X013126Y009684D01*
X013146Y009678D01*
X013165Y009667D01*
X013182Y009654D01*
X013195Y009638D01*
X013206Y009620D01*
X013214Y009600D01*
X013218Y009580D01*
X013218Y009558D01*
X013214Y009538D01*
X013206Y009518D01*
X013195Y009500D01*
X013182Y009484D01*
X013165Y009471D01*
X013146Y009460D01*
X013126Y009454D01*
X013105Y009451D01*
X013084Y009452D01*
X013064Y009457D01*
X013044Y009465D01*
X013026Y009477D01*
X013011Y009491D01*
X012999Y009508D01*
X012990Y009528D01*
X012984Y009548D01*
X012982Y009569D01*
X013425Y002469D02*
X013427Y002495D01*
X013433Y002521D01*
X013442Y002545D01*
X013455Y002568D01*
X013472Y002588D01*
X013491Y002606D01*
X013513Y002621D01*
X013536Y002632D01*
X013561Y002640D01*
X013587Y002644D01*
X013613Y002644D01*
X013639Y002640D01*
X013664Y002632D01*
X013688Y002621D01*
X013709Y002606D01*
X013728Y002588D01*
X013745Y002568D01*
X013758Y002545D01*
X013767Y002521D01*
X013773Y002495D01*
X013775Y002469D01*
X013773Y002443D01*
X013767Y002417D01*
X013758Y002393D01*
X013745Y002370D01*
X013728Y002350D01*
X013709Y002332D01*
X013687Y002317D01*
X013664Y002306D01*
X013639Y002298D01*
X013613Y002294D01*
X013587Y002294D01*
X013561Y002298D01*
X013536Y002306D01*
X013512Y002317D01*
X013491Y002332D01*
X013472Y002350D01*
X013455Y002370D01*
X013442Y002393D01*
X013433Y002417D01*
X013427Y002443D01*
X013425Y002469D01*
X013425Y001669D02*
X013427Y001695D01*
X013433Y001721D01*
X013442Y001745D01*
X013455Y001768D01*
X013472Y001788D01*
X013491Y001806D01*
X013513Y001821D01*
X013536Y001832D01*
X013561Y001840D01*
X013587Y001844D01*
X013613Y001844D01*
X013639Y001840D01*
X013664Y001832D01*
X013688Y001821D01*
X013709Y001806D01*
X013728Y001788D01*
X013745Y001768D01*
X013758Y001745D01*
X013767Y001721D01*
X013773Y001695D01*
X013775Y001669D01*
X013773Y001643D01*
X013767Y001617D01*
X013758Y001593D01*
X013745Y001570D01*
X013728Y001550D01*
X013709Y001532D01*
X013687Y001517D01*
X013664Y001506D01*
X013639Y001498D01*
X013613Y001494D01*
X013587Y001494D01*
X013561Y001498D01*
X013536Y001506D01*
X013512Y001517D01*
X013491Y001532D01*
X013472Y001550D01*
X013455Y001570D01*
X013442Y001593D01*
X013433Y001617D01*
X013427Y001643D01*
X013425Y001669D01*
X015425Y002069D02*
X015427Y002095D01*
X015433Y002121D01*
X015442Y002145D01*
X015455Y002168D01*
X015472Y002188D01*
X015491Y002206D01*
X015513Y002221D01*
X015536Y002232D01*
X015561Y002240D01*
X015587Y002244D01*
X015613Y002244D01*
X015639Y002240D01*
X015664Y002232D01*
X015688Y002221D01*
X015709Y002206D01*
X015728Y002188D01*
X015745Y002168D01*
X015758Y002145D01*
X015767Y002121D01*
X015773Y002095D01*
X015775Y002069D01*
X015773Y002043D01*
X015767Y002017D01*
X015758Y001993D01*
X015745Y001970D01*
X015728Y001950D01*
X015709Y001932D01*
X015687Y001917D01*
X015664Y001906D01*
X015639Y001898D01*
X015613Y001894D01*
X015587Y001894D01*
X015561Y001898D01*
X015536Y001906D01*
X015512Y001917D01*
X015491Y001932D01*
X015472Y001950D01*
X015455Y001970D01*
X015442Y001993D01*
X015433Y002017D01*
X015427Y002043D01*
X015425Y002069D01*
D11*
X013100Y009569D03*
D12*
X014100Y002319D03*
X014600Y002319D03*
X015100Y002319D03*
X015100Y001819D03*
X014600Y001819D03*
X014100Y001819D03*
D13*
X013600Y001669D03*
X013600Y002469D03*
X015600Y002069D03*
D14*
X011100Y002620D03*
X011100Y001517D03*
X009600Y001517D03*
X009600Y002620D03*
X009600Y006017D03*
X009600Y007120D03*
X022100Y002620D03*
X022100Y001517D03*
D15*
X008191Y001069D03*
X007009Y001069D03*
X007009Y002069D03*
X008191Y002069D03*
X008191Y003069D03*
X007009Y003069D03*
D16*
X020600Y002443D03*
X020600Y001695D03*
D17*
X005100Y005702D03*
X005100Y007435D03*
D18*
X034396Y002479D03*
X035144Y002479D03*
X035144Y001479D03*
X034396Y001479D03*
D19*
X035770Y007315D03*
X036770Y007315D03*
X037770Y007315D03*
X037770Y008142D03*
X036770Y008142D03*
X035770Y008142D03*
D20*
X035770Y006103D03*
X036770Y006103D03*
X037770Y006103D03*
X037770Y005355D03*
X036770Y005355D03*
X035770Y005355D03*
D21*
X027010Y002229D02*
X027010Y001629D01*
X025910Y001629D02*
X025910Y002229D01*
X040120Y011469D02*
X040720Y011469D01*
X040820Y012469D02*
X040220Y012469D01*
X040120Y013469D02*
X040720Y013469D01*
X040820Y014469D02*
X040220Y014469D01*
X034990Y014629D02*
X034990Y014029D01*
X033890Y014029D02*
X033890Y014629D01*
X031490Y014549D02*
X031490Y013949D01*
X030390Y013949D02*
X030390Y014549D01*
X027030Y014629D02*
X027030Y014029D01*
X025930Y014029D02*
X025930Y014629D01*
X020500Y014659D02*
X019900Y014659D01*
X019900Y013559D02*
X020500Y013559D01*
X004900Y002619D02*
X004300Y002619D01*
X004300Y001519D02*
X004900Y001519D01*
D22*
X027489Y010629D03*
X028591Y010629D03*
X028591Y012129D03*
X027489Y012129D03*
X036649Y011829D03*
X037751Y011829D03*
X037751Y012829D03*
X036649Y012829D03*
X036649Y013829D03*
X037751Y013829D03*
D23*
X037535Y009950D02*
X037535Y009537D01*
X037035Y009537D02*
X037035Y009950D01*
X036535Y009950D02*
X036535Y009537D01*
X036035Y009537D02*
X036035Y009950D01*
X035535Y009950D02*
X035535Y009537D01*
X035035Y009537D02*
X035035Y009950D01*
X034535Y009950D02*
X034535Y009537D01*
X034035Y009537D02*
X034035Y009950D01*
X038035Y009950D02*
X038035Y009537D01*
X038535Y009537D02*
X038535Y009950D01*
X039035Y009950D02*
X039035Y009537D01*
X039535Y009537D02*
X039535Y009950D01*
X040035Y009950D02*
X040035Y009537D01*
X040535Y009537D02*
X040535Y009950D01*
X040535Y003950D02*
X040535Y003537D01*
X040035Y003537D02*
X040035Y003950D01*
X039535Y003950D02*
X039535Y003537D01*
X039035Y003537D02*
X039035Y003950D01*
X038535Y003950D02*
X038535Y003537D01*
X038035Y003537D02*
X038035Y003950D01*
X037535Y003950D02*
X037535Y003537D01*
X037035Y003537D02*
X037035Y003950D01*
X036535Y003950D02*
X036535Y003537D01*
X036035Y003537D02*
X036035Y003950D01*
X035535Y003950D02*
X035535Y003537D01*
X035035Y003537D02*
X035035Y003950D01*
X034535Y003950D02*
X034535Y003537D01*
X034035Y003537D02*
X034035Y003950D01*
D24*
X012020Y013619D02*
X012020Y014359D01*
X011020Y014359D02*
X011020Y013619D01*
X010020Y013619D02*
X010020Y014359D01*
X005980Y014399D02*
X005980Y013659D01*
X004980Y013659D02*
X004980Y014399D01*
X003980Y014399D02*
X003980Y013659D01*
M02*
