G75*
%MOIN*%
%OFA0B0*%
%FSLAX24Y24*%
%IPPOS*%
%LPD*%
%AMOC8*
5,1,8,0,0,1.08239X$1,22.5*
%
%ADD10R,0.0709X0.0630*%
%ADD11R,0.0472X0.0551*%
%ADD12R,0.0630X0.0512*%
%ADD13R,0.0512X0.0591*%
%ADD14R,0.0472X0.0472*%
%ADD15R,0.0591X0.0512*%
%ADD16R,0.0630X0.0709*%
D10*
X009600Y001517D03*
X009600Y002620D03*
X011100Y002620D03*
X011100Y001517D03*
X009600Y006017D03*
X009600Y007120D03*
X022100Y002620D03*
X022100Y001517D03*
D11*
X007009Y001069D03*
X008191Y001069D03*
X008191Y002069D03*
X007009Y002069D03*
X007009Y003069D03*
X008191Y003069D03*
D12*
X020600Y002443D03*
X020600Y001695D03*
D13*
X034396Y001479D03*
X035144Y001479D03*
X035144Y002479D03*
X034396Y002479D03*
D14*
X035770Y007315D03*
X036770Y007315D03*
X037770Y007315D03*
X037770Y008142D03*
X036770Y008142D03*
X035770Y008142D03*
D15*
X035770Y006103D03*
X036770Y006103D03*
X037770Y006103D03*
X037770Y005355D03*
X036770Y005355D03*
X035770Y005355D03*
D16*
X028591Y010629D03*
X027489Y010629D03*
X027489Y012129D03*
X028591Y012129D03*
X036649Y011829D03*
X037751Y011829D03*
X037751Y012829D03*
X036649Y012829D03*
X036649Y013829D03*
X037751Y013829D03*
M02*
