G75*
%MOIN*%
%OFA0B0*%
%FSLAX24Y24*%
%IPPOS*%
%LPD*%
%AMOC8*
5,1,8,0,0,1.08239X$1,22.5*
%
%ADD10R,0.0512X0.0591*%
%ADD11R,0.0709X0.0630*%
%ADD12R,0.0197X0.0591*%
%ADD13R,0.0591X0.0197*%
%ADD14R,0.1250X0.0750*%
%ADD15R,0.0630X0.0709*%
%ADD16R,0.0710X0.0630*%
%ADD17R,0.1181X0.0984*%
%ADD18R,0.0984X0.0787*%
%ADD19R,0.1299X0.0787*%
%ADD20R,0.1220X0.0197*%
%ADD21R,0.0630X0.0787*%
%ADD22R,0.0790X0.0590*%
%ADD23R,0.0790X0.1500*%
%ADD24R,0.0750X0.1250*%
%ADD25R,0.0787X0.0630*%
%ADD26R,0.0800X0.0260*%
%ADD27R,0.0551X0.0472*%
%ADD28R,0.0551X0.1378*%
%ADD29R,0.0472X0.0551*%
%ADD30R,0.1378X0.0551*%
%ADD31R,0.0394X0.0177*%
%ADD32R,0.0472X0.0197*%
%ADD33R,0.0500X0.0250*%
%ADD34R,0.0472X0.0472*%
D10*
X012306Y010989D03*
X013054Y010989D03*
D11*
X010600Y011017D03*
X010600Y012120D03*
X025100Y008120D03*
X025100Y007017D03*
D12*
X022675Y004785D03*
X022360Y004785D03*
X022045Y004785D03*
X021730Y004785D03*
X021415Y004785D03*
X021100Y004785D03*
X020785Y004785D03*
X020470Y004785D03*
X020155Y004785D03*
X019840Y004785D03*
X019525Y004785D03*
X019525Y009352D03*
X019840Y009352D03*
X020155Y009352D03*
X020470Y009352D03*
X020785Y009352D03*
X021100Y009352D03*
X021415Y009352D03*
X021730Y009352D03*
X022045Y009352D03*
X022360Y009352D03*
X022675Y009352D03*
D13*
X023383Y008643D03*
X023383Y008328D03*
X023383Y008014D03*
X023383Y007699D03*
X023383Y007384D03*
X023383Y007069D03*
X023383Y006754D03*
X023383Y006439D03*
X023383Y006124D03*
X023383Y005809D03*
X023383Y005494D03*
X018817Y005494D03*
X018817Y005809D03*
X018817Y006124D03*
X018817Y006439D03*
X018817Y006754D03*
X018817Y007069D03*
X018817Y007384D03*
X018817Y007699D03*
X018817Y008014D03*
X018817Y008328D03*
X018817Y008643D03*
D14*
X019725Y002944D03*
X019725Y001194D03*
X022475Y001194D03*
X022475Y002944D03*
D15*
X013411Y006109D03*
X012309Y006109D03*
X012309Y008109D03*
X013411Y008109D03*
X009151Y011069D03*
X008049Y011069D03*
X020074Y010549D03*
X021176Y010549D03*
D16*
X016360Y007668D03*
X016360Y006549D03*
D17*
X014860Y006099D03*
X014860Y008158D03*
D18*
X003919Y004817D03*
X003919Y008321D03*
D19*
X006242Y008321D03*
X006242Y004817D03*
D20*
X006281Y005939D03*
X006281Y006254D03*
X006281Y006569D03*
X006281Y006884D03*
X006281Y007199D03*
D21*
X009049Y007319D03*
X010151Y007319D03*
X010151Y006069D03*
X009049Y006069D03*
X025109Y005909D03*
X026211Y005909D03*
X026211Y004629D03*
X025109Y004629D03*
D22*
X006840Y010179D03*
X006840Y011079D03*
X006840Y011979D03*
D23*
X004360Y011069D03*
D24*
X029415Y008664D03*
X031165Y008664D03*
X031165Y005914D03*
X029415Y005914D03*
D25*
X027320Y008257D03*
X027320Y009360D03*
X024620Y010377D03*
X024620Y011480D03*
X024580Y013437D03*
X024580Y014540D03*
X008820Y014700D03*
X008820Y013597D03*
X007580Y013597D03*
X007580Y014700D03*
D26*
X026830Y012129D03*
X026830Y011629D03*
X026830Y011129D03*
X026830Y010629D03*
X029000Y010629D03*
X029000Y011129D03*
X029000Y011629D03*
X029000Y012129D03*
X030890Y012309D03*
X030890Y011809D03*
X030890Y011309D03*
X030890Y012809D03*
X033310Y012809D03*
X033310Y012309D03*
X033310Y011809D03*
X033310Y011309D03*
D27*
X031400Y004418D03*
X031400Y003509D03*
X031400Y002599D03*
D28*
X028960Y003509D03*
D29*
X018610Y012169D03*
X017700Y012169D03*
X016790Y012169D03*
D30*
X017700Y014609D03*
D31*
X022093Y014212D03*
X022093Y013957D03*
X022093Y013701D03*
X022093Y013445D03*
X023707Y013445D03*
X023707Y013701D03*
X023707Y013957D03*
X023707Y014212D03*
D32*
X036748Y013527D03*
X036748Y013035D03*
X036748Y012543D03*
X036748Y012050D03*
X037692Y012050D03*
X037692Y012543D03*
X037692Y013035D03*
X037692Y013527D03*
D33*
X038131Y013524D03*
X038126Y013027D03*
X038125Y012546D03*
X038122Y012041D03*
X036329Y012040D03*
X036322Y012549D03*
X036316Y013029D03*
X036320Y013527D03*
D34*
X027860Y005722D03*
X027860Y004895D03*
M02*
