G75*
%MOIN*%
%OFA0B0*%
%FSLAX24Y24*%
%IPPOS*%
%LPD*%
%AMOC8*
5,1,8,0,0,1.08239X$1,22.5*
%
%ADD10C,0.0000*%
%ADD11C,0.0310*%
%ADD12R,0.0709X0.0630*%
%ADD13R,0.0472X0.0551*%
%ADD14R,0.0630X0.0512*%
%ADD15R,0.0512X0.0591*%
%ADD16R,0.0472X0.0472*%
%ADD17R,0.0591X0.0512*%
%ADD18C,0.0600*%
%ADD19R,0.0630X0.0709*%
%ADD20C,0.0413*%
%ADD21C,0.0740*%
%ADD22C,0.0240*%
%ADD23C,0.0317*%
%ADD24C,0.0120*%
%ADD25C,0.0180*%
%ADD26R,0.0317X0.0317*%
D10*
X003060Y000249D02*
X003140Y015625D01*
X041550Y015625D01*
X041510Y000209D01*
X003060Y000249D01*
X004923Y005702D02*
X004925Y005728D01*
X004931Y005754D01*
X004941Y005779D01*
X004954Y005802D01*
X004970Y005822D01*
X004990Y005840D01*
X005012Y005855D01*
X005035Y005867D01*
X005061Y005875D01*
X005087Y005879D01*
X005113Y005879D01*
X005139Y005875D01*
X005165Y005867D01*
X005189Y005855D01*
X005210Y005840D01*
X005230Y005822D01*
X005246Y005802D01*
X005259Y005779D01*
X005269Y005754D01*
X005275Y005728D01*
X005277Y005702D01*
X005275Y005676D01*
X005269Y005650D01*
X005259Y005625D01*
X005246Y005602D01*
X005230Y005582D01*
X005210Y005564D01*
X005188Y005549D01*
X005165Y005537D01*
X005139Y005529D01*
X005113Y005525D01*
X005087Y005525D01*
X005061Y005529D01*
X005035Y005537D01*
X005011Y005549D01*
X004990Y005564D01*
X004970Y005582D01*
X004954Y005602D01*
X004941Y005625D01*
X004931Y005650D01*
X004925Y005676D01*
X004923Y005702D01*
X004923Y007435D02*
X004925Y007461D01*
X004931Y007487D01*
X004941Y007512D01*
X004954Y007535D01*
X004970Y007555D01*
X004990Y007573D01*
X005012Y007588D01*
X005035Y007600D01*
X005061Y007608D01*
X005087Y007612D01*
X005113Y007612D01*
X005139Y007608D01*
X005165Y007600D01*
X005189Y007588D01*
X005210Y007573D01*
X005230Y007555D01*
X005246Y007535D01*
X005259Y007512D01*
X005269Y007487D01*
X005275Y007461D01*
X005277Y007435D01*
X005275Y007409D01*
X005269Y007383D01*
X005259Y007358D01*
X005246Y007335D01*
X005230Y007315D01*
X005210Y007297D01*
X005188Y007282D01*
X005165Y007270D01*
X005139Y007262D01*
X005113Y007258D01*
X005087Y007258D01*
X005061Y007262D01*
X005035Y007270D01*
X005011Y007282D01*
X004990Y007297D01*
X004970Y007315D01*
X004954Y007335D01*
X004941Y007358D01*
X004931Y007383D01*
X004925Y007409D01*
X004923Y007435D01*
X012982Y009569D02*
X012984Y009590D01*
X012990Y009610D01*
X012999Y009630D01*
X013011Y009647D01*
X013026Y009661D01*
X013044Y009673D01*
X013064Y009681D01*
X013084Y009686D01*
X013105Y009687D01*
X013126Y009684D01*
X013146Y009678D01*
X013165Y009667D01*
X013182Y009654D01*
X013195Y009638D01*
X013206Y009620D01*
X013214Y009600D01*
X013218Y009580D01*
X013218Y009558D01*
X013214Y009538D01*
X013206Y009518D01*
X013195Y009500D01*
X013182Y009484D01*
X013165Y009471D01*
X013146Y009460D01*
X013126Y009454D01*
X013105Y009451D01*
X013084Y009452D01*
X013064Y009457D01*
X013044Y009465D01*
X013026Y009477D01*
X013011Y009491D01*
X012999Y009508D01*
X012990Y009528D01*
X012984Y009548D01*
X012982Y009569D01*
X013425Y002469D02*
X013427Y002495D01*
X013433Y002521D01*
X013442Y002545D01*
X013455Y002568D01*
X013472Y002588D01*
X013491Y002606D01*
X013513Y002621D01*
X013536Y002632D01*
X013561Y002640D01*
X013587Y002644D01*
X013613Y002644D01*
X013639Y002640D01*
X013664Y002632D01*
X013688Y002621D01*
X013709Y002606D01*
X013728Y002588D01*
X013745Y002568D01*
X013758Y002545D01*
X013767Y002521D01*
X013773Y002495D01*
X013775Y002469D01*
X013773Y002443D01*
X013767Y002417D01*
X013758Y002393D01*
X013745Y002370D01*
X013728Y002350D01*
X013709Y002332D01*
X013687Y002317D01*
X013664Y002306D01*
X013639Y002298D01*
X013613Y002294D01*
X013587Y002294D01*
X013561Y002298D01*
X013536Y002306D01*
X013512Y002317D01*
X013491Y002332D01*
X013472Y002350D01*
X013455Y002370D01*
X013442Y002393D01*
X013433Y002417D01*
X013427Y002443D01*
X013425Y002469D01*
X013425Y001669D02*
X013427Y001695D01*
X013433Y001721D01*
X013442Y001745D01*
X013455Y001768D01*
X013472Y001788D01*
X013491Y001806D01*
X013513Y001821D01*
X013536Y001832D01*
X013561Y001840D01*
X013587Y001844D01*
X013613Y001844D01*
X013639Y001840D01*
X013664Y001832D01*
X013688Y001821D01*
X013709Y001806D01*
X013728Y001788D01*
X013745Y001768D01*
X013758Y001745D01*
X013767Y001721D01*
X013773Y001695D01*
X013775Y001669D01*
X013773Y001643D01*
X013767Y001617D01*
X013758Y001593D01*
X013745Y001570D01*
X013728Y001550D01*
X013709Y001532D01*
X013687Y001517D01*
X013664Y001506D01*
X013639Y001498D01*
X013613Y001494D01*
X013587Y001494D01*
X013561Y001498D01*
X013536Y001506D01*
X013512Y001517D01*
X013491Y001532D01*
X013472Y001550D01*
X013455Y001570D01*
X013442Y001593D01*
X013433Y001617D01*
X013427Y001643D01*
X013425Y001669D01*
X015425Y002069D02*
X015427Y002095D01*
X015433Y002121D01*
X015442Y002145D01*
X015455Y002168D01*
X015472Y002188D01*
X015491Y002206D01*
X015513Y002221D01*
X015536Y002232D01*
X015561Y002240D01*
X015587Y002244D01*
X015613Y002244D01*
X015639Y002240D01*
X015664Y002232D01*
X015688Y002221D01*
X015709Y002206D01*
X015728Y002188D01*
X015745Y002168D01*
X015758Y002145D01*
X015767Y002121D01*
X015773Y002095D01*
X015775Y002069D01*
X015773Y002043D01*
X015767Y002017D01*
X015758Y001993D01*
X015745Y001970D01*
X015728Y001950D01*
X015709Y001932D01*
X015687Y001917D01*
X015664Y001906D01*
X015639Y001898D01*
X015613Y001894D01*
X015587Y001894D01*
X015561Y001898D01*
X015536Y001906D01*
X015512Y001917D01*
X015491Y001932D01*
X015472Y001950D01*
X015455Y001970D01*
X015442Y001993D01*
X015433Y002017D01*
X015427Y002043D01*
X015425Y002069D01*
D11*
X015100Y002319D03*
X014600Y002319D03*
X014100Y002319D03*
X014100Y001819D03*
X014600Y001819D03*
X015100Y001819D03*
D12*
X011100Y001517D03*
X011100Y002620D03*
X009600Y002620D03*
X009600Y001517D03*
X009600Y006017D03*
X009600Y007120D03*
X022100Y002620D03*
X022100Y001517D03*
D13*
X008191Y001069D03*
X007009Y001069D03*
X007009Y002069D03*
X008191Y002069D03*
X008191Y003069D03*
X007009Y003069D03*
D14*
X020600Y002443D03*
X020600Y001695D03*
D15*
X034396Y001479D03*
X035144Y001479D03*
X035144Y002479D03*
X034396Y002479D03*
D16*
X035770Y007315D03*
X036770Y007315D03*
X037770Y007315D03*
X037770Y008142D03*
X036770Y008142D03*
X035770Y008142D03*
D17*
X035770Y006103D03*
X036770Y006103D03*
X037770Y006103D03*
X037770Y005355D03*
X036770Y005355D03*
X035770Y005355D03*
D18*
X027010Y002229D02*
X027010Y001629D01*
X025910Y001629D02*
X025910Y002229D01*
X040120Y011469D02*
X040720Y011469D01*
X040820Y012469D02*
X040220Y012469D01*
X040120Y013469D02*
X040720Y013469D01*
X040820Y014469D02*
X040220Y014469D01*
X034990Y014629D02*
X034990Y014029D01*
X033890Y014029D02*
X033890Y014629D01*
X031490Y014549D02*
X031490Y013949D01*
X030390Y013949D02*
X030390Y014549D01*
X027030Y014629D02*
X027030Y014029D01*
X025930Y014029D02*
X025930Y014629D01*
X020500Y014659D02*
X019900Y014659D01*
X019900Y013559D02*
X020500Y013559D01*
X004900Y002619D02*
X004300Y002619D01*
X004300Y001519D02*
X004900Y001519D01*
D19*
X027489Y010629D03*
X028591Y010629D03*
X028591Y012129D03*
X027489Y012129D03*
X036649Y011829D03*
X037751Y011829D03*
X037751Y012829D03*
X036649Y012829D03*
X036649Y013829D03*
X037751Y013829D03*
D20*
X037535Y009950D02*
X037535Y009537D01*
X037035Y009537D02*
X037035Y009950D01*
X036535Y009950D02*
X036535Y009537D01*
X036035Y009537D02*
X036035Y009950D01*
X035535Y009950D02*
X035535Y009537D01*
X035035Y009537D02*
X035035Y009950D01*
X034535Y009950D02*
X034535Y009537D01*
X034035Y009537D02*
X034035Y009950D01*
X038035Y009950D02*
X038035Y009537D01*
X038535Y009537D02*
X038535Y009950D01*
X039035Y009950D02*
X039035Y009537D01*
X039535Y009537D02*
X039535Y009950D01*
X040035Y009950D02*
X040035Y009537D01*
X040535Y009537D02*
X040535Y009950D01*
X040535Y003950D02*
X040535Y003537D01*
X040035Y003537D02*
X040035Y003950D01*
X039535Y003950D02*
X039535Y003537D01*
X039035Y003537D02*
X039035Y003950D01*
X038535Y003950D02*
X038535Y003537D01*
X038035Y003537D02*
X038035Y003950D01*
X037535Y003950D02*
X037535Y003537D01*
X037035Y003537D02*
X037035Y003950D01*
X036535Y003950D02*
X036535Y003537D01*
X036035Y003537D02*
X036035Y003950D01*
X035535Y003950D02*
X035535Y003537D01*
X035035Y003537D02*
X035035Y003950D01*
X034535Y003950D02*
X034535Y003537D01*
X034035Y003537D02*
X034035Y003950D01*
D21*
X012020Y013619D02*
X012020Y014359D01*
X011020Y014359D02*
X011020Y013619D01*
X010020Y013619D02*
X010020Y014359D01*
X005980Y014399D02*
X005980Y013659D01*
X004980Y013659D02*
X004980Y014399D01*
X003980Y014399D02*
X003980Y013659D01*
D22*
X007878Y005944D02*
X007975Y005992D01*
X009584Y005992D01*
X009600Y006017D01*
X010413Y005212D02*
X010413Y002629D01*
X009633Y002629D01*
X009600Y002620D01*
X010413Y002629D02*
X010998Y002629D01*
X011100Y002620D01*
X011144Y002629D01*
X011388Y002872D01*
X013776Y002872D01*
X014069Y002580D01*
X014069Y002336D01*
X014100Y002319D01*
X007878Y005944D02*
X004563Y002629D01*
X004600Y002619D01*
X004600Y001519D02*
X005050Y001069D01*
X007009Y001069D01*
X021186Y002629D02*
X022064Y002629D01*
X022100Y002620D01*
X027010Y001929D02*
X027036Y001946D01*
X033033Y001946D01*
X034203Y003116D01*
X035714Y003116D01*
X036006Y003409D01*
X036006Y003701D01*
X036035Y003744D01*
X037535Y003744D02*
X037566Y003750D01*
X037566Y005164D01*
X037770Y005355D01*
X037859Y005407D01*
X038103Y005651D01*
X038151Y005651D01*
X041271Y008771D01*
X041271Y012184D01*
X041320Y012232D01*
X041320Y013646D01*
X040589Y014377D01*
X040520Y014469D01*
X040491Y014426D01*
X037371Y014426D01*
X036835Y013890D01*
X036738Y013890D01*
X036649Y013829D01*
X036640Y013792D01*
X036640Y012866D01*
X036649Y012829D01*
X034990Y014329D02*
X034983Y014329D01*
X034154Y015157D01*
X033715Y015157D01*
X032838Y014280D01*
X032935Y014231D01*
X036153Y011014D01*
X039955Y011014D01*
X040394Y011452D01*
X040420Y011469D01*
X032838Y014280D02*
X031521Y014280D01*
X031490Y014249D01*
X030254Y011696D02*
X030254Y011014D01*
X030205Y010916D01*
X030205Y007455D01*
X027489Y010629D02*
X027475Y010672D01*
X027475Y011257D01*
X027378Y011306D01*
X027030Y014329D02*
X026988Y014329D01*
X026159Y015157D01*
X025720Y015157D01*
X025233Y014670D01*
X020211Y014670D01*
X020200Y014659D01*
X035770Y005355D02*
X035811Y005359D01*
X036738Y005359D01*
X036770Y005355D01*
X036884Y005359D01*
X037761Y005359D01*
X037770Y005355D01*
X037566Y005261D01*
D23*
X030205Y007455D03*
X032496Y010965D03*
X031570Y011842D03*
X030254Y011696D03*
X027963Y011355D03*
X027475Y011257D03*
X026939Y012525D03*
X024063Y010916D03*
X023331Y010770D03*
X023526Y010380D03*
X023965Y010234D03*
X024306Y009405D03*
X025428Y008722D03*
X021820Y007894D03*
X021918Y007455D03*
X021918Y007016D03*
X020894Y007747D03*
X020455Y007650D03*
X020260Y006772D03*
X017871Y006772D03*
X017920Y006090D03*
X017920Y005212D03*
X020016Y003896D03*
X021528Y003896D03*
X021186Y002629D03*
X020016Y001849D03*
X019578Y001849D03*
X018846Y001069D03*
X016994Y002239D03*
X016799Y003019D03*
X014751Y003750D03*
X010413Y005212D03*
X008463Y007162D03*
X009828Y007991D03*
X006366Y005554D03*
X007683Y003165D03*
X015970Y009454D03*
X015629Y009892D03*
X017920Y009112D03*
X017871Y008674D03*
X017530Y008332D03*
X019480Y010234D03*
X019188Y010819D03*
X017725Y013159D03*
X013971Y012135D03*
X011193Y012086D03*
X009389Y014134D03*
X008268Y012086D03*
X007488Y012086D03*
X022259Y012476D03*
X024306Y006041D03*
X024745Y001849D03*
X038493Y011404D03*
X037225Y012330D03*
D24*
X036689Y011794D01*
X036649Y011829D01*
X037030Y011306D02*
X037518Y011794D01*
X037713Y011794D01*
X037751Y011829D01*
X037761Y011842D01*
X037761Y012817D01*
X037751Y012829D01*
X037761Y012866D01*
X037761Y013792D01*
X037751Y013829D01*
X035568Y012720D02*
X035580Y012669D01*
X035580Y012549D01*
X035616Y012525D01*
X035616Y011989D01*
X036299Y011306D01*
X037030Y011306D01*
X038493Y011404D02*
X040394Y013305D01*
X040394Y013451D01*
X040420Y013469D01*
X035568Y012720D02*
X033959Y014329D01*
X033890Y014329D01*
X031716Y012184D02*
X032838Y011062D01*
X032838Y009649D01*
X025915Y002726D01*
X025915Y001946D01*
X025910Y001929D01*
X025428Y001459D02*
X025720Y001166D01*
X033081Y001166D01*
X034349Y002434D01*
X034396Y002479D01*
X035144Y002479D02*
X035178Y002482D01*
X035470Y002482D01*
X036494Y003506D01*
X036494Y003701D01*
X036535Y003744D01*
X037030Y003701D02*
X037035Y003744D01*
X037030Y003701D02*
X037030Y003506D01*
X035178Y001654D01*
X035178Y001507D01*
X035144Y001479D01*
X034396Y001479D02*
X034349Y001459D01*
X033861Y000971D01*
X025623Y000971D01*
X024745Y001849D01*
X025428Y001459D02*
X025428Y008722D01*
X024306Y009405D02*
X021918Y007016D01*
X021528Y007114D02*
X020894Y007747D01*
X021186Y007894D02*
X020991Y008089D01*
X020796Y008089D01*
X020455Y007747D01*
X020455Y007650D01*
X020455Y007504D01*
X020796Y007162D01*
X020796Y003896D01*
X020016Y003896D01*
X020796Y003896D02*
X020796Y002677D01*
X020601Y002482D01*
X020600Y002443D01*
X020600Y001695D02*
X020601Y001654D01*
X020748Y001654D01*
X021138Y001264D01*
X021186Y001264D01*
X021430Y001507D01*
X022064Y001507D01*
X022100Y001517D01*
X021138Y001264D02*
X021138Y001069D01*
X020894Y000825D01*
X018846Y000825D01*
X018846Y001069D01*
X018846Y000825D02*
X015093Y000825D01*
X014118Y001800D01*
X014100Y001819D01*
X014600Y001819D02*
X014605Y001800D01*
X014703Y001800D01*
X014995Y001507D01*
X019236Y001507D01*
X019578Y001849D01*
X020016Y001849D02*
X017920Y003945D01*
X017920Y005212D01*
X017140Y006041D02*
X017140Y002385D01*
X016994Y002239D01*
X016896Y001702D02*
X017579Y002385D01*
X017579Y006187D01*
X017823Y006431D01*
X017969Y006431D01*
X018213Y006675D01*
X018213Y008820D01*
X017920Y009112D01*
X017871Y008674D02*
X017871Y006772D01*
X017530Y006431D02*
X017140Y006041D01*
X017530Y006431D02*
X017530Y008332D01*
X019139Y008235D02*
X019139Y010331D01*
X019431Y010624D01*
X023185Y010624D01*
X023331Y010770D01*
X023526Y010380D02*
X019626Y010380D01*
X019480Y010234D01*
X019188Y010819D02*
X020601Y010819D01*
X022259Y012476D01*
X022356Y012817D02*
X022600Y012574D01*
X022600Y011940D01*
X023965Y010575D01*
X024063Y010575D01*
X024306Y010331D01*
X024306Y009941D01*
X021918Y007552D01*
X021918Y007455D01*
X021820Y007894D02*
X021186Y007894D01*
X021528Y007114D02*
X021528Y003896D01*
X024306Y002824D02*
X024306Y006041D01*
X020601Y006675D02*
X020601Y007065D01*
X020114Y007552D01*
X020114Y007747D01*
X022405Y010039D01*
X023770Y010039D01*
X023965Y010234D01*
X024063Y010916D02*
X024111Y010916D01*
X024891Y010136D01*
X027865Y010136D01*
X027963Y010234D01*
X028011Y010234D01*
X028109Y010136D01*
X028986Y010136D01*
X029084Y010234D01*
X029084Y010965D01*
X030156Y012037D01*
X030351Y012037D01*
X030546Y011842D01*
X031570Y011842D01*
X031619Y011842D01*
X032496Y010965D01*
X031716Y012184D02*
X031521Y012184D01*
X028255Y015450D01*
X020016Y015450D01*
X017725Y013159D01*
X015970Y010867D02*
X014166Y012671D01*
X011778Y012671D01*
X011193Y012086D01*
X009998Y012842D02*
X009389Y013451D01*
X009389Y014134D01*
X009998Y012842D02*
X008121Y010965D01*
X008121Y006870D01*
X006464Y005212D01*
X006269Y005212D01*
X003831Y002775D01*
X003831Y001361D01*
X004563Y000630D01*
X022113Y000630D01*
X024306Y002824D01*
X020601Y006675D02*
X020016Y006090D01*
X017920Y006090D01*
X020260Y006772D02*
X020260Y007114D01*
X019139Y008235D01*
X015970Y009454D02*
X015970Y010867D01*
X015629Y010916D02*
X014069Y012476D01*
X013874Y012476D01*
X009486Y008089D01*
X009486Y007211D01*
X009600Y007120D01*
X009535Y007162D01*
X008463Y007162D01*
X007488Y006675D02*
X006366Y005554D01*
X007488Y006675D02*
X007488Y012086D01*
X008268Y012086D01*
X009998Y012842D02*
X010998Y013841D01*
X010998Y013987D01*
X011020Y013989D01*
X012216Y014914D02*
X005733Y014914D01*
X005001Y014182D01*
X005001Y014036D01*
X004980Y014029D01*
X012216Y014914D02*
X014313Y012817D01*
X022356Y012817D01*
X025930Y014329D02*
X025964Y014329D01*
X026744Y013549D01*
X026939Y013549D01*
X028353Y012135D01*
X028548Y012135D01*
X028591Y012129D01*
X028596Y012086D01*
X028596Y010672D01*
X028591Y010629D01*
X027963Y010234D02*
X027963Y011355D01*
X027489Y012129D02*
X027475Y012135D01*
X027329Y012135D01*
X026939Y012525D01*
X035763Y007309D02*
X035763Y006139D01*
X035770Y006103D01*
X036770Y006103D02*
X036786Y006139D01*
X036786Y007309D01*
X036770Y007315D01*
X035770Y007315D02*
X035763Y007309D01*
X037770Y007315D02*
X037810Y007309D01*
X037810Y006139D01*
X037770Y006103D01*
X016896Y001702D02*
X015483Y001702D01*
X015385Y001800D01*
X015141Y001800D01*
X015100Y001819D01*
X015100Y002319D02*
X015093Y002336D01*
X015093Y003847D01*
X013386Y005554D01*
X010315Y005554D01*
X008609Y003847D01*
X008609Y002775D01*
X008316Y002482D01*
X007439Y002482D01*
X007049Y002092D01*
X007009Y002069D01*
X007146Y002482D02*
X006708Y002482D01*
X006610Y002385D01*
X006610Y001751D01*
X006708Y001654D01*
X008219Y001654D01*
X008219Y001507D01*
X009584Y001507D01*
X009600Y001517D01*
X009633Y001507D01*
X011095Y001507D01*
X011100Y001517D01*
X008219Y001507D02*
X008219Y001069D01*
X008191Y001069D01*
X008219Y001654D02*
X008219Y002044D01*
X008191Y002069D01*
X007731Y003067D02*
X007146Y002482D01*
X007009Y003069D02*
X007049Y003116D01*
X007195Y003116D01*
X009633Y005554D01*
X010023Y005554D01*
X010120Y005651D01*
X010120Y006675D01*
X010608Y006675D01*
X010120Y006675D02*
X009681Y007114D01*
X009600Y007120D01*
X009580Y007149D01*
X009600Y007120D02*
X009660Y007149D01*
X009828Y007991D02*
X010827Y008991D01*
X016799Y003019D01*
X014751Y003750D02*
X014605Y003604D01*
X014605Y002336D01*
X014600Y002319D01*
X008191Y003069D02*
X008170Y003067D01*
X007731Y003067D01*
X007731Y003116D01*
X007683Y003165D01*
X010827Y008991D02*
X013971Y012135D01*
X015629Y010916D02*
X015629Y009892D01*
D25*
X035811Y008771D02*
X035811Y008186D01*
X035770Y008142D01*
X035811Y008771D02*
X036494Y009454D01*
X036494Y009697D01*
X036535Y009744D01*
X037030Y009697D02*
X037035Y009744D01*
X037030Y009697D02*
X037030Y009502D01*
X036786Y009259D01*
X036786Y008186D01*
X036770Y008142D01*
X037761Y008186D02*
X037770Y008142D01*
X037761Y008186D02*
X037761Y009259D01*
X037566Y009454D01*
X037566Y009697D01*
X037535Y009744D01*
D26*
X035580Y012549D03*
M02*
