G75*
%MOIN*%
%OFA0B0*%
%FSLAX24Y24*%
%IPPOS*%
%LPD*%
%AMOC8*
5,1,8,0,0,1.08239X$1,22.5*
%
%ADD10C,0.0000*%
%ADD11C,0.0020*%
%ADD12C,0.0040*%
%ADD13C,0.0080*%
%ADD14C,0.0100*%
%ADD15C,0.0010*%
%ADD16C,0.0050*%
%ADD17C,0.0060*%
%ADD18C,0.0157*%
%ADD19C,0.0030*%
%ADD20R,0.0059X0.0118*%
%ADD21R,0.0118X0.0118*%
D10*
X003060Y000249D02*
X003140Y015625D01*
X041550Y015625D01*
X041510Y000209D01*
X003060Y000249D01*
X004923Y005702D02*
X004925Y005728D01*
X004931Y005754D01*
X004941Y005779D01*
X004954Y005802D01*
X004970Y005822D01*
X004990Y005840D01*
X005012Y005855D01*
X005035Y005867D01*
X005061Y005875D01*
X005087Y005879D01*
X005113Y005879D01*
X005139Y005875D01*
X005165Y005867D01*
X005189Y005855D01*
X005210Y005840D01*
X005230Y005822D01*
X005246Y005802D01*
X005259Y005779D01*
X005269Y005754D01*
X005275Y005728D01*
X005277Y005702D01*
X005275Y005676D01*
X005269Y005650D01*
X005259Y005625D01*
X005246Y005602D01*
X005230Y005582D01*
X005210Y005564D01*
X005188Y005549D01*
X005165Y005537D01*
X005139Y005529D01*
X005113Y005525D01*
X005087Y005525D01*
X005061Y005529D01*
X005035Y005537D01*
X005011Y005549D01*
X004990Y005564D01*
X004970Y005582D01*
X004954Y005602D01*
X004941Y005625D01*
X004931Y005650D01*
X004925Y005676D01*
X004923Y005702D01*
X004923Y007435D02*
X004925Y007461D01*
X004931Y007487D01*
X004941Y007512D01*
X004954Y007535D01*
X004970Y007555D01*
X004990Y007573D01*
X005012Y007588D01*
X005035Y007600D01*
X005061Y007608D01*
X005087Y007612D01*
X005113Y007612D01*
X005139Y007608D01*
X005165Y007600D01*
X005189Y007588D01*
X005210Y007573D01*
X005230Y007555D01*
X005246Y007535D01*
X005259Y007512D01*
X005269Y007487D01*
X005275Y007461D01*
X005277Y007435D01*
X005275Y007409D01*
X005269Y007383D01*
X005259Y007358D01*
X005246Y007335D01*
X005230Y007315D01*
X005210Y007297D01*
X005188Y007282D01*
X005165Y007270D01*
X005139Y007262D01*
X005113Y007258D01*
X005087Y007258D01*
X005061Y007262D01*
X005035Y007270D01*
X005011Y007282D01*
X004990Y007297D01*
X004970Y007315D01*
X004954Y007335D01*
X004941Y007358D01*
X004931Y007383D01*
X004925Y007409D01*
X004923Y007435D01*
X012982Y009569D02*
X012984Y009590D01*
X012990Y009610D01*
X012999Y009630D01*
X013011Y009647D01*
X013026Y009661D01*
X013044Y009673D01*
X013064Y009681D01*
X013084Y009686D01*
X013105Y009687D01*
X013126Y009684D01*
X013146Y009678D01*
X013165Y009667D01*
X013182Y009654D01*
X013195Y009638D01*
X013206Y009620D01*
X013214Y009600D01*
X013218Y009580D01*
X013218Y009558D01*
X013214Y009538D01*
X013206Y009518D01*
X013195Y009500D01*
X013182Y009484D01*
X013165Y009471D01*
X013146Y009460D01*
X013126Y009454D01*
X013105Y009451D01*
X013084Y009452D01*
X013064Y009457D01*
X013044Y009465D01*
X013026Y009477D01*
X013011Y009491D01*
X012999Y009508D01*
X012990Y009528D01*
X012984Y009548D01*
X012982Y009569D01*
X013425Y002469D02*
X013427Y002495D01*
X013433Y002521D01*
X013442Y002545D01*
X013455Y002568D01*
X013472Y002588D01*
X013491Y002606D01*
X013513Y002621D01*
X013536Y002632D01*
X013561Y002640D01*
X013587Y002644D01*
X013613Y002644D01*
X013639Y002640D01*
X013664Y002632D01*
X013688Y002621D01*
X013709Y002606D01*
X013728Y002588D01*
X013745Y002568D01*
X013758Y002545D01*
X013767Y002521D01*
X013773Y002495D01*
X013775Y002469D01*
X013773Y002443D01*
X013767Y002417D01*
X013758Y002393D01*
X013745Y002370D01*
X013728Y002350D01*
X013709Y002332D01*
X013687Y002317D01*
X013664Y002306D01*
X013639Y002298D01*
X013613Y002294D01*
X013587Y002294D01*
X013561Y002298D01*
X013536Y002306D01*
X013512Y002317D01*
X013491Y002332D01*
X013472Y002350D01*
X013455Y002370D01*
X013442Y002393D01*
X013433Y002417D01*
X013427Y002443D01*
X013425Y002469D01*
X013425Y001669D02*
X013427Y001695D01*
X013433Y001721D01*
X013442Y001745D01*
X013455Y001768D01*
X013472Y001788D01*
X013491Y001806D01*
X013513Y001821D01*
X013536Y001832D01*
X013561Y001840D01*
X013587Y001844D01*
X013613Y001844D01*
X013639Y001840D01*
X013664Y001832D01*
X013688Y001821D01*
X013709Y001806D01*
X013728Y001788D01*
X013745Y001768D01*
X013758Y001745D01*
X013767Y001721D01*
X013773Y001695D01*
X013775Y001669D01*
X013773Y001643D01*
X013767Y001617D01*
X013758Y001593D01*
X013745Y001570D01*
X013728Y001550D01*
X013709Y001532D01*
X013687Y001517D01*
X013664Y001506D01*
X013639Y001498D01*
X013613Y001494D01*
X013587Y001494D01*
X013561Y001498D01*
X013536Y001506D01*
X013512Y001517D01*
X013491Y001532D01*
X013472Y001550D01*
X013455Y001570D01*
X013442Y001593D01*
X013433Y001617D01*
X013427Y001643D01*
X013425Y001669D01*
X015425Y002069D02*
X015427Y002095D01*
X015433Y002121D01*
X015442Y002145D01*
X015455Y002168D01*
X015472Y002188D01*
X015491Y002206D01*
X015513Y002221D01*
X015536Y002232D01*
X015561Y002240D01*
X015587Y002244D01*
X015613Y002244D01*
X015639Y002240D01*
X015664Y002232D01*
X015688Y002221D01*
X015709Y002206D01*
X015728Y002188D01*
X015745Y002168D01*
X015758Y002145D01*
X015767Y002121D01*
X015773Y002095D01*
X015775Y002069D01*
X015773Y002043D01*
X015767Y002017D01*
X015758Y001993D01*
X015745Y001970D01*
X015728Y001950D01*
X015709Y001932D01*
X015687Y001917D01*
X015664Y001906D01*
X015639Y001898D01*
X015613Y001894D01*
X015587Y001894D01*
X015561Y001898D01*
X015536Y001906D01*
X015512Y001917D01*
X015491Y001932D01*
X015472Y001950D01*
X015455Y001970D01*
X015442Y001993D01*
X015433Y002017D01*
X015427Y002043D01*
X015425Y002069D01*
D11*
X022263Y005469D02*
X022336Y005543D01*
X022483Y005543D01*
X022373Y005543D02*
X022373Y005396D01*
X022336Y005396D02*
X022263Y005469D01*
X022336Y005396D02*
X022483Y005396D01*
X022483Y005690D02*
X022263Y005690D01*
X022263Y005617D02*
X022263Y005764D01*
X022263Y005838D02*
X022336Y005911D01*
X022263Y005985D01*
X022483Y005985D01*
X022483Y006059D02*
X022483Y006206D01*
X022446Y006280D02*
X022483Y006316D01*
X022483Y006390D01*
X022446Y006427D01*
X022373Y006427D01*
X022373Y006353D01*
X022300Y006280D02*
X022446Y006280D01*
X022300Y006280D02*
X022263Y006316D01*
X022263Y006390D01*
X022300Y006427D01*
X022336Y006501D02*
X022263Y006574D01*
X022336Y006648D01*
X022483Y006648D01*
X022446Y006722D02*
X022483Y006758D01*
X022483Y006832D01*
X022446Y006868D01*
X022410Y006868D01*
X022373Y006832D01*
X022373Y006795D01*
X022373Y006832D02*
X022336Y006868D01*
X022300Y006868D01*
X022263Y006832D01*
X022263Y006758D01*
X022300Y006722D01*
X022373Y006648D02*
X022373Y006501D01*
X022336Y006501D02*
X022483Y006501D01*
X022263Y006206D02*
X022263Y006059D01*
X022483Y006059D01*
X022373Y006059D02*
X022373Y006132D01*
X022483Y005838D02*
X022263Y005838D01*
X022300Y006943D02*
X022263Y006979D01*
X022263Y007053D01*
X022300Y007089D01*
X022336Y007089D01*
X022483Y006943D01*
X022483Y007089D01*
X022446Y007164D02*
X022483Y007200D01*
X022483Y007274D01*
X022446Y007310D01*
X022263Y007310D01*
X022373Y007385D02*
X022373Y007531D01*
X022373Y007606D02*
X022373Y007752D01*
X022373Y007827D02*
X022373Y007973D01*
X022336Y007973D02*
X022483Y007973D01*
X022446Y008048D02*
X022483Y008084D01*
X022483Y008158D01*
X022446Y008194D01*
X022263Y008194D01*
X022263Y008048D02*
X022446Y008048D01*
X022336Y007973D02*
X022263Y007900D01*
X022336Y007827D01*
X022483Y007827D01*
X022483Y007495D02*
X022263Y007495D01*
X022373Y007385D01*
X022446Y007164D02*
X022263Y007164D01*
X027410Y010379D02*
X027410Y012379D01*
X031470Y013059D02*
X031470Y011059D01*
X031810Y011243D02*
X031883Y011316D01*
X031810Y011389D01*
X032030Y011389D01*
X032030Y011464D02*
X031883Y011610D01*
X031847Y011610D01*
X031810Y011574D01*
X031810Y011500D01*
X031847Y011464D01*
X032030Y011464D02*
X032030Y011610D01*
X031920Y011685D02*
X031920Y011831D01*
X031920Y011906D02*
X031883Y011979D01*
X031883Y012016D01*
X031920Y012052D01*
X031993Y012052D01*
X032030Y012016D01*
X032030Y011942D01*
X031993Y011906D01*
X031920Y011906D02*
X031810Y011906D01*
X031810Y012052D01*
X031883Y012127D02*
X031810Y012200D01*
X032030Y012200D01*
X032030Y012127D02*
X032030Y012273D01*
X032030Y012348D02*
X031883Y012494D01*
X031847Y012494D01*
X031810Y012458D01*
X031810Y012384D01*
X031847Y012348D01*
X032030Y012348D02*
X032030Y012494D01*
X032030Y011795D02*
X031810Y011795D01*
X031920Y011685D01*
X032030Y011243D02*
X031810Y011243D01*
X032405Y007996D02*
X032405Y007849D01*
X032626Y007849D01*
X032626Y007996D01*
X032516Y007923D02*
X032516Y007849D01*
X032626Y007775D02*
X032626Y007628D01*
X032405Y007628D01*
X032442Y007554D02*
X032405Y007517D01*
X032405Y007444D01*
X032442Y007407D01*
X032589Y007407D01*
X032626Y007444D01*
X032626Y007517D01*
X032589Y007554D01*
X032442Y007554D01*
X032405Y007333D02*
X032626Y007333D01*
X032516Y007333D02*
X032516Y007186D01*
X032516Y007112D02*
X032516Y006965D01*
X032516Y006891D02*
X032516Y006818D01*
X032516Y006891D02*
X032589Y006891D01*
X032626Y006854D01*
X032626Y006781D01*
X032589Y006744D01*
X032442Y006744D01*
X032405Y006781D01*
X032405Y006854D01*
X032442Y006891D01*
X032405Y006965D02*
X032626Y006965D01*
X032626Y007112D02*
X032405Y007112D01*
X032405Y007186D02*
X032626Y007186D01*
X032589Y006670D02*
X032405Y006670D01*
X032405Y006523D02*
X032589Y006523D01*
X032626Y006560D01*
X032626Y006633D01*
X032589Y006670D01*
X032589Y006449D02*
X032442Y006449D01*
X032405Y006412D01*
X032405Y006339D01*
X032442Y006302D01*
X032589Y006302D01*
X032626Y006339D01*
X032626Y006412D01*
X032589Y006449D01*
X032626Y006228D02*
X032552Y006155D01*
X032552Y006191D02*
X032552Y006081D01*
X032626Y006081D02*
X032405Y006081D01*
X032405Y006191D01*
X032442Y006228D01*
X032516Y006228D01*
X032552Y006191D01*
X032516Y006007D02*
X032516Y005860D01*
X032626Y005860D02*
X032405Y005860D01*
X032405Y005786D02*
X032405Y005639D01*
X032405Y005713D02*
X032626Y005713D01*
X032626Y005565D02*
X032626Y005418D01*
X032405Y005418D01*
X032405Y005565D01*
X032516Y005492D02*
X032516Y005418D01*
X032626Y005344D02*
X032626Y005197D01*
X032405Y005197D01*
X032405Y005344D01*
X032516Y005271D02*
X032516Y005197D01*
X032552Y005123D02*
X032589Y005123D01*
X032626Y005086D01*
X032626Y004976D01*
X032405Y004976D01*
X032405Y005086D01*
X032442Y005123D01*
X032479Y005123D01*
X032516Y005086D01*
X032516Y004976D01*
X032516Y004902D02*
X032516Y004829D01*
X032516Y004902D02*
X032589Y004902D01*
X032626Y004866D01*
X032626Y004792D01*
X032589Y004755D01*
X032442Y004755D01*
X032405Y004792D01*
X032405Y004866D01*
X032442Y004902D01*
X032516Y005086D02*
X032552Y005123D01*
X032626Y004681D02*
X032626Y004608D01*
X032626Y004645D02*
X032405Y004645D01*
X032405Y004681D02*
X032405Y004608D01*
X032405Y004534D02*
X032442Y004534D01*
X032589Y004387D01*
X032626Y004387D01*
X032626Y004534D01*
X032405Y004534D02*
X032405Y004387D01*
X032516Y004313D02*
X032516Y004166D01*
X032516Y004092D02*
X032589Y004092D01*
X032626Y004055D01*
X032626Y003982D01*
X032589Y003945D01*
X032516Y003945D02*
X032479Y004019D01*
X032479Y004055D01*
X032516Y004092D01*
X032405Y004092D02*
X032405Y003945D01*
X032516Y003945D01*
X032589Y003871D02*
X032626Y003834D01*
X032626Y003761D01*
X032589Y003724D01*
X032442Y003871D01*
X032589Y003871D01*
X032442Y003871D02*
X032405Y003834D01*
X032405Y003761D01*
X032442Y003724D01*
X032589Y003724D01*
X032626Y003650D02*
X032626Y003503D01*
X032589Y003503D01*
X032442Y003650D01*
X032405Y003650D01*
X032405Y003503D01*
X032442Y003429D02*
X032405Y003392D01*
X032405Y003319D01*
X032442Y003282D01*
X032479Y003282D01*
X032516Y003319D01*
X032516Y003392D01*
X032552Y003429D01*
X032589Y003429D01*
X032626Y003392D01*
X032626Y003319D01*
X032589Y003282D01*
X032626Y006007D02*
X032405Y006007D01*
X036630Y011599D02*
X036630Y011739D01*
X036677Y011692D01*
X036723Y011739D01*
X036723Y011599D01*
X036777Y011599D02*
X036777Y011739D01*
X036847Y011739D01*
X036871Y011715D01*
X036871Y011669D01*
X036847Y011645D01*
X036777Y011645D01*
X036925Y011599D02*
X037018Y011599D01*
X037072Y011622D02*
X037095Y011599D01*
X037142Y011599D01*
X037165Y011622D01*
X037165Y011645D01*
X037142Y011669D01*
X037119Y011669D01*
X037142Y011669D02*
X037165Y011692D01*
X037165Y011715D01*
X037142Y011739D01*
X037095Y011739D01*
X037072Y011715D01*
X037219Y011692D02*
X037266Y011739D01*
X037266Y011599D01*
X037219Y011599D02*
X037313Y011599D01*
X037367Y011599D02*
X037460Y011599D01*
X037413Y011599D02*
X037413Y011739D01*
X037367Y011692D01*
X037514Y011669D02*
X037561Y011692D01*
X037584Y011692D01*
X037607Y011669D01*
X037607Y011622D01*
X037584Y011599D01*
X037537Y011599D01*
X037514Y011622D01*
X037514Y011669D02*
X037514Y011739D01*
X037607Y011739D01*
X037661Y011692D02*
X037708Y011739D01*
X037755Y011692D01*
X037755Y011599D01*
X037809Y011599D02*
X037902Y011692D01*
X037902Y011715D01*
X037879Y011739D01*
X037832Y011739D01*
X037809Y011715D01*
X037755Y011669D02*
X037661Y011669D01*
X037661Y011692D02*
X037661Y011599D01*
X037809Y011599D02*
X037902Y011599D01*
X037956Y011599D02*
X038049Y011599D01*
X038103Y011622D02*
X038127Y011599D01*
X038173Y011599D01*
X038197Y011622D01*
X038197Y011669D01*
X038150Y011669D01*
X038197Y011715D02*
X038173Y011739D01*
X038127Y011739D01*
X038103Y011715D01*
X038103Y011622D01*
X037956Y011599D02*
X037956Y011739D01*
X038251Y011692D02*
X038297Y011739D01*
X038344Y011692D01*
X038344Y011599D01*
X038398Y011622D02*
X038398Y011645D01*
X038421Y011669D01*
X038468Y011669D01*
X038491Y011645D01*
X038491Y011622D01*
X038468Y011599D01*
X038421Y011599D01*
X038398Y011622D01*
X038421Y011669D02*
X038398Y011692D01*
X038398Y011715D01*
X038421Y011739D01*
X038468Y011739D01*
X038491Y011715D01*
X038491Y011692D01*
X038468Y011669D01*
X038344Y011669D02*
X038251Y011669D01*
X038251Y011692D02*
X038251Y011599D01*
X036925Y011599D02*
X036925Y011739D01*
X041150Y011694D02*
X041370Y011694D01*
X041370Y011841D01*
X041370Y011620D02*
X041297Y011547D01*
X041297Y011583D02*
X041297Y011473D01*
X041370Y011473D02*
X041150Y011473D01*
X041150Y011583D01*
X041187Y011620D01*
X041260Y011620D01*
X041297Y011583D01*
X041150Y011399D02*
X041150Y011252D01*
X041150Y011326D02*
X041370Y011326D01*
X041333Y011178D02*
X041370Y011141D01*
X041370Y011068D01*
X041333Y011031D01*
X041187Y011031D01*
X041150Y011068D01*
X041150Y011141D01*
X041187Y011178D01*
X041407Y010957D02*
X041407Y010810D01*
X041333Y010736D02*
X041187Y010736D01*
X041150Y010699D01*
X041150Y010589D01*
X041370Y010589D01*
X041370Y010699D01*
X041333Y010736D01*
X041370Y010515D02*
X041150Y010515D01*
X041150Y010368D02*
X041370Y010515D01*
X041370Y010368D02*
X041150Y010368D01*
X041187Y010294D02*
X041150Y010257D01*
X041150Y010184D01*
X041187Y010147D01*
X041333Y010147D01*
X041370Y010184D01*
X041370Y010257D01*
X041333Y010294D01*
X041260Y010294D01*
X041260Y010221D01*
X041223Y012136D02*
X041260Y012173D01*
X041260Y012246D01*
X041297Y012283D01*
X041333Y012283D01*
X041370Y012246D01*
X041370Y012173D01*
X041333Y012136D01*
X041223Y012136D02*
X041187Y012136D01*
X041150Y012173D01*
X041150Y012246D01*
X041187Y012283D01*
X041150Y012357D02*
X041150Y012467D01*
X041187Y012504D01*
X041333Y012504D01*
X041370Y012467D01*
X041370Y012357D01*
X041150Y012357D01*
X041223Y012578D02*
X041150Y012652D01*
X041223Y012725D01*
X041370Y012725D01*
X041260Y012725D02*
X041260Y012578D01*
X041223Y012578D02*
X041370Y012578D01*
X041333Y013241D02*
X041370Y013278D01*
X041370Y013351D01*
X041333Y013388D01*
X041297Y013388D01*
X041260Y013351D01*
X041260Y013278D01*
X041223Y013241D01*
X041187Y013241D01*
X041150Y013278D01*
X041150Y013351D01*
X041187Y013388D01*
X041187Y013462D02*
X041333Y013462D01*
X041370Y013499D01*
X041370Y013572D01*
X041333Y013609D01*
X041370Y013683D02*
X041370Y013830D01*
X041370Y013683D02*
X041150Y013683D01*
X041187Y013609D02*
X041150Y013572D01*
X041150Y013499D01*
X041187Y013462D01*
X041187Y014125D02*
X041150Y014162D01*
X041150Y014235D01*
X041187Y014272D01*
X041223Y014272D01*
X041260Y014235D01*
X041297Y014272D01*
X041333Y014272D01*
X041370Y014235D01*
X041370Y014162D01*
X041333Y014125D01*
X041260Y014199D02*
X041260Y014235D01*
X041333Y014346D02*
X041333Y014383D01*
X041370Y014383D01*
X041370Y014346D01*
X041333Y014346D01*
X041333Y014457D02*
X041370Y014493D01*
X041370Y014567D01*
X041333Y014603D01*
X041297Y014603D01*
X041260Y014567D01*
X041260Y014530D01*
X041260Y014567D02*
X041223Y014603D01*
X041187Y014603D01*
X041150Y014567D01*
X041150Y014493D01*
X041187Y014457D01*
X041150Y014678D02*
X041297Y014678D01*
X041370Y014751D01*
X041297Y014824D01*
X041150Y014824D01*
X005890Y011305D02*
X005853Y011305D01*
X005707Y011451D01*
X005670Y011451D01*
X005670Y011305D01*
X005670Y011157D02*
X005890Y011157D01*
X005890Y011084D02*
X005890Y011230D01*
X005743Y011084D02*
X005670Y011157D01*
X005670Y010936D02*
X005890Y010936D01*
X005890Y010863D02*
X005890Y011009D01*
X005743Y010863D02*
X005670Y010936D01*
X005670Y010715D02*
X005890Y010715D01*
X005890Y010642D02*
X005890Y010788D01*
X005743Y010642D02*
X005670Y010715D01*
X005707Y010567D02*
X005670Y010531D01*
X005670Y010457D01*
X005707Y010421D01*
X005853Y010421D01*
X005890Y010457D01*
X005890Y010531D01*
X005853Y010567D01*
X005780Y010567D01*
X005780Y010494D01*
X005890Y010346D02*
X005890Y010200D01*
X005670Y010200D01*
X005670Y010346D01*
X005780Y010273D02*
X005780Y010200D01*
X005780Y010125D02*
X005817Y010089D01*
X005817Y009979D01*
X005890Y009979D02*
X005670Y009979D01*
X005670Y010089D01*
X005707Y010125D01*
X005780Y010125D01*
X005817Y010052D02*
X005890Y010125D01*
D12*
X005304Y008224D02*
X005304Y008163D01*
X005306Y008147D01*
X005310Y008132D01*
X005318Y008117D01*
X005328Y008105D01*
X005340Y008095D01*
X005355Y008087D01*
X005370Y008083D01*
X005386Y008081D01*
X004477Y008081D01*
X004385Y007734D02*
X004385Y007652D01*
X003444Y007550D01*
X003444Y007345D01*
X004385Y007243D01*
X004385Y007161D01*
X003301Y007264D01*
X003301Y007263D02*
X003282Y007267D01*
X003263Y007273D01*
X003246Y007283D01*
X003230Y007295D01*
X003217Y007310D01*
X003206Y007327D01*
X003199Y007345D01*
X003199Y007570D02*
X003206Y007588D01*
X003217Y007605D01*
X003230Y007620D01*
X003246Y007632D01*
X003263Y007642D01*
X003282Y007648D01*
X003301Y007652D01*
X004385Y007734D01*
X003200Y007570D02*
X003191Y007533D01*
X003185Y007496D01*
X003183Y007458D01*
X003185Y007420D01*
X003191Y007383D01*
X003200Y007346D01*
X003301Y007059D02*
X004896Y006977D01*
X004896Y006978D02*
X004914Y006975D01*
X004931Y006968D01*
X004946Y006959D01*
X004959Y006946D01*
X004968Y006931D01*
X004975Y006914D01*
X004978Y006896D01*
X004977Y006896D02*
X004977Y006242D01*
X004978Y006241D02*
X004975Y006223D01*
X004968Y006206D01*
X004959Y006191D01*
X004946Y006178D01*
X004931Y006169D01*
X004914Y006162D01*
X004896Y006159D01*
X004896Y006160D02*
X003301Y006078D01*
X003285Y006080D01*
X003270Y006084D01*
X003255Y006092D01*
X003243Y006102D01*
X003233Y006114D01*
X003225Y006129D01*
X003221Y006144D01*
X003219Y006160D01*
X003221Y006176D01*
X003225Y006191D01*
X003233Y006206D01*
X003243Y006218D01*
X003255Y006228D01*
X003270Y006236D01*
X003285Y006240D01*
X003301Y006242D01*
X004650Y006323D01*
X004650Y006814D01*
X003301Y006896D01*
X003301Y006895D02*
X003285Y006897D01*
X003270Y006901D01*
X003255Y006909D01*
X003243Y006919D01*
X003233Y006931D01*
X003225Y006946D01*
X003221Y006961D01*
X003219Y006977D01*
X003220Y006977D02*
X003220Y006977D01*
X003219Y006977D02*
X003221Y006993D01*
X003225Y007008D01*
X003233Y007023D01*
X003243Y007035D01*
X003255Y007045D01*
X003270Y007053D01*
X003285Y007057D01*
X003301Y007059D01*
X003301Y005874D02*
X004385Y005976D01*
X004385Y005894D01*
X003444Y005792D01*
X003444Y005588D01*
X004385Y005485D01*
X004385Y005404D01*
X003301Y005485D01*
X003282Y005489D01*
X003263Y005495D01*
X003246Y005505D01*
X003230Y005517D01*
X003217Y005532D01*
X003206Y005549D01*
X003199Y005567D01*
X003199Y005792D02*
X003206Y005810D01*
X003217Y005827D01*
X003230Y005842D01*
X003246Y005854D01*
X003263Y005864D01*
X003282Y005870D01*
X003301Y005874D01*
X003200Y005792D02*
X003191Y005755D01*
X003185Y005718D01*
X003183Y005680D01*
X003185Y005642D01*
X003191Y005605D01*
X003200Y005568D01*
X003362Y005056D02*
X002770Y005056D01*
X002770Y005056D01*
X002770Y008081D01*
X003362Y008081D01*
X005325Y007264D02*
X005325Y005874D01*
X005327Y005854D01*
X005333Y005835D01*
X005342Y005817D01*
X005355Y005802D01*
X005370Y005789D01*
X005388Y005780D01*
X005407Y005774D01*
X005427Y005772D01*
X005427Y005771D02*
X005443Y005773D01*
X005458Y005777D01*
X005473Y005785D01*
X005485Y005795D01*
X005495Y005807D01*
X005503Y005822D01*
X005507Y005837D01*
X005509Y005853D01*
X005509Y007284D01*
X005507Y007300D01*
X005503Y007315D01*
X005495Y007330D01*
X005485Y007342D01*
X005473Y007352D01*
X005458Y007360D01*
X005443Y007364D01*
X005427Y007366D01*
X005427Y007366D01*
X005407Y007364D01*
X005388Y007358D01*
X005370Y007349D01*
X005355Y007336D01*
X005342Y007321D01*
X005333Y007303D01*
X005327Y007284D01*
X005325Y007264D01*
X005713Y007366D02*
X006449Y007366D01*
X006469Y007366D02*
X006469Y007754D01*
X006449Y007754D02*
X006306Y007754D01*
X007449Y007347D02*
X007526Y007424D01*
X007679Y007424D01*
X007756Y007347D01*
X007756Y007271D01*
X007449Y006964D01*
X007756Y006964D01*
X007910Y006964D02*
X008217Y007271D01*
X008217Y007347D01*
X008140Y007424D01*
X007986Y007424D01*
X007910Y007347D01*
X007910Y006964D02*
X008217Y006964D01*
X008140Y006299D02*
X007986Y006299D01*
X007910Y006222D01*
X007756Y006222D02*
X007679Y006299D01*
X007526Y006299D01*
X007449Y006222D01*
X007756Y006222D02*
X007756Y006146D01*
X007449Y005839D01*
X007756Y005839D01*
X007910Y005839D02*
X008217Y006146D01*
X008217Y006222D01*
X008140Y006299D01*
X008217Y005839D02*
X007910Y005839D01*
X006469Y005772D02*
X006469Y005383D01*
X006449Y005383D02*
X006306Y005383D01*
X006449Y005772D02*
X005713Y005772D01*
X005386Y005056D02*
X004477Y005056D01*
X005304Y004975D02*
X005304Y004913D01*
X005304Y004975D02*
X005306Y004991D01*
X005310Y005006D01*
X005318Y005021D01*
X005328Y005033D01*
X005340Y005043D01*
X005355Y005051D01*
X005370Y005055D01*
X005386Y005057D01*
X005365Y004299D02*
X005365Y003915D01*
X005442Y003839D01*
X005595Y003839D01*
X005672Y003915D01*
X005672Y004299D01*
X005825Y004222D02*
X005825Y004146D01*
X005902Y004069D01*
X006056Y004069D01*
X006132Y003992D01*
X006132Y003915D01*
X006056Y003839D01*
X005902Y003839D01*
X005825Y003915D01*
X005825Y004222D02*
X005902Y004299D01*
X006056Y004299D01*
X006132Y004222D01*
X006286Y004299D02*
X006286Y003839D01*
X006516Y003839D01*
X006593Y003915D01*
X006593Y003992D01*
X006516Y004069D01*
X006286Y004069D01*
X006516Y004069D02*
X006593Y004146D01*
X006593Y004222D01*
X006516Y004299D01*
X006286Y004299D01*
X005212Y004069D02*
X004905Y004069D01*
X004751Y004299D02*
X004598Y004299D01*
X004674Y004299D02*
X004674Y003839D01*
X004598Y003839D02*
X004751Y003839D01*
X004444Y003839D02*
X004444Y004299D01*
X004137Y004299D02*
X004137Y003839D01*
X003984Y003839D02*
X003830Y003839D01*
X003907Y003839D02*
X003907Y004299D01*
X003830Y004299D02*
X003984Y004299D01*
X004137Y004299D02*
X004444Y003839D01*
X003677Y003839D02*
X003677Y004299D01*
X003523Y004146D01*
X003370Y004299D01*
X003370Y003839D01*
X011120Y009401D02*
X011580Y009401D01*
X011580Y009554D02*
X011580Y009247D01*
X011273Y009247D02*
X011120Y009401D01*
X011196Y009707D02*
X011120Y009784D01*
X011120Y009938D01*
X011196Y010014D01*
X011503Y009707D01*
X011580Y009784D01*
X011580Y009938D01*
X011503Y010014D01*
X011196Y010014D01*
X011273Y010168D02*
X011503Y010168D01*
X011580Y010245D01*
X011580Y010475D01*
X011273Y010475D01*
X011350Y010628D02*
X011350Y010782D01*
X011120Y010628D02*
X011120Y010935D01*
X011120Y010628D02*
X011580Y010628D01*
X012159Y010476D02*
X012313Y010629D01*
X012313Y010169D01*
X012466Y010169D02*
X012159Y010169D01*
X012620Y010169D02*
X012620Y010629D01*
X012696Y010399D02*
X012927Y010169D01*
X012620Y010322D02*
X012927Y010629D01*
X011503Y009707D02*
X011196Y009707D01*
X010501Y010089D02*
X010501Y010549D01*
X010808Y010549D01*
X010655Y010319D02*
X010501Y010319D01*
X010348Y010396D02*
X010348Y010089D01*
X010118Y010089D01*
X010041Y010165D01*
X010041Y010396D01*
X009887Y010472D02*
X009887Y010165D01*
X009811Y010089D01*
X009657Y010089D01*
X009580Y010165D01*
X009887Y010472D01*
X009811Y010549D01*
X009657Y010549D01*
X009580Y010472D01*
X009580Y010165D01*
X009427Y010089D02*
X009120Y010089D01*
X009273Y010089D02*
X009273Y010549D01*
X009120Y010396D01*
X012380Y007512D02*
X012457Y007589D01*
X012610Y007589D01*
X012687Y007512D01*
X012687Y007436D01*
X012380Y007129D01*
X012687Y007129D01*
X012840Y007129D02*
X013147Y007436D01*
X013147Y007512D01*
X013071Y007589D01*
X012917Y007589D01*
X012840Y007512D01*
X012840Y007129D02*
X013147Y007129D01*
X013301Y007129D02*
X013531Y007129D01*
X013608Y007205D01*
X013608Y007359D01*
X013531Y007436D01*
X013301Y007436D01*
X013301Y006975D01*
X013761Y007129D02*
X013761Y007589D01*
X014068Y007589D01*
X013915Y007359D02*
X013761Y007359D01*
X013761Y005589D02*
X014068Y005589D01*
X013915Y005359D02*
X013761Y005359D01*
X013866Y005249D02*
X013866Y004789D01*
X013713Y004789D02*
X014020Y004789D01*
X014173Y004866D02*
X014250Y004789D01*
X014403Y004789D01*
X014480Y004866D01*
X014480Y004943D01*
X014403Y005019D01*
X014173Y005019D01*
X014173Y004866D01*
X014173Y005019D02*
X014327Y005173D01*
X014480Y005249D01*
X014634Y005249D02*
X014787Y005096D01*
X014941Y005249D01*
X014941Y004789D01*
X015094Y004789D02*
X015094Y005249D01*
X015094Y005019D02*
X015401Y005019D01*
X015554Y005096D02*
X015861Y005096D01*
X015554Y004789D01*
X015861Y004789D01*
X015401Y004789D02*
X015401Y005249D01*
X014634Y005249D02*
X014634Y004789D01*
X013866Y005249D02*
X013713Y005096D01*
X013761Y005129D02*
X013761Y005589D01*
X013531Y005436D02*
X013608Y005359D01*
X013608Y005205D01*
X013531Y005129D01*
X013301Y005129D01*
X013147Y005129D02*
X012840Y005129D01*
X013147Y005436D01*
X013147Y005512D01*
X013071Y005589D01*
X012917Y005589D01*
X012840Y005512D01*
X012687Y005512D02*
X012610Y005589D01*
X012457Y005589D01*
X012380Y005512D01*
X012687Y005512D02*
X012687Y005436D01*
X012380Y005129D01*
X012687Y005129D01*
X013301Y004975D02*
X013301Y005436D01*
X013531Y005436D01*
X016005Y008254D02*
X016312Y008254D01*
X016465Y008254D02*
X016465Y008714D01*
X016619Y008561D01*
X016772Y008714D01*
X016772Y008254D01*
X016158Y008254D02*
X016158Y008714D01*
X016005Y008561D01*
X017783Y010909D02*
X018090Y010909D01*
X017936Y010909D02*
X017936Y011369D01*
X017783Y011216D01*
X018243Y011292D02*
X018243Y010985D01*
X018550Y011292D01*
X018550Y010985D01*
X018474Y010909D01*
X018320Y010909D01*
X018243Y010985D01*
X018243Y011292D02*
X018320Y011369D01*
X018474Y011369D01*
X018550Y011292D01*
X018704Y011292D02*
X018781Y011369D01*
X018934Y011369D01*
X019011Y011292D01*
X018704Y010985D01*
X018781Y010909D01*
X018934Y010909D01*
X019011Y010985D01*
X019011Y011292D01*
X019164Y011216D02*
X019394Y011216D01*
X019471Y011139D01*
X019471Y010909D01*
X019625Y010909D02*
X019625Y011369D01*
X019932Y011369D01*
X019778Y011139D02*
X019625Y011139D01*
X019164Y011216D02*
X019164Y010909D01*
X018704Y010985D02*
X018704Y011292D01*
X018638Y012889D02*
X018562Y012965D01*
X018638Y012889D02*
X018792Y012889D01*
X018868Y012965D01*
X018868Y013119D01*
X018792Y013196D01*
X018715Y013196D01*
X018562Y013119D01*
X018562Y013349D01*
X018868Y013349D01*
X018408Y013349D02*
X018408Y013272D01*
X018101Y012965D01*
X018101Y012889D01*
X017948Y013119D02*
X017871Y013042D01*
X017641Y013042D01*
X017641Y012889D02*
X017641Y013349D01*
X017871Y013349D01*
X017948Y013272D01*
X017948Y013119D01*
X018101Y013349D02*
X018408Y013349D01*
X017487Y013272D02*
X017411Y013349D01*
X017257Y013349D01*
X017180Y013272D01*
X017180Y013196D01*
X017257Y013119D01*
X017411Y013119D01*
X017487Y013042D01*
X017487Y012965D01*
X017411Y012889D01*
X017257Y012889D01*
X017180Y012965D01*
X017027Y012965D02*
X016950Y012889D01*
X016720Y012889D01*
X016720Y013349D01*
X016950Y013349D01*
X017027Y013272D01*
X017027Y013196D01*
X016950Y013119D01*
X016720Y013119D01*
X016950Y013119D02*
X017027Y013042D01*
X017027Y012965D01*
X023600Y013204D02*
X023830Y012974D01*
X023830Y013281D01*
X023983Y013434D02*
X023983Y013511D01*
X024060Y013511D01*
X024060Y013434D01*
X023983Y013434D01*
X023983Y013665D02*
X024060Y013665D01*
X023983Y013665D02*
X023676Y013972D01*
X023600Y013972D01*
X023600Y013665D01*
X023600Y014125D02*
X024060Y014125D01*
X023907Y014125D02*
X023753Y014355D01*
X023907Y014125D02*
X024060Y014355D01*
X024060Y013204D02*
X023600Y013204D01*
X025293Y011600D02*
X025447Y011369D01*
X025600Y011600D01*
X025600Y011369D02*
X025140Y011369D01*
X025216Y011216D02*
X025523Y010909D01*
X025600Y010986D01*
X025600Y011139D01*
X025523Y011216D01*
X025216Y011216D01*
X025140Y011139D01*
X025140Y010986D01*
X025216Y010909D01*
X025523Y010909D01*
X025600Y010756D02*
X025600Y010449D01*
X025600Y010602D02*
X025140Y010602D01*
X025293Y010449D01*
X026493Y009175D02*
X026647Y008945D01*
X026800Y009175D01*
X026800Y008945D02*
X026340Y008945D01*
X026416Y008792D02*
X026723Y008485D01*
X026800Y008561D01*
X026800Y008715D01*
X026723Y008792D01*
X026416Y008792D01*
X026340Y008715D01*
X026340Y008561D01*
X026416Y008485D01*
X026723Y008485D01*
X026800Y008331D02*
X026800Y008024D01*
X026800Y008178D02*
X026340Y008178D01*
X026493Y008024D01*
X025796Y006889D02*
X025796Y006429D01*
X025796Y006582D02*
X026027Y006736D01*
X025796Y006582D02*
X026027Y006429D01*
X025643Y006505D02*
X025566Y006429D01*
X025413Y006429D01*
X025336Y006505D01*
X025643Y006812D01*
X025643Y006505D01*
X025336Y006505D02*
X025336Y006812D01*
X025413Y006889D01*
X025566Y006889D01*
X025643Y006812D01*
X025182Y006429D02*
X024876Y006429D01*
X025029Y006429D02*
X025029Y006889D01*
X024876Y006736D01*
X025029Y005609D02*
X025029Y005149D01*
X024876Y005149D02*
X025182Y005149D01*
X025336Y005225D02*
X025643Y005532D01*
X025643Y005225D01*
X025566Y005149D01*
X025413Y005149D01*
X025336Y005225D01*
X025336Y005532D01*
X025413Y005609D01*
X025566Y005609D01*
X025643Y005532D01*
X025796Y005609D02*
X025796Y005149D01*
X025796Y005302D02*
X026027Y005456D01*
X025796Y005302D02*
X026027Y005149D01*
X026880Y005215D02*
X026880Y004908D01*
X027340Y004908D01*
X027340Y005215D01*
X027340Y005368D02*
X027340Y005598D01*
X027263Y005675D01*
X026956Y005675D01*
X026880Y005598D01*
X026880Y005368D01*
X027340Y005368D01*
X027110Y005061D02*
X027110Y004908D01*
X027110Y004754D02*
X027187Y004678D01*
X027187Y004447D01*
X027340Y004447D02*
X026880Y004447D01*
X026880Y004678D01*
X026956Y004754D01*
X027110Y004754D01*
X027187Y004601D02*
X027340Y004754D01*
X028173Y006629D02*
X028020Y006782D01*
X028480Y006782D01*
X028480Y006629D02*
X028480Y006936D01*
X028403Y007089D02*
X028096Y007396D01*
X028403Y007396D01*
X028480Y007319D01*
X028480Y007166D01*
X028403Y007089D01*
X028096Y007089D01*
X028020Y007166D01*
X028020Y007319D01*
X028096Y007396D01*
X028096Y007549D02*
X028020Y007626D01*
X028020Y007780D01*
X028096Y007856D01*
X028403Y007549D01*
X028480Y007626D01*
X028480Y007780D01*
X028403Y007856D01*
X028096Y007856D01*
X028173Y008010D02*
X028173Y008240D01*
X028250Y008317D01*
X028480Y008317D01*
X028480Y008470D02*
X028020Y008470D01*
X028020Y008777D01*
X028250Y008624D02*
X028250Y008470D01*
X028173Y008010D02*
X028480Y008010D01*
X028403Y007549D02*
X028096Y007549D01*
X025029Y005609D02*
X024876Y005456D01*
X030220Y004677D02*
X030220Y004370D01*
X030450Y004370D01*
X030373Y004524D01*
X030373Y004600D01*
X030450Y004677D01*
X030603Y004677D01*
X030680Y004600D01*
X030680Y004447D01*
X030603Y004370D01*
X030296Y004217D02*
X030603Y003910D01*
X030680Y003910D01*
X030450Y003756D02*
X030527Y003680D01*
X030527Y003449D01*
X030680Y003449D02*
X030220Y003449D01*
X030220Y003680D01*
X030296Y003756D01*
X030450Y003756D01*
X030220Y003910D02*
X030220Y004217D01*
X030296Y004217D01*
X030296Y003296D02*
X030220Y003219D01*
X030220Y003066D01*
X030296Y002989D01*
X030373Y002989D01*
X030450Y003066D01*
X030450Y003219D01*
X030527Y003296D01*
X030603Y003296D01*
X030680Y003219D01*
X030680Y003066D01*
X030603Y002989D01*
X030603Y002836D02*
X030680Y002759D01*
X030680Y002529D01*
X030220Y002529D01*
X030220Y002759D01*
X030296Y002836D01*
X030373Y002836D01*
X030450Y002759D01*
X030450Y002529D01*
X030450Y002759D02*
X030527Y002836D01*
X030603Y002836D01*
X008867Y015029D02*
X008636Y015182D01*
X008867Y015336D01*
X008636Y015489D02*
X008636Y015029D01*
X008483Y015412D02*
X008176Y015105D01*
X008176Y015029D01*
X008022Y015029D02*
X007946Y015029D01*
X007946Y015105D01*
X008022Y015105D01*
X008022Y015029D01*
X007716Y015029D02*
X007716Y015489D01*
X007485Y015259D01*
X007792Y015259D01*
X008176Y015489D02*
X008483Y015489D01*
X008483Y015412D01*
D13*
X009520Y014239D02*
X009520Y013739D01*
X012520Y013739D02*
X012520Y014239D01*
X016410Y014089D02*
X016410Y012689D01*
X018990Y012689D01*
X018990Y014089D01*
X016410Y014089D01*
X022349Y014380D02*
X022349Y013277D01*
X023451Y013277D01*
X023451Y014380D01*
X022349Y014380D01*
X025480Y014329D02*
X025480Y013939D01*
X025590Y013829D01*
X025580Y014329D02*
X025480Y014329D01*
X025480Y014719D01*
X025590Y014829D01*
X026330Y014329D02*
X026630Y014329D01*
X027380Y014329D02*
X027480Y014329D01*
X027480Y014719D01*
X027370Y014829D01*
X027480Y014329D02*
X027480Y013939D01*
X027370Y013829D01*
X029940Y013859D02*
X030050Y013749D01*
X029940Y013859D02*
X029940Y014249D01*
X029940Y014639D01*
X030050Y014749D01*
X030040Y014249D02*
X029940Y014249D01*
X030790Y014249D02*
X031090Y014249D01*
X031840Y014249D02*
X031940Y014249D01*
X031940Y014639D01*
X031830Y014749D01*
X031940Y014249D02*
X031940Y013859D01*
X031830Y013749D01*
X033440Y013939D02*
X033550Y013829D01*
X033440Y013939D02*
X033440Y014329D01*
X033440Y014719D01*
X033550Y014829D01*
X033540Y014329D02*
X033440Y014329D01*
X034290Y014329D02*
X034590Y014329D01*
X035340Y014329D02*
X035440Y014329D01*
X035440Y014719D01*
X035330Y014829D01*
X035440Y014329D02*
X035440Y013939D01*
X035330Y013829D01*
X036629Y013773D02*
X036629Y013734D01*
X036629Y013773D02*
X037811Y013773D01*
X037811Y013734D01*
X037811Y013340D02*
X037811Y013222D01*
X037811Y012828D02*
X037811Y012749D01*
X037811Y012356D02*
X037811Y012237D01*
X037811Y011844D02*
X037811Y011804D01*
X036629Y011804D01*
X036629Y011844D01*
X036629Y012237D02*
X036629Y012356D01*
X036629Y012749D02*
X036629Y012828D01*
X036629Y013222D02*
X036629Y013340D01*
X037098Y013580D02*
X037100Y013588D01*
X037105Y013595D01*
X037112Y013599D01*
X037120Y013600D01*
X037128Y013597D01*
X037134Y013592D01*
X037138Y013584D01*
X037138Y013576D01*
X037134Y013568D01*
X037128Y013563D01*
X037120Y013560D01*
X037112Y013561D01*
X037105Y013565D01*
X037100Y013572D01*
X037098Y013580D01*
X039970Y014859D02*
X040080Y014969D01*
X040470Y014969D01*
X040860Y014969D01*
X040970Y014859D01*
X040470Y014869D02*
X040470Y014969D01*
X040470Y014069D02*
X040470Y013869D01*
X040470Y013069D02*
X040470Y012869D01*
X040470Y012069D02*
X040470Y011869D01*
X040470Y011069D02*
X040470Y010969D01*
X040860Y010969D01*
X040970Y011079D01*
X040470Y010969D02*
X040080Y010969D01*
X039970Y011079D01*
X031290Y007895D02*
X031290Y006682D01*
X030778Y006289D02*
X029790Y006289D01*
X029290Y006682D02*
X029290Y007895D01*
X029802Y008289D02*
X030778Y008289D01*
X029790Y007289D02*
X029792Y007333D01*
X029798Y007377D01*
X029808Y007420D01*
X029821Y007462D01*
X029838Y007503D01*
X029859Y007542D01*
X029883Y007579D01*
X029910Y007614D01*
X029940Y007646D01*
X029973Y007676D01*
X030009Y007702D01*
X030046Y007726D01*
X030086Y007745D01*
X030127Y007762D01*
X030170Y007774D01*
X030213Y007783D01*
X030257Y007788D01*
X030301Y007789D01*
X030345Y007786D01*
X030389Y007779D01*
X030432Y007768D01*
X030474Y007754D01*
X030514Y007736D01*
X030553Y007714D01*
X030589Y007690D01*
X030623Y007662D01*
X030655Y007631D01*
X030684Y007597D01*
X030710Y007561D01*
X030732Y007523D01*
X030751Y007483D01*
X030766Y007441D01*
X030778Y007399D01*
X030786Y007355D01*
X030790Y007311D01*
X030790Y007267D01*
X030786Y007223D01*
X030778Y007179D01*
X030766Y007137D01*
X030751Y007095D01*
X030732Y007055D01*
X030710Y007017D01*
X030684Y006981D01*
X030655Y006947D01*
X030623Y006916D01*
X030589Y006888D01*
X030553Y006864D01*
X030514Y006842D01*
X030474Y006824D01*
X030432Y006810D01*
X030389Y006799D01*
X030345Y006792D01*
X030301Y006789D01*
X030257Y006790D01*
X030213Y006795D01*
X030170Y006804D01*
X030127Y006816D01*
X030086Y006833D01*
X030046Y006852D01*
X030009Y006876D01*
X029973Y006902D01*
X029940Y006932D01*
X029910Y006964D01*
X029883Y006999D01*
X029859Y007036D01*
X029838Y007075D01*
X029821Y007116D01*
X029808Y007158D01*
X029798Y007201D01*
X029792Y007245D01*
X029790Y007289D01*
X029480Y004799D02*
X029480Y002218D01*
X030880Y002218D01*
X030880Y004799D01*
X029480Y004799D01*
X027350Y002429D02*
X027460Y002319D01*
X027460Y001929D01*
X027460Y001539D01*
X027350Y001429D01*
X027360Y001929D02*
X027460Y001929D01*
X026610Y001929D02*
X026310Y001929D01*
X025560Y001929D02*
X025460Y001929D01*
X025460Y001539D01*
X025570Y001429D01*
X025460Y001929D02*
X025460Y002319D01*
X025570Y002429D01*
X022100Y002557D02*
X022100Y001569D01*
X021706Y001069D02*
X020494Y001069D01*
X020100Y001580D02*
X020100Y002557D01*
X020494Y003069D02*
X021706Y003069D01*
X020600Y002069D02*
X020602Y002113D01*
X020608Y002157D01*
X020618Y002200D01*
X020631Y002242D01*
X020648Y002283D01*
X020669Y002322D01*
X020693Y002359D01*
X020720Y002394D01*
X020750Y002426D01*
X020783Y002456D01*
X020819Y002482D01*
X020856Y002506D01*
X020896Y002525D01*
X020937Y002542D01*
X020980Y002554D01*
X021023Y002563D01*
X021067Y002568D01*
X021111Y002569D01*
X021155Y002566D01*
X021199Y002559D01*
X021242Y002548D01*
X021284Y002534D01*
X021324Y002516D01*
X021363Y002494D01*
X021399Y002470D01*
X021433Y002442D01*
X021465Y002411D01*
X021494Y002377D01*
X021520Y002341D01*
X021542Y002303D01*
X021561Y002263D01*
X021576Y002221D01*
X021588Y002179D01*
X021596Y002135D01*
X021600Y002091D01*
X021600Y002047D01*
X021596Y002003D01*
X021588Y001959D01*
X021576Y001917D01*
X021561Y001875D01*
X021542Y001835D01*
X021520Y001797D01*
X021494Y001761D01*
X021465Y001727D01*
X021433Y001696D01*
X021399Y001668D01*
X021363Y001644D01*
X021324Y001622D01*
X021284Y001604D01*
X021242Y001590D01*
X021199Y001579D01*
X021155Y001572D01*
X021111Y001569D01*
X021067Y001570D01*
X021023Y001575D01*
X020980Y001584D01*
X020937Y001596D01*
X020896Y001613D01*
X020856Y001632D01*
X020819Y001656D01*
X020783Y001682D01*
X020750Y001712D01*
X020720Y001744D01*
X020693Y001779D01*
X020669Y001816D01*
X020648Y001855D01*
X020631Y001896D01*
X020618Y001938D01*
X020608Y001981D01*
X020602Y002025D01*
X020600Y002069D01*
X019368Y005179D02*
X019210Y005336D01*
X019210Y008801D01*
X019368Y008958D01*
X022832Y008958D01*
X022990Y008801D01*
X022990Y005336D01*
X022832Y005179D01*
X019368Y005179D01*
X006480Y013779D02*
X006480Y014279D01*
X003480Y014279D02*
X003480Y013779D01*
X004210Y003069D02*
X004100Y002959D01*
X004210Y003069D02*
X004600Y003069D01*
X004990Y003069D01*
X005100Y002959D01*
X004600Y002969D02*
X004600Y003069D01*
X004600Y002219D02*
X004600Y001919D01*
X004600Y001169D02*
X004600Y001069D01*
X004990Y001069D01*
X005100Y001179D01*
X004600Y001069D02*
X004210Y001069D01*
X004100Y001179D01*
D14*
X022564Y008643D02*
X022566Y008663D01*
X022571Y008683D01*
X022581Y008701D01*
X022593Y008718D01*
X022608Y008732D01*
X022626Y008742D01*
X022645Y008750D01*
X022665Y008754D01*
X022685Y008754D01*
X022705Y008750D01*
X022724Y008742D01*
X022742Y008732D01*
X022757Y008718D01*
X022769Y008701D01*
X022779Y008683D01*
X022784Y008663D01*
X022786Y008643D01*
X022784Y008623D01*
X022779Y008603D01*
X022769Y008585D01*
X022757Y008568D01*
X022742Y008554D01*
X022724Y008544D01*
X022705Y008536D01*
X022685Y008532D01*
X022665Y008532D01*
X022645Y008536D01*
X022626Y008544D01*
X022608Y008554D01*
X022593Y008568D01*
X022581Y008585D01*
X022571Y008603D01*
X022566Y008623D01*
X022564Y008643D01*
D15*
X021383Y002864D02*
X021333Y002864D01*
X021308Y002839D01*
X021308Y002739D01*
X021333Y002714D01*
X021383Y002714D01*
X021408Y002739D01*
X021408Y002839D02*
X021383Y002864D01*
X021260Y002814D02*
X021260Y002714D01*
X021185Y002714D01*
X021160Y002739D01*
X021160Y002814D01*
X020965Y002814D02*
X020915Y002814D01*
X020940Y002839D02*
X020940Y002739D01*
X020965Y002714D01*
X020868Y002764D02*
X020767Y002764D01*
X020767Y002789D02*
X020792Y002814D01*
X020843Y002814D01*
X020868Y002789D01*
X020868Y002764D01*
X020843Y002714D02*
X020792Y002714D01*
X020767Y002739D01*
X020767Y002789D01*
X020720Y002814D02*
X020645Y002814D01*
X020620Y002789D01*
X020645Y002764D01*
X020695Y002764D01*
X020720Y002739D01*
X020695Y002714D01*
X020620Y002714D01*
X020573Y002764D02*
X020473Y002764D01*
X020473Y002789D02*
X020498Y002814D01*
X020548Y002814D01*
X020573Y002789D01*
X020573Y002764D01*
X020548Y002714D02*
X020498Y002714D01*
X020473Y002739D01*
X020473Y002789D01*
X020426Y002789D02*
X020401Y002764D01*
X020326Y002764D01*
X020376Y002764D02*
X020426Y002714D01*
X020426Y002789D02*
X020426Y002839D01*
X020401Y002864D01*
X020326Y002864D01*
X020326Y002714D01*
X030935Y006969D02*
X030960Y006944D01*
X031060Y006944D01*
X031085Y006969D01*
X031085Y007019D01*
X031060Y007044D01*
X031060Y007091D02*
X031085Y007116D01*
X031085Y007166D01*
X031060Y007191D01*
X031010Y007191D01*
X030985Y007166D01*
X030985Y007116D01*
X031010Y007091D01*
X031060Y007091D01*
X030960Y007044D02*
X030935Y007019D01*
X030935Y006969D01*
X030985Y007238D02*
X030985Y007313D01*
X031010Y007338D01*
X031085Y007338D01*
X031085Y007411D02*
X030960Y007411D01*
X030935Y007436D01*
X030985Y007484D02*
X030985Y007509D01*
X031085Y007509D01*
X031085Y007484D02*
X031085Y007534D01*
X031060Y007582D02*
X031085Y007607D01*
X031085Y007682D01*
X031110Y007682D02*
X030985Y007682D01*
X030985Y007607D01*
X031010Y007582D01*
X031060Y007582D01*
X031135Y007632D02*
X031135Y007657D01*
X031110Y007682D01*
X031060Y007729D02*
X031085Y007754D01*
X031085Y007829D01*
X030985Y007829D01*
X030985Y007877D02*
X031085Y007877D01*
X031035Y007877D02*
X030985Y007927D01*
X030985Y007952D01*
X031010Y007999D02*
X030985Y008024D01*
X030985Y008075D01*
X031010Y008100D01*
X031035Y008100D01*
X031035Y007999D01*
X031060Y007999D02*
X031010Y007999D01*
X031060Y007999D02*
X031085Y008024D01*
X031085Y008075D01*
X031060Y007729D02*
X030985Y007729D01*
X030935Y007509D02*
X030910Y007509D01*
X031010Y007436D02*
X031010Y007386D01*
X030985Y007238D02*
X031085Y007238D01*
D16*
X032154Y010464D02*
X041354Y010464D01*
X041354Y002966D01*
X032154Y002966D01*
X032154Y010464D01*
X015476Y008197D02*
X015476Y006020D01*
X015474Y006001D01*
X015469Y005982D01*
X015461Y005965D01*
X015450Y005949D01*
X015436Y005935D01*
X015421Y005924D01*
X015403Y005916D01*
X015384Y005911D01*
X015365Y005909D01*
X014332Y005909D01*
X014315Y005911D01*
X014298Y005916D01*
X014283Y005924D01*
X014270Y005935D01*
X014259Y005948D01*
X014251Y005963D01*
X014246Y005980D01*
X014244Y005997D01*
X014244Y008184D01*
X014246Y008203D01*
X014250Y008222D01*
X014258Y008240D01*
X014268Y008257D01*
X014280Y008272D01*
X014295Y008284D01*
X014312Y008294D01*
X014330Y008302D01*
X014349Y008306D01*
X014368Y008308D01*
X015365Y008308D01*
X015384Y008306D01*
X015403Y008301D01*
X015421Y008293D01*
X015436Y008282D01*
X015450Y008268D01*
X015461Y008253D01*
X015469Y008235D01*
X015474Y008216D01*
X015476Y008197D01*
X015319Y007954D02*
X015319Y006263D01*
X015318Y006263D02*
X015316Y006241D01*
X015312Y006219D01*
X015304Y006198D01*
X015293Y006178D01*
X015280Y006160D01*
X015264Y006144D01*
X015246Y006131D01*
X015226Y006120D01*
X015205Y006112D01*
X015183Y006108D01*
X015161Y006106D01*
X014559Y006106D01*
X014533Y006108D01*
X014508Y006113D01*
X014484Y006121D01*
X014461Y006132D01*
X014439Y006147D01*
X014420Y006164D01*
X014403Y006183D01*
X014388Y006205D01*
X014377Y006228D01*
X014369Y006252D01*
X014364Y006277D01*
X014362Y006303D01*
X014362Y007954D01*
X014367Y007979D01*
X014375Y008003D01*
X014386Y008025D01*
X014401Y008046D01*
X014418Y008065D01*
X014438Y008081D01*
X014460Y008093D01*
X014483Y008103D01*
X014508Y008109D01*
X014533Y008112D01*
X014559Y008111D01*
X014559Y008112D02*
X015161Y008112D01*
X015161Y008111D02*
X015183Y008109D01*
X015205Y008105D01*
X015226Y008097D01*
X015246Y008086D01*
X015264Y008073D01*
X015280Y008057D01*
X015293Y008039D01*
X015304Y008019D01*
X015312Y007998D01*
X015316Y007976D01*
X015318Y007954D01*
D17*
X006281Y009839D02*
X006281Y012299D01*
X004919Y012299D01*
X004919Y009839D01*
X006281Y009839D01*
X027420Y010379D02*
X028660Y010379D01*
X028683Y010381D01*
X028706Y010386D01*
X028728Y010395D01*
X028748Y010408D01*
X028766Y010423D01*
X028781Y010441D01*
X028794Y010461D01*
X028803Y010483D01*
X028808Y010506D01*
X028810Y010529D01*
X027420Y010379D02*
X027397Y010381D01*
X027374Y010386D01*
X027352Y010395D01*
X027332Y010408D01*
X027314Y010423D01*
X027299Y010441D01*
X027286Y010461D01*
X027277Y010483D01*
X027272Y010506D01*
X027270Y010529D01*
X027270Y012229D02*
X027272Y012252D01*
X027277Y012275D01*
X027286Y012297D01*
X027299Y012317D01*
X027314Y012335D01*
X027332Y012350D01*
X027352Y012363D01*
X027374Y012372D01*
X027397Y012377D01*
X027420Y012379D01*
X027840Y012379D01*
X028240Y012379D01*
X028660Y012379D01*
X028683Y012377D01*
X028706Y012372D01*
X028728Y012363D01*
X028748Y012350D01*
X028766Y012335D01*
X028781Y012317D01*
X028794Y012297D01*
X028803Y012275D01*
X028808Y012252D01*
X028810Y012229D01*
X028240Y012379D02*
X028238Y012352D01*
X028233Y012325D01*
X028223Y012299D01*
X028211Y012275D01*
X028195Y012253D01*
X028177Y012233D01*
X028155Y012216D01*
X028132Y012201D01*
X028107Y012191D01*
X028081Y012183D01*
X028054Y012179D01*
X028026Y012179D01*
X027999Y012183D01*
X027973Y012191D01*
X027948Y012201D01*
X027925Y012216D01*
X027903Y012233D01*
X027885Y012253D01*
X027869Y012275D01*
X027857Y012299D01*
X027847Y012325D01*
X027842Y012352D01*
X027840Y012379D01*
X031330Y012909D02*
X031332Y012932D01*
X031337Y012955D01*
X031346Y012977D01*
X031359Y012997D01*
X031374Y013015D01*
X031392Y013030D01*
X031412Y013043D01*
X031434Y013052D01*
X031457Y013057D01*
X031480Y013059D01*
X031900Y013059D01*
X032300Y013059D01*
X032720Y013059D01*
X032743Y013057D01*
X032766Y013052D01*
X032788Y013043D01*
X032808Y013030D01*
X032826Y013015D01*
X032841Y012997D01*
X032854Y012977D01*
X032863Y012955D01*
X032868Y012932D01*
X032870Y012909D01*
X032300Y013059D02*
X032298Y013032D01*
X032293Y013005D01*
X032283Y012979D01*
X032271Y012955D01*
X032255Y012933D01*
X032237Y012913D01*
X032215Y012896D01*
X032192Y012881D01*
X032167Y012871D01*
X032141Y012863D01*
X032114Y012859D01*
X032086Y012859D01*
X032059Y012863D01*
X032033Y012871D01*
X032008Y012881D01*
X031985Y012896D01*
X031963Y012913D01*
X031945Y012933D01*
X031929Y012955D01*
X031917Y012979D01*
X031907Y013005D01*
X031902Y013032D01*
X031900Y013059D01*
X031330Y011209D02*
X031332Y011186D01*
X031337Y011163D01*
X031346Y011141D01*
X031359Y011121D01*
X031374Y011103D01*
X031392Y011088D01*
X031412Y011075D01*
X031434Y011066D01*
X031457Y011061D01*
X031480Y011059D01*
X032720Y011059D01*
X032743Y011061D01*
X032766Y011066D01*
X032788Y011075D01*
X032808Y011088D01*
X032826Y011103D01*
X032841Y011121D01*
X032854Y011141D01*
X032863Y011163D01*
X032868Y011186D01*
X032870Y011209D01*
D18*
X022506Y014222D03*
D19*
X022563Y013978D02*
X022810Y013731D01*
X022872Y013793D01*
X022872Y013916D01*
X022810Y013978D01*
X022563Y013978D01*
X022501Y013916D01*
X022501Y013793D01*
X022563Y013731D01*
X022810Y013731D01*
X022872Y013610D02*
X022872Y013363D01*
X022625Y013610D01*
X022563Y013610D01*
X022501Y013548D01*
X022501Y013425D01*
X022563Y013363D01*
X022563Y013241D02*
X022625Y013241D01*
X022686Y013180D01*
X022686Y013056D01*
X022625Y012995D01*
X022563Y012995D01*
X022501Y013056D01*
X022501Y013180D01*
X022563Y013241D01*
X022686Y013180D02*
X022748Y013241D01*
X022810Y013241D01*
X022872Y013180D01*
X022872Y013056D01*
X022810Y012995D01*
X022748Y012995D01*
X022686Y013056D01*
X022872Y012873D02*
X022872Y012626D01*
X022872Y012750D02*
X022501Y012750D01*
X022625Y012626D01*
X022563Y012505D02*
X022501Y012443D01*
X022501Y012320D01*
X022563Y012258D01*
X022625Y012258D01*
X022686Y012320D01*
X022686Y012443D01*
X022748Y012505D01*
X022810Y012505D01*
X022872Y012443D01*
X022872Y012320D01*
X022810Y012258D01*
X022810Y012137D02*
X022563Y012137D01*
X022501Y012075D01*
X022501Y011890D01*
X022872Y011890D01*
X022872Y012075D01*
X022810Y012137D01*
X028130Y006232D02*
X028130Y005985D01*
X028007Y006109D02*
X028254Y006109D01*
X033855Y002791D02*
X033855Y002598D01*
X033855Y002695D02*
X034145Y002695D01*
X034097Y002497D02*
X034145Y002448D01*
X034145Y002352D01*
X034097Y002303D01*
X034000Y002352D02*
X034000Y002448D01*
X034048Y002497D01*
X034097Y002497D01*
X034000Y002352D02*
X033952Y002303D01*
X033903Y002303D01*
X033855Y002352D01*
X033855Y002448D01*
X033903Y002497D01*
X033903Y002202D02*
X034000Y002202D01*
X034048Y002154D01*
X034048Y002009D01*
X034048Y002105D02*
X034145Y002202D01*
X034145Y002009D02*
X033855Y002009D01*
X033855Y002154D01*
X033903Y002202D01*
X034855Y002154D02*
X034855Y002009D01*
X035145Y002009D01*
X035048Y002009D02*
X035048Y002154D01*
X035000Y002202D01*
X034903Y002202D01*
X034855Y002154D01*
X034855Y002303D02*
X035145Y002497D01*
X035145Y002598D02*
X034952Y002791D01*
X034903Y002791D01*
X034855Y002743D01*
X034855Y002646D01*
X034903Y002598D01*
X034855Y002497D02*
X035145Y002303D01*
X035145Y002202D02*
X035048Y002105D01*
X035355Y002105D02*
X035645Y002105D01*
X035645Y002303D02*
X035355Y002497D01*
X035403Y002598D02*
X035355Y002646D01*
X035355Y002743D01*
X035403Y002791D01*
X035452Y002791D01*
X035645Y002598D01*
X035645Y002791D01*
X035855Y002788D02*
X035855Y002643D01*
X036145Y002643D01*
X036145Y002788D01*
X036097Y002836D01*
X035903Y002836D01*
X035855Y002788D01*
X035855Y002541D02*
X036145Y002541D01*
X035855Y002348D01*
X036145Y002348D01*
X036097Y002247D02*
X036000Y002247D01*
X036000Y002150D01*
X036097Y002053D02*
X036145Y002102D01*
X036145Y002198D01*
X036097Y002247D01*
X036097Y002053D02*
X035903Y002053D01*
X035855Y002102D01*
X035855Y002198D01*
X035903Y002247D01*
X035903Y001952D02*
X035855Y001904D01*
X035855Y001807D01*
X035903Y001759D01*
X035952Y001759D01*
X036000Y001807D01*
X036000Y001904D01*
X036048Y001952D01*
X036097Y001952D01*
X036145Y001904D01*
X036145Y001807D01*
X036097Y001759D01*
X036355Y002009D02*
X036355Y002202D01*
X036355Y002105D02*
X036645Y002105D01*
X036645Y002303D02*
X036355Y002497D01*
X036452Y002598D02*
X036355Y002695D01*
X036645Y002695D01*
X036645Y002791D02*
X036645Y002598D01*
X036645Y002497D02*
X036355Y002303D01*
X036855Y002303D02*
X037145Y002497D01*
X037145Y002598D02*
X037145Y002791D01*
X037145Y002695D02*
X036855Y002695D01*
X036952Y002598D01*
X036855Y002497D02*
X037145Y002303D01*
X037145Y002202D02*
X037048Y002105D01*
X037048Y002154D02*
X037048Y002009D01*
X037145Y002009D02*
X036855Y002009D01*
X036855Y002154D01*
X036903Y002202D01*
X037000Y002202D01*
X037048Y002154D01*
X037355Y002202D02*
X037548Y002202D01*
X037645Y002105D01*
X037548Y002009D01*
X037355Y002009D01*
X037403Y002303D02*
X037597Y002303D01*
X037645Y002352D01*
X037645Y002448D01*
X037597Y002497D01*
X037597Y002598D02*
X037645Y002646D01*
X037645Y002743D01*
X037597Y002791D01*
X037597Y002598D02*
X037403Y002598D01*
X037355Y002646D01*
X037355Y002743D01*
X037403Y002791D01*
X037403Y002497D02*
X037355Y002448D01*
X037355Y002352D01*
X037403Y002303D01*
X037855Y002303D02*
X038145Y002497D01*
X037855Y002497D01*
X037855Y002598D02*
X037855Y002743D01*
X037903Y002791D01*
X038097Y002791D01*
X038145Y002743D01*
X038145Y002598D01*
X037855Y002598D01*
X037855Y002303D02*
X038145Y002303D01*
X038097Y002202D02*
X038000Y002202D01*
X038000Y002105D01*
X037903Y002009D02*
X038097Y002009D01*
X038145Y002057D01*
X038145Y002154D01*
X038097Y002202D01*
X037903Y002202D02*
X037855Y002154D01*
X037855Y002057D01*
X037903Y002009D01*
X035645Y002497D02*
X035355Y002303D01*
X035355Y002202D02*
X035355Y002009D01*
X035145Y002598D02*
X035145Y002791D01*
X035145Y010509D02*
X035145Y010605D01*
X035145Y010557D02*
X034855Y010557D01*
X034855Y010509D02*
X034855Y010605D01*
X034903Y010705D02*
X035097Y010705D01*
X035145Y010753D01*
X035145Y010850D01*
X035097Y010899D01*
X034903Y010899D01*
X034855Y010850D01*
X034855Y010753D01*
X034903Y010705D01*
X034645Y010753D02*
X034645Y010850D01*
X034597Y010899D01*
X034403Y010899D01*
X034355Y010850D01*
X034355Y010753D01*
X034403Y010705D01*
X034597Y010705D01*
X034645Y010753D01*
X034645Y010605D02*
X034645Y010509D01*
X034645Y010557D02*
X034355Y010557D01*
X034355Y010509D02*
X034355Y010605D01*
X034145Y010557D02*
X034145Y010654D01*
X034097Y010702D01*
X034145Y010803D02*
X033855Y010803D01*
X033855Y010997D01*
X033903Y011098D02*
X034097Y011098D01*
X034145Y011146D01*
X034145Y011243D01*
X034097Y011291D01*
X034000Y011291D01*
X034000Y011195D01*
X033903Y011291D02*
X033855Y011243D01*
X033855Y011146D01*
X033903Y011098D01*
X034000Y010900D02*
X034000Y010803D01*
X033903Y010702D02*
X033855Y010654D01*
X033855Y010557D01*
X033903Y010509D01*
X034097Y010509D01*
X034145Y010557D01*
X034403Y011000D02*
X034452Y011000D01*
X034500Y011048D01*
X034500Y011193D01*
X034597Y011193D02*
X034403Y011193D01*
X034355Y011145D01*
X034355Y011048D01*
X034403Y011000D01*
X034597Y011000D02*
X034645Y011048D01*
X034645Y011145D01*
X034597Y011193D01*
X034855Y011145D02*
X034855Y011048D01*
X034903Y011000D01*
X034952Y011000D01*
X035000Y011048D01*
X035000Y011145D01*
X035048Y011193D01*
X035097Y011193D01*
X035145Y011145D01*
X035145Y011048D01*
X035097Y011000D01*
X035048Y011000D01*
X035000Y011048D01*
X035000Y011145D02*
X034952Y011193D01*
X034903Y011193D01*
X034855Y011145D01*
X035855Y011098D02*
X035855Y011243D01*
X035903Y011291D01*
X036000Y011291D01*
X036048Y011243D01*
X036048Y011098D01*
X036145Y011098D02*
X035855Y011098D01*
X035855Y010803D02*
X036145Y010803D01*
X036145Y010997D01*
X036355Y011098D02*
X036452Y011195D01*
X036355Y011291D01*
X036645Y011291D01*
X036645Y011098D02*
X036355Y011098D01*
X036355Y010803D02*
X036645Y010803D01*
X036645Y010997D01*
X036855Y010997D02*
X036855Y010803D01*
X037145Y010803D01*
X037145Y010997D01*
X037000Y010900D02*
X037000Y010803D01*
X037145Y010702D02*
X036855Y010702D01*
X036855Y010509D02*
X037145Y010702D01*
X037145Y010509D02*
X036855Y010509D01*
X036645Y010509D02*
X036452Y010509D01*
X036355Y010605D01*
X036452Y010702D01*
X036645Y010702D01*
X036500Y010702D02*
X036500Y010509D01*
X036145Y010557D02*
X036097Y010509D01*
X036145Y010557D02*
X036145Y010654D01*
X036097Y010702D01*
X036048Y010702D01*
X036000Y010654D01*
X036000Y010557D01*
X035952Y010509D01*
X035903Y010509D01*
X035855Y010557D01*
X035855Y010654D01*
X035903Y010702D01*
X036855Y011098D02*
X036855Y011291D01*
X036855Y011195D02*
X037145Y011195D01*
X037355Y011291D02*
X037645Y011291D01*
X037355Y011098D01*
X037645Y011098D01*
X037597Y010997D02*
X037355Y010997D01*
X037355Y010803D02*
X037597Y010803D01*
X037645Y010852D01*
X037645Y010948D01*
X037597Y010997D01*
X037855Y010948D02*
X037855Y010803D01*
X038145Y010803D01*
X038145Y010948D01*
X038097Y010997D01*
X037903Y010997D01*
X037855Y010948D01*
X038000Y011098D02*
X038000Y011291D01*
X038145Y011243D02*
X037855Y011243D01*
X038000Y011098D01*
X038000Y010702D02*
X038000Y010509D01*
X037952Y010509D02*
X037855Y010605D01*
X037952Y010702D01*
X038145Y010702D01*
X038145Y010509D02*
X037952Y010509D01*
X037645Y010509D02*
X037355Y010509D01*
X037355Y010654D01*
X037403Y010702D01*
X037500Y010702D01*
X037548Y010654D01*
X037548Y010509D01*
X037548Y010605D02*
X037645Y010702D01*
D20*
X028096Y005250D03*
X027624Y005250D03*
D21*
X027860Y005250D03*
M02*
