%
M48
M72
T01C0.0236
T02C0.0240
T03C0.0400
%
T01
X12100Y6748
X15350Y7498
X16600Y11248
X12100Y15248
X15350Y15998
X31600Y15248
X31600Y6748
X16600Y2748
T02
X22520Y6728
X22520Y15228
X3020Y15228
X3020Y6728
T03
X2100Y1748
X3100Y1748
X4100Y1748
X5100Y1748
X5100Y3748
X4100Y3748
X3100Y3748
X2100Y3748
X1100Y3748
X7100Y3748
X8100Y3748
X9100Y3748
X10100Y3748
X11100Y3748
X12100Y3748
X14100Y3748
X15100Y3748
X16100Y3748
X17100Y3748
X18100Y3748
X20600Y3748
X21600Y3748
X22600Y3748
X23600Y3748
X24600Y3748
X26600Y3748
X27600Y3748
X28600Y3748
X29600Y3748
X30600Y3748
X31600Y3748
X31600Y1748
X30600Y1748
X29600Y1748
X28600Y1748
X24600Y1748
X23600Y1748
X22600Y1748
X21600Y1748
X17100Y1748
X16100Y1748
X15100Y1748
X14100Y1748
X12100Y1748
X11100Y1748
X10100Y1748
X9100Y1748
X9100Y10248
X10100Y10248
X11100Y10248
X12100Y10248
X14100Y10248
X15100Y10248
X16100Y10248
X17100Y10248
X17100Y12248
X16100Y12248
X15100Y12248
X14100Y12248
X12100Y12248
X11100Y12248
X10100Y12248
X9100Y12248
X8100Y12248
X7100Y12248
X5100Y12248
X4100Y12248
X3100Y12248
X2100Y12248
X1100Y12248
X2100Y10248
X3100Y10248
X4100Y10248
X5100Y10248
X18100Y12248
X20600Y12248
X21600Y12248
X22600Y12248
X23600Y12248
X24600Y12248
X26600Y12248
X27600Y12248
X28600Y12248
X29600Y12248
X30600Y12248
X31600Y12248
X31600Y10248
X30600Y10248
X29600Y10248
X28600Y10248
X24600Y10248
X23600Y10248
X22600Y10248
X21600Y10248
M30
