G75*
%MOIN*%
%OFA0B0*%
%FSLAX24Y24*%
%IPPOS*%
%LPD*%
%AMOC8*
5,1,8,0,0,1.08239X$1,22.5*
%
%ADD10C,0.0000*%
%ADD11C,0.0020*%
%ADD12C,0.0040*%
%ADD13R,0.0077X0.0077*%
%ADD14C,0.0060*%
%ADD15R,0.0150X0.0100*%
%ADD16C,0.0050*%
%ADD17R,0.0250X0.0200*%
%ADD18R,0.0079X0.0079*%
D10*
X000100Y000248D02*
X000100Y008744D01*
X000100Y008748D02*
X000100Y017244D01*
X000100Y017248D02*
X006100Y017248D01*
X013100Y017248D01*
X019470Y017248D01*
X019470Y017244D02*
X019470Y008748D01*
X013100Y008748D01*
X013100Y017248D01*
X019600Y017248D02*
X025600Y017248D01*
X032600Y017248D01*
X032600Y008748D01*
X025600Y008748D01*
X025600Y017248D01*
X019600Y017244D02*
X019600Y008748D01*
X025600Y008748D01*
X032600Y008748D01*
X032600Y000248D01*
X025600Y000248D01*
X025600Y008748D01*
X019600Y008748D01*
X019600Y008744D02*
X019600Y000248D01*
X025600Y000248D01*
X019470Y000248D02*
X019470Y008744D01*
X019470Y008748D02*
X013100Y008748D01*
X006100Y008748D01*
X006100Y017248D01*
X006100Y008748D02*
X000100Y008748D01*
X006100Y008748D01*
X013100Y008748D01*
X013100Y000248D01*
X019470Y000248D01*
X013100Y000248D02*
X006100Y000248D01*
X006100Y008748D01*
X006100Y000248D02*
X000100Y000248D01*
D11*
X000771Y002518D02*
X000844Y002518D01*
X000807Y002518D02*
X000807Y002738D01*
X000771Y002738D02*
X000844Y002738D01*
X000918Y002738D02*
X001065Y002518D01*
X001065Y002738D01*
X001139Y002738D02*
X001286Y002738D01*
X001212Y002738D02*
X001212Y002518D01*
X000918Y002518D02*
X000918Y002738D01*
X001697Y002701D02*
X001697Y002554D01*
X001734Y002518D01*
X001807Y002518D01*
X001844Y002554D01*
X001844Y002628D01*
X001770Y002628D01*
X001697Y002701D02*
X001734Y002738D01*
X001807Y002738D01*
X001844Y002701D01*
X001918Y002738D02*
X002065Y002518D01*
X002065Y002738D01*
X002139Y002738D02*
X002249Y002738D01*
X002286Y002701D01*
X002286Y002554D01*
X002249Y002518D01*
X002139Y002518D01*
X002139Y002738D01*
X001918Y002738D02*
X001918Y002518D01*
X002697Y002554D02*
X002734Y002518D01*
X002807Y002518D01*
X002844Y002554D01*
X002844Y002591D01*
X002807Y002628D01*
X002734Y002628D01*
X002697Y002664D01*
X002697Y002701D01*
X002734Y002738D01*
X002807Y002738D01*
X002844Y002701D01*
X002918Y002738D02*
X003028Y002738D01*
X003065Y002701D01*
X003065Y002554D01*
X003028Y002518D01*
X002918Y002518D01*
X002918Y002738D01*
X003139Y002664D02*
X003139Y002518D01*
X003139Y002628D02*
X003286Y002628D01*
X003286Y002664D02*
X003286Y002518D01*
X003286Y002664D02*
X003212Y002738D01*
X003139Y002664D01*
X003697Y002664D02*
X003734Y002628D01*
X003807Y002628D01*
X003844Y002591D01*
X003844Y002554D01*
X003807Y002518D01*
X003734Y002518D01*
X003697Y002554D01*
X003697Y002664D02*
X003697Y002701D01*
X003734Y002738D01*
X003807Y002738D01*
X003844Y002701D01*
X003918Y002701D02*
X003918Y002554D01*
X003955Y002518D01*
X004028Y002518D01*
X004065Y002554D01*
X004139Y002518D02*
X004286Y002518D01*
X004139Y002518D02*
X004139Y002738D01*
X004065Y002701D02*
X004028Y002738D01*
X003955Y002738D01*
X003918Y002701D01*
X004697Y002738D02*
X004697Y002591D01*
X004770Y002518D01*
X004844Y002591D01*
X004844Y002738D01*
X004918Y002701D02*
X004918Y002554D01*
X004955Y002518D01*
X005028Y002518D01*
X005065Y002554D01*
X005139Y002554D02*
X005176Y002518D01*
X005249Y002518D01*
X005286Y002554D01*
X005139Y002554D02*
X005139Y002701D01*
X005176Y002738D01*
X005249Y002738D01*
X005286Y002701D01*
X005065Y002701D02*
X005028Y002738D01*
X004955Y002738D01*
X004918Y002701D01*
X006726Y002664D02*
X006726Y002518D01*
X006726Y002628D02*
X006873Y002628D01*
X006873Y002664D02*
X006873Y002518D01*
X006947Y002518D02*
X007057Y002518D01*
X007094Y002554D01*
X007094Y002701D01*
X007057Y002738D01*
X006947Y002738D01*
X006947Y002518D01*
X006873Y002664D02*
X006799Y002738D01*
X006726Y002664D01*
X007168Y002738D02*
X007168Y002518D01*
X007278Y002518D01*
X007315Y002554D01*
X007315Y002701D01*
X007278Y002738D01*
X007168Y002738D01*
X007389Y002738D02*
X007389Y002518D01*
X007389Y002591D02*
X007499Y002591D01*
X007536Y002628D01*
X007536Y002701D01*
X007499Y002738D01*
X007389Y002738D01*
X007462Y002591D02*
X007536Y002518D01*
X007771Y002518D02*
X007844Y002518D01*
X007807Y002518D02*
X007807Y002738D01*
X007771Y002738D02*
X007844Y002738D01*
X007918Y002738D02*
X008065Y002518D01*
X008065Y002738D01*
X008139Y002738D02*
X008286Y002738D01*
X008212Y002738D02*
X008212Y002518D01*
X007918Y002518D02*
X007918Y002738D01*
X008697Y002701D02*
X008697Y002554D01*
X008734Y002518D01*
X008807Y002518D01*
X008844Y002554D01*
X008844Y002628D01*
X008770Y002628D01*
X008697Y002701D02*
X008734Y002738D01*
X008807Y002738D01*
X008844Y002701D01*
X008918Y002738D02*
X009065Y002518D01*
X009065Y002738D01*
X009139Y002738D02*
X009249Y002738D01*
X009286Y002701D01*
X009286Y002554D01*
X009249Y002518D01*
X009139Y002518D01*
X009139Y002738D01*
X008918Y002738D02*
X008918Y002518D01*
X009697Y002554D02*
X009734Y002518D01*
X009807Y002518D01*
X009844Y002554D01*
X009844Y002591D01*
X009807Y002628D01*
X009734Y002628D01*
X009697Y002664D01*
X009697Y002701D01*
X009734Y002738D01*
X009807Y002738D01*
X009844Y002701D01*
X009918Y002738D02*
X010028Y002738D01*
X010065Y002701D01*
X010065Y002554D01*
X010028Y002518D01*
X009918Y002518D01*
X009918Y002738D01*
X010139Y002664D02*
X010139Y002518D01*
X010139Y002628D02*
X010286Y002628D01*
X010286Y002664D02*
X010286Y002518D01*
X010286Y002664D02*
X010212Y002738D01*
X010139Y002664D01*
X010697Y002664D02*
X010734Y002628D01*
X010807Y002628D01*
X010844Y002591D01*
X010844Y002554D01*
X010807Y002518D01*
X010734Y002518D01*
X010697Y002554D01*
X010697Y002664D02*
X010697Y002701D01*
X010734Y002738D01*
X010807Y002738D01*
X010844Y002701D01*
X010918Y002701D02*
X010918Y002554D01*
X010955Y002518D01*
X011028Y002518D01*
X011065Y002554D01*
X011139Y002518D02*
X011139Y002738D01*
X011065Y002701D02*
X011028Y002738D01*
X010955Y002738D01*
X010918Y002701D01*
X011139Y002518D02*
X011286Y002518D01*
X011697Y002591D02*
X011697Y002738D01*
X011844Y002738D02*
X011844Y002591D01*
X011770Y002518D01*
X011697Y002591D01*
X011918Y002554D02*
X011918Y002701D01*
X011955Y002738D01*
X012028Y002738D01*
X012065Y002701D01*
X012139Y002701D02*
X012139Y002554D01*
X012176Y002518D01*
X012249Y002518D01*
X012286Y002554D01*
X012286Y002701D02*
X012249Y002738D01*
X012176Y002738D01*
X012139Y002701D01*
X012065Y002554D02*
X012028Y002518D01*
X011955Y002518D01*
X011918Y002554D01*
X013697Y002554D02*
X013734Y002518D01*
X013807Y002518D01*
X013844Y002554D01*
X013844Y002628D01*
X013770Y002628D01*
X013697Y002701D02*
X013697Y002554D01*
X013697Y002701D02*
X013734Y002738D01*
X013807Y002738D01*
X013844Y002701D01*
X013918Y002738D02*
X014065Y002518D01*
X014065Y002738D01*
X014139Y002738D02*
X014249Y002738D01*
X014286Y002701D01*
X014286Y002554D01*
X014249Y002518D01*
X014139Y002518D01*
X014139Y002738D01*
X013918Y002738D02*
X013918Y002518D01*
X014697Y002554D02*
X014734Y002518D01*
X014807Y002518D01*
X014844Y002554D01*
X014844Y002591D01*
X014807Y002628D01*
X014734Y002628D01*
X014697Y002664D01*
X014697Y002701D01*
X014734Y002738D01*
X014807Y002738D01*
X014844Y002701D01*
X014918Y002738D02*
X015028Y002738D01*
X015065Y002701D01*
X015065Y002554D01*
X015028Y002518D01*
X014918Y002518D01*
X014918Y002738D01*
X015139Y002664D02*
X015139Y002518D01*
X015139Y002628D02*
X015286Y002628D01*
X015286Y002664D02*
X015286Y002518D01*
X015286Y002664D02*
X015212Y002738D01*
X015139Y002664D01*
X015697Y002664D02*
X015734Y002628D01*
X015807Y002628D01*
X015844Y002591D01*
X015844Y002554D01*
X015807Y002518D01*
X015734Y002518D01*
X015697Y002554D01*
X015697Y002664D02*
X015697Y002701D01*
X015734Y002738D01*
X015807Y002738D01*
X015844Y002701D01*
X015918Y002701D02*
X015918Y002554D01*
X015955Y002518D01*
X016028Y002518D01*
X016065Y002554D01*
X016139Y002518D02*
X016286Y002518D01*
X016139Y002518D02*
X016139Y002738D01*
X016065Y002701D02*
X016028Y002738D01*
X015955Y002738D01*
X015918Y002701D01*
X016947Y002738D02*
X016947Y002591D01*
X017020Y002518D01*
X017094Y002591D01*
X017094Y002738D01*
X017168Y002701D02*
X017168Y002554D01*
X017205Y002518D01*
X017278Y002518D01*
X017315Y002554D01*
X017389Y002554D02*
X017389Y002701D01*
X017426Y002738D01*
X017499Y002738D01*
X017536Y002701D01*
X017536Y002554D02*
X017499Y002518D01*
X017426Y002518D01*
X017389Y002554D01*
X017315Y002701D02*
X017278Y002738D01*
X017205Y002738D01*
X017168Y002701D01*
X017771Y002738D02*
X017844Y002738D01*
X017807Y002738D02*
X017807Y002518D01*
X017771Y002518D02*
X017844Y002518D01*
X017918Y002518D02*
X017918Y002738D01*
X018065Y002518D01*
X018065Y002738D01*
X018139Y002738D02*
X018286Y002738D01*
X018212Y002738D02*
X018212Y002518D01*
X020271Y002518D02*
X020344Y002518D01*
X020307Y002518D02*
X020307Y002738D01*
X020271Y002738D02*
X020344Y002738D01*
X020418Y002738D02*
X020565Y002518D01*
X020565Y002738D01*
X020639Y002738D02*
X020786Y002738D01*
X020712Y002738D02*
X020712Y002518D01*
X020418Y002518D02*
X020418Y002738D01*
X021197Y002701D02*
X021197Y002554D01*
X021234Y002518D01*
X021307Y002518D01*
X021344Y002554D01*
X021344Y002628D01*
X021270Y002628D01*
X021197Y002701D02*
X021234Y002738D01*
X021307Y002738D01*
X021344Y002701D01*
X021418Y002738D02*
X021565Y002518D01*
X021565Y002738D01*
X021639Y002738D02*
X021639Y002518D01*
X021749Y002518D01*
X021786Y002554D01*
X021786Y002701D01*
X021749Y002738D01*
X021639Y002738D01*
X021418Y002738D02*
X021418Y002518D01*
X022197Y002554D02*
X022234Y002518D01*
X022307Y002518D01*
X022344Y002554D01*
X022344Y002591D01*
X022307Y002628D01*
X022234Y002628D01*
X022197Y002664D01*
X022197Y002701D01*
X022234Y002738D01*
X022307Y002738D01*
X022344Y002701D01*
X022418Y002738D02*
X022528Y002738D01*
X022565Y002701D01*
X022565Y002554D01*
X022528Y002518D01*
X022418Y002518D01*
X022418Y002738D01*
X022639Y002664D02*
X022639Y002518D01*
X022639Y002628D02*
X022786Y002628D01*
X022786Y002664D02*
X022786Y002518D01*
X022786Y002664D02*
X022712Y002738D01*
X022639Y002664D01*
X023197Y002664D02*
X023234Y002628D01*
X023307Y002628D01*
X023344Y002591D01*
X023344Y002554D01*
X023307Y002518D01*
X023234Y002518D01*
X023197Y002554D01*
X023197Y002664D02*
X023197Y002701D01*
X023234Y002738D01*
X023307Y002738D01*
X023344Y002701D01*
X023418Y002701D02*
X023418Y002554D01*
X023455Y002518D01*
X023528Y002518D01*
X023565Y002554D01*
X023639Y002518D02*
X023786Y002518D01*
X023639Y002518D02*
X023639Y002738D01*
X023565Y002701D02*
X023528Y002738D01*
X023455Y002738D01*
X023418Y002701D01*
X024197Y002738D02*
X024197Y002591D01*
X024270Y002518D01*
X024344Y002591D01*
X024344Y002738D01*
X024418Y002701D02*
X024418Y002554D01*
X024455Y002518D01*
X024528Y002518D01*
X024565Y002554D01*
X024639Y002554D02*
X024676Y002518D01*
X024749Y002518D01*
X024786Y002554D01*
X024639Y002554D02*
X024639Y002701D01*
X024676Y002738D01*
X024749Y002738D01*
X024786Y002701D01*
X024565Y002701D02*
X024528Y002738D01*
X024455Y002738D01*
X024418Y002701D01*
X026226Y002664D02*
X026226Y002518D01*
X026226Y002628D02*
X026373Y002628D01*
X026373Y002664D02*
X026373Y002518D01*
X026447Y002518D02*
X026557Y002518D01*
X026594Y002554D01*
X026594Y002701D01*
X026557Y002738D01*
X026447Y002738D01*
X026447Y002518D01*
X026373Y002664D02*
X026299Y002738D01*
X026226Y002664D01*
X026668Y002738D02*
X026668Y002518D01*
X026778Y002518D01*
X026815Y002554D01*
X026815Y002701D01*
X026778Y002738D01*
X026668Y002738D01*
X026889Y002738D02*
X026889Y002518D01*
X026889Y002591D02*
X026999Y002591D01*
X027036Y002628D01*
X027036Y002701D01*
X026999Y002738D01*
X026889Y002738D01*
X026962Y002591D02*
X027036Y002518D01*
X027271Y002518D02*
X027344Y002518D01*
X027307Y002518D02*
X027307Y002738D01*
X027271Y002738D02*
X027344Y002738D01*
X027418Y002738D02*
X027565Y002518D01*
X027565Y002738D01*
X027639Y002738D02*
X027786Y002738D01*
X027712Y002738D02*
X027712Y002518D01*
X027418Y002518D02*
X027418Y002738D01*
X028197Y002701D02*
X028197Y002554D01*
X028234Y002518D01*
X028307Y002518D01*
X028344Y002554D01*
X028344Y002628D01*
X028270Y002628D01*
X028197Y002701D02*
X028234Y002738D01*
X028307Y002738D01*
X028344Y002701D01*
X028418Y002738D02*
X028565Y002518D01*
X028565Y002738D01*
X028639Y002738D02*
X028749Y002738D01*
X028786Y002701D01*
X028786Y002554D01*
X028749Y002518D01*
X028639Y002518D01*
X028639Y002738D01*
X028418Y002738D02*
X028418Y002518D01*
X029197Y002554D02*
X029234Y002518D01*
X029307Y002518D01*
X029344Y002554D01*
X029344Y002591D01*
X029307Y002628D01*
X029234Y002628D01*
X029197Y002664D01*
X029197Y002701D01*
X029234Y002738D01*
X029307Y002738D01*
X029344Y002701D01*
X029418Y002738D02*
X029528Y002738D01*
X029565Y002701D01*
X029565Y002554D01*
X029528Y002518D01*
X029418Y002518D01*
X029418Y002738D01*
X029639Y002664D02*
X029639Y002518D01*
X029639Y002628D02*
X029786Y002628D01*
X029786Y002664D02*
X029786Y002518D01*
X029786Y002664D02*
X029712Y002738D01*
X029639Y002664D01*
X030197Y002664D02*
X030234Y002628D01*
X030307Y002628D01*
X030344Y002591D01*
X030344Y002554D01*
X030307Y002518D01*
X030234Y002518D01*
X030197Y002554D01*
X030197Y002664D02*
X030197Y002701D01*
X030234Y002738D01*
X030307Y002738D01*
X030344Y002701D01*
X030418Y002701D02*
X030418Y002554D01*
X030455Y002518D01*
X030528Y002518D01*
X030565Y002554D01*
X030639Y002518D02*
X030786Y002518D01*
X030639Y002518D02*
X030639Y002738D01*
X030565Y002701D02*
X030528Y002738D01*
X030455Y002738D01*
X030418Y002701D01*
X031197Y002738D02*
X031197Y002591D01*
X031270Y002518D01*
X031344Y002591D01*
X031344Y002738D01*
X031418Y002701D02*
X031418Y002554D01*
X031455Y002518D01*
X031528Y002518D01*
X031565Y002554D01*
X031639Y002554D02*
X031676Y002518D01*
X031749Y002518D01*
X031786Y002554D01*
X031639Y002554D02*
X031639Y002701D01*
X031676Y002738D01*
X031749Y002738D01*
X031786Y002701D01*
X031565Y002701D02*
X031528Y002738D01*
X031455Y002738D01*
X031418Y002701D01*
X031455Y011018D02*
X031528Y011018D01*
X031565Y011054D01*
X031639Y011054D02*
X031676Y011018D01*
X031749Y011018D01*
X031786Y011054D01*
X031639Y011054D02*
X031639Y011201D01*
X031676Y011238D01*
X031749Y011238D01*
X031786Y011201D01*
X031565Y011201D02*
X031528Y011238D01*
X031455Y011238D01*
X031418Y011201D01*
X031418Y011054D01*
X031455Y011018D01*
X031344Y011091D02*
X031344Y011238D01*
X031197Y011238D02*
X031197Y011091D01*
X031270Y011018D01*
X031344Y011091D01*
X030786Y011018D02*
X030639Y011018D01*
X030639Y011238D01*
X030565Y011201D02*
X030528Y011238D01*
X030455Y011238D01*
X030418Y011201D01*
X030418Y011054D01*
X030455Y011018D01*
X030528Y011018D01*
X030565Y011054D01*
X030344Y011054D02*
X030307Y011018D01*
X030234Y011018D01*
X030197Y011054D01*
X030234Y011128D02*
X030307Y011128D01*
X030344Y011091D01*
X030344Y011054D01*
X030234Y011128D02*
X030197Y011164D01*
X030197Y011201D01*
X030234Y011238D01*
X030307Y011238D01*
X030344Y011201D01*
X029786Y011164D02*
X029786Y011018D01*
X029786Y011128D02*
X029639Y011128D01*
X029639Y011164D02*
X029712Y011238D01*
X029786Y011164D01*
X029639Y011164D02*
X029639Y011018D01*
X029565Y011054D02*
X029565Y011201D01*
X029528Y011238D01*
X029418Y011238D01*
X029418Y011018D01*
X029528Y011018D01*
X029565Y011054D01*
X029344Y011054D02*
X029307Y011018D01*
X029234Y011018D01*
X029197Y011054D01*
X029234Y011128D02*
X029307Y011128D01*
X029344Y011091D01*
X029344Y011054D01*
X029234Y011128D02*
X029197Y011164D01*
X029197Y011201D01*
X029234Y011238D01*
X029307Y011238D01*
X029344Y011201D01*
X028786Y011201D02*
X028786Y011054D01*
X028749Y011018D01*
X028639Y011018D01*
X028639Y011238D01*
X028749Y011238D01*
X028786Y011201D01*
X028565Y011238D02*
X028565Y011018D01*
X028418Y011238D01*
X028418Y011018D01*
X028344Y011054D02*
X028344Y011128D01*
X028270Y011128D01*
X028197Y011201D02*
X028197Y011054D01*
X028234Y011018D01*
X028307Y011018D01*
X028344Y011054D01*
X028344Y011201D02*
X028307Y011238D01*
X028234Y011238D01*
X028197Y011201D01*
X027786Y011238D02*
X027639Y011238D01*
X027712Y011238D02*
X027712Y011018D01*
X027565Y011018D02*
X027565Y011238D01*
X027418Y011238D02*
X027418Y011018D01*
X027344Y011018D02*
X027271Y011018D01*
X027307Y011018D02*
X027307Y011238D01*
X027271Y011238D02*
X027344Y011238D01*
X027418Y011238D02*
X027565Y011018D01*
X027036Y011018D02*
X026962Y011091D01*
X026999Y011091D02*
X026889Y011091D01*
X026889Y011018D02*
X026889Y011238D01*
X026999Y011238D01*
X027036Y011201D01*
X027036Y011128D01*
X026999Y011091D01*
X026815Y011054D02*
X026815Y011201D01*
X026778Y011238D01*
X026668Y011238D01*
X026668Y011018D01*
X026778Y011018D01*
X026815Y011054D01*
X026594Y011054D02*
X026594Y011201D01*
X026557Y011238D01*
X026447Y011238D01*
X026447Y011018D01*
X026557Y011018D01*
X026594Y011054D01*
X026373Y011018D02*
X026373Y011164D01*
X026299Y011238D01*
X026226Y011164D01*
X026226Y011018D01*
X026226Y011128D02*
X026373Y011128D01*
X024786Y011201D02*
X024749Y011238D01*
X024676Y011238D01*
X024639Y011201D01*
X024639Y011054D01*
X024676Y011018D01*
X024749Y011018D01*
X024786Y011054D01*
X024565Y011054D02*
X024528Y011018D01*
X024455Y011018D01*
X024418Y011054D01*
X024418Y011201D01*
X024455Y011238D01*
X024528Y011238D01*
X024565Y011201D01*
X024344Y011238D02*
X024344Y011091D01*
X024270Y011018D01*
X024197Y011091D01*
X024197Y011238D01*
X023786Y011018D02*
X023639Y011018D01*
X023639Y011238D01*
X023565Y011201D02*
X023528Y011238D01*
X023455Y011238D01*
X023418Y011201D01*
X023418Y011054D01*
X023455Y011018D01*
X023528Y011018D01*
X023565Y011054D01*
X023344Y011054D02*
X023307Y011018D01*
X023234Y011018D01*
X023197Y011054D01*
X023234Y011128D02*
X023197Y011164D01*
X023197Y011201D01*
X023234Y011238D01*
X023307Y011238D01*
X023344Y011201D01*
X023307Y011128D02*
X023344Y011091D01*
X023344Y011054D01*
X023307Y011128D02*
X023234Y011128D01*
X022786Y011128D02*
X022639Y011128D01*
X022639Y011164D02*
X022712Y011238D01*
X022786Y011164D01*
X022786Y011018D01*
X022639Y011018D02*
X022639Y011164D01*
X022565Y011201D02*
X022528Y011238D01*
X022418Y011238D01*
X022418Y011018D01*
X022528Y011018D01*
X022565Y011054D01*
X022565Y011201D01*
X022344Y011201D02*
X022307Y011238D01*
X022234Y011238D01*
X022197Y011201D01*
X022197Y011164D01*
X022234Y011128D01*
X022307Y011128D01*
X022344Y011091D01*
X022344Y011054D01*
X022307Y011018D01*
X022234Y011018D01*
X022197Y011054D01*
X021786Y011054D02*
X021786Y011201D01*
X021749Y011238D01*
X021639Y011238D01*
X021639Y011018D01*
X021749Y011018D01*
X021786Y011054D01*
X021565Y011018D02*
X021565Y011238D01*
X021418Y011238D02*
X021565Y011018D01*
X021418Y011018D02*
X021418Y011238D01*
X021344Y011201D02*
X021307Y011238D01*
X021234Y011238D01*
X021197Y011201D01*
X021197Y011054D01*
X021234Y011018D01*
X021307Y011018D01*
X021344Y011054D01*
X021344Y011128D01*
X021270Y011128D01*
X020786Y011238D02*
X020639Y011238D01*
X020712Y011238D02*
X020712Y011018D01*
X020565Y011018D02*
X020565Y011238D01*
X020418Y011238D02*
X020565Y011018D01*
X020418Y011018D02*
X020418Y011238D01*
X020344Y011238D02*
X020271Y011238D01*
X020307Y011238D02*
X020307Y011018D01*
X020271Y011018D02*
X020344Y011018D01*
X018286Y011238D02*
X018139Y011238D01*
X018212Y011238D02*
X018212Y011018D01*
X018065Y011018D02*
X018065Y011238D01*
X017918Y011238D02*
X017918Y011018D01*
X017844Y011018D02*
X017771Y011018D01*
X017807Y011018D02*
X017807Y011238D01*
X017771Y011238D02*
X017844Y011238D01*
X017918Y011238D02*
X018065Y011018D01*
X017536Y011054D02*
X017499Y011018D01*
X017426Y011018D01*
X017389Y011054D01*
X017389Y011201D01*
X017426Y011238D01*
X017499Y011238D01*
X017536Y011201D01*
X017315Y011201D02*
X017278Y011238D01*
X017205Y011238D01*
X017168Y011201D01*
X017168Y011054D01*
X017205Y011018D01*
X017278Y011018D01*
X017315Y011054D01*
X017094Y011091D02*
X017094Y011238D01*
X016947Y011238D02*
X016947Y011091D01*
X017020Y011018D01*
X017094Y011091D01*
X016286Y011018D02*
X016139Y011018D01*
X016139Y011238D01*
X016065Y011201D02*
X016028Y011238D01*
X015955Y011238D01*
X015918Y011201D01*
X015918Y011054D01*
X015955Y011018D01*
X016028Y011018D01*
X016065Y011054D01*
X015844Y011054D02*
X015807Y011018D01*
X015734Y011018D01*
X015697Y011054D01*
X015734Y011128D02*
X015807Y011128D01*
X015844Y011091D01*
X015844Y011054D01*
X015734Y011128D02*
X015697Y011164D01*
X015697Y011201D01*
X015734Y011238D01*
X015807Y011238D01*
X015844Y011201D01*
X015286Y011164D02*
X015286Y011018D01*
X015286Y011128D02*
X015139Y011128D01*
X015139Y011164D02*
X015212Y011238D01*
X015286Y011164D01*
X015139Y011164D02*
X015139Y011018D01*
X015065Y011054D02*
X015065Y011201D01*
X015028Y011238D01*
X014918Y011238D01*
X014918Y011018D01*
X015028Y011018D01*
X015065Y011054D01*
X014844Y011054D02*
X014807Y011018D01*
X014734Y011018D01*
X014697Y011054D01*
X014734Y011128D02*
X014697Y011164D01*
X014697Y011201D01*
X014734Y011238D01*
X014807Y011238D01*
X014844Y011201D01*
X014807Y011128D02*
X014844Y011091D01*
X014844Y011054D01*
X014807Y011128D02*
X014734Y011128D01*
X014286Y011201D02*
X014286Y011054D01*
X014249Y011018D01*
X014139Y011018D01*
X014139Y011238D01*
X014249Y011238D01*
X014286Y011201D01*
X014065Y011238D02*
X014065Y011018D01*
X013918Y011238D01*
X013918Y011018D01*
X013844Y011054D02*
X013844Y011128D01*
X013770Y011128D01*
X013697Y011201D02*
X013697Y011054D01*
X013734Y011018D01*
X013807Y011018D01*
X013844Y011054D01*
X013844Y011201D02*
X013807Y011238D01*
X013734Y011238D01*
X013697Y011201D01*
X012286Y011201D02*
X012249Y011238D01*
X012176Y011238D01*
X012139Y011201D01*
X012139Y011054D01*
X012176Y011018D01*
X012249Y011018D01*
X012286Y011054D01*
X012065Y011054D02*
X012028Y011018D01*
X011955Y011018D01*
X011918Y011054D01*
X011918Y011201D01*
X011955Y011238D01*
X012028Y011238D01*
X012065Y011201D01*
X011844Y011238D02*
X011844Y011091D01*
X011770Y011018D01*
X011697Y011091D01*
X011697Y011238D01*
X011286Y011018D02*
X011139Y011018D01*
X011139Y011238D01*
X011065Y011201D02*
X011028Y011238D01*
X010955Y011238D01*
X010918Y011201D01*
X010918Y011054D01*
X010955Y011018D01*
X011028Y011018D01*
X011065Y011054D01*
X010844Y011054D02*
X010807Y011018D01*
X010734Y011018D01*
X010697Y011054D01*
X010734Y011128D02*
X010807Y011128D01*
X010844Y011091D01*
X010844Y011054D01*
X010734Y011128D02*
X010697Y011164D01*
X010697Y011201D01*
X010734Y011238D01*
X010807Y011238D01*
X010844Y011201D01*
X010286Y011164D02*
X010286Y011018D01*
X010286Y011128D02*
X010139Y011128D01*
X010139Y011164D02*
X010212Y011238D01*
X010286Y011164D01*
X010139Y011164D02*
X010139Y011018D01*
X010065Y011054D02*
X010065Y011201D01*
X010028Y011238D01*
X009918Y011238D01*
X009918Y011018D01*
X010028Y011018D01*
X010065Y011054D01*
X009844Y011054D02*
X009807Y011018D01*
X009734Y011018D01*
X009697Y011054D01*
X009734Y011128D02*
X009807Y011128D01*
X009844Y011091D01*
X009844Y011054D01*
X009734Y011128D02*
X009697Y011164D01*
X009697Y011201D01*
X009734Y011238D01*
X009807Y011238D01*
X009844Y011201D01*
X009286Y011201D02*
X009286Y011054D01*
X009249Y011018D01*
X009139Y011018D01*
X009139Y011238D01*
X009249Y011238D01*
X009286Y011201D01*
X009065Y011238D02*
X009065Y011018D01*
X008918Y011238D01*
X008918Y011018D01*
X008844Y011054D02*
X008844Y011128D01*
X008770Y011128D01*
X008697Y011201D02*
X008697Y011054D01*
X008734Y011018D01*
X008807Y011018D01*
X008844Y011054D01*
X008844Y011201D02*
X008807Y011238D01*
X008734Y011238D01*
X008697Y011201D01*
X008286Y011238D02*
X008139Y011238D01*
X008212Y011238D02*
X008212Y011018D01*
X008065Y011018D02*
X008065Y011238D01*
X007918Y011238D02*
X008065Y011018D01*
X007918Y011018D02*
X007918Y011238D01*
X007844Y011238D02*
X007771Y011238D01*
X007807Y011238D02*
X007807Y011018D01*
X007771Y011018D02*
X007844Y011018D01*
X007536Y011018D02*
X007462Y011091D01*
X007499Y011091D02*
X007389Y011091D01*
X007389Y011018D02*
X007389Y011238D01*
X007499Y011238D01*
X007536Y011201D01*
X007536Y011128D01*
X007499Y011091D01*
X007315Y011054D02*
X007315Y011201D01*
X007278Y011238D01*
X007168Y011238D01*
X007168Y011018D01*
X007278Y011018D01*
X007315Y011054D01*
X007094Y011054D02*
X007094Y011201D01*
X007057Y011238D01*
X006947Y011238D01*
X006947Y011018D01*
X007057Y011018D01*
X007094Y011054D01*
X006873Y011018D02*
X006873Y011164D01*
X006799Y011238D01*
X006726Y011164D01*
X006726Y011018D01*
X006726Y011128D02*
X006873Y011128D01*
X005286Y011201D02*
X005249Y011238D01*
X005176Y011238D01*
X005139Y011201D01*
X005139Y011054D01*
X005176Y011018D01*
X005249Y011018D01*
X005286Y011054D01*
X005065Y011054D02*
X005028Y011018D01*
X004955Y011018D01*
X004918Y011054D01*
X004918Y011201D01*
X004955Y011238D01*
X005028Y011238D01*
X005065Y011201D01*
X004844Y011238D02*
X004844Y011091D01*
X004770Y011018D01*
X004697Y011091D01*
X004697Y011238D01*
X004286Y011018D02*
X004139Y011018D01*
X004139Y011238D01*
X004065Y011201D02*
X004028Y011238D01*
X003955Y011238D01*
X003918Y011201D01*
X003918Y011054D01*
X003955Y011018D01*
X004028Y011018D01*
X004065Y011054D01*
X003844Y011054D02*
X003807Y011018D01*
X003734Y011018D01*
X003697Y011054D01*
X003734Y011128D02*
X003807Y011128D01*
X003844Y011091D01*
X003844Y011054D01*
X003734Y011128D02*
X003697Y011164D01*
X003697Y011201D01*
X003734Y011238D01*
X003807Y011238D01*
X003844Y011201D01*
X003286Y011164D02*
X003286Y011018D01*
X003286Y011128D02*
X003139Y011128D01*
X003139Y011164D02*
X003212Y011238D01*
X003286Y011164D01*
X003139Y011164D02*
X003139Y011018D01*
X003065Y011054D02*
X003065Y011201D01*
X003028Y011238D01*
X002918Y011238D01*
X002918Y011018D01*
X003028Y011018D01*
X003065Y011054D01*
X002844Y011054D02*
X002807Y011018D01*
X002734Y011018D01*
X002697Y011054D01*
X002734Y011128D02*
X002807Y011128D01*
X002844Y011091D01*
X002844Y011054D01*
X002734Y011128D02*
X002697Y011164D01*
X002697Y011201D01*
X002734Y011238D01*
X002807Y011238D01*
X002844Y011201D01*
X002286Y011201D02*
X002286Y011054D01*
X002249Y011018D01*
X002139Y011018D01*
X002139Y011238D01*
X002249Y011238D01*
X002286Y011201D01*
X002065Y011238D02*
X002065Y011018D01*
X001918Y011238D01*
X001918Y011018D01*
X001844Y011054D02*
X001844Y011128D01*
X001770Y011128D01*
X001697Y011201D02*
X001697Y011054D01*
X001734Y011018D01*
X001807Y011018D01*
X001844Y011054D01*
X001844Y011201D02*
X001807Y011238D01*
X001734Y011238D01*
X001697Y011201D01*
X001286Y011238D02*
X001139Y011238D01*
X001212Y011238D02*
X001212Y011018D01*
X001065Y011018D02*
X001065Y011238D01*
X000918Y011238D02*
X000918Y011018D01*
X000844Y011018D02*
X000771Y011018D01*
X000807Y011018D02*
X000807Y011238D01*
X000771Y011238D02*
X000844Y011238D01*
X000918Y011238D02*
X001065Y011018D01*
D12*
X001103Y013546D02*
X000796Y013546D01*
X000720Y013622D01*
X000720Y013776D01*
X000796Y013853D01*
X001103Y013546D01*
X001180Y013622D01*
X001180Y013776D01*
X001103Y013853D01*
X000796Y013853D01*
X001103Y014006D02*
X001103Y014083D01*
X001180Y014083D01*
X001180Y014006D01*
X001103Y014006D01*
X001180Y014236D02*
X001180Y014543D01*
X001180Y014390D02*
X000720Y014390D01*
X000873Y014236D01*
X000873Y014697D02*
X001103Y014697D01*
X001180Y014773D01*
X001180Y015004D01*
X000873Y015004D01*
X000950Y015157D02*
X000950Y015311D01*
X000720Y015157D02*
X000720Y015464D01*
X000720Y015157D02*
X001180Y015157D01*
X006970Y015157D02*
X006970Y015464D01*
X007200Y015311D02*
X007200Y015157D01*
X007123Y015004D02*
X007430Y015004D01*
X007430Y014773D01*
X007353Y014697D01*
X007123Y014697D01*
X007430Y014543D02*
X007430Y014236D01*
X007430Y014083D02*
X007430Y014006D01*
X007353Y014006D01*
X007353Y014083D01*
X007430Y014083D01*
X007430Y014390D02*
X006970Y014390D01*
X007123Y014236D01*
X007046Y013853D02*
X007353Y013546D01*
X007430Y013622D01*
X007430Y013776D01*
X007353Y013853D01*
X007046Y013853D01*
X006970Y013776D01*
X006970Y013622D01*
X007046Y013546D01*
X007353Y013546D01*
X007430Y015157D02*
X006970Y015157D01*
X015128Y013970D02*
X015128Y013893D01*
X015205Y013817D01*
X015358Y013817D01*
X015435Y013740D01*
X015435Y013663D01*
X015358Y013586D01*
X015205Y013586D01*
X015128Y013663D01*
X015588Y013586D02*
X015742Y013586D01*
X015665Y013586D02*
X015665Y014047D01*
X015588Y014047D02*
X015742Y014047D01*
X015895Y013893D02*
X016049Y014047D01*
X016049Y013586D01*
X016202Y013586D02*
X015895Y013586D01*
X016356Y013586D02*
X016663Y013586D01*
X016509Y013586D02*
X016509Y014047D01*
X016356Y013893D01*
X016816Y013817D02*
X017123Y013817D01*
X017276Y013817D02*
X017430Y013893D01*
X017507Y013893D01*
X017583Y013817D01*
X017583Y013663D01*
X017507Y013586D01*
X017353Y013586D01*
X017276Y013663D01*
X017276Y013817D02*
X017276Y014047D01*
X017583Y014047D01*
X017046Y014047D02*
X016816Y013817D01*
X017046Y013586D02*
X017046Y014047D01*
X015435Y013970D02*
X015358Y014047D01*
X015205Y014047D01*
X015128Y013970D01*
X020220Y013776D02*
X020220Y013622D01*
X020296Y013546D01*
X020603Y013546D01*
X020296Y013853D01*
X020603Y013853D01*
X020680Y013776D01*
X020680Y013622D01*
X020603Y013546D01*
X020296Y013853D02*
X020220Y013776D01*
X020603Y014006D02*
X020603Y014083D01*
X020680Y014083D01*
X020680Y014006D01*
X020603Y014006D01*
X020680Y014236D02*
X020680Y014543D01*
X020680Y014390D02*
X020220Y014390D01*
X020373Y014236D01*
X020373Y014697D02*
X020603Y014697D01*
X020680Y014773D01*
X020680Y015004D01*
X020373Y015004D01*
X020450Y015157D02*
X020450Y015311D01*
X020220Y015157D02*
X020220Y015464D01*
X020220Y015157D02*
X020680Y015157D01*
X026470Y015157D02*
X026470Y015464D01*
X026700Y015311D02*
X026700Y015157D01*
X026623Y015004D02*
X026930Y015004D01*
X026930Y014773D01*
X026853Y014697D01*
X026623Y014697D01*
X026930Y014543D02*
X026930Y014236D01*
X026930Y014083D02*
X026930Y014006D01*
X026853Y014006D01*
X026853Y014083D01*
X026930Y014083D01*
X026930Y014390D02*
X026470Y014390D01*
X026623Y014236D01*
X026546Y013853D02*
X026470Y013776D01*
X026470Y013622D01*
X026546Y013546D01*
X026853Y013546D01*
X026546Y013853D01*
X026853Y013853D01*
X026930Y013776D01*
X026930Y013622D01*
X026853Y013546D01*
X026930Y015157D02*
X026470Y015157D01*
X017720Y010464D02*
X017720Y010157D01*
X018180Y010157D01*
X018180Y010004D02*
X017873Y010004D01*
X017950Y010157D02*
X017950Y010311D01*
X018180Y010004D02*
X018180Y009773D01*
X018103Y009697D01*
X017873Y009697D01*
X018180Y009543D02*
X018180Y009236D01*
X018180Y009083D02*
X018180Y009006D01*
X018103Y009006D01*
X018103Y009083D01*
X018180Y009083D01*
X018103Y008853D02*
X017796Y008853D01*
X018103Y008546D01*
X018180Y008622D01*
X018180Y008776D01*
X018103Y008853D01*
X017796Y008853D02*
X017720Y008776D01*
X017720Y008622D01*
X017796Y008546D01*
X018103Y008546D01*
X017873Y009236D02*
X017720Y009390D01*
X018180Y009390D01*
X020220Y006964D02*
X020220Y006657D01*
X020680Y006657D01*
X020680Y006504D02*
X020373Y006504D01*
X020450Y006657D02*
X020450Y006811D01*
X020680Y006504D02*
X020680Y006273D01*
X020603Y006197D01*
X020373Y006197D01*
X020680Y006043D02*
X020680Y005736D01*
X020680Y005583D02*
X020680Y005506D01*
X020603Y005506D01*
X020603Y005583D01*
X020680Y005583D01*
X020680Y005890D02*
X020220Y005890D01*
X020373Y005736D01*
X020296Y005353D02*
X020220Y005276D01*
X020220Y005122D01*
X020296Y005046D01*
X020603Y005046D01*
X020296Y005353D01*
X020603Y005353D01*
X020680Y005276D01*
X020680Y005122D01*
X020603Y005046D01*
X017583Y005163D02*
X017507Y005086D01*
X017353Y005086D01*
X017276Y005163D01*
X017276Y005317D02*
X017430Y005393D01*
X017507Y005393D01*
X017583Y005317D01*
X017583Y005163D01*
X017276Y005317D02*
X017276Y005547D01*
X017583Y005547D01*
X017123Y005317D02*
X016816Y005317D01*
X017046Y005547D01*
X017046Y005086D01*
X016663Y005086D02*
X016356Y005086D01*
X016509Y005086D02*
X016509Y005547D01*
X016356Y005393D01*
X016049Y005547D02*
X016049Y005086D01*
X016202Y005086D02*
X015895Y005086D01*
X015742Y005086D02*
X015588Y005086D01*
X015665Y005086D02*
X015665Y005547D01*
X015588Y005547D02*
X015742Y005547D01*
X015895Y005393D02*
X016049Y005547D01*
X015435Y005470D02*
X015358Y005547D01*
X015205Y005547D01*
X015128Y005470D01*
X015128Y005393D01*
X015205Y005317D01*
X015358Y005317D01*
X015435Y005240D01*
X015435Y005163D01*
X015358Y005086D01*
X015205Y005086D01*
X015128Y005163D01*
X017720Y001964D02*
X017720Y001657D01*
X018180Y001657D01*
X018180Y001504D02*
X017873Y001504D01*
X017950Y001657D02*
X017950Y001811D01*
X018180Y001504D02*
X018180Y001273D01*
X018103Y001197D01*
X017873Y001197D01*
X018180Y001043D02*
X018180Y000736D01*
X018180Y000583D02*
X018180Y000506D01*
X018103Y000506D01*
X018103Y000583D01*
X018180Y000583D01*
X018103Y000353D02*
X017796Y000353D01*
X018103Y000046D01*
X018180Y000122D01*
X018180Y000276D01*
X018103Y000353D01*
X017796Y000353D02*
X017720Y000276D01*
X017720Y000122D01*
X017796Y000046D01*
X018103Y000046D01*
X017873Y000736D02*
X017720Y000890D01*
X018180Y000890D01*
X026470Y005122D02*
X026470Y005276D01*
X026546Y005353D01*
X026853Y005046D01*
X026930Y005122D01*
X026930Y005276D01*
X026853Y005353D01*
X026546Y005353D01*
X026470Y005122D02*
X026546Y005046D01*
X026853Y005046D01*
X026853Y005506D02*
X026853Y005583D01*
X026930Y005583D01*
X026930Y005506D01*
X026853Y005506D01*
X026930Y005736D02*
X026930Y006043D01*
X026930Y005890D02*
X026470Y005890D01*
X026623Y005736D01*
X026623Y006197D02*
X026853Y006197D01*
X026930Y006273D01*
X026930Y006504D01*
X026623Y006504D01*
X026700Y006657D02*
X026700Y006811D01*
X026470Y006657D02*
X026470Y006964D01*
X026470Y006657D02*
X026930Y006657D01*
X007430Y006657D02*
X006970Y006657D01*
X006970Y006964D01*
X007200Y006811D02*
X007200Y006657D01*
X007123Y006504D02*
X007430Y006504D01*
X007430Y006273D01*
X007353Y006197D01*
X007123Y006197D01*
X007430Y006043D02*
X007430Y005736D01*
X007430Y005583D02*
X007430Y005506D01*
X007353Y005506D01*
X007353Y005583D01*
X007430Y005583D01*
X007430Y005890D02*
X006970Y005890D01*
X007123Y005736D01*
X007046Y005353D02*
X007353Y005046D01*
X007430Y005122D01*
X007430Y005276D01*
X007353Y005353D01*
X007046Y005353D01*
X006970Y005276D01*
X006970Y005122D01*
X007046Y005046D01*
X007353Y005046D01*
X001180Y005122D02*
X001103Y005046D01*
X000796Y005353D01*
X001103Y005353D01*
X001180Y005276D01*
X001180Y005122D01*
X001103Y005046D02*
X000796Y005046D01*
X000720Y005122D01*
X000720Y005276D01*
X000796Y005353D01*
X001103Y005506D02*
X001103Y005583D01*
X001180Y005583D01*
X001180Y005506D01*
X001103Y005506D01*
X001180Y005736D02*
X001180Y006043D01*
X001180Y005890D02*
X000720Y005890D01*
X000873Y005736D01*
X000873Y006197D02*
X001103Y006197D01*
X001180Y006273D01*
X001180Y006504D01*
X000873Y006504D01*
X000950Y006657D02*
X000950Y006811D01*
X000720Y006657D02*
X000720Y006964D01*
X000720Y006657D02*
X001180Y006657D01*
D13*
X015638Y006286D03*
X015638Y014786D03*
D14*
X015850Y012748D02*
X016350Y012748D01*
X016600Y012498D01*
X016850Y012748D01*
X017350Y012748D01*
X017600Y012498D01*
X017850Y012748D01*
X018350Y012748D01*
X018600Y012498D01*
X018600Y011998D01*
X018350Y011748D01*
X017850Y011748D01*
X017600Y011998D01*
X017350Y011748D01*
X016850Y011748D01*
X016600Y011998D01*
X016600Y012498D01*
X015850Y012748D02*
X015600Y012498D01*
X015350Y012748D01*
X014850Y012748D01*
X014600Y012498D01*
X014350Y012748D01*
X013850Y012748D01*
X013600Y012498D01*
X013600Y011998D01*
X013850Y011748D01*
X014350Y011748D01*
X014600Y011998D01*
X014600Y012498D01*
X014600Y011998D02*
X014850Y011748D01*
X015350Y011748D01*
X015600Y011998D01*
X015600Y012498D01*
X015600Y011998D02*
X015850Y011748D01*
X016350Y011748D01*
X016600Y011998D01*
X017600Y011998D02*
X017600Y012498D01*
X020100Y012498D02*
X020100Y011998D01*
X020350Y011748D01*
X020850Y011748D01*
X021100Y011998D01*
X021100Y012498D01*
X020850Y012748D01*
X020350Y012748D01*
X020100Y012498D01*
X021100Y012498D02*
X021350Y012748D01*
X021850Y012748D01*
X022100Y012498D01*
X022350Y012748D01*
X022850Y012748D01*
X023100Y012498D01*
X023350Y012748D01*
X023850Y012748D01*
X024100Y012498D01*
X024350Y012748D01*
X024850Y012748D01*
X025100Y012498D01*
X025100Y011998D01*
X024850Y011748D01*
X024350Y011748D01*
X024100Y011998D01*
X023850Y011748D01*
X023350Y011748D01*
X023100Y011998D01*
X023100Y012498D01*
X023100Y011998D02*
X022850Y011748D01*
X022350Y011748D01*
X022100Y011998D01*
X021850Y011748D01*
X021350Y011748D01*
X021100Y011998D01*
X022100Y011998D02*
X022100Y012498D01*
X024100Y012498D02*
X024100Y011998D01*
X026100Y011998D02*
X026100Y012498D01*
X026350Y012748D01*
X026850Y012748D01*
X027100Y012498D01*
X027350Y012748D01*
X027850Y012748D01*
X028100Y012498D01*
X028350Y012748D01*
X028850Y012748D01*
X029100Y012498D01*
X029350Y012748D01*
X029850Y012748D01*
X030100Y012498D01*
X030350Y012748D01*
X030850Y012748D01*
X031100Y012498D01*
X031350Y012748D01*
X031850Y012748D01*
X032100Y012498D01*
X032100Y011998D01*
X031850Y011748D01*
X031350Y011748D01*
X031100Y011998D01*
X030850Y011748D01*
X030350Y011748D01*
X030100Y011998D01*
X030100Y012498D01*
X030100Y011998D02*
X029850Y011748D01*
X029350Y011748D01*
X029100Y011998D01*
X028850Y011748D01*
X028350Y011748D01*
X028100Y011998D01*
X027850Y011748D01*
X027350Y011748D01*
X027100Y011998D01*
X026850Y011748D01*
X026350Y011748D01*
X026100Y011998D01*
X027100Y011998D02*
X027100Y012498D01*
X028100Y012498D02*
X028100Y011998D01*
X029100Y011998D02*
X029100Y012498D01*
X031100Y012498D02*
X031100Y011998D01*
X030850Y010748D02*
X030350Y010748D01*
X030100Y010498D01*
X030100Y009998D01*
X030350Y009748D01*
X030850Y009748D01*
X031100Y009998D01*
X031100Y010498D01*
X030850Y010748D01*
X031100Y010498D02*
X031350Y010748D01*
X031850Y010748D01*
X032100Y010498D01*
X032100Y009998D01*
X031850Y009748D01*
X031350Y009748D01*
X031100Y009998D01*
X030100Y009998D02*
X029850Y009748D01*
X029350Y009748D01*
X029100Y009998D01*
X028850Y009748D01*
X028350Y009748D01*
X028100Y009998D01*
X028100Y010498D01*
X028350Y010748D01*
X028850Y010748D01*
X029100Y010498D01*
X029350Y010748D01*
X029850Y010748D01*
X030100Y010498D01*
X029100Y010498D02*
X029100Y009998D01*
X025100Y009998D02*
X024850Y009748D01*
X024350Y009748D01*
X024100Y009998D01*
X023850Y009748D01*
X023350Y009748D01*
X023100Y009998D01*
X023100Y010498D01*
X023350Y010748D01*
X023850Y010748D01*
X024100Y010498D01*
X024350Y010748D01*
X024850Y010748D01*
X025100Y010498D01*
X025100Y009998D01*
X024100Y009998D02*
X024100Y010498D01*
X023100Y010498D02*
X022850Y010748D01*
X022350Y010748D01*
X022100Y010498D01*
X021850Y010748D01*
X021350Y010748D01*
X021100Y010498D01*
X021100Y009998D01*
X021350Y009748D01*
X021850Y009748D01*
X022100Y009998D01*
X022100Y010498D01*
X022100Y009998D02*
X022350Y009748D01*
X022850Y009748D01*
X023100Y009998D01*
X017600Y009998D02*
X017350Y009748D01*
X016850Y009748D01*
X016600Y009998D01*
X016350Y009748D01*
X015850Y009748D01*
X015600Y009998D01*
X015600Y010498D01*
X015850Y010748D01*
X016350Y010748D01*
X016600Y010498D01*
X016850Y010748D01*
X017350Y010748D01*
X017600Y010498D01*
X017600Y009998D01*
X016600Y009998D02*
X016600Y010498D01*
X015600Y010498D02*
X015350Y010748D01*
X014850Y010748D01*
X014600Y010498D01*
X014350Y010748D01*
X013850Y010748D01*
X013600Y010498D01*
X013600Y009998D01*
X013850Y009748D01*
X014350Y009748D01*
X014600Y009998D01*
X014600Y010498D01*
X014600Y009998D02*
X014850Y009748D01*
X015350Y009748D01*
X015600Y009998D01*
X012600Y009998D02*
X012350Y009748D01*
X011850Y009748D01*
X011600Y009998D01*
X011350Y009748D01*
X010850Y009748D01*
X010600Y009998D01*
X010600Y010498D01*
X010850Y010748D01*
X011350Y010748D01*
X011600Y010498D01*
X011850Y010748D01*
X012350Y010748D01*
X012600Y010498D01*
X012600Y009998D01*
X011600Y009998D02*
X011600Y010498D01*
X010600Y010498D02*
X010350Y010748D01*
X009850Y010748D01*
X009600Y010498D01*
X009350Y010748D01*
X008850Y010748D01*
X008600Y010498D01*
X008600Y009998D01*
X008850Y009748D01*
X009350Y009748D01*
X009600Y009998D01*
X009600Y010498D01*
X009600Y009998D02*
X009850Y009748D01*
X010350Y009748D01*
X010600Y009998D01*
X010350Y011748D02*
X009850Y011748D01*
X009600Y011998D01*
X009350Y011748D01*
X008850Y011748D01*
X008600Y011998D01*
X008350Y011748D01*
X007850Y011748D01*
X007600Y011998D01*
X007350Y011748D01*
X006850Y011748D01*
X006600Y011998D01*
X006600Y012498D01*
X006850Y012748D01*
X007350Y012748D01*
X007600Y012498D01*
X007850Y012748D01*
X008350Y012748D01*
X008600Y012498D01*
X008850Y012748D01*
X009350Y012748D01*
X009600Y012498D01*
X009850Y012748D01*
X010350Y012748D01*
X010600Y012498D01*
X010850Y012748D01*
X011350Y012748D01*
X011600Y012498D01*
X011850Y012748D01*
X012350Y012748D01*
X012600Y012498D01*
X012600Y011998D01*
X012350Y011748D01*
X011850Y011748D01*
X011600Y011998D01*
X011350Y011748D01*
X010850Y011748D01*
X010600Y011998D01*
X010600Y012498D01*
X010600Y011998D02*
X010350Y011748D01*
X009600Y011998D02*
X009600Y012498D01*
X008600Y012498D02*
X008600Y011998D01*
X007600Y011998D02*
X007600Y012498D01*
X005600Y012498D02*
X005600Y011998D01*
X005350Y011748D01*
X004850Y011748D01*
X004600Y011998D01*
X004350Y011748D01*
X003850Y011748D01*
X003600Y011998D01*
X003600Y012498D01*
X003850Y012748D01*
X004350Y012748D01*
X004600Y012498D01*
X004850Y012748D01*
X005350Y012748D01*
X005600Y012498D01*
X004600Y012498D02*
X004600Y011998D01*
X003600Y011998D02*
X003350Y011748D01*
X002850Y011748D01*
X002600Y011998D01*
X002350Y011748D01*
X001850Y011748D01*
X001600Y011998D01*
X001350Y011748D01*
X000850Y011748D01*
X000600Y011998D01*
X000600Y012498D01*
X000850Y012748D01*
X001350Y012748D01*
X001600Y012498D01*
X001850Y012748D01*
X002350Y012748D01*
X002600Y012498D01*
X002850Y012748D01*
X003350Y012748D01*
X003600Y012498D01*
X002600Y012498D02*
X002600Y011998D01*
X001600Y011998D02*
X001600Y012498D01*
X001850Y010748D02*
X002350Y010748D01*
X002600Y010498D01*
X002850Y010748D01*
X003350Y010748D01*
X003600Y010498D01*
X003850Y010748D01*
X004350Y010748D01*
X004600Y010498D01*
X004850Y010748D01*
X005350Y010748D01*
X005600Y010498D01*
X005600Y009998D01*
X005350Y009748D01*
X004850Y009748D01*
X004600Y009998D01*
X004350Y009748D01*
X003850Y009748D01*
X003600Y009998D01*
X003600Y010498D01*
X003600Y009998D02*
X003350Y009748D01*
X002850Y009748D01*
X002600Y009998D01*
X002350Y009748D01*
X001850Y009748D01*
X001600Y009998D01*
X001600Y010498D01*
X001850Y010748D01*
X002600Y010498D02*
X002600Y009998D01*
X004600Y009998D02*
X004600Y010498D01*
X011600Y011998D02*
X011600Y012498D01*
X011350Y004248D02*
X010850Y004248D01*
X010600Y003998D01*
X010600Y003498D01*
X010850Y003248D01*
X011350Y003248D01*
X011600Y003498D01*
X011600Y003998D01*
X011350Y004248D01*
X011600Y003998D02*
X011850Y004248D01*
X012350Y004248D01*
X012600Y003998D01*
X012600Y003498D01*
X012350Y003248D01*
X011850Y003248D01*
X011600Y003498D01*
X010600Y003498D02*
X010350Y003248D01*
X009850Y003248D01*
X009600Y003498D01*
X009350Y003248D01*
X008850Y003248D01*
X008600Y003498D01*
X008350Y003248D01*
X007850Y003248D01*
X007600Y003498D01*
X007350Y003248D01*
X006850Y003248D01*
X006600Y003498D01*
X006600Y003998D01*
X006850Y004248D01*
X007350Y004248D01*
X007600Y003998D01*
X007850Y004248D01*
X008350Y004248D01*
X008600Y003998D01*
X008850Y004248D01*
X009350Y004248D01*
X009600Y003998D01*
X009850Y004248D01*
X010350Y004248D01*
X010600Y003998D01*
X009600Y003998D02*
X009600Y003498D01*
X008600Y003498D02*
X008600Y003998D01*
X007600Y003998D02*
X007600Y003498D01*
X005600Y003498D02*
X005350Y003248D01*
X004850Y003248D01*
X004600Y003498D01*
X004350Y003248D01*
X003850Y003248D01*
X003600Y003498D01*
X003600Y003998D01*
X003850Y004248D01*
X004350Y004248D01*
X004600Y003998D01*
X004850Y004248D01*
X005350Y004248D01*
X005600Y003998D01*
X005600Y003498D01*
X004600Y003498D02*
X004600Y003998D01*
X003600Y003998D02*
X003350Y004248D01*
X002850Y004248D01*
X002600Y003998D01*
X002350Y004248D01*
X001850Y004248D01*
X001600Y003998D01*
X001350Y004248D01*
X000850Y004248D01*
X000600Y003998D01*
X000600Y003498D01*
X000850Y003248D01*
X001350Y003248D01*
X001600Y003498D01*
X001600Y003998D01*
X001600Y003498D02*
X001850Y003248D01*
X002350Y003248D01*
X002600Y003498D01*
X002600Y003998D01*
X002600Y003498D02*
X002850Y003248D01*
X003350Y003248D01*
X003600Y003498D01*
X003350Y002248D02*
X002850Y002248D01*
X002600Y001998D01*
X002350Y002248D01*
X001850Y002248D01*
X001600Y001998D01*
X001600Y001498D01*
X001850Y001248D01*
X002350Y001248D01*
X002600Y001498D01*
X002600Y001998D01*
X002600Y001498D02*
X002850Y001248D01*
X003350Y001248D01*
X003600Y001498D01*
X003600Y001998D01*
X003850Y002248D01*
X004350Y002248D01*
X004600Y001998D01*
X004850Y002248D01*
X005350Y002248D01*
X005600Y001998D01*
X005600Y001498D01*
X005350Y001248D01*
X004850Y001248D01*
X004600Y001498D01*
X004350Y001248D01*
X003850Y001248D01*
X003600Y001498D01*
X003600Y001998D02*
X003350Y002248D01*
X004600Y001998D02*
X004600Y001498D01*
X008600Y001498D02*
X008600Y001998D01*
X008850Y002248D01*
X009350Y002248D01*
X009600Y001998D01*
X009850Y002248D01*
X010350Y002248D01*
X010600Y001998D01*
X010850Y002248D01*
X011350Y002248D01*
X011600Y001998D01*
X011850Y002248D01*
X012350Y002248D01*
X012600Y001998D01*
X012600Y001498D01*
X012350Y001248D01*
X011850Y001248D01*
X011600Y001498D01*
X011350Y001248D01*
X010850Y001248D01*
X010600Y001498D01*
X010600Y001998D01*
X010600Y001498D02*
X010350Y001248D01*
X009850Y001248D01*
X009600Y001498D01*
X009350Y001248D01*
X008850Y001248D01*
X008600Y001498D01*
X009600Y001498D02*
X009600Y001998D01*
X011600Y001998D02*
X011600Y001498D01*
X013600Y001498D02*
X013600Y001998D01*
X013850Y002248D01*
X014350Y002248D01*
X014600Y001998D01*
X014850Y002248D01*
X015350Y002248D01*
X015600Y001998D01*
X015850Y002248D01*
X016350Y002248D01*
X016600Y001998D01*
X016850Y002248D01*
X017350Y002248D01*
X017600Y001998D01*
X017600Y001498D01*
X017350Y001248D01*
X016850Y001248D01*
X016600Y001498D01*
X016350Y001248D01*
X015850Y001248D01*
X015600Y001498D01*
X015600Y001998D01*
X015600Y001498D02*
X015350Y001248D01*
X014850Y001248D01*
X014600Y001498D01*
X014350Y001248D01*
X013850Y001248D01*
X013600Y001498D01*
X014600Y001498D02*
X014600Y001998D01*
X016600Y001998D02*
X016600Y001498D01*
X016350Y003248D02*
X015850Y003248D01*
X015600Y003498D01*
X015350Y003248D01*
X014850Y003248D01*
X014600Y003498D01*
X014350Y003248D01*
X013850Y003248D01*
X013600Y003498D01*
X013600Y003998D01*
X013850Y004248D01*
X014350Y004248D01*
X014600Y003998D01*
X014850Y004248D01*
X015350Y004248D01*
X015600Y003998D01*
X015850Y004248D01*
X016350Y004248D01*
X016600Y003998D01*
X016850Y004248D01*
X017350Y004248D01*
X017600Y003998D01*
X017850Y004248D01*
X018350Y004248D01*
X018600Y003998D01*
X018600Y003498D01*
X018350Y003248D01*
X017850Y003248D01*
X017600Y003498D01*
X017350Y003248D01*
X016850Y003248D01*
X016600Y003498D01*
X016600Y003998D01*
X016600Y003498D02*
X016350Y003248D01*
X015600Y003498D02*
X015600Y003998D01*
X014600Y003998D02*
X014600Y003498D01*
X017600Y003498D02*
X017600Y003998D01*
X020100Y003998D02*
X020100Y003498D01*
X020350Y003248D01*
X020850Y003248D01*
X021100Y003498D01*
X021100Y003998D01*
X020850Y004248D01*
X020350Y004248D01*
X020100Y003998D01*
X021100Y003998D02*
X021350Y004248D01*
X021850Y004248D01*
X022100Y003998D01*
X022350Y004248D01*
X022850Y004248D01*
X023100Y003998D01*
X023350Y004248D01*
X023850Y004248D01*
X024100Y003998D01*
X024350Y004248D01*
X024850Y004248D01*
X025100Y003998D01*
X025100Y003498D01*
X024850Y003248D01*
X024350Y003248D01*
X024100Y003498D01*
X023850Y003248D01*
X023350Y003248D01*
X023100Y003498D01*
X023100Y003998D01*
X023100Y003498D02*
X022850Y003248D01*
X022350Y003248D01*
X022100Y003498D01*
X021850Y003248D01*
X021350Y003248D01*
X021100Y003498D01*
X022100Y003498D02*
X022100Y003998D01*
X024100Y003998D02*
X024100Y003498D01*
X026100Y003498D02*
X026100Y003998D01*
X026350Y004248D01*
X026850Y004248D01*
X027100Y003998D01*
X027350Y004248D01*
X027850Y004248D01*
X028100Y003998D01*
X028350Y004248D01*
X028850Y004248D01*
X029100Y003998D01*
X029350Y004248D01*
X029850Y004248D01*
X030100Y003998D01*
X030350Y004248D01*
X030850Y004248D01*
X031100Y003998D01*
X031350Y004248D01*
X031850Y004248D01*
X032100Y003998D01*
X032100Y003498D01*
X031850Y003248D01*
X031350Y003248D01*
X031100Y003498D01*
X030850Y003248D01*
X030350Y003248D01*
X030100Y003498D01*
X030100Y003998D01*
X030100Y003498D02*
X029850Y003248D01*
X029350Y003248D01*
X029100Y003498D01*
X028850Y003248D01*
X028350Y003248D01*
X028100Y003498D01*
X027850Y003248D01*
X027350Y003248D01*
X027100Y003498D01*
X026850Y003248D01*
X026350Y003248D01*
X026100Y003498D01*
X027100Y003498D02*
X027100Y003998D01*
X028100Y003998D02*
X028100Y003498D01*
X029100Y003498D02*
X029100Y003998D01*
X031100Y003998D02*
X031100Y003498D01*
X030850Y002248D02*
X030350Y002248D01*
X030100Y001998D01*
X030100Y001498D01*
X030350Y001248D01*
X030850Y001248D01*
X031100Y001498D01*
X031100Y001998D01*
X030850Y002248D01*
X031100Y001998D02*
X031350Y002248D01*
X031850Y002248D01*
X032100Y001998D01*
X032100Y001498D01*
X031850Y001248D01*
X031350Y001248D01*
X031100Y001498D01*
X030100Y001498D02*
X029850Y001248D01*
X029350Y001248D01*
X029100Y001498D01*
X028850Y001248D01*
X028350Y001248D01*
X028100Y001498D01*
X028100Y001998D01*
X028350Y002248D01*
X028850Y002248D01*
X029100Y001998D01*
X029350Y002248D01*
X029850Y002248D01*
X030100Y001998D01*
X029100Y001998D02*
X029100Y001498D01*
X025100Y001498D02*
X024850Y001248D01*
X024350Y001248D01*
X024100Y001498D01*
X023850Y001248D01*
X023350Y001248D01*
X023100Y001498D01*
X023100Y001998D01*
X023350Y002248D01*
X023850Y002248D01*
X024100Y001998D01*
X024350Y002248D01*
X024850Y002248D01*
X025100Y001998D01*
X025100Y001498D01*
X024100Y001498D02*
X024100Y001998D01*
X023100Y001998D02*
X022850Y002248D01*
X022350Y002248D01*
X022100Y001998D01*
X021850Y002248D01*
X021350Y002248D01*
X021100Y001998D01*
X021100Y001498D01*
X021350Y001248D01*
X021850Y001248D01*
X022100Y001498D01*
X022100Y001998D01*
X022100Y001498D02*
X022350Y001248D01*
X022850Y001248D01*
X023100Y001498D01*
D15*
X022975Y006948D03*
X022975Y015448D03*
X003475Y015448D03*
X003475Y006948D03*
D16*
X003600Y006998D02*
X004191Y006998D01*
X004191Y005998D02*
X003600Y005998D01*
X009600Y006748D02*
X011000Y006748D01*
X011000Y007998D02*
X009600Y007998D01*
X004191Y014498D02*
X003600Y014498D01*
X003600Y015498D02*
X004191Y015498D01*
X009600Y015248D02*
X011000Y015248D01*
X011000Y016498D02*
X009600Y016498D01*
X023100Y015498D02*
X023691Y015498D01*
X023691Y014498D02*
X023100Y014498D01*
X029100Y015248D02*
X030500Y015248D01*
X030500Y016498D02*
X029100Y016498D01*
X029100Y007998D02*
X030500Y007998D01*
X030500Y006748D02*
X029100Y006748D01*
X023691Y006998D02*
X023100Y006998D01*
X023100Y005998D02*
X023691Y005998D01*
D17*
X028975Y008298D03*
X028975Y016798D03*
X009475Y016798D03*
X009475Y008298D03*
D18*
X017561Y007748D03*
X017561Y016248D03*
M02*
