G75*
%MOIN*%
%OFA0B0*%
%FSLAX24Y24*%
%IPPOS*%
%LPD*%
%AMOC8*
5,1,8,0,0,1.08239X$1,22.5*
%
%ADD10C,0.0000*%
%ADD11C,0.0600*%
%ADD12R,0.0630X0.0709*%
%ADD13C,0.0100*%
%ADD14C,0.0396*%
%ADD15C,0.0400*%
D10*
X000100Y000248D02*
X000100Y008744D01*
X000100Y008748D02*
X000100Y017244D01*
X000100Y017248D02*
X006100Y017248D01*
X013100Y017248D01*
X019470Y017248D01*
X019470Y017244D02*
X019470Y008748D01*
X013100Y008748D01*
X013100Y017248D01*
X019600Y017248D02*
X025600Y017248D01*
X032600Y017248D01*
X032600Y008748D01*
X025600Y008748D01*
X025600Y017248D01*
X019600Y017244D02*
X019600Y008748D01*
X025600Y008748D01*
X032600Y008748D01*
X032600Y000248D01*
X025600Y000248D01*
X025600Y008748D01*
X019600Y008748D01*
X019600Y008744D02*
X019600Y000248D01*
X025600Y000248D01*
X019470Y000248D02*
X019470Y008744D01*
X019470Y008748D02*
X013100Y008748D01*
X006100Y008748D01*
X006100Y017248D01*
X006100Y008748D02*
X000100Y008748D01*
X006100Y008748D01*
X013100Y008748D01*
X013100Y000248D01*
X019470Y000248D01*
X013100Y000248D02*
X006100Y000248D01*
X006100Y008748D01*
X006100Y000248D02*
X000100Y000248D01*
D11*
X002100Y001448D02*
X002100Y002048D01*
X003100Y002048D02*
X003100Y001448D01*
X004100Y001448D02*
X004100Y002048D01*
X005100Y002048D02*
X005100Y001448D01*
X005100Y003448D02*
X005100Y004048D01*
X004100Y004048D02*
X004100Y003448D01*
X003100Y003448D02*
X003100Y004048D01*
X002100Y004048D02*
X002100Y003448D01*
X001100Y003448D02*
X001100Y004048D01*
X007100Y004048D02*
X007100Y003448D01*
X008100Y003448D02*
X008100Y004048D01*
X009100Y004048D02*
X009100Y003448D01*
X010100Y003448D02*
X010100Y004048D01*
X011100Y004048D02*
X011100Y003448D01*
X012100Y003448D02*
X012100Y004048D01*
X014100Y004048D02*
X014100Y003448D01*
X015100Y003448D02*
X015100Y004048D01*
X016100Y004048D02*
X016100Y003448D01*
X017100Y003448D02*
X017100Y004048D01*
X018100Y004048D02*
X018100Y003448D01*
X020600Y003448D02*
X020600Y004048D01*
X021600Y004048D02*
X021600Y003448D01*
X022600Y003448D02*
X022600Y004048D01*
X023600Y004048D02*
X023600Y003448D01*
X024600Y003448D02*
X024600Y004048D01*
X026600Y004048D02*
X026600Y003448D01*
X027600Y003448D02*
X027600Y004048D01*
X028600Y004048D02*
X028600Y003448D01*
X029600Y003448D02*
X029600Y004048D01*
X030600Y004048D02*
X030600Y003448D01*
X031600Y003448D02*
X031600Y004048D01*
X031600Y002048D02*
X031600Y001448D01*
X030600Y001448D02*
X030600Y002048D01*
X029600Y002048D02*
X029600Y001448D01*
X028600Y001448D02*
X028600Y002048D01*
X024600Y002048D02*
X024600Y001448D01*
X023600Y001448D02*
X023600Y002048D01*
X022600Y002048D02*
X022600Y001448D01*
X021600Y001448D02*
X021600Y002048D01*
X017100Y002048D02*
X017100Y001448D01*
X016100Y001448D02*
X016100Y002048D01*
X015100Y002048D02*
X015100Y001448D01*
X014100Y001448D02*
X014100Y002048D01*
X012100Y002048D02*
X012100Y001448D01*
X011100Y001448D02*
X011100Y002048D01*
X010100Y002048D02*
X010100Y001448D01*
X009100Y001448D02*
X009100Y002048D01*
X009100Y009948D02*
X009100Y010548D01*
X010100Y010548D02*
X010100Y009948D01*
X011100Y009948D02*
X011100Y010548D01*
X012100Y010548D02*
X012100Y009948D01*
X014100Y009948D02*
X014100Y010548D01*
X015100Y010548D02*
X015100Y009948D01*
X016100Y009948D02*
X016100Y010548D01*
X017100Y010548D02*
X017100Y009948D01*
X017100Y011948D02*
X017100Y012548D01*
X016100Y012548D02*
X016100Y011948D01*
X015100Y011948D02*
X015100Y012548D01*
X014100Y012548D02*
X014100Y011948D01*
X012100Y011948D02*
X012100Y012548D01*
X011100Y012548D02*
X011100Y011948D01*
X010100Y011948D02*
X010100Y012548D01*
X009100Y012548D02*
X009100Y011948D01*
X008100Y011948D02*
X008100Y012548D01*
X007100Y012548D02*
X007100Y011948D01*
X005100Y011948D02*
X005100Y012548D01*
X004100Y012548D02*
X004100Y011948D01*
X003100Y011948D02*
X003100Y012548D01*
X002100Y012548D02*
X002100Y011948D01*
X001100Y011948D02*
X001100Y012548D01*
X002100Y010548D02*
X002100Y009948D01*
X003100Y009948D02*
X003100Y010548D01*
X004100Y010548D02*
X004100Y009948D01*
X005100Y009948D02*
X005100Y010548D01*
X018100Y011948D02*
X018100Y012548D01*
X020600Y012548D02*
X020600Y011948D01*
X021600Y011948D02*
X021600Y012548D01*
X022600Y012548D02*
X022600Y011948D01*
X023600Y011948D02*
X023600Y012548D01*
X024600Y012548D02*
X024600Y011948D01*
X026600Y011948D02*
X026600Y012548D01*
X027600Y012548D02*
X027600Y011948D01*
X028600Y011948D02*
X028600Y012548D01*
X029600Y012548D02*
X029600Y011948D01*
X030600Y011948D02*
X030600Y012548D01*
X031600Y012548D02*
X031600Y011948D01*
X031600Y010548D02*
X031600Y009948D01*
X030600Y009948D02*
X030600Y010548D01*
X029600Y010548D02*
X029600Y009948D01*
X028600Y009948D02*
X028600Y010548D01*
X024600Y010548D02*
X024600Y009948D01*
X023600Y009948D02*
X023600Y010548D01*
X022600Y010548D02*
X022600Y009948D01*
X021600Y009948D02*
X021600Y010548D01*
D12*
X018651Y013748D03*
X017549Y013748D03*
X015151Y013748D03*
X014049Y013748D03*
X014049Y005248D03*
X015151Y005248D03*
X017549Y005248D03*
X018651Y005248D03*
D13*
X018660Y004807D01*
X018600Y004748D01*
X018100Y004748D01*
X017100Y003748D01*
X018100Y003748D02*
X018100Y003248D01*
X017600Y002748D01*
X016600Y002748D01*
X016100Y001778D02*
X016100Y001748D01*
X014120Y003758D02*
X014100Y003748D01*
X014120Y003758D02*
X014210Y003848D01*
X014210Y005198D01*
X014049Y005248D01*
X013850Y005446D01*
X013850Y006248D01*
X014015Y006413D01*
X014265Y006413D01*
X015350Y007498D01*
X012100Y006748D02*
X010100Y004748D01*
X010100Y003748D01*
X011100Y001778D02*
X011100Y001748D01*
X015151Y005248D02*
X017549Y005248D01*
X022520Y004838D02*
X023600Y003758D01*
X023600Y003748D01*
X022610Y003668D02*
X022600Y003748D01*
X022610Y003668D02*
X022610Y001778D01*
X022600Y001748D01*
X023600Y001778D02*
X023600Y001748D01*
X022520Y004838D02*
X022520Y006728D01*
X022600Y010248D02*
X022610Y010278D01*
X022610Y012168D01*
X022600Y012248D01*
X023600Y012258D02*
X023600Y012248D01*
X023600Y012258D02*
X022520Y013338D01*
X022520Y015228D01*
X018651Y013748D02*
X018660Y013307D01*
X018600Y013248D01*
X018100Y013248D01*
X017100Y012248D01*
X018100Y012248D02*
X018100Y011748D01*
X017600Y011248D01*
X016600Y011248D01*
X016100Y010278D02*
X016100Y010248D01*
X014120Y012258D02*
X014100Y012248D01*
X014120Y012258D02*
X014210Y012348D01*
X014210Y013698D01*
X014049Y013748D01*
X013850Y013946D01*
X013850Y014748D01*
X014015Y014913D01*
X014265Y014913D01*
X015350Y015998D01*
X012100Y015248D02*
X010100Y013248D01*
X010100Y012248D01*
X011100Y010278D02*
X011100Y010248D01*
X015151Y013748D02*
X017549Y013748D01*
X023600Y010278D02*
X023600Y010248D01*
X029600Y012248D02*
X029600Y013248D01*
X031600Y015248D01*
X030600Y010278D02*
X030600Y010248D01*
X031600Y006748D02*
X029600Y004748D01*
X029600Y003748D01*
X030600Y001778D02*
X030600Y001748D01*
X004100Y001778D02*
X004100Y001748D01*
X003110Y001778D02*
X003100Y001748D01*
X003110Y001778D02*
X003110Y003668D01*
X003100Y003748D01*
X004100Y003758D02*
X004100Y003748D01*
X004100Y003758D02*
X003020Y004838D01*
X003020Y006728D01*
X003100Y010248D02*
X003110Y010278D01*
X003110Y012168D01*
X003100Y012248D01*
X004100Y012258D02*
X004100Y012248D01*
X004100Y012258D02*
X003020Y013338D01*
X003020Y015228D01*
X004100Y010278D02*
X004100Y010248D01*
D14*
X012100Y006748D03*
X015350Y007498D03*
X016600Y011248D03*
X012100Y015248D03*
X015350Y015998D03*
X031600Y015248D03*
X031600Y006748D03*
X016600Y002748D03*
D15*
X022520Y006728D03*
X022520Y015228D03*
X003020Y015228D03*
X003020Y006728D03*
M02*
