G75*
%MOIN*%
%OFA0B0*%
%FSLAX24Y24*%
%IPPOS*%
%LPD*%
%AMOC8*
5,1,8,0,0,1.08239X$1,22.5*
%
%ADD10C,0.0000*%
%ADD11R,0.0709X0.0630*%
%ADD12R,0.0118X0.0315*%
%ADD13R,0.0315X0.0118*%
%ADD14C,0.0600*%
%ADD15R,0.0472X0.0138*%
%ADD16R,0.0600X0.0250*%
%ADD17R,0.0472X0.0472*%
%ADD18C,0.0100*%
%ADD19C,0.0396*%
%ADD20C,0.0400*%
D10*
X000100Y000248D02*
X000100Y008744D01*
X000100Y008748D02*
X000100Y017244D01*
X000100Y017248D02*
X006100Y017248D01*
X013100Y017248D01*
X019470Y017248D01*
X019470Y017244D02*
X019470Y008748D01*
X013100Y008748D01*
X013100Y017248D01*
X019600Y017248D02*
X025600Y017248D01*
X032600Y017248D01*
X032600Y008748D01*
X025600Y008748D01*
X025600Y017248D01*
X019600Y017244D02*
X019600Y008748D01*
X025600Y008748D01*
X032600Y008748D01*
X032600Y000248D01*
X025600Y000248D01*
X025600Y008748D01*
X019600Y008748D01*
X019600Y008744D02*
X019600Y000248D01*
X025600Y000248D01*
X019470Y000248D02*
X019470Y008744D01*
X019470Y008748D02*
X013100Y008748D01*
X006100Y008748D01*
X006100Y017248D01*
X006100Y008748D02*
X000100Y008748D01*
X006100Y008748D01*
X013100Y008748D01*
X013100Y000248D01*
X019470Y000248D01*
X013100Y000248D02*
X006100Y000248D01*
X006100Y008748D01*
X006100Y000248D02*
X000100Y000248D01*
D11*
X001600Y006196D03*
X001600Y007299D03*
X007850Y007299D03*
X007850Y006196D03*
X018600Y009696D03*
X018600Y010799D03*
X021100Y007299D03*
X021100Y006196D03*
X027350Y006196D03*
X027350Y007299D03*
X018600Y002299D03*
X018600Y001196D03*
X021100Y014696D03*
X021100Y015799D03*
X027350Y015799D03*
X027350Y014696D03*
X007850Y014696D03*
X007850Y015799D03*
X001600Y015799D03*
X001600Y014696D03*
D12*
X015805Y014893D03*
X016002Y014893D03*
X016198Y014893D03*
X016395Y014893D03*
X016395Y015602D03*
X016198Y015602D03*
X016002Y015602D03*
X015805Y015602D03*
X015805Y007102D03*
X016002Y007102D03*
X016198Y007102D03*
X016395Y007102D03*
X016395Y006393D03*
X016198Y006393D03*
X016002Y006393D03*
X015805Y006393D03*
D13*
X015746Y006748D03*
X016454Y006748D03*
X016454Y015248D03*
X015746Y015248D03*
D14*
X016100Y012548D02*
X016100Y011948D01*
X015100Y011948D02*
X015100Y012548D01*
X014100Y012548D02*
X014100Y011948D01*
X012100Y011948D02*
X012100Y012548D01*
X011100Y012548D02*
X011100Y011948D01*
X010100Y011948D02*
X010100Y012548D01*
X009100Y012548D02*
X009100Y011948D01*
X008100Y011948D02*
X008100Y012548D01*
X007100Y012548D02*
X007100Y011948D01*
X005100Y011948D02*
X005100Y012548D01*
X004100Y012548D02*
X004100Y011948D01*
X003100Y011948D02*
X003100Y012548D01*
X002100Y012548D02*
X002100Y011948D01*
X001100Y011948D02*
X001100Y012548D01*
X002100Y010548D02*
X002100Y009948D01*
X003100Y009948D02*
X003100Y010548D01*
X004100Y010548D02*
X004100Y009948D01*
X005100Y009948D02*
X005100Y010548D01*
X009100Y010548D02*
X009100Y009948D01*
X010100Y009948D02*
X010100Y010548D01*
X011100Y010548D02*
X011100Y009948D01*
X012100Y009948D02*
X012100Y010548D01*
X014100Y010548D02*
X014100Y009948D01*
X015100Y009948D02*
X015100Y010548D01*
X016100Y010548D02*
X016100Y009948D01*
X017100Y009948D02*
X017100Y010548D01*
X017100Y011948D02*
X017100Y012548D01*
X018100Y012548D02*
X018100Y011948D01*
X020600Y011948D02*
X020600Y012548D01*
X021600Y012548D02*
X021600Y011948D01*
X022600Y011948D02*
X022600Y012548D01*
X023600Y012548D02*
X023600Y011948D01*
X024600Y011948D02*
X024600Y012548D01*
X026600Y012548D02*
X026600Y011948D01*
X027600Y011948D02*
X027600Y012548D01*
X028600Y012548D02*
X028600Y011948D01*
X029600Y011948D02*
X029600Y012548D01*
X030600Y012548D02*
X030600Y011948D01*
X031600Y011948D02*
X031600Y012548D01*
X031600Y010548D02*
X031600Y009948D01*
X030600Y009948D02*
X030600Y010548D01*
X029600Y010548D02*
X029600Y009948D01*
X028600Y009948D02*
X028600Y010548D01*
X024600Y010548D02*
X024600Y009948D01*
X023600Y009948D02*
X023600Y010548D01*
X022600Y010548D02*
X022600Y009948D01*
X021600Y009948D02*
X021600Y010548D01*
X021600Y004048D02*
X021600Y003448D01*
X022600Y003448D02*
X022600Y004048D01*
X023600Y004048D02*
X023600Y003448D01*
X024600Y003448D02*
X024600Y004048D01*
X026600Y004048D02*
X026600Y003448D01*
X027600Y003448D02*
X027600Y004048D01*
X028600Y004048D02*
X028600Y003448D01*
X029600Y003448D02*
X029600Y004048D01*
X030600Y004048D02*
X030600Y003448D01*
X031600Y003448D02*
X031600Y004048D01*
X031600Y002048D02*
X031600Y001448D01*
X030600Y001448D02*
X030600Y002048D01*
X029600Y002048D02*
X029600Y001448D01*
X028600Y001448D02*
X028600Y002048D01*
X024600Y002048D02*
X024600Y001448D01*
X023600Y001448D02*
X023600Y002048D01*
X022600Y002048D02*
X022600Y001448D01*
X021600Y001448D02*
X021600Y002048D01*
X020600Y003448D02*
X020600Y004048D01*
X018100Y004048D02*
X018100Y003448D01*
X017100Y003448D02*
X017100Y004048D01*
X016100Y004048D02*
X016100Y003448D01*
X015100Y003448D02*
X015100Y004048D01*
X014100Y004048D02*
X014100Y003448D01*
X012100Y003448D02*
X012100Y004048D01*
X011100Y004048D02*
X011100Y003448D01*
X010100Y003448D02*
X010100Y004048D01*
X009100Y004048D02*
X009100Y003448D01*
X008100Y003448D02*
X008100Y004048D01*
X007100Y004048D02*
X007100Y003448D01*
X005100Y003448D02*
X005100Y004048D01*
X004100Y004048D02*
X004100Y003448D01*
X003100Y003448D02*
X003100Y004048D01*
X002100Y004048D02*
X002100Y003448D01*
X001100Y003448D02*
X001100Y004048D01*
X002100Y002048D02*
X002100Y001448D01*
X003100Y001448D02*
X003100Y002048D01*
X004100Y002048D02*
X004100Y001448D01*
X005100Y001448D02*
X005100Y002048D01*
X009100Y002048D02*
X009100Y001448D01*
X010100Y001448D02*
X010100Y002048D01*
X011100Y002048D02*
X011100Y001448D01*
X012100Y001448D02*
X012100Y002048D01*
X014100Y002048D02*
X014100Y001448D01*
X015100Y001448D02*
X015100Y002048D01*
X016100Y002048D02*
X016100Y001448D01*
X017100Y001448D02*
X017100Y002048D01*
D15*
X023100Y006236D03*
X023100Y006492D03*
X023100Y006748D03*
X023691Y006748D03*
X023691Y006492D03*
X023691Y006236D03*
X023691Y014736D03*
X023691Y014992D03*
X023691Y015248D03*
X023100Y015248D03*
X023100Y014992D03*
X023100Y014736D03*
X004191Y014736D03*
X003600Y014736D03*
X003600Y014992D03*
X003600Y015248D03*
X004191Y015248D03*
X004191Y014992D03*
X004191Y006748D03*
X004191Y006492D03*
X003600Y006492D03*
X003600Y006748D03*
X003600Y006236D03*
X004191Y006236D03*
D16*
X009600Y007039D03*
X009600Y007394D03*
X009600Y007748D03*
X011000Y007748D03*
X011000Y007394D03*
X011000Y007039D03*
X011000Y015539D03*
X011000Y015894D03*
X011000Y016248D03*
X009600Y016248D03*
X009600Y015894D03*
X009600Y015539D03*
X029100Y015539D03*
X029100Y015894D03*
X029100Y016248D03*
X030500Y016248D03*
X030500Y015894D03*
X030500Y015539D03*
X030500Y007748D03*
X030500Y007394D03*
X030500Y007039D03*
X029100Y007039D03*
X029100Y007394D03*
X029100Y007748D03*
D17*
X018013Y007748D03*
X017187Y007748D03*
X017187Y016248D03*
X018013Y016248D03*
D18*
X018013Y016161D01*
X016995Y015143D01*
X016550Y015588D01*
X016370Y015588D01*
X016395Y015602D01*
X016198Y015602D01*
X016198Y014893D01*
X016002Y014893D02*
X016002Y012346D01*
X016100Y012248D01*
X016100Y010248D01*
X015110Y010278D02*
X015100Y010248D01*
X015020Y010188D01*
X015110Y010278D02*
X015110Y012168D01*
X015100Y012248D01*
X015805Y012952D01*
X015805Y014893D01*
X016395Y014893D02*
X016395Y014452D01*
X016600Y014248D01*
X016600Y011248D01*
X017450Y011898D02*
X017450Y010548D01*
X017180Y010278D01*
X017100Y010248D01*
X017450Y010548D02*
X018530Y010548D01*
X018600Y010799D01*
X019910Y011718D02*
X021350Y010278D01*
X021530Y010278D01*
X021600Y010248D01*
X021620Y010278D01*
X022340Y010998D01*
X022340Y011448D01*
X021620Y012168D01*
X021600Y012248D01*
X021170Y011898D02*
X021170Y012798D01*
X021350Y012978D01*
X021800Y012978D01*
X022520Y012258D01*
X022600Y012248D01*
X023060Y011718D02*
X022790Y011448D01*
X022340Y011448D01*
X023060Y011718D02*
X023060Y014688D01*
X023100Y014736D01*
X023060Y014958D02*
X022790Y014958D01*
X020630Y012798D01*
X020630Y012258D01*
X020600Y012248D01*
X021170Y011898D02*
X020720Y011448D01*
X020450Y011448D01*
X020090Y011808D01*
X020090Y012708D01*
X021530Y014148D01*
X022100Y014748D01*
X022100Y015248D01*
X022340Y015588D01*
X023330Y015588D01*
X023690Y015228D01*
X023691Y015248D01*
X023691Y014992D02*
X023780Y014958D01*
X023960Y014958D01*
X024140Y015138D01*
X024140Y015318D01*
X023600Y015858D01*
X022160Y015858D01*
X021890Y015588D01*
X021170Y015588D01*
X021100Y015799D01*
X022520Y015228D02*
X023060Y015228D01*
X023100Y015248D01*
X023100Y014992D02*
X023060Y014958D01*
X023960Y014958D02*
X024590Y014328D01*
X024590Y012258D01*
X024600Y012248D01*
X024590Y012168D01*
X024590Y010278D01*
X024600Y010248D01*
X023600Y010248D02*
X023600Y012248D01*
X026100Y011808D02*
X026460Y011448D01*
X026820Y011448D01*
X027540Y012168D01*
X027600Y012248D01*
X028170Y012618D02*
X026850Y013938D01*
X026850Y015498D01*
X027151Y015799D01*
X027350Y015799D01*
X028151Y015498D02*
X028530Y015498D01*
X028530Y012258D01*
X028600Y012248D01*
X028620Y012168D01*
X028620Y010278D01*
X028600Y010248D01*
X028170Y009738D02*
X028440Y009468D01*
X028800Y009468D01*
X029160Y009828D01*
X029160Y012978D01*
X029790Y012978D01*
X030060Y012708D01*
X030060Y009828D01*
X030420Y009468D01*
X030870Y009468D01*
X031590Y010188D01*
X031600Y010248D01*
X031590Y010278D01*
X031590Y012168D01*
X031600Y012248D01*
X030600Y012248D02*
X030600Y010248D01*
X029610Y010278D02*
X029600Y010248D01*
X029610Y010278D02*
X029610Y012168D01*
X029600Y012248D01*
X030510Y012348D02*
X030600Y012258D01*
X030600Y012248D01*
X030510Y012348D02*
X030510Y015498D01*
X030500Y015539D01*
X030500Y015894D02*
X030420Y015948D01*
X030060Y015948D01*
X029340Y016668D01*
X026270Y016668D01*
X026100Y016498D01*
X026100Y011808D01*
X026550Y012258D02*
X026600Y012248D01*
X026550Y012258D02*
X026460Y012348D01*
X026460Y016358D01*
X026600Y016498D01*
X027850Y016498D01*
X028454Y015894D01*
X029100Y015894D01*
X029070Y015948D01*
X029160Y016218D02*
X029100Y016248D01*
X029160Y016218D02*
X029430Y016218D01*
X029610Y016038D01*
X029610Y015408D01*
X029160Y014958D01*
X029160Y012978D01*
X028170Y012618D02*
X028170Y009738D01*
X029340Y008168D02*
X026270Y008168D01*
X026100Y007998D01*
X026100Y003308D01*
X026460Y002948D01*
X026820Y002948D01*
X027540Y003668D01*
X027600Y003748D01*
X028170Y004118D02*
X026850Y005438D01*
X026850Y006998D01*
X027151Y007299D01*
X027350Y007299D01*
X028151Y006998D02*
X028530Y006998D01*
X028530Y003758D01*
X028600Y003748D01*
X028620Y003668D01*
X028620Y001778D01*
X028600Y001748D01*
X028170Y001238D02*
X028440Y000968D01*
X028800Y000968D01*
X029160Y001328D01*
X029160Y004478D01*
X029790Y004478D01*
X030060Y004208D01*
X030060Y001328D01*
X030420Y000968D01*
X030870Y000968D01*
X031590Y001688D01*
X031600Y001748D01*
X031590Y001778D01*
X031590Y003668D01*
X031600Y003748D01*
X030600Y003748D02*
X030600Y001748D01*
X029610Y001778D02*
X029600Y001748D01*
X029610Y001778D02*
X029610Y003668D01*
X029600Y003748D01*
X030510Y003848D02*
X030600Y003758D01*
X030600Y003748D01*
X030510Y003848D02*
X030510Y006998D01*
X030500Y007039D01*
X030500Y007394D02*
X030420Y007448D01*
X030060Y007448D01*
X029340Y008168D01*
X029430Y007718D02*
X029160Y007718D01*
X029100Y007748D01*
X029070Y007448D02*
X029100Y007394D01*
X028454Y007394D01*
X027850Y007998D01*
X026600Y007998D01*
X026460Y007858D01*
X026460Y003848D01*
X026550Y003758D01*
X026600Y003748D01*
X028170Y004118D02*
X028170Y001238D01*
X024600Y001748D02*
X024590Y001778D01*
X024590Y003668D01*
X024600Y003748D01*
X024590Y003758D01*
X024590Y005828D01*
X023960Y006458D01*
X024140Y006638D01*
X024140Y006818D01*
X023600Y007358D01*
X022160Y007358D01*
X021890Y007088D01*
X021170Y007088D01*
X021100Y007299D01*
X022100Y006748D02*
X022100Y006248D01*
X021530Y005648D01*
X020090Y004208D01*
X020090Y003308D01*
X020450Y002948D01*
X020720Y002948D01*
X021170Y003398D01*
X021170Y004298D01*
X021350Y004478D01*
X021800Y004478D01*
X022520Y003758D01*
X022600Y003748D01*
X023060Y003218D02*
X022790Y002948D01*
X022340Y002948D01*
X022340Y002498D01*
X021620Y001778D01*
X021600Y001748D01*
X021530Y001778D01*
X021350Y001778D01*
X019910Y003218D01*
X019910Y004298D01*
X021080Y005468D01*
X021080Y006368D01*
X021100Y006196D01*
X022100Y006748D02*
X022340Y007088D01*
X023330Y007088D01*
X023690Y006728D01*
X023691Y006748D01*
X023691Y006492D02*
X023780Y006458D01*
X023960Y006458D01*
X023100Y006492D02*
X023060Y006458D01*
X022790Y006458D01*
X020630Y004298D01*
X020630Y003758D01*
X020600Y003748D01*
X021600Y003748D02*
X021620Y003668D01*
X022340Y002948D01*
X023060Y003218D02*
X023060Y006188D01*
X023100Y006236D01*
X023060Y006728D02*
X022520Y006728D01*
X023060Y006728D02*
X023100Y006748D01*
X027350Y006196D02*
X028151Y006998D01*
X028530Y006998D02*
X028600Y006998D01*
X029070Y006998D01*
X029100Y007039D01*
X029610Y006908D02*
X029610Y007538D01*
X029430Y007718D01*
X030500Y007748D02*
X031100Y007748D01*
X031600Y007248D01*
X031600Y006748D01*
X029610Y006908D02*
X029160Y006458D01*
X029160Y004478D01*
X023600Y003748D02*
X023600Y001748D01*
X018600Y002299D02*
X018530Y002048D01*
X017450Y002048D01*
X017450Y003398D01*
X017100Y003748D01*
X017090Y003758D01*
X017090Y006548D01*
X016995Y006643D01*
X018013Y007661D01*
X018013Y007748D01*
X017187Y007748D02*
X015850Y007748D01*
X015600Y007998D01*
X015100Y007998D01*
X014850Y007748D01*
X014850Y007248D01*
X015100Y006998D01*
X015700Y006998D01*
X015805Y007102D01*
X016002Y007102D02*
X016002Y007346D01*
X015850Y007498D01*
X015350Y007498D01*
X016198Y007102D02*
X016198Y006393D01*
X016002Y006393D02*
X016002Y003846D01*
X016100Y003748D01*
X016100Y001748D01*
X015110Y001778D02*
X015100Y001748D01*
X015020Y001688D01*
X015110Y001778D02*
X015110Y003668D01*
X015100Y003748D01*
X015805Y004452D01*
X015805Y006393D01*
X016395Y006393D02*
X016395Y005952D01*
X016600Y005748D01*
X016600Y002748D01*
X017450Y002048D02*
X017180Y001778D01*
X017100Y001748D01*
X017630Y001328D02*
X017270Y000968D01*
X014840Y000968D01*
X014120Y001688D01*
X014100Y001748D01*
X014120Y001778D01*
X014120Y003668D01*
X014100Y003748D01*
X012100Y003748D02*
X012090Y003668D01*
X012090Y001778D01*
X012100Y001748D01*
X012090Y001688D01*
X011370Y000968D01*
X010920Y000968D01*
X010560Y001328D01*
X010560Y004208D01*
X010290Y004478D01*
X009660Y004478D01*
X009660Y001328D01*
X009300Y000968D01*
X008940Y000968D01*
X008670Y001238D01*
X008670Y004118D01*
X007350Y005438D01*
X007350Y006998D01*
X007651Y007299D01*
X007850Y007299D01*
X008651Y006998D02*
X009030Y006998D01*
X009030Y003758D01*
X009100Y003748D01*
X009120Y003668D01*
X009120Y001778D01*
X009100Y001748D01*
X010100Y001748D02*
X010110Y001778D01*
X010110Y003668D01*
X010100Y003748D01*
X011010Y003848D02*
X011100Y003758D01*
X011100Y003748D01*
X011100Y001748D01*
X008100Y003748D02*
X008040Y003668D01*
X007320Y002948D01*
X006960Y002948D01*
X006600Y003308D01*
X006600Y007998D01*
X006770Y008168D01*
X009840Y008168D01*
X010560Y007448D01*
X010920Y007448D01*
X011000Y007394D01*
X011000Y007748D02*
X011600Y007748D01*
X012100Y007248D01*
X012100Y006748D01*
X011010Y006998D02*
X011000Y007039D01*
X011010Y006998D02*
X011010Y003848D01*
X009660Y004478D02*
X009660Y006458D01*
X010110Y006908D01*
X010110Y007538D01*
X009930Y007718D01*
X009660Y007718D01*
X009600Y007748D01*
X009570Y007448D02*
X009600Y007394D01*
X008954Y007394D01*
X008350Y007998D01*
X007100Y007998D01*
X006960Y007858D01*
X006960Y003848D01*
X007050Y003758D01*
X007100Y003748D01*
X005100Y003748D02*
X005090Y003668D01*
X005090Y001778D01*
X005100Y001748D01*
X004100Y001748D02*
X004100Y003748D01*
X003560Y003218D02*
X003290Y002948D01*
X002840Y002948D01*
X002840Y002498D01*
X002120Y001778D01*
X002100Y001748D01*
X002030Y001778D01*
X001850Y001778D01*
X000410Y003218D01*
X000410Y004298D01*
X001580Y005468D01*
X001580Y006368D01*
X001600Y006196D01*
X002030Y005648D02*
X002600Y006248D01*
X002600Y006748D01*
X002840Y007088D01*
X003830Y007088D01*
X004190Y006728D01*
X004191Y006748D01*
X004191Y006492D02*
X004280Y006458D01*
X004460Y006458D01*
X004640Y006638D01*
X004640Y006818D01*
X004100Y007358D01*
X002660Y007358D01*
X002390Y007088D01*
X001670Y007088D01*
X001600Y007299D01*
X003020Y006728D02*
X003560Y006728D01*
X003600Y006748D01*
X003600Y006492D02*
X003560Y006458D01*
X003290Y006458D01*
X001130Y004298D01*
X001130Y003758D01*
X001100Y003748D01*
X001670Y003398D02*
X001670Y004298D01*
X001850Y004478D01*
X002300Y004478D01*
X003020Y003758D01*
X003100Y003748D01*
X003560Y003218D02*
X003560Y006188D01*
X003600Y006236D01*
X004460Y006458D02*
X005090Y005828D01*
X005090Y003758D01*
X005100Y003748D01*
X002840Y002948D02*
X002120Y003668D01*
X002100Y003748D01*
X001670Y003398D02*
X001220Y002948D01*
X000950Y002948D01*
X000590Y003308D01*
X000590Y004208D01*
X002030Y005648D01*
X007850Y006196D02*
X008651Y006998D01*
X009030Y006998D02*
X009100Y006998D01*
X009570Y006998D01*
X009600Y007039D01*
X009300Y009468D02*
X008940Y009468D01*
X008670Y009738D01*
X008670Y012618D01*
X007350Y013938D01*
X007350Y015498D01*
X007651Y015799D01*
X007850Y015799D01*
X008651Y015498D02*
X009030Y015498D01*
X009030Y012258D01*
X009100Y012248D01*
X009120Y012168D01*
X009120Y010278D01*
X009100Y010248D01*
X009660Y009828D02*
X009660Y012978D01*
X010290Y012978D01*
X010560Y012708D01*
X010560Y009828D01*
X010920Y009468D01*
X011370Y009468D01*
X012090Y010188D01*
X012100Y010248D01*
X012090Y010278D01*
X012090Y012168D01*
X012100Y012248D01*
X011100Y012248D02*
X011100Y010248D01*
X010110Y010278D02*
X010100Y010248D01*
X010110Y010278D02*
X010110Y012168D01*
X010100Y012248D01*
X011010Y012348D02*
X011100Y012258D01*
X011100Y012248D01*
X011010Y012348D02*
X011010Y015498D01*
X011000Y015539D01*
X011000Y015894D02*
X010920Y015948D01*
X010560Y015948D01*
X009840Y016668D01*
X006770Y016668D01*
X006600Y016498D01*
X006600Y011808D01*
X006960Y011448D01*
X007320Y011448D01*
X008040Y012168D01*
X008100Y012248D01*
X007100Y012248D02*
X007050Y012258D01*
X006960Y012348D01*
X006960Y016358D01*
X007100Y016498D01*
X008350Y016498D01*
X008954Y015894D01*
X009600Y015894D01*
X009570Y015948D01*
X009930Y016218D02*
X010110Y016038D01*
X010110Y015408D01*
X009660Y014958D01*
X009660Y012978D01*
X007850Y014696D02*
X008651Y015498D01*
X009030Y015498D02*
X009100Y015498D01*
X009570Y015498D01*
X009600Y015539D01*
X009660Y016218D02*
X009600Y016248D01*
X009660Y016218D02*
X009930Y016218D01*
X011000Y016248D02*
X011600Y016248D01*
X012100Y015748D01*
X012100Y015248D01*
X014850Y015748D02*
X015100Y015498D01*
X015700Y015498D01*
X015805Y015602D01*
X016002Y015602D02*
X016002Y015846D01*
X015850Y015998D01*
X015350Y015998D01*
X015100Y016498D02*
X014850Y016248D01*
X014850Y015748D01*
X015600Y016498D02*
X015850Y016248D01*
X017187Y016248D01*
X015600Y016498D02*
X015100Y016498D01*
X016995Y015143D02*
X017090Y015048D01*
X017090Y012258D01*
X017100Y012248D01*
X017450Y011898D01*
X019910Y011718D02*
X019910Y012798D01*
X021080Y013968D01*
X021080Y014868D01*
X021100Y014696D01*
X027350Y014696D02*
X028151Y015498D01*
X028530Y015498D02*
X028600Y015498D01*
X029070Y015498D01*
X029100Y015539D01*
X030500Y016248D02*
X031100Y016248D01*
X031600Y015748D01*
X031600Y015248D01*
X018600Y009696D02*
X018530Y009828D01*
X017630Y009828D01*
X017270Y009468D01*
X014840Y009468D01*
X014120Y010188D01*
X014100Y010248D01*
X014120Y010278D01*
X014120Y012168D01*
X014100Y012248D01*
X009660Y009828D02*
X009300Y009468D01*
X005100Y010248D02*
X005090Y010278D01*
X005090Y012168D01*
X005100Y012248D01*
X005090Y012258D01*
X005090Y014328D01*
X004460Y014958D01*
X004640Y015138D01*
X004640Y015318D01*
X004100Y015858D01*
X002660Y015858D01*
X002390Y015588D01*
X001670Y015588D01*
X001600Y015799D01*
X002600Y015248D02*
X002600Y014748D01*
X002030Y014148D01*
X000590Y012708D01*
X000590Y011808D01*
X000950Y011448D01*
X001220Y011448D01*
X001670Y011898D01*
X001670Y012798D01*
X001850Y012978D01*
X002300Y012978D01*
X003020Y012258D01*
X003100Y012248D01*
X003560Y011718D02*
X003290Y011448D01*
X002840Y011448D01*
X002840Y010998D01*
X002120Y010278D01*
X002100Y010248D01*
X002030Y010278D01*
X001850Y010278D01*
X000410Y011718D01*
X000410Y012798D01*
X001580Y013968D01*
X001580Y014868D01*
X001600Y014696D01*
X002600Y015248D02*
X002840Y015588D01*
X003830Y015588D01*
X004190Y015228D01*
X004191Y015248D01*
X004191Y014992D02*
X004280Y014958D01*
X004460Y014958D01*
X003600Y014992D02*
X003560Y014958D01*
X003290Y014958D01*
X001130Y012798D01*
X001130Y012258D01*
X001100Y012248D01*
X002100Y012248D02*
X002120Y012168D01*
X002840Y011448D01*
X003560Y011718D02*
X003560Y014688D01*
X003600Y014736D01*
X003560Y015228D02*
X003020Y015228D01*
X003560Y015228D02*
X003600Y015248D01*
X004100Y012248D02*
X004100Y010248D01*
X016198Y007102D02*
X016395Y007102D01*
X016370Y007088D01*
X016550Y007088D01*
X016995Y006643D01*
X017630Y001328D02*
X018530Y001328D01*
X018600Y001196D01*
D19*
X016600Y002748D03*
X012100Y006748D03*
X015350Y007498D03*
X016600Y011248D03*
X012100Y015248D03*
X015350Y015998D03*
X031600Y015248D03*
X031600Y006748D03*
D20*
X022520Y006728D03*
X022520Y015228D03*
X003020Y015228D03*
X003020Y006728D03*
M02*
