G75*
G70*
%OFA0B0*%
%FSLAX24Y24*%
%IPPOS*%
%LPD*%
%AMOC8*
5,1,8,0,0,1.08239X$1,22.5*
%
%ADD10C,0.0030*%
%ADD11C,0.0060*%
%ADD12C,0.0020*%
%ADD13C,0.0050*%
%ADD14R,0.0096X0.0337*%
%ADD15R,0.0096X0.0337*%
%ADD16R,0.0690X0.0290*%
%ADD17C,0.0080*%
%ADD18C,0.0010*%
%ADD19R,0.0364X0.0450*%
%ADD20C,0.0000*%
%ADD21R,0.0230X0.0720*%
D10*
X002365Y007719D02*
X002612Y007719D01*
X002488Y007719D02*
X002488Y008089D01*
X002365Y007966D01*
X002733Y008027D02*
X002795Y008089D01*
X002918Y008089D01*
X002980Y008027D01*
X002980Y007966D01*
X002733Y007719D01*
X002980Y007719D01*
X003102Y007842D02*
X003225Y007719D01*
X003349Y007842D01*
X003349Y008089D01*
X003102Y008089D02*
X003102Y007842D01*
X002857Y009719D02*
X002857Y010089D01*
X002979Y009904D02*
X003226Y009904D01*
X003102Y010027D02*
X003102Y009780D01*
X002857Y009719D02*
X002611Y010089D01*
X002611Y009719D01*
X002488Y009719D02*
X002365Y009719D01*
X002427Y009719D02*
X002427Y010089D01*
X002488Y010089D02*
X002365Y010089D01*
X001607Y011719D02*
X001607Y012089D01*
X001729Y011904D02*
X001976Y011904D01*
X001607Y011719D02*
X001361Y012089D01*
X001361Y011719D01*
X001238Y011719D02*
X001115Y011719D01*
X001177Y011719D02*
X001177Y012089D01*
X001238Y012089D02*
X001115Y012089D01*
D11*
X001350Y011304D02*
X001400Y011304D01*
X001600Y011304D01*
X001600Y011104D01*
X002100Y011104D01*
X002300Y011104D01*
X002350Y011104D01*
X002350Y011304D01*
X002300Y011304D01*
X002100Y011304D01*
X001600Y011304D01*
X001600Y011104D02*
X001400Y011104D01*
X001350Y011104D01*
X001350Y011304D01*
X001350Y010304D02*
X001400Y010304D01*
X001600Y010304D01*
X001600Y010104D01*
X002100Y010104D01*
X002300Y010104D01*
X002350Y010104D01*
X002350Y010304D01*
X002300Y010304D01*
X002100Y010304D01*
X001600Y010304D01*
X001600Y010104D02*
X001400Y010104D01*
X001350Y010104D01*
X001350Y010304D01*
X001350Y009304D02*
X001400Y009304D01*
X001600Y009304D01*
X001600Y009104D01*
X002100Y009104D01*
X002300Y009104D01*
X002350Y009104D01*
X002350Y009304D01*
X002300Y009304D01*
X002100Y009304D01*
X001600Y009304D01*
X001600Y009104D02*
X001400Y009104D01*
X001350Y009104D01*
X001350Y009304D01*
X001350Y008304D02*
X001400Y008304D01*
X001600Y008304D01*
X001600Y008104D01*
X002100Y008104D01*
X002300Y008104D01*
X002350Y008104D01*
X002350Y008304D01*
X002300Y008304D01*
X002100Y008304D01*
X001600Y008304D01*
X001600Y008104D02*
X001400Y008104D01*
X001350Y008104D01*
X001350Y008304D01*
X002100Y008304D02*
X002100Y008104D01*
X002100Y009104D02*
X002100Y009304D01*
X002100Y010104D02*
X002100Y010304D01*
X002100Y011104D02*
X002100Y011304D01*
X003211Y011216D02*
X003211Y010192D01*
X003213Y010172D01*
X003217Y010152D01*
X003225Y010134D01*
X003235Y010117D01*
X003248Y010101D01*
X003264Y010088D01*
X003281Y010078D01*
X003299Y010070D01*
X003319Y010066D01*
X003339Y010064D01*
X004362Y010064D01*
X004382Y010066D01*
X004402Y010070D01*
X004420Y010078D01*
X004437Y010088D01*
X004453Y010101D01*
X004466Y010117D01*
X004476Y010134D01*
X004484Y010152D01*
X004488Y010172D01*
X004490Y010192D01*
X004490Y011216D01*
X004488Y011236D01*
X004484Y011256D01*
X004476Y011274D01*
X004466Y011291D01*
X004453Y011307D01*
X004437Y011320D01*
X004420Y011330D01*
X004402Y011338D01*
X004382Y011342D01*
X004362Y011344D01*
X004378Y011344D02*
X003339Y011344D01*
X003319Y011342D01*
X003299Y011338D01*
X003281Y011330D01*
X003264Y011320D01*
X003248Y011307D01*
X003235Y011291D01*
X003225Y011274D01*
X003217Y011256D01*
X003213Y011236D01*
X003211Y011216D01*
X004650Y009034D02*
X005550Y009034D01*
X005550Y008374D02*
X004650Y008374D01*
X004780Y010324D02*
X004780Y011079D01*
X005420Y011079D02*
X005420Y010324D01*
D12*
X004166Y011113D02*
X004168Y011132D01*
X004174Y011151D01*
X004183Y011168D01*
X004196Y011183D01*
X004211Y011194D01*
X004229Y011203D01*
X004247Y011208D01*
X004267Y011209D01*
X004286Y011206D01*
X004304Y011199D01*
X004321Y011189D01*
X004335Y011176D01*
X004346Y011160D01*
X004354Y011142D01*
X004358Y011123D01*
X004358Y011103D01*
X004354Y011084D01*
X004346Y011066D01*
X004335Y011050D01*
X004321Y011037D01*
X004304Y011027D01*
X004286Y011020D01*
X004267Y011017D01*
X004247Y011018D01*
X004229Y011023D01*
X004211Y011032D01*
X004196Y011043D01*
X004183Y011058D01*
X004174Y011075D01*
X004168Y011094D01*
X004166Y011113D01*
D13*
X003025Y011108D02*
X002875Y010958D01*
X002875Y011033D02*
X002875Y010808D01*
X002875Y010648D02*
X002950Y010648D01*
X003025Y010573D01*
X003025Y010423D01*
X002950Y010348D01*
X003025Y010187D02*
X003025Y009887D01*
X002725Y010187D01*
X002650Y010187D01*
X002575Y010112D01*
X002575Y009962D01*
X002650Y009887D01*
X002575Y009727D02*
X002650Y009577D01*
X002800Y009427D01*
X002800Y009652D01*
X002875Y009727D01*
X002950Y009727D01*
X003025Y009652D01*
X003025Y009502D01*
X002950Y009427D01*
X002800Y009427D01*
X002950Y009267D02*
X002650Y009267D01*
X002575Y009192D01*
X002575Y008966D01*
X003025Y008966D01*
X003025Y009192D01*
X002950Y009267D01*
X003025Y008806D02*
X002725Y008806D01*
X002575Y008656D01*
X002725Y008506D01*
X003025Y008506D01*
X002800Y008506D02*
X002800Y008806D01*
X002650Y010348D02*
X002575Y010423D01*
X002575Y010573D01*
X002650Y010648D01*
X002725Y010648D01*
X002800Y010573D01*
X002875Y010648D01*
X002800Y010573D02*
X002800Y010498D01*
X003025Y010808D02*
X002575Y010808D01*
X002575Y011033D01*
X002650Y011108D01*
X002800Y011108D01*
X002875Y011033D01*
X003025Y011268D02*
X002575Y011268D01*
X002725Y011419D01*
X002575Y011569D01*
X003025Y011569D01*
D14*
X003466Y009886D03*
X003722Y009886D03*
X003978Y009886D03*
X004234Y009886D03*
D15*
X004234Y011522D03*
X003978Y011522D03*
X003722Y011522D03*
X003466Y011522D03*
D16*
X005100Y011224D03*
X005100Y010184D03*
D17*
X006307Y007463D02*
X006307Y000140D01*
X000893Y000140D01*
X000893Y007463D01*
X006307Y007463D01*
D18*
X005481Y006894D02*
X005481Y006687D01*
X005378Y006584D01*
X005275Y006687D01*
X005275Y006894D01*
X005187Y006894D02*
X004980Y006894D01*
X004980Y006739D01*
X005083Y006791D01*
X005135Y006791D01*
X005187Y006739D01*
X005187Y006635D01*
X005135Y006584D01*
X005032Y006584D01*
X004980Y006635D01*
X004981Y005144D02*
X004981Y004834D01*
X004775Y005144D01*
X004775Y004834D01*
X004687Y004885D02*
X004687Y004989D01*
X004583Y004989D01*
X004480Y005092D02*
X004480Y004885D01*
X004532Y004834D01*
X004635Y004834D01*
X004687Y004885D01*
X004687Y005092D02*
X004635Y005144D01*
X004532Y005144D01*
X004480Y005092D01*
X004026Y005092D02*
X004026Y004885D01*
X003974Y004834D01*
X003819Y004834D01*
X003819Y005144D01*
X003974Y005144D01*
X004026Y005092D01*
X003731Y005144D02*
X003731Y004834D01*
X003525Y005144D01*
X003525Y004834D01*
X003437Y004885D02*
X003437Y004989D01*
X003333Y004989D01*
X003230Y005092D02*
X003282Y005144D01*
X003385Y005144D01*
X003437Y005092D01*
X003437Y004885D02*
X003385Y004834D01*
X003282Y004834D01*
X003230Y004885D01*
X003230Y005092D01*
X002526Y005144D02*
X002526Y004834D01*
X002423Y005041D02*
X002526Y005144D01*
X002423Y005041D02*
X002319Y005144D01*
X002319Y004834D01*
X002231Y004834D02*
X002231Y005144D01*
X002128Y004937D02*
X002231Y004834D01*
X002128Y004937D02*
X002025Y004834D01*
X002025Y005144D01*
X001937Y005092D02*
X001937Y004989D01*
X001885Y004937D01*
X001730Y004937D01*
X001730Y004834D02*
X001730Y005144D01*
X001885Y005144D01*
X001937Y005092D01*
X001923Y006584D02*
X002026Y006687D01*
X002026Y006894D01*
X001819Y006687D02*
X001923Y006584D01*
X001819Y006687D02*
X001819Y006894D01*
X001731Y006842D02*
X001680Y006894D01*
X001576Y006894D01*
X001525Y006842D01*
X001731Y006791D02*
X001525Y006584D01*
X001731Y006584D01*
X001731Y006791D02*
X001731Y006842D01*
X001437Y006584D02*
X001230Y006584D01*
X001333Y006584D02*
X001333Y006894D01*
X001230Y006791D01*
X003105Y007084D02*
X003208Y007084D01*
X003157Y007084D02*
X003157Y007394D01*
X003208Y007394D02*
X003105Y007394D01*
X003301Y007084D02*
X003508Y007394D01*
X003596Y007342D02*
X003596Y007135D01*
X003648Y007084D01*
X003751Y007084D01*
X003803Y007135D01*
X003803Y007342D01*
X003751Y007394D01*
X003648Y007394D01*
X003596Y007342D01*
X005069Y005144D02*
X005069Y004834D01*
X005224Y004834D01*
X005276Y004885D01*
X005276Y005092D01*
X005224Y005144D01*
X005069Y005144D01*
D19*
X000682Y001269D03*
X006518Y001269D03*
D20*
X001892Y008304D02*
X001888Y008304D01*
X001887Y008305D01*
X001894Y008312D01*
X001894Y008305D01*
X001892Y008304D01*
X001887Y008305D02*
X001887Y008312D01*
X001888Y008314D01*
X001892Y008314D01*
X001894Y008312D01*
X001884Y008304D02*
X001878Y008304D01*
X001881Y008304D02*
X001881Y008314D01*
X001878Y008310D01*
X001875Y008309D02*
X001873Y008307D01*
X001868Y008307D01*
X001866Y008307D02*
X001866Y008305D01*
X001864Y008304D01*
X001861Y008304D01*
X001859Y008305D01*
X001857Y008304D02*
X001850Y008304D01*
X001850Y008314D01*
X001859Y008312D02*
X001859Y008310D01*
X001861Y008309D01*
X001864Y008309D01*
X001866Y008307D01*
X001868Y008304D02*
X001868Y008314D01*
X001873Y008314D01*
X001875Y008312D01*
X001875Y008309D01*
X001866Y008312D02*
X001864Y008314D01*
X001861Y008314D01*
X001859Y008312D01*
X001861Y009304D02*
X001859Y009305D01*
X001861Y009304D02*
X001864Y009304D01*
X001866Y009305D01*
X001866Y009307D01*
X001864Y009309D01*
X001861Y009309D01*
X001859Y009310D01*
X001859Y009312D01*
X001861Y009314D01*
X001864Y009314D01*
X001866Y009312D01*
X001868Y009314D02*
X001873Y009314D01*
X001875Y009312D01*
X001875Y009309D01*
X001873Y009307D01*
X001868Y009307D01*
X001868Y009304D02*
X001868Y009314D01*
X001878Y009310D02*
X001881Y009314D01*
X001881Y009304D01*
X001878Y009304D02*
X001884Y009304D01*
X001887Y009305D02*
X001894Y009312D01*
X001894Y009305D01*
X001892Y009304D01*
X001888Y009304D01*
X001887Y009305D01*
X001887Y009312D01*
X001888Y009314D01*
X001892Y009314D01*
X001894Y009312D01*
X001857Y009304D02*
X001850Y009304D01*
X001850Y009314D01*
X001850Y010304D02*
X001857Y010304D01*
X001859Y010305D02*
X001861Y010304D01*
X001864Y010304D01*
X001866Y010305D01*
X001866Y010307D01*
X001864Y010309D01*
X001861Y010309D01*
X001859Y010310D01*
X001859Y010312D01*
X001861Y010314D01*
X001864Y010314D01*
X001866Y010312D01*
X001868Y010314D02*
X001873Y010314D01*
X001875Y010312D01*
X001875Y010309D01*
X001873Y010307D01*
X001868Y010307D01*
X001868Y010304D02*
X001868Y010314D01*
X001878Y010310D02*
X001881Y010314D01*
X001881Y010304D01*
X001878Y010304D02*
X001884Y010304D01*
X001887Y010305D02*
X001894Y010312D01*
X001894Y010305D01*
X001892Y010304D01*
X001888Y010304D01*
X001887Y010305D01*
X001887Y010312D01*
X001888Y010314D01*
X001892Y010314D01*
X001894Y010312D01*
X001850Y010314D02*
X001850Y010304D01*
X001850Y011304D02*
X001857Y011304D01*
X001859Y011305D02*
X001861Y011304D01*
X001864Y011304D01*
X001866Y011305D01*
X001866Y011307D01*
X001864Y011309D01*
X001861Y011309D01*
X001859Y011310D01*
X001859Y011312D01*
X001861Y011314D01*
X001864Y011314D01*
X001866Y011312D01*
X001868Y011314D02*
X001873Y011314D01*
X001875Y011312D01*
X001875Y011309D01*
X001873Y011307D01*
X001868Y011307D01*
X001868Y011304D02*
X001868Y011314D01*
X001878Y011310D02*
X001881Y011314D01*
X001881Y011304D01*
X001878Y011304D02*
X001884Y011304D01*
X001887Y011305D02*
X001888Y011304D01*
X001892Y011304D01*
X001894Y011305D01*
X001894Y011312D01*
X001887Y011305D01*
X001887Y011312D01*
X001888Y011314D01*
X001892Y011314D01*
X001894Y011312D01*
X001850Y011314D02*
X001850Y011304D01*
D21*
X004545Y008704D03*
X005655Y008704D03*
M02*
