G75*
G70*
%OFA0B0*%
%FSLAX24Y24*%
%IPPOS*%
%LPD*%
%AMOC8*
5,1,8,0,0,1.08239X$1,22.5*
%
%ADD10C,0.0000*%
%ADD11R,0.0157X0.0394*%
%ADD12R,0.0710X0.0630*%
%ADD13C,0.0554*%
%ADD14OC8,0.0850*%
%ADD15R,0.0630X0.0787*%
%ADD16C,0.0160*%
D10*
X000100Y001704D02*
X000100Y013200D01*
X006970Y013200D01*
X006970Y001704D01*
X000100Y001704D01*
X000960Y003204D02*
X000962Y003254D01*
X000968Y003304D01*
X000978Y003353D01*
X000991Y003402D01*
X001009Y003449D01*
X001030Y003495D01*
X001054Y003538D01*
X001082Y003580D01*
X001113Y003620D01*
X001147Y003657D01*
X001184Y003691D01*
X001224Y003722D01*
X001266Y003750D01*
X001309Y003774D01*
X001355Y003795D01*
X001402Y003813D01*
X001451Y003826D01*
X001500Y003836D01*
X001550Y003842D01*
X001600Y003844D01*
X001650Y003842D01*
X001700Y003836D01*
X001749Y003826D01*
X001798Y003813D01*
X001845Y003795D01*
X001891Y003774D01*
X001934Y003750D01*
X001976Y003722D01*
X002016Y003691D01*
X002053Y003657D01*
X002087Y003620D01*
X002118Y003580D01*
X002146Y003538D01*
X002170Y003495D01*
X002191Y003449D01*
X002209Y003402D01*
X002222Y003353D01*
X002232Y003304D01*
X002238Y003254D01*
X002240Y003204D01*
X002238Y003154D01*
X002232Y003104D01*
X002222Y003055D01*
X002209Y003006D01*
X002191Y002959D01*
X002170Y002913D01*
X002146Y002870D01*
X002118Y002828D01*
X002087Y002788D01*
X002053Y002751D01*
X002016Y002717D01*
X001976Y002686D01*
X001934Y002658D01*
X001891Y002634D01*
X001845Y002613D01*
X001798Y002595D01*
X001749Y002582D01*
X001700Y002572D01*
X001650Y002566D01*
X001600Y002564D01*
X001550Y002566D01*
X001500Y002572D01*
X001451Y002582D01*
X001402Y002595D01*
X001355Y002613D01*
X001309Y002634D01*
X001266Y002658D01*
X001224Y002686D01*
X001184Y002717D01*
X001147Y002751D01*
X001113Y002788D01*
X001082Y002828D01*
X001054Y002870D01*
X001030Y002913D01*
X001009Y002959D01*
X000991Y003006D01*
X000978Y003055D01*
X000968Y003104D01*
X000962Y003154D01*
X000960Y003204D01*
X004960Y003204D02*
X004962Y003254D01*
X004968Y003304D01*
X004978Y003353D01*
X004991Y003402D01*
X005009Y003449D01*
X005030Y003495D01*
X005054Y003538D01*
X005082Y003580D01*
X005113Y003620D01*
X005147Y003657D01*
X005184Y003691D01*
X005224Y003722D01*
X005266Y003750D01*
X005309Y003774D01*
X005355Y003795D01*
X005402Y003813D01*
X005451Y003826D01*
X005500Y003836D01*
X005550Y003842D01*
X005600Y003844D01*
X005650Y003842D01*
X005700Y003836D01*
X005749Y003826D01*
X005798Y003813D01*
X005845Y003795D01*
X005891Y003774D01*
X005934Y003750D01*
X005976Y003722D01*
X006016Y003691D01*
X006053Y003657D01*
X006087Y003620D01*
X006118Y003580D01*
X006146Y003538D01*
X006170Y003495D01*
X006191Y003449D01*
X006209Y003402D01*
X006222Y003353D01*
X006232Y003304D01*
X006238Y003254D01*
X006240Y003204D01*
X006238Y003154D01*
X006232Y003104D01*
X006222Y003055D01*
X006209Y003006D01*
X006191Y002959D01*
X006170Y002913D01*
X006146Y002870D01*
X006118Y002828D01*
X006087Y002788D01*
X006053Y002751D01*
X006016Y002717D01*
X005976Y002686D01*
X005934Y002658D01*
X005891Y002634D01*
X005845Y002613D01*
X005798Y002595D01*
X005749Y002582D01*
X005700Y002572D01*
X005650Y002566D01*
X005600Y002564D01*
X005550Y002566D01*
X005500Y002572D01*
X005451Y002582D01*
X005402Y002595D01*
X005355Y002613D01*
X005309Y002634D01*
X005266Y002658D01*
X005224Y002686D01*
X005184Y002717D01*
X005147Y002751D01*
X005113Y002788D01*
X005082Y002828D01*
X005054Y002870D01*
X005030Y002913D01*
X005009Y002959D01*
X004991Y003006D01*
X004978Y003055D01*
X004968Y003104D01*
X004962Y003154D01*
X004960Y003204D01*
D11*
X004234Y009813D03*
X003978Y009813D03*
X003722Y009813D03*
X003467Y009813D03*
X003467Y011595D03*
X003722Y011595D03*
X003978Y011595D03*
X004234Y011595D03*
D12*
X005100Y011264D03*
X005100Y010144D03*
D13*
X004350Y006704D03*
X003850Y005704D03*
X003350Y006704D03*
X002850Y005704D03*
X002350Y006704D03*
X004850Y005704D03*
D14*
X001850Y008204D03*
X001850Y009204D03*
X001850Y010204D03*
X001850Y011204D03*
D15*
X004549Y008704D03*
X005651Y008704D03*
D16*
X005600Y008653D01*
X005600Y005454D01*
X005350Y005204D01*
X003600Y005204D01*
X003100Y005704D01*
X002850Y005704D01*
X002850Y006454D02*
X003600Y005704D01*
X003850Y005704D01*
X004850Y005704D01*
X004350Y006704D02*
X004549Y006903D01*
X004549Y008704D01*
X004600Y009704D02*
X004350Y009704D01*
X004600Y009704D02*
X005100Y010204D01*
X005160Y010204D01*
X005100Y010144D01*
X005100Y011264D02*
X004660Y011704D01*
X004350Y011704D01*
X003978Y011595D02*
X003978Y012325D01*
X003600Y012704D01*
X002600Y012704D01*
X002100Y012204D01*
X002100Y011454D01*
X001850Y011204D01*
X002600Y010704D02*
X002100Y010204D01*
X001850Y010204D01*
X001850Y009204D02*
X002467Y009204D01*
X003467Y008204D01*
X003467Y007570D01*
X002850Y006954D01*
X002850Y006454D01*
X002350Y006704D02*
X002350Y007704D01*
X001850Y008204D01*
X002600Y010704D02*
X002600Y011704D01*
X003100Y012204D01*
X003600Y012204D01*
X003722Y012081D01*
X003722Y011595D01*
X003467Y011595D02*
X003467Y009813D01*
X003467Y008204D01*
X003722Y007076D02*
X003350Y006704D01*
X003722Y007076D02*
X003722Y009813D01*
X003978Y009813D02*
X003978Y007075D01*
X004350Y006704D01*
M02*
