G75*
%MOIN*%
%OFA0B0*%
%FSLAX24Y24*%
%IPPOS*%
%LPD*%
%AMOC8*
5,1,8,0,0,1.08239X$1,22.5*
%
%ADD10C,0.0000*%
%ADD11R,0.0630X0.0709*%
%ADD12R,0.0551X0.0394*%
%ADD13C,0.0554*%
%ADD14C,0.0560*%
%ADD15R,0.0630X0.0787*%
%ADD16C,0.0396*%
%ADD17C,0.0240*%
%ADD18R,0.0396X0.0396*%
%ADD19C,0.0400*%
D10*
X001704Y000220D02*
X001704Y031716D01*
X041074Y031716D01*
X041074Y000220D01*
X001704Y000220D01*
X002564Y026220D02*
X002566Y026270D01*
X002572Y026320D01*
X002582Y026369D01*
X002595Y026418D01*
X002613Y026465D01*
X002634Y026511D01*
X002658Y026554D01*
X002686Y026596D01*
X002717Y026636D01*
X002751Y026673D01*
X002788Y026707D01*
X002828Y026738D01*
X002870Y026766D01*
X002913Y026790D01*
X002959Y026811D01*
X003006Y026829D01*
X003055Y026842D01*
X003104Y026852D01*
X003154Y026858D01*
X003204Y026860D01*
X003254Y026858D01*
X003304Y026852D01*
X003353Y026842D01*
X003402Y026829D01*
X003449Y026811D01*
X003495Y026790D01*
X003538Y026766D01*
X003580Y026738D01*
X003620Y026707D01*
X003657Y026673D01*
X003691Y026636D01*
X003722Y026596D01*
X003750Y026554D01*
X003774Y026511D01*
X003795Y026465D01*
X003813Y026418D01*
X003826Y026369D01*
X003836Y026320D01*
X003842Y026270D01*
X003844Y026220D01*
X003842Y026170D01*
X003836Y026120D01*
X003826Y026071D01*
X003813Y026022D01*
X003795Y025975D01*
X003774Y025929D01*
X003750Y025886D01*
X003722Y025844D01*
X003691Y025804D01*
X003657Y025767D01*
X003620Y025733D01*
X003580Y025702D01*
X003538Y025674D01*
X003495Y025650D01*
X003449Y025629D01*
X003402Y025611D01*
X003353Y025598D01*
X003304Y025588D01*
X003254Y025582D01*
X003204Y025580D01*
X003154Y025582D01*
X003104Y025588D01*
X003055Y025598D01*
X003006Y025611D01*
X002959Y025629D01*
X002913Y025650D01*
X002870Y025674D01*
X002828Y025702D01*
X002788Y025733D01*
X002751Y025767D01*
X002717Y025804D01*
X002686Y025844D01*
X002658Y025886D01*
X002634Y025929D01*
X002613Y025975D01*
X002595Y026022D01*
X002582Y026071D01*
X002572Y026120D01*
X002566Y026170D01*
X002564Y026220D01*
X002564Y030220D02*
X002566Y030270D01*
X002572Y030320D01*
X002582Y030369D01*
X002595Y030418D01*
X002613Y030465D01*
X002634Y030511D01*
X002658Y030554D01*
X002686Y030596D01*
X002717Y030636D01*
X002751Y030673D01*
X002788Y030707D01*
X002828Y030738D01*
X002870Y030766D01*
X002913Y030790D01*
X002959Y030811D01*
X003006Y030829D01*
X003055Y030842D01*
X003104Y030852D01*
X003154Y030858D01*
X003204Y030860D01*
X003254Y030858D01*
X003304Y030852D01*
X003353Y030842D01*
X003402Y030829D01*
X003449Y030811D01*
X003495Y030790D01*
X003538Y030766D01*
X003580Y030738D01*
X003620Y030707D01*
X003657Y030673D01*
X003691Y030636D01*
X003722Y030596D01*
X003750Y030554D01*
X003774Y030511D01*
X003795Y030465D01*
X003813Y030418D01*
X003826Y030369D01*
X003836Y030320D01*
X003842Y030270D01*
X003844Y030220D01*
X003842Y030170D01*
X003836Y030120D01*
X003826Y030071D01*
X003813Y030022D01*
X003795Y029975D01*
X003774Y029929D01*
X003750Y029886D01*
X003722Y029844D01*
X003691Y029804D01*
X003657Y029767D01*
X003620Y029733D01*
X003580Y029702D01*
X003538Y029674D01*
X003495Y029650D01*
X003449Y029629D01*
X003402Y029611D01*
X003353Y029598D01*
X003304Y029588D01*
X003254Y029582D01*
X003204Y029580D01*
X003154Y029582D01*
X003104Y029588D01*
X003055Y029598D01*
X003006Y029611D01*
X002959Y029629D01*
X002913Y029650D01*
X002870Y029674D01*
X002828Y029702D01*
X002788Y029733D01*
X002751Y029767D01*
X002717Y029804D01*
X002686Y029844D01*
X002658Y029886D01*
X002634Y029929D01*
X002613Y029975D01*
X002595Y030022D01*
X002582Y030071D01*
X002572Y030120D01*
X002566Y030170D01*
X002564Y030220D01*
X039064Y030220D02*
X039066Y030270D01*
X039072Y030320D01*
X039082Y030369D01*
X039095Y030418D01*
X039113Y030465D01*
X039134Y030511D01*
X039158Y030554D01*
X039186Y030596D01*
X039217Y030636D01*
X039251Y030673D01*
X039288Y030707D01*
X039328Y030738D01*
X039370Y030766D01*
X039413Y030790D01*
X039459Y030811D01*
X039506Y030829D01*
X039555Y030842D01*
X039604Y030852D01*
X039654Y030858D01*
X039704Y030860D01*
X039754Y030858D01*
X039804Y030852D01*
X039853Y030842D01*
X039902Y030829D01*
X039949Y030811D01*
X039995Y030790D01*
X040038Y030766D01*
X040080Y030738D01*
X040120Y030707D01*
X040157Y030673D01*
X040191Y030636D01*
X040222Y030596D01*
X040250Y030554D01*
X040274Y030511D01*
X040295Y030465D01*
X040313Y030418D01*
X040326Y030369D01*
X040336Y030320D01*
X040342Y030270D01*
X040344Y030220D01*
X040342Y030170D01*
X040336Y030120D01*
X040326Y030071D01*
X040313Y030022D01*
X040295Y029975D01*
X040274Y029929D01*
X040250Y029886D01*
X040222Y029844D01*
X040191Y029804D01*
X040157Y029767D01*
X040120Y029733D01*
X040080Y029702D01*
X040038Y029674D01*
X039995Y029650D01*
X039949Y029629D01*
X039902Y029611D01*
X039853Y029598D01*
X039804Y029588D01*
X039754Y029582D01*
X039704Y029580D01*
X039654Y029582D01*
X039604Y029588D01*
X039555Y029598D01*
X039506Y029611D01*
X039459Y029629D01*
X039413Y029650D01*
X039370Y029674D01*
X039328Y029702D01*
X039288Y029733D01*
X039251Y029767D01*
X039217Y029804D01*
X039186Y029844D01*
X039158Y029886D01*
X039134Y029929D01*
X039113Y029975D01*
X039095Y030022D01*
X039082Y030071D01*
X039072Y030120D01*
X039066Y030170D01*
X039064Y030220D01*
X039064Y026220D02*
X039066Y026270D01*
X039072Y026320D01*
X039082Y026369D01*
X039095Y026418D01*
X039113Y026465D01*
X039134Y026511D01*
X039158Y026554D01*
X039186Y026596D01*
X039217Y026636D01*
X039251Y026673D01*
X039288Y026707D01*
X039328Y026738D01*
X039370Y026766D01*
X039413Y026790D01*
X039459Y026811D01*
X039506Y026829D01*
X039555Y026842D01*
X039604Y026852D01*
X039654Y026858D01*
X039704Y026860D01*
X039754Y026858D01*
X039804Y026852D01*
X039853Y026842D01*
X039902Y026829D01*
X039949Y026811D01*
X039995Y026790D01*
X040038Y026766D01*
X040080Y026738D01*
X040120Y026707D01*
X040157Y026673D01*
X040191Y026636D01*
X040222Y026596D01*
X040250Y026554D01*
X040274Y026511D01*
X040295Y026465D01*
X040313Y026418D01*
X040326Y026369D01*
X040336Y026320D01*
X040342Y026270D01*
X040344Y026220D01*
X040342Y026170D01*
X040336Y026120D01*
X040326Y026071D01*
X040313Y026022D01*
X040295Y025975D01*
X040274Y025929D01*
X040250Y025886D01*
X040222Y025844D01*
X040191Y025804D01*
X040157Y025767D01*
X040120Y025733D01*
X040080Y025702D01*
X040038Y025674D01*
X039995Y025650D01*
X039949Y025629D01*
X039902Y025611D01*
X039853Y025598D01*
X039804Y025588D01*
X039754Y025582D01*
X039704Y025580D01*
X039654Y025582D01*
X039604Y025588D01*
X039555Y025598D01*
X039506Y025611D01*
X039459Y025629D01*
X039413Y025650D01*
X039370Y025674D01*
X039328Y025702D01*
X039288Y025733D01*
X039251Y025767D01*
X039217Y025804D01*
X039186Y025844D01*
X039158Y025886D01*
X039134Y025929D01*
X039113Y025975D01*
X039095Y026022D01*
X039082Y026071D01*
X039072Y026120D01*
X039066Y026170D01*
X039064Y026220D01*
D11*
X035755Y021220D03*
X034653Y021220D03*
X027255Y021220D03*
X026153Y021220D03*
X018755Y021220D03*
X017653Y021220D03*
X010255Y021220D03*
X009153Y021220D03*
X008653Y029220D03*
X009755Y029220D03*
X009755Y030720D03*
X008653Y030720D03*
D12*
X005637Y021594D03*
X005637Y020846D03*
X004771Y021220D03*
X013271Y021220D03*
X014137Y020846D03*
X014137Y021594D03*
X021771Y021220D03*
X022637Y020846D03*
X022637Y021594D03*
X030271Y021220D03*
X031137Y020846D03*
X031137Y021594D03*
D13*
X036204Y026970D03*
X037204Y027470D03*
X036204Y027970D03*
X037204Y028470D03*
X036204Y028970D03*
X037204Y029470D03*
X006704Y029470D03*
X005704Y028970D03*
X006704Y028470D03*
X005704Y027970D03*
X006704Y027470D03*
X005704Y026970D03*
D14*
X008424Y027220D02*
X008984Y027220D01*
X008984Y026220D02*
X008424Y026220D01*
X008424Y025220D02*
X008984Y025220D01*
X010204Y025500D02*
X010204Y024940D01*
X011204Y024940D02*
X011204Y025500D01*
X012204Y025500D02*
X012204Y024940D01*
D15*
X009755Y012220D03*
X008653Y012220D03*
X008653Y006720D03*
X009755Y006720D03*
X017153Y006720D03*
X018255Y006720D03*
X025653Y006720D03*
X026755Y006720D03*
X034153Y006720D03*
X035255Y006720D03*
X035255Y012220D03*
X034153Y012220D03*
X026755Y012220D03*
X025653Y012220D03*
X018255Y012220D03*
X017153Y012220D03*
D16*
X020704Y020720D03*
X020704Y022220D03*
X020204Y024220D03*
X027704Y023720D03*
X007704Y023220D03*
D17*
X006704Y022220D01*
X004704Y022220D01*
X004704Y029220D01*
X005704Y030220D01*
X005704Y029220D02*
X006704Y030220D01*
X007704Y029720D02*
X006704Y028720D01*
X006704Y028470D01*
X007204Y028220D02*
X009204Y028220D01*
X010204Y029220D01*
X013704Y029220D01*
X013704Y026720D01*
X012204Y025220D01*
X011204Y025220D02*
X012704Y026720D01*
X013204Y026720D01*
X013204Y028220D01*
X012704Y028220D02*
X011204Y026720D01*
X009704Y026720D01*
X009204Y026220D01*
X008704Y026220D01*
X008704Y025220D02*
X006704Y027220D01*
X006704Y027470D01*
X006704Y027720D01*
X007204Y028220D01*
X005704Y028970D02*
X005704Y029220D01*
X007704Y030720D02*
X008653Y030720D01*
X008704Y030720D01*
X008704Y029220D01*
X008653Y029220D01*
X009704Y029220D02*
X009755Y029220D01*
X010204Y029220D01*
X009704Y029220D02*
X009704Y030720D01*
X009755Y030720D01*
X011704Y030720D01*
X034704Y030720D01*
X036204Y029220D01*
X036204Y028970D01*
X036204Y028220D02*
X036204Y027970D01*
X036204Y028220D02*
X034704Y029720D01*
X011704Y029720D01*
X015204Y026720D02*
X016954Y026720D01*
X017204Y026970D01*
X023204Y026970D01*
X021704Y027720D02*
X017204Y027720D01*
X017704Y028220D02*
X020204Y028220D01*
X017704Y028220D02*
X017204Y028720D01*
X013704Y025720D02*
X034204Y025720D01*
X035704Y026220D02*
X032704Y026220D01*
X029704Y029220D01*
X029704Y024720D02*
X028704Y024720D01*
X027704Y023720D01*
X027204Y024220D01*
X024204Y024220D01*
X023204Y023220D01*
X020704Y023220D01*
X021704Y022720D02*
X013704Y022720D01*
X012704Y021720D01*
X013204Y021220D01*
X013271Y021220D01*
X012704Y021720D02*
X012204Y022220D01*
X008204Y022220D01*
X009204Y021220D01*
X009153Y021220D01*
X010204Y021220D02*
X010255Y021220D01*
X011204Y021220D01*
X012204Y022970D02*
X012454Y023220D01*
X018704Y023220D01*
X019704Y024220D01*
X020204Y024220D01*
X018704Y024220D02*
X018204Y024720D01*
X013204Y024720D01*
X012204Y023720D01*
X009704Y023720D01*
X009204Y024220D01*
X006204Y024220D01*
X006704Y022220D02*
X008204Y022220D01*
X006204Y021220D02*
X005704Y021720D01*
X005637Y021594D01*
X005637Y020846D02*
X005704Y020720D01*
X008204Y018220D01*
X009704Y018220D01*
X008704Y016720D02*
X008704Y012220D01*
X008653Y012220D01*
X009704Y012220D02*
X009755Y012220D01*
X009704Y012220D02*
X009704Y011220D01*
X018204Y011220D01*
X018204Y012220D01*
X018255Y012220D01*
X017204Y012220D02*
X017153Y012220D01*
X017204Y012220D02*
X017204Y015720D01*
X017704Y015720D01*
X017704Y018720D01*
X017204Y018720D01*
X017704Y018720D02*
X019204Y018720D01*
X019704Y019220D02*
X019704Y011720D01*
X018204Y010220D01*
X017204Y010220D01*
X017204Y006720D01*
X017153Y006720D01*
X018204Y006720D02*
X018204Y005720D01*
X026704Y005720D01*
X027204Y005220D01*
X035204Y005220D01*
X035204Y006220D01*
X035255Y006720D01*
X035204Y006220D02*
X035204Y012220D01*
X035255Y012220D01*
X035204Y012220D02*
X038704Y015720D01*
X038704Y018220D01*
X035704Y021220D01*
X035755Y021220D01*
X036204Y021220D01*
X036704Y021720D01*
X034704Y021220D02*
X034653Y021220D01*
X034704Y021220D02*
X033704Y022220D01*
X032704Y022220D01*
X032704Y023220D01*
X033204Y023720D01*
X035704Y026220D01*
X036204Y026720D01*
X036204Y026970D01*
X033204Y023720D02*
X033704Y023220D01*
X032704Y022220D02*
X029204Y022220D01*
X025204Y022220D01*
X024704Y022720D01*
X023954Y022720D01*
X024704Y023470D01*
X025704Y023470D01*
X025204Y022220D02*
X026204Y021220D01*
X026153Y021220D01*
X027204Y021220D02*
X027255Y021220D01*
X028204Y021220D01*
X029204Y022220D02*
X030204Y021220D01*
X030271Y021220D01*
X031137Y020846D02*
X031204Y020720D01*
X033704Y018220D01*
X035204Y018220D01*
X034204Y016720D02*
X034204Y012220D01*
X034153Y012220D01*
X029204Y011220D02*
X029204Y016220D01*
X032204Y016220D01*
X033204Y017220D01*
X034204Y016720D02*
X037704Y016720D01*
X031704Y021720D02*
X031204Y021720D01*
X031137Y021594D01*
X026704Y018220D02*
X025204Y018220D01*
X022704Y020720D01*
X022637Y020846D01*
X022637Y021594D02*
X022704Y021720D01*
X022704Y022220D01*
X021704Y022220D02*
X020704Y022220D01*
X017704Y022220D01*
X017704Y021220D01*
X017653Y021220D01*
X018704Y021220D02*
X018755Y021220D01*
X019704Y021220D01*
X020204Y020720D01*
X020704Y020720D01*
X021704Y021220D02*
X021771Y021220D01*
X021704Y021220D02*
X021704Y022220D01*
X021704Y022720D01*
X023954Y022720D01*
X019704Y019220D02*
X017704Y019220D01*
X016704Y018220D02*
X016704Y016220D01*
X017204Y016220D01*
X016704Y018220D02*
X014204Y020720D01*
X014137Y020846D01*
X014137Y021594D02*
X014204Y021720D01*
X014204Y022220D01*
X007704Y017220D02*
X004204Y017220D01*
X004204Y011220D01*
X008704Y006720D01*
X008653Y006720D01*
X009704Y006720D02*
X009755Y006720D01*
X009704Y006720D02*
X010704Y005720D01*
X018204Y005720D01*
X018204Y006720D02*
X018255Y006720D01*
X021204Y011220D02*
X021204Y017220D01*
X024704Y017220D01*
X025704Y016720D02*
X025704Y012220D01*
X025653Y012220D01*
X026704Y012220D02*
X026755Y012220D01*
X026704Y012220D02*
X026704Y006720D01*
X026755Y006720D01*
X026704Y006720D02*
X026704Y005720D01*
X025704Y006720D02*
X025653Y006720D01*
X025704Y006720D02*
X021204Y011220D01*
X025704Y016720D02*
X029204Y016720D01*
X029204Y011220D02*
X034204Y006220D01*
X034153Y006720D01*
X012204Y016720D02*
X008704Y016720D01*
X004771Y021220D02*
X004704Y021220D01*
X004704Y022220D01*
X009704Y011220D02*
X009704Y006720D01*
D18*
X011204Y021220D03*
X012204Y022970D03*
X015204Y026720D03*
X017204Y027720D03*
X017204Y028720D03*
X020204Y028220D03*
X021704Y027720D03*
X023204Y026970D03*
X025704Y023470D03*
X028204Y021220D03*
X029704Y024720D03*
X033704Y023220D03*
X020704Y023220D03*
X011704Y030720D03*
D19*
X011704Y029720D03*
X012704Y028220D03*
X013204Y028220D03*
X013704Y025720D03*
X014204Y022220D03*
X017704Y019220D03*
X019204Y018720D03*
X017204Y016220D03*
X012204Y016720D03*
X009704Y018220D03*
X007704Y017220D03*
X006204Y021220D03*
X006204Y024220D03*
X007704Y029720D03*
X006704Y030220D03*
X005704Y030220D03*
X007704Y030720D03*
X018704Y024220D03*
X022704Y022220D03*
X026704Y018220D03*
X024704Y017220D03*
X029204Y016720D03*
X033204Y017220D03*
X035204Y018220D03*
X037704Y016720D03*
X036704Y021720D03*
X031704Y021720D03*
X034204Y025720D03*
X029704Y029220D03*
X029204Y030220D03*
M02*
