G75*
%MOIN*%
%OFA0B0*%
%FSLAX24Y24*%
%IPPOS*%
%LPD*%
%AMOC8*
5,1,8,0,0,1.08239X$1,22.5*
%
%ADD10R,0.0709X0.0630*%
%ADD11R,0.0472X0.0551*%
%ADD12R,0.0630X0.0512*%
%ADD13R,0.0512X0.0591*%
%ADD14R,0.0472X0.0472*%
%ADD15R,0.0591X0.0512*%
%ADD16R,0.0630X0.0709*%
D10*
X009600Y001649D03*
X009600Y002751D03*
X011100Y002751D03*
X011100Y001649D03*
X009600Y006149D03*
X009600Y007251D03*
X022100Y002751D03*
X022100Y001649D03*
D11*
X007009Y001200D03*
X008191Y001200D03*
X008191Y002200D03*
X007009Y002200D03*
X007009Y003200D03*
X008191Y003200D03*
D12*
X020600Y002574D03*
X020600Y001826D03*
D13*
X033476Y001450D03*
X034224Y001450D03*
X034224Y002450D03*
X033476Y002450D03*
D14*
X034850Y007287D03*
X035850Y007287D03*
X036850Y007287D03*
X036850Y008113D03*
X035850Y008113D03*
X034850Y008113D03*
D15*
X034850Y006074D03*
X034850Y005326D03*
X035850Y005326D03*
X035850Y006074D03*
X036850Y006074D03*
X036850Y005326D03*
D16*
X037151Y013200D03*
X037151Y014200D03*
X037151Y015200D03*
X036049Y015200D03*
X036049Y014200D03*
X036049Y013200D03*
X028151Y013200D03*
X027049Y013200D03*
X027049Y014700D03*
X028151Y014700D03*
M02*
