G75*
%MOIN*%
%OFA0B0*%
%FSLAX24Y24*%
%IPPOS*%
%LPD*%
%AMOC8*
5,1,8,0,0,1.08239X$1,22.5*
%
%ADD10C,0.0000*%
%ADD11C,0.0310*%
%ADD12R,0.0709X0.0630*%
%ADD13R,0.0472X0.0551*%
%ADD14R,0.0630X0.0512*%
%ADD15C,0.0476*%
%ADD16R,0.0512X0.0591*%
%ADD17R,0.0472X0.0472*%
%ADD18R,0.0591X0.0512*%
%ADD19C,0.0600*%
%ADD20R,0.0630X0.0709*%
%ADD21C,0.0740*%
%ADD22C,0.0240*%
%ADD23C,0.0160*%
%ADD24C,0.0240*%
%ADD25C,0.0180*%
%ADD26C,0.0120*%
D10*
X003100Y000100D02*
X003100Y018396D01*
X040670Y018396D01*
X040670Y000100D01*
X003100Y000100D01*
X004923Y005834D02*
X004925Y005860D01*
X004931Y005886D01*
X004941Y005911D01*
X004954Y005934D01*
X004970Y005954D01*
X004990Y005972D01*
X005012Y005987D01*
X005035Y005999D01*
X005061Y006007D01*
X005087Y006011D01*
X005113Y006011D01*
X005139Y006007D01*
X005165Y005999D01*
X005189Y005987D01*
X005210Y005972D01*
X005230Y005954D01*
X005246Y005934D01*
X005259Y005911D01*
X005269Y005886D01*
X005275Y005860D01*
X005277Y005834D01*
X005275Y005808D01*
X005269Y005782D01*
X005259Y005757D01*
X005246Y005734D01*
X005230Y005714D01*
X005210Y005696D01*
X005188Y005681D01*
X005165Y005669D01*
X005139Y005661D01*
X005113Y005657D01*
X005087Y005657D01*
X005061Y005661D01*
X005035Y005669D01*
X005011Y005681D01*
X004990Y005696D01*
X004970Y005714D01*
X004954Y005734D01*
X004941Y005757D01*
X004931Y005782D01*
X004925Y005808D01*
X004923Y005834D01*
X004923Y007566D02*
X004925Y007592D01*
X004931Y007618D01*
X004941Y007643D01*
X004954Y007666D01*
X004970Y007686D01*
X004990Y007704D01*
X005012Y007719D01*
X005035Y007731D01*
X005061Y007739D01*
X005087Y007743D01*
X005113Y007743D01*
X005139Y007739D01*
X005165Y007731D01*
X005189Y007719D01*
X005210Y007704D01*
X005230Y007686D01*
X005246Y007666D01*
X005259Y007643D01*
X005269Y007618D01*
X005275Y007592D01*
X005277Y007566D01*
X005275Y007540D01*
X005269Y007514D01*
X005259Y007489D01*
X005246Y007466D01*
X005230Y007446D01*
X005210Y007428D01*
X005188Y007413D01*
X005165Y007401D01*
X005139Y007393D01*
X005113Y007389D01*
X005087Y007389D01*
X005061Y007393D01*
X005035Y007401D01*
X005011Y007413D01*
X004990Y007428D01*
X004970Y007446D01*
X004954Y007466D01*
X004941Y007489D01*
X004931Y007514D01*
X004925Y007540D01*
X004923Y007566D01*
X012982Y009700D02*
X012984Y009721D01*
X012990Y009741D01*
X012999Y009761D01*
X013011Y009778D01*
X013026Y009792D01*
X013044Y009804D01*
X013064Y009812D01*
X013084Y009817D01*
X013105Y009818D01*
X013126Y009815D01*
X013146Y009809D01*
X013165Y009798D01*
X013182Y009785D01*
X013195Y009769D01*
X013206Y009751D01*
X013214Y009731D01*
X013218Y009711D01*
X013218Y009689D01*
X013214Y009669D01*
X013206Y009649D01*
X013195Y009631D01*
X013182Y009615D01*
X013165Y009602D01*
X013146Y009591D01*
X013126Y009585D01*
X013105Y009582D01*
X013084Y009583D01*
X013064Y009588D01*
X013044Y009596D01*
X013026Y009608D01*
X013011Y009622D01*
X012999Y009639D01*
X012990Y009659D01*
X012984Y009679D01*
X012982Y009700D01*
X013883Y003200D02*
X013885Y003243D01*
X013891Y003286D01*
X013901Y003328D01*
X013915Y003369D01*
X013932Y003408D01*
X013953Y003446D01*
X013977Y003481D01*
X014005Y003515D01*
X014035Y003545D01*
X014069Y003573D01*
X014104Y003597D01*
X014142Y003618D01*
X014181Y003635D01*
X014222Y003649D01*
X014264Y003659D01*
X014307Y003665D01*
X014350Y003667D01*
X014393Y003665D01*
X014436Y003659D01*
X014478Y003649D01*
X014519Y003635D01*
X014558Y003618D01*
X014596Y003597D01*
X014631Y003573D01*
X014665Y003545D01*
X014695Y003515D01*
X014723Y003481D01*
X014747Y003446D01*
X014768Y003408D01*
X014785Y003369D01*
X014799Y003328D01*
X014809Y003286D01*
X014815Y003243D01*
X014817Y003200D01*
X014815Y003157D01*
X014809Y003114D01*
X014799Y003072D01*
X014785Y003031D01*
X014768Y002992D01*
X014747Y002954D01*
X014723Y002919D01*
X014695Y002885D01*
X014665Y002855D01*
X014631Y002827D01*
X014596Y002803D01*
X014558Y002782D01*
X014519Y002765D01*
X014478Y002751D01*
X014436Y002741D01*
X014393Y002735D01*
X014350Y002733D01*
X014307Y002735D01*
X014264Y002741D01*
X014222Y002751D01*
X014181Y002765D01*
X014142Y002782D01*
X014104Y002803D01*
X014069Y002827D01*
X014035Y002855D01*
X014005Y002885D01*
X013977Y002919D01*
X013953Y002954D01*
X013932Y002992D01*
X013915Y003031D01*
X013901Y003072D01*
X013891Y003114D01*
X013885Y003157D01*
X013883Y003200D01*
X013425Y002600D02*
X013427Y002626D01*
X013433Y002652D01*
X013442Y002676D01*
X013455Y002699D01*
X013472Y002719D01*
X013491Y002737D01*
X013513Y002752D01*
X013536Y002763D01*
X013561Y002771D01*
X013587Y002775D01*
X013613Y002775D01*
X013639Y002771D01*
X013664Y002763D01*
X013688Y002752D01*
X013709Y002737D01*
X013728Y002719D01*
X013745Y002699D01*
X013758Y002676D01*
X013767Y002652D01*
X013773Y002626D01*
X013775Y002600D01*
X013773Y002574D01*
X013767Y002548D01*
X013758Y002524D01*
X013745Y002501D01*
X013728Y002481D01*
X013709Y002463D01*
X013687Y002448D01*
X013664Y002437D01*
X013639Y002429D01*
X013613Y002425D01*
X013587Y002425D01*
X013561Y002429D01*
X013536Y002437D01*
X013512Y002448D01*
X013491Y002463D01*
X013472Y002481D01*
X013455Y002501D01*
X013442Y002524D01*
X013433Y002548D01*
X013427Y002574D01*
X013425Y002600D01*
X013425Y001800D02*
X013427Y001826D01*
X013433Y001852D01*
X013442Y001876D01*
X013455Y001899D01*
X013472Y001919D01*
X013491Y001937D01*
X013513Y001952D01*
X013536Y001963D01*
X013561Y001971D01*
X013587Y001975D01*
X013613Y001975D01*
X013639Y001971D01*
X013664Y001963D01*
X013688Y001952D01*
X013709Y001937D01*
X013728Y001919D01*
X013745Y001899D01*
X013758Y001876D01*
X013767Y001852D01*
X013773Y001826D01*
X013775Y001800D01*
X013773Y001774D01*
X013767Y001748D01*
X013758Y001724D01*
X013745Y001701D01*
X013728Y001681D01*
X013709Y001663D01*
X013687Y001648D01*
X013664Y001637D01*
X013639Y001629D01*
X013613Y001625D01*
X013587Y001625D01*
X013561Y001629D01*
X013536Y001637D01*
X013512Y001648D01*
X013491Y001663D01*
X013472Y001681D01*
X013455Y001701D01*
X013442Y001724D01*
X013433Y001748D01*
X013427Y001774D01*
X013425Y001800D01*
X013883Y001200D02*
X013885Y001243D01*
X013891Y001286D01*
X013901Y001328D01*
X013915Y001369D01*
X013932Y001408D01*
X013953Y001446D01*
X013977Y001481D01*
X014005Y001515D01*
X014035Y001545D01*
X014069Y001573D01*
X014104Y001597D01*
X014142Y001618D01*
X014181Y001635D01*
X014222Y001649D01*
X014264Y001659D01*
X014307Y001665D01*
X014350Y001667D01*
X014393Y001665D01*
X014436Y001659D01*
X014478Y001649D01*
X014519Y001635D01*
X014558Y001618D01*
X014596Y001597D01*
X014631Y001573D01*
X014665Y001545D01*
X014695Y001515D01*
X014723Y001481D01*
X014747Y001446D01*
X014768Y001408D01*
X014785Y001369D01*
X014799Y001328D01*
X014809Y001286D01*
X014815Y001243D01*
X014817Y001200D01*
X014815Y001157D01*
X014809Y001114D01*
X014799Y001072D01*
X014785Y001031D01*
X014768Y000992D01*
X014747Y000954D01*
X014723Y000919D01*
X014695Y000885D01*
X014665Y000855D01*
X014631Y000827D01*
X014596Y000803D01*
X014558Y000782D01*
X014519Y000765D01*
X014478Y000751D01*
X014436Y000741D01*
X014393Y000735D01*
X014350Y000733D01*
X014307Y000735D01*
X014264Y000741D01*
X014222Y000751D01*
X014181Y000765D01*
X014142Y000782D01*
X014104Y000803D01*
X014069Y000827D01*
X014035Y000855D01*
X014005Y000885D01*
X013977Y000919D01*
X013953Y000954D01*
X013932Y000992D01*
X013915Y001031D01*
X013901Y001072D01*
X013891Y001114D01*
X013885Y001157D01*
X013883Y001200D01*
X015133Y001200D02*
X015135Y001243D01*
X015141Y001286D01*
X015151Y001328D01*
X015165Y001369D01*
X015182Y001408D01*
X015203Y001446D01*
X015227Y001481D01*
X015255Y001515D01*
X015285Y001545D01*
X015319Y001573D01*
X015354Y001597D01*
X015392Y001618D01*
X015431Y001635D01*
X015472Y001649D01*
X015514Y001659D01*
X015557Y001665D01*
X015600Y001667D01*
X015643Y001665D01*
X015686Y001659D01*
X015728Y001649D01*
X015769Y001635D01*
X015808Y001618D01*
X015846Y001597D01*
X015881Y001573D01*
X015915Y001545D01*
X015945Y001515D01*
X015973Y001481D01*
X015997Y001446D01*
X016018Y001408D01*
X016035Y001369D01*
X016049Y001328D01*
X016059Y001286D01*
X016065Y001243D01*
X016067Y001200D01*
X016065Y001157D01*
X016059Y001114D01*
X016049Y001072D01*
X016035Y001031D01*
X016018Y000992D01*
X015997Y000954D01*
X015973Y000919D01*
X015945Y000885D01*
X015915Y000855D01*
X015881Y000827D01*
X015846Y000803D01*
X015808Y000782D01*
X015769Y000765D01*
X015728Y000751D01*
X015686Y000741D01*
X015643Y000735D01*
X015600Y000733D01*
X015557Y000735D01*
X015514Y000741D01*
X015472Y000751D01*
X015431Y000765D01*
X015392Y000782D01*
X015354Y000803D01*
X015319Y000827D01*
X015285Y000855D01*
X015255Y000885D01*
X015227Y000919D01*
X015203Y000954D01*
X015182Y000992D01*
X015165Y001031D01*
X015151Y001072D01*
X015141Y001114D01*
X015135Y001157D01*
X015133Y001200D01*
X015425Y002200D02*
X015427Y002226D01*
X015433Y002252D01*
X015442Y002276D01*
X015455Y002299D01*
X015472Y002319D01*
X015491Y002337D01*
X015513Y002352D01*
X015536Y002363D01*
X015561Y002371D01*
X015587Y002375D01*
X015613Y002375D01*
X015639Y002371D01*
X015664Y002363D01*
X015688Y002352D01*
X015709Y002337D01*
X015728Y002319D01*
X015745Y002299D01*
X015758Y002276D01*
X015767Y002252D01*
X015773Y002226D01*
X015775Y002200D01*
X015773Y002174D01*
X015767Y002148D01*
X015758Y002124D01*
X015745Y002101D01*
X015728Y002081D01*
X015709Y002063D01*
X015687Y002048D01*
X015664Y002037D01*
X015639Y002029D01*
X015613Y002025D01*
X015587Y002025D01*
X015561Y002029D01*
X015536Y002037D01*
X015512Y002048D01*
X015491Y002063D01*
X015472Y002081D01*
X015455Y002101D01*
X015442Y002124D01*
X015433Y002148D01*
X015427Y002174D01*
X015425Y002200D01*
X015133Y003200D02*
X015135Y003243D01*
X015141Y003286D01*
X015151Y003328D01*
X015165Y003369D01*
X015182Y003408D01*
X015203Y003446D01*
X015227Y003481D01*
X015255Y003515D01*
X015285Y003545D01*
X015319Y003573D01*
X015354Y003597D01*
X015392Y003618D01*
X015431Y003635D01*
X015472Y003649D01*
X015514Y003659D01*
X015557Y003665D01*
X015600Y003667D01*
X015643Y003665D01*
X015686Y003659D01*
X015728Y003649D01*
X015769Y003635D01*
X015808Y003618D01*
X015846Y003597D01*
X015881Y003573D01*
X015915Y003545D01*
X015945Y003515D01*
X015973Y003481D01*
X015997Y003446D01*
X016018Y003408D01*
X016035Y003369D01*
X016049Y003328D01*
X016059Y003286D01*
X016065Y003243D01*
X016067Y003200D01*
X016065Y003157D01*
X016059Y003114D01*
X016049Y003072D01*
X016035Y003031D01*
X016018Y002992D01*
X015997Y002954D01*
X015973Y002919D01*
X015945Y002885D01*
X015915Y002855D01*
X015881Y002827D01*
X015846Y002803D01*
X015808Y002782D01*
X015769Y002765D01*
X015728Y002751D01*
X015686Y002741D01*
X015643Y002735D01*
X015600Y002733D01*
X015557Y002735D01*
X015514Y002741D01*
X015472Y002751D01*
X015431Y002765D01*
X015392Y002782D01*
X015354Y002803D01*
X015319Y002827D01*
X015285Y002855D01*
X015255Y002885D01*
X015227Y002919D01*
X015203Y002954D01*
X015182Y002992D01*
X015165Y003031D01*
X015151Y003072D01*
X015141Y003114D01*
X015135Y003157D01*
X015133Y003200D01*
D11*
X015100Y002450D03*
X014600Y002450D03*
X014100Y002450D03*
X014100Y001950D03*
X014600Y001950D03*
X015100Y001950D03*
D12*
X011100Y001649D03*
X011100Y002751D03*
X009600Y002751D03*
X009600Y001649D03*
X009600Y006149D03*
X009600Y007251D03*
X022100Y002751D03*
X022100Y001649D03*
D13*
X008191Y001200D03*
X007009Y001200D03*
X007009Y002200D03*
X008191Y002200D03*
X008191Y003200D03*
X007009Y003200D03*
D14*
X020600Y002574D03*
X020600Y001826D03*
D15*
X033100Y003462D02*
X033100Y003938D01*
X033600Y003938D02*
X033600Y003462D01*
X034100Y003462D02*
X034100Y003938D01*
X034600Y003938D02*
X034600Y003462D01*
X035100Y003462D02*
X035100Y003938D01*
X035600Y003938D02*
X035600Y003462D01*
X036100Y003462D02*
X036100Y003938D01*
X036600Y003938D02*
X036600Y003462D01*
X037100Y003462D02*
X037100Y003938D01*
X037600Y003938D02*
X037600Y003462D01*
X038100Y003462D02*
X038100Y003938D01*
X038600Y003938D02*
X038600Y003462D01*
X039100Y003462D02*
X039100Y003938D01*
X039600Y003938D02*
X039600Y003462D01*
X039600Y009462D02*
X039600Y009938D01*
X039100Y009938D02*
X039100Y009462D01*
X038600Y009462D02*
X038600Y009938D01*
X038100Y009938D02*
X038100Y009462D01*
X037600Y009462D02*
X037600Y009938D01*
X037100Y009938D02*
X037100Y009462D01*
X036600Y009462D02*
X036600Y009938D01*
X036100Y009938D02*
X036100Y009462D01*
X035600Y009462D02*
X035600Y009938D01*
X035100Y009938D02*
X035100Y009462D01*
X034600Y009462D02*
X034600Y009938D01*
X034100Y009938D02*
X034100Y009462D01*
X033600Y009462D02*
X033600Y009938D01*
X033100Y009938D02*
X033100Y009462D01*
D16*
X033476Y002450D03*
X034224Y002450D03*
X034224Y001450D03*
X033476Y001450D03*
D17*
X034850Y007287D03*
X035850Y007287D03*
X036850Y007287D03*
X036850Y008113D03*
X035850Y008113D03*
X034850Y008113D03*
D18*
X034850Y006074D03*
X034850Y005326D03*
X035850Y005326D03*
X035850Y006074D03*
X036850Y006074D03*
X036850Y005326D03*
D19*
X027650Y003000D02*
X027650Y002400D01*
X026550Y002400D02*
X026550Y003000D01*
X039080Y013040D02*
X039680Y013040D01*
X039780Y014040D02*
X039180Y014040D01*
X039080Y015040D02*
X039680Y015040D01*
X039780Y016040D02*
X039180Y016040D01*
X037150Y016400D02*
X037150Y017000D01*
X036050Y017000D02*
X036050Y016400D01*
X032650Y016400D02*
X032650Y017000D01*
X031550Y017000D02*
X031550Y016400D01*
X028150Y016400D02*
X028150Y017000D01*
X027050Y017000D02*
X027050Y016400D01*
X023650Y016400D02*
X023650Y017000D01*
X022550Y017000D02*
X022550Y016400D01*
X004900Y002750D02*
X004300Y002750D01*
X004300Y001650D02*
X004900Y001650D01*
D20*
X027049Y013200D03*
X028151Y013200D03*
X028151Y014700D03*
X027049Y014700D03*
X036049Y014200D03*
X036049Y015200D03*
X037151Y015200D03*
X037151Y014200D03*
X037151Y013200D03*
X036049Y013200D03*
D21*
X019600Y016330D02*
X019600Y017070D01*
X018600Y017070D02*
X018600Y016330D01*
X017600Y016330D02*
X017600Y017070D01*
X015100Y017070D02*
X015100Y016330D01*
X014100Y016330D02*
X014100Y017070D01*
X013100Y017070D02*
X013100Y016330D01*
X010600Y016330D02*
X010600Y017070D01*
X009600Y017070D02*
X009600Y016330D01*
X008600Y016330D02*
X008600Y017070D01*
X006100Y017070D02*
X006100Y016330D01*
X005100Y016330D02*
X005100Y017070D01*
X004100Y017070D02*
X004100Y016330D01*
D22*
X004140Y016640D02*
X004100Y016700D01*
X004140Y016640D02*
X004140Y015760D01*
X007660Y015760D01*
X008600Y016700D01*
X009820Y017680D02*
X007100Y017680D01*
X006140Y016720D01*
X006100Y016700D01*
X009820Y017680D02*
X010540Y016960D01*
X010540Y016720D01*
X010600Y016700D01*
X010700Y016640D01*
X011580Y015760D01*
X015100Y015760D01*
X015100Y016700D01*
X017600Y016700D02*
X017660Y016640D01*
X017660Y015760D01*
X018300Y015760D01*
X019580Y014480D01*
X025420Y014480D01*
X025500Y014400D01*
X025820Y014080D01*
X027100Y014080D01*
X033340Y014080D01*
X033340Y015120D01*
X033340Y014080D02*
X034620Y014080D01*
X035500Y014960D01*
X035980Y014960D01*
X036049Y015200D01*
X036060Y015200D01*
X036060Y014240D01*
X036049Y014200D01*
X036140Y014160D01*
X036620Y013680D01*
X038140Y013040D02*
X039380Y013040D01*
X038140Y013040D02*
X038140Y016640D01*
X037180Y016640D01*
X037150Y016700D01*
X037100Y016800D01*
X036380Y017520D01*
X033420Y017520D01*
X032700Y016800D01*
X032650Y016700D01*
X032620Y016640D01*
X031900Y015920D01*
X028940Y015920D01*
X028220Y016640D01*
X028150Y016700D01*
X028060Y016720D01*
X027260Y017520D01*
X023420Y017520D01*
X022620Y016720D01*
X022550Y016700D01*
X019900Y014080D02*
X021020Y012960D01*
X021100Y012880D01*
X026300Y012880D01*
X026300Y009440D01*
X026540Y009200D01*
X030220Y009200D01*
X030220Y004400D01*
X035100Y004400D01*
X035100Y003700D01*
X036600Y003700D02*
X036620Y003760D01*
X036620Y005280D01*
X036850Y005326D01*
X036780Y005360D01*
X035900Y005360D01*
X035850Y005326D01*
X035820Y005360D01*
X034860Y005360D01*
X034850Y005326D01*
X030220Y004400D02*
X029420Y004400D01*
X029420Y004480D01*
X029420Y004400D02*
X027260Y004400D01*
X026060Y003200D01*
X024300Y003200D01*
X022540Y003200D01*
X022140Y002800D01*
X022100Y002751D01*
X022220Y003040D01*
X020860Y003040D01*
X016060Y006720D02*
X010220Y006720D01*
X009660Y006160D01*
X009600Y006149D01*
X009500Y006080D01*
X008860Y005440D01*
X006940Y005440D01*
X004620Y003120D01*
X004620Y002800D01*
X004600Y002750D01*
X004600Y001650D02*
X004620Y001600D01*
X006540Y001600D01*
X006940Y001200D01*
X007009Y001200D01*
X009600Y002751D02*
X009660Y002800D01*
X011020Y002800D01*
X011100Y002751D01*
X011100Y002800D01*
X011260Y002960D01*
X012540Y002960D01*
X012540Y003840D01*
X013420Y002960D02*
X013630Y003170D01*
X013420Y002960D02*
X012540Y002960D01*
X016060Y006720D02*
X017180Y007840D01*
X018060Y011680D02*
X018380Y012000D01*
X019020Y012000D01*
X026700Y012480D02*
X026700Y009600D01*
X026700Y012480D02*
X026940Y012480D01*
X027020Y012560D01*
X027020Y013120D01*
X027049Y013200D01*
X027100Y013200D01*
X027100Y014080D01*
D23*
X014975Y003700D02*
X014975Y002825D01*
X014600Y002450D01*
X014100Y002450D02*
X014100Y002700D01*
X013630Y003170D01*
X013600Y003200D01*
X015100Y002450D02*
X015350Y002700D01*
X016100Y002700D01*
X016100Y001700D02*
X015350Y001700D01*
X015100Y001950D01*
X014975Y001575D02*
X014975Y000825D01*
X014975Y001575D02*
X014600Y001950D01*
X014100Y001950D02*
X014100Y001700D01*
X013630Y001230D01*
X013600Y001200D01*
D24*
X012940Y001920D03*
X012060Y002400D03*
X012540Y003840D03*
X015100Y003840D03*
X015740Y004480D03*
X016380Y005120D03*
X017980Y006080D03*
X017820Y006720D03*
X017180Y007840D03*
X015180Y008960D03*
X012220Y009600D03*
X011260Y008480D03*
X010540Y008480D03*
X007820Y007040D03*
X007420Y005120D03*
X011740Y006400D03*
X018620Y002960D03*
X020060Y001920D03*
X021100Y002720D03*
X020860Y003040D03*
X021580Y004080D03*
X023740Y002880D03*
X024300Y003200D03*
X023180Y002160D03*
X025980Y004480D03*
X026860Y005760D03*
X024220Y006800D03*
X024220Y007200D03*
X024220Y007760D03*
X024380Y009040D03*
X024860Y009600D03*
X025420Y009440D03*
X026700Y009600D03*
X023500Y010320D03*
X022860Y010320D03*
X021980Y010320D03*
X020140Y010320D03*
X019580Y010320D03*
X018860Y010320D03*
X017500Y011360D03*
X018060Y011680D03*
X019020Y012000D03*
X017020Y012000D03*
X019900Y014080D03*
X021020Y012960D03*
X025500Y014400D03*
X026540Y015040D03*
X027580Y013440D03*
X027020Y012560D03*
X030380Y010400D03*
X035500Y013760D03*
X036620Y013680D03*
X035500Y014960D03*
X033340Y015120D03*
X021740Y008080D03*
X021500Y007840D03*
X021180Y008080D03*
X020780Y008080D03*
X020540Y007600D03*
X020220Y007840D03*
X020780Y006880D03*
X021980Y006880D03*
X029420Y004480D03*
X029820Y004800D03*
X009980Y012000D03*
X007500Y012000D03*
D25*
X007900Y012320D02*
X004780Y015440D01*
X004060Y015440D01*
X003580Y015920D01*
X003580Y017600D01*
X004380Y017600D01*
X005100Y016880D01*
X005100Y016700D01*
X007900Y012320D02*
X025740Y012320D01*
X025740Y008720D01*
X024220Y007200D01*
X024220Y006800D02*
X025980Y008560D01*
X025980Y012560D01*
X020380Y012560D01*
X015340Y017600D01*
X014860Y017600D01*
X014140Y016880D01*
X014140Y016720D01*
X014100Y016700D01*
X017500Y011360D02*
X023500Y011360D01*
X025420Y009440D01*
X024860Y009600D02*
X020300Y009600D01*
X019580Y010320D01*
X019820Y010640D02*
X013260Y010640D01*
X012220Y009600D01*
X012060Y009280D02*
X011260Y008480D01*
X010540Y008480D02*
X012940Y010880D01*
X021420Y010880D01*
X021980Y010320D01*
X020700Y009120D02*
X015420Y009120D01*
X015260Y009280D01*
X012060Y009280D01*
X010540Y008160D02*
X009660Y007280D01*
X009600Y007251D01*
X009580Y007200D01*
X007980Y007200D01*
X007820Y007040D01*
X007420Y005120D02*
X007020Y005120D01*
X007020Y003200D01*
X007009Y003200D01*
X007009Y002200D02*
X007020Y002160D01*
X007740Y001440D01*
X007740Y000720D01*
X011100Y000720D01*
X011660Y001280D01*
X011660Y002240D01*
X009180Y002240D01*
X009020Y002400D01*
X009020Y004160D01*
X015580Y004160D01*
X016300Y003440D01*
X016300Y002720D01*
X016140Y002720D01*
X016100Y002700D01*
X016140Y001760D02*
X016100Y001700D01*
X016140Y001760D02*
X017900Y003520D01*
X025020Y003520D01*
X025980Y004480D01*
X024860Y003760D02*
X026860Y005760D01*
X028540Y006080D02*
X023580Y006080D01*
X021580Y004080D01*
X020300Y003760D02*
X024860Y003760D01*
X023180Y002160D02*
X023420Y001920D01*
X023420Y001840D01*
X032860Y001840D01*
X033420Y002400D01*
X033476Y002450D01*
X034224Y002450D02*
X034300Y002480D01*
X034780Y002960D01*
X035260Y002960D01*
X035580Y003280D01*
X035580Y003680D01*
X035600Y003700D01*
X036060Y003680D02*
X036060Y003280D01*
X034300Y001520D01*
X034224Y001450D01*
X033476Y001450D02*
X033420Y001440D01*
X033100Y001120D01*
X020460Y001120D01*
X018620Y002960D01*
X020060Y001920D02*
X020460Y001920D01*
X020540Y001840D01*
X020600Y001826D01*
X020620Y001760D01*
X020700Y001680D01*
X022060Y001680D01*
X022100Y001649D01*
X020300Y003760D02*
X017980Y006080D01*
X017820Y006720D02*
X019660Y006720D01*
X020540Y007600D01*
X020780Y008080D02*
X020700Y008160D01*
X010540Y008160D01*
X011740Y006400D02*
X021500Y006400D01*
X021980Y006880D01*
X021420Y007520D02*
X022860Y007520D01*
X024380Y009040D01*
X024700Y008960D02*
X024220Y008480D01*
X024220Y007760D01*
X024700Y008960D02*
X024700Y009360D01*
X019820Y009360D01*
X018860Y010320D01*
X019820Y010640D02*
X020140Y010320D01*
X020700Y009120D02*
X021740Y008080D01*
X021420Y007520D02*
X020780Y006880D01*
X021180Y008080D02*
X020860Y008400D01*
X015740Y008400D01*
X015180Y008960D01*
X016380Y005120D02*
X015740Y004480D01*
X015100Y003840D02*
X015020Y003760D01*
X014975Y003700D01*
X012940Y001920D02*
X013630Y001230D01*
X013980Y000480D02*
X014620Y000480D01*
X014940Y000800D01*
X014975Y000825D01*
X013980Y000480D02*
X012060Y002400D01*
X027580Y013440D02*
X027900Y013440D01*
X028140Y013200D01*
X028151Y013200D01*
X028151Y014700D02*
X028140Y014720D01*
X028140Y015920D01*
X027820Y015920D01*
X027100Y016640D01*
X027050Y016700D01*
X026700Y015040D02*
X026540Y015040D01*
X026700Y015040D02*
X027020Y014720D01*
X027049Y014700D01*
X030380Y010400D02*
X032460Y010400D01*
X033100Y009760D01*
X033100Y009700D01*
X034860Y008960D02*
X034860Y008160D01*
X034850Y008113D01*
X034860Y008960D02*
X035260Y008960D01*
X035580Y009280D01*
X035580Y009680D01*
X035600Y009700D01*
X036060Y009680D02*
X036060Y009280D01*
X035900Y009120D01*
X035900Y008160D01*
X035850Y008113D01*
X036780Y008160D02*
X036780Y009120D01*
X036620Y009280D01*
X036620Y009680D01*
X036600Y009700D01*
X036100Y009700D02*
X036060Y009680D01*
X036780Y008160D02*
X036850Y008113D01*
X036850Y007287D02*
X036860Y007280D01*
X036860Y006080D01*
X036850Y006074D01*
X035900Y006080D02*
X035850Y006074D01*
X035900Y006080D02*
X035900Y007280D01*
X035850Y007287D01*
X034860Y007280D02*
X034850Y007287D01*
X034860Y007280D02*
X034860Y006080D01*
X034850Y006074D01*
X036060Y003680D02*
X036100Y003700D01*
X029820Y004800D02*
X028540Y006080D01*
X036049Y013200D02*
X036060Y013200D01*
X035500Y013760D01*
X037151Y014200D02*
X037180Y014160D01*
X037180Y013200D01*
X037151Y013200D01*
X037151Y014200D02*
X037180Y014240D01*
X037180Y015200D01*
X037151Y015200D01*
X037180Y015280D01*
X036060Y016400D01*
X036060Y016640D01*
X036050Y016700D01*
D26*
X023500Y010320D02*
X022860Y010320D01*
X021500Y007840D02*
X020220Y007840D01*
X017020Y012000D02*
X009980Y012000D01*
X007500Y012000D01*
X003820Y012000D01*
X003820Y002560D01*
X004140Y002240D01*
X005100Y002240D01*
X005500Y002640D01*
X008220Y002640D01*
X008220Y003200D01*
X008191Y003200D01*
X008220Y002640D02*
X008220Y002240D01*
X008191Y002200D01*
X008220Y002160D01*
X008220Y001680D01*
X009580Y001680D01*
X009600Y001649D01*
X009660Y001680D01*
X011100Y001680D01*
X011100Y001649D01*
X008220Y001680D02*
X008220Y001200D01*
X008191Y001200D01*
X020600Y002574D02*
X020620Y002640D01*
X021020Y002640D01*
X021100Y002720D01*
X021100Y002640D01*
X021500Y002240D01*
X022860Y002240D01*
X023500Y002880D01*
X023740Y002880D01*
M02*
