%
M48
M72
T01C0.0120
T02C0.0236
T03C0.0276
T04C0.0350
T05C0.0354
T06C0.0400
T07C0.0440
T08C0.0935
%
T01
X7420Y5120
X7820Y7040
X10540Y8480
X11260Y8480
X12220Y9600
X15180Y8960
X17180Y7840
X17820Y6720
X17980Y6080
X16380Y5120
X15740Y4480
X15100Y3840
X12540Y3840
X12060Y2400
X12940Y1920
X18620Y2960
X20060Y1920
X21100Y2720
X20860Y3040
X21580Y4080
X23740Y2880
X24300Y3200
X23180Y2160
X25980Y4480
X26860Y5760
X24220Y6800
X24220Y7200
X24220Y7760
X24380Y9040
X24860Y9600
X25420Y9440
X26700Y9600
X23500Y10320
X22860Y10320
X21980Y10320
X20140Y10320
X19580Y10320
X18860Y10320
X17500Y11360
X18060Y11680
X19020Y12000
X17020Y12000
X19900Y14080
X21020Y12960
X25500Y14400
X26540Y15040
X27580Y13440
X27020Y12560
X30380Y10400
X35500Y13760
X36620Y13680
X35500Y14960
X33340Y15120
X21740Y8080
X21500Y7840
X21180Y8080
X20780Y8080
X20540Y7600
X20220Y7840
X20780Y6880
X21980Y6880
X29420Y4480
X29820Y4800
X11740Y6400
X9980Y12000
X7500Y12000
T02
X13100Y9700
T03
X33100Y9700
X33600Y9700
X34100Y9700
X34600Y9700
X35100Y9700
X35600Y9700
X36100Y9700
X36600Y9700
X37100Y9700
X37600Y9700
X38100Y9700
X38600Y9700
X39100Y9700
X39600Y9700
X39600Y3700
X39100Y3700
X38600Y3700
X38100Y3700
X37600Y3700
X37100Y3700
X36600Y3700
X36100Y3700
X35600Y3700
X35100Y3700
X34600Y3700
X34100Y3700
X33600Y3700
X33100Y3700
T04
X15600Y2200
X13600Y1800
X13600Y2600
T05
X5100Y5834
X5100Y7566
T06
X4600Y1650
X4600Y2750
X22550Y16700
X23650Y16700
X27050Y16700
X28150Y16700
X31550Y16700
X32650Y16700
X36050Y16700
X37150Y16700
X39480Y16040
X39380Y15040
X39480Y14040
X39380Y13040
X27650Y2700
X26550Y2700
T07
X19600Y16700
X18600Y16700
X17600Y16700
X15100Y16700
X14100Y16700
X13100Y16700
X10600Y16700
X9600Y16700
X8600Y16700
X6100Y16700
X5100Y16700
X4100Y16700
T08
X14350Y3200
X15600Y3200
X15600Y1200
X14350Y1200
M30
