G75*
G70*
%OFA0B0*%
%FSLAX24Y24*%
%IPPOS*%
%LPD*%
%AMOC8*
5,1,8,0,0,1.08239X$1,22.5*
%
%ADD10C,0.0000*%
D10*
X000704Y003195D02*
X000704Y023691D01*
X039574Y023691D01*
X039574Y003195D01*
X000704Y003195D01*
X007074Y004195D02*
X007076Y004245D01*
X007082Y004295D01*
X007092Y004344D01*
X007106Y004392D01*
X007123Y004439D01*
X007144Y004484D01*
X007169Y004528D01*
X007197Y004569D01*
X007229Y004608D01*
X007263Y004645D01*
X007300Y004679D01*
X007340Y004709D01*
X007382Y004736D01*
X007426Y004760D01*
X007472Y004781D01*
X007519Y004797D01*
X007567Y004810D01*
X007617Y004819D01*
X007666Y004824D01*
X007717Y004825D01*
X007767Y004822D01*
X007816Y004815D01*
X007865Y004804D01*
X007913Y004789D01*
X007959Y004771D01*
X008004Y004749D01*
X008047Y004723D01*
X008088Y004694D01*
X008127Y004662D01*
X008163Y004627D01*
X008195Y004589D01*
X008225Y004549D01*
X008252Y004506D01*
X008275Y004462D01*
X008294Y004416D01*
X008310Y004368D01*
X008322Y004319D01*
X008330Y004270D01*
X008334Y004220D01*
X008334Y004170D01*
X008330Y004120D01*
X008322Y004071D01*
X008310Y004022D01*
X008294Y003974D01*
X008275Y003928D01*
X008252Y003884D01*
X008225Y003841D01*
X008195Y003801D01*
X008163Y003763D01*
X008127Y003728D01*
X008088Y003696D01*
X008047Y003667D01*
X008004Y003641D01*
X007959Y003619D01*
X007913Y003601D01*
X007865Y003586D01*
X007816Y003575D01*
X007767Y003568D01*
X007717Y003565D01*
X007666Y003566D01*
X007617Y003571D01*
X007567Y003580D01*
X007519Y003593D01*
X007472Y003609D01*
X007426Y003630D01*
X007382Y003654D01*
X007340Y003681D01*
X007300Y003711D01*
X007263Y003745D01*
X007229Y003782D01*
X007197Y003821D01*
X007169Y003862D01*
X007144Y003906D01*
X007123Y003951D01*
X007106Y003998D01*
X007092Y004046D01*
X007082Y004095D01*
X007076Y004145D01*
X007074Y004195D01*
X010074Y004195D02*
X010076Y004245D01*
X010082Y004295D01*
X010092Y004344D01*
X010106Y004392D01*
X010123Y004439D01*
X010144Y004484D01*
X010169Y004528D01*
X010197Y004569D01*
X010229Y004608D01*
X010263Y004645D01*
X010300Y004679D01*
X010340Y004709D01*
X010382Y004736D01*
X010426Y004760D01*
X010472Y004781D01*
X010519Y004797D01*
X010567Y004810D01*
X010617Y004819D01*
X010666Y004824D01*
X010717Y004825D01*
X010767Y004822D01*
X010816Y004815D01*
X010865Y004804D01*
X010913Y004789D01*
X010959Y004771D01*
X011004Y004749D01*
X011047Y004723D01*
X011088Y004694D01*
X011127Y004662D01*
X011163Y004627D01*
X011195Y004589D01*
X011225Y004549D01*
X011252Y004506D01*
X011275Y004462D01*
X011294Y004416D01*
X011310Y004368D01*
X011322Y004319D01*
X011330Y004270D01*
X011334Y004220D01*
X011334Y004170D01*
X011330Y004120D01*
X011322Y004071D01*
X011310Y004022D01*
X011294Y003974D01*
X011275Y003928D01*
X011252Y003884D01*
X011225Y003841D01*
X011195Y003801D01*
X011163Y003763D01*
X011127Y003728D01*
X011088Y003696D01*
X011047Y003667D01*
X011004Y003641D01*
X010959Y003619D01*
X010913Y003601D01*
X010865Y003586D01*
X010816Y003575D01*
X010767Y003568D01*
X010717Y003565D01*
X010666Y003566D01*
X010617Y003571D01*
X010567Y003580D01*
X010519Y003593D01*
X010472Y003609D01*
X010426Y003630D01*
X010382Y003654D01*
X010340Y003681D01*
X010300Y003711D01*
X010263Y003745D01*
X010229Y003782D01*
X010197Y003821D01*
X010169Y003862D01*
X010144Y003906D01*
X010123Y003951D01*
X010106Y003998D01*
X010092Y004046D01*
X010082Y004095D01*
X010076Y004145D01*
X010074Y004195D01*
X016074Y004195D02*
X016076Y004245D01*
X016082Y004295D01*
X016092Y004344D01*
X016106Y004392D01*
X016123Y004439D01*
X016144Y004484D01*
X016169Y004528D01*
X016197Y004569D01*
X016229Y004608D01*
X016263Y004645D01*
X016300Y004679D01*
X016340Y004709D01*
X016382Y004736D01*
X016426Y004760D01*
X016472Y004781D01*
X016519Y004797D01*
X016567Y004810D01*
X016617Y004819D01*
X016666Y004824D01*
X016717Y004825D01*
X016767Y004822D01*
X016816Y004815D01*
X016865Y004804D01*
X016913Y004789D01*
X016959Y004771D01*
X017004Y004749D01*
X017047Y004723D01*
X017088Y004694D01*
X017127Y004662D01*
X017163Y004627D01*
X017195Y004589D01*
X017225Y004549D01*
X017252Y004506D01*
X017275Y004462D01*
X017294Y004416D01*
X017310Y004368D01*
X017322Y004319D01*
X017330Y004270D01*
X017334Y004220D01*
X017334Y004170D01*
X017330Y004120D01*
X017322Y004071D01*
X017310Y004022D01*
X017294Y003974D01*
X017275Y003928D01*
X017252Y003884D01*
X017225Y003841D01*
X017195Y003801D01*
X017163Y003763D01*
X017127Y003728D01*
X017088Y003696D01*
X017047Y003667D01*
X017004Y003641D01*
X016959Y003619D01*
X016913Y003601D01*
X016865Y003586D01*
X016816Y003575D01*
X016767Y003568D01*
X016717Y003565D01*
X016666Y003566D01*
X016617Y003571D01*
X016567Y003580D01*
X016519Y003593D01*
X016472Y003609D01*
X016426Y003630D01*
X016382Y003654D01*
X016340Y003681D01*
X016300Y003711D01*
X016263Y003745D01*
X016229Y003782D01*
X016197Y003821D01*
X016169Y003862D01*
X016144Y003906D01*
X016123Y003951D01*
X016106Y003998D01*
X016092Y004046D01*
X016082Y004095D01*
X016076Y004145D01*
X016074Y004195D01*
X019074Y004195D02*
X019076Y004245D01*
X019082Y004295D01*
X019092Y004344D01*
X019106Y004392D01*
X019123Y004439D01*
X019144Y004484D01*
X019169Y004528D01*
X019197Y004569D01*
X019229Y004608D01*
X019263Y004645D01*
X019300Y004679D01*
X019340Y004709D01*
X019382Y004736D01*
X019426Y004760D01*
X019472Y004781D01*
X019519Y004797D01*
X019567Y004810D01*
X019617Y004819D01*
X019666Y004824D01*
X019717Y004825D01*
X019767Y004822D01*
X019816Y004815D01*
X019865Y004804D01*
X019913Y004789D01*
X019959Y004771D01*
X020004Y004749D01*
X020047Y004723D01*
X020088Y004694D01*
X020127Y004662D01*
X020163Y004627D01*
X020195Y004589D01*
X020225Y004549D01*
X020252Y004506D01*
X020275Y004462D01*
X020294Y004416D01*
X020310Y004368D01*
X020322Y004319D01*
X020330Y004270D01*
X020334Y004220D01*
X020334Y004170D01*
X020330Y004120D01*
X020322Y004071D01*
X020310Y004022D01*
X020294Y003974D01*
X020275Y003928D01*
X020252Y003884D01*
X020225Y003841D01*
X020195Y003801D01*
X020163Y003763D01*
X020127Y003728D01*
X020088Y003696D01*
X020047Y003667D01*
X020004Y003641D01*
X019959Y003619D01*
X019913Y003601D01*
X019865Y003586D01*
X019816Y003575D01*
X019767Y003568D01*
X019717Y003565D01*
X019666Y003566D01*
X019617Y003571D01*
X019567Y003580D01*
X019519Y003593D01*
X019472Y003609D01*
X019426Y003630D01*
X019382Y003654D01*
X019340Y003681D01*
X019300Y003711D01*
X019263Y003745D01*
X019229Y003782D01*
X019197Y003821D01*
X019169Y003862D01*
X019144Y003906D01*
X019123Y003951D01*
X019106Y003998D01*
X019092Y004046D01*
X019082Y004095D01*
X019076Y004145D01*
X019074Y004195D01*
X025574Y004195D02*
X025576Y004245D01*
X025582Y004295D01*
X025592Y004344D01*
X025606Y004392D01*
X025623Y004439D01*
X025644Y004484D01*
X025669Y004528D01*
X025697Y004569D01*
X025729Y004608D01*
X025763Y004645D01*
X025800Y004679D01*
X025840Y004709D01*
X025882Y004736D01*
X025926Y004760D01*
X025972Y004781D01*
X026019Y004797D01*
X026067Y004810D01*
X026117Y004819D01*
X026166Y004824D01*
X026217Y004825D01*
X026267Y004822D01*
X026316Y004815D01*
X026365Y004804D01*
X026413Y004789D01*
X026459Y004771D01*
X026504Y004749D01*
X026547Y004723D01*
X026588Y004694D01*
X026627Y004662D01*
X026663Y004627D01*
X026695Y004589D01*
X026725Y004549D01*
X026752Y004506D01*
X026775Y004462D01*
X026794Y004416D01*
X026810Y004368D01*
X026822Y004319D01*
X026830Y004270D01*
X026834Y004220D01*
X026834Y004170D01*
X026830Y004120D01*
X026822Y004071D01*
X026810Y004022D01*
X026794Y003974D01*
X026775Y003928D01*
X026752Y003884D01*
X026725Y003841D01*
X026695Y003801D01*
X026663Y003763D01*
X026627Y003728D01*
X026588Y003696D01*
X026547Y003667D01*
X026504Y003641D01*
X026459Y003619D01*
X026413Y003601D01*
X026365Y003586D01*
X026316Y003575D01*
X026267Y003568D01*
X026217Y003565D01*
X026166Y003566D01*
X026117Y003571D01*
X026067Y003580D01*
X026019Y003593D01*
X025972Y003609D01*
X025926Y003630D01*
X025882Y003654D01*
X025840Y003681D01*
X025800Y003711D01*
X025763Y003745D01*
X025729Y003782D01*
X025697Y003821D01*
X025669Y003862D01*
X025644Y003906D01*
X025623Y003951D01*
X025606Y003998D01*
X025592Y004046D01*
X025582Y004095D01*
X025576Y004145D01*
X025574Y004195D01*
X028574Y004195D02*
X028576Y004245D01*
X028582Y004295D01*
X028592Y004344D01*
X028606Y004392D01*
X028623Y004439D01*
X028644Y004484D01*
X028669Y004528D01*
X028697Y004569D01*
X028729Y004608D01*
X028763Y004645D01*
X028800Y004679D01*
X028840Y004709D01*
X028882Y004736D01*
X028926Y004760D01*
X028972Y004781D01*
X029019Y004797D01*
X029067Y004810D01*
X029117Y004819D01*
X029166Y004824D01*
X029217Y004825D01*
X029267Y004822D01*
X029316Y004815D01*
X029365Y004804D01*
X029413Y004789D01*
X029459Y004771D01*
X029504Y004749D01*
X029547Y004723D01*
X029588Y004694D01*
X029627Y004662D01*
X029663Y004627D01*
X029695Y004589D01*
X029725Y004549D01*
X029752Y004506D01*
X029775Y004462D01*
X029794Y004416D01*
X029810Y004368D01*
X029822Y004319D01*
X029830Y004270D01*
X029834Y004220D01*
X029834Y004170D01*
X029830Y004120D01*
X029822Y004071D01*
X029810Y004022D01*
X029794Y003974D01*
X029775Y003928D01*
X029752Y003884D01*
X029725Y003841D01*
X029695Y003801D01*
X029663Y003763D01*
X029627Y003728D01*
X029588Y003696D01*
X029547Y003667D01*
X029504Y003641D01*
X029459Y003619D01*
X029413Y003601D01*
X029365Y003586D01*
X029316Y003575D01*
X029267Y003568D01*
X029217Y003565D01*
X029166Y003566D01*
X029117Y003571D01*
X029067Y003580D01*
X029019Y003593D01*
X028972Y003609D01*
X028926Y003630D01*
X028882Y003654D01*
X028840Y003681D01*
X028800Y003711D01*
X028763Y003745D01*
X028729Y003782D01*
X028697Y003821D01*
X028669Y003862D01*
X028644Y003906D01*
X028623Y003951D01*
X028606Y003998D01*
X028592Y004046D01*
X028582Y004095D01*
X028576Y004145D01*
X028574Y004195D01*
X034574Y004195D02*
X034576Y004245D01*
X034582Y004295D01*
X034592Y004344D01*
X034606Y004392D01*
X034623Y004439D01*
X034644Y004484D01*
X034669Y004528D01*
X034697Y004569D01*
X034729Y004608D01*
X034763Y004645D01*
X034800Y004679D01*
X034840Y004709D01*
X034882Y004736D01*
X034926Y004760D01*
X034972Y004781D01*
X035019Y004797D01*
X035067Y004810D01*
X035117Y004819D01*
X035166Y004824D01*
X035217Y004825D01*
X035267Y004822D01*
X035316Y004815D01*
X035365Y004804D01*
X035413Y004789D01*
X035459Y004771D01*
X035504Y004749D01*
X035547Y004723D01*
X035588Y004694D01*
X035627Y004662D01*
X035663Y004627D01*
X035695Y004589D01*
X035725Y004549D01*
X035752Y004506D01*
X035775Y004462D01*
X035794Y004416D01*
X035810Y004368D01*
X035822Y004319D01*
X035830Y004270D01*
X035834Y004220D01*
X035834Y004170D01*
X035830Y004120D01*
X035822Y004071D01*
X035810Y004022D01*
X035794Y003974D01*
X035775Y003928D01*
X035752Y003884D01*
X035725Y003841D01*
X035695Y003801D01*
X035663Y003763D01*
X035627Y003728D01*
X035588Y003696D01*
X035547Y003667D01*
X035504Y003641D01*
X035459Y003619D01*
X035413Y003601D01*
X035365Y003586D01*
X035316Y003575D01*
X035267Y003568D01*
X035217Y003565D01*
X035166Y003566D01*
X035117Y003571D01*
X035067Y003580D01*
X035019Y003593D01*
X034972Y003609D01*
X034926Y003630D01*
X034882Y003654D01*
X034840Y003681D01*
X034800Y003711D01*
X034763Y003745D01*
X034729Y003782D01*
X034697Y003821D01*
X034669Y003862D01*
X034644Y003906D01*
X034623Y003951D01*
X034606Y003998D01*
X034592Y004046D01*
X034582Y004095D01*
X034576Y004145D01*
X034574Y004195D01*
X037574Y004195D02*
X037576Y004245D01*
X037582Y004295D01*
X037592Y004344D01*
X037606Y004392D01*
X037623Y004439D01*
X037644Y004484D01*
X037669Y004528D01*
X037697Y004569D01*
X037729Y004608D01*
X037763Y004645D01*
X037800Y004679D01*
X037840Y004709D01*
X037882Y004736D01*
X037926Y004760D01*
X037972Y004781D01*
X038019Y004797D01*
X038067Y004810D01*
X038117Y004819D01*
X038166Y004824D01*
X038217Y004825D01*
X038267Y004822D01*
X038316Y004815D01*
X038365Y004804D01*
X038413Y004789D01*
X038459Y004771D01*
X038504Y004749D01*
X038547Y004723D01*
X038588Y004694D01*
X038627Y004662D01*
X038663Y004627D01*
X038695Y004589D01*
X038725Y004549D01*
X038752Y004506D01*
X038775Y004462D01*
X038794Y004416D01*
X038810Y004368D01*
X038822Y004319D01*
X038830Y004270D01*
X038834Y004220D01*
X038834Y004170D01*
X038830Y004120D01*
X038822Y004071D01*
X038810Y004022D01*
X038794Y003974D01*
X038775Y003928D01*
X038752Y003884D01*
X038725Y003841D01*
X038695Y003801D01*
X038663Y003763D01*
X038627Y003728D01*
X038588Y003696D01*
X038547Y003667D01*
X038504Y003641D01*
X038459Y003619D01*
X038413Y003601D01*
X038365Y003586D01*
X038316Y003575D01*
X038267Y003568D01*
X038217Y003565D01*
X038166Y003566D01*
X038117Y003571D01*
X038067Y003580D01*
X038019Y003593D01*
X037972Y003609D01*
X037926Y003630D01*
X037882Y003654D01*
X037840Y003681D01*
X037800Y003711D01*
X037763Y003745D01*
X037729Y003782D01*
X037697Y003821D01*
X037669Y003862D01*
X037644Y003906D01*
X037623Y003951D01*
X037606Y003998D01*
X037592Y004046D01*
X037582Y004095D01*
X037576Y004145D01*
X037574Y004195D01*
X002564Y017195D02*
X002566Y017245D01*
X002572Y017295D01*
X002582Y017344D01*
X002595Y017393D01*
X002613Y017440D01*
X002634Y017486D01*
X002658Y017529D01*
X002686Y017571D01*
X002717Y017611D01*
X002751Y017648D01*
X002788Y017682D01*
X002828Y017713D01*
X002870Y017741D01*
X002913Y017765D01*
X002959Y017786D01*
X003006Y017804D01*
X003055Y017817D01*
X003104Y017827D01*
X003154Y017833D01*
X003204Y017835D01*
X003254Y017833D01*
X003304Y017827D01*
X003353Y017817D01*
X003402Y017804D01*
X003449Y017786D01*
X003495Y017765D01*
X003538Y017741D01*
X003580Y017713D01*
X003620Y017682D01*
X003657Y017648D01*
X003691Y017611D01*
X003722Y017571D01*
X003750Y017529D01*
X003774Y017486D01*
X003795Y017440D01*
X003813Y017393D01*
X003826Y017344D01*
X003836Y017295D01*
X003842Y017245D01*
X003844Y017195D01*
X003842Y017145D01*
X003836Y017095D01*
X003826Y017046D01*
X003813Y016997D01*
X003795Y016950D01*
X003774Y016904D01*
X003750Y016861D01*
X003722Y016819D01*
X003691Y016779D01*
X003657Y016742D01*
X003620Y016708D01*
X003580Y016677D01*
X003538Y016649D01*
X003495Y016625D01*
X003449Y016604D01*
X003402Y016586D01*
X003353Y016573D01*
X003304Y016563D01*
X003254Y016557D01*
X003204Y016555D01*
X003154Y016557D01*
X003104Y016563D01*
X003055Y016573D01*
X003006Y016586D01*
X002959Y016604D01*
X002913Y016625D01*
X002870Y016649D01*
X002828Y016677D01*
X002788Y016708D01*
X002751Y016742D01*
X002717Y016779D01*
X002686Y016819D01*
X002658Y016861D01*
X002634Y016904D01*
X002613Y016950D01*
X002595Y016997D01*
X002582Y017046D01*
X002572Y017095D01*
X002566Y017145D01*
X002564Y017195D01*
X002564Y021195D02*
X002566Y021245D01*
X002572Y021295D01*
X002582Y021344D01*
X002595Y021393D01*
X002613Y021440D01*
X002634Y021486D01*
X002658Y021529D01*
X002686Y021571D01*
X002717Y021611D01*
X002751Y021648D01*
X002788Y021682D01*
X002828Y021713D01*
X002870Y021741D01*
X002913Y021765D01*
X002959Y021786D01*
X003006Y021804D01*
X003055Y021817D01*
X003104Y021827D01*
X003154Y021833D01*
X003204Y021835D01*
X003254Y021833D01*
X003304Y021827D01*
X003353Y021817D01*
X003402Y021804D01*
X003449Y021786D01*
X003495Y021765D01*
X003538Y021741D01*
X003580Y021713D01*
X003620Y021682D01*
X003657Y021648D01*
X003691Y021611D01*
X003722Y021571D01*
X003750Y021529D01*
X003774Y021486D01*
X003795Y021440D01*
X003813Y021393D01*
X003826Y021344D01*
X003836Y021295D01*
X003842Y021245D01*
X003844Y021195D01*
X003842Y021145D01*
X003836Y021095D01*
X003826Y021046D01*
X003813Y020997D01*
X003795Y020950D01*
X003774Y020904D01*
X003750Y020861D01*
X003722Y020819D01*
X003691Y020779D01*
X003657Y020742D01*
X003620Y020708D01*
X003580Y020677D01*
X003538Y020649D01*
X003495Y020625D01*
X003449Y020604D01*
X003402Y020586D01*
X003353Y020573D01*
X003304Y020563D01*
X003254Y020557D01*
X003204Y020555D01*
X003154Y020557D01*
X003104Y020563D01*
X003055Y020573D01*
X003006Y020586D01*
X002959Y020604D01*
X002913Y020625D01*
X002870Y020649D01*
X002828Y020677D01*
X002788Y020708D01*
X002751Y020742D01*
X002717Y020779D01*
X002686Y020819D01*
X002658Y020861D01*
X002634Y020904D01*
X002613Y020950D01*
X002595Y020997D01*
X002582Y021046D01*
X002572Y021095D01*
X002566Y021145D01*
X002564Y021195D01*
M02*
