G75*
G70*
%OFA0B0*%
%FSLAX24Y24*%
%IPPOS*%
%LPD*%
%AMOC8*
5,1,8,0,0,1.08239X$1,22.5*
%
%ADD10C,0.0030*%
D10*
X009415Y005758D02*
X009463Y005710D01*
X009560Y005710D01*
X009608Y005758D01*
X009415Y005952D01*
X009415Y005758D01*
X009608Y005758D02*
X009608Y005952D01*
X009560Y006000D01*
X009463Y006000D01*
X009415Y005952D01*
X009710Y005952D02*
X009758Y006000D01*
X009855Y006000D01*
X009903Y005952D01*
X009903Y005758D01*
X009710Y005952D01*
X009710Y005758D01*
X009758Y005710D01*
X009855Y005710D01*
X009903Y005758D01*
X010004Y005710D02*
X010198Y005710D01*
X010101Y005710D02*
X010101Y006000D01*
X010198Y005904D01*
X010297Y005904D02*
X010394Y005904D01*
X010346Y005952D02*
X010346Y005758D01*
X010297Y005710D01*
X010495Y005758D02*
X010544Y005710D01*
X010689Y005710D01*
X010689Y005613D02*
X010689Y005904D01*
X010544Y005904D01*
X010495Y005855D01*
X010495Y005758D01*
X008189Y007113D02*
X008189Y007404D01*
X008044Y007404D01*
X007995Y007355D01*
X007995Y007258D01*
X008044Y007210D01*
X008189Y007210D01*
X007846Y007258D02*
X007846Y007452D01*
X007894Y007404D02*
X007797Y007404D01*
X007698Y007404D02*
X007601Y007500D01*
X007601Y007210D01*
X007698Y007210D02*
X007504Y007210D01*
X007403Y007210D02*
X007403Y007500D01*
X007258Y007404D02*
X007403Y007307D01*
X007258Y007210D01*
X007797Y007210D02*
X007846Y007258D01*
X016258Y007210D02*
X016403Y007307D01*
X016258Y007404D01*
X016403Y007500D02*
X016403Y007210D01*
X016504Y007210D02*
X016698Y007210D01*
X016601Y007210D02*
X016601Y007500D01*
X016698Y007404D01*
X016797Y007404D02*
X016894Y007404D01*
X016846Y007452D02*
X016846Y007258D01*
X016797Y007210D01*
X016995Y007258D02*
X017044Y007210D01*
X017189Y007210D01*
X017189Y007113D02*
X017189Y007404D01*
X017044Y007404D01*
X016995Y007355D01*
X016995Y007258D01*
X018415Y005952D02*
X018463Y006000D01*
X018560Y006000D01*
X018608Y005952D01*
X018608Y005758D01*
X018415Y005952D01*
X018415Y005758D01*
X018463Y005710D01*
X018560Y005710D01*
X018608Y005758D01*
X018710Y005758D02*
X018758Y005710D01*
X018855Y005710D01*
X018903Y005758D01*
X018710Y005952D01*
X018710Y005758D01*
X018903Y005758D02*
X018903Y005952D01*
X018855Y006000D01*
X018758Y006000D01*
X018710Y005952D01*
X019004Y005710D02*
X019198Y005710D01*
X019101Y005710D02*
X019101Y006000D01*
X019198Y005904D01*
X019297Y005904D02*
X019394Y005904D01*
X019346Y005952D02*
X019346Y005758D01*
X019297Y005710D01*
X019495Y005758D02*
X019544Y005710D01*
X019689Y005710D01*
X019689Y005613D02*
X019689Y005904D01*
X019544Y005904D01*
X019495Y005855D01*
X019495Y005758D01*
X025758Y007210D02*
X025903Y007307D01*
X025758Y007404D01*
X025903Y007500D02*
X025903Y007210D01*
X026004Y007210D02*
X026198Y007210D01*
X026101Y007210D02*
X026101Y007500D01*
X026198Y007404D01*
X026297Y007404D02*
X026394Y007404D01*
X026346Y007452D02*
X026346Y007258D01*
X026297Y007210D01*
X026495Y007258D02*
X026544Y007210D01*
X026689Y007210D01*
X026689Y007113D02*
X026689Y007404D01*
X026544Y007404D01*
X026495Y007355D01*
X026495Y007258D01*
X027915Y005952D02*
X027963Y006000D01*
X028060Y006000D01*
X028108Y005952D01*
X028108Y005758D01*
X027915Y005952D01*
X027915Y005758D01*
X027963Y005710D01*
X028060Y005710D01*
X028108Y005758D01*
X028210Y005758D02*
X028258Y005710D01*
X028355Y005710D01*
X028403Y005758D01*
X028210Y005952D01*
X028210Y005758D01*
X028403Y005758D02*
X028403Y005952D01*
X028355Y006000D01*
X028258Y006000D01*
X028210Y005952D01*
X028504Y005710D02*
X028698Y005710D01*
X028601Y005710D02*
X028601Y006000D01*
X028698Y005904D01*
X028797Y005904D02*
X028894Y005904D01*
X028846Y005952D02*
X028846Y005758D01*
X028797Y005710D01*
X028995Y005758D02*
X029044Y005710D01*
X029189Y005710D01*
X029189Y005613D02*
X029189Y005904D01*
X029044Y005904D01*
X028995Y005855D01*
X028995Y005758D01*
X034758Y007210D02*
X034903Y007307D01*
X034758Y007404D01*
X034903Y007500D02*
X034903Y007210D01*
X035004Y007210D02*
X035198Y007210D01*
X035101Y007210D02*
X035101Y007500D01*
X035198Y007404D01*
X035297Y007404D02*
X035394Y007404D01*
X035346Y007452D02*
X035346Y007258D01*
X035297Y007210D01*
X035495Y007258D02*
X035544Y007210D01*
X035689Y007210D01*
X035689Y007113D02*
X035689Y007404D01*
X035544Y007404D01*
X035495Y007355D01*
X035495Y007258D01*
X036915Y005952D02*
X036963Y006000D01*
X037060Y006000D01*
X037108Y005952D01*
X037108Y005758D01*
X036915Y005952D01*
X036915Y005758D01*
X036963Y005710D01*
X037060Y005710D01*
X037108Y005758D01*
X037210Y005758D02*
X037258Y005710D01*
X037355Y005710D01*
X037403Y005758D01*
X037210Y005952D01*
X037210Y005758D01*
X037403Y005758D02*
X037403Y005952D01*
X037355Y006000D01*
X037258Y006000D01*
X037210Y005952D01*
X037504Y005710D02*
X037698Y005710D01*
X037601Y005710D02*
X037601Y006000D01*
X037698Y005904D01*
X037797Y005904D02*
X037894Y005904D01*
X037846Y005952D02*
X037846Y005758D01*
X037797Y005710D01*
X037995Y005758D02*
X038044Y005710D01*
X038189Y005710D01*
X038189Y005613D02*
X038189Y005904D01*
X038044Y005904D01*
X037995Y005855D01*
X037995Y005758D01*
M02*
