G75*
G70*
%OFA0B0*%
%FSLAX24Y24*%
%IPPOS*%
%LPD*%
%AMOC8*
5,1,8,0,0,1.08239X$1,22.5*
%
%ADD10C,0.0040*%
D10*
X004724Y004292D02*
X004801Y004215D01*
X005031Y004215D01*
X005184Y004215D02*
X005184Y004676D01*
X005261Y004522D02*
X005414Y004522D01*
X005491Y004445D01*
X005491Y004215D01*
X005645Y004215D02*
X005951Y004215D01*
X005798Y004215D02*
X005798Y004676D01*
X005645Y004522D01*
X005261Y004522D02*
X005184Y004445D01*
X005031Y004522D02*
X004801Y004522D01*
X004724Y004445D01*
X004724Y004292D01*
X014224Y004292D02*
X014301Y004215D01*
X014531Y004215D01*
X014684Y004215D02*
X014684Y004676D01*
X014761Y004522D02*
X014914Y004522D01*
X014991Y004445D01*
X014991Y004215D01*
X015145Y004215D02*
X015451Y004522D01*
X015451Y004599D01*
X015375Y004676D01*
X015221Y004676D01*
X015145Y004599D01*
X014761Y004522D02*
X014684Y004445D01*
X014531Y004522D02*
X014301Y004522D01*
X014224Y004445D01*
X014224Y004292D01*
X015145Y004215D02*
X015451Y004215D01*
X023724Y004292D02*
X023801Y004215D01*
X024031Y004215D01*
X024184Y004215D02*
X024184Y004676D01*
X024261Y004522D02*
X024184Y004445D01*
X024261Y004522D02*
X024414Y004522D01*
X024491Y004445D01*
X024491Y004215D01*
X024645Y004292D02*
X024721Y004215D01*
X024875Y004215D01*
X024951Y004292D01*
X024951Y004369D01*
X024875Y004445D01*
X024798Y004445D01*
X024875Y004445D02*
X024951Y004522D01*
X024951Y004599D01*
X024875Y004676D01*
X024721Y004676D01*
X024645Y004599D01*
X024031Y004522D02*
X023801Y004522D01*
X023724Y004445D01*
X023724Y004292D01*
X033224Y004292D02*
X033301Y004215D01*
X033531Y004215D01*
X033684Y004215D02*
X033684Y004676D01*
X033761Y004522D02*
X033684Y004445D01*
X033761Y004522D02*
X033914Y004522D01*
X033991Y004445D01*
X033991Y004215D01*
X034145Y004445D02*
X034451Y004445D01*
X034375Y004215D02*
X034375Y004676D01*
X034145Y004445D01*
X033531Y004522D02*
X033301Y004522D01*
X033224Y004445D01*
X033224Y004292D01*
X033974Y016715D02*
X033974Y017176D01*
X034204Y017176D01*
X034281Y017099D01*
X034281Y016945D01*
X034204Y016869D01*
X033974Y016869D01*
X034127Y016869D02*
X034281Y016715D01*
X034434Y016715D02*
X034741Y016715D01*
X034895Y016715D02*
X034895Y017176D01*
X035201Y017176D01*
X035048Y016945D02*
X034895Y016945D01*
X034741Y017176D02*
X034434Y017176D01*
X034434Y016715D01*
X034434Y016945D02*
X034588Y016945D01*
X035355Y016792D02*
X035355Y016715D01*
X035432Y016715D01*
X035432Y016792D01*
X035355Y016792D01*
X035585Y016792D02*
X035662Y016715D01*
X035815Y016715D01*
X035892Y016792D01*
X035892Y016869D01*
X035815Y016945D01*
X035585Y016945D01*
X035585Y016792D01*
X035585Y016945D02*
X035739Y017099D01*
X035892Y017176D01*
X036046Y017176D02*
X036046Y016869D01*
X036199Y016715D01*
X036352Y016869D01*
X036352Y017176D01*
X029451Y022965D02*
X029145Y022965D01*
X029298Y022965D02*
X029298Y023426D01*
X029145Y023272D01*
X028991Y023195D02*
X028991Y022965D01*
X028991Y023195D02*
X028914Y023272D01*
X028761Y023272D01*
X028684Y023195D01*
X028531Y023272D02*
X028301Y023272D01*
X028224Y023195D01*
X028224Y023042D01*
X028301Y022965D01*
X028531Y022965D01*
X028684Y022965D02*
X028684Y023426D01*
X026951Y023349D02*
X026875Y023426D01*
X026721Y023426D01*
X026645Y023349D01*
X026491Y023195D02*
X026491Y022965D01*
X026645Y022965D02*
X026951Y023272D01*
X026951Y023349D01*
X026491Y023195D02*
X026414Y023272D01*
X026261Y023272D01*
X026184Y023195D01*
X026031Y023272D02*
X025801Y023272D01*
X025724Y023195D01*
X025724Y023042D01*
X025801Y022965D01*
X026031Y022965D01*
X026184Y022965D02*
X026184Y023426D01*
X026645Y022965D02*
X026951Y022965D01*
X023951Y023042D02*
X023875Y022965D01*
X023721Y022965D01*
X023645Y023042D01*
X023491Y022965D02*
X023491Y023195D01*
X023414Y023272D01*
X023261Y023272D01*
X023184Y023195D01*
X023031Y023272D02*
X022801Y023272D01*
X022724Y023195D01*
X022724Y023042D01*
X022801Y022965D01*
X023031Y022965D01*
X023184Y022965D02*
X023184Y023426D01*
X023645Y023349D02*
X023721Y023426D01*
X023875Y023426D01*
X023951Y023349D01*
X023951Y023272D01*
X023875Y023195D01*
X023951Y023119D01*
X023951Y023042D01*
X023875Y023195D02*
X023798Y023195D01*
X020951Y023195D02*
X020645Y023195D01*
X020875Y023426D01*
X020875Y022965D01*
X020491Y022965D02*
X020491Y023195D01*
X020414Y023272D01*
X020261Y023272D01*
X020184Y023195D01*
X020031Y023272D02*
X019801Y023272D01*
X019724Y023195D01*
X019724Y023042D01*
X019801Y022965D01*
X020031Y022965D01*
X020184Y022965D02*
X020184Y023426D01*
X016951Y021349D02*
X016875Y021426D01*
X016721Y021426D01*
X016645Y021349D01*
X016491Y021195D02*
X016491Y020965D01*
X016645Y020965D02*
X016951Y021272D01*
X016951Y021349D01*
X016491Y021195D02*
X016414Y021272D01*
X016261Y021272D01*
X016184Y021195D01*
X016031Y021272D02*
X015801Y021272D01*
X015724Y021195D01*
X015724Y021042D01*
X015801Y020965D01*
X016031Y020965D01*
X016184Y020965D02*
X016184Y021426D01*
X016645Y020965D02*
X016951Y020965D01*
X016684Y019926D02*
X016684Y019465D01*
X016531Y019465D02*
X016301Y019465D01*
X016224Y019542D01*
X016224Y019695D01*
X016301Y019772D01*
X016531Y019772D01*
X016684Y019695D02*
X016761Y019772D01*
X016914Y019772D01*
X016991Y019695D01*
X016991Y019465D01*
X017145Y019465D02*
X017451Y019465D01*
X017298Y019465D02*
X017298Y019926D01*
X017145Y019772D01*
X017375Y019176D02*
X017145Y018945D01*
X017451Y018945D01*
X017375Y018715D02*
X017375Y019176D01*
X016991Y018945D02*
X016991Y018715D01*
X016991Y018945D02*
X016914Y019022D01*
X016761Y019022D01*
X016684Y018945D01*
X016531Y019022D02*
X016301Y019022D01*
X016224Y018945D01*
X016224Y018792D01*
X016301Y018715D01*
X016531Y018715D01*
X016684Y018715D02*
X016684Y019176D01*
X013951Y017849D02*
X013951Y017772D01*
X013875Y017695D01*
X013951Y017619D01*
X013951Y017542D01*
X013875Y017465D01*
X013721Y017465D01*
X013645Y017542D01*
X013491Y017465D02*
X013491Y017695D01*
X013414Y017772D01*
X013261Y017772D01*
X013184Y017695D01*
X013031Y017772D02*
X012801Y017772D01*
X012724Y017695D01*
X012724Y017542D01*
X012801Y017465D01*
X013031Y017465D01*
X013184Y017465D02*
X013184Y017926D01*
X013645Y017849D02*
X013721Y017926D01*
X013875Y017926D01*
X013951Y017849D01*
X013875Y017695D02*
X013798Y017695D01*
X007055Y022792D02*
X006979Y022715D01*
X006825Y022715D01*
X006748Y022792D01*
X007055Y023099D01*
X007055Y022792D01*
X006748Y022792D02*
X006748Y023099D01*
X006825Y023176D01*
X006979Y023176D01*
X007055Y023099D01*
X006595Y022792D02*
X006595Y022715D01*
X006518Y022715D01*
X006518Y022792D01*
X006595Y022792D01*
X006365Y022715D02*
X006058Y022715D01*
X006365Y023022D01*
X006365Y023099D01*
X006288Y023176D01*
X006135Y023176D01*
X006058Y023099D01*
X005444Y023022D02*
X005367Y023022D01*
X005214Y022869D01*
X005214Y023022D02*
X005214Y022715D01*
X005060Y022869D02*
X004753Y022869D01*
X004753Y022945D02*
X004830Y023022D01*
X004984Y023022D01*
X005060Y022945D01*
X005060Y022869D01*
X004984Y022715D02*
X004830Y022715D01*
X004753Y022792D01*
X004753Y022945D01*
X004600Y023022D02*
X004447Y023022D01*
X004523Y023099D02*
X004523Y022792D01*
X004600Y022715D01*
X004293Y022869D02*
X003986Y022869D01*
X003986Y022945D02*
X004063Y023022D01*
X004216Y023022D01*
X004293Y022945D01*
X004293Y022869D01*
X004216Y022715D02*
X004063Y022715D01*
X003986Y022792D01*
X003986Y022945D01*
X003833Y022945D02*
X003833Y022715D01*
X003679Y022715D02*
X003679Y022945D01*
X003756Y023022D01*
X003833Y022945D01*
X003679Y022945D02*
X003602Y023022D01*
X003526Y023022D01*
X003526Y022715D01*
X003372Y022792D02*
X003296Y022715D01*
X003142Y022715D01*
X003065Y022792D01*
X003065Y022945D01*
X003142Y023022D01*
X003296Y023022D01*
X003372Y022945D01*
X003372Y022792D01*
X002912Y022715D02*
X002912Y022945D01*
X002835Y023022D01*
X002758Y022945D01*
X002758Y022715D01*
X002605Y022715D02*
X002605Y023022D01*
X002682Y023022D01*
X002758Y022945D01*
X002451Y022945D02*
X002451Y022869D01*
X002145Y022869D01*
X002145Y022945D02*
X002221Y023022D01*
X002375Y023022D01*
X002451Y022945D01*
X002375Y022715D02*
X002221Y022715D01*
X002145Y022792D01*
X002145Y022945D01*
X001991Y022945D02*
X001991Y022715D01*
X001991Y022945D02*
X001914Y023022D01*
X001684Y023022D01*
X001684Y022715D01*
X001531Y022715D02*
X001531Y023022D01*
X001377Y023176D01*
X001224Y023022D01*
X001224Y022715D01*
X001224Y022945D02*
X001531Y022945D01*
M02*
