G75*
%MOIN*%
%OFA0B0*%
%FSLAX24Y24*%
%IPPOS*%
%LPD*%
%AMOC8*
5,1,8,0,0,1.08239X$1,22.5*
%
%ADD10C,0.0060*%
%ADD11R,0.0256X0.0551*%
%ADD12C,0.0040*%
%ADD13R,0.0551X0.0256*%
%ADD14C,0.0004*%
%ADD15R,0.0049X0.0197*%
%ADD16R,0.0128X0.0089*%
%ADD17R,0.0089X0.0049*%
%ADD18R,0.0049X0.0167*%
%ADD19R,0.0138X0.0197*%
%ADD20R,0.0049X0.0236*%
%ADD21R,0.0118X0.0669*%
%ADD22R,0.0276X0.0669*%
%ADD23R,0.0167X0.0128*%
%ADD24R,0.0138X0.0138*%
%ADD25R,0.0295X0.0669*%
%ADD26C,0.0080*%
%ADD27C,0.0010*%
%ADD28R,0.1260X0.0730*%
%ADD29R,0.0340X0.0730*%
%ADD30R,0.0669X0.0295*%
%ADD31R,0.0600X0.1200*%
%ADD32R,0.0600X0.0300*%
%ADD33C,0.0050*%
%ADD34R,0.0560X0.0140*%
%ADD35R,0.0197X0.0049*%
%ADD36R,0.0089X0.0128*%
%ADD37R,0.0049X0.0089*%
%ADD38R,0.0167X0.0049*%
%ADD39R,0.0197X0.0138*%
%ADD40R,0.0236X0.0049*%
%ADD41R,0.0669X0.0118*%
%ADD42R,0.0669X0.0276*%
%ADD43R,0.0128X0.0167*%
D10*
X010769Y009450D02*
X010769Y011910D01*
X012131Y011910D01*
X012131Y009450D01*
X010769Y009450D01*
X020789Y016930D02*
X021111Y016930D01*
X021111Y017430D02*
X020789Y017430D01*
X020789Y017680D02*
X021111Y017680D01*
X021111Y018180D02*
X020789Y018180D01*
X020200Y023519D02*
X020200Y023841D01*
X019700Y023841D02*
X019700Y023519D01*
X013700Y023519D02*
X013700Y023841D01*
X013200Y023841D02*
X013200Y023519D01*
X007200Y023519D02*
X007200Y023841D01*
X006700Y023841D02*
X006700Y023519D01*
X014950Y031019D02*
X014950Y031341D01*
X015450Y031341D02*
X015450Y031019D01*
X021450Y031269D02*
X021450Y031591D01*
X021950Y031591D02*
X021950Y031269D01*
X027950Y031269D02*
X027950Y031591D01*
X028450Y031591D02*
X028450Y031269D01*
X034450Y031269D02*
X034450Y031591D01*
X034950Y031591D02*
X034950Y031269D01*
X038200Y026210D02*
X038200Y025650D01*
X038700Y025650D02*
X038700Y026210D01*
X039200Y026210D02*
X039200Y025650D01*
X039700Y025650D02*
X039700Y026210D01*
X033200Y024091D02*
X033200Y023769D01*
X032700Y023769D02*
X032700Y024091D01*
X026700Y023841D02*
X026700Y023519D01*
X026200Y023519D02*
X026200Y023841D01*
X033200Y016841D02*
X033200Y016519D01*
X033700Y016519D02*
X033700Y016841D01*
X034200Y016841D02*
X034200Y016519D01*
X034700Y016519D02*
X034700Y016841D01*
X035200Y016841D02*
X035200Y016519D01*
X035700Y016519D02*
X035700Y016841D01*
X034950Y012841D02*
X034950Y012519D01*
X034450Y012519D02*
X034450Y012841D01*
X034200Y012841D02*
X034200Y012519D01*
X033700Y012519D02*
X033700Y012841D01*
X008950Y031269D02*
X008950Y031591D01*
X008450Y031591D02*
X008450Y031269D01*
D11*
X020658Y017929D03*
X021238Y017929D03*
X021238Y017179D03*
X020658Y017179D03*
D12*
X020180Y017257D02*
X020027Y017410D01*
X020027Y016950D01*
X020180Y016950D02*
X019873Y016950D01*
X019720Y017027D02*
X019413Y017334D01*
X019413Y017027D01*
X019489Y016950D01*
X019643Y016950D01*
X019720Y017027D01*
X019720Y017334D01*
X019643Y017410D01*
X019489Y017410D01*
X019413Y017334D01*
X019259Y017410D02*
X019259Y016950D01*
X019259Y017103D02*
X019029Y017257D01*
X019259Y017103D02*
X019029Y016950D01*
X019029Y017700D02*
X019259Y017853D01*
X019029Y018007D01*
X019259Y018160D02*
X019259Y017700D01*
X019413Y017777D02*
X019489Y017700D01*
X019643Y017700D01*
X019720Y017777D01*
X019413Y018084D01*
X019413Y017777D01*
X019720Y017777D02*
X019720Y018084D01*
X019643Y018160D01*
X019489Y018160D01*
X019413Y018084D01*
X019873Y017700D02*
X020180Y017700D01*
X020027Y017700D02*
X020027Y018160D01*
X020180Y018007D01*
X018430Y022450D02*
X018200Y022450D01*
X018123Y022527D01*
X018123Y022603D01*
X018200Y022680D01*
X018430Y022680D01*
X018430Y022450D02*
X018430Y022910D01*
X018200Y022910D01*
X018123Y022834D01*
X018123Y022757D01*
X018200Y022680D01*
X017970Y022450D02*
X017816Y022450D01*
X017893Y022450D02*
X017893Y022910D01*
X017970Y022910D01*
X017663Y022757D02*
X017663Y022527D01*
X017586Y022450D01*
X017356Y022450D01*
X017356Y022757D01*
X017202Y022680D02*
X017126Y022757D01*
X016972Y022757D01*
X016895Y022680D01*
X016895Y022603D01*
X017202Y022603D01*
X017202Y022527D02*
X017202Y022680D01*
X017202Y022527D02*
X017126Y022450D01*
X016972Y022450D01*
X017576Y023115D02*
X018324Y023115D01*
X018324Y023745D02*
X017576Y023745D01*
X017350Y023647D02*
X017352Y023659D01*
X017357Y023670D01*
X017366Y023679D01*
X017377Y023684D01*
X017389Y023686D01*
X017401Y023684D01*
X017412Y023679D01*
X017421Y023670D01*
X017426Y023659D01*
X017428Y023647D01*
X017426Y023635D01*
X017421Y023624D01*
X017412Y023615D01*
X017401Y023610D01*
X017389Y023608D01*
X017377Y023610D01*
X017366Y023615D01*
X017357Y023624D01*
X017352Y023635D01*
X017350Y023647D01*
X014430Y023603D02*
X013970Y023603D01*
X013970Y023450D02*
X013970Y023757D01*
X013970Y023910D02*
X014430Y023910D01*
X014277Y024141D02*
X014123Y023910D01*
X013970Y024141D01*
X014430Y023603D02*
X014277Y023450D01*
X011930Y022910D02*
X011930Y022450D01*
X011700Y022450D01*
X011623Y022527D01*
X011623Y022603D01*
X011700Y022680D01*
X011930Y022680D01*
X011700Y022680D02*
X011623Y022757D01*
X011623Y022834D01*
X011700Y022910D01*
X011930Y022910D01*
X011824Y023115D02*
X011076Y023115D01*
X011163Y022757D02*
X011163Y022527D01*
X011086Y022450D01*
X010856Y022450D01*
X010856Y022757D01*
X010702Y022680D02*
X010626Y022757D01*
X010472Y022757D01*
X010395Y022680D01*
X010395Y022603D01*
X010702Y022603D01*
X010702Y022527D02*
X010702Y022680D01*
X010702Y022527D02*
X010626Y022450D01*
X010472Y022450D01*
X011316Y022450D02*
X011470Y022450D01*
X011393Y022450D02*
X011393Y022910D01*
X011470Y022910D01*
X010850Y023647D02*
X010852Y023659D01*
X010857Y023670D01*
X010866Y023679D01*
X010877Y023684D01*
X010889Y023686D01*
X010901Y023684D01*
X010912Y023679D01*
X010921Y023670D01*
X010926Y023659D01*
X010928Y023647D01*
X010926Y023635D01*
X010921Y023624D01*
X010912Y023615D01*
X010901Y023610D01*
X010889Y023608D01*
X010877Y023610D01*
X010866Y023615D01*
X010857Y023624D01*
X010852Y023635D01*
X010850Y023647D01*
X011076Y023745D02*
X011824Y023745D01*
X011851Y026470D02*
X011851Y026547D01*
X011544Y026854D01*
X011544Y026930D01*
X011851Y026930D01*
X012004Y026854D02*
X012004Y026700D01*
X012081Y026623D01*
X012311Y026623D01*
X012311Y026470D02*
X012311Y026930D01*
X012081Y026930D01*
X012004Y026854D01*
X012465Y026854D02*
X012541Y026930D01*
X012695Y026930D01*
X012772Y026854D01*
X012772Y026777D01*
X012695Y026700D01*
X012541Y026700D01*
X012465Y026623D01*
X012465Y026547D01*
X012541Y026470D01*
X012695Y026470D01*
X012772Y026547D01*
X012925Y026547D02*
X013002Y026470D01*
X013232Y026470D01*
X013232Y026930D01*
X013002Y026930D01*
X012925Y026854D01*
X012925Y026777D01*
X013002Y026700D01*
X013232Y026700D01*
X013002Y026700D02*
X012925Y026623D01*
X012925Y026547D01*
X011390Y026547D02*
X011314Y026470D01*
X011160Y026470D01*
X011083Y026547D01*
X011083Y026700D01*
X011160Y026777D01*
X011237Y026777D01*
X011390Y026700D01*
X011390Y026930D01*
X011083Y026930D01*
X007777Y024141D02*
X007623Y023910D01*
X007470Y024141D01*
X007470Y023910D02*
X007930Y023910D01*
X007930Y023603D02*
X007470Y023603D01*
X007470Y023450D02*
X007470Y023757D01*
X007777Y023450D02*
X007930Y023603D01*
X008430Y021638D02*
X008430Y021331D01*
X007970Y021331D01*
X007970Y021178D02*
X008277Y021178D01*
X008200Y021331D02*
X008200Y021485D01*
X007970Y021178D02*
X007970Y020948D01*
X008047Y020871D01*
X008277Y020871D01*
X008354Y020717D02*
X008047Y020410D01*
X007970Y020487D01*
X007970Y020641D01*
X008047Y020717D01*
X008354Y020717D01*
X008430Y020641D01*
X008430Y020487D01*
X008354Y020410D01*
X008047Y020410D01*
X007970Y020257D02*
X007970Y019950D01*
X007970Y020103D02*
X008430Y020103D01*
X008277Y019950D01*
X008640Y020050D02*
X008640Y020810D01*
X009260Y020810D02*
X009260Y020050D01*
X005430Y022450D02*
X005200Y022450D01*
X005123Y022527D01*
X005123Y022603D01*
X005200Y022680D01*
X005430Y022680D01*
X005430Y022450D02*
X005430Y022910D01*
X005200Y022910D01*
X005123Y022834D01*
X005123Y022757D01*
X005200Y022680D01*
X004970Y022450D02*
X004816Y022450D01*
X004893Y022450D02*
X004893Y022910D01*
X004970Y022910D01*
X004663Y022757D02*
X004663Y022527D01*
X004586Y022450D01*
X004356Y022450D01*
X004356Y022757D01*
X004202Y022680D02*
X004126Y022757D01*
X003972Y022757D01*
X003895Y022680D01*
X003895Y022603D01*
X004202Y022603D01*
X004202Y022527D02*
X004202Y022680D01*
X004202Y022527D02*
X004126Y022450D01*
X003972Y022450D01*
X004576Y023115D02*
X005324Y023115D01*
X005324Y023745D02*
X004576Y023745D01*
X004350Y023647D02*
X004352Y023659D01*
X004357Y023670D01*
X004366Y023679D01*
X004377Y023684D01*
X004389Y023686D01*
X004401Y023684D01*
X004412Y023679D01*
X004421Y023670D01*
X004426Y023659D01*
X004428Y023647D01*
X004426Y023635D01*
X004421Y023624D01*
X004412Y023615D01*
X004401Y023610D01*
X004389Y023608D01*
X004377Y023610D01*
X004366Y023615D01*
X004357Y023624D01*
X004352Y023635D01*
X004350Y023647D01*
X004660Y026470D02*
X004814Y026470D01*
X004890Y026547D01*
X004890Y026700D02*
X004737Y026777D01*
X004660Y026777D01*
X004583Y026700D01*
X004583Y026547D01*
X004660Y026470D01*
X004890Y026700D02*
X004890Y026930D01*
X004583Y026930D01*
X005044Y026930D02*
X005044Y026854D01*
X005351Y026547D01*
X005351Y026470D01*
X005581Y026623D02*
X005811Y026623D01*
X005811Y026470D02*
X005811Y026930D01*
X005581Y026930D01*
X005504Y026854D01*
X005504Y026700D01*
X005581Y026623D01*
X005965Y026623D02*
X005965Y026547D01*
X006041Y026470D01*
X006195Y026470D01*
X006272Y026547D01*
X006425Y026547D02*
X006502Y026470D01*
X006732Y026470D01*
X006732Y026930D01*
X006502Y026930D01*
X006425Y026854D01*
X006425Y026777D01*
X006502Y026700D01*
X006732Y026700D01*
X006502Y026700D02*
X006425Y026623D01*
X006425Y026547D01*
X006272Y026777D02*
X006195Y026700D01*
X006041Y026700D01*
X005965Y026623D01*
X005965Y026854D02*
X006041Y026930D01*
X006195Y026930D01*
X006272Y026854D01*
X006272Y026777D01*
X005351Y026930D02*
X005044Y026930D01*
X007720Y031200D02*
X007720Y031507D01*
X007720Y031660D02*
X008180Y031660D01*
X008027Y031891D02*
X007873Y031660D01*
X007720Y031891D01*
X007720Y031353D02*
X008180Y031353D01*
X008027Y031200D01*
X014220Y031257D02*
X014220Y030950D01*
X014220Y031103D02*
X014680Y031103D01*
X014527Y030950D01*
X014680Y031410D02*
X014220Y031410D01*
X014373Y031410D02*
X014220Y031641D01*
X014373Y031410D02*
X014527Y031641D01*
X017583Y026930D02*
X017890Y026930D01*
X017890Y026700D01*
X017737Y026777D01*
X017660Y026777D01*
X017583Y026700D01*
X017583Y026547D01*
X017660Y026470D01*
X017814Y026470D01*
X017890Y026547D01*
X018044Y026854D02*
X018351Y026547D01*
X018351Y026470D01*
X018581Y026623D02*
X018811Y026623D01*
X018811Y026470D02*
X018811Y026930D01*
X018581Y026930D01*
X018504Y026854D01*
X018504Y026700D01*
X018581Y026623D01*
X018965Y026623D02*
X018965Y026547D01*
X019041Y026470D01*
X019195Y026470D01*
X019272Y026547D01*
X019425Y026547D02*
X019502Y026470D01*
X019732Y026470D01*
X019732Y026930D01*
X019502Y026930D01*
X019425Y026854D01*
X019425Y026777D01*
X019502Y026700D01*
X019732Y026700D01*
X019502Y026700D02*
X019425Y026623D01*
X019425Y026547D01*
X019272Y026777D02*
X019195Y026700D01*
X019041Y026700D01*
X018965Y026623D01*
X018965Y026854D02*
X019041Y026930D01*
X019195Y026930D01*
X019272Y026854D01*
X019272Y026777D01*
X018351Y026930D02*
X018044Y026930D01*
X018044Y026854D01*
X020470Y024141D02*
X020623Y023910D01*
X020777Y024141D01*
X020930Y023910D02*
X020470Y023910D01*
X020470Y023757D02*
X020470Y023450D01*
X020470Y023603D02*
X020930Y023603D01*
X020777Y023450D01*
X023242Y022680D02*
X023242Y022603D01*
X023549Y022603D01*
X023549Y022527D02*
X023549Y022680D01*
X023472Y022757D01*
X023319Y022757D01*
X023242Y022680D01*
X023319Y022450D02*
X023472Y022450D01*
X023549Y022527D01*
X023702Y022450D02*
X023702Y022757D01*
X023702Y022450D02*
X023932Y022450D01*
X024009Y022527D01*
X024009Y022757D01*
X024163Y022450D02*
X024470Y022450D01*
X024470Y022910D01*
X024623Y022834D02*
X024623Y022757D01*
X024700Y022680D01*
X024930Y022680D01*
X024930Y022450D02*
X024700Y022450D01*
X024623Y022527D01*
X024623Y022603D01*
X024700Y022680D01*
X024623Y022834D02*
X024700Y022910D01*
X024930Y022910D01*
X024930Y022450D01*
X024824Y023115D02*
X024076Y023115D01*
X023850Y023647D02*
X023852Y023659D01*
X023857Y023670D01*
X023866Y023679D01*
X023877Y023684D01*
X023889Y023686D01*
X023901Y023684D01*
X023912Y023679D01*
X023921Y023670D01*
X023926Y023659D01*
X023928Y023647D01*
X023926Y023635D01*
X023921Y023624D01*
X023912Y023615D01*
X023901Y023610D01*
X023889Y023608D01*
X023877Y023610D01*
X023866Y023615D01*
X023857Y023624D01*
X023852Y023635D01*
X023850Y023647D01*
X024076Y023745D02*
X024824Y023745D01*
X026970Y023757D02*
X026970Y023450D01*
X026970Y023603D02*
X027430Y023603D01*
X027277Y023450D01*
X027430Y023910D02*
X026970Y023910D01*
X027123Y023910D02*
X027277Y024141D01*
X027123Y023910D02*
X026970Y024141D01*
X026232Y026470D02*
X026002Y026470D01*
X025925Y026547D01*
X025925Y026623D01*
X026002Y026700D01*
X026232Y026700D01*
X026232Y026470D02*
X026232Y026930D01*
X026002Y026930D01*
X025925Y026854D01*
X025925Y026777D01*
X026002Y026700D01*
X025772Y026777D02*
X025695Y026700D01*
X025541Y026700D01*
X025465Y026623D01*
X025465Y026547D01*
X025541Y026470D01*
X025695Y026470D01*
X025772Y026547D01*
X025772Y026777D02*
X025772Y026854D01*
X025695Y026930D01*
X025541Y026930D01*
X025465Y026854D01*
X025311Y026930D02*
X025081Y026930D01*
X025004Y026854D01*
X025004Y026700D01*
X025081Y026623D01*
X025311Y026623D01*
X025311Y026470D02*
X025311Y026930D01*
X024851Y026930D02*
X024544Y026930D01*
X024544Y026854D01*
X024851Y026547D01*
X024851Y026470D01*
X024390Y026547D02*
X024314Y026470D01*
X024160Y026470D01*
X024083Y026547D01*
X024083Y026700D01*
X024160Y026777D01*
X024237Y026777D01*
X024390Y026700D01*
X024390Y026930D01*
X024083Y026930D01*
X021027Y031200D02*
X021180Y031353D01*
X020720Y031353D01*
X020720Y031200D02*
X020720Y031507D01*
X020720Y031660D02*
X021180Y031660D01*
X021027Y031891D02*
X020873Y031660D01*
X020720Y031891D01*
X027220Y031891D02*
X027373Y031660D01*
X027527Y031891D01*
X027680Y031660D02*
X027220Y031660D01*
X027220Y031507D02*
X027220Y031200D01*
X027220Y031353D02*
X027680Y031353D01*
X027527Y031200D01*
X030583Y026930D02*
X030890Y026930D01*
X030890Y026700D01*
X030737Y026777D01*
X030660Y026777D01*
X030583Y026700D01*
X030583Y026547D01*
X030660Y026470D01*
X030814Y026470D01*
X030890Y026547D01*
X031044Y026854D02*
X031351Y026547D01*
X031351Y026470D01*
X031581Y026623D02*
X031811Y026623D01*
X031811Y026470D02*
X031811Y026930D01*
X031581Y026930D01*
X031504Y026854D01*
X031504Y026700D01*
X031581Y026623D01*
X031965Y026623D02*
X031965Y026547D01*
X032041Y026470D01*
X032195Y026470D01*
X032272Y026547D01*
X032425Y026547D02*
X032502Y026470D01*
X032732Y026470D01*
X032732Y026930D01*
X032502Y026930D01*
X032425Y026854D01*
X032425Y026777D01*
X032502Y026700D01*
X032732Y026700D01*
X032502Y026700D02*
X032425Y026623D01*
X032425Y026547D01*
X032272Y026777D02*
X032195Y026700D01*
X032041Y026700D01*
X031965Y026623D01*
X031965Y026854D02*
X032041Y026930D01*
X032195Y026930D01*
X032272Y026854D01*
X032272Y026777D01*
X031351Y026930D02*
X031044Y026930D01*
X031044Y026854D01*
X033470Y024391D02*
X033623Y024160D01*
X033777Y024391D01*
X033930Y024160D02*
X033470Y024160D01*
X033470Y024007D02*
X033470Y023700D01*
X033470Y023853D02*
X033930Y023853D01*
X033777Y023700D01*
X031555Y023035D02*
X031555Y022575D01*
X031325Y022575D01*
X031248Y022652D01*
X031248Y022728D01*
X031325Y022805D01*
X031555Y022805D01*
X031325Y022805D02*
X031248Y022882D01*
X031248Y022959D01*
X031325Y023035D01*
X031555Y023035D01*
X031449Y023240D02*
X030701Y023240D01*
X030788Y022882D02*
X030788Y022652D01*
X030711Y022575D01*
X030481Y022575D01*
X030481Y022882D01*
X030327Y022805D02*
X030327Y022652D01*
X030251Y022575D01*
X030097Y022575D01*
X030020Y022728D02*
X030327Y022728D01*
X030327Y022805D02*
X030251Y022882D01*
X030097Y022882D01*
X030020Y022805D01*
X030020Y022728D01*
X030941Y022575D02*
X031095Y022575D01*
X031018Y022575D02*
X031018Y023035D01*
X031095Y023035D01*
X031449Y023870D02*
X030701Y023870D01*
X030475Y023772D02*
X030477Y023784D01*
X030482Y023795D01*
X030491Y023804D01*
X030502Y023809D01*
X030514Y023811D01*
X030526Y023809D01*
X030537Y023804D01*
X030546Y023795D01*
X030551Y023784D01*
X030553Y023772D01*
X030551Y023760D01*
X030546Y023749D01*
X030537Y023740D01*
X030526Y023735D01*
X030514Y023733D01*
X030502Y023735D01*
X030491Y023740D01*
X030482Y023749D01*
X030477Y023760D01*
X030475Y023772D01*
X033297Y020553D02*
X033604Y020553D01*
X033680Y020476D01*
X033680Y020246D01*
X033220Y020246D01*
X033220Y020476D01*
X033297Y020553D01*
X033220Y020092D02*
X033220Y019785D01*
X033680Y019785D01*
X033680Y020092D01*
X033450Y019939D02*
X033450Y019785D01*
X033450Y019632D02*
X033373Y019555D01*
X033373Y019325D01*
X033220Y019325D02*
X033680Y019325D01*
X033680Y019555D01*
X033604Y019632D01*
X033450Y019632D01*
X033373Y019478D02*
X033220Y019632D01*
X033135Y019054D02*
X033135Y018306D01*
X033765Y018306D02*
X033765Y019054D01*
X033628Y019241D02*
X033630Y019253D01*
X033635Y019264D01*
X033644Y019273D01*
X033655Y019278D01*
X033667Y019280D01*
X033679Y019278D01*
X033690Y019273D01*
X033699Y019264D01*
X033704Y019253D01*
X033706Y019241D01*
X033704Y019229D01*
X033699Y019218D01*
X033690Y019209D01*
X033679Y019204D01*
X033667Y019202D01*
X033655Y019204D01*
X033644Y019209D01*
X033635Y019218D01*
X033630Y019229D01*
X033628Y019241D01*
X034135Y019054D02*
X034135Y018306D01*
X034765Y018306D02*
X034765Y019054D01*
X034628Y019241D02*
X034630Y019253D01*
X034635Y019264D01*
X034644Y019273D01*
X034655Y019278D01*
X034667Y019280D01*
X034679Y019278D01*
X034690Y019273D01*
X034699Y019264D01*
X034704Y019253D01*
X034706Y019241D01*
X034704Y019229D01*
X034699Y019218D01*
X034690Y019209D01*
X034679Y019204D01*
X034667Y019202D01*
X034655Y019204D01*
X034644Y019209D01*
X034635Y019218D01*
X034630Y019229D01*
X034628Y019241D01*
X034680Y019325D02*
X034220Y019325D01*
X034373Y019325D02*
X034373Y019555D01*
X034450Y019632D01*
X034604Y019632D01*
X034680Y019555D01*
X034680Y019325D01*
X034373Y019478D02*
X034220Y019632D01*
X034220Y019785D02*
X034220Y020092D01*
X034220Y020246D02*
X034220Y020476D01*
X034297Y020553D01*
X034604Y020553D01*
X034680Y020476D01*
X034680Y020246D01*
X034220Y020246D01*
X034450Y019939D02*
X034450Y019785D01*
X034680Y019785D02*
X034220Y019785D01*
X034680Y019785D02*
X034680Y020092D01*
X035220Y020092D02*
X035220Y019785D01*
X035680Y019785D01*
X035680Y020092D01*
X035680Y020246D02*
X035680Y020476D01*
X035604Y020553D01*
X035297Y020553D01*
X035220Y020476D01*
X035220Y020246D01*
X035680Y020246D01*
X035450Y019939D02*
X035450Y019785D01*
X035450Y019632D02*
X035373Y019555D01*
X035373Y019325D01*
X035220Y019325D02*
X035680Y019325D01*
X035680Y019555D01*
X035604Y019632D01*
X035450Y019632D01*
X035373Y019478D02*
X035220Y019632D01*
X035135Y019054D02*
X035135Y018306D01*
X035765Y018306D02*
X035765Y019054D01*
X035628Y019241D02*
X035630Y019253D01*
X035635Y019264D01*
X035644Y019273D01*
X035655Y019278D01*
X035667Y019280D01*
X035679Y019278D01*
X035690Y019273D01*
X035699Y019264D01*
X035704Y019253D01*
X035706Y019241D01*
X035704Y019229D01*
X035699Y019218D01*
X035690Y019209D01*
X035679Y019204D01*
X035667Y019202D01*
X035655Y019204D01*
X035644Y019209D01*
X035635Y019218D01*
X035630Y019229D01*
X035628Y019241D01*
X035680Y015922D02*
X035373Y015615D01*
X035450Y015691D02*
X035220Y015922D01*
X035220Y015615D02*
X035680Y015615D01*
X035680Y015308D02*
X035220Y015308D01*
X035220Y015461D02*
X035220Y015154D01*
X035527Y015154D02*
X035680Y015308D01*
X034680Y015308D02*
X034527Y015154D01*
X034680Y015308D02*
X034220Y015308D01*
X034220Y015461D02*
X034220Y015154D01*
X033680Y015308D02*
X033220Y015308D01*
X033220Y015461D02*
X033220Y015154D01*
X033527Y015154D02*
X033680Y015308D01*
X033680Y015615D02*
X033220Y015615D01*
X033373Y015615D02*
X033680Y015922D01*
X033450Y015691D02*
X033220Y015922D01*
X034220Y015922D02*
X034450Y015691D01*
X034373Y015615D02*
X034680Y015922D01*
X034680Y015615D02*
X034220Y015615D01*
X034180Y014092D02*
X033873Y013785D01*
X033950Y013862D02*
X033720Y014092D01*
X033720Y013785D02*
X034180Y013785D01*
X034180Y013478D02*
X033720Y013478D01*
X033720Y013325D02*
X033720Y013632D01*
X034027Y013325D02*
X034180Y013478D01*
X034470Y011922D02*
X034700Y011691D01*
X034623Y011615D02*
X034930Y011922D01*
X034930Y011615D02*
X034470Y011615D01*
X034470Y011461D02*
X034470Y011154D01*
X034470Y011308D02*
X034930Y011308D01*
X034777Y011154D01*
X033455Y009240D02*
X032695Y009240D01*
X032695Y008620D02*
X033455Y008620D01*
X032555Y008257D02*
X032402Y008410D01*
X032402Y007950D01*
X032555Y007950D02*
X032248Y007950D01*
X032095Y008027D02*
X032095Y008257D01*
X032095Y008027D02*
X032018Y007950D01*
X031788Y007950D01*
X031788Y008257D01*
X031634Y008180D02*
X031481Y008180D01*
X031634Y007950D02*
X031634Y008410D01*
X031327Y008410D01*
X017772Y009200D02*
X017465Y009200D01*
X017618Y009200D02*
X017618Y009660D01*
X017772Y009507D01*
X017311Y009584D02*
X017311Y009277D01*
X017004Y009584D01*
X017004Y009277D01*
X017081Y009200D01*
X017234Y009200D01*
X017311Y009277D01*
X017311Y009584D02*
X017234Y009660D01*
X017081Y009660D01*
X017004Y009584D01*
X016851Y009507D02*
X016851Y009277D01*
X016774Y009200D01*
X016544Y009200D01*
X016544Y009507D01*
X016390Y009430D02*
X016237Y009430D01*
X016390Y009200D02*
X016390Y009660D01*
X016083Y009660D01*
X015830Y009870D02*
X015070Y009870D01*
X015070Y010490D02*
X015830Y010490D01*
X015830Y010870D02*
X015070Y010870D01*
X015070Y011490D02*
X015830Y011490D01*
X016390Y011700D02*
X016390Y012160D01*
X016083Y012160D01*
X016237Y011930D02*
X016390Y011930D01*
X016544Y012007D02*
X016544Y011700D01*
X016774Y011700D01*
X016851Y011777D01*
X016851Y012007D01*
X017004Y012084D02*
X017311Y011777D01*
X017234Y011700D01*
X017081Y011700D01*
X017004Y011777D01*
X017004Y012084D01*
X017081Y012160D01*
X017234Y012160D01*
X017311Y012084D01*
X017311Y011777D01*
X017465Y011700D02*
X017772Y011700D01*
X017618Y011700D02*
X017618Y012160D01*
X017772Y012007D01*
X038195Y023925D02*
X038195Y024232D01*
X038195Y024078D02*
X038655Y024078D01*
X038502Y023925D01*
X038579Y024385D02*
X038655Y024462D01*
X038655Y024616D01*
X038579Y024692D01*
X038272Y024385D01*
X038195Y024462D01*
X038195Y024616D01*
X038272Y024692D01*
X038579Y024692D01*
X038655Y024846D02*
X038195Y024846D01*
X038348Y024846D02*
X038655Y025153D01*
X038425Y024923D02*
X038195Y025153D01*
X038272Y024385D02*
X038579Y024385D01*
X039320Y024462D02*
X039397Y024385D01*
X039704Y024692D01*
X039397Y024692D01*
X039320Y024616D01*
X039320Y024462D01*
X039397Y024385D02*
X039704Y024385D01*
X039780Y024462D01*
X039780Y024616D01*
X039704Y024692D01*
X039780Y024846D02*
X039320Y024846D01*
X039473Y024846D02*
X039780Y025153D01*
X039550Y024923D02*
X039320Y025153D01*
X039320Y024232D02*
X039320Y023925D01*
X039320Y024078D02*
X039780Y024078D01*
X039627Y023925D01*
X034027Y031200D02*
X034180Y031353D01*
X033720Y031353D01*
X033720Y031200D02*
X033720Y031507D01*
X033720Y031660D02*
X034180Y031660D01*
X034027Y031891D02*
X033873Y031660D01*
X033720Y031891D01*
D13*
X034701Y031718D03*
X034701Y031138D03*
X028201Y031138D03*
X028201Y031718D03*
X021701Y031718D03*
X021701Y031138D03*
X015201Y030888D03*
X015201Y031468D03*
X008701Y031718D03*
X008701Y031138D03*
X006951Y023968D03*
X006951Y023388D03*
X013451Y023388D03*
X013451Y023968D03*
X019951Y023968D03*
X019951Y023388D03*
X026451Y023388D03*
X026451Y023968D03*
X032951Y024218D03*
X032951Y023638D03*
X033449Y016972D03*
X033449Y016392D03*
X034449Y016392D03*
X034449Y016972D03*
X035449Y016972D03*
X035449Y016392D03*
X034699Y012972D03*
X033951Y012968D03*
X033951Y012388D03*
X034699Y012392D03*
D14*
X034276Y019319D02*
X034312Y019319D01*
X034311Y019318D02*
X034313Y019295D01*
X034319Y019273D01*
X034328Y019253D01*
X034341Y019234D01*
X034357Y019217D01*
X034375Y019203D01*
X034395Y019192D01*
X034416Y019185D01*
X034439Y019181D01*
X034461Y019181D01*
X034484Y019185D01*
X034505Y019192D01*
X034525Y019203D01*
X034543Y019217D01*
X034559Y019234D01*
X034572Y019253D01*
X034581Y019273D01*
X034587Y019295D01*
X034589Y019318D01*
X034624Y019319D01*
X034625Y019318D01*
X034623Y019292D01*
X034617Y019267D01*
X034607Y019243D01*
X034594Y019220D01*
X034578Y019200D01*
X034558Y019183D01*
X034537Y019168D01*
X034513Y019157D01*
X034489Y019149D01*
X034463Y019145D01*
X034437Y019145D01*
X034411Y019149D01*
X034387Y019157D01*
X034363Y019168D01*
X034342Y019183D01*
X034322Y019200D01*
X034306Y019220D01*
X034293Y019243D01*
X034283Y019267D01*
X034277Y019292D01*
X034275Y019318D01*
X034278Y019318D01*
X034280Y019293D01*
X034286Y019268D01*
X034296Y019244D01*
X034309Y019222D01*
X034325Y019202D01*
X034343Y019185D01*
X034365Y019171D01*
X034388Y019160D01*
X034412Y019152D01*
X034437Y019148D01*
X034463Y019148D01*
X034488Y019152D01*
X034512Y019160D01*
X034535Y019171D01*
X034557Y019185D01*
X034575Y019202D01*
X034591Y019222D01*
X034604Y019244D01*
X034614Y019268D01*
X034620Y019293D01*
X034622Y019318D01*
X034619Y019318D01*
X034617Y019293D01*
X034611Y019269D01*
X034602Y019245D01*
X034589Y019224D01*
X034573Y019204D01*
X034555Y019187D01*
X034534Y019173D01*
X034511Y019163D01*
X034487Y019155D01*
X034463Y019151D01*
X034437Y019151D01*
X034413Y019155D01*
X034389Y019163D01*
X034366Y019173D01*
X034345Y019187D01*
X034327Y019204D01*
X034311Y019224D01*
X034298Y019245D01*
X034289Y019269D01*
X034283Y019293D01*
X034281Y019318D01*
X034284Y019318D01*
X034286Y019293D01*
X034292Y019270D01*
X034301Y019247D01*
X034314Y019225D01*
X034329Y019206D01*
X034347Y019190D01*
X034368Y019176D01*
X034390Y019165D01*
X034413Y019158D01*
X034438Y019154D01*
X034462Y019154D01*
X034487Y019158D01*
X034510Y019165D01*
X034532Y019176D01*
X034553Y019190D01*
X034571Y019206D01*
X034586Y019225D01*
X034599Y019247D01*
X034608Y019270D01*
X034614Y019293D01*
X034616Y019318D01*
X034613Y019318D01*
X034611Y019294D01*
X034605Y019270D01*
X034596Y019248D01*
X034584Y019227D01*
X034569Y019208D01*
X034551Y019192D01*
X034531Y019179D01*
X034509Y019168D01*
X034486Y019161D01*
X034462Y019157D01*
X034438Y019157D01*
X034414Y019161D01*
X034391Y019168D01*
X034369Y019179D01*
X034349Y019192D01*
X034331Y019208D01*
X034316Y019227D01*
X034304Y019248D01*
X034295Y019270D01*
X034289Y019294D01*
X034287Y019318D01*
X034290Y019318D01*
X034292Y019293D01*
X034298Y019269D01*
X034308Y019246D01*
X034321Y019225D01*
X034338Y019206D01*
X034357Y019190D01*
X034378Y019177D01*
X034401Y019168D01*
X034425Y019162D01*
X034450Y019160D01*
X034475Y019162D01*
X034499Y019168D01*
X034522Y019177D01*
X034543Y019190D01*
X034562Y019206D01*
X034579Y019225D01*
X034592Y019246D01*
X034602Y019269D01*
X034608Y019293D01*
X034610Y019318D01*
X034607Y019318D01*
X034605Y019294D01*
X034599Y019270D01*
X034589Y019247D01*
X034576Y019227D01*
X034560Y019208D01*
X034542Y019193D01*
X034521Y019180D01*
X034498Y019171D01*
X034474Y019165D01*
X034450Y019163D01*
X034426Y019165D01*
X034402Y019171D01*
X034379Y019180D01*
X034358Y019193D01*
X034340Y019208D01*
X034324Y019227D01*
X034311Y019247D01*
X034301Y019270D01*
X034295Y019294D01*
X034293Y019318D01*
X034296Y019318D01*
X034298Y019294D01*
X034304Y019271D01*
X034313Y019249D01*
X034326Y019229D01*
X034342Y019210D01*
X034360Y019195D01*
X034381Y019183D01*
X034403Y019173D01*
X034426Y019168D01*
X034450Y019166D01*
X034474Y019168D01*
X034497Y019173D01*
X034519Y019183D01*
X034540Y019195D01*
X034558Y019210D01*
X034574Y019229D01*
X034587Y019249D01*
X034596Y019271D01*
X034602Y019294D01*
X034604Y019318D01*
X034601Y019318D01*
X034599Y019295D01*
X034593Y019272D01*
X034584Y019250D01*
X034571Y019230D01*
X034556Y019213D01*
X034538Y019197D01*
X034518Y019185D01*
X034496Y019176D01*
X034473Y019171D01*
X034450Y019169D01*
X034427Y019171D01*
X034404Y019176D01*
X034382Y019185D01*
X034362Y019197D01*
X034344Y019213D01*
X034329Y019230D01*
X034316Y019250D01*
X034307Y019272D01*
X034301Y019295D01*
X034299Y019318D01*
X034302Y019318D01*
X034304Y019295D01*
X034310Y019273D01*
X034319Y019252D01*
X034331Y019232D01*
X034346Y019215D01*
X034364Y019200D01*
X034383Y019188D01*
X034405Y019179D01*
X034427Y019174D01*
X034450Y019172D01*
X034473Y019174D01*
X034495Y019179D01*
X034517Y019188D01*
X034536Y019200D01*
X034554Y019215D01*
X034569Y019232D01*
X034581Y019252D01*
X034590Y019273D01*
X034596Y019295D01*
X034598Y019318D01*
X034595Y019318D01*
X034593Y019294D01*
X034587Y019271D01*
X034577Y019250D01*
X034564Y019230D01*
X034548Y019213D01*
X034529Y019198D01*
X034508Y019187D01*
X034485Y019179D01*
X034462Y019175D01*
X034438Y019175D01*
X034415Y019179D01*
X034392Y019187D01*
X034371Y019198D01*
X034352Y019213D01*
X034336Y019230D01*
X034323Y019250D01*
X034313Y019271D01*
X034307Y019294D01*
X034305Y019318D01*
X034308Y019318D01*
X034310Y019295D01*
X034316Y019272D01*
X034326Y019251D01*
X034339Y019232D01*
X034355Y019215D01*
X034373Y019201D01*
X034393Y019190D01*
X034415Y019182D01*
X034438Y019178D01*
X034462Y019178D01*
X034485Y019182D01*
X034507Y019190D01*
X034527Y019201D01*
X034545Y019215D01*
X034561Y019232D01*
X034574Y019251D01*
X034584Y019272D01*
X034590Y019295D01*
X034592Y019318D01*
X035276Y019319D02*
X035312Y019319D01*
X035311Y019318D02*
X035313Y019295D01*
X035319Y019273D01*
X035328Y019253D01*
X035341Y019234D01*
X035357Y019217D01*
X035375Y019203D01*
X035395Y019192D01*
X035416Y019185D01*
X035439Y019181D01*
X035461Y019181D01*
X035484Y019185D01*
X035505Y019192D01*
X035525Y019203D01*
X035543Y019217D01*
X035559Y019234D01*
X035572Y019253D01*
X035581Y019273D01*
X035587Y019295D01*
X035589Y019318D01*
X035624Y019319D01*
X035625Y019318D01*
X035623Y019292D01*
X035617Y019267D01*
X035607Y019243D01*
X035594Y019220D01*
X035578Y019200D01*
X035558Y019183D01*
X035537Y019168D01*
X035513Y019157D01*
X035489Y019149D01*
X035463Y019145D01*
X035437Y019145D01*
X035411Y019149D01*
X035387Y019157D01*
X035363Y019168D01*
X035342Y019183D01*
X035322Y019200D01*
X035306Y019220D01*
X035293Y019243D01*
X035283Y019267D01*
X035277Y019292D01*
X035275Y019318D01*
X035278Y019318D01*
X035280Y019293D01*
X035286Y019268D01*
X035296Y019244D01*
X035309Y019222D01*
X035325Y019202D01*
X035343Y019185D01*
X035365Y019171D01*
X035388Y019160D01*
X035412Y019152D01*
X035437Y019148D01*
X035463Y019148D01*
X035488Y019152D01*
X035512Y019160D01*
X035535Y019171D01*
X035557Y019185D01*
X035575Y019202D01*
X035591Y019222D01*
X035604Y019244D01*
X035614Y019268D01*
X035620Y019293D01*
X035622Y019318D01*
X035619Y019318D01*
X035617Y019293D01*
X035611Y019269D01*
X035602Y019245D01*
X035589Y019224D01*
X035573Y019204D01*
X035555Y019187D01*
X035534Y019173D01*
X035511Y019163D01*
X035487Y019155D01*
X035463Y019151D01*
X035437Y019151D01*
X035413Y019155D01*
X035389Y019163D01*
X035366Y019173D01*
X035345Y019187D01*
X035327Y019204D01*
X035311Y019224D01*
X035298Y019245D01*
X035289Y019269D01*
X035283Y019293D01*
X035281Y019318D01*
X035284Y019318D01*
X035286Y019293D01*
X035292Y019270D01*
X035301Y019247D01*
X035314Y019225D01*
X035329Y019206D01*
X035347Y019190D01*
X035368Y019176D01*
X035390Y019165D01*
X035413Y019158D01*
X035438Y019154D01*
X035462Y019154D01*
X035487Y019158D01*
X035510Y019165D01*
X035532Y019176D01*
X035553Y019190D01*
X035571Y019206D01*
X035586Y019225D01*
X035599Y019247D01*
X035608Y019270D01*
X035614Y019293D01*
X035616Y019318D01*
X035613Y019318D01*
X035611Y019294D01*
X035605Y019270D01*
X035596Y019248D01*
X035584Y019227D01*
X035569Y019208D01*
X035551Y019192D01*
X035531Y019179D01*
X035509Y019168D01*
X035486Y019161D01*
X035462Y019157D01*
X035438Y019157D01*
X035414Y019161D01*
X035391Y019168D01*
X035369Y019179D01*
X035349Y019192D01*
X035331Y019208D01*
X035316Y019227D01*
X035304Y019248D01*
X035295Y019270D01*
X035289Y019294D01*
X035287Y019318D01*
X035290Y019318D01*
X035292Y019293D01*
X035298Y019269D01*
X035308Y019246D01*
X035321Y019225D01*
X035338Y019206D01*
X035357Y019190D01*
X035378Y019177D01*
X035401Y019168D01*
X035425Y019162D01*
X035450Y019160D01*
X035475Y019162D01*
X035499Y019168D01*
X035522Y019177D01*
X035543Y019190D01*
X035562Y019206D01*
X035579Y019225D01*
X035592Y019246D01*
X035602Y019269D01*
X035608Y019293D01*
X035610Y019318D01*
X035607Y019318D01*
X035605Y019294D01*
X035599Y019270D01*
X035589Y019247D01*
X035576Y019227D01*
X035560Y019208D01*
X035542Y019193D01*
X035521Y019180D01*
X035498Y019171D01*
X035474Y019165D01*
X035450Y019163D01*
X035426Y019165D01*
X035402Y019171D01*
X035379Y019180D01*
X035358Y019193D01*
X035340Y019208D01*
X035324Y019227D01*
X035311Y019247D01*
X035301Y019270D01*
X035295Y019294D01*
X035293Y019318D01*
X035296Y019318D01*
X035298Y019294D01*
X035304Y019271D01*
X035313Y019249D01*
X035326Y019229D01*
X035342Y019210D01*
X035360Y019195D01*
X035381Y019183D01*
X035403Y019173D01*
X035426Y019168D01*
X035450Y019166D01*
X035474Y019168D01*
X035497Y019173D01*
X035519Y019183D01*
X035540Y019195D01*
X035558Y019210D01*
X035574Y019229D01*
X035587Y019249D01*
X035596Y019271D01*
X035602Y019294D01*
X035604Y019318D01*
X035601Y019318D01*
X035599Y019295D01*
X035593Y019272D01*
X035584Y019250D01*
X035571Y019230D01*
X035556Y019213D01*
X035538Y019197D01*
X035518Y019185D01*
X035496Y019176D01*
X035473Y019171D01*
X035450Y019169D01*
X035427Y019171D01*
X035404Y019176D01*
X035382Y019185D01*
X035362Y019197D01*
X035344Y019213D01*
X035329Y019230D01*
X035316Y019250D01*
X035307Y019272D01*
X035301Y019295D01*
X035299Y019318D01*
X035302Y019318D01*
X035304Y019295D01*
X035310Y019273D01*
X035319Y019252D01*
X035331Y019232D01*
X035346Y019215D01*
X035364Y019200D01*
X035383Y019188D01*
X035405Y019179D01*
X035427Y019174D01*
X035450Y019172D01*
X035473Y019174D01*
X035495Y019179D01*
X035517Y019188D01*
X035536Y019200D01*
X035554Y019215D01*
X035569Y019232D01*
X035581Y019252D01*
X035590Y019273D01*
X035596Y019295D01*
X035598Y019318D01*
X035595Y019318D01*
X035593Y019294D01*
X035587Y019271D01*
X035577Y019250D01*
X035564Y019230D01*
X035548Y019213D01*
X035529Y019198D01*
X035508Y019187D01*
X035485Y019179D01*
X035462Y019175D01*
X035438Y019175D01*
X035415Y019179D01*
X035392Y019187D01*
X035371Y019198D01*
X035352Y019213D01*
X035336Y019230D01*
X035323Y019250D01*
X035313Y019271D01*
X035307Y019294D01*
X035305Y019318D01*
X035308Y019318D01*
X035310Y019295D01*
X035316Y019272D01*
X035326Y019251D01*
X035339Y019232D01*
X035355Y019215D01*
X035373Y019201D01*
X035393Y019190D01*
X035415Y019182D01*
X035438Y019178D01*
X035462Y019178D01*
X035485Y019182D01*
X035507Y019190D01*
X035527Y019201D01*
X035545Y019215D01*
X035561Y019232D01*
X035574Y019251D01*
X035584Y019272D01*
X035590Y019295D01*
X035592Y019318D01*
X033276Y019319D02*
X033312Y019319D01*
X033311Y019318D02*
X033313Y019295D01*
X033319Y019273D01*
X033328Y019253D01*
X033341Y019234D01*
X033357Y019217D01*
X033375Y019203D01*
X033395Y019192D01*
X033416Y019185D01*
X033439Y019181D01*
X033461Y019181D01*
X033484Y019185D01*
X033505Y019192D01*
X033525Y019203D01*
X033543Y019217D01*
X033559Y019234D01*
X033572Y019253D01*
X033581Y019273D01*
X033587Y019295D01*
X033589Y019318D01*
X033624Y019319D01*
X033625Y019318D01*
X033623Y019292D01*
X033617Y019267D01*
X033607Y019243D01*
X033594Y019220D01*
X033578Y019200D01*
X033558Y019183D01*
X033537Y019168D01*
X033513Y019157D01*
X033489Y019149D01*
X033463Y019145D01*
X033437Y019145D01*
X033411Y019149D01*
X033387Y019157D01*
X033363Y019168D01*
X033342Y019183D01*
X033322Y019200D01*
X033306Y019220D01*
X033293Y019243D01*
X033283Y019267D01*
X033277Y019292D01*
X033275Y019318D01*
X033278Y019318D01*
X033280Y019293D01*
X033286Y019268D01*
X033296Y019244D01*
X033309Y019222D01*
X033325Y019202D01*
X033343Y019185D01*
X033365Y019171D01*
X033388Y019160D01*
X033412Y019152D01*
X033437Y019148D01*
X033463Y019148D01*
X033488Y019152D01*
X033512Y019160D01*
X033535Y019171D01*
X033557Y019185D01*
X033575Y019202D01*
X033591Y019222D01*
X033604Y019244D01*
X033614Y019268D01*
X033620Y019293D01*
X033622Y019318D01*
X033619Y019318D01*
X033617Y019293D01*
X033611Y019269D01*
X033602Y019245D01*
X033589Y019224D01*
X033573Y019204D01*
X033555Y019187D01*
X033534Y019173D01*
X033511Y019163D01*
X033487Y019155D01*
X033463Y019151D01*
X033437Y019151D01*
X033413Y019155D01*
X033389Y019163D01*
X033366Y019173D01*
X033345Y019187D01*
X033327Y019204D01*
X033311Y019224D01*
X033298Y019245D01*
X033289Y019269D01*
X033283Y019293D01*
X033281Y019318D01*
X033284Y019318D01*
X033286Y019293D01*
X033292Y019270D01*
X033301Y019247D01*
X033314Y019225D01*
X033329Y019206D01*
X033347Y019190D01*
X033368Y019176D01*
X033390Y019165D01*
X033413Y019158D01*
X033438Y019154D01*
X033462Y019154D01*
X033487Y019158D01*
X033510Y019165D01*
X033532Y019176D01*
X033553Y019190D01*
X033571Y019206D01*
X033586Y019225D01*
X033599Y019247D01*
X033608Y019270D01*
X033614Y019293D01*
X033616Y019318D01*
X033613Y019318D01*
X033611Y019294D01*
X033605Y019270D01*
X033596Y019248D01*
X033584Y019227D01*
X033569Y019208D01*
X033551Y019192D01*
X033531Y019179D01*
X033509Y019168D01*
X033486Y019161D01*
X033462Y019157D01*
X033438Y019157D01*
X033414Y019161D01*
X033391Y019168D01*
X033369Y019179D01*
X033349Y019192D01*
X033331Y019208D01*
X033316Y019227D01*
X033304Y019248D01*
X033295Y019270D01*
X033289Y019294D01*
X033287Y019318D01*
X033290Y019318D01*
X033292Y019293D01*
X033298Y019269D01*
X033308Y019246D01*
X033321Y019225D01*
X033338Y019206D01*
X033357Y019190D01*
X033378Y019177D01*
X033401Y019168D01*
X033425Y019162D01*
X033450Y019160D01*
X033475Y019162D01*
X033499Y019168D01*
X033522Y019177D01*
X033543Y019190D01*
X033562Y019206D01*
X033579Y019225D01*
X033592Y019246D01*
X033602Y019269D01*
X033608Y019293D01*
X033610Y019318D01*
X033607Y019318D01*
X033605Y019294D01*
X033599Y019270D01*
X033589Y019247D01*
X033576Y019227D01*
X033560Y019208D01*
X033542Y019193D01*
X033521Y019180D01*
X033498Y019171D01*
X033474Y019165D01*
X033450Y019163D01*
X033426Y019165D01*
X033402Y019171D01*
X033379Y019180D01*
X033358Y019193D01*
X033340Y019208D01*
X033324Y019227D01*
X033311Y019247D01*
X033301Y019270D01*
X033295Y019294D01*
X033293Y019318D01*
X033296Y019318D01*
X033298Y019294D01*
X033304Y019271D01*
X033313Y019249D01*
X033326Y019229D01*
X033342Y019210D01*
X033360Y019195D01*
X033381Y019183D01*
X033403Y019173D01*
X033426Y019168D01*
X033450Y019166D01*
X033474Y019168D01*
X033497Y019173D01*
X033519Y019183D01*
X033540Y019195D01*
X033558Y019210D01*
X033574Y019229D01*
X033587Y019249D01*
X033596Y019271D01*
X033602Y019294D01*
X033604Y019318D01*
X033601Y019318D01*
X033599Y019295D01*
X033593Y019272D01*
X033584Y019250D01*
X033571Y019230D01*
X033556Y019213D01*
X033538Y019197D01*
X033518Y019185D01*
X033496Y019176D01*
X033473Y019171D01*
X033450Y019169D01*
X033427Y019171D01*
X033404Y019176D01*
X033382Y019185D01*
X033362Y019197D01*
X033344Y019213D01*
X033329Y019230D01*
X033316Y019250D01*
X033307Y019272D01*
X033301Y019295D01*
X033299Y019318D01*
X033302Y019318D01*
X033304Y019295D01*
X033310Y019273D01*
X033319Y019252D01*
X033331Y019232D01*
X033346Y019215D01*
X033364Y019200D01*
X033383Y019188D01*
X033405Y019179D01*
X033427Y019174D01*
X033450Y019172D01*
X033473Y019174D01*
X033495Y019179D01*
X033517Y019188D01*
X033536Y019200D01*
X033554Y019215D01*
X033569Y019232D01*
X033581Y019252D01*
X033590Y019273D01*
X033596Y019295D01*
X033598Y019318D01*
X033595Y019318D01*
X033593Y019294D01*
X033587Y019271D01*
X033577Y019250D01*
X033564Y019230D01*
X033548Y019213D01*
X033529Y019198D01*
X033508Y019187D01*
X033485Y019179D01*
X033462Y019175D01*
X033438Y019175D01*
X033415Y019179D01*
X033392Y019187D01*
X033371Y019198D01*
X033352Y019213D01*
X033336Y019230D01*
X033323Y019250D01*
X033313Y019271D01*
X033307Y019294D01*
X033305Y019318D01*
X033308Y019318D01*
X033310Y019295D01*
X033316Y019272D01*
X033326Y019251D01*
X033339Y019232D01*
X033355Y019215D01*
X033373Y019201D01*
X033393Y019190D01*
X033415Y019182D01*
X033438Y019178D01*
X033462Y019178D01*
X033485Y019182D01*
X033507Y019190D01*
X033527Y019201D01*
X033545Y019215D01*
X033561Y019232D01*
X033574Y019251D01*
X033584Y019272D01*
X033590Y019295D01*
X033592Y019318D01*
X030436Y023381D02*
X030436Y023417D01*
X030437Y023416D02*
X030460Y023418D01*
X030482Y023424D01*
X030502Y023433D01*
X030521Y023446D01*
X030538Y023462D01*
X030552Y023480D01*
X030563Y023500D01*
X030570Y023521D01*
X030574Y023544D01*
X030574Y023566D01*
X030570Y023589D01*
X030563Y023610D01*
X030552Y023630D01*
X030538Y023648D01*
X030521Y023664D01*
X030502Y023677D01*
X030482Y023686D01*
X030460Y023692D01*
X030437Y023694D01*
X030436Y023729D01*
X030437Y023730D01*
X030463Y023728D01*
X030488Y023722D01*
X030512Y023712D01*
X030535Y023699D01*
X030555Y023683D01*
X030572Y023663D01*
X030587Y023642D01*
X030598Y023618D01*
X030606Y023594D01*
X030610Y023568D01*
X030610Y023542D01*
X030606Y023516D01*
X030598Y023492D01*
X030587Y023468D01*
X030572Y023447D01*
X030555Y023427D01*
X030535Y023411D01*
X030512Y023398D01*
X030488Y023388D01*
X030463Y023382D01*
X030437Y023380D01*
X030437Y023383D01*
X030462Y023385D01*
X030487Y023391D01*
X030511Y023401D01*
X030533Y023414D01*
X030553Y023430D01*
X030570Y023448D01*
X030584Y023470D01*
X030595Y023493D01*
X030603Y023517D01*
X030607Y023542D01*
X030607Y023568D01*
X030603Y023593D01*
X030595Y023617D01*
X030584Y023640D01*
X030570Y023662D01*
X030553Y023680D01*
X030533Y023696D01*
X030511Y023709D01*
X030487Y023719D01*
X030462Y023725D01*
X030437Y023727D01*
X030437Y023724D01*
X030462Y023722D01*
X030486Y023716D01*
X030510Y023707D01*
X030531Y023694D01*
X030551Y023678D01*
X030568Y023660D01*
X030582Y023639D01*
X030592Y023616D01*
X030600Y023592D01*
X030604Y023568D01*
X030604Y023542D01*
X030600Y023518D01*
X030592Y023494D01*
X030582Y023471D01*
X030568Y023450D01*
X030551Y023432D01*
X030531Y023416D01*
X030510Y023403D01*
X030486Y023394D01*
X030462Y023388D01*
X030437Y023386D01*
X030437Y023389D01*
X030462Y023391D01*
X030485Y023397D01*
X030508Y023406D01*
X030530Y023419D01*
X030549Y023434D01*
X030565Y023452D01*
X030579Y023473D01*
X030590Y023495D01*
X030597Y023518D01*
X030601Y023543D01*
X030601Y023567D01*
X030597Y023592D01*
X030590Y023615D01*
X030579Y023637D01*
X030565Y023658D01*
X030549Y023676D01*
X030530Y023691D01*
X030508Y023704D01*
X030485Y023713D01*
X030462Y023719D01*
X030437Y023721D01*
X030437Y023718D01*
X030461Y023716D01*
X030485Y023710D01*
X030507Y023701D01*
X030528Y023689D01*
X030547Y023674D01*
X030563Y023656D01*
X030576Y023636D01*
X030587Y023614D01*
X030594Y023591D01*
X030598Y023567D01*
X030598Y023543D01*
X030594Y023519D01*
X030587Y023496D01*
X030576Y023474D01*
X030563Y023454D01*
X030547Y023436D01*
X030528Y023421D01*
X030507Y023409D01*
X030485Y023400D01*
X030461Y023394D01*
X030437Y023392D01*
X030437Y023395D01*
X030462Y023397D01*
X030486Y023403D01*
X030509Y023413D01*
X030530Y023426D01*
X030549Y023443D01*
X030565Y023462D01*
X030578Y023483D01*
X030587Y023506D01*
X030593Y023530D01*
X030595Y023555D01*
X030593Y023580D01*
X030587Y023604D01*
X030578Y023627D01*
X030565Y023648D01*
X030549Y023667D01*
X030530Y023684D01*
X030509Y023697D01*
X030486Y023707D01*
X030462Y023713D01*
X030437Y023715D01*
X030437Y023712D01*
X030461Y023710D01*
X030485Y023704D01*
X030508Y023694D01*
X030528Y023681D01*
X030547Y023665D01*
X030562Y023647D01*
X030575Y023626D01*
X030584Y023603D01*
X030590Y023579D01*
X030592Y023555D01*
X030590Y023531D01*
X030584Y023507D01*
X030575Y023484D01*
X030562Y023463D01*
X030547Y023445D01*
X030528Y023429D01*
X030508Y023416D01*
X030485Y023406D01*
X030461Y023400D01*
X030437Y023398D01*
X030437Y023401D01*
X030461Y023403D01*
X030484Y023409D01*
X030506Y023418D01*
X030526Y023431D01*
X030545Y023447D01*
X030560Y023465D01*
X030572Y023486D01*
X030582Y023508D01*
X030587Y023531D01*
X030589Y023555D01*
X030587Y023579D01*
X030582Y023602D01*
X030572Y023624D01*
X030560Y023645D01*
X030545Y023663D01*
X030526Y023679D01*
X030506Y023692D01*
X030484Y023701D01*
X030461Y023707D01*
X030437Y023709D01*
X030437Y023706D01*
X030460Y023704D01*
X030483Y023698D01*
X030505Y023689D01*
X030525Y023676D01*
X030542Y023661D01*
X030558Y023643D01*
X030570Y023623D01*
X030579Y023601D01*
X030584Y023578D01*
X030586Y023555D01*
X030584Y023532D01*
X030579Y023509D01*
X030570Y023487D01*
X030558Y023467D01*
X030542Y023449D01*
X030525Y023434D01*
X030505Y023421D01*
X030483Y023412D01*
X030460Y023406D01*
X030437Y023404D01*
X030437Y023407D01*
X030460Y023409D01*
X030482Y023415D01*
X030503Y023424D01*
X030523Y023436D01*
X030540Y023451D01*
X030555Y023469D01*
X030567Y023488D01*
X030576Y023510D01*
X030581Y023532D01*
X030583Y023555D01*
X030581Y023578D01*
X030576Y023600D01*
X030567Y023622D01*
X030555Y023641D01*
X030540Y023659D01*
X030523Y023674D01*
X030503Y023686D01*
X030482Y023695D01*
X030460Y023701D01*
X030437Y023703D01*
X030437Y023700D01*
X030461Y023698D01*
X030484Y023692D01*
X030505Y023682D01*
X030525Y023669D01*
X030542Y023653D01*
X030557Y023634D01*
X030568Y023613D01*
X030576Y023590D01*
X030580Y023567D01*
X030580Y023543D01*
X030576Y023520D01*
X030568Y023497D01*
X030557Y023476D01*
X030542Y023457D01*
X030525Y023441D01*
X030505Y023428D01*
X030484Y023418D01*
X030461Y023412D01*
X030437Y023410D01*
X030437Y023413D01*
X030460Y023415D01*
X030483Y023421D01*
X030504Y023431D01*
X030523Y023444D01*
X030540Y023460D01*
X030554Y023478D01*
X030565Y023498D01*
X030573Y023520D01*
X030577Y023543D01*
X030577Y023567D01*
X030573Y023590D01*
X030565Y023612D01*
X030554Y023632D01*
X030540Y023650D01*
X030523Y023666D01*
X030504Y023679D01*
X030483Y023689D01*
X030460Y023695D01*
X030437Y023697D01*
X023811Y023256D02*
X023811Y023292D01*
X023812Y023291D02*
X023835Y023293D01*
X023857Y023299D01*
X023877Y023308D01*
X023896Y023321D01*
X023913Y023337D01*
X023927Y023355D01*
X023938Y023375D01*
X023945Y023396D01*
X023949Y023419D01*
X023949Y023441D01*
X023945Y023464D01*
X023938Y023485D01*
X023927Y023505D01*
X023913Y023523D01*
X023896Y023539D01*
X023877Y023552D01*
X023857Y023561D01*
X023835Y023567D01*
X023812Y023569D01*
X023811Y023604D01*
X023812Y023605D01*
X023838Y023603D01*
X023863Y023597D01*
X023887Y023587D01*
X023910Y023574D01*
X023930Y023558D01*
X023947Y023538D01*
X023962Y023517D01*
X023973Y023493D01*
X023981Y023469D01*
X023985Y023443D01*
X023985Y023417D01*
X023981Y023391D01*
X023973Y023367D01*
X023962Y023343D01*
X023947Y023322D01*
X023930Y023302D01*
X023910Y023286D01*
X023887Y023273D01*
X023863Y023263D01*
X023838Y023257D01*
X023812Y023255D01*
X023812Y023258D01*
X023837Y023260D01*
X023862Y023266D01*
X023886Y023276D01*
X023908Y023289D01*
X023928Y023305D01*
X023945Y023323D01*
X023959Y023345D01*
X023970Y023368D01*
X023978Y023392D01*
X023982Y023417D01*
X023982Y023443D01*
X023978Y023468D01*
X023970Y023492D01*
X023959Y023515D01*
X023945Y023537D01*
X023928Y023555D01*
X023908Y023571D01*
X023886Y023584D01*
X023862Y023594D01*
X023837Y023600D01*
X023812Y023602D01*
X023812Y023599D01*
X023837Y023597D01*
X023861Y023591D01*
X023885Y023582D01*
X023906Y023569D01*
X023926Y023553D01*
X023943Y023535D01*
X023957Y023514D01*
X023967Y023491D01*
X023975Y023467D01*
X023979Y023443D01*
X023979Y023417D01*
X023975Y023393D01*
X023967Y023369D01*
X023957Y023346D01*
X023943Y023325D01*
X023926Y023307D01*
X023906Y023291D01*
X023885Y023278D01*
X023861Y023269D01*
X023837Y023263D01*
X023812Y023261D01*
X023812Y023264D01*
X023837Y023266D01*
X023860Y023272D01*
X023883Y023281D01*
X023905Y023294D01*
X023924Y023309D01*
X023940Y023327D01*
X023954Y023348D01*
X023965Y023370D01*
X023972Y023393D01*
X023976Y023418D01*
X023976Y023442D01*
X023972Y023467D01*
X023965Y023490D01*
X023954Y023512D01*
X023940Y023533D01*
X023924Y023551D01*
X023905Y023566D01*
X023883Y023579D01*
X023860Y023588D01*
X023837Y023594D01*
X023812Y023596D01*
X023812Y023593D01*
X023836Y023591D01*
X023860Y023585D01*
X023882Y023576D01*
X023903Y023564D01*
X023922Y023549D01*
X023938Y023531D01*
X023951Y023511D01*
X023962Y023489D01*
X023969Y023466D01*
X023973Y023442D01*
X023973Y023418D01*
X023969Y023394D01*
X023962Y023371D01*
X023951Y023349D01*
X023938Y023329D01*
X023922Y023311D01*
X023903Y023296D01*
X023882Y023284D01*
X023860Y023275D01*
X023836Y023269D01*
X023812Y023267D01*
X023812Y023270D01*
X023837Y023272D01*
X023861Y023278D01*
X023884Y023288D01*
X023905Y023301D01*
X023924Y023318D01*
X023940Y023337D01*
X023953Y023358D01*
X023962Y023381D01*
X023968Y023405D01*
X023970Y023430D01*
X023968Y023455D01*
X023962Y023479D01*
X023953Y023502D01*
X023940Y023523D01*
X023924Y023542D01*
X023905Y023559D01*
X023884Y023572D01*
X023861Y023582D01*
X023837Y023588D01*
X023812Y023590D01*
X023812Y023587D01*
X023836Y023585D01*
X023860Y023579D01*
X023883Y023569D01*
X023903Y023556D01*
X023922Y023540D01*
X023937Y023522D01*
X023950Y023501D01*
X023959Y023478D01*
X023965Y023454D01*
X023967Y023430D01*
X023965Y023406D01*
X023959Y023382D01*
X023950Y023359D01*
X023937Y023338D01*
X023922Y023320D01*
X023903Y023304D01*
X023883Y023291D01*
X023860Y023281D01*
X023836Y023275D01*
X023812Y023273D01*
X023812Y023276D01*
X023836Y023278D01*
X023859Y023284D01*
X023881Y023293D01*
X023901Y023306D01*
X023920Y023322D01*
X023935Y023340D01*
X023947Y023361D01*
X023957Y023383D01*
X023962Y023406D01*
X023964Y023430D01*
X023962Y023454D01*
X023957Y023477D01*
X023947Y023499D01*
X023935Y023520D01*
X023920Y023538D01*
X023901Y023554D01*
X023881Y023567D01*
X023859Y023576D01*
X023836Y023582D01*
X023812Y023584D01*
X023812Y023581D01*
X023835Y023579D01*
X023858Y023573D01*
X023880Y023564D01*
X023900Y023551D01*
X023917Y023536D01*
X023933Y023518D01*
X023945Y023498D01*
X023954Y023476D01*
X023959Y023453D01*
X023961Y023430D01*
X023959Y023407D01*
X023954Y023384D01*
X023945Y023362D01*
X023933Y023342D01*
X023917Y023324D01*
X023900Y023309D01*
X023880Y023296D01*
X023858Y023287D01*
X023835Y023281D01*
X023812Y023279D01*
X023812Y023282D01*
X023835Y023284D01*
X023857Y023290D01*
X023878Y023299D01*
X023898Y023311D01*
X023915Y023326D01*
X023930Y023344D01*
X023942Y023363D01*
X023951Y023385D01*
X023956Y023407D01*
X023958Y023430D01*
X023956Y023453D01*
X023951Y023475D01*
X023942Y023497D01*
X023930Y023516D01*
X023915Y023534D01*
X023898Y023549D01*
X023878Y023561D01*
X023857Y023570D01*
X023835Y023576D01*
X023812Y023578D01*
X023812Y023575D01*
X023836Y023573D01*
X023859Y023567D01*
X023880Y023557D01*
X023900Y023544D01*
X023917Y023528D01*
X023932Y023509D01*
X023943Y023488D01*
X023951Y023465D01*
X023955Y023442D01*
X023955Y023418D01*
X023951Y023395D01*
X023943Y023372D01*
X023932Y023351D01*
X023917Y023332D01*
X023900Y023316D01*
X023880Y023303D01*
X023859Y023293D01*
X023836Y023287D01*
X023812Y023285D01*
X023812Y023288D01*
X023835Y023290D01*
X023858Y023296D01*
X023879Y023306D01*
X023898Y023319D01*
X023915Y023335D01*
X023929Y023353D01*
X023940Y023373D01*
X023948Y023395D01*
X023952Y023418D01*
X023952Y023442D01*
X023948Y023465D01*
X023940Y023487D01*
X023929Y023507D01*
X023915Y023525D01*
X023898Y023541D01*
X023879Y023554D01*
X023858Y023564D01*
X023835Y023570D01*
X023812Y023572D01*
X017311Y023256D02*
X017311Y023292D01*
X017312Y023291D02*
X017335Y023293D01*
X017357Y023299D01*
X017377Y023308D01*
X017396Y023321D01*
X017413Y023337D01*
X017427Y023355D01*
X017438Y023375D01*
X017445Y023396D01*
X017449Y023419D01*
X017449Y023441D01*
X017445Y023464D01*
X017438Y023485D01*
X017427Y023505D01*
X017413Y023523D01*
X017396Y023539D01*
X017377Y023552D01*
X017357Y023561D01*
X017335Y023567D01*
X017312Y023569D01*
X017311Y023604D01*
X017312Y023605D01*
X017338Y023603D01*
X017363Y023597D01*
X017387Y023587D01*
X017410Y023574D01*
X017430Y023558D01*
X017447Y023538D01*
X017462Y023517D01*
X017473Y023493D01*
X017481Y023469D01*
X017485Y023443D01*
X017485Y023417D01*
X017481Y023391D01*
X017473Y023367D01*
X017462Y023343D01*
X017447Y023322D01*
X017430Y023302D01*
X017410Y023286D01*
X017387Y023273D01*
X017363Y023263D01*
X017338Y023257D01*
X017312Y023255D01*
X017312Y023258D01*
X017337Y023260D01*
X017362Y023266D01*
X017386Y023276D01*
X017408Y023289D01*
X017428Y023305D01*
X017445Y023323D01*
X017459Y023345D01*
X017470Y023368D01*
X017478Y023392D01*
X017482Y023417D01*
X017482Y023443D01*
X017478Y023468D01*
X017470Y023492D01*
X017459Y023515D01*
X017445Y023537D01*
X017428Y023555D01*
X017408Y023571D01*
X017386Y023584D01*
X017362Y023594D01*
X017337Y023600D01*
X017312Y023602D01*
X017312Y023599D01*
X017337Y023597D01*
X017361Y023591D01*
X017385Y023582D01*
X017406Y023569D01*
X017426Y023553D01*
X017443Y023535D01*
X017457Y023514D01*
X017467Y023491D01*
X017475Y023467D01*
X017479Y023443D01*
X017479Y023417D01*
X017475Y023393D01*
X017467Y023369D01*
X017457Y023346D01*
X017443Y023325D01*
X017426Y023307D01*
X017406Y023291D01*
X017385Y023278D01*
X017361Y023269D01*
X017337Y023263D01*
X017312Y023261D01*
X017312Y023264D01*
X017337Y023266D01*
X017360Y023272D01*
X017383Y023281D01*
X017405Y023294D01*
X017424Y023309D01*
X017440Y023327D01*
X017454Y023348D01*
X017465Y023370D01*
X017472Y023393D01*
X017476Y023418D01*
X017476Y023442D01*
X017472Y023467D01*
X017465Y023490D01*
X017454Y023512D01*
X017440Y023533D01*
X017424Y023551D01*
X017405Y023566D01*
X017383Y023579D01*
X017360Y023588D01*
X017337Y023594D01*
X017312Y023596D01*
X017312Y023593D01*
X017336Y023591D01*
X017360Y023585D01*
X017382Y023576D01*
X017403Y023564D01*
X017422Y023549D01*
X017438Y023531D01*
X017451Y023511D01*
X017462Y023489D01*
X017469Y023466D01*
X017473Y023442D01*
X017473Y023418D01*
X017469Y023394D01*
X017462Y023371D01*
X017451Y023349D01*
X017438Y023329D01*
X017422Y023311D01*
X017403Y023296D01*
X017382Y023284D01*
X017360Y023275D01*
X017336Y023269D01*
X017312Y023267D01*
X017312Y023270D01*
X017337Y023272D01*
X017361Y023278D01*
X017384Y023288D01*
X017405Y023301D01*
X017424Y023318D01*
X017440Y023337D01*
X017453Y023358D01*
X017462Y023381D01*
X017468Y023405D01*
X017470Y023430D01*
X017468Y023455D01*
X017462Y023479D01*
X017453Y023502D01*
X017440Y023523D01*
X017424Y023542D01*
X017405Y023559D01*
X017384Y023572D01*
X017361Y023582D01*
X017337Y023588D01*
X017312Y023590D01*
X017312Y023587D01*
X017336Y023585D01*
X017360Y023579D01*
X017383Y023569D01*
X017403Y023556D01*
X017422Y023540D01*
X017437Y023522D01*
X017450Y023501D01*
X017459Y023478D01*
X017465Y023454D01*
X017467Y023430D01*
X017465Y023406D01*
X017459Y023382D01*
X017450Y023359D01*
X017437Y023338D01*
X017422Y023320D01*
X017403Y023304D01*
X017383Y023291D01*
X017360Y023281D01*
X017336Y023275D01*
X017312Y023273D01*
X017312Y023276D01*
X017336Y023278D01*
X017359Y023284D01*
X017381Y023293D01*
X017401Y023306D01*
X017420Y023322D01*
X017435Y023340D01*
X017447Y023361D01*
X017457Y023383D01*
X017462Y023406D01*
X017464Y023430D01*
X017462Y023454D01*
X017457Y023477D01*
X017447Y023499D01*
X017435Y023520D01*
X017420Y023538D01*
X017401Y023554D01*
X017381Y023567D01*
X017359Y023576D01*
X017336Y023582D01*
X017312Y023584D01*
X017312Y023581D01*
X017335Y023579D01*
X017358Y023573D01*
X017380Y023564D01*
X017400Y023551D01*
X017417Y023536D01*
X017433Y023518D01*
X017445Y023498D01*
X017454Y023476D01*
X017459Y023453D01*
X017461Y023430D01*
X017459Y023407D01*
X017454Y023384D01*
X017445Y023362D01*
X017433Y023342D01*
X017417Y023324D01*
X017400Y023309D01*
X017380Y023296D01*
X017358Y023287D01*
X017335Y023281D01*
X017312Y023279D01*
X017312Y023282D01*
X017335Y023284D01*
X017357Y023290D01*
X017378Y023299D01*
X017398Y023311D01*
X017415Y023326D01*
X017430Y023344D01*
X017442Y023363D01*
X017451Y023385D01*
X017456Y023407D01*
X017458Y023430D01*
X017456Y023453D01*
X017451Y023475D01*
X017442Y023497D01*
X017430Y023516D01*
X017415Y023534D01*
X017398Y023549D01*
X017378Y023561D01*
X017357Y023570D01*
X017335Y023576D01*
X017312Y023578D01*
X017312Y023575D01*
X017336Y023573D01*
X017359Y023567D01*
X017380Y023557D01*
X017400Y023544D01*
X017417Y023528D01*
X017432Y023509D01*
X017443Y023488D01*
X017451Y023465D01*
X017455Y023442D01*
X017455Y023418D01*
X017451Y023395D01*
X017443Y023372D01*
X017432Y023351D01*
X017417Y023332D01*
X017400Y023316D01*
X017380Y023303D01*
X017359Y023293D01*
X017336Y023287D01*
X017312Y023285D01*
X017312Y023288D01*
X017335Y023290D01*
X017358Y023296D01*
X017379Y023306D01*
X017398Y023319D01*
X017415Y023335D01*
X017429Y023353D01*
X017440Y023373D01*
X017448Y023395D01*
X017452Y023418D01*
X017452Y023442D01*
X017448Y023465D01*
X017440Y023487D01*
X017429Y023507D01*
X017415Y023525D01*
X017398Y023541D01*
X017379Y023554D01*
X017358Y023564D01*
X017335Y023570D01*
X017312Y023572D01*
X010811Y023256D02*
X010811Y023292D01*
X010812Y023291D02*
X010835Y023293D01*
X010857Y023299D01*
X010877Y023308D01*
X010896Y023321D01*
X010913Y023337D01*
X010927Y023355D01*
X010938Y023375D01*
X010945Y023396D01*
X010949Y023419D01*
X010949Y023441D01*
X010945Y023464D01*
X010938Y023485D01*
X010927Y023505D01*
X010913Y023523D01*
X010896Y023539D01*
X010877Y023552D01*
X010857Y023561D01*
X010835Y023567D01*
X010812Y023569D01*
X010811Y023604D01*
X010812Y023605D01*
X010838Y023603D01*
X010863Y023597D01*
X010887Y023587D01*
X010910Y023574D01*
X010930Y023558D01*
X010947Y023538D01*
X010962Y023517D01*
X010973Y023493D01*
X010981Y023469D01*
X010985Y023443D01*
X010985Y023417D01*
X010981Y023391D01*
X010973Y023367D01*
X010962Y023343D01*
X010947Y023322D01*
X010930Y023302D01*
X010910Y023286D01*
X010887Y023273D01*
X010863Y023263D01*
X010838Y023257D01*
X010812Y023255D01*
X010812Y023258D01*
X010837Y023260D01*
X010862Y023266D01*
X010886Y023276D01*
X010908Y023289D01*
X010928Y023305D01*
X010945Y023323D01*
X010959Y023345D01*
X010970Y023368D01*
X010978Y023392D01*
X010982Y023417D01*
X010982Y023443D01*
X010978Y023468D01*
X010970Y023492D01*
X010959Y023515D01*
X010945Y023537D01*
X010928Y023555D01*
X010908Y023571D01*
X010886Y023584D01*
X010862Y023594D01*
X010837Y023600D01*
X010812Y023602D01*
X010812Y023599D01*
X010837Y023597D01*
X010861Y023591D01*
X010885Y023582D01*
X010906Y023569D01*
X010926Y023553D01*
X010943Y023535D01*
X010957Y023514D01*
X010967Y023491D01*
X010975Y023467D01*
X010979Y023443D01*
X010979Y023417D01*
X010975Y023393D01*
X010967Y023369D01*
X010957Y023346D01*
X010943Y023325D01*
X010926Y023307D01*
X010906Y023291D01*
X010885Y023278D01*
X010861Y023269D01*
X010837Y023263D01*
X010812Y023261D01*
X010812Y023264D01*
X010837Y023266D01*
X010860Y023272D01*
X010883Y023281D01*
X010905Y023294D01*
X010924Y023309D01*
X010940Y023327D01*
X010954Y023348D01*
X010965Y023370D01*
X010972Y023393D01*
X010976Y023418D01*
X010976Y023442D01*
X010972Y023467D01*
X010965Y023490D01*
X010954Y023512D01*
X010940Y023533D01*
X010924Y023551D01*
X010905Y023566D01*
X010883Y023579D01*
X010860Y023588D01*
X010837Y023594D01*
X010812Y023596D01*
X010812Y023593D01*
X010836Y023591D01*
X010860Y023585D01*
X010882Y023576D01*
X010903Y023564D01*
X010922Y023549D01*
X010938Y023531D01*
X010951Y023511D01*
X010962Y023489D01*
X010969Y023466D01*
X010973Y023442D01*
X010973Y023418D01*
X010969Y023394D01*
X010962Y023371D01*
X010951Y023349D01*
X010938Y023329D01*
X010922Y023311D01*
X010903Y023296D01*
X010882Y023284D01*
X010860Y023275D01*
X010836Y023269D01*
X010812Y023267D01*
X010812Y023270D01*
X010837Y023272D01*
X010861Y023278D01*
X010884Y023288D01*
X010905Y023301D01*
X010924Y023318D01*
X010940Y023337D01*
X010953Y023358D01*
X010962Y023381D01*
X010968Y023405D01*
X010970Y023430D01*
X010968Y023455D01*
X010962Y023479D01*
X010953Y023502D01*
X010940Y023523D01*
X010924Y023542D01*
X010905Y023559D01*
X010884Y023572D01*
X010861Y023582D01*
X010837Y023588D01*
X010812Y023590D01*
X010812Y023587D01*
X010836Y023585D01*
X010860Y023579D01*
X010883Y023569D01*
X010903Y023556D01*
X010922Y023540D01*
X010937Y023522D01*
X010950Y023501D01*
X010959Y023478D01*
X010965Y023454D01*
X010967Y023430D01*
X010965Y023406D01*
X010959Y023382D01*
X010950Y023359D01*
X010937Y023338D01*
X010922Y023320D01*
X010903Y023304D01*
X010883Y023291D01*
X010860Y023281D01*
X010836Y023275D01*
X010812Y023273D01*
X010812Y023276D01*
X010836Y023278D01*
X010859Y023284D01*
X010881Y023293D01*
X010901Y023306D01*
X010920Y023322D01*
X010935Y023340D01*
X010947Y023361D01*
X010957Y023383D01*
X010962Y023406D01*
X010964Y023430D01*
X010962Y023454D01*
X010957Y023477D01*
X010947Y023499D01*
X010935Y023520D01*
X010920Y023538D01*
X010901Y023554D01*
X010881Y023567D01*
X010859Y023576D01*
X010836Y023582D01*
X010812Y023584D01*
X010812Y023581D01*
X010835Y023579D01*
X010858Y023573D01*
X010880Y023564D01*
X010900Y023551D01*
X010917Y023536D01*
X010933Y023518D01*
X010945Y023498D01*
X010954Y023476D01*
X010959Y023453D01*
X010961Y023430D01*
X010959Y023407D01*
X010954Y023384D01*
X010945Y023362D01*
X010933Y023342D01*
X010917Y023324D01*
X010900Y023309D01*
X010880Y023296D01*
X010858Y023287D01*
X010835Y023281D01*
X010812Y023279D01*
X010812Y023282D01*
X010835Y023284D01*
X010857Y023290D01*
X010878Y023299D01*
X010898Y023311D01*
X010915Y023326D01*
X010930Y023344D01*
X010942Y023363D01*
X010951Y023385D01*
X010956Y023407D01*
X010958Y023430D01*
X010956Y023453D01*
X010951Y023475D01*
X010942Y023497D01*
X010930Y023516D01*
X010915Y023534D01*
X010898Y023549D01*
X010878Y023561D01*
X010857Y023570D01*
X010835Y023576D01*
X010812Y023578D01*
X010812Y023575D01*
X010836Y023573D01*
X010859Y023567D01*
X010880Y023557D01*
X010900Y023544D01*
X010917Y023528D01*
X010932Y023509D01*
X010943Y023488D01*
X010951Y023465D01*
X010955Y023442D01*
X010955Y023418D01*
X010951Y023395D01*
X010943Y023372D01*
X010932Y023351D01*
X010917Y023332D01*
X010900Y023316D01*
X010880Y023303D01*
X010859Y023293D01*
X010836Y023287D01*
X010812Y023285D01*
X010812Y023288D01*
X010835Y023290D01*
X010858Y023296D01*
X010879Y023306D01*
X010898Y023319D01*
X010915Y023335D01*
X010929Y023353D01*
X010940Y023373D01*
X010948Y023395D01*
X010952Y023418D01*
X010952Y023442D01*
X010948Y023465D01*
X010940Y023487D01*
X010929Y023507D01*
X010915Y023525D01*
X010898Y023541D01*
X010879Y023554D01*
X010858Y023564D01*
X010835Y023570D01*
X010812Y023572D01*
X004311Y023256D02*
X004311Y023292D01*
X004312Y023291D02*
X004335Y023293D01*
X004357Y023299D01*
X004377Y023308D01*
X004396Y023321D01*
X004413Y023337D01*
X004427Y023355D01*
X004438Y023375D01*
X004445Y023396D01*
X004449Y023419D01*
X004449Y023441D01*
X004445Y023464D01*
X004438Y023485D01*
X004427Y023505D01*
X004413Y023523D01*
X004396Y023539D01*
X004377Y023552D01*
X004357Y023561D01*
X004335Y023567D01*
X004312Y023569D01*
X004311Y023604D01*
X004312Y023605D01*
X004338Y023603D01*
X004363Y023597D01*
X004387Y023587D01*
X004410Y023574D01*
X004430Y023558D01*
X004447Y023538D01*
X004462Y023517D01*
X004473Y023493D01*
X004481Y023469D01*
X004485Y023443D01*
X004485Y023417D01*
X004481Y023391D01*
X004473Y023367D01*
X004462Y023343D01*
X004447Y023322D01*
X004430Y023302D01*
X004410Y023286D01*
X004387Y023273D01*
X004363Y023263D01*
X004338Y023257D01*
X004312Y023255D01*
X004312Y023258D01*
X004337Y023260D01*
X004362Y023266D01*
X004386Y023276D01*
X004408Y023289D01*
X004428Y023305D01*
X004445Y023323D01*
X004459Y023345D01*
X004470Y023368D01*
X004478Y023392D01*
X004482Y023417D01*
X004482Y023443D01*
X004478Y023468D01*
X004470Y023492D01*
X004459Y023515D01*
X004445Y023537D01*
X004428Y023555D01*
X004408Y023571D01*
X004386Y023584D01*
X004362Y023594D01*
X004337Y023600D01*
X004312Y023602D01*
X004312Y023599D01*
X004337Y023597D01*
X004361Y023591D01*
X004385Y023582D01*
X004406Y023569D01*
X004426Y023553D01*
X004443Y023535D01*
X004457Y023514D01*
X004467Y023491D01*
X004475Y023467D01*
X004479Y023443D01*
X004479Y023417D01*
X004475Y023393D01*
X004467Y023369D01*
X004457Y023346D01*
X004443Y023325D01*
X004426Y023307D01*
X004406Y023291D01*
X004385Y023278D01*
X004361Y023269D01*
X004337Y023263D01*
X004312Y023261D01*
X004312Y023264D01*
X004337Y023266D01*
X004360Y023272D01*
X004383Y023281D01*
X004405Y023294D01*
X004424Y023309D01*
X004440Y023327D01*
X004454Y023348D01*
X004465Y023370D01*
X004472Y023393D01*
X004476Y023418D01*
X004476Y023442D01*
X004472Y023467D01*
X004465Y023490D01*
X004454Y023512D01*
X004440Y023533D01*
X004424Y023551D01*
X004405Y023566D01*
X004383Y023579D01*
X004360Y023588D01*
X004337Y023594D01*
X004312Y023596D01*
X004312Y023593D01*
X004336Y023591D01*
X004360Y023585D01*
X004382Y023576D01*
X004403Y023564D01*
X004422Y023549D01*
X004438Y023531D01*
X004451Y023511D01*
X004462Y023489D01*
X004469Y023466D01*
X004473Y023442D01*
X004473Y023418D01*
X004469Y023394D01*
X004462Y023371D01*
X004451Y023349D01*
X004438Y023329D01*
X004422Y023311D01*
X004403Y023296D01*
X004382Y023284D01*
X004360Y023275D01*
X004336Y023269D01*
X004312Y023267D01*
X004312Y023270D01*
X004337Y023272D01*
X004361Y023278D01*
X004384Y023288D01*
X004405Y023301D01*
X004424Y023318D01*
X004440Y023337D01*
X004453Y023358D01*
X004462Y023381D01*
X004468Y023405D01*
X004470Y023430D01*
X004468Y023455D01*
X004462Y023479D01*
X004453Y023502D01*
X004440Y023523D01*
X004424Y023542D01*
X004405Y023559D01*
X004384Y023572D01*
X004361Y023582D01*
X004337Y023588D01*
X004312Y023590D01*
X004312Y023587D01*
X004336Y023585D01*
X004360Y023579D01*
X004383Y023569D01*
X004403Y023556D01*
X004422Y023540D01*
X004437Y023522D01*
X004450Y023501D01*
X004459Y023478D01*
X004465Y023454D01*
X004467Y023430D01*
X004465Y023406D01*
X004459Y023382D01*
X004450Y023359D01*
X004437Y023338D01*
X004422Y023320D01*
X004403Y023304D01*
X004383Y023291D01*
X004360Y023281D01*
X004336Y023275D01*
X004312Y023273D01*
X004312Y023276D01*
X004336Y023278D01*
X004359Y023284D01*
X004381Y023293D01*
X004401Y023306D01*
X004420Y023322D01*
X004435Y023340D01*
X004447Y023361D01*
X004457Y023383D01*
X004462Y023406D01*
X004464Y023430D01*
X004462Y023454D01*
X004457Y023477D01*
X004447Y023499D01*
X004435Y023520D01*
X004420Y023538D01*
X004401Y023554D01*
X004381Y023567D01*
X004359Y023576D01*
X004336Y023582D01*
X004312Y023584D01*
X004312Y023581D01*
X004335Y023579D01*
X004358Y023573D01*
X004380Y023564D01*
X004400Y023551D01*
X004417Y023536D01*
X004433Y023518D01*
X004445Y023498D01*
X004454Y023476D01*
X004459Y023453D01*
X004461Y023430D01*
X004459Y023407D01*
X004454Y023384D01*
X004445Y023362D01*
X004433Y023342D01*
X004417Y023324D01*
X004400Y023309D01*
X004380Y023296D01*
X004358Y023287D01*
X004335Y023281D01*
X004312Y023279D01*
X004312Y023282D01*
X004335Y023284D01*
X004357Y023290D01*
X004378Y023299D01*
X004398Y023311D01*
X004415Y023326D01*
X004430Y023344D01*
X004442Y023363D01*
X004451Y023385D01*
X004456Y023407D01*
X004458Y023430D01*
X004456Y023453D01*
X004451Y023475D01*
X004442Y023497D01*
X004430Y023516D01*
X004415Y023534D01*
X004398Y023549D01*
X004378Y023561D01*
X004357Y023570D01*
X004335Y023576D01*
X004312Y023578D01*
X004312Y023575D01*
X004336Y023573D01*
X004359Y023567D01*
X004380Y023557D01*
X004400Y023544D01*
X004417Y023528D01*
X004432Y023509D01*
X004443Y023488D01*
X004451Y023465D01*
X004455Y023442D01*
X004455Y023418D01*
X004451Y023395D01*
X004443Y023372D01*
X004432Y023351D01*
X004417Y023332D01*
X004400Y023316D01*
X004380Y023303D01*
X004359Y023293D01*
X004336Y023287D01*
X004312Y023285D01*
X004312Y023288D01*
X004335Y023290D01*
X004358Y023296D01*
X004379Y023306D01*
X004398Y023319D01*
X004415Y023335D01*
X004429Y023353D01*
X004440Y023373D01*
X004448Y023395D01*
X004452Y023418D01*
X004452Y023442D01*
X004448Y023465D01*
X004440Y023487D01*
X004429Y023507D01*
X004415Y023525D01*
X004398Y023541D01*
X004379Y023554D01*
X004358Y023564D01*
X004335Y023570D01*
X004312Y023572D01*
D15*
X004325Y023666D03*
X010825Y023666D03*
X017325Y023666D03*
X023825Y023666D03*
X030450Y023791D03*
D16*
X030529Y023845D03*
X023904Y023720D03*
X017404Y023720D03*
X010904Y023720D03*
X004404Y023720D03*
D17*
X004423Y023583D03*
X010923Y023583D03*
X017423Y023583D03*
X023923Y023583D03*
X030548Y023708D03*
D18*
X030568Y023727D03*
X023943Y023602D03*
X017443Y023602D03*
X010943Y023602D03*
X004443Y023602D03*
D19*
X004369Y023194D03*
X010869Y023194D03*
X017369Y023194D03*
X023869Y023194D03*
X030494Y023319D03*
D20*
X030568Y023338D03*
X023943Y023213D03*
X017443Y023213D03*
X010943Y023213D03*
X004443Y023213D03*
D21*
X004517Y023430D03*
X011017Y023430D03*
X017517Y023430D03*
X024017Y023430D03*
X030642Y023555D03*
D22*
X031587Y023555D03*
X024962Y023430D03*
X018462Y023430D03*
X011962Y023430D03*
X005462Y023430D03*
D23*
X004729Y023159D03*
X004729Y023701D03*
X011229Y023701D03*
X011229Y023159D03*
X017729Y023159D03*
X017729Y023701D03*
X024229Y023701D03*
X024229Y023159D03*
X030854Y023284D03*
X030854Y023826D03*
D24*
X031006Y023555D03*
X033450Y018749D03*
X034450Y018749D03*
X035450Y018749D03*
X024381Y023430D03*
X017881Y023430D03*
X011381Y023430D03*
X004881Y023430D03*
D25*
X014928Y011180D03*
X015972Y011180D03*
X015972Y010180D03*
X014928Y010180D03*
X032553Y008930D03*
X033597Y008930D03*
D26*
X032056Y016680D02*
X032450Y017074D01*
X032450Y018286D01*
X032056Y018680D01*
X031938Y018680D02*
X030962Y018680D01*
X030844Y018680D02*
X030450Y018286D01*
X030450Y017074D01*
X030844Y016680D01*
X030962Y016680D02*
X031950Y016680D01*
X030950Y017680D02*
X030952Y017724D01*
X030958Y017768D01*
X030968Y017811D01*
X030981Y017853D01*
X030998Y017894D01*
X031019Y017933D01*
X031043Y017970D01*
X031070Y018005D01*
X031100Y018037D01*
X031133Y018067D01*
X031169Y018093D01*
X031206Y018117D01*
X031246Y018136D01*
X031287Y018153D01*
X031330Y018165D01*
X031373Y018174D01*
X031417Y018179D01*
X031461Y018180D01*
X031505Y018177D01*
X031549Y018170D01*
X031592Y018159D01*
X031634Y018145D01*
X031674Y018127D01*
X031713Y018105D01*
X031749Y018081D01*
X031783Y018053D01*
X031815Y018022D01*
X031844Y017988D01*
X031870Y017952D01*
X031892Y017914D01*
X031911Y017874D01*
X031926Y017832D01*
X031938Y017790D01*
X031946Y017746D01*
X031950Y017702D01*
X031950Y017658D01*
X031946Y017614D01*
X031938Y017570D01*
X031926Y017528D01*
X031911Y017486D01*
X031892Y017446D01*
X031870Y017408D01*
X031844Y017372D01*
X031815Y017338D01*
X031783Y017307D01*
X031749Y017279D01*
X031713Y017255D01*
X031674Y017233D01*
X031634Y017215D01*
X031592Y017201D01*
X031549Y017190D01*
X031505Y017183D01*
X031461Y017180D01*
X031417Y017181D01*
X031373Y017186D01*
X031330Y017195D01*
X031287Y017207D01*
X031246Y017224D01*
X031206Y017243D01*
X031169Y017267D01*
X031133Y017293D01*
X031100Y017323D01*
X031070Y017355D01*
X031043Y017390D01*
X031019Y017427D01*
X030998Y017466D01*
X030981Y017507D01*
X030968Y017549D01*
X030958Y017592D01*
X030952Y017636D01*
X030950Y017680D01*
X030160Y025730D02*
X032740Y025730D01*
X032740Y027130D01*
X030160Y027130D01*
X030160Y025730D01*
X026240Y025730D02*
X023660Y025730D01*
X023660Y027130D01*
X026240Y027130D01*
X026240Y025730D01*
X019740Y025730D02*
X017160Y025730D01*
X017160Y027130D01*
X019740Y027130D01*
X019740Y025730D01*
X016844Y020875D02*
X016056Y020875D01*
X016056Y020324D01*
X016174Y020048D02*
X016450Y020048D01*
X016214Y019812D01*
X016686Y019812D01*
X016450Y020048D01*
X016726Y020048D01*
X016844Y020324D02*
X016844Y020875D01*
X016844Y019536D02*
X016844Y018985D01*
X016056Y018985D01*
X016056Y019536D01*
X009395Y017324D02*
X009395Y016536D01*
X008844Y016536D01*
X008844Y016324D02*
X009395Y016324D01*
X009395Y015536D01*
X008844Y015536D01*
X008844Y015324D02*
X009395Y015324D01*
X009395Y014536D01*
X008844Y014536D01*
X008568Y014654D02*
X008568Y014930D01*
X008332Y015166D01*
X008332Y014694D01*
X008568Y014930D01*
X008568Y015206D01*
X008056Y015324D02*
X007505Y015324D01*
X007505Y014536D01*
X008056Y014536D01*
X008056Y015536D02*
X007505Y015536D01*
X007505Y016324D01*
X008056Y016324D01*
X008056Y016536D02*
X007505Y016536D01*
X007505Y017324D01*
X008056Y017324D01*
X008332Y017166D02*
X008568Y016930D01*
X008332Y016694D01*
X008332Y017166D01*
X008568Y017206D02*
X008568Y016930D01*
X008568Y016654D01*
X008568Y016206D02*
X008568Y015930D01*
X008332Y016166D01*
X008332Y015694D01*
X008568Y015930D01*
X008568Y015654D01*
X008844Y017324D02*
X009395Y017324D01*
X010660Y025730D02*
X013240Y025730D01*
X013240Y027130D01*
X010660Y027130D01*
X010660Y025730D01*
X006740Y025730D02*
X004160Y025730D01*
X004160Y027130D01*
X006740Y027130D01*
X006740Y025730D01*
D27*
X015755Y020936D02*
X015780Y020961D01*
X015805Y020961D01*
X015830Y020936D01*
X015830Y020861D01*
X015780Y020861D01*
X015755Y020886D01*
X015755Y020936D01*
X015830Y020861D02*
X015880Y020911D01*
X015905Y020961D01*
X015880Y020814D02*
X015780Y020714D01*
X015755Y020739D01*
X015755Y020789D01*
X015780Y020814D01*
X015880Y020814D01*
X015905Y020789D01*
X015905Y020739D01*
X015880Y020714D01*
X015780Y020714D01*
X015755Y020666D02*
X015755Y020566D01*
X015855Y020666D01*
X015880Y020666D01*
X015905Y020641D01*
X015905Y020591D01*
X015880Y020566D01*
X015905Y020469D02*
X015755Y020469D01*
X015755Y020419D02*
X015755Y020519D01*
X015855Y020419D02*
X015905Y020469D01*
X015880Y020372D02*
X015905Y020347D01*
X015905Y020272D01*
X015755Y020272D01*
X015755Y020347D01*
X015780Y020372D01*
X015880Y020372D01*
X015755Y020224D02*
X015755Y020124D01*
X015755Y020174D02*
X015905Y020174D01*
X015855Y020124D01*
X015855Y020077D02*
X015830Y020052D01*
X015830Y020002D01*
X015855Y019977D01*
X015880Y019977D01*
X015905Y020002D01*
X015905Y020052D01*
X015880Y020077D01*
X015855Y020077D01*
X015830Y020052D02*
X015805Y020077D01*
X015780Y020077D01*
X015755Y020052D01*
X015755Y020002D01*
X015780Y019977D01*
X015805Y019977D01*
X015830Y020002D01*
X015830Y019930D02*
X015780Y019930D01*
X015755Y019905D01*
X015755Y019855D01*
X015780Y019830D01*
X015830Y019830D02*
X015855Y019880D01*
X015855Y019905D01*
X015830Y019930D01*
X015905Y019930D02*
X015905Y019830D01*
X015830Y019830D01*
X015755Y019782D02*
X015905Y019782D01*
X015905Y019682D02*
X015755Y019782D01*
X015755Y019682D02*
X015905Y019682D01*
X015905Y019585D02*
X015755Y019585D01*
X015755Y019535D02*
X015755Y019635D01*
X015855Y019535D02*
X015905Y019585D01*
X011018Y016825D02*
X010968Y016875D01*
X010968Y016725D01*
X011018Y016725D02*
X010918Y016725D01*
X010871Y016725D02*
X010871Y016875D01*
X010771Y016725D01*
X010771Y016875D01*
X010724Y016875D02*
X010724Y016800D01*
X010674Y016825D01*
X010649Y016825D01*
X010624Y016800D01*
X010624Y016750D01*
X010649Y016725D01*
X010699Y016725D01*
X010724Y016750D01*
X010724Y016875D02*
X010624Y016875D01*
X010576Y016850D02*
X010576Y016825D01*
X010551Y016800D01*
X010501Y016800D01*
X010476Y016775D01*
X010476Y016750D01*
X010501Y016725D01*
X010551Y016725D01*
X010576Y016750D01*
X010576Y016775D01*
X010551Y016800D01*
X010501Y016800D02*
X010476Y016825D01*
X010476Y016850D01*
X010501Y016875D01*
X010551Y016875D01*
X010576Y016850D01*
X010429Y016825D02*
X010379Y016875D01*
X010379Y016725D01*
X010429Y016725D02*
X010329Y016725D01*
X010282Y016725D02*
X010207Y016725D01*
X010182Y016750D01*
X010182Y016850D01*
X010207Y016875D01*
X010282Y016875D01*
X010282Y016725D01*
X010134Y016725D02*
X010034Y016725D01*
X009987Y016725D02*
X009887Y016825D01*
X009887Y016850D01*
X009912Y016875D01*
X009962Y016875D01*
X009987Y016850D01*
X010084Y016875D02*
X010084Y016725D01*
X009987Y016725D02*
X009887Y016725D01*
X009840Y016750D02*
X009740Y016850D01*
X009740Y016750D01*
X009765Y016725D01*
X009815Y016725D01*
X009840Y016750D01*
X009840Y016850D01*
X009815Y016875D01*
X009765Y016875D01*
X009740Y016850D01*
X009692Y016800D02*
X009617Y016800D01*
X009592Y016775D01*
X009592Y016750D01*
X009617Y016725D01*
X009667Y016725D01*
X009692Y016750D01*
X009692Y016800D01*
X009642Y016850D01*
X009592Y016875D01*
X010084Y016875D02*
X010134Y016825D01*
X010084Y015875D02*
X010084Y015725D01*
X010134Y015725D02*
X010034Y015725D01*
X009987Y015725D02*
X009887Y015825D01*
X009887Y015850D01*
X009912Y015875D01*
X009962Y015875D01*
X009987Y015850D01*
X010084Y015875D02*
X010134Y015825D01*
X010182Y015850D02*
X010207Y015875D01*
X010282Y015875D01*
X010282Y015725D01*
X010207Y015725D01*
X010182Y015750D01*
X010182Y015850D01*
X010329Y015725D02*
X010429Y015725D01*
X010379Y015725D02*
X010379Y015875D01*
X010429Y015825D01*
X010476Y015825D02*
X010501Y015800D01*
X010551Y015800D01*
X010576Y015825D01*
X010576Y015850D01*
X010551Y015875D01*
X010501Y015875D01*
X010476Y015850D01*
X010476Y015825D01*
X010501Y015800D02*
X010476Y015775D01*
X010476Y015750D01*
X010501Y015725D01*
X010551Y015725D01*
X010576Y015750D01*
X010576Y015775D01*
X010551Y015800D01*
X010624Y015800D02*
X010624Y015750D01*
X010649Y015725D01*
X010699Y015725D01*
X010724Y015750D01*
X010724Y015800D02*
X010674Y015825D01*
X010649Y015825D01*
X010624Y015800D01*
X010624Y015875D02*
X010724Y015875D01*
X010724Y015800D01*
X010771Y015725D02*
X010771Y015875D01*
X010871Y015875D02*
X010771Y015725D01*
X010871Y015725D02*
X010871Y015875D01*
X010968Y015875D02*
X010968Y015725D01*
X011018Y015725D02*
X010918Y015725D01*
X011018Y015825D02*
X010968Y015875D01*
X009987Y015725D02*
X009887Y015725D01*
X009840Y015750D02*
X009740Y015850D01*
X009740Y015750D01*
X009765Y015725D01*
X009815Y015725D01*
X009840Y015750D01*
X009840Y015850D01*
X009815Y015875D01*
X009765Y015875D01*
X009740Y015850D01*
X009692Y015800D02*
X009617Y015800D01*
X009592Y015775D01*
X009592Y015750D01*
X009617Y015725D01*
X009667Y015725D01*
X009692Y015750D01*
X009692Y015800D01*
X009642Y015850D01*
X009592Y015875D01*
X009592Y014875D02*
X009642Y014850D01*
X009692Y014800D01*
X009617Y014800D01*
X009592Y014775D01*
X009592Y014750D01*
X009617Y014725D01*
X009667Y014725D01*
X009692Y014750D01*
X009692Y014800D01*
X009740Y014750D02*
X009765Y014725D01*
X009815Y014725D01*
X009840Y014750D01*
X009740Y014850D01*
X009740Y014750D01*
X009840Y014750D02*
X009840Y014850D01*
X009815Y014875D01*
X009765Y014875D01*
X009740Y014850D01*
X009887Y014850D02*
X009912Y014875D01*
X009962Y014875D01*
X009987Y014850D01*
X009887Y014850D02*
X009887Y014825D01*
X009987Y014725D01*
X009887Y014725D01*
X010034Y014725D02*
X010134Y014725D01*
X010084Y014725D02*
X010084Y014875D01*
X010134Y014825D01*
X010182Y014850D02*
X010207Y014875D01*
X010282Y014875D01*
X010282Y014725D01*
X010207Y014725D01*
X010182Y014750D01*
X010182Y014850D01*
X010329Y014725D02*
X010429Y014725D01*
X010379Y014725D02*
X010379Y014875D01*
X010429Y014825D01*
X010476Y014825D02*
X010501Y014800D01*
X010551Y014800D01*
X010576Y014825D01*
X010576Y014850D01*
X010551Y014875D01*
X010501Y014875D01*
X010476Y014850D01*
X010476Y014825D01*
X010501Y014800D02*
X010476Y014775D01*
X010476Y014750D01*
X010501Y014725D01*
X010551Y014725D01*
X010576Y014750D01*
X010576Y014775D01*
X010551Y014800D01*
X010624Y014800D02*
X010624Y014750D01*
X010649Y014725D01*
X010699Y014725D01*
X010724Y014750D01*
X010724Y014800D02*
X010674Y014825D01*
X010649Y014825D01*
X010624Y014800D01*
X010624Y014875D02*
X010724Y014875D01*
X010724Y014800D01*
X010771Y014725D02*
X010771Y014875D01*
X010871Y014875D02*
X010771Y014725D01*
X010871Y014725D02*
X010871Y014875D01*
X010968Y014875D02*
X010968Y014725D01*
X011018Y014725D02*
X010918Y014725D01*
X011018Y014825D02*
X010968Y014875D01*
X030655Y017360D02*
X030655Y017410D01*
X030680Y017435D01*
X030680Y017482D02*
X030655Y017507D01*
X030655Y017557D01*
X030680Y017582D01*
X030730Y017582D01*
X030755Y017557D01*
X030755Y017507D01*
X030730Y017482D01*
X030680Y017482D01*
X030780Y017435D02*
X030805Y017410D01*
X030805Y017360D01*
X030780Y017335D01*
X030680Y017335D01*
X030655Y017360D01*
X030655Y017630D02*
X030755Y017630D01*
X030755Y017705D01*
X030730Y017730D01*
X030655Y017730D01*
X030655Y017802D02*
X030780Y017802D01*
X030805Y017827D01*
X030755Y017875D02*
X030755Y017900D01*
X030655Y017900D01*
X030655Y017875D02*
X030655Y017925D01*
X030680Y017973D02*
X030655Y017998D01*
X030655Y018073D01*
X030630Y018073D02*
X030755Y018073D01*
X030755Y017998D01*
X030730Y017973D01*
X030680Y017973D01*
X030605Y018023D02*
X030605Y018048D01*
X030630Y018073D01*
X030680Y018121D02*
X030655Y018146D01*
X030655Y018221D01*
X030755Y018221D01*
X030755Y018268D02*
X030655Y018268D01*
X030705Y018268D02*
X030755Y018318D01*
X030755Y018343D01*
X030730Y018391D02*
X030755Y018416D01*
X030755Y018466D01*
X030730Y018491D01*
X030705Y018491D01*
X030705Y018391D01*
X030680Y018391D02*
X030730Y018391D01*
X030680Y018391D02*
X030655Y018416D01*
X030655Y018466D01*
X030680Y018121D02*
X030755Y018121D01*
X030805Y017900D02*
X030830Y017900D01*
X030730Y017827D02*
X030730Y017777D01*
D28*
X031450Y025355D03*
X031450Y025355D03*
X024950Y025355D03*
X024950Y025355D03*
X018450Y025355D03*
X018450Y025355D03*
X011950Y025355D03*
X011950Y025355D03*
X005450Y025355D03*
X005450Y025355D03*
D29*
X005450Y027505D03*
X005450Y027505D03*
X004540Y027505D03*
X004540Y027505D03*
X006360Y027505D03*
X006360Y027505D03*
X011040Y027505D03*
X011040Y027505D03*
X011950Y027505D03*
X011950Y027505D03*
X012860Y027505D03*
X012860Y027505D03*
X017540Y027505D03*
X017540Y027505D03*
X018450Y027505D03*
X018450Y027505D03*
X019360Y027505D03*
X019360Y027505D03*
X024040Y027505D03*
X024040Y027505D03*
X024950Y027505D03*
X024950Y027505D03*
X025860Y027505D03*
X025860Y027505D03*
X030540Y027505D03*
X030540Y027505D03*
X031450Y027505D03*
X031450Y027505D03*
X032360Y027505D03*
X032360Y027505D03*
D30*
X008950Y020952D03*
X008950Y019908D03*
D31*
X010450Y010680D03*
D32*
X012450Y010680D03*
X012450Y009780D03*
X012450Y011580D03*
D33*
X011725Y011784D02*
X011275Y011784D01*
X011275Y011634D02*
X011275Y011934D01*
X011275Y012095D02*
X011350Y012095D01*
X011650Y012395D01*
X011725Y012395D01*
X011725Y012095D01*
X011725Y011784D02*
X011575Y011634D01*
X011275Y011474D02*
X011275Y011174D01*
X011275Y011324D02*
X011725Y011324D01*
X011575Y011174D01*
X011275Y011014D02*
X011275Y010713D01*
X011275Y010864D02*
X011725Y010864D01*
X011575Y010713D01*
X011500Y010553D02*
X011500Y010403D01*
X011500Y010553D02*
X011350Y010553D01*
X011275Y010478D01*
X011275Y010328D01*
X011350Y010253D01*
X011650Y010253D01*
X011725Y010328D01*
X011725Y010478D01*
X011650Y010553D01*
X011725Y010093D02*
X011725Y009793D01*
X011275Y009793D01*
X011275Y010093D01*
X011500Y009943D02*
X011500Y009793D01*
X011500Y009633D02*
X011425Y009557D01*
X011425Y009332D01*
X011275Y009332D02*
X011725Y009332D01*
X011725Y009557D01*
X011650Y009633D01*
X011500Y009633D01*
X011425Y009482D02*
X011275Y009633D01*
X031011Y018430D02*
X031359Y018430D01*
X031446Y018530D02*
X031625Y018430D01*
X031950Y018430D01*
D34*
X038450Y025590D03*
X038450Y026270D03*
X039450Y026270D03*
X039450Y025590D03*
D35*
X035686Y019305D03*
X034686Y019305D03*
X033686Y019305D03*
D36*
X033740Y019226D03*
X034740Y019226D03*
X035740Y019226D03*
D37*
X035603Y019207D03*
X034603Y019207D03*
X033603Y019207D03*
D38*
X033622Y019187D03*
X034622Y019187D03*
X035622Y019187D03*
D39*
X035214Y019261D03*
X034214Y019261D03*
X033214Y019261D03*
D40*
X033233Y019187D03*
X034233Y019187D03*
X035233Y019187D03*
D41*
X035450Y019113D03*
X034450Y019113D03*
X033450Y019113D03*
D42*
X033450Y018168D03*
X034450Y018168D03*
X035450Y018168D03*
D43*
X035179Y018901D03*
X034721Y018901D03*
X034179Y018901D03*
X033721Y018901D03*
X033179Y018901D03*
X035721Y018901D03*
M02*
