G75*
%MOIN*%
%OFA0B0*%
%FSLAX24Y24*%
%IPPOS*%
%LPD*%
%AMOC8*
5,1,8,0,0,1.08239X$1,22.5*
%
%ADD10C,0.0140*%
%ADD11C,0.0100*%
%ADD12C,0.0020*%
%ADD13C,0.0080*%
%ADD14C,0.0010*%
%ADD15R,0.0364X0.0450*%
%ADD16C,0.0060*%
%ADD17R,0.0256X0.0551*%
%ADD18C,0.0040*%
%ADD19C,0.0004*%
%ADD20R,0.0049X0.0197*%
%ADD21R,0.0128X0.0089*%
%ADD22R,0.0089X0.0049*%
%ADD23R,0.0049X0.0167*%
%ADD24R,0.0138X0.0197*%
%ADD25R,0.0049X0.0236*%
%ADD26R,0.0118X0.0669*%
%ADD27R,0.0276X0.0669*%
%ADD28R,0.0167X0.0128*%
%ADD29R,0.0138X0.0138*%
%ADD30C,0.0050*%
%ADD31R,0.0295X0.0669*%
%ADD32R,0.0669X0.0295*%
%ADD33R,0.0560X0.0140*%
%ADD34R,0.0140X0.0560*%
%ADD35R,0.0230X0.0720*%
%ADD36R,0.0400X0.0140*%
%ADD37R,0.0440X0.0560*%
%ADD38R,0.0560X0.0560*%
%ADD39R,0.0560X0.0980*%
%ADD40R,0.0690X0.0290*%
%ADD41R,0.0290X0.0690*%
%ADD42R,0.0551X0.0256*%
%ADD43R,0.0180X0.0430*%
%ADD44R,0.0430X0.0180*%
%ADD45R,0.0197X0.0197*%
D10*
X009520Y005500D02*
X009520Y006221D01*
X009880Y006221D01*
X010000Y006101D01*
X010000Y005860D01*
X009880Y005740D01*
X009520Y005740D01*
X010312Y005500D02*
X010552Y005500D01*
X010432Y005500D02*
X010432Y006221D01*
X010312Y006221D02*
X010552Y006221D01*
X010840Y006221D02*
X011200Y006221D01*
X011320Y006101D01*
X011320Y005620D01*
X011200Y005500D01*
X010840Y005500D01*
X010840Y006221D01*
X020401Y006370D02*
X020521Y006250D01*
X020761Y006250D01*
X020881Y006130D01*
X020881Y006010D01*
X020761Y005890D01*
X020521Y005890D01*
X020401Y006010D01*
X020401Y006370D02*
X020401Y006491D01*
X020521Y006611D01*
X020761Y006611D01*
X020881Y006491D01*
X021193Y006250D02*
X021193Y006010D01*
X021313Y005890D01*
X021673Y005890D01*
X021984Y005890D02*
X021984Y006370D01*
X021984Y006130D02*
X022225Y006370D01*
X022345Y006370D01*
X022644Y006250D02*
X022644Y006010D01*
X022764Y005890D01*
X023005Y005890D01*
X023125Y006130D02*
X022644Y006130D01*
X022644Y006250D02*
X022764Y006370D01*
X023005Y006370D01*
X023125Y006250D01*
X023125Y006130D01*
X023436Y006130D02*
X023917Y006130D01*
X023917Y006250D01*
X023797Y006370D01*
X023556Y006370D01*
X023436Y006250D01*
X023436Y006010D01*
X023556Y005890D01*
X023797Y005890D01*
X024228Y005890D02*
X024228Y006370D01*
X024588Y006370D01*
X024709Y006250D01*
X024709Y005890D01*
X021673Y006370D02*
X021313Y006370D01*
X021193Y006250D01*
X037909Y007250D02*
X037909Y007730D01*
X037909Y007490D02*
X038630Y007490D01*
X038630Y008042D02*
X038630Y008402D01*
X038510Y008522D01*
X038270Y008522D01*
X038150Y008402D01*
X038150Y008042D01*
X038870Y008042D01*
X038630Y008834D02*
X038630Y009074D01*
X038630Y008954D02*
X037909Y008954D01*
X037909Y008834D01*
X038510Y009362D02*
X038390Y009482D01*
X038390Y009842D01*
X038270Y009842D02*
X038630Y009842D01*
X038630Y009482D01*
X038510Y009362D01*
X038150Y009482D02*
X038150Y009722D01*
X038270Y009842D01*
X038150Y010154D02*
X038150Y010394D01*
X038029Y010274D02*
X038510Y010274D01*
X038630Y010394D01*
X038510Y010681D02*
X038270Y010681D01*
X038150Y010802D01*
X038150Y011042D01*
X038270Y011162D01*
X038390Y011162D01*
X038390Y010681D01*
X038510Y010681D02*
X038630Y010802D01*
X038630Y011042D01*
X037909Y015500D02*
X037909Y015980D01*
X037909Y015740D02*
X038630Y015740D01*
X038630Y016292D02*
X038630Y016532D01*
X038630Y016412D02*
X037909Y016412D01*
X037909Y016292D01*
X038150Y016820D02*
X038150Y016940D01*
X038630Y016940D01*
X038630Y016820D02*
X038630Y017060D01*
X038510Y017348D02*
X038630Y017468D01*
X038630Y017828D01*
X038870Y017828D02*
X038150Y017828D01*
X038150Y017468D01*
X038270Y017348D01*
X038510Y017348D01*
X037909Y016940D02*
X037789Y016940D01*
X038150Y018140D02*
X038510Y018140D01*
X038630Y018260D01*
X038630Y018620D01*
X038150Y018620D01*
X038150Y018931D02*
X038150Y019052D01*
X038630Y019052D01*
X038630Y019172D02*
X038630Y018931D01*
X038510Y019459D02*
X038270Y019459D01*
X038150Y019579D01*
X038150Y019940D01*
X037909Y019940D02*
X038630Y019940D01*
X038630Y019579D01*
X038510Y019459D01*
X037909Y019052D02*
X037789Y019052D01*
D11*
X006470Y002680D02*
X002430Y002680D01*
X003220Y002140D01*
X005780Y002140D01*
X006470Y002580D01*
X006470Y002680D01*
X006470Y006040D01*
X006470Y005340D01*
X006470Y006040D02*
X002430Y006040D01*
X002430Y005340D01*
X002430Y006040D02*
X002430Y002680D01*
X014700Y001680D02*
X030200Y001680D01*
X041650Y006730D02*
X041900Y006730D01*
X041816Y006897D01*
X041816Y006980D01*
X041900Y007064D01*
X042067Y007064D01*
X042150Y006980D01*
X042150Y006813D01*
X042067Y006730D01*
X041650Y006730D02*
X041650Y007064D01*
X041650Y007282D02*
X041983Y007282D01*
X042150Y007449D01*
X041983Y007616D01*
X041650Y007616D01*
X041650Y008480D02*
X041650Y008730D01*
X041733Y008814D01*
X042067Y008814D01*
X042150Y008730D01*
X042150Y008480D01*
X041650Y008480D01*
X041816Y009032D02*
X041650Y009199D01*
X041816Y009366D01*
X042150Y009366D01*
X041900Y009366D02*
X041900Y009032D01*
X041816Y009032D02*
X042150Y009032D01*
X042150Y009752D02*
X041650Y009752D01*
X041650Y009585D02*
X041650Y009919D01*
X041733Y010480D02*
X042067Y010480D01*
X042150Y010563D01*
X042150Y010730D01*
X042067Y010814D01*
X041900Y010814D01*
X041900Y010647D01*
X041733Y010814D02*
X041650Y010730D01*
X041650Y010563D01*
X041733Y010480D01*
X041650Y011032D02*
X042150Y011366D01*
X041650Y011366D01*
X041650Y011585D02*
X041650Y011835D01*
X041733Y011919D01*
X042067Y011919D01*
X042150Y011835D01*
X042150Y011585D01*
X041650Y011585D01*
X041650Y011032D02*
X042150Y011032D01*
X041817Y015230D02*
X041900Y015313D01*
X041900Y015480D01*
X041817Y015564D01*
X041650Y015564D01*
X041566Y015480D01*
X041566Y015397D01*
X041650Y015230D01*
X041400Y015230D01*
X041400Y015564D01*
X041400Y015782D02*
X041733Y015782D01*
X041900Y015949D01*
X041733Y016116D01*
X041400Y016116D01*
X041400Y016980D02*
X041400Y017230D01*
X041483Y017314D01*
X041817Y017314D01*
X041900Y017230D01*
X041900Y016980D01*
X041400Y016980D01*
X041566Y017532D02*
X041400Y017699D01*
X041566Y017866D01*
X041900Y017866D01*
X041650Y017866D02*
X041650Y017532D01*
X041566Y017532D02*
X041900Y017532D01*
X041900Y018252D02*
X041400Y018252D01*
X041400Y018085D02*
X041400Y018419D01*
X041483Y018980D02*
X041817Y018980D01*
X041900Y019063D01*
X041900Y019230D01*
X041817Y019314D01*
X041650Y019314D01*
X041650Y019147D01*
X041483Y019314D02*
X041400Y019230D01*
X041400Y019063D01*
X041483Y018980D01*
X041400Y019532D02*
X041900Y019866D01*
X041400Y019866D01*
X041400Y020085D02*
X041400Y020335D01*
X041483Y020419D01*
X041817Y020419D01*
X041900Y020335D01*
X041900Y020085D01*
X041400Y020085D01*
X041400Y019532D02*
X041900Y019532D01*
D12*
X033420Y006390D02*
X033422Y006413D01*
X033428Y006435D01*
X033437Y006457D01*
X033450Y006476D01*
X033465Y006493D01*
X033483Y006507D01*
X033504Y006518D01*
X033526Y006526D01*
X033548Y006530D01*
X033572Y006530D01*
X033594Y006526D01*
X033616Y006518D01*
X033637Y006507D01*
X033655Y006493D01*
X033670Y006476D01*
X033683Y006457D01*
X033692Y006435D01*
X033698Y006413D01*
X033700Y006390D01*
X033698Y006367D01*
X033692Y006345D01*
X033683Y006323D01*
X033670Y006304D01*
X033655Y006287D01*
X033637Y006273D01*
X033616Y006262D01*
X033594Y006254D01*
X033572Y006250D01*
X033548Y006250D01*
X033526Y006254D01*
X033504Y006262D01*
X033483Y006273D01*
X033465Y006287D01*
X033450Y006304D01*
X033437Y006323D01*
X033428Y006345D01*
X033422Y006367D01*
X033420Y006390D01*
X029565Y002404D02*
X029345Y002404D01*
X029418Y002404D02*
X029418Y002294D01*
X029455Y002257D01*
X029528Y002257D01*
X029565Y002294D01*
X029565Y002404D01*
X029565Y002183D02*
X029565Y002036D01*
X029345Y002036D01*
X029345Y002183D01*
X029455Y002109D02*
X029455Y002036D01*
X029565Y001962D02*
X029565Y001815D01*
X029345Y001815D01*
X028065Y001815D02*
X027845Y001815D01*
X027845Y001925D01*
X027882Y001962D01*
X027955Y001962D01*
X027992Y001925D01*
X027992Y001815D01*
X027992Y001888D02*
X028065Y001962D01*
X028028Y002036D02*
X028065Y002073D01*
X028065Y002146D01*
X028028Y002183D01*
X027992Y002183D01*
X027955Y002146D01*
X027955Y002073D01*
X027918Y002036D01*
X027882Y002036D01*
X027845Y002073D01*
X027845Y002146D01*
X027882Y002183D01*
X027845Y002257D02*
X028065Y002257D01*
X028065Y002404D01*
X027955Y002330D02*
X027955Y002257D01*
X027845Y002257D02*
X027845Y002404D01*
X027845Y002478D02*
X027845Y002625D01*
X027845Y002551D02*
X028065Y002551D01*
X026440Y002146D02*
X026440Y002073D01*
X026403Y002036D01*
X026403Y001962D02*
X026440Y001925D01*
X026440Y001852D01*
X026403Y001815D01*
X026257Y001815D01*
X026220Y001852D01*
X026220Y001925D01*
X026257Y001962D01*
X026257Y002036D02*
X026293Y002036D01*
X026330Y002073D01*
X026330Y002146D01*
X026367Y002183D01*
X026403Y002183D01*
X026440Y002146D01*
X026257Y002183D02*
X026220Y002146D01*
X026220Y002073D01*
X026257Y002036D01*
X025565Y002036D02*
X025565Y002146D01*
X025528Y002183D01*
X025492Y002183D01*
X025455Y002146D01*
X025455Y002036D01*
X025528Y001962D02*
X025382Y001962D01*
X025345Y001925D01*
X025345Y001815D01*
X025565Y001815D01*
X025565Y001925D01*
X025528Y001962D01*
X025565Y002036D02*
X025345Y002036D01*
X025345Y002146D01*
X025382Y002183D01*
X025418Y002183D01*
X025455Y002146D01*
X025418Y002257D02*
X025345Y002330D01*
X025565Y002330D01*
X025565Y002257D02*
X025565Y002404D01*
X025528Y002478D02*
X025565Y002515D01*
X025565Y002588D01*
X025528Y002625D01*
X025455Y002625D01*
X025418Y002588D01*
X025418Y002551D01*
X025455Y002478D01*
X025345Y002478D01*
X025345Y002625D01*
X024815Y002588D02*
X024595Y002588D01*
X024705Y002478D01*
X024705Y002625D01*
X024815Y002404D02*
X024815Y002257D01*
X024815Y002330D02*
X024595Y002330D01*
X024668Y002257D01*
X024668Y002183D02*
X024705Y002146D01*
X024705Y002036D01*
X024778Y001962D02*
X024632Y001962D01*
X024595Y001925D01*
X024595Y001815D01*
X024815Y001815D01*
X024815Y001925D01*
X024778Y001962D01*
X024815Y002036D02*
X024595Y002036D01*
X024595Y002146D01*
X024632Y002183D01*
X024668Y002183D01*
X024705Y002146D02*
X024742Y002183D01*
X024778Y002183D01*
X024815Y002146D01*
X024815Y002036D01*
X024065Y002036D02*
X024065Y002146D01*
X024028Y002183D01*
X023992Y002183D01*
X023955Y002146D01*
X023955Y002036D01*
X024028Y001962D02*
X023882Y001962D01*
X023845Y001925D01*
X023845Y001815D01*
X024065Y001815D01*
X024065Y001925D01*
X024028Y001962D01*
X024065Y002036D02*
X023845Y002036D01*
X023845Y002146D01*
X023882Y002183D01*
X023918Y002183D01*
X023955Y002146D01*
X023918Y002257D02*
X023845Y002330D01*
X024065Y002330D01*
X024065Y002257D02*
X024065Y002404D01*
X024028Y002478D02*
X024065Y002515D01*
X024065Y002588D01*
X024028Y002625D01*
X023992Y002625D01*
X023955Y002588D01*
X023955Y002551D01*
X023955Y002588D02*
X023918Y002625D01*
X023882Y002625D01*
X023845Y002588D01*
X023845Y002515D01*
X023882Y002478D01*
X023315Y002478D02*
X023168Y002625D01*
X023132Y002625D01*
X023095Y002588D01*
X023095Y002515D01*
X023132Y002478D01*
X023095Y002330D02*
X023315Y002330D01*
X023315Y002257D02*
X023315Y002404D01*
X023315Y002478D02*
X023315Y002625D01*
X023095Y002330D02*
X023168Y002257D01*
X023168Y002183D02*
X023205Y002146D01*
X023205Y002036D01*
X023278Y001962D02*
X023132Y001962D01*
X023095Y001925D01*
X023095Y001815D01*
X023315Y001815D01*
X023315Y001925D01*
X023278Y001962D01*
X023315Y002036D02*
X023315Y002146D01*
X023278Y002183D01*
X023242Y002183D01*
X023205Y002146D01*
X023168Y002183D02*
X023132Y002183D01*
X023095Y002146D01*
X023095Y002036D01*
X023315Y002036D01*
X022440Y002036D02*
X022440Y002146D01*
X022403Y002183D01*
X022367Y002183D01*
X022330Y002146D01*
X022330Y002036D01*
X022403Y001962D02*
X022257Y001962D01*
X022220Y001925D01*
X022220Y001815D01*
X022440Y001815D01*
X022440Y001925D01*
X022403Y001962D01*
X022440Y002036D02*
X022220Y002036D01*
X022220Y002146D01*
X022257Y002183D01*
X022293Y002183D01*
X022330Y002146D01*
X022293Y002257D02*
X022220Y002330D01*
X022440Y002330D01*
X022440Y002257D02*
X022440Y002404D01*
X022440Y002478D02*
X022440Y002625D01*
X022440Y002551D02*
X022220Y002551D01*
X022293Y002478D01*
X021690Y002515D02*
X021653Y002478D01*
X021507Y002625D01*
X021653Y002625D01*
X021690Y002588D01*
X021690Y002515D01*
X021653Y002478D02*
X021507Y002478D01*
X021470Y002515D01*
X021470Y002588D01*
X021507Y002625D01*
X021690Y002404D02*
X021690Y002257D01*
X021690Y002330D02*
X021470Y002330D01*
X021543Y002257D01*
X021543Y002183D02*
X021580Y002146D01*
X021580Y002036D01*
X021653Y001962D02*
X021507Y001962D01*
X021470Y001925D01*
X021470Y001815D01*
X021690Y001815D01*
X021690Y001925D01*
X021653Y001962D01*
X021690Y002036D02*
X021470Y002036D01*
X021470Y002146D01*
X021507Y002183D01*
X021543Y002183D01*
X021580Y002146D02*
X021617Y002183D01*
X021653Y002183D01*
X021690Y002146D01*
X021690Y002036D01*
X020815Y002036D02*
X020815Y002146D01*
X020778Y002183D01*
X020742Y002183D01*
X020705Y002146D01*
X020705Y002036D01*
X020778Y001962D02*
X020632Y001962D01*
X020595Y001925D01*
X020595Y001815D01*
X020815Y001815D01*
X020815Y001925D01*
X020778Y001962D01*
X020815Y002036D02*
X020595Y002036D01*
X020595Y002146D01*
X020632Y002183D01*
X020668Y002183D01*
X020705Y002146D01*
X020668Y002257D02*
X020705Y002294D01*
X020705Y002404D01*
X020778Y002404D02*
X020632Y002404D01*
X020595Y002367D01*
X020595Y002294D01*
X020632Y002257D01*
X020668Y002257D01*
X020778Y002257D02*
X020815Y002294D01*
X020815Y002367D01*
X020778Y002404D01*
X020065Y002367D02*
X020065Y002294D01*
X020028Y002257D01*
X019992Y002257D01*
X019955Y002294D01*
X019955Y002367D01*
X019992Y002404D01*
X020028Y002404D01*
X020065Y002367D01*
X019955Y002367D02*
X019918Y002404D01*
X019882Y002404D01*
X019845Y002367D01*
X019845Y002294D01*
X019882Y002257D01*
X019918Y002257D01*
X019955Y002294D01*
X019992Y002183D02*
X020028Y002183D01*
X020065Y002146D01*
X020065Y002036D01*
X019845Y002036D01*
X019845Y002146D01*
X019882Y002183D01*
X019918Y002183D01*
X019955Y002146D01*
X019955Y002036D01*
X020028Y001962D02*
X019882Y001962D01*
X019845Y001925D01*
X019845Y001815D01*
X020065Y001815D01*
X020065Y001925D01*
X020028Y001962D01*
X019955Y002146D02*
X019992Y002183D01*
X019992Y001404D02*
X019955Y001367D01*
X019955Y001257D01*
X020028Y001257D01*
X020065Y001294D01*
X020065Y001367D01*
X020028Y001404D01*
X019992Y001404D01*
X019882Y001330D02*
X019955Y001257D01*
X019992Y001183D02*
X020028Y001183D01*
X020065Y001146D01*
X020065Y001036D01*
X019845Y001036D01*
X019845Y001146D01*
X019882Y001183D01*
X019918Y001183D01*
X019955Y001146D01*
X019955Y001036D01*
X020028Y000962D02*
X019882Y000962D01*
X019845Y000925D01*
X019845Y000815D01*
X020065Y000815D01*
X020065Y000925D01*
X020028Y000962D01*
X019955Y001146D02*
X019992Y001183D01*
X019882Y001330D02*
X019845Y001404D01*
X019190Y001367D02*
X019190Y001294D01*
X019153Y001257D01*
X019080Y001257D02*
X019043Y001330D01*
X019043Y001367D01*
X019080Y001404D01*
X019153Y001404D01*
X019190Y001367D01*
X019080Y001257D02*
X018970Y001257D01*
X018970Y001404D01*
X019007Y001183D02*
X019043Y001183D01*
X019080Y001146D01*
X019080Y001036D01*
X019153Y000962D02*
X019007Y000962D01*
X018970Y000925D01*
X018970Y000815D01*
X019190Y000815D01*
X019190Y000925D01*
X019153Y000962D01*
X019190Y001036D02*
X018970Y001036D01*
X018970Y001146D01*
X019007Y001183D01*
X019080Y001146D02*
X019117Y001183D01*
X019153Y001183D01*
X019190Y001146D01*
X019190Y001036D01*
X018440Y001036D02*
X018440Y001146D01*
X018403Y001183D01*
X018367Y001183D01*
X018330Y001146D01*
X018330Y001036D01*
X018403Y000962D02*
X018257Y000962D01*
X018220Y000925D01*
X018220Y000815D01*
X018440Y000815D01*
X018440Y000925D01*
X018403Y000962D01*
X018440Y001036D02*
X018220Y001036D01*
X018220Y001146D01*
X018257Y001183D01*
X018293Y001183D01*
X018330Y001146D01*
X018330Y001257D02*
X018330Y001404D01*
X018440Y001367D02*
X018220Y001367D01*
X018330Y001257D01*
X018345Y001815D02*
X018565Y001815D01*
X018492Y001888D01*
X018565Y001962D01*
X018345Y001962D01*
X018345Y002036D02*
X018345Y002146D01*
X018382Y002183D01*
X018455Y002183D01*
X018492Y002146D01*
X018492Y002036D01*
X018565Y002036D02*
X018345Y002036D01*
X018492Y002109D02*
X018565Y002183D01*
X018970Y002146D02*
X018970Y002036D01*
X019190Y002036D01*
X019190Y002146D01*
X019153Y002183D01*
X019007Y002183D01*
X018970Y002146D01*
X019007Y001962D02*
X019080Y001962D01*
X019117Y001925D01*
X019117Y001815D01*
X019190Y001815D02*
X018970Y001815D01*
X018970Y001925D01*
X019007Y001962D01*
X019117Y001888D02*
X019190Y001962D01*
X020595Y001404D02*
X020595Y001257D01*
X020632Y001183D02*
X020668Y001183D01*
X020705Y001146D01*
X020705Y001036D01*
X020778Y000962D02*
X020632Y000962D01*
X020595Y000925D01*
X020595Y000815D01*
X020815Y000815D01*
X020815Y000925D01*
X020778Y000962D01*
X020815Y001036D02*
X020815Y001146D01*
X020778Y001183D01*
X020742Y001183D01*
X020705Y001146D01*
X020632Y001183D02*
X020595Y001146D01*
X020595Y001036D01*
X020815Y001036D01*
X020815Y001257D02*
X020778Y001257D01*
X020632Y001404D01*
X020595Y001404D01*
X017690Y001815D02*
X017470Y001815D01*
X017470Y001925D01*
X017507Y001962D01*
X017580Y001962D01*
X017617Y001925D01*
X017617Y001815D01*
X017617Y001888D02*
X017690Y001962D01*
X017653Y002036D02*
X017690Y002073D01*
X017690Y002146D01*
X017653Y002183D01*
X017617Y002183D01*
X017580Y002146D01*
X017580Y002073D01*
X017543Y002036D01*
X017507Y002036D01*
X017470Y002073D01*
X017470Y002146D01*
X017507Y002183D01*
X017492Y001404D02*
X017528Y001404D01*
X017565Y001367D01*
X017565Y001294D01*
X017528Y001257D01*
X017528Y001183D02*
X017565Y001146D01*
X017565Y001036D01*
X017345Y001036D01*
X017345Y001146D01*
X017382Y001183D01*
X017418Y001183D01*
X017455Y001146D01*
X017455Y001036D01*
X017528Y000962D02*
X017382Y000962D01*
X017345Y000925D01*
X017345Y000815D01*
X017565Y000815D01*
X017565Y000925D01*
X017528Y000962D01*
X017455Y001146D02*
X017492Y001183D01*
X017528Y001183D01*
X017382Y001257D02*
X017345Y001294D01*
X017345Y001367D01*
X017382Y001404D01*
X017418Y001404D01*
X017455Y001367D01*
X017492Y001404D01*
X017455Y001367D02*
X017455Y001330D01*
X016815Y001257D02*
X016668Y001404D01*
X016632Y001404D01*
X016595Y001367D01*
X016595Y001294D01*
X016632Y001257D01*
X016632Y001183D02*
X016668Y001183D01*
X016705Y001146D01*
X016705Y001036D01*
X016778Y000962D02*
X016632Y000962D01*
X016595Y000925D01*
X016595Y000815D01*
X016815Y000815D01*
X016815Y000925D01*
X016778Y000962D01*
X016815Y001036D02*
X016815Y001146D01*
X016778Y001183D01*
X016742Y001183D01*
X016705Y001146D01*
X016632Y001183D02*
X016595Y001146D01*
X016595Y001036D01*
X016815Y001036D01*
X016815Y001257D02*
X016815Y001404D01*
X016065Y001404D02*
X016065Y001257D01*
X016065Y001330D02*
X015845Y001330D01*
X015918Y001257D01*
X015918Y001183D02*
X015955Y001146D01*
X015955Y001036D01*
X016028Y000962D02*
X015882Y000962D01*
X015845Y000925D01*
X015845Y000815D01*
X016065Y000815D01*
X016065Y000925D01*
X016028Y000962D01*
X016065Y001036D02*
X015845Y001036D01*
X015845Y001146D01*
X015882Y001183D01*
X015918Y001183D01*
X015955Y001146D02*
X015992Y001183D01*
X016028Y001183D01*
X016065Y001146D01*
X016065Y001036D01*
X015315Y001036D02*
X015315Y001146D01*
X015278Y001183D01*
X015242Y001183D01*
X015205Y001146D01*
X015205Y001036D01*
X015278Y000962D02*
X015132Y000962D01*
X015095Y000925D01*
X015095Y000815D01*
X015315Y000815D01*
X015315Y000925D01*
X015278Y000962D01*
X015315Y001036D02*
X015095Y001036D01*
X015095Y001146D01*
X015132Y001183D01*
X015168Y001183D01*
X015205Y001146D01*
X015278Y001257D02*
X015132Y001404D01*
X015278Y001404D01*
X015315Y001367D01*
X015315Y001294D01*
X015278Y001257D01*
X015132Y001257D01*
X015095Y001294D01*
X015095Y001367D01*
X015132Y001404D01*
X015132Y001815D02*
X015278Y001815D01*
X015315Y001852D01*
X015315Y001925D01*
X015278Y001962D01*
X015205Y001962D01*
X015205Y001888D01*
X015132Y001815D02*
X015095Y001852D01*
X015095Y001925D01*
X015132Y001962D01*
X015095Y002036D02*
X015315Y002183D01*
X015095Y002183D01*
X015095Y002257D02*
X015095Y002367D01*
X015132Y002404D01*
X015278Y002404D01*
X015315Y002367D01*
X015315Y002257D01*
X015095Y002257D01*
X015095Y002036D02*
X015315Y002036D01*
X015845Y002036D02*
X015955Y002036D01*
X015918Y002109D01*
X015918Y002146D01*
X015955Y002183D01*
X016028Y002183D01*
X016065Y002146D01*
X016065Y002073D01*
X016028Y002036D01*
X015955Y001962D02*
X015955Y001815D01*
X015882Y001888D02*
X016028Y001888D01*
X015845Y002036D02*
X015845Y002183D01*
X015845Y002257D02*
X015992Y002257D01*
X016065Y002330D01*
X015992Y002404D01*
X015845Y002404D01*
D13*
X014885Y002682D02*
X014885Y003273D01*
X014906Y003285D01*
X014925Y003300D01*
X014943Y003317D01*
X014957Y003337D01*
X014969Y003359D01*
X014977Y003382D01*
X014982Y003406D01*
X014984Y003430D01*
X014982Y003454D01*
X014977Y003478D01*
X014969Y003501D01*
X014957Y003523D01*
X014943Y003543D01*
X014925Y003560D01*
X014906Y003575D01*
X014885Y003587D01*
X014885Y004178D01*
X030515Y004178D01*
X030515Y003587D01*
X030494Y003575D01*
X030475Y003560D01*
X030457Y003543D01*
X030443Y003523D01*
X030431Y003501D01*
X030423Y003478D01*
X030418Y003454D01*
X030416Y003430D01*
X030418Y003406D01*
X030423Y003382D01*
X030431Y003359D01*
X030443Y003337D01*
X030457Y003317D01*
X030475Y003300D01*
X030494Y003285D01*
X030515Y003273D01*
X030515Y002682D01*
X014885Y002682D01*
X032200Y010574D02*
X032200Y011786D01*
X032594Y012180D01*
X032712Y012180D02*
X033700Y012180D01*
X033806Y012180D02*
X034200Y011786D01*
X034200Y010574D01*
X033806Y010180D01*
X033688Y010180D02*
X032712Y010180D01*
X032594Y010180D02*
X032200Y010574D01*
X032700Y011180D02*
X032702Y011224D01*
X032708Y011268D01*
X032718Y011311D01*
X032731Y011353D01*
X032748Y011394D01*
X032769Y011433D01*
X032793Y011470D01*
X032820Y011505D01*
X032850Y011537D01*
X032883Y011567D01*
X032919Y011593D01*
X032956Y011617D01*
X032996Y011636D01*
X033037Y011653D01*
X033080Y011665D01*
X033123Y011674D01*
X033167Y011679D01*
X033211Y011680D01*
X033255Y011677D01*
X033299Y011670D01*
X033342Y011659D01*
X033384Y011645D01*
X033424Y011627D01*
X033463Y011605D01*
X033499Y011581D01*
X033533Y011553D01*
X033565Y011522D01*
X033594Y011488D01*
X033620Y011452D01*
X033642Y011414D01*
X033661Y011374D01*
X033676Y011332D01*
X033688Y011290D01*
X033696Y011246D01*
X033700Y011202D01*
X033700Y011158D01*
X033696Y011114D01*
X033688Y011070D01*
X033676Y011028D01*
X033661Y010986D01*
X033642Y010946D01*
X033620Y010908D01*
X033594Y010872D01*
X033565Y010838D01*
X033533Y010807D01*
X033499Y010779D01*
X033463Y010755D01*
X033424Y010733D01*
X033384Y010715D01*
X033342Y010701D01*
X033299Y010690D01*
X033255Y010683D01*
X033211Y010680D01*
X033167Y010681D01*
X033123Y010686D01*
X033080Y010695D01*
X033037Y010707D01*
X032996Y010724D01*
X032956Y010743D01*
X032919Y010767D01*
X032883Y010793D01*
X032850Y010823D01*
X032820Y010855D01*
X032793Y010890D01*
X032769Y010927D01*
X032748Y010966D01*
X032731Y011007D01*
X032718Y011049D01*
X032708Y011092D01*
X032702Y011136D01*
X032700Y011180D01*
X034157Y024866D02*
X028743Y024866D01*
X028743Y032189D01*
X034157Y032189D01*
X034157Y024866D01*
X036243Y024866D02*
X036243Y032189D01*
X041657Y032189D01*
X041657Y024866D01*
X036243Y024866D01*
X027657Y024866D02*
X027657Y032189D01*
X022243Y032189D01*
X022243Y024866D01*
X027657Y024866D01*
X021157Y024866D02*
X021157Y032189D01*
X015743Y032189D01*
X015743Y024866D01*
X021157Y024866D01*
X014657Y024866D02*
X014657Y032189D01*
X009243Y032189D01*
X009243Y024866D01*
X014657Y024866D01*
X008157Y024866D02*
X008157Y032189D01*
X002743Y032189D01*
X002743Y024866D01*
X008157Y024866D01*
D14*
X007074Y029560D02*
X006919Y029560D01*
X006919Y029870D01*
X007074Y029870D01*
X007126Y029819D01*
X007126Y029612D01*
X007074Y029560D01*
X006831Y029560D02*
X006831Y029870D01*
X006625Y029870D02*
X006831Y029560D01*
X006625Y029560D02*
X006625Y029870D01*
X006537Y029819D02*
X006485Y029870D01*
X006382Y029870D01*
X006330Y029819D01*
X006330Y029612D01*
X006382Y029560D01*
X006485Y029560D01*
X006537Y029612D01*
X006537Y029715D01*
X006433Y029715D01*
X005876Y029612D02*
X005876Y029819D01*
X005824Y029870D01*
X005669Y029870D01*
X005669Y029560D01*
X005824Y029560D01*
X005876Y029612D01*
X005581Y029560D02*
X005581Y029870D01*
X005375Y029870D02*
X005581Y029560D01*
X005375Y029560D02*
X005375Y029870D01*
X005287Y029819D02*
X005235Y029870D01*
X005132Y029870D01*
X005080Y029819D01*
X005080Y029612D01*
X005132Y029560D01*
X005235Y029560D01*
X005287Y029612D01*
X005287Y029715D01*
X005183Y029715D01*
X004376Y029870D02*
X004376Y029560D01*
X004169Y029560D02*
X004169Y029870D01*
X004273Y029767D01*
X004376Y029870D01*
X004081Y029870D02*
X004081Y029560D01*
X003978Y029663D01*
X003875Y029560D01*
X003875Y029870D01*
X003787Y029819D02*
X003787Y029715D01*
X003735Y029663D01*
X003580Y029663D01*
X003580Y029560D02*
X003580Y029870D01*
X003735Y029870D01*
X003787Y029819D01*
X003773Y031310D02*
X003876Y031413D01*
X003876Y031620D01*
X003669Y031620D02*
X003669Y031413D01*
X003773Y031310D01*
X003581Y031310D02*
X003375Y031310D01*
X003581Y031517D01*
X003581Y031569D01*
X003530Y031620D01*
X003426Y031620D01*
X003375Y031569D01*
X003183Y031620D02*
X003183Y031310D01*
X003080Y031310D02*
X003287Y031310D01*
X003080Y031517D02*
X003183Y031620D01*
X004955Y031810D02*
X005058Y031810D01*
X005007Y031810D02*
X005007Y032120D01*
X005058Y032120D02*
X004955Y032120D01*
X005151Y031810D02*
X005358Y032120D01*
X005446Y032069D02*
X005446Y031862D01*
X005498Y031810D01*
X005601Y031810D01*
X005653Y031862D01*
X005653Y032069D01*
X005601Y032120D01*
X005498Y032120D01*
X005446Y032069D01*
X006830Y031620D02*
X006830Y031465D01*
X006933Y031517D01*
X006985Y031517D01*
X007037Y031465D01*
X007037Y031362D01*
X006985Y031310D01*
X006882Y031310D01*
X006830Y031362D01*
X006830Y031620D02*
X007037Y031620D01*
X007125Y031620D02*
X007125Y031413D01*
X007228Y031310D01*
X007331Y031413D01*
X007331Y031620D01*
X009580Y031517D02*
X009683Y031620D01*
X009683Y031310D01*
X009580Y031310D02*
X009787Y031310D01*
X009875Y031310D02*
X010081Y031517D01*
X010081Y031569D01*
X010030Y031620D01*
X009926Y031620D01*
X009875Y031569D01*
X009875Y031310D02*
X010081Y031310D01*
X010169Y031413D02*
X010273Y031310D01*
X010376Y031413D01*
X010376Y031620D01*
X010169Y031620D02*
X010169Y031413D01*
X011455Y031810D02*
X011558Y031810D01*
X011507Y031810D02*
X011507Y032120D01*
X011558Y032120D02*
X011455Y032120D01*
X011651Y031810D02*
X011858Y032120D01*
X011946Y032069D02*
X011946Y031862D01*
X011998Y031810D01*
X012101Y031810D01*
X012153Y031862D01*
X012153Y032069D01*
X012101Y032120D01*
X011998Y032120D01*
X011946Y032069D01*
X013330Y031620D02*
X013330Y031465D01*
X013433Y031517D01*
X013485Y031517D01*
X013537Y031465D01*
X013537Y031362D01*
X013485Y031310D01*
X013382Y031310D01*
X013330Y031362D01*
X013330Y031620D02*
X013537Y031620D01*
X013625Y031620D02*
X013625Y031413D01*
X013728Y031310D01*
X013831Y031413D01*
X013831Y031620D01*
X013574Y029870D02*
X013419Y029870D01*
X013419Y029560D01*
X013574Y029560D01*
X013626Y029612D01*
X013626Y029819D01*
X013574Y029870D01*
X013331Y029870D02*
X013331Y029560D01*
X013125Y029870D01*
X013125Y029560D01*
X013037Y029612D02*
X013037Y029715D01*
X012933Y029715D01*
X012830Y029612D02*
X012882Y029560D01*
X012985Y029560D01*
X013037Y029612D01*
X013037Y029819D02*
X012985Y029870D01*
X012882Y029870D01*
X012830Y029819D01*
X012830Y029612D01*
X012376Y029612D02*
X012376Y029819D01*
X012324Y029870D01*
X012169Y029870D01*
X012169Y029560D01*
X012324Y029560D01*
X012376Y029612D01*
X012081Y029560D02*
X012081Y029870D01*
X011875Y029870D02*
X012081Y029560D01*
X011875Y029560D02*
X011875Y029870D01*
X011787Y029819D02*
X011735Y029870D01*
X011632Y029870D01*
X011580Y029819D01*
X011580Y029612D01*
X011632Y029560D01*
X011735Y029560D01*
X011787Y029612D01*
X011787Y029715D01*
X011683Y029715D01*
X010876Y029870D02*
X010876Y029560D01*
X010669Y029560D02*
X010669Y029870D01*
X010773Y029767D01*
X010876Y029870D01*
X010581Y029870D02*
X010581Y029560D01*
X010478Y029663D01*
X010375Y029560D01*
X010375Y029870D01*
X010287Y029819D02*
X010287Y029715D01*
X010235Y029663D01*
X010080Y029663D01*
X010080Y029560D02*
X010080Y029870D01*
X010235Y029870D01*
X010287Y029819D01*
X016080Y031310D02*
X016287Y031310D01*
X016375Y031310D02*
X016581Y031517D01*
X016581Y031569D01*
X016530Y031620D01*
X016426Y031620D01*
X016375Y031569D01*
X016183Y031620D02*
X016183Y031310D01*
X016375Y031310D02*
X016581Y031310D01*
X016669Y031413D02*
X016773Y031310D01*
X016876Y031413D01*
X016876Y031620D01*
X016669Y031620D02*
X016669Y031413D01*
X016183Y031620D02*
X016080Y031517D01*
X017955Y031810D02*
X018058Y031810D01*
X018007Y031810D02*
X018007Y032120D01*
X018058Y032120D02*
X017955Y032120D01*
X018151Y031810D02*
X018358Y032120D01*
X018446Y032069D02*
X018446Y031862D01*
X018498Y031810D01*
X018601Y031810D01*
X018653Y031862D01*
X018653Y032069D01*
X018601Y032120D01*
X018498Y032120D01*
X018446Y032069D01*
X019830Y031620D02*
X019830Y031465D01*
X019933Y031517D01*
X019985Y031517D01*
X020037Y031465D01*
X020037Y031362D01*
X019985Y031310D01*
X019882Y031310D01*
X019830Y031362D01*
X019830Y031620D02*
X020037Y031620D01*
X020125Y031620D02*
X020125Y031413D01*
X020228Y031310D01*
X020331Y031413D01*
X020331Y031620D01*
X020074Y029870D02*
X019919Y029870D01*
X019919Y029560D01*
X020074Y029560D01*
X020126Y029612D01*
X020126Y029819D01*
X020074Y029870D01*
X019831Y029870D02*
X019831Y029560D01*
X019625Y029870D01*
X019625Y029560D01*
X019537Y029612D02*
X019537Y029715D01*
X019433Y029715D01*
X019330Y029612D02*
X019382Y029560D01*
X019485Y029560D01*
X019537Y029612D01*
X019537Y029819D02*
X019485Y029870D01*
X019382Y029870D01*
X019330Y029819D01*
X019330Y029612D01*
X018876Y029612D02*
X018876Y029819D01*
X018824Y029870D01*
X018669Y029870D01*
X018669Y029560D01*
X018824Y029560D01*
X018876Y029612D01*
X018581Y029560D02*
X018581Y029870D01*
X018375Y029870D02*
X018581Y029560D01*
X018375Y029560D02*
X018375Y029870D01*
X018287Y029819D02*
X018235Y029870D01*
X018132Y029870D01*
X018080Y029819D01*
X018080Y029612D01*
X018132Y029560D01*
X018235Y029560D01*
X018287Y029612D01*
X018287Y029715D01*
X018183Y029715D01*
X017376Y029870D02*
X017376Y029560D01*
X017169Y029560D02*
X017169Y029870D01*
X017273Y029767D01*
X017376Y029870D01*
X017081Y029870D02*
X017081Y029560D01*
X016978Y029663D01*
X016875Y029560D01*
X016875Y029870D01*
X016787Y029819D02*
X016787Y029715D01*
X016735Y029663D01*
X016580Y029663D01*
X016580Y029560D02*
X016580Y029870D01*
X016735Y029870D01*
X016787Y029819D01*
X022580Y031310D02*
X022787Y031310D01*
X022875Y031310D02*
X023081Y031517D01*
X023081Y031569D01*
X023030Y031620D01*
X022926Y031620D01*
X022875Y031569D01*
X022683Y031620D02*
X022683Y031310D01*
X022875Y031310D02*
X023081Y031310D01*
X023169Y031413D02*
X023273Y031310D01*
X023376Y031413D01*
X023376Y031620D01*
X023169Y031620D02*
X023169Y031413D01*
X022683Y031620D02*
X022580Y031517D01*
X024455Y031810D02*
X024558Y031810D01*
X024507Y031810D02*
X024507Y032120D01*
X024558Y032120D02*
X024455Y032120D01*
X024651Y031810D02*
X024858Y032120D01*
X024946Y032069D02*
X024946Y031862D01*
X024998Y031810D01*
X025101Y031810D01*
X025153Y031862D01*
X025153Y032069D01*
X025101Y032120D01*
X024998Y032120D01*
X024946Y032069D01*
X026330Y031620D02*
X026330Y031465D01*
X026433Y031517D01*
X026485Y031517D01*
X026537Y031465D01*
X026537Y031362D01*
X026485Y031310D01*
X026382Y031310D01*
X026330Y031362D01*
X026330Y031620D02*
X026537Y031620D01*
X026625Y031620D02*
X026625Y031413D01*
X026728Y031310D01*
X026831Y031413D01*
X026831Y031620D01*
X026574Y029870D02*
X026419Y029870D01*
X026419Y029560D01*
X026574Y029560D01*
X026626Y029612D01*
X026626Y029819D01*
X026574Y029870D01*
X026331Y029870D02*
X026331Y029560D01*
X026125Y029870D01*
X026125Y029560D01*
X026037Y029612D02*
X026037Y029715D01*
X025933Y029715D01*
X025830Y029612D02*
X025882Y029560D01*
X025985Y029560D01*
X026037Y029612D01*
X026037Y029819D02*
X025985Y029870D01*
X025882Y029870D01*
X025830Y029819D01*
X025830Y029612D01*
X025376Y029612D02*
X025376Y029819D01*
X025324Y029870D01*
X025169Y029870D01*
X025169Y029560D01*
X025324Y029560D01*
X025376Y029612D01*
X025081Y029560D02*
X025081Y029870D01*
X024875Y029870D02*
X025081Y029560D01*
X024875Y029560D02*
X024875Y029870D01*
X024787Y029819D02*
X024735Y029870D01*
X024632Y029870D01*
X024580Y029819D01*
X024580Y029612D01*
X024632Y029560D01*
X024735Y029560D01*
X024787Y029612D01*
X024787Y029715D01*
X024683Y029715D01*
X023876Y029870D02*
X023876Y029560D01*
X023669Y029560D02*
X023669Y029870D01*
X023773Y029767D01*
X023876Y029870D01*
X023581Y029870D02*
X023581Y029560D01*
X023478Y029663D01*
X023375Y029560D01*
X023375Y029870D01*
X023287Y029819D02*
X023287Y029715D01*
X023235Y029663D01*
X023080Y029663D01*
X023080Y029560D02*
X023080Y029870D01*
X023235Y029870D01*
X023287Y029819D01*
X029080Y031310D02*
X029287Y031310D01*
X029375Y031310D02*
X029581Y031517D01*
X029581Y031569D01*
X029530Y031620D01*
X029426Y031620D01*
X029375Y031569D01*
X029183Y031620D02*
X029183Y031310D01*
X029375Y031310D02*
X029581Y031310D01*
X029669Y031413D02*
X029773Y031310D01*
X029876Y031413D01*
X029876Y031620D01*
X029669Y031620D02*
X029669Y031413D01*
X029183Y031620D02*
X029080Y031517D01*
X030955Y031810D02*
X031058Y031810D01*
X031007Y031810D02*
X031007Y032120D01*
X031058Y032120D02*
X030955Y032120D01*
X031151Y031810D02*
X031358Y032120D01*
X031446Y032069D02*
X031446Y031862D01*
X031498Y031810D01*
X031601Y031810D01*
X031653Y031862D01*
X031653Y032069D01*
X031601Y032120D01*
X031498Y032120D01*
X031446Y032069D01*
X032830Y031620D02*
X032830Y031465D01*
X032933Y031517D01*
X032985Y031517D01*
X033037Y031465D01*
X033037Y031362D01*
X032985Y031310D01*
X032882Y031310D01*
X032830Y031362D01*
X032830Y031620D02*
X033037Y031620D01*
X033125Y031620D02*
X033125Y031413D01*
X033228Y031310D01*
X033331Y031413D01*
X033331Y031620D01*
X033074Y029870D02*
X032919Y029870D01*
X032919Y029560D01*
X033074Y029560D01*
X033126Y029612D01*
X033126Y029819D01*
X033074Y029870D01*
X032831Y029870D02*
X032831Y029560D01*
X032625Y029870D01*
X032625Y029560D01*
X032537Y029612D02*
X032537Y029715D01*
X032433Y029715D01*
X032330Y029612D02*
X032382Y029560D01*
X032485Y029560D01*
X032537Y029612D01*
X032537Y029819D02*
X032485Y029870D01*
X032382Y029870D01*
X032330Y029819D01*
X032330Y029612D01*
X031876Y029612D02*
X031876Y029819D01*
X031824Y029870D01*
X031669Y029870D01*
X031669Y029560D01*
X031824Y029560D01*
X031876Y029612D01*
X031581Y029560D02*
X031581Y029870D01*
X031375Y029870D02*
X031581Y029560D01*
X031375Y029560D02*
X031375Y029870D01*
X031287Y029819D02*
X031235Y029870D01*
X031132Y029870D01*
X031080Y029819D01*
X031080Y029612D01*
X031132Y029560D01*
X031235Y029560D01*
X031287Y029612D01*
X031287Y029715D01*
X031183Y029715D01*
X030376Y029870D02*
X030376Y029560D01*
X030169Y029560D02*
X030169Y029870D01*
X030273Y029767D01*
X030376Y029870D01*
X030081Y029870D02*
X030081Y029560D01*
X029978Y029663D01*
X029875Y029560D01*
X029875Y029870D01*
X029787Y029819D02*
X029787Y029715D01*
X029735Y029663D01*
X029580Y029663D01*
X029580Y029560D02*
X029580Y029870D01*
X029735Y029870D01*
X029787Y029819D01*
X036580Y031310D02*
X036787Y031310D01*
X036875Y031310D02*
X037081Y031517D01*
X037081Y031569D01*
X037030Y031620D01*
X036926Y031620D01*
X036875Y031569D01*
X036683Y031620D02*
X036683Y031310D01*
X036875Y031310D02*
X037081Y031310D01*
X037169Y031413D02*
X037273Y031310D01*
X037376Y031413D01*
X037376Y031620D01*
X037169Y031620D02*
X037169Y031413D01*
X036683Y031620D02*
X036580Y031517D01*
X038455Y031862D02*
X038507Y031810D01*
X038610Y031810D01*
X038662Y031862D01*
X038662Y031913D01*
X038610Y031965D01*
X038507Y031965D01*
X038455Y032017D01*
X038455Y032069D01*
X038507Y032120D01*
X038610Y032120D01*
X038662Y032069D01*
X038750Y032120D02*
X038905Y032120D01*
X038956Y032069D01*
X038956Y031862D01*
X038905Y031810D01*
X038750Y031810D01*
X038750Y032120D01*
X039044Y032017D02*
X039044Y031810D01*
X039044Y031965D02*
X039251Y031965D01*
X039251Y032017D02*
X039251Y031810D01*
X039251Y032017D02*
X039148Y032120D01*
X039044Y032017D01*
X040330Y031620D02*
X040330Y031465D01*
X040433Y031517D01*
X040485Y031517D01*
X040537Y031465D01*
X040537Y031362D01*
X040485Y031310D01*
X040382Y031310D01*
X040330Y031362D01*
X040330Y031620D02*
X040537Y031620D01*
X040625Y031620D02*
X040625Y031413D01*
X040728Y031310D01*
X040831Y031413D01*
X040831Y031620D01*
X040574Y029870D02*
X040419Y029870D01*
X040419Y029560D01*
X040574Y029560D01*
X040626Y029612D01*
X040626Y029819D01*
X040574Y029870D01*
X040331Y029870D02*
X040331Y029560D01*
X040125Y029870D01*
X040125Y029560D01*
X040037Y029612D02*
X040037Y029715D01*
X039933Y029715D01*
X039830Y029612D02*
X039830Y029819D01*
X039882Y029870D01*
X039985Y029870D01*
X040037Y029819D01*
X040037Y029612D02*
X039985Y029560D01*
X039882Y029560D01*
X039830Y029612D01*
X039376Y029612D02*
X039376Y029819D01*
X039324Y029870D01*
X039169Y029870D01*
X039169Y029560D01*
X039324Y029560D01*
X039376Y029612D01*
X039081Y029560D02*
X039081Y029870D01*
X038875Y029870D02*
X038875Y029560D01*
X038787Y029612D02*
X038787Y029715D01*
X038683Y029715D01*
X038580Y029612D02*
X038632Y029560D01*
X038735Y029560D01*
X038787Y029612D01*
X038787Y029819D02*
X038735Y029870D01*
X038632Y029870D01*
X038580Y029819D01*
X038580Y029612D01*
X038875Y029870D02*
X039081Y029560D01*
X037876Y029560D02*
X037669Y029560D01*
X037669Y029870D01*
X037581Y029819D02*
X037530Y029870D01*
X037426Y029870D01*
X037375Y029819D01*
X037375Y029612D01*
X037426Y029560D01*
X037530Y029560D01*
X037581Y029612D01*
X037287Y029612D02*
X037235Y029560D01*
X037132Y029560D01*
X037080Y029612D01*
X037132Y029715D02*
X037235Y029715D01*
X037287Y029663D01*
X037287Y029612D01*
X037132Y029715D02*
X037080Y029767D01*
X037080Y029819D01*
X037132Y029870D01*
X037235Y029870D01*
X037287Y029819D01*
X032530Y011488D02*
X032555Y011463D01*
X032555Y011413D01*
X032530Y011388D01*
X032430Y011388D01*
X032405Y011413D01*
X032405Y011463D01*
X032430Y011488D01*
X032455Y011340D02*
X032555Y011340D01*
X032555Y011265D01*
X032530Y011240D01*
X032455Y011240D01*
X032455Y011045D02*
X032455Y010995D01*
X032430Y011020D02*
X032530Y011020D01*
X032555Y011045D01*
X032505Y010948D02*
X032505Y010847D01*
X032530Y010847D02*
X032480Y010847D01*
X032455Y010872D01*
X032455Y010923D01*
X032480Y010948D01*
X032505Y010948D01*
X032555Y010923D02*
X032555Y010872D01*
X032530Y010847D01*
X032530Y010800D02*
X032505Y010775D01*
X032505Y010725D01*
X032480Y010700D01*
X032455Y010725D01*
X032455Y010800D01*
X032530Y010800D02*
X032555Y010775D01*
X032555Y010700D01*
X032505Y010653D02*
X032505Y010553D01*
X032530Y010553D02*
X032480Y010553D01*
X032455Y010578D01*
X032455Y010628D01*
X032480Y010653D01*
X032505Y010653D01*
X032555Y010628D02*
X032555Y010578D01*
X032530Y010553D01*
X032555Y010506D02*
X032505Y010456D01*
X032505Y010481D02*
X032505Y010406D01*
X032555Y010406D02*
X032405Y010406D01*
X032405Y010481D01*
X032430Y010506D01*
X032480Y010506D01*
X032505Y010481D01*
X030367Y004114D02*
X030331Y004077D01*
X030367Y004114D02*
X030367Y004004D01*
X030331Y004004D02*
X030404Y004004D01*
D15*
X028532Y025996D03*
X027868Y025996D03*
X022032Y025996D03*
X021368Y025996D03*
X015532Y025996D03*
X014868Y025996D03*
X009032Y025996D03*
X008368Y025996D03*
X002532Y025996D03*
X034368Y025996D03*
X036032Y025996D03*
X041868Y025996D03*
D16*
X039830Y013500D02*
X039075Y013500D01*
X039075Y012860D02*
X039830Y012860D01*
X037361Y012680D02*
X037039Y012680D01*
X037039Y012180D02*
X037361Y012180D01*
X037450Y010591D02*
X037450Y010269D01*
X036950Y010269D02*
X036950Y010591D01*
X036880Y008555D02*
X036880Y007800D01*
X037520Y007800D02*
X037520Y008555D01*
X035410Y006860D02*
X033240Y006860D01*
X033240Y004500D01*
X035410Y004500D01*
X035410Y006860D01*
X030111Y006930D02*
X029789Y006930D01*
X029789Y006430D02*
X030111Y006430D01*
X030111Y005680D02*
X029789Y005680D01*
X029789Y005180D02*
X030111Y005180D01*
X021950Y011400D02*
X021950Y011960D01*
X021450Y011960D02*
X021450Y011400D01*
X023720Y013660D02*
X023720Y019030D01*
X023550Y019030D01*
X023550Y019200D01*
X018180Y019200D01*
X018180Y013660D01*
X023720Y013660D01*
X023045Y018745D02*
X023047Y018774D01*
X023053Y018803D01*
X023062Y018831D01*
X023076Y018857D01*
X023092Y018881D01*
X023112Y018903D01*
X023135Y018922D01*
X023159Y018938D01*
X023186Y018950D01*
X023214Y018959D01*
X023243Y018964D01*
X023272Y018965D01*
X023302Y018962D01*
X023330Y018955D01*
X023358Y018945D01*
X023383Y018930D01*
X023407Y018913D01*
X023428Y018893D01*
X023446Y018870D01*
X023461Y018844D01*
X023473Y018817D01*
X023481Y018789D01*
X023485Y018760D01*
X023485Y018730D01*
X023481Y018701D01*
X023473Y018673D01*
X023461Y018646D01*
X023446Y018620D01*
X023428Y018597D01*
X023407Y018577D01*
X023383Y018560D01*
X023358Y018545D01*
X023330Y018535D01*
X023302Y018528D01*
X023272Y018525D01*
X023243Y018526D01*
X023214Y018531D01*
X023186Y018540D01*
X023159Y018552D01*
X023135Y018568D01*
X023112Y018587D01*
X023092Y018609D01*
X023076Y018633D01*
X023062Y018659D01*
X023053Y018687D01*
X023047Y018716D01*
X023045Y018745D01*
X024880Y019555D02*
X024880Y020310D01*
X025520Y020310D02*
X025520Y019555D01*
X020950Y021519D02*
X020950Y021841D01*
X020450Y021841D02*
X020450Y021519D01*
X016230Y018430D02*
X015670Y018430D01*
X015670Y017930D02*
X016230Y017930D01*
X009400Y019600D02*
X008500Y019600D01*
X008500Y020260D02*
X009400Y020260D01*
X009400Y020850D02*
X008500Y020850D01*
X008500Y021510D02*
X009400Y021510D01*
X009789Y011930D02*
X010111Y011930D01*
X010111Y011430D02*
X009789Y011430D01*
X009789Y010930D02*
X010111Y010930D01*
X010111Y010430D02*
X009789Y010430D01*
X009789Y009930D02*
X010111Y009930D01*
X010111Y009430D02*
X009789Y009430D01*
X007611Y006680D02*
X007289Y006680D01*
X007289Y006180D02*
X007611Y006180D01*
D17*
X007742Y006429D03*
X007162Y006429D03*
X009662Y009679D03*
X010242Y009679D03*
X010242Y010679D03*
X009662Y010679D03*
X009658Y011681D03*
X010238Y011681D03*
X029662Y006679D03*
X030242Y006679D03*
X030238Y005431D03*
X029658Y005431D03*
X036908Y012431D03*
X037488Y012431D03*
D18*
X037430Y011910D02*
X037430Y011450D01*
X037277Y011450D02*
X036970Y011450D01*
X037123Y011450D02*
X037123Y011910D01*
X036970Y011757D01*
X037430Y011603D02*
X037737Y011910D01*
X037507Y011680D02*
X037737Y011450D01*
X036680Y010547D02*
X036450Y010316D01*
X036527Y010240D02*
X036220Y010547D01*
X036220Y010240D02*
X036680Y010240D01*
X036680Y010086D02*
X036680Y009779D01*
X036680Y009933D02*
X036220Y009933D01*
X036373Y009779D01*
X036323Y009031D02*
X036477Y008801D01*
X036630Y009031D01*
X036630Y008801D02*
X036170Y008801D01*
X036170Y008648D02*
X036246Y008648D01*
X036553Y008341D01*
X036630Y008341D01*
X036630Y008187D02*
X036630Y008110D01*
X036553Y008110D01*
X036553Y008187D01*
X036630Y008187D01*
X036630Y007880D02*
X036170Y007880D01*
X036400Y007650D01*
X036400Y007957D01*
X036170Y008341D02*
X036170Y008648D01*
X032016Y005160D02*
X032016Y004700D01*
X032016Y004853D02*
X032246Y005007D01*
X032016Y004853D02*
X032246Y004700D01*
X031862Y004777D02*
X031786Y004700D01*
X031632Y004700D01*
X031555Y004777D01*
X031862Y005084D01*
X031862Y004777D01*
X031555Y004777D02*
X031555Y005084D01*
X031632Y005160D01*
X031786Y005160D01*
X031862Y005084D01*
X031248Y005160D02*
X031248Y004700D01*
X031095Y004700D02*
X031402Y004700D01*
X031095Y005007D02*
X031248Y005160D01*
X031277Y006700D02*
X030970Y006700D01*
X031123Y006700D02*
X031123Y007160D01*
X030970Y007007D01*
X031430Y007160D02*
X031430Y006700D01*
X031430Y006853D02*
X031661Y006700D01*
X031430Y006853D02*
X031661Y007007D01*
X027791Y004910D02*
X027637Y004834D01*
X027484Y004680D01*
X027714Y004680D01*
X027791Y004603D01*
X027791Y004527D01*
X027714Y004450D01*
X027561Y004450D01*
X027484Y004527D01*
X027484Y004680D01*
X027331Y004450D02*
X027024Y004450D01*
X027177Y004450D02*
X027177Y004910D01*
X027024Y004757D01*
X026870Y004834D02*
X026563Y004527D01*
X026640Y004450D01*
X026793Y004450D01*
X026870Y004527D01*
X026870Y004834D01*
X026793Y004910D01*
X026640Y004910D01*
X026563Y004834D01*
X026563Y004527D01*
X026410Y004680D02*
X026103Y004680D01*
X026333Y004910D01*
X026333Y004450D01*
X025949Y004680D02*
X025642Y004680D01*
X025489Y004603D02*
X025489Y004527D01*
X025412Y004450D01*
X025259Y004450D01*
X025182Y004527D01*
X025182Y004603D01*
X025259Y004680D01*
X025412Y004680D01*
X025489Y004603D01*
X025412Y004680D02*
X025489Y004757D01*
X025489Y004834D01*
X025412Y004910D01*
X025259Y004910D01*
X025182Y004834D01*
X025182Y004757D01*
X025259Y004680D01*
X025029Y004680D02*
X024952Y004757D01*
X024875Y004757D01*
X024722Y004680D01*
X024722Y004910D01*
X025029Y004910D01*
X025029Y004680D02*
X025029Y004527D01*
X024952Y004450D01*
X024798Y004450D01*
X024722Y004527D01*
X024568Y004834D02*
X024261Y004527D01*
X024261Y004450D01*
X024108Y004834D02*
X023801Y004527D01*
X023801Y004450D01*
X023647Y004527D02*
X023571Y004450D01*
X023417Y004450D01*
X023340Y004527D01*
X023340Y004603D01*
X023417Y004680D01*
X023571Y004680D01*
X023647Y004603D01*
X023647Y004527D01*
X023571Y004680D02*
X023647Y004757D01*
X023647Y004834D01*
X023571Y004910D01*
X023417Y004910D01*
X023340Y004834D01*
X023340Y004757D01*
X023417Y004680D01*
X023801Y004910D02*
X024108Y004910D01*
X024108Y004834D01*
X024261Y004910D02*
X024568Y004910D01*
X024568Y004834D01*
X022705Y011300D02*
X022705Y011607D01*
X022705Y011760D02*
X022245Y011760D01*
X022398Y011991D02*
X022552Y011760D01*
X022705Y011991D01*
X022705Y011453D02*
X022245Y011453D01*
X022398Y011300D01*
X020685Y013886D02*
X020378Y013886D01*
X020225Y014039D01*
X020378Y014193D01*
X020685Y014193D01*
X020455Y014193D02*
X020455Y013886D01*
X020225Y014346D02*
X020225Y014653D01*
X020225Y014500D02*
X020685Y014500D01*
X020608Y014806D02*
X020685Y014883D01*
X020685Y015037D01*
X020608Y015113D01*
X020301Y015113D01*
X020225Y015037D01*
X020225Y014883D01*
X020301Y014806D01*
X020378Y014806D01*
X020455Y014883D01*
X020455Y015113D01*
X020608Y015267D02*
X020301Y015574D01*
X020608Y015574D01*
X020685Y015497D01*
X020685Y015344D01*
X020608Y015267D01*
X020301Y015267D01*
X020225Y015344D01*
X020225Y015497D01*
X020301Y015574D01*
X020225Y015727D02*
X020608Y015727D01*
X020685Y015804D01*
X020685Y015957D01*
X020608Y016034D01*
X020225Y016034D01*
X020301Y016188D02*
X020378Y016188D01*
X020455Y016264D01*
X020455Y016418D01*
X020532Y016495D01*
X020608Y016495D01*
X020685Y016418D01*
X020685Y016264D01*
X020608Y016188D01*
X020301Y016188D02*
X020225Y016264D01*
X020225Y016418D01*
X020301Y016495D01*
X020225Y016648D02*
X020225Y016878D01*
X020301Y016955D01*
X020378Y016955D01*
X020455Y016878D01*
X020455Y016648D01*
X020685Y016648D02*
X020685Y016878D01*
X020608Y016955D01*
X020532Y016955D01*
X020455Y016878D01*
X020378Y017108D02*
X020225Y017262D01*
X020685Y017262D01*
X020685Y017415D02*
X020685Y017108D01*
X020685Y016648D02*
X020225Y016648D01*
X020301Y017569D02*
X020225Y017646D01*
X020225Y017799D01*
X020301Y017876D01*
X020378Y017876D01*
X020685Y017569D01*
X020685Y017876D01*
X020608Y018029D02*
X020532Y018029D01*
X020455Y018106D01*
X020455Y018259D01*
X020532Y018336D01*
X020608Y018336D01*
X020685Y018259D01*
X020685Y018106D01*
X020608Y018029D01*
X020455Y018106D02*
X020378Y018029D01*
X020301Y018029D01*
X020225Y018106D01*
X020225Y018259D01*
X020301Y018336D01*
X020378Y018336D01*
X020455Y018259D01*
X020455Y018490D02*
X020455Y018720D01*
X020532Y018797D01*
X020608Y018797D01*
X020685Y018720D01*
X020685Y018566D01*
X020608Y018490D01*
X020455Y018490D01*
X020301Y018643D01*
X020225Y018797D01*
X023220Y020603D02*
X023680Y020603D01*
X023680Y020450D02*
X023680Y020757D01*
X023603Y020910D02*
X023680Y020987D01*
X023680Y021217D01*
X023373Y021217D01*
X023450Y021371D02*
X023450Y021524D01*
X023680Y021371D02*
X023220Y021371D01*
X023220Y021678D01*
X023890Y021310D02*
X023890Y020550D01*
X023603Y020910D02*
X023373Y020910D01*
X023220Y020603D02*
X023373Y020450D01*
X024510Y020550D02*
X024510Y021310D01*
X025020Y021485D02*
X025020Y021639D01*
X025096Y021715D01*
X025403Y021408D01*
X025480Y021485D01*
X025480Y021639D01*
X025403Y021715D01*
X025096Y021715D01*
X025096Y021869D02*
X025020Y021946D01*
X025020Y022099D01*
X025096Y022176D01*
X025403Y021869D01*
X025480Y021946D01*
X025480Y022099D01*
X025403Y022176D01*
X025096Y022176D01*
X025173Y022329D02*
X025173Y022406D01*
X025250Y022483D01*
X025173Y022559D01*
X025250Y022636D01*
X025480Y022636D01*
X025480Y022483D02*
X025250Y022483D01*
X025173Y022329D02*
X025480Y022329D01*
X025403Y021869D02*
X025096Y021869D01*
X025020Y021485D02*
X025096Y021408D01*
X025403Y021408D01*
X025480Y021255D02*
X025480Y020948D01*
X025480Y021101D02*
X025020Y021101D01*
X025173Y020948D01*
X025890Y020800D02*
X025890Y021560D01*
X026510Y021560D02*
X026510Y020800D01*
X026720Y020853D02*
X027180Y020853D01*
X027180Y020700D02*
X027180Y021007D01*
X027103Y021160D02*
X027180Y021237D01*
X027180Y021467D01*
X026873Y021467D01*
X026950Y021621D02*
X026950Y021774D01*
X027180Y021621D02*
X026720Y021621D01*
X026720Y021928D01*
X026873Y021160D02*
X027103Y021160D01*
X026720Y020853D02*
X026873Y020700D01*
X029130Y020797D02*
X029591Y020797D01*
X029591Y020950D02*
X029130Y020950D01*
X029360Y020950D02*
X029360Y021257D01*
X029207Y021410D02*
X029514Y021410D01*
X029591Y021487D01*
X029591Y021641D01*
X029514Y021717D01*
X029207Y021717D01*
X029130Y021641D01*
X029130Y021487D01*
X029207Y021410D01*
X029130Y021257D02*
X029591Y021257D01*
X029360Y020797D02*
X029360Y020490D01*
X029360Y020336D02*
X029360Y020183D01*
X029360Y020336D02*
X029514Y020336D01*
X029591Y020259D01*
X029591Y020106D01*
X029514Y020029D01*
X029207Y020029D01*
X029130Y020106D01*
X029130Y020259D01*
X029207Y020336D01*
X029130Y020490D02*
X029591Y020490D01*
X029514Y019876D02*
X029130Y019876D01*
X029130Y019569D02*
X029514Y019569D01*
X029591Y019646D01*
X029591Y019799D01*
X029514Y019876D01*
X029514Y019415D02*
X029207Y019415D01*
X029130Y019339D01*
X029130Y019185D01*
X029207Y019108D01*
X029514Y019108D01*
X029591Y019185D01*
X029591Y019339D01*
X029514Y019415D01*
X029591Y018955D02*
X029437Y018802D01*
X029437Y018878D02*
X029437Y018648D01*
X029591Y018648D02*
X029130Y018648D01*
X029130Y018878D01*
X029207Y018955D01*
X029360Y018955D01*
X029437Y018878D01*
X029360Y018495D02*
X029360Y018188D01*
X029130Y018188D02*
X029591Y018188D01*
X029591Y018495D02*
X029130Y018495D01*
X029130Y018034D02*
X029130Y017727D01*
X029130Y017574D02*
X029130Y017267D01*
X029591Y017267D01*
X029591Y017574D01*
X029360Y017420D02*
X029360Y017267D01*
X029130Y017113D02*
X029130Y016806D01*
X029591Y016806D01*
X029591Y017113D01*
X029360Y016960D02*
X029360Y016806D01*
X029284Y016653D02*
X029360Y016576D01*
X029360Y016346D01*
X029360Y016193D02*
X029360Y016039D01*
X029360Y016193D02*
X029514Y016193D01*
X029591Y016116D01*
X029591Y015962D01*
X029514Y015886D01*
X029207Y015886D01*
X029130Y015962D01*
X029130Y016116D01*
X029207Y016193D01*
X029130Y016346D02*
X029130Y016576D01*
X029207Y016653D01*
X029284Y016653D01*
X029360Y016576D02*
X029437Y016653D01*
X029514Y016653D01*
X029591Y016576D01*
X029591Y016346D01*
X029130Y016346D01*
X029130Y015732D02*
X029130Y015579D01*
X029130Y015656D02*
X029591Y015656D01*
X029591Y015732D02*
X029591Y015579D01*
X029591Y015425D02*
X029591Y015118D01*
X029514Y015118D01*
X029207Y015425D01*
X029130Y015425D01*
X029130Y015118D01*
X029360Y014965D02*
X029360Y014658D01*
X029360Y014505D02*
X029514Y014505D01*
X029591Y014428D01*
X029591Y014274D01*
X029514Y014198D01*
X029360Y014198D02*
X029284Y014351D01*
X029284Y014428D01*
X029360Y014505D01*
X029130Y014505D02*
X029130Y014198D01*
X029360Y014198D01*
X029207Y014044D02*
X029514Y013737D01*
X029591Y013814D01*
X029591Y013967D01*
X029514Y014044D01*
X029207Y014044D01*
X029130Y013967D01*
X029130Y013814D01*
X029207Y013737D01*
X029514Y013737D01*
X029591Y013584D02*
X029591Y013277D01*
X029514Y013277D01*
X029207Y013584D01*
X029130Y013584D01*
X029130Y013277D01*
X029207Y013123D02*
X029130Y013047D01*
X029130Y012893D01*
X029207Y012816D01*
X029284Y012816D01*
X029360Y012893D01*
X029360Y013047D01*
X029437Y013123D01*
X029514Y013123D01*
X029591Y013047D01*
X029591Y012893D01*
X029514Y012816D01*
X027062Y014700D02*
X027062Y015160D01*
X027368Y015160D01*
X027215Y014930D02*
X027062Y014930D01*
X026908Y014930D02*
X026908Y014700D01*
X026908Y014930D02*
X026831Y015007D01*
X026601Y015007D01*
X026601Y014700D01*
X026448Y014777D02*
X026448Y015084D01*
X026141Y014777D01*
X026218Y014700D01*
X026371Y014700D01*
X026448Y014777D01*
X026448Y015084D02*
X026371Y015160D01*
X026218Y015160D01*
X026141Y015084D01*
X026141Y014777D01*
X025987Y014777D02*
X025987Y015084D01*
X025680Y014777D01*
X025757Y014700D01*
X025911Y014700D01*
X025987Y014777D01*
X025680Y014777D02*
X025680Y015084D01*
X025757Y015160D01*
X025911Y015160D01*
X025987Y015084D01*
X026080Y015370D02*
X025320Y015370D01*
X025373Y015160D02*
X025373Y014700D01*
X025220Y014700D02*
X025527Y014700D01*
X025220Y015007D02*
X025373Y015160D01*
X025320Y015990D02*
X026080Y015990D01*
X026027Y016950D02*
X025720Y016950D01*
X025873Y016950D02*
X025873Y017410D01*
X025720Y017257D01*
X026180Y017334D02*
X026257Y017410D01*
X026411Y017410D01*
X026487Y017334D01*
X026180Y017027D01*
X026257Y016950D01*
X026411Y016950D01*
X026487Y017027D01*
X026487Y017334D01*
X026641Y017334D02*
X026718Y017410D01*
X026871Y017410D01*
X026948Y017334D01*
X026641Y017027D01*
X026718Y016950D01*
X026871Y016950D01*
X026948Y017027D01*
X026948Y017334D01*
X027101Y017257D02*
X027331Y017257D01*
X027408Y017180D01*
X027408Y016950D01*
X027562Y016950D02*
X027562Y017410D01*
X027868Y017410D01*
X027715Y017180D02*
X027562Y017180D01*
X027101Y017257D02*
X027101Y016950D01*
X026641Y017027D02*
X026641Y017334D01*
X026180Y017334D02*
X026180Y017027D01*
X026080Y017870D02*
X025320Y017870D01*
X025320Y018490D02*
X026080Y018490D01*
X029130Y017881D02*
X029591Y017881D01*
X029591Y021871D02*
X029130Y021871D01*
X029130Y022331D02*
X029591Y022331D01*
X029591Y022638D01*
X029360Y022485D02*
X029360Y022331D01*
X029130Y022331D02*
X029130Y022638D01*
X029591Y022178D02*
X029591Y021871D01*
X025480Y022790D02*
X025020Y022790D01*
X025250Y022790D02*
X025250Y023097D01*
X025020Y023097D02*
X025480Y023097D01*
X021680Y022217D02*
X021450Y021987D01*
X021527Y021910D02*
X021220Y022217D01*
X021220Y021910D02*
X021680Y021910D01*
X021680Y021757D02*
X021680Y021450D01*
X021680Y021603D02*
X021220Y021603D01*
X021373Y021450D01*
X020324Y022615D02*
X019576Y022615D01*
X019350Y022713D02*
X019352Y022725D01*
X019357Y022736D01*
X019366Y022745D01*
X019377Y022750D01*
X019389Y022752D01*
X019401Y022750D01*
X019412Y022745D01*
X019421Y022736D01*
X019426Y022725D01*
X019428Y022713D01*
X019426Y022701D01*
X019421Y022690D01*
X019412Y022681D01*
X019401Y022676D01*
X019389Y022674D01*
X019377Y022676D01*
X019366Y022681D01*
X019357Y022690D01*
X019352Y022701D01*
X019350Y022713D01*
X019576Y023245D02*
X020324Y023245D01*
X020317Y023450D02*
X020317Y023910D01*
X020010Y023910D02*
X020317Y023450D01*
X020010Y023450D02*
X020010Y023910D01*
X019856Y023910D02*
X019549Y023910D01*
X019549Y023450D01*
X019856Y023450D01*
X019703Y023680D02*
X019549Y023680D01*
X019396Y023450D02*
X019089Y023450D01*
X019089Y023910D01*
X019396Y023910D01*
X019242Y023680D02*
X019089Y023680D01*
X018935Y023680D02*
X018935Y023834D01*
X018859Y023910D01*
X018628Y023910D01*
X018628Y023450D01*
X018628Y023603D02*
X018859Y023603D01*
X018935Y023680D01*
X018782Y023603D02*
X018935Y023450D01*
X018475Y023527D02*
X018475Y023680D01*
X018321Y023680D01*
X018168Y023527D02*
X018245Y023450D01*
X018398Y023450D01*
X018475Y023527D01*
X018475Y023834D02*
X018398Y023910D01*
X018245Y023910D01*
X018168Y023834D01*
X018168Y023527D01*
X016330Y019490D02*
X015570Y019490D01*
X014817Y019410D02*
X014510Y019410D01*
X014510Y018950D01*
X014356Y018950D02*
X014356Y019180D01*
X014279Y019257D01*
X014049Y019257D01*
X014049Y018950D01*
X013896Y019027D02*
X013819Y018950D01*
X013666Y018950D01*
X013589Y019027D01*
X013896Y019334D01*
X013896Y019027D01*
X013896Y019334D02*
X013819Y019410D01*
X013666Y019410D01*
X013589Y019334D01*
X013589Y019027D01*
X013435Y019027D02*
X013359Y018950D01*
X013205Y018950D01*
X013128Y019027D01*
X013435Y019334D01*
X013435Y019027D01*
X013128Y019027D02*
X013128Y019334D01*
X013205Y019410D01*
X013359Y019410D01*
X013435Y019334D01*
X012821Y019410D02*
X012668Y019257D01*
X012821Y019410D02*
X012821Y018950D01*
X012668Y018950D02*
X012975Y018950D01*
X012908Y018410D02*
X012601Y018410D01*
X012601Y017950D01*
X012448Y018027D02*
X012371Y017950D01*
X012141Y017950D01*
X012141Y017797D02*
X012141Y018257D01*
X012371Y018257D01*
X012448Y018180D01*
X012448Y018027D01*
X012601Y018180D02*
X012755Y018180D01*
X012580Y017740D02*
X011820Y017740D01*
X011757Y017950D02*
X011680Y018027D01*
X011987Y018334D01*
X011987Y018027D01*
X011911Y017950D01*
X011757Y017950D01*
X011680Y018027D02*
X011680Y018334D01*
X011757Y018410D01*
X011911Y018410D01*
X011987Y018334D01*
X011527Y017950D02*
X011220Y017950D01*
X011373Y017950D02*
X011373Y018410D01*
X011220Y018257D01*
X010430Y018185D02*
X010430Y018339D01*
X010353Y018415D01*
X010046Y018415D01*
X010353Y018108D01*
X010430Y018185D01*
X010353Y018108D02*
X010046Y018108D01*
X009970Y018185D01*
X009970Y018339D01*
X010046Y018415D01*
X010046Y018569D02*
X009970Y018646D01*
X009970Y018799D01*
X010046Y018876D01*
X010353Y018569D01*
X010430Y018646D01*
X010430Y018799D01*
X010353Y018876D01*
X010046Y018876D01*
X010123Y019029D02*
X010123Y019259D01*
X010200Y019336D01*
X010430Y019336D01*
X010430Y019490D02*
X009970Y019490D01*
X009970Y019797D01*
X010200Y019643D02*
X010200Y019490D01*
X010123Y019029D02*
X010430Y019029D01*
X010353Y018569D02*
X010046Y018569D01*
X010430Y017955D02*
X010430Y017648D01*
X010430Y017801D02*
X009970Y017801D01*
X010123Y017648D01*
X009890Y017060D02*
X009890Y016300D01*
X009260Y016300D02*
X009260Y017060D01*
X008640Y017060D02*
X008640Y016300D01*
X008873Y017700D02*
X008720Y017853D01*
X009180Y017853D01*
X009180Y017700D02*
X009180Y018007D01*
X009103Y018160D02*
X009180Y018237D01*
X009180Y018391D01*
X009103Y018467D01*
X008796Y018467D01*
X009103Y018160D01*
X008796Y018160D01*
X008720Y018237D01*
X008720Y018391D01*
X008796Y018467D01*
X008873Y018621D02*
X009103Y018621D01*
X009180Y018698D01*
X009180Y018928D01*
X008873Y018928D01*
X008950Y019081D02*
X008950Y019235D01*
X008720Y019081D02*
X008720Y019388D01*
X008720Y019081D02*
X009180Y019081D01*
X007567Y019700D02*
X007260Y019700D01*
X007567Y020007D01*
X007567Y020084D01*
X007490Y020160D01*
X007336Y020160D01*
X007260Y020084D01*
X007106Y020084D02*
X007029Y020160D01*
X006876Y020160D01*
X006799Y020084D01*
X006817Y020160D02*
X006510Y020160D01*
X006510Y019700D01*
X006356Y019700D02*
X006356Y020007D01*
X006510Y019930D02*
X006663Y019930D01*
X006799Y019700D02*
X007106Y020007D01*
X007106Y020084D01*
X007106Y019700D02*
X006799Y019700D01*
X006830Y019490D02*
X006070Y019490D01*
X006126Y019700D02*
X006049Y019777D01*
X006049Y020007D01*
X006126Y019700D02*
X006356Y019700D01*
X005896Y019700D02*
X005589Y019700D01*
X005742Y019700D02*
X005742Y020160D01*
X005589Y020007D01*
X006549Y021075D02*
X006856Y021382D01*
X006856Y021459D01*
X006779Y021535D01*
X006626Y021535D01*
X006549Y021459D01*
X006549Y021075D02*
X006856Y021075D01*
X007010Y021075D02*
X007317Y021382D01*
X007317Y021459D01*
X007240Y021535D01*
X007086Y021535D01*
X007010Y021459D01*
X007010Y021075D02*
X007317Y021075D01*
X006830Y018870D02*
X006070Y018870D01*
X003943Y018084D02*
X003943Y018007D01*
X003866Y017930D01*
X003636Y017930D01*
X003482Y017853D02*
X003482Y017777D01*
X003406Y017700D01*
X003252Y017700D01*
X003175Y017777D01*
X003022Y017777D02*
X003022Y018160D01*
X003175Y018084D02*
X003175Y018007D01*
X003252Y017930D01*
X003406Y017930D01*
X003482Y017853D01*
X003636Y017700D02*
X003866Y017700D01*
X003943Y017777D01*
X003943Y017853D01*
X003866Y017930D01*
X003943Y018084D02*
X003866Y018160D01*
X003636Y018160D01*
X003636Y017700D01*
X003482Y018084D02*
X003406Y018160D01*
X003252Y018160D01*
X003175Y018084D01*
X003022Y017777D02*
X002945Y017700D01*
X002792Y017700D01*
X002715Y017777D01*
X002715Y018160D01*
X002562Y017930D02*
X002255Y017930D01*
X002101Y017700D02*
X001948Y017700D01*
X002024Y017700D02*
X002024Y018160D01*
X001948Y018160D02*
X002101Y018160D01*
X001794Y018160D02*
X001794Y017700D01*
X001487Y018160D01*
X001487Y017700D01*
X001334Y017700D02*
X001180Y017700D01*
X001257Y017700D02*
X001257Y018160D01*
X001180Y018160D02*
X001334Y018160D01*
X001027Y018160D02*
X001027Y017700D01*
X000720Y017700D02*
X000720Y018160D01*
X000873Y018007D01*
X001027Y018160D01*
X000998Y018509D02*
X001141Y018509D01*
X001141Y018672D01*
X001386Y018672D01*
X001386Y018509D01*
X001541Y018509D01*
X001541Y018918D01*
X003554Y018918D01*
X003595Y018774D02*
X003622Y018776D01*
X003649Y018781D01*
X003675Y018789D01*
X003700Y018800D01*
X003723Y018814D01*
X003744Y018831D01*
X003763Y018850D01*
X003780Y018871D01*
X003794Y018894D01*
X003805Y018919D01*
X003813Y018945D01*
X003818Y018972D01*
X003820Y018999D01*
X003656Y019020D02*
X003656Y019245D01*
X003799Y019245D01*
X003819Y019245D02*
X003819Y021861D01*
X003656Y021840D02*
X003656Y021615D01*
X003799Y021615D01*
X003819Y021615D02*
X003819Y021227D01*
X003799Y021227D02*
X003063Y021227D01*
X003063Y019653D01*
X003063Y019633D02*
X003799Y019633D01*
X003819Y019633D02*
X003819Y019245D01*
X003656Y019020D02*
X003654Y019002D01*
X003650Y018985D01*
X003642Y018969D01*
X003632Y018954D01*
X003620Y018942D01*
X003605Y018932D01*
X003589Y018924D01*
X003572Y018920D01*
X003554Y018918D01*
X003594Y018775D02*
X002654Y018775D01*
X002654Y018836D01*
X002656Y018852D01*
X002660Y018867D01*
X002668Y018882D01*
X002678Y018894D01*
X002690Y018904D01*
X002705Y018912D01*
X002720Y018916D01*
X002736Y018918D01*
X001827Y018918D01*
X001735Y019265D02*
X001735Y019347D01*
X000794Y019449D01*
X000794Y019653D01*
X001735Y019756D01*
X001735Y019837D01*
X000651Y019735D01*
X000632Y019731D01*
X000613Y019725D01*
X000596Y019715D01*
X000580Y019703D01*
X000567Y019688D01*
X000556Y019671D01*
X000549Y019653D01*
X000549Y019429D02*
X000556Y019411D01*
X000567Y019394D01*
X000580Y019379D01*
X000596Y019367D01*
X000613Y019357D01*
X000632Y019351D01*
X000651Y019347D01*
X001735Y019265D01*
X000998Y018918D02*
X000998Y018509D01*
X000998Y018918D02*
X000120Y018918D01*
X000712Y018918D01*
X000120Y018918D02*
X000120Y021942D01*
X000712Y021942D01*
X000998Y021942D02*
X000120Y021942D01*
X000651Y021513D02*
X001735Y021595D01*
X001735Y021513D01*
X000794Y021411D01*
X000794Y021207D01*
X001735Y021104D01*
X001735Y021023D01*
X000651Y021125D01*
X000632Y021129D01*
X000613Y021135D01*
X000596Y021145D01*
X000580Y021157D01*
X000567Y021172D01*
X000556Y021189D01*
X000549Y021207D01*
X000549Y021432D02*
X000556Y021450D01*
X000567Y021467D01*
X000580Y021482D01*
X000596Y021494D01*
X000613Y021504D01*
X000632Y021510D01*
X000651Y021514D01*
X000550Y021431D02*
X000541Y021394D01*
X000535Y021357D01*
X000533Y021319D01*
X000535Y021281D01*
X000541Y021244D01*
X000550Y021207D01*
X000651Y020921D02*
X002246Y020839D01*
X002264Y020836D01*
X002281Y020829D01*
X002296Y020820D01*
X002309Y020807D01*
X002318Y020792D01*
X002325Y020775D01*
X002328Y020757D01*
X002327Y020757D02*
X002327Y020103D01*
X002328Y020103D02*
X002325Y020085D01*
X002318Y020068D01*
X002309Y020053D01*
X002296Y020040D01*
X002281Y020031D01*
X002264Y020024D01*
X002246Y020021D01*
X000651Y019940D01*
X000651Y019939D02*
X000635Y019941D01*
X000620Y019945D01*
X000605Y019953D01*
X000593Y019963D01*
X000583Y019975D01*
X000575Y019990D01*
X000571Y020005D01*
X000569Y020021D01*
X000571Y020037D01*
X000575Y020052D01*
X000583Y020067D01*
X000593Y020079D01*
X000605Y020089D01*
X000620Y020097D01*
X000635Y020101D01*
X000651Y020103D01*
X002000Y020185D01*
X002000Y020675D01*
X000651Y020757D01*
X000635Y020759D01*
X000620Y020763D01*
X000605Y020771D01*
X000593Y020781D01*
X000583Y020793D01*
X000575Y020808D01*
X000571Y020823D01*
X000569Y020839D01*
X000570Y020839D02*
X000570Y020839D01*
X000569Y020839D02*
X000571Y020855D01*
X000575Y020870D01*
X000583Y020885D01*
X000593Y020897D01*
X000605Y020907D01*
X000620Y020915D01*
X000635Y020919D01*
X000651Y020921D01*
X000998Y021942D02*
X000998Y022351D01*
X001141Y022351D01*
X001141Y022188D01*
X001386Y022188D01*
X001386Y022351D01*
X001541Y022351D01*
X001541Y021942D01*
X002736Y021942D01*
X003554Y021942D01*
X003594Y022086D02*
X003621Y022084D01*
X003648Y022079D01*
X003674Y022071D01*
X003699Y022060D01*
X003722Y022046D01*
X003743Y022029D01*
X003762Y022010D01*
X003779Y021989D01*
X003793Y021966D01*
X003804Y021941D01*
X003812Y021915D01*
X003817Y021888D01*
X003819Y021861D01*
X003656Y021840D02*
X003654Y021858D01*
X003650Y021875D01*
X003642Y021891D01*
X003632Y021906D01*
X003620Y021918D01*
X003605Y021928D01*
X003589Y021936D01*
X003572Y021940D01*
X003554Y021942D01*
X003594Y022086D02*
X002654Y022086D01*
X002654Y022024D01*
X002656Y022008D01*
X002660Y021993D01*
X002668Y021978D01*
X002678Y021966D01*
X002690Y021956D01*
X002705Y021948D01*
X002720Y021944D01*
X002736Y021942D01*
X001827Y021942D01*
X002675Y021125D02*
X002675Y019735D01*
X002677Y019715D01*
X002683Y019696D01*
X002692Y019678D01*
X002705Y019663D01*
X002720Y019650D01*
X002738Y019641D01*
X002757Y019635D01*
X002777Y019633D01*
X002793Y019635D01*
X002808Y019639D01*
X002823Y019647D01*
X002835Y019657D01*
X002845Y019669D01*
X002853Y019684D01*
X002857Y019699D01*
X002859Y019715D01*
X002859Y021145D01*
X002857Y021161D01*
X002853Y021176D01*
X002845Y021191D01*
X002835Y021203D01*
X002823Y021213D01*
X002808Y021221D01*
X002793Y021225D01*
X002777Y021227D01*
X002777Y021227D01*
X002757Y021225D01*
X002738Y021219D01*
X002720Y021210D01*
X002705Y021197D01*
X002692Y021182D01*
X002683Y021164D01*
X002677Y021145D01*
X002675Y021125D01*
X003656Y021207D02*
X003656Y019653D01*
X003656Y018754D02*
X003656Y018509D01*
X003492Y018509D01*
X003492Y018672D01*
X003288Y018672D01*
X003288Y018509D01*
X003124Y018509D01*
X003124Y018754D01*
X000550Y019429D02*
X000541Y019466D01*
X000535Y019503D01*
X000533Y019541D01*
X000535Y019579D01*
X000541Y019616D01*
X000550Y019653D01*
X000120Y018918D02*
X000120Y018918D01*
X002783Y016099D02*
X002706Y016023D01*
X002706Y015716D01*
X002783Y015639D01*
X002936Y015639D01*
X003013Y015716D01*
X003013Y015869D01*
X002859Y015869D01*
X003013Y016023D02*
X002936Y016099D01*
X002783Y016099D01*
X003166Y016099D02*
X003166Y015639D01*
X003473Y015639D02*
X003166Y016099D01*
X003473Y016099D02*
X003473Y015639D01*
X003627Y015639D02*
X003857Y015639D01*
X003934Y015716D01*
X003934Y016023D01*
X003857Y016099D01*
X003627Y016099D01*
X003627Y015639D01*
X005685Y015577D02*
X005992Y015577D01*
X006146Y015424D01*
X005992Y015270D01*
X005685Y015270D01*
X005685Y015117D02*
X005685Y014810D01*
X005915Y014810D01*
X005839Y014963D01*
X005839Y015040D01*
X005915Y015117D01*
X006069Y015117D01*
X006146Y015040D01*
X006146Y014887D01*
X006069Y014810D01*
X005915Y014657D02*
X005915Y014350D01*
X005762Y014503D02*
X006069Y014503D01*
X005992Y013789D02*
X005685Y013789D01*
X005992Y013789D02*
X006146Y013635D01*
X005992Y013482D01*
X005685Y013482D01*
X005762Y013328D02*
X005685Y013252D01*
X005685Y013098D01*
X005762Y013021D01*
X005762Y013328D02*
X005839Y013328D01*
X006146Y013021D01*
X006146Y013328D01*
X006146Y012868D02*
X006146Y012561D01*
X006146Y012714D02*
X005685Y012714D01*
X005839Y012561D01*
X005915Y012408D02*
X005915Y012101D01*
X005762Y012254D02*
X006069Y012254D01*
X003899Y012023D02*
X003899Y011716D01*
X003822Y011639D01*
X003592Y011639D01*
X003592Y012099D01*
X003822Y012099D01*
X003899Y012023D01*
X003439Y012099D02*
X003439Y011639D01*
X003132Y012099D01*
X003132Y011639D01*
X002978Y011716D02*
X002978Y011869D01*
X002825Y011869D01*
X002978Y011716D02*
X002902Y011639D01*
X002748Y011639D01*
X002671Y011716D01*
X002671Y012023D01*
X002748Y012099D01*
X002902Y012099D01*
X002978Y012023D01*
X006953Y007410D02*
X006799Y007257D01*
X006953Y007410D02*
X006953Y006950D01*
X007106Y006950D02*
X006799Y006950D01*
X007260Y006950D02*
X007260Y007410D01*
X007336Y007180D02*
X007567Y006950D01*
X007260Y007103D02*
X007567Y007410D01*
X009128Y008700D02*
X009435Y008700D01*
X009282Y008700D02*
X009282Y009160D01*
X009128Y009007D01*
X009589Y009160D02*
X009589Y008700D01*
X009589Y008853D02*
X009896Y009160D01*
X010049Y009007D02*
X010356Y008700D01*
X010510Y008777D02*
X010586Y008700D01*
X010740Y008700D01*
X010817Y008777D01*
X010817Y008853D01*
X010740Y008930D01*
X010663Y008930D01*
X010740Y008930D02*
X010817Y009007D01*
X010817Y009084D01*
X010740Y009160D01*
X010586Y009160D01*
X010510Y009084D01*
X010356Y009007D02*
X010049Y008700D01*
X009896Y008700D02*
X009666Y008930D01*
X011470Y008853D02*
X011700Y008853D01*
X011777Y008930D01*
X011777Y009084D01*
X011700Y009160D01*
X011470Y009160D01*
X011470Y008700D01*
X011623Y008853D02*
X011777Y008700D01*
X011930Y008700D02*
X012237Y008700D01*
X012391Y008700D02*
X012621Y008700D01*
X012698Y008777D01*
X012698Y009084D01*
X012621Y009160D01*
X012391Y009160D01*
X012391Y008700D01*
X012084Y008930D02*
X011930Y008930D01*
X011930Y009160D02*
X011930Y008700D01*
X011930Y009160D02*
X012237Y009160D01*
X012076Y009365D02*
X012824Y009365D01*
X012851Y009007D02*
X013158Y008700D01*
X013312Y008777D02*
X013388Y008700D01*
X013542Y008700D01*
X013618Y008777D01*
X013618Y008853D01*
X013542Y008930D01*
X013465Y008930D01*
X013542Y008930D02*
X013618Y009007D01*
X013618Y009084D01*
X013542Y009160D01*
X013388Y009160D01*
X013312Y009084D01*
X013158Y009007D02*
X012851Y008700D01*
X012972Y009897D02*
X012974Y009909D01*
X012979Y009920D01*
X012988Y009929D01*
X012999Y009934D01*
X013011Y009936D01*
X013023Y009934D01*
X013034Y009929D01*
X013043Y009920D01*
X013048Y009909D01*
X013050Y009897D01*
X013048Y009885D01*
X013043Y009874D01*
X013034Y009865D01*
X013023Y009860D01*
X013011Y009858D01*
X012999Y009860D01*
X012988Y009865D01*
X012979Y009874D01*
X012974Y009885D01*
X012972Y009897D01*
X012824Y009995D02*
X012076Y009995D01*
X012076Y010365D02*
X012824Y010365D01*
X012972Y010897D02*
X012974Y010909D01*
X012979Y010920D01*
X012988Y010929D01*
X012999Y010934D01*
X013011Y010936D01*
X013023Y010934D01*
X013034Y010929D01*
X013043Y010920D01*
X013048Y010909D01*
X013050Y010897D01*
X013048Y010885D01*
X013043Y010874D01*
X013034Y010865D01*
X013023Y010860D01*
X013011Y010858D01*
X012999Y010860D01*
X012988Y010865D01*
X012979Y010874D01*
X012974Y010885D01*
X012972Y010897D01*
X012824Y010995D02*
X012076Y010995D01*
X012076Y011365D02*
X012824Y011365D01*
X012972Y011897D02*
X012974Y011909D01*
X012979Y011920D01*
X012988Y011929D01*
X012999Y011934D01*
X013011Y011936D01*
X013023Y011934D01*
X013034Y011929D01*
X013043Y011920D01*
X013048Y011909D01*
X013050Y011897D01*
X013048Y011885D01*
X013043Y011874D01*
X013034Y011865D01*
X013023Y011860D01*
X013011Y011858D01*
X012999Y011860D01*
X012988Y011865D01*
X012979Y011874D01*
X012974Y011885D01*
X012972Y011897D01*
X012824Y011995D02*
X012076Y011995D01*
X012266Y014047D02*
X012266Y014507D01*
X012496Y014507D01*
X012573Y014430D01*
X012573Y014277D01*
X012496Y014200D01*
X012266Y014200D01*
X012112Y014277D02*
X012036Y014200D01*
X011882Y014200D01*
X011805Y014277D01*
X012112Y014584D01*
X012112Y014277D01*
X011805Y014277D02*
X011805Y014584D01*
X011882Y014660D01*
X012036Y014660D01*
X012112Y014584D01*
X011820Y014870D02*
X012580Y014870D01*
X012726Y014660D02*
X013033Y014660D01*
X012880Y014430D02*
X012726Y014430D01*
X012726Y014200D02*
X012726Y014660D01*
X012580Y015490D02*
X011820Y015490D01*
X011498Y014660D02*
X011498Y014200D01*
X011345Y014200D02*
X011652Y014200D01*
X011345Y014507D02*
X011498Y014660D01*
X010510Y016300D02*
X010510Y017060D01*
X011820Y017120D02*
X012580Y017120D01*
X013441Y018225D02*
X013747Y018225D01*
X013594Y018225D02*
X013594Y018685D01*
X013441Y018532D01*
X013901Y018609D02*
X013978Y018685D01*
X014131Y018685D01*
X014208Y018609D01*
X013901Y018302D01*
X013978Y018225D01*
X014131Y018225D01*
X014208Y018302D01*
X014208Y018609D01*
X014361Y018685D02*
X014361Y018225D01*
X014361Y018378D02*
X014592Y018225D01*
X014361Y018378D02*
X014592Y018532D01*
X013901Y018609D02*
X013901Y018302D01*
X014510Y019180D02*
X014663Y019180D01*
X015570Y018870D02*
X016330Y018870D01*
X016330Y017490D02*
X015570Y017490D01*
X015570Y016870D02*
X016330Y016870D01*
X016069Y016660D02*
X016146Y016584D01*
X015839Y016277D01*
X015916Y016200D01*
X016069Y016200D01*
X016146Y016277D01*
X016146Y016584D01*
X016069Y016660D02*
X015916Y016660D01*
X015839Y016584D01*
X015839Y016277D01*
X015685Y016277D02*
X015609Y016200D01*
X015455Y016200D01*
X015378Y016277D01*
X015685Y016584D01*
X015685Y016277D01*
X015378Y016277D02*
X015378Y016584D01*
X015455Y016660D01*
X015609Y016660D01*
X015685Y016584D01*
X015225Y016200D02*
X014918Y016200D01*
X015071Y016200D02*
X015071Y016660D01*
X014918Y016507D01*
X014963Y015681D02*
X015270Y015374D01*
X015270Y015681D01*
X014963Y015681D02*
X014963Y015374D01*
X015039Y015221D02*
X015039Y014914D01*
X014809Y014914D02*
X015270Y014914D01*
X015270Y014761D02*
X014809Y014761D01*
X014963Y014607D01*
X014809Y014454D01*
X015270Y014454D01*
X015193Y014300D02*
X015116Y014300D01*
X015039Y014223D01*
X015039Y013993D01*
X015193Y013993D01*
X015270Y014070D01*
X015270Y014223D01*
X015193Y014300D01*
X014886Y014147D02*
X015039Y013993D01*
X014886Y014147D02*
X014809Y014300D01*
X014809Y013686D02*
X015270Y013686D01*
X015270Y013533D02*
X015270Y013840D01*
X014963Y013533D02*
X014809Y013686D01*
X014809Y015221D02*
X015270Y015221D01*
X016299Y016200D02*
X016299Y016507D01*
X016529Y016507D01*
X016606Y016430D01*
X016606Y016200D01*
X016760Y016200D02*
X016760Y016660D01*
X017067Y016660D01*
X016913Y016430D02*
X016760Y016430D01*
X003656Y022106D02*
X003656Y022351D01*
X003492Y022351D01*
X003492Y022188D01*
X003288Y022188D01*
X003288Y022351D01*
X003124Y022351D01*
X003124Y022106D01*
X003208Y005760D02*
X003515Y005760D01*
X003668Y005684D02*
X003745Y005760D01*
X003898Y005760D01*
X003975Y005684D01*
X003975Y005607D01*
X003898Y005530D01*
X003975Y005453D01*
X003975Y005377D01*
X003898Y005300D01*
X003745Y005300D01*
X003668Y005377D01*
X003821Y005530D02*
X003898Y005530D01*
X004128Y005377D02*
X004128Y005300D01*
X004128Y005377D02*
X004435Y005684D01*
X004435Y005760D01*
X004128Y005760D01*
X004589Y005684D02*
X004666Y005760D01*
X004819Y005760D01*
X004896Y005684D01*
X004589Y005377D01*
X004666Y005300D01*
X004819Y005300D01*
X004896Y005377D01*
X004896Y005684D01*
X005049Y005530D02*
X005356Y005530D01*
X005510Y005607D02*
X005586Y005530D01*
X005740Y005530D01*
X005817Y005453D01*
X005817Y005377D01*
X005740Y005300D01*
X005586Y005300D01*
X005510Y005377D01*
X005510Y005607D02*
X005510Y005684D01*
X005586Y005760D01*
X005740Y005760D01*
X005817Y005684D01*
X005279Y005760D02*
X005279Y005300D01*
X005049Y005530D02*
X005279Y005760D01*
X004589Y005684D02*
X004589Y005377D01*
X003361Y005530D02*
X003208Y005530D01*
X003054Y005530D02*
X002977Y005453D01*
X002747Y005453D01*
X002747Y005300D02*
X002747Y005760D01*
X002977Y005760D01*
X003054Y005684D01*
X003054Y005530D01*
X002901Y005453D02*
X003054Y005300D01*
X003208Y005300D02*
X003208Y005760D01*
X002594Y005760D02*
X002440Y005760D01*
X002517Y005760D02*
X002517Y005300D01*
X002440Y005300D02*
X002594Y005300D01*
X038485Y013880D02*
X038792Y013880D01*
X038946Y013727D02*
X039022Y013727D01*
X039022Y013650D01*
X038946Y013650D01*
X038946Y013727D01*
X039176Y013727D02*
X039176Y013650D01*
X039176Y013727D02*
X039483Y014034D01*
X039483Y014110D01*
X039176Y014110D01*
X039636Y014110D02*
X039636Y013650D01*
X039636Y013803D02*
X039867Y013957D01*
X039636Y013803D02*
X039867Y013650D01*
X038716Y013650D02*
X038716Y014110D01*
X038485Y013880D01*
D19*
X019311Y022756D02*
X019311Y022792D01*
X019312Y022791D02*
X019335Y022793D01*
X019357Y022799D01*
X019377Y022808D01*
X019396Y022821D01*
X019413Y022837D01*
X019427Y022855D01*
X019438Y022875D01*
X019445Y022896D01*
X019449Y022919D01*
X019449Y022941D01*
X019445Y022964D01*
X019438Y022985D01*
X019427Y023005D01*
X019413Y023023D01*
X019396Y023039D01*
X019377Y023052D01*
X019357Y023061D01*
X019335Y023067D01*
X019312Y023069D01*
X019311Y023104D01*
X019312Y023105D01*
X019338Y023103D01*
X019363Y023097D01*
X019387Y023087D01*
X019410Y023074D01*
X019430Y023058D01*
X019447Y023038D01*
X019462Y023017D01*
X019473Y022993D01*
X019481Y022969D01*
X019485Y022943D01*
X019485Y022917D01*
X019481Y022891D01*
X019473Y022867D01*
X019462Y022843D01*
X019447Y022822D01*
X019430Y022802D01*
X019410Y022786D01*
X019387Y022773D01*
X019363Y022763D01*
X019338Y022757D01*
X019312Y022755D01*
X019312Y022758D01*
X019337Y022760D01*
X019362Y022766D01*
X019386Y022776D01*
X019408Y022789D01*
X019428Y022805D01*
X019445Y022823D01*
X019459Y022845D01*
X019470Y022868D01*
X019478Y022892D01*
X019482Y022917D01*
X019482Y022943D01*
X019478Y022968D01*
X019470Y022992D01*
X019459Y023015D01*
X019445Y023037D01*
X019428Y023055D01*
X019408Y023071D01*
X019386Y023084D01*
X019362Y023094D01*
X019337Y023100D01*
X019312Y023102D01*
X019312Y023099D01*
X019337Y023097D01*
X019361Y023091D01*
X019385Y023082D01*
X019406Y023069D01*
X019426Y023053D01*
X019443Y023035D01*
X019457Y023014D01*
X019467Y022991D01*
X019475Y022967D01*
X019479Y022943D01*
X019479Y022917D01*
X019475Y022893D01*
X019467Y022869D01*
X019457Y022846D01*
X019443Y022825D01*
X019426Y022807D01*
X019406Y022791D01*
X019385Y022778D01*
X019361Y022769D01*
X019337Y022763D01*
X019312Y022761D01*
X019312Y022764D01*
X019337Y022766D01*
X019360Y022772D01*
X019383Y022781D01*
X019405Y022794D01*
X019424Y022809D01*
X019440Y022827D01*
X019454Y022848D01*
X019465Y022870D01*
X019472Y022893D01*
X019476Y022918D01*
X019476Y022942D01*
X019472Y022967D01*
X019465Y022990D01*
X019454Y023012D01*
X019440Y023033D01*
X019424Y023051D01*
X019405Y023066D01*
X019383Y023079D01*
X019360Y023088D01*
X019337Y023094D01*
X019312Y023096D01*
X019312Y023093D01*
X019336Y023091D01*
X019360Y023085D01*
X019382Y023076D01*
X019403Y023064D01*
X019422Y023049D01*
X019438Y023031D01*
X019451Y023011D01*
X019462Y022989D01*
X019469Y022966D01*
X019473Y022942D01*
X019473Y022918D01*
X019469Y022894D01*
X019462Y022871D01*
X019451Y022849D01*
X019438Y022829D01*
X019422Y022811D01*
X019403Y022796D01*
X019382Y022784D01*
X019360Y022775D01*
X019336Y022769D01*
X019312Y022767D01*
X019312Y022770D01*
X019337Y022772D01*
X019361Y022778D01*
X019384Y022788D01*
X019405Y022801D01*
X019424Y022818D01*
X019440Y022837D01*
X019453Y022858D01*
X019462Y022881D01*
X019468Y022905D01*
X019470Y022930D01*
X019468Y022955D01*
X019462Y022979D01*
X019453Y023002D01*
X019440Y023023D01*
X019424Y023042D01*
X019405Y023059D01*
X019384Y023072D01*
X019361Y023082D01*
X019337Y023088D01*
X019312Y023090D01*
X019312Y023087D01*
X019336Y023085D01*
X019360Y023079D01*
X019383Y023069D01*
X019403Y023056D01*
X019422Y023040D01*
X019437Y023022D01*
X019450Y023001D01*
X019459Y022978D01*
X019465Y022954D01*
X019467Y022930D01*
X019465Y022906D01*
X019459Y022882D01*
X019450Y022859D01*
X019437Y022838D01*
X019422Y022820D01*
X019403Y022804D01*
X019383Y022791D01*
X019360Y022781D01*
X019336Y022775D01*
X019312Y022773D01*
X019312Y022776D01*
X019336Y022778D01*
X019359Y022784D01*
X019381Y022793D01*
X019401Y022806D01*
X019420Y022822D01*
X019435Y022840D01*
X019447Y022861D01*
X019457Y022883D01*
X019462Y022906D01*
X019464Y022930D01*
X019462Y022954D01*
X019457Y022977D01*
X019447Y022999D01*
X019435Y023020D01*
X019420Y023038D01*
X019401Y023054D01*
X019381Y023067D01*
X019359Y023076D01*
X019336Y023082D01*
X019312Y023084D01*
X019312Y023081D01*
X019335Y023079D01*
X019358Y023073D01*
X019380Y023064D01*
X019400Y023051D01*
X019417Y023036D01*
X019433Y023018D01*
X019445Y022998D01*
X019454Y022976D01*
X019459Y022953D01*
X019461Y022930D01*
X019459Y022907D01*
X019454Y022884D01*
X019445Y022862D01*
X019433Y022842D01*
X019417Y022824D01*
X019400Y022809D01*
X019380Y022796D01*
X019358Y022787D01*
X019335Y022781D01*
X019312Y022779D01*
X019312Y022782D01*
X019335Y022784D01*
X019357Y022790D01*
X019378Y022799D01*
X019398Y022811D01*
X019415Y022826D01*
X019430Y022844D01*
X019442Y022863D01*
X019451Y022885D01*
X019456Y022907D01*
X019458Y022930D01*
X019456Y022953D01*
X019451Y022975D01*
X019442Y022997D01*
X019430Y023016D01*
X019415Y023034D01*
X019398Y023049D01*
X019378Y023061D01*
X019357Y023070D01*
X019335Y023076D01*
X019312Y023078D01*
X019312Y023075D01*
X019336Y023073D01*
X019359Y023067D01*
X019380Y023057D01*
X019400Y023044D01*
X019417Y023028D01*
X019432Y023009D01*
X019443Y022988D01*
X019451Y022965D01*
X019455Y022942D01*
X019455Y022918D01*
X019451Y022895D01*
X019443Y022872D01*
X019432Y022851D01*
X019417Y022832D01*
X019400Y022816D01*
X019380Y022803D01*
X019359Y022793D01*
X019336Y022787D01*
X019312Y022785D01*
X019312Y022788D01*
X019335Y022790D01*
X019358Y022796D01*
X019379Y022806D01*
X019398Y022819D01*
X019415Y022835D01*
X019429Y022853D01*
X019440Y022873D01*
X019448Y022895D01*
X019452Y022918D01*
X019452Y022942D01*
X019448Y022965D01*
X019440Y022987D01*
X019429Y023007D01*
X019415Y023025D01*
X019398Y023041D01*
X019379Y023054D01*
X019358Y023064D01*
X019335Y023070D01*
X019312Y023072D01*
X013089Y011854D02*
X013089Y011818D01*
X013088Y011819D02*
X013065Y011817D01*
X013043Y011811D01*
X013023Y011802D01*
X013004Y011789D01*
X012987Y011773D01*
X012973Y011755D01*
X012962Y011735D01*
X012955Y011714D01*
X012951Y011691D01*
X012951Y011669D01*
X012955Y011646D01*
X012962Y011625D01*
X012973Y011605D01*
X012987Y011587D01*
X013004Y011571D01*
X013023Y011558D01*
X013043Y011549D01*
X013065Y011543D01*
X013088Y011541D01*
X013089Y011506D01*
X013088Y011505D01*
X013062Y011507D01*
X013037Y011513D01*
X013013Y011523D01*
X012990Y011536D01*
X012970Y011552D01*
X012953Y011572D01*
X012938Y011593D01*
X012927Y011617D01*
X012919Y011641D01*
X012915Y011667D01*
X012915Y011693D01*
X012919Y011719D01*
X012927Y011743D01*
X012938Y011767D01*
X012953Y011788D01*
X012970Y011808D01*
X012990Y011824D01*
X013013Y011837D01*
X013037Y011847D01*
X013062Y011853D01*
X013088Y011855D01*
X013088Y011852D01*
X013063Y011850D01*
X013038Y011844D01*
X013014Y011834D01*
X012992Y011821D01*
X012972Y011805D01*
X012955Y011787D01*
X012941Y011765D01*
X012930Y011742D01*
X012922Y011718D01*
X012918Y011693D01*
X012918Y011667D01*
X012922Y011642D01*
X012930Y011618D01*
X012941Y011595D01*
X012955Y011573D01*
X012972Y011555D01*
X012992Y011539D01*
X013014Y011526D01*
X013038Y011516D01*
X013063Y011510D01*
X013088Y011508D01*
X013088Y011511D01*
X013063Y011513D01*
X013039Y011519D01*
X013015Y011528D01*
X012994Y011541D01*
X012974Y011557D01*
X012957Y011575D01*
X012943Y011596D01*
X012933Y011619D01*
X012925Y011643D01*
X012921Y011667D01*
X012921Y011693D01*
X012925Y011717D01*
X012933Y011741D01*
X012943Y011764D01*
X012957Y011785D01*
X012974Y011803D01*
X012994Y011819D01*
X013015Y011832D01*
X013039Y011841D01*
X013063Y011847D01*
X013088Y011849D01*
X013088Y011846D01*
X013063Y011844D01*
X013040Y011838D01*
X013017Y011829D01*
X012995Y011816D01*
X012976Y011801D01*
X012960Y011783D01*
X012946Y011762D01*
X012935Y011740D01*
X012928Y011717D01*
X012924Y011692D01*
X012924Y011668D01*
X012928Y011643D01*
X012935Y011620D01*
X012946Y011598D01*
X012960Y011577D01*
X012976Y011559D01*
X012995Y011544D01*
X013017Y011531D01*
X013040Y011522D01*
X013063Y011516D01*
X013088Y011514D01*
X013088Y011517D01*
X013064Y011519D01*
X013040Y011525D01*
X013018Y011534D01*
X012997Y011546D01*
X012978Y011561D01*
X012962Y011579D01*
X012949Y011599D01*
X012938Y011621D01*
X012931Y011644D01*
X012927Y011668D01*
X012927Y011692D01*
X012931Y011716D01*
X012938Y011739D01*
X012949Y011761D01*
X012962Y011781D01*
X012978Y011799D01*
X012997Y011814D01*
X013018Y011826D01*
X013040Y011835D01*
X013064Y011841D01*
X013088Y011843D01*
X013088Y011840D01*
X013063Y011838D01*
X013039Y011832D01*
X013016Y011822D01*
X012995Y011809D01*
X012976Y011792D01*
X012960Y011773D01*
X012947Y011752D01*
X012938Y011729D01*
X012932Y011705D01*
X012930Y011680D01*
X012932Y011655D01*
X012938Y011631D01*
X012947Y011608D01*
X012960Y011587D01*
X012976Y011568D01*
X012995Y011551D01*
X013016Y011538D01*
X013039Y011528D01*
X013063Y011522D01*
X013088Y011520D01*
X013088Y011523D01*
X013064Y011525D01*
X013040Y011531D01*
X013017Y011541D01*
X012997Y011554D01*
X012978Y011570D01*
X012963Y011588D01*
X012950Y011609D01*
X012941Y011632D01*
X012935Y011656D01*
X012933Y011680D01*
X012935Y011704D01*
X012941Y011728D01*
X012950Y011751D01*
X012963Y011772D01*
X012978Y011790D01*
X012997Y011806D01*
X013017Y011819D01*
X013040Y011829D01*
X013064Y011835D01*
X013088Y011837D01*
X013088Y011834D01*
X013064Y011832D01*
X013041Y011826D01*
X013019Y011817D01*
X012999Y011804D01*
X012980Y011788D01*
X012965Y011770D01*
X012953Y011749D01*
X012943Y011727D01*
X012938Y011704D01*
X012936Y011680D01*
X012938Y011656D01*
X012943Y011633D01*
X012953Y011611D01*
X012965Y011590D01*
X012980Y011572D01*
X012999Y011556D01*
X013019Y011543D01*
X013041Y011534D01*
X013064Y011528D01*
X013088Y011526D01*
X013088Y011529D01*
X013065Y011531D01*
X013042Y011537D01*
X013020Y011546D01*
X013000Y011559D01*
X012983Y011574D01*
X012967Y011592D01*
X012955Y011612D01*
X012946Y011634D01*
X012941Y011657D01*
X012939Y011680D01*
X012941Y011703D01*
X012946Y011726D01*
X012955Y011748D01*
X012967Y011768D01*
X012983Y011786D01*
X013000Y011801D01*
X013020Y011814D01*
X013042Y011823D01*
X013065Y011829D01*
X013088Y011831D01*
X013088Y011828D01*
X013065Y011826D01*
X013043Y011820D01*
X013022Y011811D01*
X013002Y011799D01*
X012985Y011784D01*
X012970Y011766D01*
X012958Y011747D01*
X012949Y011725D01*
X012944Y011703D01*
X012942Y011680D01*
X012944Y011657D01*
X012949Y011635D01*
X012958Y011613D01*
X012970Y011594D01*
X012985Y011576D01*
X013002Y011561D01*
X013022Y011549D01*
X013043Y011540D01*
X013065Y011534D01*
X013088Y011532D01*
X013088Y011535D01*
X013064Y011537D01*
X013041Y011543D01*
X013020Y011553D01*
X013000Y011566D01*
X012983Y011582D01*
X012968Y011601D01*
X012957Y011622D01*
X012949Y011645D01*
X012945Y011668D01*
X012945Y011692D01*
X012949Y011715D01*
X012957Y011738D01*
X012968Y011759D01*
X012983Y011778D01*
X013000Y011794D01*
X013020Y011807D01*
X013041Y011817D01*
X013064Y011823D01*
X013088Y011825D01*
X013088Y011822D01*
X013065Y011820D01*
X013042Y011814D01*
X013021Y011804D01*
X013002Y011791D01*
X012985Y011775D01*
X012971Y011757D01*
X012960Y011737D01*
X012952Y011715D01*
X012948Y011692D01*
X012948Y011668D01*
X012952Y011645D01*
X012960Y011623D01*
X012971Y011603D01*
X012985Y011585D01*
X013002Y011569D01*
X013021Y011556D01*
X013042Y011546D01*
X013065Y011540D01*
X013088Y011538D01*
X013089Y010854D02*
X013089Y010818D01*
X013088Y010819D02*
X013065Y010817D01*
X013043Y010811D01*
X013023Y010802D01*
X013004Y010789D01*
X012987Y010773D01*
X012973Y010755D01*
X012962Y010735D01*
X012955Y010714D01*
X012951Y010691D01*
X012951Y010669D01*
X012955Y010646D01*
X012962Y010625D01*
X012973Y010605D01*
X012987Y010587D01*
X013004Y010571D01*
X013023Y010558D01*
X013043Y010549D01*
X013065Y010543D01*
X013088Y010541D01*
X013089Y010506D01*
X013088Y010505D01*
X013062Y010507D01*
X013037Y010513D01*
X013013Y010523D01*
X012990Y010536D01*
X012970Y010552D01*
X012953Y010572D01*
X012938Y010593D01*
X012927Y010617D01*
X012919Y010641D01*
X012915Y010667D01*
X012915Y010693D01*
X012919Y010719D01*
X012927Y010743D01*
X012938Y010767D01*
X012953Y010788D01*
X012970Y010808D01*
X012990Y010824D01*
X013013Y010837D01*
X013037Y010847D01*
X013062Y010853D01*
X013088Y010855D01*
X013088Y010852D01*
X013063Y010850D01*
X013038Y010844D01*
X013014Y010834D01*
X012992Y010821D01*
X012972Y010805D01*
X012955Y010787D01*
X012941Y010765D01*
X012930Y010742D01*
X012922Y010718D01*
X012918Y010693D01*
X012918Y010667D01*
X012922Y010642D01*
X012930Y010618D01*
X012941Y010595D01*
X012955Y010573D01*
X012972Y010555D01*
X012992Y010539D01*
X013014Y010526D01*
X013038Y010516D01*
X013063Y010510D01*
X013088Y010508D01*
X013088Y010511D01*
X013063Y010513D01*
X013039Y010519D01*
X013015Y010528D01*
X012994Y010541D01*
X012974Y010557D01*
X012957Y010575D01*
X012943Y010596D01*
X012933Y010619D01*
X012925Y010643D01*
X012921Y010667D01*
X012921Y010693D01*
X012925Y010717D01*
X012933Y010741D01*
X012943Y010764D01*
X012957Y010785D01*
X012974Y010803D01*
X012994Y010819D01*
X013015Y010832D01*
X013039Y010841D01*
X013063Y010847D01*
X013088Y010849D01*
X013088Y010846D01*
X013063Y010844D01*
X013040Y010838D01*
X013017Y010829D01*
X012995Y010816D01*
X012976Y010801D01*
X012960Y010783D01*
X012946Y010762D01*
X012935Y010740D01*
X012928Y010717D01*
X012924Y010692D01*
X012924Y010668D01*
X012928Y010643D01*
X012935Y010620D01*
X012946Y010598D01*
X012960Y010577D01*
X012976Y010559D01*
X012995Y010544D01*
X013017Y010531D01*
X013040Y010522D01*
X013063Y010516D01*
X013088Y010514D01*
X013088Y010517D01*
X013064Y010519D01*
X013040Y010525D01*
X013018Y010534D01*
X012997Y010546D01*
X012978Y010561D01*
X012962Y010579D01*
X012949Y010599D01*
X012938Y010621D01*
X012931Y010644D01*
X012927Y010668D01*
X012927Y010692D01*
X012931Y010716D01*
X012938Y010739D01*
X012949Y010761D01*
X012962Y010781D01*
X012978Y010799D01*
X012997Y010814D01*
X013018Y010826D01*
X013040Y010835D01*
X013064Y010841D01*
X013088Y010843D01*
X013088Y010840D01*
X013063Y010838D01*
X013039Y010832D01*
X013016Y010822D01*
X012995Y010809D01*
X012976Y010792D01*
X012960Y010773D01*
X012947Y010752D01*
X012938Y010729D01*
X012932Y010705D01*
X012930Y010680D01*
X012932Y010655D01*
X012938Y010631D01*
X012947Y010608D01*
X012960Y010587D01*
X012976Y010568D01*
X012995Y010551D01*
X013016Y010538D01*
X013039Y010528D01*
X013063Y010522D01*
X013088Y010520D01*
X013088Y010523D01*
X013064Y010525D01*
X013040Y010531D01*
X013017Y010541D01*
X012997Y010554D01*
X012978Y010570D01*
X012963Y010588D01*
X012950Y010609D01*
X012941Y010632D01*
X012935Y010656D01*
X012933Y010680D01*
X012935Y010704D01*
X012941Y010728D01*
X012950Y010751D01*
X012963Y010772D01*
X012978Y010790D01*
X012997Y010806D01*
X013017Y010819D01*
X013040Y010829D01*
X013064Y010835D01*
X013088Y010837D01*
X013088Y010834D01*
X013064Y010832D01*
X013041Y010826D01*
X013019Y010817D01*
X012999Y010804D01*
X012980Y010788D01*
X012965Y010770D01*
X012953Y010749D01*
X012943Y010727D01*
X012938Y010704D01*
X012936Y010680D01*
X012938Y010656D01*
X012943Y010633D01*
X012953Y010611D01*
X012965Y010590D01*
X012980Y010572D01*
X012999Y010556D01*
X013019Y010543D01*
X013041Y010534D01*
X013064Y010528D01*
X013088Y010526D01*
X013088Y010529D01*
X013065Y010531D01*
X013042Y010537D01*
X013020Y010546D01*
X013000Y010559D01*
X012983Y010574D01*
X012967Y010592D01*
X012955Y010612D01*
X012946Y010634D01*
X012941Y010657D01*
X012939Y010680D01*
X012941Y010703D01*
X012946Y010726D01*
X012955Y010748D01*
X012967Y010768D01*
X012983Y010786D01*
X013000Y010801D01*
X013020Y010814D01*
X013042Y010823D01*
X013065Y010829D01*
X013088Y010831D01*
X013088Y010828D01*
X013065Y010826D01*
X013043Y010820D01*
X013022Y010811D01*
X013002Y010799D01*
X012985Y010784D01*
X012970Y010766D01*
X012958Y010747D01*
X012949Y010725D01*
X012944Y010703D01*
X012942Y010680D01*
X012944Y010657D01*
X012949Y010635D01*
X012958Y010613D01*
X012970Y010594D01*
X012985Y010576D01*
X013002Y010561D01*
X013022Y010549D01*
X013043Y010540D01*
X013065Y010534D01*
X013088Y010532D01*
X013088Y010535D01*
X013064Y010537D01*
X013041Y010543D01*
X013020Y010553D01*
X013000Y010566D01*
X012983Y010582D01*
X012968Y010601D01*
X012957Y010622D01*
X012949Y010645D01*
X012945Y010668D01*
X012945Y010692D01*
X012949Y010715D01*
X012957Y010738D01*
X012968Y010759D01*
X012983Y010778D01*
X013000Y010794D01*
X013020Y010807D01*
X013041Y010817D01*
X013064Y010823D01*
X013088Y010825D01*
X013088Y010822D01*
X013065Y010820D01*
X013042Y010814D01*
X013021Y010804D01*
X013002Y010791D01*
X012985Y010775D01*
X012971Y010757D01*
X012960Y010737D01*
X012952Y010715D01*
X012948Y010692D01*
X012948Y010668D01*
X012952Y010645D01*
X012960Y010623D01*
X012971Y010603D01*
X012985Y010585D01*
X013002Y010569D01*
X013021Y010556D01*
X013042Y010546D01*
X013065Y010540D01*
X013088Y010538D01*
X013089Y009854D02*
X013089Y009818D01*
X013088Y009819D02*
X013065Y009817D01*
X013043Y009811D01*
X013023Y009802D01*
X013004Y009789D01*
X012987Y009773D01*
X012973Y009755D01*
X012962Y009735D01*
X012955Y009714D01*
X012951Y009691D01*
X012951Y009669D01*
X012955Y009646D01*
X012962Y009625D01*
X012973Y009605D01*
X012987Y009587D01*
X013004Y009571D01*
X013023Y009558D01*
X013043Y009549D01*
X013065Y009543D01*
X013088Y009541D01*
X013089Y009506D01*
X013088Y009505D01*
X013062Y009507D01*
X013037Y009513D01*
X013013Y009523D01*
X012990Y009536D01*
X012970Y009552D01*
X012953Y009572D01*
X012938Y009593D01*
X012927Y009617D01*
X012919Y009641D01*
X012915Y009667D01*
X012915Y009693D01*
X012919Y009719D01*
X012927Y009743D01*
X012938Y009767D01*
X012953Y009788D01*
X012970Y009808D01*
X012990Y009824D01*
X013013Y009837D01*
X013037Y009847D01*
X013062Y009853D01*
X013088Y009855D01*
X013088Y009852D01*
X013063Y009850D01*
X013038Y009844D01*
X013014Y009834D01*
X012992Y009821D01*
X012972Y009805D01*
X012955Y009787D01*
X012941Y009765D01*
X012930Y009742D01*
X012922Y009718D01*
X012918Y009693D01*
X012918Y009667D01*
X012922Y009642D01*
X012930Y009618D01*
X012941Y009595D01*
X012955Y009573D01*
X012972Y009555D01*
X012992Y009539D01*
X013014Y009526D01*
X013038Y009516D01*
X013063Y009510D01*
X013088Y009508D01*
X013088Y009511D01*
X013063Y009513D01*
X013039Y009519D01*
X013015Y009528D01*
X012994Y009541D01*
X012974Y009557D01*
X012957Y009575D01*
X012943Y009596D01*
X012933Y009619D01*
X012925Y009643D01*
X012921Y009667D01*
X012921Y009693D01*
X012925Y009717D01*
X012933Y009741D01*
X012943Y009764D01*
X012957Y009785D01*
X012974Y009803D01*
X012994Y009819D01*
X013015Y009832D01*
X013039Y009841D01*
X013063Y009847D01*
X013088Y009849D01*
X013088Y009846D01*
X013063Y009844D01*
X013040Y009838D01*
X013017Y009829D01*
X012995Y009816D01*
X012976Y009801D01*
X012960Y009783D01*
X012946Y009762D01*
X012935Y009740D01*
X012928Y009717D01*
X012924Y009692D01*
X012924Y009668D01*
X012928Y009643D01*
X012935Y009620D01*
X012946Y009598D01*
X012960Y009577D01*
X012976Y009559D01*
X012995Y009544D01*
X013017Y009531D01*
X013040Y009522D01*
X013063Y009516D01*
X013088Y009514D01*
X013088Y009517D01*
X013064Y009519D01*
X013040Y009525D01*
X013018Y009534D01*
X012997Y009546D01*
X012978Y009561D01*
X012962Y009579D01*
X012949Y009599D01*
X012938Y009621D01*
X012931Y009644D01*
X012927Y009668D01*
X012927Y009692D01*
X012931Y009716D01*
X012938Y009739D01*
X012949Y009761D01*
X012962Y009781D01*
X012978Y009799D01*
X012997Y009814D01*
X013018Y009826D01*
X013040Y009835D01*
X013064Y009841D01*
X013088Y009843D01*
X013088Y009840D01*
X013063Y009838D01*
X013039Y009832D01*
X013016Y009822D01*
X012995Y009809D01*
X012976Y009792D01*
X012960Y009773D01*
X012947Y009752D01*
X012938Y009729D01*
X012932Y009705D01*
X012930Y009680D01*
X012932Y009655D01*
X012938Y009631D01*
X012947Y009608D01*
X012960Y009587D01*
X012976Y009568D01*
X012995Y009551D01*
X013016Y009538D01*
X013039Y009528D01*
X013063Y009522D01*
X013088Y009520D01*
X013088Y009523D01*
X013064Y009525D01*
X013040Y009531D01*
X013017Y009541D01*
X012997Y009554D01*
X012978Y009570D01*
X012963Y009588D01*
X012950Y009609D01*
X012941Y009632D01*
X012935Y009656D01*
X012933Y009680D01*
X012935Y009704D01*
X012941Y009728D01*
X012950Y009751D01*
X012963Y009772D01*
X012978Y009790D01*
X012997Y009806D01*
X013017Y009819D01*
X013040Y009829D01*
X013064Y009835D01*
X013088Y009837D01*
X013088Y009834D01*
X013064Y009832D01*
X013041Y009826D01*
X013019Y009817D01*
X012999Y009804D01*
X012980Y009788D01*
X012965Y009770D01*
X012953Y009749D01*
X012943Y009727D01*
X012938Y009704D01*
X012936Y009680D01*
X012938Y009656D01*
X012943Y009633D01*
X012953Y009611D01*
X012965Y009590D01*
X012980Y009572D01*
X012999Y009556D01*
X013019Y009543D01*
X013041Y009534D01*
X013064Y009528D01*
X013088Y009526D01*
X013088Y009529D01*
X013065Y009531D01*
X013042Y009537D01*
X013020Y009546D01*
X013000Y009559D01*
X012983Y009574D01*
X012967Y009592D01*
X012955Y009612D01*
X012946Y009634D01*
X012941Y009657D01*
X012939Y009680D01*
X012941Y009703D01*
X012946Y009726D01*
X012955Y009748D01*
X012967Y009768D01*
X012983Y009786D01*
X013000Y009801D01*
X013020Y009814D01*
X013042Y009823D01*
X013065Y009829D01*
X013088Y009831D01*
X013088Y009828D01*
X013065Y009826D01*
X013043Y009820D01*
X013022Y009811D01*
X013002Y009799D01*
X012985Y009784D01*
X012970Y009766D01*
X012958Y009747D01*
X012949Y009725D01*
X012944Y009703D01*
X012942Y009680D01*
X012944Y009657D01*
X012949Y009635D01*
X012958Y009613D01*
X012970Y009594D01*
X012985Y009576D01*
X013002Y009561D01*
X013022Y009549D01*
X013043Y009540D01*
X013065Y009534D01*
X013088Y009532D01*
X013088Y009535D01*
X013064Y009537D01*
X013041Y009543D01*
X013020Y009553D01*
X013000Y009566D01*
X012983Y009582D01*
X012968Y009601D01*
X012957Y009622D01*
X012949Y009645D01*
X012945Y009668D01*
X012945Y009692D01*
X012949Y009715D01*
X012957Y009738D01*
X012968Y009759D01*
X012983Y009778D01*
X013000Y009794D01*
X013020Y009807D01*
X013041Y009817D01*
X013064Y009823D01*
X013088Y009825D01*
X013088Y009822D01*
X013065Y009820D01*
X013042Y009814D01*
X013021Y009804D01*
X013002Y009791D01*
X012985Y009775D01*
X012971Y009757D01*
X012960Y009737D01*
X012952Y009715D01*
X012948Y009692D01*
X012948Y009668D01*
X012952Y009645D01*
X012960Y009623D01*
X012971Y009603D01*
X012985Y009585D01*
X013002Y009569D01*
X013021Y009556D01*
X013042Y009546D01*
X013065Y009540D01*
X013088Y009538D01*
D20*
X013075Y009916D03*
X013075Y010916D03*
X013075Y011916D03*
X019325Y022694D03*
D21*
X019404Y022640D03*
X012996Y011970D03*
X012996Y010970D03*
X012996Y009970D03*
D22*
X012977Y009833D03*
X012977Y010833D03*
X012977Y011833D03*
X019423Y022777D03*
D23*
X019443Y022758D03*
X012957Y011852D03*
X012957Y010852D03*
X012957Y009852D03*
D24*
X013031Y010444D03*
X013031Y011444D03*
X013031Y009444D03*
X019369Y023166D03*
D25*
X019443Y023147D03*
X012957Y011463D03*
X012957Y010463D03*
X012957Y009463D03*
D26*
X012883Y009680D03*
X012883Y010680D03*
X012883Y011680D03*
X019517Y022930D03*
D27*
X020462Y022930D03*
X011938Y011680D03*
X011938Y010680D03*
X011938Y009680D03*
D28*
X012671Y009409D03*
X012671Y009951D03*
X012671Y010409D03*
X012671Y010951D03*
X012671Y011409D03*
X012671Y011951D03*
X019729Y022659D03*
X019729Y023201D03*
D29*
X019881Y022930D03*
X012519Y011680D03*
X012519Y010680D03*
X012519Y009680D03*
D30*
X012950Y005930D02*
X007950Y005930D01*
X007950Y001930D01*
X012950Y001930D01*
X012950Y005930D01*
X006237Y010859D02*
X000726Y010859D01*
X000726Y017080D01*
X006237Y017080D01*
X006237Y010859D01*
X013334Y015318D02*
X013334Y017505D01*
X013336Y017524D01*
X013340Y017543D01*
X013348Y017561D01*
X013358Y017578D01*
X013370Y017593D01*
X013385Y017605D01*
X013402Y017615D01*
X013420Y017623D01*
X013439Y017627D01*
X013458Y017629D01*
X013458Y017630D02*
X014455Y017630D01*
X014455Y017629D02*
X014474Y017627D01*
X014493Y017622D01*
X014511Y017614D01*
X014526Y017603D01*
X014540Y017589D01*
X014551Y017574D01*
X014559Y017556D01*
X014564Y017537D01*
X014566Y017518D01*
X014566Y015342D01*
X014564Y015323D01*
X014559Y015304D01*
X014551Y015287D01*
X014540Y015271D01*
X014526Y015257D01*
X014511Y015246D01*
X014493Y015238D01*
X014474Y015233D01*
X014455Y015231D01*
X014455Y015230D02*
X013422Y015230D01*
X013405Y015232D01*
X013388Y015237D01*
X013373Y015245D01*
X013360Y015256D01*
X013349Y015269D01*
X013341Y015284D01*
X013336Y015301D01*
X013334Y015318D01*
X013452Y015624D02*
X013452Y017275D01*
X013452Y017276D02*
X013457Y017301D01*
X013465Y017325D01*
X013476Y017347D01*
X013491Y017368D01*
X013508Y017387D01*
X013528Y017403D01*
X013550Y017415D01*
X013573Y017425D01*
X013598Y017431D01*
X013623Y017434D01*
X013649Y017433D01*
X014251Y017433D01*
X014251Y017432D02*
X014273Y017430D01*
X014295Y017426D01*
X014316Y017418D01*
X014336Y017407D01*
X014354Y017394D01*
X014370Y017378D01*
X014383Y017360D01*
X014394Y017340D01*
X014402Y017319D01*
X014406Y017297D01*
X014408Y017275D01*
X014409Y017275D02*
X014409Y015585D01*
X014408Y015585D02*
X014406Y015563D01*
X014402Y015541D01*
X014394Y015520D01*
X014383Y015500D01*
X014370Y015482D01*
X014354Y015466D01*
X014336Y015453D01*
X014316Y015442D01*
X014295Y015434D01*
X014273Y015430D01*
X014251Y015428D01*
X014251Y015427D02*
X013649Y015427D01*
X013623Y015429D01*
X013598Y015434D01*
X013574Y015442D01*
X013551Y015453D01*
X013529Y015468D01*
X013510Y015485D01*
X013493Y015504D01*
X013478Y015526D01*
X013467Y015549D01*
X013459Y015573D01*
X013454Y015598D01*
X013452Y015624D01*
X028619Y014053D02*
X028619Y021551D01*
X037819Y021551D01*
X037819Y014053D01*
X028619Y014053D01*
X032761Y010430D02*
X033109Y010430D01*
X033196Y010330D02*
X033375Y010430D01*
X033700Y010430D01*
X038200Y012680D02*
X038200Y005680D01*
X042200Y005680D01*
X042200Y012680D01*
X038200Y012680D01*
X037950Y014180D02*
X037950Y021180D01*
X041950Y021180D01*
X041950Y014180D01*
X037950Y014180D01*
X038004Y004080D02*
X037854Y004080D01*
X037779Y004005D01*
X037779Y003705D01*
X037854Y003630D01*
X038004Y003630D01*
X038079Y003705D01*
X038079Y004005D02*
X038004Y004080D01*
X037619Y003855D02*
X037319Y003855D01*
X037544Y004080D01*
X037544Y003630D01*
X037158Y003705D02*
X037158Y003780D01*
X037083Y003855D01*
X036858Y003855D01*
X036858Y003705D01*
X036933Y003630D01*
X037083Y003630D01*
X037158Y003705D01*
X037008Y004005D02*
X036858Y003855D01*
X037008Y004005D02*
X037158Y004080D01*
X036698Y004005D02*
X036398Y003705D01*
X036473Y003630D01*
X036623Y003630D01*
X036698Y003705D01*
X036698Y004005D01*
X036623Y004080D01*
X036473Y004080D01*
X036398Y004005D01*
X036398Y003705D01*
X036087Y003855D02*
X035937Y003855D01*
X035777Y003780D02*
X035777Y004080D01*
X035937Y004080D02*
X036238Y004080D01*
X035937Y004080D02*
X035937Y003630D01*
X035777Y003780D02*
X035627Y003630D01*
X035477Y003780D01*
X035477Y004080D01*
X035317Y004080D02*
X035017Y004080D01*
X035017Y003855D01*
X035167Y003930D01*
X035242Y003930D01*
X035317Y003855D01*
X035317Y003705D01*
X035242Y003630D01*
X035092Y003630D01*
X035017Y003705D01*
X034856Y003630D02*
X034556Y003630D01*
X034856Y003930D01*
X034856Y004005D01*
X034781Y004080D01*
X034631Y004080D01*
X034556Y004005D01*
X034396Y004080D02*
X034096Y004080D01*
X034246Y004080D02*
X034246Y003630D01*
X033936Y003705D02*
X033861Y003630D01*
X033710Y003630D01*
X033635Y003705D01*
X033475Y003705D02*
X033400Y003630D01*
X033250Y003630D01*
X033175Y003705D01*
X033250Y003855D02*
X033400Y003855D01*
X033475Y003780D01*
X033475Y003705D01*
X033250Y003855D02*
X033175Y003930D01*
X033175Y004005D01*
X033250Y004080D01*
X033400Y004080D01*
X033475Y004005D01*
X033635Y004005D02*
X033635Y003930D01*
X033710Y003855D01*
X033861Y003855D01*
X033936Y003780D01*
X033936Y003705D01*
X033936Y004005D02*
X033861Y004080D01*
X033710Y004080D01*
X033635Y004005D01*
D31*
X026222Y015680D03*
X025178Y015680D03*
X025178Y018180D03*
X026222Y018180D03*
X016472Y017180D03*
X015428Y017180D03*
X015428Y019180D03*
X016472Y019180D03*
X012722Y017430D03*
X011678Y017430D03*
X011678Y015180D03*
X012722Y015180D03*
X006972Y019180D03*
X005928Y019180D03*
D32*
X008950Y017202D03*
X008950Y016158D03*
X010200Y016158D03*
X010200Y017202D03*
X024200Y020408D03*
X024200Y021452D03*
X026200Y021702D03*
X026200Y020658D03*
D33*
X021700Y012020D03*
X021700Y011340D03*
D34*
X016290Y018180D03*
X015610Y018180D03*
D35*
X009505Y019930D03*
X008395Y019930D03*
X008395Y021180D03*
X009505Y021180D03*
D36*
X033020Y006430D03*
X033020Y005930D03*
X033020Y005430D03*
X033020Y004930D03*
X035630Y004930D03*
X035630Y005430D03*
X035630Y005930D03*
X035630Y006430D03*
D37*
X005450Y007900D03*
X003450Y007900D03*
D38*
X003450Y007360D03*
X005450Y007360D03*
D39*
X005450Y006590D03*
X004450Y006590D03*
X003450Y006590D03*
D40*
X025200Y019410D03*
X025200Y020450D03*
X037200Y008700D03*
X037200Y007660D03*
D41*
X038930Y013180D03*
X039970Y013180D03*
D42*
X037201Y010722D03*
X037201Y010142D03*
X020699Y021388D03*
X020699Y021968D03*
D43*
X020795Y019435D03*
X020485Y019435D03*
X020175Y019435D03*
X019865Y019435D03*
X019555Y019435D03*
X019245Y019435D03*
X018935Y019435D03*
X018625Y019435D03*
X021105Y019435D03*
X021415Y019435D03*
X021725Y019435D03*
X022035Y019435D03*
X022345Y019435D03*
X022655Y019435D03*
X022965Y019435D03*
X023275Y019435D03*
X023275Y013425D03*
X022965Y013425D03*
X022655Y013425D03*
X022345Y013425D03*
X022035Y013425D03*
X021725Y013425D03*
X021415Y013425D03*
X021105Y013425D03*
X020795Y013425D03*
X020485Y013425D03*
X020175Y013425D03*
X019865Y013425D03*
X019555Y013425D03*
X019245Y013425D03*
X018935Y013425D03*
X018625Y013425D03*
D44*
X017945Y014105D03*
X017945Y014415D03*
X017945Y014725D03*
X017945Y015035D03*
X017945Y015345D03*
X017945Y015655D03*
X017945Y015965D03*
X017945Y016275D03*
X017945Y016585D03*
X017945Y016895D03*
X017945Y017205D03*
X017945Y017515D03*
X017945Y017825D03*
X017945Y018135D03*
X017945Y018445D03*
X017945Y018755D03*
X023955Y018755D03*
X023955Y018445D03*
X023955Y018135D03*
X023955Y017825D03*
X023955Y017515D03*
X023955Y017205D03*
X023955Y016895D03*
X023955Y016585D03*
X023955Y016275D03*
X023955Y015965D03*
X023955Y015655D03*
X023955Y015345D03*
X023955Y015035D03*
X023955Y014725D03*
X023955Y014415D03*
X023955Y014105D03*
D45*
X023881Y003824D03*
X024669Y003824D03*
X025456Y003824D03*
X026243Y003824D03*
X027031Y003824D03*
X027818Y003824D03*
X028606Y003824D03*
X029393Y003824D03*
X030180Y003824D03*
X030180Y003036D03*
X029393Y003036D03*
X028606Y003036D03*
X027818Y003036D03*
X027031Y003036D03*
X026243Y003036D03*
X025456Y003036D03*
X024669Y003036D03*
X023881Y003036D03*
X023094Y003036D03*
X022306Y003036D03*
X021519Y003036D03*
X020731Y003036D03*
X019944Y003036D03*
X019157Y003036D03*
X018369Y003036D03*
X017582Y003036D03*
X016794Y003036D03*
X016007Y003036D03*
X015220Y003036D03*
X015220Y003824D03*
X016007Y003824D03*
X016794Y003824D03*
X017582Y003824D03*
X018369Y003824D03*
X019157Y003824D03*
X019944Y003824D03*
X020731Y003824D03*
X021519Y003824D03*
X022306Y003824D03*
X023094Y003824D03*
M02*
