G75*
%MOIN*%
%OFA0B0*%
%FSLAX24Y24*%
%IPPOS*%
%LPD*%
%AMOC8*
5,1,8,0,0,1.08239X$1,22.5*
%
%ADD10C,0.0000*%
%ADD11R,0.0787X0.0630*%
%ADD12R,0.0630X0.0787*%
%ADD13R,0.0630X0.0709*%
%ADD14R,0.0709X0.0630*%
%ADD15C,0.0554*%
%ADD16C,0.0560*%
%ADD17R,0.0236X0.0472*%
%ADD18R,0.0236X0.0866*%
%ADD19R,0.0866X0.0236*%
%ADD20C,0.0240*%
%ADD21C,0.0396*%
%ADD22R,0.0396X0.0396*%
%ADD23C,0.0400*%
D10*
X001704Y000220D02*
X001704Y031716D01*
X041074Y031716D01*
X041074Y000220D01*
X001704Y000220D01*
X002564Y026220D02*
X002566Y026270D01*
X002572Y026320D01*
X002582Y026369D01*
X002595Y026418D01*
X002613Y026465D01*
X002634Y026511D01*
X002658Y026554D01*
X002686Y026596D01*
X002717Y026636D01*
X002751Y026673D01*
X002788Y026707D01*
X002828Y026738D01*
X002870Y026766D01*
X002913Y026790D01*
X002959Y026811D01*
X003006Y026829D01*
X003055Y026842D01*
X003104Y026852D01*
X003154Y026858D01*
X003204Y026860D01*
X003254Y026858D01*
X003304Y026852D01*
X003353Y026842D01*
X003402Y026829D01*
X003449Y026811D01*
X003495Y026790D01*
X003538Y026766D01*
X003580Y026738D01*
X003620Y026707D01*
X003657Y026673D01*
X003691Y026636D01*
X003722Y026596D01*
X003750Y026554D01*
X003774Y026511D01*
X003795Y026465D01*
X003813Y026418D01*
X003826Y026369D01*
X003836Y026320D01*
X003842Y026270D01*
X003844Y026220D01*
X003842Y026170D01*
X003836Y026120D01*
X003826Y026071D01*
X003813Y026022D01*
X003795Y025975D01*
X003774Y025929D01*
X003750Y025886D01*
X003722Y025844D01*
X003691Y025804D01*
X003657Y025767D01*
X003620Y025733D01*
X003580Y025702D01*
X003538Y025674D01*
X003495Y025650D01*
X003449Y025629D01*
X003402Y025611D01*
X003353Y025598D01*
X003304Y025588D01*
X003254Y025582D01*
X003204Y025580D01*
X003154Y025582D01*
X003104Y025588D01*
X003055Y025598D01*
X003006Y025611D01*
X002959Y025629D01*
X002913Y025650D01*
X002870Y025674D01*
X002828Y025702D01*
X002788Y025733D01*
X002751Y025767D01*
X002717Y025804D01*
X002686Y025844D01*
X002658Y025886D01*
X002634Y025929D01*
X002613Y025975D01*
X002595Y026022D01*
X002582Y026071D01*
X002572Y026120D01*
X002566Y026170D01*
X002564Y026220D01*
X002564Y030220D02*
X002566Y030270D01*
X002572Y030320D01*
X002582Y030369D01*
X002595Y030418D01*
X002613Y030465D01*
X002634Y030511D01*
X002658Y030554D01*
X002686Y030596D01*
X002717Y030636D01*
X002751Y030673D01*
X002788Y030707D01*
X002828Y030738D01*
X002870Y030766D01*
X002913Y030790D01*
X002959Y030811D01*
X003006Y030829D01*
X003055Y030842D01*
X003104Y030852D01*
X003154Y030858D01*
X003204Y030860D01*
X003254Y030858D01*
X003304Y030852D01*
X003353Y030842D01*
X003402Y030829D01*
X003449Y030811D01*
X003495Y030790D01*
X003538Y030766D01*
X003580Y030738D01*
X003620Y030707D01*
X003657Y030673D01*
X003691Y030636D01*
X003722Y030596D01*
X003750Y030554D01*
X003774Y030511D01*
X003795Y030465D01*
X003813Y030418D01*
X003826Y030369D01*
X003836Y030320D01*
X003842Y030270D01*
X003844Y030220D01*
X003842Y030170D01*
X003836Y030120D01*
X003826Y030071D01*
X003813Y030022D01*
X003795Y029975D01*
X003774Y029929D01*
X003750Y029886D01*
X003722Y029844D01*
X003691Y029804D01*
X003657Y029767D01*
X003620Y029733D01*
X003580Y029702D01*
X003538Y029674D01*
X003495Y029650D01*
X003449Y029629D01*
X003402Y029611D01*
X003353Y029598D01*
X003304Y029588D01*
X003254Y029582D01*
X003204Y029580D01*
X003154Y029582D01*
X003104Y029588D01*
X003055Y029598D01*
X003006Y029611D01*
X002959Y029629D01*
X002913Y029650D01*
X002870Y029674D01*
X002828Y029702D01*
X002788Y029733D01*
X002751Y029767D01*
X002717Y029804D01*
X002686Y029844D01*
X002658Y029886D01*
X002634Y029929D01*
X002613Y029975D01*
X002595Y030022D01*
X002582Y030071D01*
X002572Y030120D01*
X002566Y030170D01*
X002564Y030220D01*
X039064Y030220D02*
X039066Y030270D01*
X039072Y030320D01*
X039082Y030369D01*
X039095Y030418D01*
X039113Y030465D01*
X039134Y030511D01*
X039158Y030554D01*
X039186Y030596D01*
X039217Y030636D01*
X039251Y030673D01*
X039288Y030707D01*
X039328Y030738D01*
X039370Y030766D01*
X039413Y030790D01*
X039459Y030811D01*
X039506Y030829D01*
X039555Y030842D01*
X039604Y030852D01*
X039654Y030858D01*
X039704Y030860D01*
X039754Y030858D01*
X039804Y030852D01*
X039853Y030842D01*
X039902Y030829D01*
X039949Y030811D01*
X039995Y030790D01*
X040038Y030766D01*
X040080Y030738D01*
X040120Y030707D01*
X040157Y030673D01*
X040191Y030636D01*
X040222Y030596D01*
X040250Y030554D01*
X040274Y030511D01*
X040295Y030465D01*
X040313Y030418D01*
X040326Y030369D01*
X040336Y030320D01*
X040342Y030270D01*
X040344Y030220D01*
X040342Y030170D01*
X040336Y030120D01*
X040326Y030071D01*
X040313Y030022D01*
X040295Y029975D01*
X040274Y029929D01*
X040250Y029886D01*
X040222Y029844D01*
X040191Y029804D01*
X040157Y029767D01*
X040120Y029733D01*
X040080Y029702D01*
X040038Y029674D01*
X039995Y029650D01*
X039949Y029629D01*
X039902Y029611D01*
X039853Y029598D01*
X039804Y029588D01*
X039754Y029582D01*
X039704Y029580D01*
X039654Y029582D01*
X039604Y029588D01*
X039555Y029598D01*
X039506Y029611D01*
X039459Y029629D01*
X039413Y029650D01*
X039370Y029674D01*
X039328Y029702D01*
X039288Y029733D01*
X039251Y029767D01*
X039217Y029804D01*
X039186Y029844D01*
X039158Y029886D01*
X039134Y029929D01*
X039113Y029975D01*
X039095Y030022D01*
X039082Y030071D01*
X039072Y030120D01*
X039066Y030170D01*
X039064Y030220D01*
X039064Y026220D02*
X039066Y026270D01*
X039072Y026320D01*
X039082Y026369D01*
X039095Y026418D01*
X039113Y026465D01*
X039134Y026511D01*
X039158Y026554D01*
X039186Y026596D01*
X039217Y026636D01*
X039251Y026673D01*
X039288Y026707D01*
X039328Y026738D01*
X039370Y026766D01*
X039413Y026790D01*
X039459Y026811D01*
X039506Y026829D01*
X039555Y026842D01*
X039604Y026852D01*
X039654Y026858D01*
X039704Y026860D01*
X039754Y026858D01*
X039804Y026852D01*
X039853Y026842D01*
X039902Y026829D01*
X039949Y026811D01*
X039995Y026790D01*
X040038Y026766D01*
X040080Y026738D01*
X040120Y026707D01*
X040157Y026673D01*
X040191Y026636D01*
X040222Y026596D01*
X040250Y026554D01*
X040274Y026511D01*
X040295Y026465D01*
X040313Y026418D01*
X040326Y026369D01*
X040336Y026320D01*
X040342Y026270D01*
X040344Y026220D01*
X040342Y026170D01*
X040336Y026120D01*
X040326Y026071D01*
X040313Y026022D01*
X040295Y025975D01*
X040274Y025929D01*
X040250Y025886D01*
X040222Y025844D01*
X040191Y025804D01*
X040157Y025767D01*
X040120Y025733D01*
X040080Y025702D01*
X040038Y025674D01*
X039995Y025650D01*
X039949Y025629D01*
X039902Y025611D01*
X039853Y025598D01*
X039804Y025588D01*
X039754Y025582D01*
X039704Y025580D01*
X039654Y025582D01*
X039604Y025588D01*
X039555Y025598D01*
X039506Y025611D01*
X039459Y025629D01*
X039413Y025650D01*
X039370Y025674D01*
X039328Y025702D01*
X039288Y025733D01*
X039251Y025767D01*
X039217Y025804D01*
X039186Y025844D01*
X039158Y025886D01*
X039134Y025929D01*
X039113Y025975D01*
X039095Y026022D01*
X039082Y026071D01*
X039072Y026120D01*
X039066Y026170D01*
X039064Y026220D01*
D11*
X033204Y021771D03*
X033204Y020669D03*
X034204Y018271D03*
X034204Y017169D03*
X025704Y017169D03*
X025704Y018271D03*
X024704Y020669D03*
X024704Y021771D03*
X023204Y025169D03*
X023204Y026271D03*
X021704Y026271D03*
X020204Y026271D03*
X020204Y025169D03*
X021704Y025169D03*
X018704Y025169D03*
X018704Y026271D03*
X018704Y029169D03*
X018704Y030271D03*
X020204Y030271D03*
X020204Y029169D03*
X021704Y029169D03*
X021704Y030271D03*
X023204Y030271D03*
X023204Y029169D03*
X030704Y028669D03*
X030704Y029771D03*
X032704Y029771D03*
X032704Y028669D03*
X017204Y018271D03*
X017204Y017169D03*
X016204Y020669D03*
X016204Y021771D03*
X008704Y018271D03*
X008704Y017169D03*
X007704Y020669D03*
X007704Y021771D03*
D12*
X006255Y023220D03*
X005153Y023220D03*
X010653Y017720D03*
X011755Y017720D03*
X011755Y015720D03*
X010653Y015720D03*
X019153Y015720D03*
X020255Y015720D03*
X020255Y017720D03*
X019153Y017720D03*
X022153Y023220D03*
X023255Y023220D03*
X027653Y017720D03*
X028755Y017720D03*
X028755Y015720D03*
X027653Y015720D03*
X036153Y015720D03*
X037255Y015720D03*
X037255Y017720D03*
X036153Y017720D03*
X031755Y023220D03*
X030653Y023220D03*
X014755Y023220D03*
X013653Y023220D03*
D13*
X026653Y030220D03*
X027755Y030220D03*
X031153Y027220D03*
X032255Y027220D03*
D14*
X031204Y020271D03*
X031204Y019169D03*
X022204Y019169D03*
X022204Y020271D03*
X013704Y020271D03*
X013704Y019169D03*
X005204Y019169D03*
X005204Y020271D03*
D15*
X005704Y026970D03*
X006704Y027470D03*
X005704Y027970D03*
X006704Y028470D03*
X005704Y028970D03*
X006704Y029470D03*
X036204Y028970D03*
X037204Y028470D03*
X036204Y027970D03*
X037204Y027470D03*
X036204Y026970D03*
X037204Y029470D03*
D16*
X012204Y025500D02*
X012204Y024940D01*
X011204Y024940D02*
X011204Y025500D01*
X010204Y025500D02*
X010204Y024940D01*
X008984Y025220D02*
X008424Y025220D01*
X008424Y026220D02*
X008984Y026220D01*
X008984Y027220D02*
X008424Y027220D01*
D17*
X012204Y027618D03*
X012704Y027618D03*
X013204Y027618D03*
X013704Y027618D03*
X014204Y027618D03*
X014704Y027618D03*
X015204Y027618D03*
X015204Y029822D03*
X014704Y029822D03*
X014204Y029822D03*
X013704Y029822D03*
X013204Y029822D03*
X012704Y029822D03*
X012204Y029822D03*
D18*
X010454Y022244D03*
X009954Y022244D03*
X009454Y022244D03*
X008954Y022244D03*
X008954Y020196D03*
X009454Y020196D03*
X009954Y020196D03*
X010454Y020196D03*
X017454Y020196D03*
X017954Y020196D03*
X018454Y020196D03*
X018954Y020196D03*
X018954Y022244D03*
X018454Y022244D03*
X017954Y022244D03*
X017454Y022244D03*
X025954Y022244D03*
X026454Y022244D03*
X026954Y022244D03*
X027454Y022244D03*
X027454Y020196D03*
X026954Y020196D03*
X026454Y020196D03*
X025954Y020196D03*
X034454Y020196D03*
X034954Y020196D03*
X035454Y020196D03*
X035954Y020196D03*
X035954Y022244D03*
X035454Y022244D03*
X034954Y022244D03*
X034454Y022244D03*
D19*
X028227Y027470D03*
X028227Y027970D03*
X028227Y028470D03*
X028227Y028970D03*
X026180Y028970D03*
X026180Y028470D03*
X026180Y027970D03*
X026180Y027470D03*
D20*
X026954Y027470D01*
X026908Y027411D02*
X027054Y027557D01*
X027133Y027748D01*
X027133Y028192D01*
X027121Y028220D01*
X027133Y028248D01*
X027133Y028692D01*
X027121Y028720D01*
X027133Y028748D01*
X027133Y029192D01*
X027054Y029383D01*
X026908Y029529D01*
X026717Y029608D01*
X026312Y029608D01*
X026307Y029610D01*
X026053Y029610D01*
X026048Y029608D01*
X025644Y029608D01*
X025453Y029529D01*
X025306Y029383D01*
X025297Y029360D01*
X024576Y029360D01*
X024341Y029263D01*
X024117Y029039D01*
X024117Y029587D01*
X024038Y029778D01*
X023892Y029925D01*
X023817Y029955D01*
X023817Y030234D01*
X023241Y030234D01*
X023241Y030309D01*
X023166Y030309D01*
X023166Y030806D01*
X022781Y030806D01*
X022725Y030791D01*
X022675Y030762D01*
X022634Y030721D01*
X022605Y030671D01*
X022590Y030615D01*
X022590Y030309D01*
X023166Y030309D01*
X023166Y030234D01*
X022590Y030234D01*
X022590Y029955D01*
X022516Y029925D01*
X022454Y029863D01*
X022392Y029925D01*
X022317Y029955D01*
X022317Y030234D01*
X021741Y030234D01*
X021741Y030309D01*
X021666Y030309D01*
X021666Y030806D01*
X021281Y030806D01*
X021225Y030791D01*
X021175Y030762D01*
X021134Y030721D01*
X021105Y030671D01*
X021090Y030615D01*
X021090Y030309D01*
X021666Y030309D01*
X021666Y030234D01*
X021090Y030234D01*
X021090Y029955D01*
X021016Y029925D01*
X020954Y029863D01*
X020892Y029925D01*
X020817Y029955D01*
X020817Y030234D01*
X020241Y030234D01*
X020241Y030309D01*
X020166Y030309D01*
X020166Y030806D01*
X019781Y030806D01*
X019725Y030791D01*
X019675Y030762D01*
X019634Y030721D01*
X019605Y030671D01*
X019590Y030615D01*
X019590Y030309D01*
X020166Y030309D01*
X020166Y030234D01*
X019590Y030234D01*
X019590Y029955D01*
X019516Y029925D01*
X019454Y029863D01*
X019392Y029925D01*
X019317Y029955D01*
X019317Y030234D01*
X018741Y030234D01*
X018741Y030309D01*
X018666Y030309D01*
X018666Y030806D01*
X018281Y030806D01*
X018225Y030791D01*
X018175Y030762D01*
X018134Y030721D01*
X018105Y030671D01*
X018090Y030615D01*
X018090Y030309D01*
X018666Y030309D01*
X018666Y030234D01*
X018090Y030234D01*
X018090Y029955D01*
X018016Y029925D01*
X017960Y029869D01*
X017464Y030365D01*
X017229Y030462D01*
X015654Y030462D01*
X015616Y030499D01*
X015425Y030579D01*
X014982Y030579D01*
X014791Y030499D01*
X014704Y030412D01*
X014616Y030499D01*
X014425Y030579D01*
X013982Y030579D01*
X013791Y030499D01*
X013645Y030353D01*
X013614Y030279D01*
X013557Y030279D01*
X013501Y030264D01*
X013454Y030236D01*
X013407Y030264D01*
X013351Y030279D01*
X013344Y030279D01*
X013344Y030347D01*
X013246Y030583D01*
X012746Y031083D01*
X012633Y031196D01*
X038872Y031196D01*
X038818Y031173D01*
X038750Y031106D01*
X038714Y031018D01*
X038714Y030825D01*
X038623Y030668D01*
X038544Y030373D01*
X038544Y030067D01*
X038623Y029772D01*
X038714Y029615D01*
X038714Y029422D01*
X038750Y029334D01*
X038818Y029267D01*
X038906Y029230D01*
X039099Y029230D01*
X039256Y029139D01*
X039551Y029060D01*
X039856Y029060D01*
X040152Y029139D01*
X040309Y029230D01*
X040502Y029230D01*
X040554Y029252D01*
X040554Y027188D01*
X040502Y027210D01*
X040309Y027210D01*
X040152Y027301D01*
X039856Y027380D01*
X039551Y027380D01*
X039256Y027301D01*
X039099Y027210D01*
X038906Y027210D01*
X038818Y027173D01*
X038750Y027106D01*
X038714Y027018D01*
X038714Y026825D01*
X038623Y026668D01*
X038544Y026373D01*
X038544Y026067D01*
X038623Y025772D01*
X038714Y025615D01*
X038714Y025422D01*
X038750Y025334D01*
X038818Y025267D01*
X038906Y025230D01*
X039099Y025230D01*
X039256Y025139D01*
X039551Y025060D01*
X039856Y025060D01*
X040152Y025139D01*
X040309Y025230D01*
X040502Y025230D01*
X040554Y025252D01*
X040554Y000740D01*
X002224Y000740D01*
X002224Y025398D01*
X002250Y025334D01*
X002318Y025267D01*
X002406Y025230D01*
X002599Y025230D01*
X002756Y025139D01*
X003051Y025060D01*
X003356Y025060D01*
X003652Y025139D01*
X003809Y025230D01*
X004002Y025230D01*
X004090Y025267D01*
X004157Y025334D01*
X004194Y025422D01*
X004194Y025615D01*
X004285Y025772D01*
X004364Y026067D01*
X004364Y026373D01*
X004285Y026668D01*
X004194Y026825D01*
X004194Y027018D01*
X004157Y027106D01*
X004090Y027173D01*
X004002Y027210D01*
X003809Y027210D01*
X003652Y027301D01*
X003356Y027380D01*
X003051Y027380D01*
X002756Y027301D01*
X002599Y027210D01*
X002406Y027210D01*
X002318Y027173D01*
X002250Y027106D01*
X002224Y027042D01*
X002224Y029398D01*
X002250Y029334D01*
X002318Y029267D01*
X002406Y029230D01*
X002599Y029230D01*
X002756Y029139D01*
X003051Y029060D01*
X003356Y029060D01*
X003652Y029139D01*
X003809Y029230D01*
X004002Y029230D01*
X004090Y029267D01*
X004157Y029334D01*
X004194Y029422D01*
X004194Y029615D01*
X004285Y029772D01*
X004364Y030067D01*
X004364Y030373D01*
X004285Y030668D01*
X004194Y030825D01*
X004194Y031018D01*
X004157Y031106D01*
X004090Y031173D01*
X004035Y031196D01*
X011058Y031196D01*
X010986Y031022D01*
X010986Y030418D01*
X011010Y030360D01*
X008040Y030360D01*
X007847Y030440D01*
X007561Y030440D01*
X007439Y030390D01*
X007394Y030435D01*
X007314Y030628D01*
X007112Y030830D01*
X006847Y030940D01*
X006561Y030940D01*
X006296Y030830D01*
X006204Y030738D01*
X006112Y030830D01*
X005847Y030940D01*
X005561Y030940D01*
X005296Y030830D01*
X005093Y030628D01*
X004984Y030363D01*
X004984Y030077D01*
X005064Y029884D01*
X005064Y029593D01*
X005103Y029497D01*
X005028Y029422D01*
X004907Y029129D01*
X004907Y028811D01*
X005028Y028518D01*
X005252Y028294D01*
X005308Y028271D01*
X005279Y028231D01*
X005243Y028161D01*
X005219Y028086D01*
X005207Y028009D01*
X005207Y027970D01*
X005207Y027931D01*
X005219Y027854D01*
X005243Y027779D01*
X005279Y027709D01*
X005325Y027646D01*
X005380Y027591D01*
X005443Y027545D01*
X005513Y027509D01*
X005587Y027485D01*
X005665Y027473D01*
X005704Y027473D01*
X005743Y027473D01*
X005820Y027485D01*
X005895Y027509D01*
X005907Y027515D01*
X005907Y027425D01*
X005895Y027431D01*
X005820Y027455D01*
X005743Y027467D01*
X005704Y027467D01*
X005704Y026970D01*
X005704Y026473D01*
X005743Y026473D01*
X005820Y026485D01*
X005895Y026509D01*
X005964Y026545D01*
X006028Y026591D01*
X006083Y026646D01*
X006129Y026709D01*
X006165Y026779D01*
X006189Y026854D01*
X006189Y026857D01*
X006252Y026794D01*
X006545Y026673D01*
X006862Y026673D01*
X007155Y026794D01*
X007380Y027018D01*
X007501Y027311D01*
X007501Y027629D01*
X007380Y027922D01*
X007331Y027970D01*
X007380Y028018D01*
X007501Y028311D01*
X007501Y028580D01*
X010439Y028580D01*
X010564Y028455D01*
X010564Y028093D01*
X010661Y027857D01*
X010841Y027677D01*
X012219Y026300D01*
X012045Y026300D01*
X011751Y026178D01*
X011704Y026131D01*
X011657Y026178D01*
X011363Y026300D01*
X011045Y026300D01*
X010751Y026178D01*
X010526Y025953D01*
X010504Y025900D01*
X010466Y025928D01*
X010396Y025963D01*
X010321Y025988D01*
X010243Y026000D01*
X010204Y026000D01*
X010204Y025220D01*
X010204Y024440D01*
X010243Y024440D01*
X010321Y024452D01*
X010396Y024477D01*
X010466Y024512D01*
X010504Y024540D01*
X010526Y024487D01*
X010703Y024309D01*
X010591Y024263D01*
X010329Y024000D01*
X010246Y024083D01*
X010066Y024263D01*
X009831Y024360D01*
X006924Y024360D01*
X006924Y024363D01*
X006814Y024628D01*
X006612Y024830D01*
X006347Y024940D01*
X006061Y024940D01*
X005796Y024830D01*
X005593Y024628D01*
X005513Y024435D01*
X005341Y024263D01*
X005212Y024134D01*
X004734Y024134D01*
X004543Y024055D01*
X004397Y023908D01*
X004318Y023717D01*
X004318Y022723D01*
X004397Y022532D01*
X004543Y022385D01*
X004734Y022306D01*
X005064Y022306D01*
X005064Y022093D01*
X005161Y021857D01*
X005534Y021485D01*
X005513Y021435D01*
X005185Y021106D01*
X004746Y021106D01*
X004555Y021027D01*
X004409Y020881D01*
X004329Y020690D01*
X004329Y019853D01*
X004409Y019662D01*
X004555Y019515D01*
X004629Y019485D01*
X004629Y019206D01*
X005166Y019206D01*
X005166Y019131D01*
X005241Y019131D01*
X005241Y018634D01*
X005587Y018634D01*
X005643Y018649D01*
X005693Y018678D01*
X005734Y018719D01*
X005763Y018769D01*
X005778Y018825D01*
X005778Y019131D01*
X005241Y019131D01*
X005241Y019206D01*
X005778Y019206D01*
X005778Y019485D01*
X005853Y019515D01*
X005999Y019662D01*
X006078Y019853D01*
X006078Y020189D01*
X006418Y020530D01*
X006612Y020610D01*
X006790Y020788D01*
X006790Y020250D01*
X006869Y020059D01*
X007016Y019913D01*
X007207Y019834D01*
X007634Y019834D01*
X007814Y019654D01*
X008049Y019556D01*
X008359Y019556D01*
X008395Y019469D01*
X008541Y019322D01*
X008732Y019243D01*
X008771Y019243D01*
X008634Y019106D01*
X008207Y019106D01*
X008016Y019027D01*
X007869Y018881D01*
X007790Y018690D01*
X007790Y018211D01*
X007661Y018083D01*
X007489Y017910D01*
X007296Y017830D01*
X007093Y017628D01*
X006984Y017363D01*
X006984Y017077D01*
X007093Y016812D01*
X007296Y016610D01*
X007561Y016500D01*
X007847Y016500D01*
X007905Y016524D01*
X008016Y016413D01*
X008064Y016393D01*
X008064Y014093D01*
X008161Y013857D01*
X008341Y013677D01*
X008576Y013580D01*
X010331Y013580D01*
X010566Y013677D01*
X010746Y013857D01*
X011695Y014806D01*
X012173Y014806D01*
X012364Y014885D01*
X012511Y015032D01*
X012590Y015223D01*
X012590Y016101D01*
X012612Y016110D01*
X012814Y016312D01*
X012924Y016577D01*
X012924Y016863D01*
X012814Y017128D01*
X012612Y017330D01*
X012590Y017339D01*
X012590Y018217D01*
X012511Y018408D01*
X012364Y018555D01*
X012173Y018634D01*
X011344Y018634D01*
X011344Y018847D01*
X011246Y019083D01*
X011066Y019263D01*
X010996Y019333D01*
X010816Y019513D01*
X010677Y019570D01*
X010707Y019587D01*
X010748Y019628D01*
X010777Y019678D01*
X010792Y019734D01*
X010792Y020196D01*
X010594Y020196D01*
X010594Y020196D01*
X010792Y020196D01*
X010792Y020658D01*
X010777Y020714D01*
X010748Y020765D01*
X010707Y020805D01*
X010657Y020834D01*
X010601Y020849D01*
X010544Y020849D01*
X010513Y020924D01*
X010366Y021070D01*
X010175Y021149D01*
X009732Y021149D01*
X009704Y021138D01*
X009675Y021149D01*
X009232Y021149D01*
X009204Y021138D01*
X009175Y021149D01*
X008732Y021149D01*
X008612Y021100D01*
X008562Y021220D01*
X008612Y021340D01*
X008732Y021291D01*
X009175Y021291D01*
X009204Y021302D01*
X009232Y021291D01*
X009675Y021291D01*
X009704Y021302D01*
X009732Y021291D01*
X010175Y021291D01*
X010204Y021302D01*
X010232Y021291D01*
X010675Y021291D01*
X010866Y021370D01*
X011013Y021516D01*
X011092Y021707D01*
X011092Y022112D01*
X011094Y022116D01*
X011094Y022955D01*
X011219Y023080D01*
X011486Y023080D01*
X011486Y022668D01*
X011565Y022477D01*
X011711Y022331D01*
X011902Y022252D01*
X012505Y022252D01*
X012696Y022331D01*
X012843Y022477D01*
X012881Y022570D01*
X012897Y022532D01*
X013043Y022385D01*
X013197Y022322D01*
X013341Y022177D01*
X013513Y022005D01*
X013593Y021812D01*
X013796Y021610D01*
X013989Y021530D01*
X014564Y020955D01*
X014564Y019860D01*
X014417Y019860D01*
X014353Y019925D01*
X014278Y019955D01*
X014278Y020234D01*
X013741Y020234D01*
X013741Y020309D01*
X013666Y020309D01*
X013666Y020806D01*
X013320Y020806D01*
X013265Y020791D01*
X013214Y020762D01*
X013173Y020721D01*
X013144Y020671D01*
X013129Y020615D01*
X013129Y020309D01*
X013666Y020309D01*
X013666Y020234D01*
X013129Y020234D01*
X013129Y019955D01*
X013055Y019925D01*
X012909Y019778D01*
X012829Y019587D01*
X012829Y018750D01*
X012909Y018559D01*
X013055Y018413D01*
X013246Y018334D01*
X014162Y018334D01*
X014353Y018413D01*
X014499Y018559D01*
X014508Y018580D01*
X015331Y018580D01*
X015566Y018677D01*
X015746Y018857D01*
X015844Y019093D01*
X015844Y019834D01*
X016134Y019834D01*
X016314Y019654D01*
X016549Y019556D01*
X016859Y019556D01*
X016895Y019469D01*
X016989Y019375D01*
X016984Y019363D01*
X016984Y019106D01*
X016707Y019106D01*
X016516Y019027D01*
X016369Y018881D01*
X016290Y018690D01*
X016290Y017853D01*
X016345Y017720D01*
X016290Y017587D01*
X016290Y016750D01*
X016369Y016559D01*
X016508Y016421D01*
X016484Y016363D01*
X016484Y016077D01*
X016564Y015884D01*
X016564Y014093D01*
X016661Y013857D01*
X016841Y013677D01*
X017076Y013580D01*
X018831Y013580D01*
X019066Y013677D01*
X020195Y014806D01*
X020673Y014806D01*
X020864Y014885D01*
X021011Y015032D01*
X021090Y015223D01*
X021090Y016217D01*
X021011Y016408D01*
X020864Y016555D01*
X020673Y016634D01*
X020344Y016634D01*
X020344Y016806D01*
X020673Y016806D01*
X020864Y016885D01*
X021011Y017032D01*
X021090Y017223D01*
X021090Y018217D01*
X021011Y018408D01*
X020864Y018555D01*
X020673Y018634D01*
X020195Y018634D01*
X019894Y018935D01*
X019814Y019128D01*
X019612Y019330D01*
X019347Y019440D01*
X019094Y019440D01*
X019094Y019543D01*
X019101Y019543D01*
X019157Y019558D01*
X019207Y019587D01*
X019248Y019628D01*
X019277Y019678D01*
X019292Y019734D01*
X019292Y020196D01*
X019094Y020196D01*
X019094Y020196D01*
X019292Y020196D01*
X019292Y020580D01*
X019831Y020580D01*
X020066Y020677D01*
X020922Y021533D01*
X021111Y021611D01*
X021313Y021813D01*
X021422Y022077D01*
X021422Y022363D01*
X021313Y022627D01*
X021277Y022662D01*
X021324Y022708D01*
X021397Y022532D01*
X021543Y022385D01*
X021697Y022322D01*
X021841Y022177D01*
X022013Y022005D01*
X022093Y021812D01*
X022296Y021610D01*
X022489Y021530D01*
X023064Y020955D01*
X023064Y019860D01*
X022917Y019860D01*
X022853Y019925D01*
X022778Y019955D01*
X022778Y020234D01*
X022241Y020234D01*
X022241Y020309D01*
X022166Y020309D01*
X022166Y020806D01*
X021820Y020806D01*
X021765Y020791D01*
X021714Y020762D01*
X021673Y020721D01*
X021644Y020671D01*
X021629Y020615D01*
X021629Y020309D01*
X022166Y020309D01*
X022166Y020234D01*
X021629Y020234D01*
X021629Y019955D01*
X021555Y019925D01*
X021409Y019778D01*
X021329Y019587D01*
X021329Y018750D01*
X021409Y018559D01*
X021555Y018413D01*
X021746Y018334D01*
X022662Y018334D01*
X022853Y018413D01*
X022999Y018559D01*
X023008Y018580D01*
X023831Y018580D01*
X024066Y018677D01*
X024246Y018857D01*
X024344Y019093D01*
X024344Y019834D01*
X024634Y019834D01*
X024814Y019654D01*
X025049Y019556D01*
X025359Y019556D01*
X025395Y019469D01*
X025541Y019322D01*
X025732Y019243D01*
X025771Y019243D01*
X025634Y019106D01*
X025207Y019106D01*
X025016Y019027D01*
X024869Y018881D01*
X024790Y018690D01*
X024790Y018211D01*
X024661Y018083D01*
X024489Y017910D01*
X024296Y017830D01*
X024093Y017628D01*
X023984Y017363D01*
X023984Y017077D01*
X024093Y016812D01*
X024296Y016610D01*
X024561Y016500D01*
X024847Y016500D01*
X024905Y016524D01*
X025016Y016413D01*
X025064Y016393D01*
X025064Y014093D01*
X025161Y013857D01*
X025341Y013677D01*
X025576Y013580D01*
X027331Y013580D01*
X027566Y013677D01*
X027746Y013857D01*
X028695Y014806D01*
X029173Y014806D01*
X029364Y014885D01*
X029511Y015032D01*
X029590Y015223D01*
X029590Y016101D01*
X029612Y016110D01*
X029814Y016312D01*
X029924Y016577D01*
X029924Y016863D01*
X029814Y017128D01*
X029612Y017330D01*
X029590Y017339D01*
X029590Y018217D01*
X029511Y018408D01*
X029364Y018555D01*
X029173Y018634D01*
X028344Y018634D01*
X028344Y018847D01*
X028246Y019083D01*
X027996Y019333D01*
X027816Y019513D01*
X027677Y019570D01*
X027707Y019587D01*
X027748Y019628D01*
X027777Y019678D01*
X027792Y019734D01*
X027792Y020196D01*
X027594Y020196D01*
X027594Y020196D01*
X027792Y020196D01*
X027792Y020658D01*
X027777Y020714D01*
X027748Y020765D01*
X027707Y020805D01*
X027657Y020834D01*
X027601Y020849D01*
X027544Y020849D01*
X027513Y020924D01*
X027366Y021070D01*
X027175Y021149D01*
X026732Y021149D01*
X026704Y021138D01*
X026675Y021149D01*
X026232Y021149D01*
X026204Y021138D01*
X026175Y021149D01*
X025732Y021149D01*
X025612Y021100D01*
X025562Y021220D01*
X025612Y021340D01*
X025732Y021291D01*
X026175Y021291D01*
X026204Y021302D01*
X026232Y021291D01*
X026675Y021291D01*
X026704Y021302D01*
X026732Y021291D01*
X027175Y021291D01*
X027204Y021302D01*
X027232Y021291D01*
X027675Y021291D01*
X027866Y021370D01*
X028013Y021516D01*
X028092Y021707D01*
X028092Y021977D01*
X028246Y022131D01*
X028288Y022231D01*
X029299Y021220D01*
X029161Y021083D01*
X029064Y020847D01*
X029064Y019093D01*
X029161Y018857D01*
X029341Y018677D01*
X029576Y018580D01*
X030400Y018580D01*
X030409Y018559D01*
X030555Y018413D01*
X030746Y018334D01*
X031662Y018334D01*
X031853Y018413D01*
X031999Y018559D01*
X032078Y018750D01*
X032078Y019587D01*
X031999Y019778D01*
X031853Y019925D01*
X031778Y019955D01*
X031778Y020234D01*
X031241Y020234D01*
X031241Y020309D01*
X031166Y020309D01*
X031166Y020806D01*
X030820Y020806D01*
X030765Y020791D01*
X030714Y020762D01*
X030673Y020721D01*
X030644Y020671D01*
X030629Y020615D01*
X030629Y020309D01*
X031166Y020309D01*
X031166Y020234D01*
X030629Y020234D01*
X030629Y019955D01*
X030555Y019925D01*
X030490Y019860D01*
X030344Y019860D01*
X030344Y020455D01*
X030566Y020677D01*
X030746Y020857D01*
X031147Y021258D01*
X031296Y021110D01*
X031561Y021000D01*
X031847Y021000D01*
X032112Y021110D01*
X032309Y021307D01*
X032345Y021220D01*
X032290Y021087D01*
X032290Y020250D01*
X032369Y020059D01*
X032516Y019913D01*
X032707Y019834D01*
X033134Y019834D01*
X033314Y019654D01*
X033549Y019556D01*
X033859Y019556D01*
X033895Y019469D01*
X034041Y019322D01*
X034232Y019243D01*
X034271Y019243D01*
X034134Y019106D01*
X033707Y019106D01*
X033516Y019027D01*
X033369Y018881D01*
X033290Y018690D01*
X033290Y018211D01*
X033161Y018083D01*
X032989Y017910D01*
X032796Y017830D01*
X032593Y017628D01*
X032484Y017363D01*
X032484Y017077D01*
X032593Y016812D01*
X032796Y016610D01*
X033061Y016500D01*
X033347Y016500D01*
X033405Y016524D01*
X033516Y016413D01*
X033564Y016393D01*
X033564Y014093D01*
X033661Y013857D01*
X033841Y013677D01*
X034076Y013580D01*
X035831Y013580D01*
X036066Y013677D01*
X036246Y013857D01*
X037195Y014806D01*
X037673Y014806D01*
X037864Y014885D01*
X038011Y015032D01*
X038090Y015223D01*
X038090Y016101D01*
X038112Y016110D01*
X038314Y016312D01*
X038424Y016577D01*
X038424Y016863D01*
X038314Y017128D01*
X038112Y017330D01*
X038090Y017339D01*
X038090Y018217D01*
X038011Y018408D01*
X037864Y018555D01*
X037673Y018634D01*
X036844Y018634D01*
X036844Y018847D01*
X036746Y019083D01*
X036566Y019263D01*
X036496Y019333D01*
X036316Y019513D01*
X036177Y019570D01*
X036207Y019587D01*
X036248Y019628D01*
X036277Y019678D01*
X036292Y019734D01*
X036292Y020196D01*
X036094Y020196D01*
X036094Y020196D01*
X036292Y020196D01*
X036292Y020658D01*
X036277Y020714D01*
X036248Y020765D01*
X036207Y020805D01*
X036157Y020834D01*
X036101Y020849D01*
X036044Y020849D01*
X036013Y020924D01*
X035866Y021070D01*
X035675Y021149D01*
X035232Y021149D01*
X035204Y021138D01*
X035175Y021149D01*
X034732Y021149D01*
X034704Y021138D01*
X034675Y021149D01*
X034232Y021149D01*
X034112Y021100D01*
X034062Y021220D01*
X034112Y021340D01*
X034232Y021291D01*
X034675Y021291D01*
X034704Y021302D01*
X034732Y021291D01*
X035175Y021291D01*
X035204Y021302D01*
X035232Y021291D01*
X035675Y021291D01*
X035704Y021302D01*
X035732Y021291D01*
X036175Y021291D01*
X036366Y021370D01*
X036513Y021516D01*
X036592Y021707D01*
X036592Y022112D01*
X036594Y022116D01*
X036594Y024097D01*
X036496Y024333D01*
X036246Y024583D01*
X035749Y025080D01*
X035831Y025080D01*
X036066Y025177D01*
X036246Y025357D01*
X037566Y026677D01*
X037746Y026857D01*
X037766Y026905D01*
X037880Y027018D01*
X038001Y027311D01*
X038001Y027629D01*
X037880Y027922D01*
X037655Y028146D01*
X037600Y028169D01*
X037629Y028209D01*
X037665Y028279D01*
X037689Y028354D01*
X037701Y028431D01*
X037701Y028470D01*
X037701Y028509D01*
X037689Y028586D01*
X037665Y028661D01*
X037629Y028731D01*
X037583Y028794D01*
X037528Y028849D01*
X037464Y028895D01*
X037395Y028931D01*
X037320Y028955D01*
X037243Y028967D01*
X037204Y028967D01*
X037204Y028470D01*
X037701Y028470D01*
X037204Y028470D01*
X037204Y028470D01*
X037204Y028470D01*
X037204Y028967D01*
X037165Y028967D01*
X037087Y028955D01*
X037013Y028931D01*
X037001Y028925D01*
X037001Y029015D01*
X037013Y029009D01*
X037087Y028985D01*
X037165Y028973D01*
X037204Y028973D01*
X037243Y028973D01*
X037320Y028985D01*
X037395Y029009D01*
X037464Y029045D01*
X037528Y029091D01*
X037583Y029146D01*
X037629Y029209D01*
X037665Y029279D01*
X037689Y029354D01*
X037701Y029431D01*
X037701Y029470D01*
X037701Y029509D01*
X037689Y029586D01*
X037665Y029661D01*
X037629Y029731D01*
X037583Y029794D01*
X037528Y029849D01*
X037464Y029895D01*
X037395Y029931D01*
X037320Y029955D01*
X037243Y029967D01*
X037204Y029967D01*
X037204Y029470D01*
X037701Y029470D01*
X037204Y029470D01*
X037204Y029470D01*
X037204Y029470D01*
X037204Y028973D01*
X037204Y029470D01*
X037204Y029470D01*
X037204Y029967D01*
X037165Y029967D01*
X037087Y029955D01*
X037013Y029931D01*
X036943Y029895D01*
X036880Y029849D01*
X036825Y029794D01*
X032741Y029794D01*
X032741Y029809D02*
X033317Y029809D01*
X033317Y030115D01*
X033302Y030171D01*
X033274Y030221D01*
X033233Y030262D01*
X033182Y030291D01*
X033126Y030306D01*
X032741Y030306D01*
X032741Y029809D01*
X032666Y029809D01*
X032666Y030306D01*
X032281Y030306D01*
X032225Y030291D01*
X032175Y030262D01*
X032134Y030221D01*
X032105Y030171D01*
X032090Y030115D01*
X032090Y029809D01*
X032666Y029809D01*
X032666Y029734D01*
X032090Y029734D01*
X032090Y029455D01*
X032016Y029425D01*
X031951Y029360D01*
X031617Y029360D01*
X031617Y030190D01*
X031538Y030381D01*
X031392Y030527D01*
X031238Y030591D01*
X031066Y030763D01*
X030831Y030860D01*
X029540Y030860D01*
X029347Y030940D01*
X029061Y030940D01*
X028867Y030860D01*
X028514Y030860D01*
X028511Y030869D01*
X028364Y031015D01*
X028173Y031094D01*
X027337Y031094D01*
X027145Y031015D01*
X026999Y030869D01*
X026968Y030794D01*
X026690Y030794D01*
X026690Y030257D01*
X026615Y030257D01*
X026615Y030183D01*
X026118Y030183D01*
X026118Y029837D01*
X026133Y029781D01*
X026162Y029731D01*
X026203Y029690D01*
X026253Y029661D01*
X026309Y029646D01*
X026615Y029646D01*
X026615Y030183D01*
X026690Y030183D01*
X026690Y029646D01*
X026968Y029646D01*
X026999Y029571D01*
X027145Y029425D01*
X027337Y029346D01*
X027338Y029346D01*
X027274Y029192D01*
X027274Y028748D01*
X027286Y028720D01*
X027274Y028692D01*
X027274Y028248D01*
X027286Y028220D01*
X027274Y028192D01*
X027274Y027748D01*
X027286Y027720D01*
X027274Y027692D01*
X027274Y027360D01*
X026833Y027360D01*
X026833Y027380D01*
X026908Y027411D01*
X026903Y027409D02*
X027274Y027409D01*
X027274Y027648D02*
X027091Y027648D01*
X027133Y027886D02*
X027274Y027886D01*
X027274Y028125D02*
X027133Y028125D01*
X027133Y028363D02*
X027274Y028363D01*
X027274Y028602D02*
X027133Y028602D01*
X027133Y028840D02*
X027274Y028840D01*
X027274Y029079D02*
X027133Y029079D01*
X027081Y029317D02*
X027326Y029317D01*
X027015Y029556D02*
X026844Y029556D01*
X026690Y029794D02*
X026615Y029794D01*
X026615Y030033D02*
X026690Y030033D01*
X026615Y030257D02*
X026118Y030257D01*
X026118Y030603D01*
X026133Y030659D01*
X026162Y030709D01*
X026203Y030750D01*
X026253Y030779D01*
X026309Y030794D01*
X026615Y030794D01*
X026615Y030257D01*
X026615Y030271D02*
X026690Y030271D01*
X026690Y030510D02*
X026615Y030510D01*
X026615Y030748D02*
X026690Y030748D01*
X027117Y030987D02*
X012842Y030987D01*
X013081Y030748D02*
X018161Y030748D01*
X018090Y030510D02*
X015592Y030510D01*
X014816Y030510D02*
X014592Y030510D01*
X014704Y030220D02*
X014704Y029822D01*
X015204Y029822D02*
X017101Y029822D01*
X017704Y029220D01*
X018653Y029220D01*
X018704Y029169D01*
X018704Y029220D01*
X018704Y029169D02*
X018704Y026271D01*
X018704Y026220D01*
X018704Y025220D02*
X018704Y025169D01*
X018704Y024220D01*
X019204Y023220D02*
X020704Y023220D01*
X021300Y022639D02*
X021352Y022639D01*
X021406Y022401D02*
X021528Y022401D01*
X021422Y022162D02*
X021857Y022162D01*
X022047Y021924D02*
X021358Y021924D01*
X021184Y021685D02*
X022221Y021685D01*
X022572Y021447D02*
X020835Y021447D01*
X020597Y021208D02*
X022811Y021208D01*
X023049Y020970D02*
X020358Y020970D01*
X020120Y020731D02*
X021683Y020731D01*
X021629Y020493D02*
X019292Y020493D01*
X019292Y020254D02*
X022166Y020254D01*
X022241Y020254D02*
X023064Y020254D01*
X023064Y020016D02*
X022778Y020016D01*
X022778Y020309D02*
X022778Y020615D01*
X022763Y020671D01*
X022734Y020721D01*
X022693Y020762D01*
X022643Y020791D01*
X022587Y020806D01*
X022241Y020806D01*
X022241Y020309D01*
X022778Y020309D01*
X022778Y020493D02*
X023064Y020493D01*
X023064Y020731D02*
X022724Y020731D01*
X022241Y020731D02*
X022166Y020731D01*
X022166Y020493D02*
X022241Y020493D01*
X021629Y020016D02*
X019292Y020016D01*
X019292Y019777D02*
X021408Y019777D01*
X021329Y019539D02*
X019094Y019539D01*
X019642Y019300D02*
X021329Y019300D01*
X021329Y019062D02*
X019842Y019062D01*
X020006Y018823D02*
X021329Y018823D01*
X021398Y018585D02*
X020792Y018585D01*
X021037Y018346D02*
X021717Y018346D01*
X021090Y018108D02*
X024686Y018108D01*
X024790Y018346D02*
X022691Y018346D01*
X022204Y019169D02*
X022204Y019220D01*
X023704Y019220D01*
X023704Y021220D01*
X022704Y022220D01*
X022204Y022720D01*
X022704Y023220D01*
X022704Y023720D01*
X022704Y024220D01*
X021704Y025220D01*
X021704Y025169D01*
X021954Y025220D01*
X021704Y026220D02*
X021704Y026271D01*
X021704Y027720D01*
X021704Y029169D01*
X021704Y029220D01*
X022317Y030033D02*
X022590Y030033D01*
X022317Y030309D02*
X022317Y030615D01*
X022302Y030671D01*
X022274Y030721D01*
X022233Y030762D01*
X022182Y030791D01*
X022126Y030806D01*
X021741Y030806D01*
X021741Y030309D01*
X022317Y030309D01*
X022317Y030510D02*
X022590Y030510D01*
X022661Y030748D02*
X022247Y030748D01*
X021741Y030748D02*
X021666Y030748D01*
X021666Y030510D02*
X021741Y030510D01*
X021741Y030271D02*
X023166Y030271D01*
X023241Y030271D02*
X026118Y030271D01*
X026118Y030033D02*
X023817Y030033D01*
X023817Y030309D02*
X023241Y030309D01*
X023241Y030806D01*
X023626Y030806D01*
X023682Y030791D01*
X023733Y030762D01*
X023774Y030721D01*
X023802Y030671D01*
X023817Y030615D01*
X023817Y030309D01*
X023817Y030510D02*
X026118Y030510D01*
X026200Y030748D02*
X023747Y030748D01*
X023241Y030748D02*
X023166Y030748D01*
X023166Y030510D02*
X023241Y030510D01*
X024023Y029794D02*
X026129Y029794D01*
X025517Y029556D02*
X024117Y029556D01*
X024117Y029317D02*
X024473Y029317D01*
X024157Y029079D02*
X024117Y029079D01*
X024704Y028720D02*
X024204Y028220D01*
X024204Y026720D01*
X024704Y026220D01*
X027704Y026220D01*
X029204Y026220D01*
X029204Y024720D01*
X029704Y024720D01*
X035204Y024720D01*
X035704Y024220D01*
X035954Y023970D01*
X035954Y023470D01*
X035954Y022244D01*
X035454Y022244D02*
X035454Y023220D01*
X034454Y024220D01*
X033704Y024220D01*
X032704Y024220D01*
X031704Y023271D01*
X031755Y023220D01*
X030704Y023220D02*
X030704Y022720D01*
X031204Y022220D01*
X030204Y021220D01*
X028704Y022720D01*
X028704Y025220D01*
X026204Y025220D01*
X023204Y025169D01*
X023204Y026220D02*
X023204Y026271D01*
X023204Y026970D01*
X023204Y029169D01*
X023204Y029220D01*
X024704Y028720D02*
X025930Y028720D01*
X026180Y028470D01*
X026180Y028970D01*
X026180Y027970D02*
X025454Y027970D01*
X025204Y027720D01*
X025204Y027220D01*
X025704Y026720D01*
X028704Y026720D01*
X029204Y027220D01*
X029204Y027720D01*
X029704Y028220D01*
X030204Y028220D01*
X030704Y028720D01*
X030704Y028669D01*
X030704Y028720D02*
X032704Y028720D01*
X032704Y028669D01*
X032704Y027720D01*
X032204Y027220D01*
X032255Y027220D01*
X033090Y027201D02*
X033090Y026762D01*
X033011Y026571D01*
X032864Y026425D01*
X032673Y026346D01*
X031837Y026346D01*
X031645Y026425D01*
X031499Y026571D01*
X031468Y026646D01*
X031190Y026646D01*
X031190Y027183D01*
X031115Y027183D01*
X030618Y027183D01*
X030618Y026837D01*
X030633Y026781D01*
X030662Y026731D01*
X030703Y026690D01*
X030753Y026661D01*
X030809Y026646D01*
X031115Y026646D01*
X031115Y027183D01*
X031115Y027257D01*
X030618Y027257D01*
X030618Y027603D01*
X030633Y027659D01*
X030662Y027709D01*
X030703Y027750D01*
X030753Y027779D01*
X030809Y027794D01*
X031115Y027794D01*
X031115Y027257D01*
X031190Y027257D01*
X031190Y027794D01*
X031468Y027794D01*
X031499Y027869D01*
X031645Y028015D01*
X031802Y028080D01*
X031547Y028080D01*
X031538Y028059D01*
X031392Y027913D01*
X031201Y027834D01*
X030723Y027834D01*
X030566Y027677D01*
X030331Y027580D01*
X029969Y027580D01*
X029844Y027455D01*
X029844Y027093D01*
X029746Y026857D01*
X029609Y026720D01*
X029746Y026583D01*
X029844Y026347D01*
X029844Y025438D01*
X030005Y025438D01*
X030194Y025360D01*
X033574Y025360D01*
X033484Y025577D01*
X033484Y025863D01*
X033593Y026128D01*
X033796Y026330D01*
X034061Y026440D01*
X034347Y026440D01*
X034540Y026360D01*
X035439Y026360D01*
X035563Y026484D01*
X035528Y026518D01*
X035407Y026811D01*
X035407Y027129D01*
X035528Y027422D01*
X035576Y027470D01*
X035528Y027518D01*
X035407Y027811D01*
X035407Y028129D01*
X035528Y028422D01*
X035576Y028470D01*
X035528Y028518D01*
X035407Y028811D01*
X035407Y029129D01*
X035528Y029422D01*
X035752Y029646D01*
X036045Y029767D01*
X036362Y029767D01*
X036655Y029646D01*
X036718Y029583D01*
X036719Y029586D01*
X036743Y029661D01*
X036779Y029731D01*
X036825Y029794D01*
X037204Y029794D02*
X037204Y029794D01*
X037204Y029556D02*
X037204Y029556D01*
X037204Y029317D02*
X037204Y029317D01*
X037204Y029079D02*
X037204Y029079D01*
X037204Y028840D02*
X037204Y028840D01*
X037204Y028602D02*
X037204Y028602D01*
X037537Y028840D02*
X040554Y028840D01*
X040554Y028602D02*
X037684Y028602D01*
X037690Y028363D02*
X040554Y028363D01*
X040554Y028125D02*
X037677Y028125D01*
X037894Y027886D02*
X040554Y027886D01*
X040554Y027648D02*
X037993Y027648D01*
X038001Y027409D02*
X040554Y027409D01*
X038815Y027171D02*
X037943Y027171D01*
X037793Y026932D02*
X038714Y026932D01*
X038638Y026694D02*
X037582Y026694D01*
X037566Y026677D02*
X037566Y026677D01*
X037344Y026455D02*
X038566Y026455D01*
X038544Y026217D02*
X037105Y026217D01*
X036867Y025978D02*
X038568Y025978D01*
X038642Y025740D02*
X036628Y025740D01*
X036390Y025501D02*
X038714Y025501D01*
X038828Y025263D02*
X036151Y025263D01*
X035805Y025024D02*
X040554Y025024D01*
X040554Y024786D02*
X036043Y024786D01*
X036282Y024547D02*
X040554Y024547D01*
X040554Y024309D02*
X036506Y024309D01*
X036594Y024070D02*
X040554Y024070D01*
X040554Y023832D02*
X036594Y023832D01*
X036594Y023593D02*
X040554Y023593D01*
X040554Y023355D02*
X036594Y023355D01*
X036594Y023116D02*
X040554Y023116D01*
X040554Y022878D02*
X036594Y022878D01*
X036594Y022639D02*
X040554Y022639D01*
X040554Y022401D02*
X036594Y022401D01*
X036594Y022162D02*
X040554Y022162D01*
X040554Y021924D02*
X036592Y021924D01*
X036704Y021720D02*
X036704Y020720D01*
X036477Y020720D01*
X035954Y020196D01*
X036292Y020254D02*
X040554Y020254D01*
X040554Y020016D02*
X036292Y020016D01*
X036292Y019777D02*
X040554Y019777D01*
X040554Y019539D02*
X036254Y019539D01*
X036529Y019300D02*
X040554Y019300D01*
X040554Y019062D02*
X036755Y019062D01*
X036844Y018823D02*
X040554Y018823D01*
X040554Y018585D02*
X037792Y018585D01*
X038037Y018346D02*
X040554Y018346D01*
X040554Y018108D02*
X038090Y018108D01*
X038090Y017869D02*
X040554Y017869D01*
X040554Y017631D02*
X038090Y017631D01*
X038090Y017392D02*
X040554Y017392D01*
X040554Y017154D02*
X038288Y017154D01*
X038402Y016915D02*
X040554Y016915D01*
X040554Y016677D02*
X038424Y016677D01*
X038366Y016438D02*
X040554Y016438D01*
X040554Y016200D02*
X038202Y016200D01*
X038090Y015961D02*
X040554Y015961D01*
X040554Y015723D02*
X038090Y015723D01*
X038090Y015484D02*
X040554Y015484D01*
X040554Y015246D02*
X038090Y015246D01*
X037986Y015007D02*
X040554Y015007D01*
X040554Y014769D02*
X037157Y014769D01*
X036919Y014530D02*
X040554Y014530D01*
X040554Y014292D02*
X036680Y014292D01*
X036442Y014053D02*
X040554Y014053D01*
X040554Y013815D02*
X036203Y013815D01*
X035704Y014220D02*
X034204Y014220D01*
X034204Y017169D01*
X034204Y017220D01*
X035204Y018220D01*
X035954Y018970D02*
X036204Y018720D01*
X036204Y017720D01*
X036153Y017720D01*
X036204Y017720D02*
X036204Y017220D01*
X036704Y016720D01*
X036704Y016220D01*
X036204Y015720D01*
X036153Y015720D01*
X037204Y015720D02*
X037255Y015720D01*
X037204Y015720D02*
X035704Y014220D01*
X033704Y013815D02*
X027703Y013815D01*
X027942Y014053D02*
X033580Y014053D01*
X033564Y014292D02*
X028180Y014292D01*
X028419Y014530D02*
X033564Y014530D01*
X033564Y014769D02*
X028657Y014769D01*
X029486Y015007D02*
X033564Y015007D01*
X033564Y015246D02*
X029590Y015246D01*
X029590Y015484D02*
X033564Y015484D01*
X033564Y015723D02*
X029590Y015723D01*
X029590Y015961D02*
X033564Y015961D01*
X033564Y016200D02*
X029702Y016200D01*
X029866Y016438D02*
X033491Y016438D01*
X032729Y016677D02*
X029924Y016677D01*
X029902Y016915D02*
X032551Y016915D01*
X032484Y017154D02*
X029788Y017154D01*
X029590Y017392D02*
X032496Y017392D01*
X032596Y017631D02*
X029590Y017631D01*
X029590Y017869D02*
X032889Y017869D01*
X033186Y018108D02*
X029590Y018108D01*
X029537Y018346D02*
X030717Y018346D01*
X031204Y019169D02*
X031204Y019220D01*
X029704Y019220D01*
X029704Y020720D01*
X030204Y021220D01*
X030746Y020857D02*
X030746Y020857D01*
X030683Y020731D02*
X030620Y020731D01*
X030566Y020677D02*
X030566Y020677D01*
X030629Y020493D02*
X030381Y020493D01*
X030344Y020254D02*
X031166Y020254D01*
X031241Y020254D02*
X032290Y020254D01*
X032290Y020493D02*
X031778Y020493D01*
X031778Y020615D02*
X031763Y020671D01*
X031734Y020721D01*
X031693Y020762D01*
X031643Y020791D01*
X031587Y020806D01*
X031241Y020806D01*
X031241Y020309D01*
X031778Y020309D01*
X031778Y020615D01*
X031724Y020731D02*
X032290Y020731D01*
X032290Y020970D02*
X030858Y020970D01*
X031097Y021208D02*
X031198Y021208D01*
X031704Y021720D02*
X031204Y022220D01*
X030704Y023220D02*
X030653Y023220D01*
X028834Y021685D02*
X028083Y021685D01*
X028092Y021924D02*
X028595Y021924D01*
X028357Y022162D02*
X028259Y022162D01*
X027704Y022494D02*
X027704Y023720D01*
X026954Y023720D02*
X026454Y024220D01*
X024204Y024220D01*
X023255Y023271D01*
X023255Y023220D01*
X022204Y023220D02*
X022204Y022720D01*
X022204Y023220D02*
X022153Y023220D01*
X020704Y022220D02*
X019704Y021220D01*
X018204Y021220D01*
X017954Y021470D01*
X017954Y022244D01*
X017454Y022244D02*
X016676Y022244D01*
X016204Y021771D01*
X015204Y021220D02*
X014204Y022220D01*
X013704Y022720D01*
X013704Y023220D01*
X013653Y023220D01*
X012454Y023220D01*
X012204Y022970D01*
X011486Y022878D02*
X011094Y022878D01*
X011094Y022639D02*
X011498Y022639D01*
X011642Y022401D02*
X011094Y022401D01*
X011094Y022162D02*
X013357Y022162D01*
X013547Y021924D02*
X011092Y021924D01*
X011083Y021685D02*
X013721Y021685D01*
X014072Y021447D02*
X010943Y021447D01*
X011204Y021220D02*
X011204Y020220D01*
X011180Y020196D01*
X010454Y020196D01*
X010792Y020254D02*
X013666Y020254D01*
X013741Y020254D02*
X014564Y020254D01*
X014564Y020016D02*
X014278Y020016D01*
X014278Y020309D02*
X013741Y020309D01*
X013741Y020806D01*
X014087Y020806D01*
X014143Y020791D01*
X014193Y020762D01*
X014234Y020721D01*
X014263Y020671D01*
X014278Y020615D01*
X014278Y020309D01*
X014278Y020493D02*
X014564Y020493D01*
X014564Y020731D02*
X014224Y020731D01*
X014549Y020970D02*
X010467Y020970D01*
X010767Y020731D02*
X013183Y020731D01*
X013129Y020493D02*
X010792Y020493D01*
X010792Y020016D02*
X013129Y020016D01*
X012908Y019777D02*
X010792Y019777D01*
X010754Y019539D02*
X012829Y019539D01*
X012829Y019300D02*
X011029Y019300D01*
X010996Y019333D02*
X010996Y019333D01*
X011066Y019263D02*
X011066Y019263D01*
X011255Y019062D02*
X012829Y019062D01*
X012829Y018823D02*
X011344Y018823D01*
X010704Y018720D02*
X010704Y017720D01*
X010653Y017720D01*
X010704Y017720D02*
X010704Y017220D01*
X011204Y016720D01*
X011204Y016220D01*
X010704Y015720D01*
X010653Y015720D01*
X011704Y015720D02*
X011755Y015720D01*
X011704Y015720D02*
X010204Y014220D01*
X008704Y014220D01*
X008704Y017169D01*
X008704Y017220D01*
X009704Y018220D01*
X009454Y019021D02*
X008704Y018271D01*
X008704Y017720D01*
X008204Y017720D01*
X007704Y017220D01*
X007051Y016915D02*
X002224Y016915D01*
X002224Y016677D02*
X007229Y016677D01*
X006984Y017154D02*
X002224Y017154D01*
X002224Y017392D02*
X006996Y017392D01*
X007096Y017631D02*
X002224Y017631D01*
X002224Y017869D02*
X007389Y017869D01*
X007686Y018108D02*
X002224Y018108D01*
X002224Y018346D02*
X007790Y018346D01*
X007790Y018585D02*
X002224Y018585D01*
X002224Y018823D02*
X004630Y018823D01*
X004629Y018825D02*
X004644Y018769D01*
X004673Y018719D01*
X004714Y018678D01*
X004765Y018649D01*
X004820Y018634D01*
X005166Y018634D01*
X005166Y019131D01*
X004629Y019131D01*
X004629Y018825D01*
X004629Y019062D02*
X002224Y019062D01*
X002224Y019300D02*
X004629Y019300D01*
X004532Y019539D02*
X002224Y019539D01*
X002224Y019777D02*
X004361Y019777D01*
X004329Y020016D02*
X002224Y020016D01*
X002224Y020254D02*
X004329Y020254D01*
X004329Y020493D02*
X002224Y020493D01*
X002224Y020731D02*
X004347Y020731D01*
X004497Y020970D02*
X002224Y020970D01*
X002224Y021208D02*
X005287Y021208D01*
X005518Y021447D02*
X002224Y021447D01*
X002224Y021685D02*
X005334Y021685D01*
X005134Y021924D02*
X002224Y021924D01*
X002224Y022162D02*
X005064Y022162D01*
X004528Y022401D02*
X002224Y022401D01*
X002224Y022639D02*
X004352Y022639D01*
X004318Y022878D02*
X002224Y022878D01*
X002224Y023116D02*
X004318Y023116D01*
X004318Y023355D02*
X002224Y023355D01*
X002224Y023593D02*
X004318Y023593D01*
X004365Y023832D02*
X002224Y023832D01*
X002224Y024070D02*
X004580Y024070D01*
X005387Y024309D02*
X002224Y024309D01*
X002224Y024547D02*
X005560Y024547D01*
X005751Y024786D02*
X002224Y024786D01*
X002224Y025024D02*
X007639Y025024D01*
X007624Y025061D02*
X007746Y024767D01*
X007971Y024542D01*
X008265Y024420D01*
X009143Y024420D01*
X009437Y024542D01*
X009662Y024767D01*
X009708Y024877D01*
X009716Y024823D01*
X009740Y024748D01*
X009776Y024678D01*
X009822Y024614D01*
X009878Y024559D01*
X009942Y024512D01*
X010012Y024477D01*
X010087Y024452D01*
X010164Y024440D01*
X010204Y024440D01*
X010204Y025220D01*
X010204Y025220D01*
X010204Y025220D01*
X010204Y026000D01*
X010164Y026000D01*
X010087Y025988D01*
X010012Y025963D01*
X009942Y025928D01*
X009878Y025881D01*
X009822Y025826D01*
X009776Y025762D01*
X009740Y025692D01*
X009716Y025617D01*
X009708Y025563D01*
X009662Y025673D01*
X009615Y025720D01*
X009662Y025767D01*
X009784Y026061D01*
X009784Y026379D01*
X009662Y026673D01*
X009437Y026898D01*
X009384Y026920D01*
X009411Y026958D01*
X009447Y027028D01*
X009471Y027103D01*
X009484Y027181D01*
X009484Y027220D01*
X009484Y027259D01*
X009471Y027337D01*
X009447Y027412D01*
X009411Y027482D01*
X009365Y027546D01*
X009310Y027601D01*
X009246Y027648D01*
X009176Y027683D01*
X009101Y027708D01*
X009023Y027720D01*
X008704Y027720D01*
X008704Y027220D01*
X009484Y027220D01*
X008704Y027220D01*
X008704Y027220D01*
X008704Y027220D01*
X008704Y027720D01*
X008384Y027720D01*
X008307Y027708D01*
X008232Y027683D01*
X008162Y027648D01*
X008098Y027601D01*
X008042Y027546D01*
X007996Y027482D01*
X007960Y027412D01*
X007936Y027337D01*
X007924Y027259D01*
X007924Y027220D01*
X007924Y027181D01*
X007936Y027103D01*
X007960Y027028D01*
X007996Y026958D01*
X008024Y026920D01*
X007971Y026898D01*
X007746Y026673D01*
X007624Y026379D01*
X007624Y026061D01*
X007746Y025767D01*
X007792Y025720D01*
X007746Y025673D01*
X007624Y025379D01*
X007624Y025061D01*
X007624Y025263D02*
X004080Y025263D01*
X004194Y025501D02*
X007674Y025501D01*
X007773Y025740D02*
X004266Y025740D01*
X004340Y025978D02*
X007658Y025978D01*
X007624Y026217D02*
X004364Y026217D01*
X004342Y026455D02*
X007655Y026455D01*
X007766Y026694D02*
X006912Y026694D01*
X006495Y026694D02*
X006117Y026694D01*
X005704Y026694D02*
X005704Y026694D01*
X005704Y026473D02*
X005704Y026970D01*
X005704Y026970D01*
X005704Y026970D01*
X005704Y027467D01*
X005665Y027467D01*
X005587Y027455D01*
X005513Y027431D01*
X005443Y027395D01*
X005380Y027349D01*
X005325Y027294D01*
X005279Y027231D01*
X005243Y027161D01*
X005219Y027086D01*
X005207Y027009D01*
X005207Y026970D01*
X005207Y026931D01*
X005219Y026854D01*
X005243Y026779D01*
X005279Y026709D01*
X005325Y026646D01*
X005380Y026591D01*
X005443Y026545D01*
X005513Y026509D01*
X005587Y026485D01*
X005665Y026473D01*
X005704Y026473D01*
X005290Y026694D02*
X004270Y026694D01*
X004194Y026932D02*
X005207Y026932D01*
X005207Y026970D02*
X005704Y026970D01*
X005704Y026970D01*
X005207Y026970D01*
X005248Y027171D02*
X004093Y027171D01*
X005324Y027648D02*
X002224Y027648D01*
X002224Y027886D02*
X005214Y027886D01*
X005207Y027970D02*
X005704Y027970D01*
X005704Y027473D01*
X005704Y027970D01*
X005704Y027970D01*
X005704Y027970D01*
X005207Y027970D01*
X005231Y028125D02*
X002224Y028125D01*
X002224Y028363D02*
X005183Y028363D01*
X004994Y028602D02*
X002224Y028602D01*
X002224Y028840D02*
X004907Y028840D01*
X004907Y029079D02*
X003426Y029079D01*
X002982Y029079D02*
X002224Y029079D01*
X002224Y029317D02*
X002267Y029317D01*
X004140Y029317D02*
X004985Y029317D01*
X005079Y029556D02*
X004194Y029556D01*
X004291Y029794D02*
X005064Y029794D01*
X005002Y030033D02*
X004354Y030033D01*
X004364Y030271D02*
X004984Y030271D01*
X005044Y030510D02*
X004327Y030510D01*
X004238Y030748D02*
X005214Y030748D01*
X005704Y030220D02*
X005704Y029720D01*
X006704Y029720D01*
X006704Y029470D01*
X007204Y029720D02*
X007204Y029220D01*
X010704Y029220D01*
X011204Y028720D01*
X011204Y028220D01*
X013704Y025720D01*
X013704Y025220D02*
X012204Y023720D01*
X010954Y023720D01*
X010454Y023220D01*
X010454Y022244D01*
X009954Y022244D02*
X009954Y023470D01*
X009704Y023720D01*
X006755Y023720D01*
X006255Y023220D01*
X005704Y022720D02*
X005704Y023720D01*
X006204Y024220D01*
X006848Y024547D02*
X007965Y024547D01*
X007738Y024786D02*
X006656Y024786D01*
X007704Y023220D02*
X009204Y023220D01*
X009454Y022970D01*
X009454Y022244D01*
X008954Y022244D02*
X008176Y022244D01*
X007704Y021771D01*
X008567Y021208D02*
X014311Y021208D01*
X013741Y020731D02*
X013666Y020731D01*
X013666Y020493D02*
X013741Y020493D01*
X015204Y021220D02*
X015204Y019220D01*
X013704Y019220D01*
X013704Y019169D01*
X012898Y018585D02*
X012292Y018585D01*
X012537Y018346D02*
X013217Y018346D01*
X012590Y018108D02*
X016290Y018108D01*
X016290Y018346D02*
X014191Y018346D01*
X015342Y018585D02*
X016290Y018585D01*
X016345Y018823D02*
X015712Y018823D01*
X015831Y019062D02*
X016599Y019062D01*
X016984Y019300D02*
X015844Y019300D01*
X015844Y019539D02*
X016866Y019539D01*
X016676Y020196D02*
X017454Y020196D01*
X017954Y020196D02*
X017954Y019021D01*
X017678Y018746D01*
X017704Y018720D01*
X017704Y019220D01*
X017678Y018746D02*
X017204Y018271D01*
X016308Y017631D02*
X012590Y017631D01*
X012590Y017869D02*
X016290Y017869D01*
X016290Y017392D02*
X012590Y017392D01*
X012788Y017154D02*
X016290Y017154D01*
X016290Y016915D02*
X012902Y016915D01*
X012924Y016677D02*
X016321Y016677D01*
X016491Y016438D02*
X012866Y016438D01*
X012702Y016200D02*
X016484Y016200D01*
X016532Y015961D02*
X012590Y015961D01*
X012590Y015723D02*
X016564Y015723D01*
X016564Y015484D02*
X012590Y015484D01*
X012590Y015246D02*
X016564Y015246D01*
X016564Y015007D02*
X012486Y015007D01*
X011657Y014769D02*
X016564Y014769D01*
X016564Y014530D02*
X011419Y014530D01*
X011180Y014292D02*
X016564Y014292D01*
X016580Y014053D02*
X010942Y014053D01*
X010703Y013815D02*
X016704Y013815D01*
X017204Y014220D02*
X017204Y016220D01*
X017204Y017169D01*
X017204Y017220D01*
X018454Y018419D02*
X018454Y020196D01*
X018954Y020196D02*
X019680Y020196D01*
X020704Y020720D01*
X018954Y022244D02*
X018954Y022970D01*
X016704Y025220D01*
X013704Y025220D01*
X012064Y026455D02*
X009752Y026455D01*
X009784Y026217D02*
X010843Y026217D01*
X010550Y025978D02*
X010351Y025978D01*
X010204Y025978D02*
X010204Y025978D01*
X010057Y025978D02*
X009749Y025978D01*
X009765Y025740D02*
X009635Y025740D01*
X010204Y025740D02*
X010204Y025740D01*
X010204Y025501D02*
X010204Y025501D01*
X010204Y025263D02*
X010204Y025263D01*
X010204Y025024D02*
X010204Y025024D01*
X010204Y024786D02*
X010204Y024786D01*
X010204Y024547D02*
X010204Y024547D01*
X009894Y024547D02*
X009442Y024547D01*
X009670Y024786D02*
X009728Y024786D01*
X009955Y024309D02*
X010702Y024309D01*
X010399Y024070D02*
X010259Y024070D01*
X011564Y026217D02*
X011843Y026217D01*
X011825Y026694D02*
X009642Y026694D01*
X009393Y026932D02*
X011587Y026932D01*
X011348Y027171D02*
X009482Y027171D01*
X009448Y027409D02*
X011110Y027409D01*
X010871Y027648D02*
X009246Y027648D01*
X008704Y027648D02*
X008704Y027648D01*
X008704Y027409D02*
X008704Y027409D01*
X008704Y027220D02*
X008704Y027220D01*
X007924Y027220D01*
X008704Y027220D01*
X008162Y027648D02*
X007493Y027648D01*
X007501Y027409D02*
X007959Y027409D01*
X007925Y027171D02*
X007443Y027171D01*
X007293Y026932D02*
X008015Y026932D01*
X007394Y027886D02*
X010649Y027886D01*
X010564Y028125D02*
X007424Y028125D01*
X007501Y028363D02*
X010564Y028363D01*
X011204Y028720D02*
X012204Y027720D01*
X012204Y027618D01*
X012704Y027618D02*
X012704Y028220D01*
X013204Y028220D02*
X013204Y027618D01*
X013704Y027618D02*
X013704Y028220D01*
X013954Y028470D01*
X016454Y028470D01*
X017204Y027720D01*
X017204Y028720D02*
X016954Y028970D01*
X014454Y028970D01*
X014204Y029220D01*
X014204Y029822D01*
X013704Y029822D02*
X013704Y030220D01*
X013529Y030271D02*
X013379Y030271D01*
X013204Y030220D02*
X013204Y029822D01*
X012704Y029822D02*
X012704Y030220D01*
X012204Y030720D01*
X011704Y030720D01*
X010986Y030748D02*
X007194Y030748D01*
X007363Y030510D02*
X010986Y030510D01*
X010986Y030987D02*
X004194Y030987D01*
X006194Y030748D02*
X006214Y030748D01*
X006704Y030220D02*
X007204Y029720D01*
X007704Y029720D02*
X011704Y029720D01*
X012204Y029720D01*
X012204Y029822D01*
X013277Y030510D02*
X013816Y030510D01*
X017558Y030271D02*
X018666Y030271D01*
X018741Y030271D02*
X020166Y030271D01*
X020241Y030271D02*
X021666Y030271D01*
X021090Y030033D02*
X020817Y030033D01*
X020817Y030309D02*
X020241Y030309D01*
X020241Y030806D01*
X020626Y030806D01*
X020682Y030791D01*
X020733Y030762D01*
X020774Y030721D01*
X020802Y030671D01*
X020817Y030615D01*
X020817Y030309D01*
X020817Y030510D02*
X021090Y030510D01*
X021161Y030748D02*
X020747Y030748D01*
X020241Y030748D02*
X020166Y030748D01*
X020166Y030510D02*
X020241Y030510D01*
X019661Y030748D02*
X019247Y030748D01*
X019233Y030762D02*
X019182Y030791D01*
X019126Y030806D01*
X018741Y030806D01*
X018741Y030309D01*
X019317Y030309D01*
X019317Y030615D01*
X019302Y030671D01*
X019274Y030721D01*
X019233Y030762D01*
X019317Y030510D02*
X019590Y030510D01*
X019590Y030033D02*
X019317Y030033D01*
X018741Y030510D02*
X018666Y030510D01*
X018666Y030748D02*
X018741Y030748D01*
X018090Y030033D02*
X017796Y030033D01*
X020204Y029220D02*
X020204Y029169D01*
X020204Y028220D01*
X020204Y026271D01*
X020204Y026220D01*
X020204Y025169D02*
X020204Y024220D01*
X019204Y023220D02*
X018954Y022970D01*
X018454Y022720D02*
X017454Y023720D01*
X015255Y023720D01*
X014755Y023220D01*
X013028Y022401D02*
X012766Y022401D01*
X009954Y020196D02*
X009954Y019220D01*
X010204Y018970D01*
X010454Y018970D01*
X010704Y018720D01*
X009454Y019021D02*
X009454Y020196D01*
X008954Y020196D02*
X008176Y020196D01*
X007704Y020669D01*
X006790Y020731D02*
X006733Y020731D01*
X006790Y020493D02*
X006381Y020493D01*
X006143Y020254D02*
X006790Y020254D01*
X006913Y020016D02*
X006078Y020016D01*
X006047Y019777D02*
X007690Y019777D01*
X007634Y019834D02*
X007634Y019834D01*
X008366Y019539D02*
X005876Y019539D01*
X005778Y019300D02*
X008595Y019300D01*
X008099Y019062D02*
X005778Y019062D01*
X005778Y018823D02*
X007845Y018823D01*
X005241Y018823D02*
X005166Y018823D01*
X005166Y019062D02*
X005241Y019062D01*
X005204Y020220D02*
X005204Y020271D01*
X005204Y020220D02*
X006204Y021220D01*
X006204Y021720D01*
X005704Y022220D01*
X005704Y022720D01*
X005204Y023220D01*
X005153Y023220D01*
X002328Y025263D02*
X002224Y025263D01*
X002224Y027171D02*
X002315Y027171D01*
X002224Y027409D02*
X005470Y027409D01*
X005704Y027409D02*
X005704Y027409D01*
X005704Y027171D02*
X005704Y027171D01*
X005704Y026932D02*
X005704Y026932D01*
X005704Y027648D02*
X005704Y027648D01*
X005704Y027886D02*
X005704Y027886D01*
X014204Y027618D02*
X014204Y027220D01*
X014704Y027220D02*
X014704Y027618D01*
X014704Y027220D02*
X015204Y026720D01*
X018454Y022720D02*
X018454Y022244D01*
X016676Y020196D02*
X016204Y020669D01*
X016134Y019834D02*
X016134Y019834D01*
X016190Y019777D02*
X015844Y019777D01*
X019204Y018720D02*
X020204Y017720D01*
X020255Y017720D01*
X021090Y017631D02*
X024096Y017631D01*
X023996Y017392D02*
X021090Y017392D01*
X021061Y017154D02*
X023984Y017154D01*
X024051Y016915D02*
X020894Y016915D01*
X020981Y016438D02*
X024991Y016438D01*
X025064Y016200D02*
X021090Y016200D01*
X021090Y015961D02*
X025064Y015961D01*
X025064Y015723D02*
X021090Y015723D01*
X021090Y015484D02*
X025064Y015484D01*
X025064Y015246D02*
X021090Y015246D01*
X020986Y015007D02*
X025064Y015007D01*
X025064Y014769D02*
X020157Y014769D01*
X019919Y014530D02*
X025064Y014530D01*
X025064Y014292D02*
X019680Y014292D01*
X019442Y014053D02*
X025080Y014053D01*
X025204Y013815D02*
X019203Y013815D01*
X018704Y014220D02*
X017204Y014220D01*
X018704Y014220D02*
X020204Y015720D01*
X020255Y015720D01*
X019704Y016220D02*
X019704Y016720D01*
X019204Y017220D01*
X019204Y017720D01*
X019153Y017720D01*
X020344Y016677D02*
X024229Y016677D01*
X024704Y017220D02*
X025204Y017720D01*
X025704Y017720D01*
X025704Y018271D01*
X026454Y019021D01*
X026454Y020196D01*
X026954Y020196D02*
X026954Y019220D01*
X027204Y018970D01*
X027454Y018970D01*
X027704Y018720D01*
X027704Y017720D01*
X027653Y017720D01*
X027704Y017720D02*
X027704Y017220D01*
X028204Y016720D01*
X028204Y016220D01*
X027704Y015720D01*
X027653Y015720D01*
X028704Y015720D02*
X028755Y015720D01*
X028704Y015720D02*
X027204Y014220D01*
X025704Y014220D01*
X025704Y017169D01*
X025704Y017220D01*
X026704Y018220D01*
X028255Y019062D02*
X029077Y019062D01*
X029064Y019300D02*
X028029Y019300D01*
X027754Y019539D02*
X029064Y019539D01*
X029064Y019777D02*
X027792Y019777D01*
X027792Y020016D02*
X029064Y020016D01*
X029064Y020254D02*
X027792Y020254D01*
X027792Y020493D02*
X029064Y020493D01*
X029064Y020731D02*
X027767Y020731D01*
X027467Y020970D02*
X029114Y020970D01*
X029287Y021208D02*
X025567Y021208D01*
X024704Y020669D02*
X025176Y020196D01*
X025954Y020196D01*
X025366Y019539D02*
X024344Y019539D01*
X024344Y019777D02*
X024690Y019777D01*
X024634Y019834D02*
X024634Y019834D01*
X024344Y019300D02*
X025595Y019300D01*
X025099Y019062D02*
X024331Y019062D01*
X024212Y018823D02*
X024845Y018823D01*
X024790Y018585D02*
X023842Y018585D01*
X024389Y017869D02*
X021090Y017869D01*
X019704Y016220D02*
X019204Y015720D01*
X019153Y015720D01*
X012204Y016720D02*
X011704Y017220D01*
X011704Y017720D01*
X011755Y017720D01*
X007991Y016438D02*
X002224Y016438D01*
X002224Y016200D02*
X008064Y016200D01*
X008064Y015961D02*
X002224Y015961D01*
X002224Y015723D02*
X008064Y015723D01*
X008064Y015484D02*
X002224Y015484D01*
X002224Y015246D02*
X008064Y015246D01*
X008064Y015007D02*
X002224Y015007D01*
X002224Y014769D02*
X008064Y014769D01*
X008064Y014530D02*
X002224Y014530D01*
X002224Y014292D02*
X008064Y014292D01*
X008080Y014053D02*
X002224Y014053D01*
X002224Y013815D02*
X008204Y013815D01*
X002224Y013576D02*
X040554Y013576D01*
X040554Y013338D02*
X002224Y013338D01*
X002224Y013099D02*
X040554Y013099D01*
X040554Y012861D02*
X002224Y012861D01*
X002224Y012622D02*
X040554Y012622D01*
X040554Y012384D02*
X002224Y012384D01*
X002224Y012145D02*
X040554Y012145D01*
X040554Y011907D02*
X002224Y011907D01*
X002224Y011668D02*
X040554Y011668D01*
X040554Y011430D02*
X002224Y011430D01*
X002224Y011191D02*
X040554Y011191D01*
X040554Y010953D02*
X002224Y010953D01*
X002224Y010714D02*
X040554Y010714D01*
X040554Y010476D02*
X002224Y010476D01*
X002224Y010237D02*
X040554Y010237D01*
X040554Y009999D02*
X002224Y009999D01*
X002224Y009760D02*
X040554Y009760D01*
X040554Y009522D02*
X002224Y009522D01*
X002224Y009283D02*
X040554Y009283D01*
X040554Y009045D02*
X002224Y009045D01*
X002224Y008806D02*
X040554Y008806D01*
X040554Y008568D02*
X002224Y008568D01*
X002224Y008329D02*
X040554Y008329D01*
X040554Y008091D02*
X002224Y008091D01*
X002224Y007852D02*
X040554Y007852D01*
X040554Y007614D02*
X002224Y007614D01*
X002224Y007375D02*
X040554Y007375D01*
X040554Y007137D02*
X002224Y007137D01*
X002224Y006898D02*
X040554Y006898D01*
X040554Y006660D02*
X002224Y006660D01*
X002224Y006421D02*
X040554Y006421D01*
X040554Y006183D02*
X002224Y006183D01*
X002224Y005944D02*
X040554Y005944D01*
X040554Y005706D02*
X002224Y005706D01*
X002224Y005467D02*
X040554Y005467D01*
X040554Y005229D02*
X002224Y005229D01*
X002224Y004990D02*
X040554Y004990D01*
X040554Y004752D02*
X002224Y004752D01*
X002224Y004513D02*
X040554Y004513D01*
X040554Y004275D02*
X002224Y004275D01*
X002224Y004036D02*
X040554Y004036D01*
X040554Y003798D02*
X002224Y003798D01*
X002224Y003559D02*
X040554Y003559D01*
X040554Y003321D02*
X002224Y003321D01*
X002224Y003082D02*
X040554Y003082D01*
X040554Y002844D02*
X002224Y002844D01*
X002224Y002605D02*
X040554Y002605D01*
X040554Y002367D02*
X002224Y002367D01*
X002224Y002128D02*
X040554Y002128D01*
X040554Y001890D02*
X002224Y001890D01*
X002224Y001651D02*
X040554Y001651D01*
X040554Y001413D02*
X002224Y001413D01*
X002224Y001174D02*
X040554Y001174D01*
X040554Y000936D02*
X002224Y000936D01*
X028704Y017220D02*
X028704Y017720D01*
X028755Y017720D01*
X028704Y017220D02*
X029204Y016720D01*
X031691Y018346D02*
X033290Y018346D01*
X033290Y018585D02*
X032009Y018585D01*
X032078Y018823D02*
X033345Y018823D01*
X033599Y019062D02*
X032078Y019062D01*
X032078Y019300D02*
X034095Y019300D01*
X033866Y019539D02*
X032078Y019539D01*
X031999Y019777D02*
X033190Y019777D01*
X033134Y019834D02*
X033134Y019834D01*
X033676Y020196D02*
X034454Y020196D01*
X034954Y020196D02*
X034954Y019021D01*
X034204Y018271D01*
X034204Y017720D01*
X033704Y017720D01*
X033204Y017220D01*
X035454Y019220D02*
X035704Y018970D01*
X035954Y018970D01*
X035454Y019220D02*
X035454Y020196D01*
X036292Y020493D02*
X040554Y020493D01*
X040554Y020731D02*
X036267Y020731D01*
X035967Y020970D02*
X040554Y020970D01*
X040554Y021208D02*
X034067Y021208D01*
X033204Y020669D02*
X033676Y020196D01*
X032413Y020016D02*
X031778Y020016D01*
X031241Y020493D02*
X031166Y020493D01*
X031166Y020731D02*
X031241Y020731D01*
X030629Y020016D02*
X030344Y020016D01*
X029566Y018585D02*
X029292Y018585D01*
X029196Y018823D02*
X028344Y018823D01*
X028180Y020196D02*
X027454Y020196D01*
X028180Y020196D02*
X028204Y020220D01*
X028204Y021220D01*
X027943Y021447D02*
X029072Y021447D01*
X027704Y022494D02*
X027454Y022244D01*
X026954Y022244D02*
X026954Y023720D01*
X026454Y023220D02*
X026204Y023470D01*
X025704Y023470D01*
X026454Y023220D02*
X026454Y022244D01*
X025954Y022244D02*
X025176Y022244D01*
X024704Y021771D01*
X029844Y025501D02*
X033515Y025501D01*
X033484Y025740D02*
X029844Y025740D01*
X029844Y025978D02*
X033531Y025978D01*
X033682Y026217D02*
X029844Y026217D01*
X029799Y026455D02*
X031615Y026455D01*
X031190Y026694D02*
X031115Y026694D01*
X031115Y026932D02*
X031190Y026932D01*
X031190Y027171D02*
X031115Y027171D01*
X031115Y027409D02*
X031190Y027409D01*
X031190Y027648D02*
X031115Y027648D01*
X031327Y027886D02*
X031516Y027886D01*
X030629Y027648D02*
X030494Y027648D01*
X030618Y027409D02*
X029844Y027409D01*
X029844Y027171D02*
X030618Y027171D01*
X030618Y026932D02*
X029777Y026932D01*
X029635Y026694D02*
X030699Y026694D01*
X032895Y026455D02*
X035534Y026455D01*
X035455Y026694D02*
X033061Y026694D01*
X033090Y026932D02*
X035407Y026932D01*
X035424Y027171D02*
X033090Y027171D01*
X033090Y027201D02*
X033246Y027357D01*
X033344Y027593D01*
X033344Y027893D01*
X033392Y027913D01*
X033538Y028059D01*
X033617Y028250D01*
X033617Y029087D01*
X033538Y029278D01*
X033392Y029425D01*
X033317Y029455D01*
X033317Y029734D01*
X032741Y029734D01*
X032741Y029809D01*
X032666Y029794D02*
X031617Y029794D01*
X031617Y029556D02*
X032090Y029556D01*
X032090Y030033D02*
X031617Y030033D01*
X031584Y030271D02*
X032190Y030271D01*
X032666Y030271D02*
X032741Y030271D01*
X032741Y030033D02*
X032666Y030033D01*
X033217Y030271D02*
X038544Y030271D01*
X038553Y030033D02*
X033317Y030033D01*
X033317Y029556D02*
X035662Y029556D01*
X035485Y029317D02*
X033500Y029317D01*
X033617Y029079D02*
X035407Y029079D01*
X035407Y028840D02*
X033617Y028840D01*
X033617Y028602D02*
X035494Y028602D01*
X035504Y028363D02*
X033617Y028363D01*
X033565Y028125D02*
X035407Y028125D01*
X035407Y027886D02*
X033344Y027886D01*
X033344Y027648D02*
X035475Y027648D01*
X035523Y027409D02*
X033268Y027409D01*
X034204Y025720D02*
X035704Y025720D01*
X037204Y027220D01*
X037204Y027470D01*
X037511Y029079D02*
X039482Y029079D01*
X039926Y029079D02*
X040554Y029079D01*
X038767Y029317D02*
X037677Y029317D01*
X037694Y029556D02*
X038714Y029556D01*
X038617Y029794D02*
X037583Y029794D01*
X038580Y030510D02*
X031409Y030510D01*
X031081Y030748D02*
X038669Y030748D01*
X038714Y030987D02*
X028393Y030987D01*
X027755Y030220D02*
X028227Y029748D01*
X028227Y028970D01*
X027755Y030220D02*
X027704Y030220D01*
X027755Y030220D02*
X029204Y030220D01*
X029704Y030220D01*
X029704Y029220D01*
X030704Y029720D02*
X030704Y029771D01*
X030704Y030220D01*
X029704Y030220D01*
X033704Y023220D02*
X034704Y023220D01*
X034954Y022970D01*
X034954Y022244D01*
X034454Y022244D02*
X033676Y022244D01*
X033204Y021771D01*
X032340Y021208D02*
X032210Y021208D01*
X036443Y021447D02*
X040554Y021447D01*
X040554Y021685D02*
X036583Y021685D01*
X036566Y019263D02*
X036566Y019263D01*
X037204Y017720D02*
X037255Y017720D01*
X037204Y017720D02*
X037204Y017220D01*
X037704Y016720D01*
D21*
X027704Y023720D03*
X020704Y022220D03*
X020704Y020720D03*
X020204Y024220D03*
X007704Y023220D03*
D22*
X011204Y021220D03*
X012204Y022970D03*
X015204Y026720D03*
X017204Y027720D03*
X017204Y028720D03*
X020204Y028220D03*
X021704Y027720D03*
X023204Y026970D03*
X025704Y023470D03*
X028204Y021220D03*
X029704Y024720D03*
X033704Y023220D03*
X020704Y023220D03*
X011704Y030720D03*
D23*
X011704Y029720D03*
X012704Y028220D03*
X013204Y028220D03*
X013704Y025720D03*
X014204Y022220D03*
X017704Y019220D03*
X019204Y018720D03*
X017204Y016220D03*
X012204Y016720D03*
X009704Y018220D03*
X007704Y017220D03*
X006204Y021220D03*
X006204Y024220D03*
X007704Y029720D03*
X006704Y030220D03*
X005704Y030220D03*
X007704Y030720D03*
X018704Y024220D03*
X022704Y022220D03*
X026704Y018220D03*
X024704Y017220D03*
X029204Y016720D03*
X033204Y017220D03*
X035204Y018220D03*
X037704Y016720D03*
X036704Y021720D03*
X031704Y021720D03*
X034204Y025720D03*
X029704Y029220D03*
X029204Y030220D03*
M02*
