%
M48
M72
T01C0.0236
T02C0.0240
T03C0.0354
T04C0.0360
T05C0.1280
%
T01
X20704Y20720
X20704Y22220
X20704Y23220
X20204Y24220
X23204Y26970
X21704Y27720
X20204Y28220
X17204Y27720
X17204Y28720
X15204Y26720
X12204Y22970
X11204Y21220
X7704Y23220
X11704Y30720
X25704Y23470
X27704Y23720
X29704Y24720
X33704Y23220
X28204Y21220
T02
X17204Y16220
X19204Y18720
X17704Y19220
X14204Y22220
X18704Y24220
X22704Y22220
X26704Y18220
X24704Y17220
X29204Y16720
X33204Y17220
X35204Y18220
X37704Y16720
X36704Y21720
X31704Y21720
X34204Y25720
X29704Y29220
X29204Y30220
X13704Y25720
X13204Y28220
X12704Y28220
X11704Y29720
X7704Y29720
X6704Y30220
X5704Y30220
X7704Y30720
X6204Y24220
X6204Y21220
X9704Y18220
X7704Y17220
X12204Y16720
T03
X5704Y26970
X6704Y27470
X5704Y27970
X6704Y28470
X5704Y28970
X6704Y29470
X36204Y28970
X37204Y28470
X36204Y27970
X37204Y27470
X36204Y26970
X37204Y29470
T04
X12204Y25220
X11204Y25220
X10204Y25220
X8704Y25220
X8704Y26220
X8704Y27220
T05
X3204Y26220
X3204Y30220
X39704Y30220
X39704Y26220
M30
