%
M48
M72
T01C0.0236
T02C0.0320
T03C0.0354
T04C0.0360
T05C0.1260
T06C0.1280
%
T01
X6204Y5445
X13704Y6695
X15204Y5445
X23204Y6695
X24704Y5445
X32204Y6695
X33704Y5445
X32704Y9195
X35704Y10695
X35204Y14195
X32704Y14695
X31204Y15195
X30204Y17695
X26704Y20195
X24704Y20695
X22204Y19195
X19204Y17945
X14704Y16695
X14204Y14695
X16704Y14195
X17204Y10695
X14204Y9195
X8204Y10695
X5204Y9195
X4704Y6695
X6704Y13195
X5204Y14695
X9704Y19445
X13204Y20695
X12204Y21945
X11204Y22195
X23704Y14695
X26204Y14195
X26704Y10695
X23704Y9195
X25204Y17695
X29704Y22695
T02
X8204Y12695
X9204Y12695
X10204Y12695
X11204Y12695
X11204Y9695
X10204Y9695
X9204Y9695
X8204Y9695
X17204Y9695
X18204Y9695
X19204Y9695
X20204Y9695
X20204Y12695
X19204Y12695
X18204Y12695
X17204Y12695
X26704Y12695
X27704Y12695
X28704Y12695
X29704Y12695
X29704Y9695
X28704Y9695
X27704Y9695
X26704Y9695
X35704Y9695
X36704Y9695
X37704Y9695
X38704Y9695
X38704Y12695
X37704Y12695
X36704Y12695
X35704Y12695
X33204Y18695
X33204Y19695
X33204Y20695
X33204Y21695
X30204Y21695
X30204Y20695
X30204Y19695
X30204Y18695
T03
X9454Y6695
X8454Y6695
X8954Y7695
X9954Y7695
X18454Y6695
X17454Y6695
X17954Y7695
X18954Y7695
X27954Y6695
X26954Y6695
X27454Y7695
X28454Y7695
X36954Y6695
X35954Y6695
X36454Y7695
X37454Y7695
X6704Y18445
X5704Y17945
X5704Y18945
X6704Y19445
X5704Y19945
X6704Y20445
T04
X8204Y18195
X8204Y17195
X8204Y16195
X10204Y16945
X11204Y16945
X12204Y16945
T05
X7704Y4195
X10704Y4195
X16704Y4195
X19704Y4195
X26204Y4195
X29204Y4195
X35204Y4195
X38204Y4195
T06
X3204Y21195
X3204Y17195
M30
