G75*
G70*
%OFA0B0*%
%FSLAX24Y24*%
%IPPOS*%
%LPD*%
%AMOC8*
5,1,8,0,0,1.08239X$1,22.5*
%
%ADD10C,0.0000*%
%ADD11C,0.0480*%
%ADD12R,0.0787X0.0630*%
%ADD13R,0.0630X0.0709*%
%ADD14R,0.0709X0.0630*%
%ADD15R,0.0551X0.0394*%
%ADD16C,0.0551*%
%ADD17C,0.0560*%
%ADD18C,0.0500*%
%ADD19C,0.0540*%
%ADD20C,0.0240*%
%ADD21C,0.0500*%
%ADD22C,0.0160*%
%ADD23R,0.0356X0.0356*%
%ADD24C,0.0356*%
D10*
X000704Y003195D02*
X000704Y023691D01*
X040074Y023691D01*
X040074Y003195D01*
X000704Y003195D01*
X007074Y004195D02*
X007076Y004245D01*
X007082Y004295D01*
X007092Y004344D01*
X007106Y004392D01*
X007123Y004439D01*
X007144Y004484D01*
X007169Y004528D01*
X007197Y004569D01*
X007229Y004608D01*
X007263Y004645D01*
X007300Y004679D01*
X007340Y004709D01*
X007382Y004736D01*
X007426Y004760D01*
X007472Y004781D01*
X007519Y004797D01*
X007567Y004810D01*
X007617Y004819D01*
X007666Y004824D01*
X007717Y004825D01*
X007767Y004822D01*
X007816Y004815D01*
X007865Y004804D01*
X007913Y004789D01*
X007959Y004771D01*
X008004Y004749D01*
X008047Y004723D01*
X008088Y004694D01*
X008127Y004662D01*
X008163Y004627D01*
X008195Y004589D01*
X008225Y004549D01*
X008252Y004506D01*
X008275Y004462D01*
X008294Y004416D01*
X008310Y004368D01*
X008322Y004319D01*
X008330Y004270D01*
X008334Y004220D01*
X008334Y004170D01*
X008330Y004120D01*
X008322Y004071D01*
X008310Y004022D01*
X008294Y003974D01*
X008275Y003928D01*
X008252Y003884D01*
X008225Y003841D01*
X008195Y003801D01*
X008163Y003763D01*
X008127Y003728D01*
X008088Y003696D01*
X008047Y003667D01*
X008004Y003641D01*
X007959Y003619D01*
X007913Y003601D01*
X007865Y003586D01*
X007816Y003575D01*
X007767Y003568D01*
X007717Y003565D01*
X007666Y003566D01*
X007617Y003571D01*
X007567Y003580D01*
X007519Y003593D01*
X007472Y003609D01*
X007426Y003630D01*
X007382Y003654D01*
X007340Y003681D01*
X007300Y003711D01*
X007263Y003745D01*
X007229Y003782D01*
X007197Y003821D01*
X007169Y003862D01*
X007144Y003906D01*
X007123Y003951D01*
X007106Y003998D01*
X007092Y004046D01*
X007082Y004095D01*
X007076Y004145D01*
X007074Y004195D01*
X010074Y004195D02*
X010076Y004245D01*
X010082Y004295D01*
X010092Y004344D01*
X010106Y004392D01*
X010123Y004439D01*
X010144Y004484D01*
X010169Y004528D01*
X010197Y004569D01*
X010229Y004608D01*
X010263Y004645D01*
X010300Y004679D01*
X010340Y004709D01*
X010382Y004736D01*
X010426Y004760D01*
X010472Y004781D01*
X010519Y004797D01*
X010567Y004810D01*
X010617Y004819D01*
X010666Y004824D01*
X010717Y004825D01*
X010767Y004822D01*
X010816Y004815D01*
X010865Y004804D01*
X010913Y004789D01*
X010959Y004771D01*
X011004Y004749D01*
X011047Y004723D01*
X011088Y004694D01*
X011127Y004662D01*
X011163Y004627D01*
X011195Y004589D01*
X011225Y004549D01*
X011252Y004506D01*
X011275Y004462D01*
X011294Y004416D01*
X011310Y004368D01*
X011322Y004319D01*
X011330Y004270D01*
X011334Y004220D01*
X011334Y004170D01*
X011330Y004120D01*
X011322Y004071D01*
X011310Y004022D01*
X011294Y003974D01*
X011275Y003928D01*
X011252Y003884D01*
X011225Y003841D01*
X011195Y003801D01*
X011163Y003763D01*
X011127Y003728D01*
X011088Y003696D01*
X011047Y003667D01*
X011004Y003641D01*
X010959Y003619D01*
X010913Y003601D01*
X010865Y003586D01*
X010816Y003575D01*
X010767Y003568D01*
X010717Y003565D01*
X010666Y003566D01*
X010617Y003571D01*
X010567Y003580D01*
X010519Y003593D01*
X010472Y003609D01*
X010426Y003630D01*
X010382Y003654D01*
X010340Y003681D01*
X010300Y003711D01*
X010263Y003745D01*
X010229Y003782D01*
X010197Y003821D01*
X010169Y003862D01*
X010144Y003906D01*
X010123Y003951D01*
X010106Y003998D01*
X010092Y004046D01*
X010082Y004095D01*
X010076Y004145D01*
X010074Y004195D01*
X016074Y004195D02*
X016076Y004245D01*
X016082Y004295D01*
X016092Y004344D01*
X016106Y004392D01*
X016123Y004439D01*
X016144Y004484D01*
X016169Y004528D01*
X016197Y004569D01*
X016229Y004608D01*
X016263Y004645D01*
X016300Y004679D01*
X016340Y004709D01*
X016382Y004736D01*
X016426Y004760D01*
X016472Y004781D01*
X016519Y004797D01*
X016567Y004810D01*
X016617Y004819D01*
X016666Y004824D01*
X016717Y004825D01*
X016767Y004822D01*
X016816Y004815D01*
X016865Y004804D01*
X016913Y004789D01*
X016959Y004771D01*
X017004Y004749D01*
X017047Y004723D01*
X017088Y004694D01*
X017127Y004662D01*
X017163Y004627D01*
X017195Y004589D01*
X017225Y004549D01*
X017252Y004506D01*
X017275Y004462D01*
X017294Y004416D01*
X017310Y004368D01*
X017322Y004319D01*
X017330Y004270D01*
X017334Y004220D01*
X017334Y004170D01*
X017330Y004120D01*
X017322Y004071D01*
X017310Y004022D01*
X017294Y003974D01*
X017275Y003928D01*
X017252Y003884D01*
X017225Y003841D01*
X017195Y003801D01*
X017163Y003763D01*
X017127Y003728D01*
X017088Y003696D01*
X017047Y003667D01*
X017004Y003641D01*
X016959Y003619D01*
X016913Y003601D01*
X016865Y003586D01*
X016816Y003575D01*
X016767Y003568D01*
X016717Y003565D01*
X016666Y003566D01*
X016617Y003571D01*
X016567Y003580D01*
X016519Y003593D01*
X016472Y003609D01*
X016426Y003630D01*
X016382Y003654D01*
X016340Y003681D01*
X016300Y003711D01*
X016263Y003745D01*
X016229Y003782D01*
X016197Y003821D01*
X016169Y003862D01*
X016144Y003906D01*
X016123Y003951D01*
X016106Y003998D01*
X016092Y004046D01*
X016082Y004095D01*
X016076Y004145D01*
X016074Y004195D01*
X019074Y004195D02*
X019076Y004245D01*
X019082Y004295D01*
X019092Y004344D01*
X019106Y004392D01*
X019123Y004439D01*
X019144Y004484D01*
X019169Y004528D01*
X019197Y004569D01*
X019229Y004608D01*
X019263Y004645D01*
X019300Y004679D01*
X019340Y004709D01*
X019382Y004736D01*
X019426Y004760D01*
X019472Y004781D01*
X019519Y004797D01*
X019567Y004810D01*
X019617Y004819D01*
X019666Y004824D01*
X019717Y004825D01*
X019767Y004822D01*
X019816Y004815D01*
X019865Y004804D01*
X019913Y004789D01*
X019959Y004771D01*
X020004Y004749D01*
X020047Y004723D01*
X020088Y004694D01*
X020127Y004662D01*
X020163Y004627D01*
X020195Y004589D01*
X020225Y004549D01*
X020252Y004506D01*
X020275Y004462D01*
X020294Y004416D01*
X020310Y004368D01*
X020322Y004319D01*
X020330Y004270D01*
X020334Y004220D01*
X020334Y004170D01*
X020330Y004120D01*
X020322Y004071D01*
X020310Y004022D01*
X020294Y003974D01*
X020275Y003928D01*
X020252Y003884D01*
X020225Y003841D01*
X020195Y003801D01*
X020163Y003763D01*
X020127Y003728D01*
X020088Y003696D01*
X020047Y003667D01*
X020004Y003641D01*
X019959Y003619D01*
X019913Y003601D01*
X019865Y003586D01*
X019816Y003575D01*
X019767Y003568D01*
X019717Y003565D01*
X019666Y003566D01*
X019617Y003571D01*
X019567Y003580D01*
X019519Y003593D01*
X019472Y003609D01*
X019426Y003630D01*
X019382Y003654D01*
X019340Y003681D01*
X019300Y003711D01*
X019263Y003745D01*
X019229Y003782D01*
X019197Y003821D01*
X019169Y003862D01*
X019144Y003906D01*
X019123Y003951D01*
X019106Y003998D01*
X019092Y004046D01*
X019082Y004095D01*
X019076Y004145D01*
X019074Y004195D01*
X025574Y004195D02*
X025576Y004245D01*
X025582Y004295D01*
X025592Y004344D01*
X025606Y004392D01*
X025623Y004439D01*
X025644Y004484D01*
X025669Y004528D01*
X025697Y004569D01*
X025729Y004608D01*
X025763Y004645D01*
X025800Y004679D01*
X025840Y004709D01*
X025882Y004736D01*
X025926Y004760D01*
X025972Y004781D01*
X026019Y004797D01*
X026067Y004810D01*
X026117Y004819D01*
X026166Y004824D01*
X026217Y004825D01*
X026267Y004822D01*
X026316Y004815D01*
X026365Y004804D01*
X026413Y004789D01*
X026459Y004771D01*
X026504Y004749D01*
X026547Y004723D01*
X026588Y004694D01*
X026627Y004662D01*
X026663Y004627D01*
X026695Y004589D01*
X026725Y004549D01*
X026752Y004506D01*
X026775Y004462D01*
X026794Y004416D01*
X026810Y004368D01*
X026822Y004319D01*
X026830Y004270D01*
X026834Y004220D01*
X026834Y004170D01*
X026830Y004120D01*
X026822Y004071D01*
X026810Y004022D01*
X026794Y003974D01*
X026775Y003928D01*
X026752Y003884D01*
X026725Y003841D01*
X026695Y003801D01*
X026663Y003763D01*
X026627Y003728D01*
X026588Y003696D01*
X026547Y003667D01*
X026504Y003641D01*
X026459Y003619D01*
X026413Y003601D01*
X026365Y003586D01*
X026316Y003575D01*
X026267Y003568D01*
X026217Y003565D01*
X026166Y003566D01*
X026117Y003571D01*
X026067Y003580D01*
X026019Y003593D01*
X025972Y003609D01*
X025926Y003630D01*
X025882Y003654D01*
X025840Y003681D01*
X025800Y003711D01*
X025763Y003745D01*
X025729Y003782D01*
X025697Y003821D01*
X025669Y003862D01*
X025644Y003906D01*
X025623Y003951D01*
X025606Y003998D01*
X025592Y004046D01*
X025582Y004095D01*
X025576Y004145D01*
X025574Y004195D01*
X028574Y004195D02*
X028576Y004245D01*
X028582Y004295D01*
X028592Y004344D01*
X028606Y004392D01*
X028623Y004439D01*
X028644Y004484D01*
X028669Y004528D01*
X028697Y004569D01*
X028729Y004608D01*
X028763Y004645D01*
X028800Y004679D01*
X028840Y004709D01*
X028882Y004736D01*
X028926Y004760D01*
X028972Y004781D01*
X029019Y004797D01*
X029067Y004810D01*
X029117Y004819D01*
X029166Y004824D01*
X029217Y004825D01*
X029267Y004822D01*
X029316Y004815D01*
X029365Y004804D01*
X029413Y004789D01*
X029459Y004771D01*
X029504Y004749D01*
X029547Y004723D01*
X029588Y004694D01*
X029627Y004662D01*
X029663Y004627D01*
X029695Y004589D01*
X029725Y004549D01*
X029752Y004506D01*
X029775Y004462D01*
X029794Y004416D01*
X029810Y004368D01*
X029822Y004319D01*
X029830Y004270D01*
X029834Y004220D01*
X029834Y004170D01*
X029830Y004120D01*
X029822Y004071D01*
X029810Y004022D01*
X029794Y003974D01*
X029775Y003928D01*
X029752Y003884D01*
X029725Y003841D01*
X029695Y003801D01*
X029663Y003763D01*
X029627Y003728D01*
X029588Y003696D01*
X029547Y003667D01*
X029504Y003641D01*
X029459Y003619D01*
X029413Y003601D01*
X029365Y003586D01*
X029316Y003575D01*
X029267Y003568D01*
X029217Y003565D01*
X029166Y003566D01*
X029117Y003571D01*
X029067Y003580D01*
X029019Y003593D01*
X028972Y003609D01*
X028926Y003630D01*
X028882Y003654D01*
X028840Y003681D01*
X028800Y003711D01*
X028763Y003745D01*
X028729Y003782D01*
X028697Y003821D01*
X028669Y003862D01*
X028644Y003906D01*
X028623Y003951D01*
X028606Y003998D01*
X028592Y004046D01*
X028582Y004095D01*
X028576Y004145D01*
X028574Y004195D01*
X034574Y004195D02*
X034576Y004245D01*
X034582Y004295D01*
X034592Y004344D01*
X034606Y004392D01*
X034623Y004439D01*
X034644Y004484D01*
X034669Y004528D01*
X034697Y004569D01*
X034729Y004608D01*
X034763Y004645D01*
X034800Y004679D01*
X034840Y004709D01*
X034882Y004736D01*
X034926Y004760D01*
X034972Y004781D01*
X035019Y004797D01*
X035067Y004810D01*
X035117Y004819D01*
X035166Y004824D01*
X035217Y004825D01*
X035267Y004822D01*
X035316Y004815D01*
X035365Y004804D01*
X035413Y004789D01*
X035459Y004771D01*
X035504Y004749D01*
X035547Y004723D01*
X035588Y004694D01*
X035627Y004662D01*
X035663Y004627D01*
X035695Y004589D01*
X035725Y004549D01*
X035752Y004506D01*
X035775Y004462D01*
X035794Y004416D01*
X035810Y004368D01*
X035822Y004319D01*
X035830Y004270D01*
X035834Y004220D01*
X035834Y004170D01*
X035830Y004120D01*
X035822Y004071D01*
X035810Y004022D01*
X035794Y003974D01*
X035775Y003928D01*
X035752Y003884D01*
X035725Y003841D01*
X035695Y003801D01*
X035663Y003763D01*
X035627Y003728D01*
X035588Y003696D01*
X035547Y003667D01*
X035504Y003641D01*
X035459Y003619D01*
X035413Y003601D01*
X035365Y003586D01*
X035316Y003575D01*
X035267Y003568D01*
X035217Y003565D01*
X035166Y003566D01*
X035117Y003571D01*
X035067Y003580D01*
X035019Y003593D01*
X034972Y003609D01*
X034926Y003630D01*
X034882Y003654D01*
X034840Y003681D01*
X034800Y003711D01*
X034763Y003745D01*
X034729Y003782D01*
X034697Y003821D01*
X034669Y003862D01*
X034644Y003906D01*
X034623Y003951D01*
X034606Y003998D01*
X034592Y004046D01*
X034582Y004095D01*
X034576Y004145D01*
X034574Y004195D01*
X037574Y004195D02*
X037576Y004245D01*
X037582Y004295D01*
X037592Y004344D01*
X037606Y004392D01*
X037623Y004439D01*
X037644Y004484D01*
X037669Y004528D01*
X037697Y004569D01*
X037729Y004608D01*
X037763Y004645D01*
X037800Y004679D01*
X037840Y004709D01*
X037882Y004736D01*
X037926Y004760D01*
X037972Y004781D01*
X038019Y004797D01*
X038067Y004810D01*
X038117Y004819D01*
X038166Y004824D01*
X038217Y004825D01*
X038267Y004822D01*
X038316Y004815D01*
X038365Y004804D01*
X038413Y004789D01*
X038459Y004771D01*
X038504Y004749D01*
X038547Y004723D01*
X038588Y004694D01*
X038627Y004662D01*
X038663Y004627D01*
X038695Y004589D01*
X038725Y004549D01*
X038752Y004506D01*
X038775Y004462D01*
X038794Y004416D01*
X038810Y004368D01*
X038822Y004319D01*
X038830Y004270D01*
X038834Y004220D01*
X038834Y004170D01*
X038830Y004120D01*
X038822Y004071D01*
X038810Y004022D01*
X038794Y003974D01*
X038775Y003928D01*
X038752Y003884D01*
X038725Y003841D01*
X038695Y003801D01*
X038663Y003763D01*
X038627Y003728D01*
X038588Y003696D01*
X038547Y003667D01*
X038504Y003641D01*
X038459Y003619D01*
X038413Y003601D01*
X038365Y003586D01*
X038316Y003575D01*
X038267Y003568D01*
X038217Y003565D01*
X038166Y003566D01*
X038117Y003571D01*
X038067Y003580D01*
X038019Y003593D01*
X037972Y003609D01*
X037926Y003630D01*
X037882Y003654D01*
X037840Y003681D01*
X037800Y003711D01*
X037763Y003745D01*
X037729Y003782D01*
X037697Y003821D01*
X037669Y003862D01*
X037644Y003906D01*
X037623Y003951D01*
X037606Y003998D01*
X037592Y004046D01*
X037582Y004095D01*
X037576Y004145D01*
X037574Y004195D01*
X002564Y017195D02*
X002566Y017245D01*
X002572Y017295D01*
X002582Y017344D01*
X002595Y017393D01*
X002613Y017440D01*
X002634Y017486D01*
X002658Y017529D01*
X002686Y017571D01*
X002717Y017611D01*
X002751Y017648D01*
X002788Y017682D01*
X002828Y017713D01*
X002870Y017741D01*
X002913Y017765D01*
X002959Y017786D01*
X003006Y017804D01*
X003055Y017817D01*
X003104Y017827D01*
X003154Y017833D01*
X003204Y017835D01*
X003254Y017833D01*
X003304Y017827D01*
X003353Y017817D01*
X003402Y017804D01*
X003449Y017786D01*
X003495Y017765D01*
X003538Y017741D01*
X003580Y017713D01*
X003620Y017682D01*
X003657Y017648D01*
X003691Y017611D01*
X003722Y017571D01*
X003750Y017529D01*
X003774Y017486D01*
X003795Y017440D01*
X003813Y017393D01*
X003826Y017344D01*
X003836Y017295D01*
X003842Y017245D01*
X003844Y017195D01*
X003842Y017145D01*
X003836Y017095D01*
X003826Y017046D01*
X003813Y016997D01*
X003795Y016950D01*
X003774Y016904D01*
X003750Y016861D01*
X003722Y016819D01*
X003691Y016779D01*
X003657Y016742D01*
X003620Y016708D01*
X003580Y016677D01*
X003538Y016649D01*
X003495Y016625D01*
X003449Y016604D01*
X003402Y016586D01*
X003353Y016573D01*
X003304Y016563D01*
X003254Y016557D01*
X003204Y016555D01*
X003154Y016557D01*
X003104Y016563D01*
X003055Y016573D01*
X003006Y016586D01*
X002959Y016604D01*
X002913Y016625D01*
X002870Y016649D01*
X002828Y016677D01*
X002788Y016708D01*
X002751Y016742D01*
X002717Y016779D01*
X002686Y016819D01*
X002658Y016861D01*
X002634Y016904D01*
X002613Y016950D01*
X002595Y016997D01*
X002582Y017046D01*
X002572Y017095D01*
X002566Y017145D01*
X002564Y017195D01*
X002564Y021195D02*
X002566Y021245D01*
X002572Y021295D01*
X002582Y021344D01*
X002595Y021393D01*
X002613Y021440D01*
X002634Y021486D01*
X002658Y021529D01*
X002686Y021571D01*
X002717Y021611D01*
X002751Y021648D01*
X002788Y021682D01*
X002828Y021713D01*
X002870Y021741D01*
X002913Y021765D01*
X002959Y021786D01*
X003006Y021804D01*
X003055Y021817D01*
X003104Y021827D01*
X003154Y021833D01*
X003204Y021835D01*
X003254Y021833D01*
X003304Y021827D01*
X003353Y021817D01*
X003402Y021804D01*
X003449Y021786D01*
X003495Y021765D01*
X003538Y021741D01*
X003580Y021713D01*
X003620Y021682D01*
X003657Y021648D01*
X003691Y021611D01*
X003722Y021571D01*
X003750Y021529D01*
X003774Y021486D01*
X003795Y021440D01*
X003813Y021393D01*
X003826Y021344D01*
X003836Y021295D01*
X003842Y021245D01*
X003844Y021195D01*
X003842Y021145D01*
X003836Y021095D01*
X003826Y021046D01*
X003813Y020997D01*
X003795Y020950D01*
X003774Y020904D01*
X003750Y020861D01*
X003722Y020819D01*
X003691Y020779D01*
X003657Y020742D01*
X003620Y020708D01*
X003580Y020677D01*
X003538Y020649D01*
X003495Y020625D01*
X003449Y020604D01*
X003402Y020586D01*
X003353Y020573D01*
X003304Y020563D01*
X003254Y020557D01*
X003204Y020555D01*
X003154Y020557D01*
X003104Y020563D01*
X003055Y020573D01*
X003006Y020586D01*
X002959Y020604D01*
X002913Y020625D01*
X002870Y020649D01*
X002828Y020677D01*
X002788Y020708D01*
X002751Y020742D01*
X002717Y020779D01*
X002686Y020819D01*
X002658Y020861D01*
X002634Y020904D01*
X002613Y020950D01*
X002595Y020997D01*
X002582Y021046D01*
X002572Y021095D01*
X002566Y021145D01*
X002564Y021195D01*
D11*
X008204Y012935D02*
X008204Y012455D01*
X009204Y012455D02*
X009204Y012935D01*
X010204Y012935D02*
X010204Y012455D01*
X011204Y012455D02*
X011204Y012935D01*
X011204Y009935D02*
X011204Y009455D01*
X010204Y009455D02*
X010204Y009935D01*
X009204Y009935D02*
X009204Y009455D01*
X008204Y009455D02*
X008204Y009935D01*
X017204Y009935D02*
X017204Y009455D01*
X018204Y009455D02*
X018204Y009935D01*
X019204Y009935D02*
X019204Y009455D01*
X020204Y009455D02*
X020204Y009935D01*
X020204Y012455D02*
X020204Y012935D01*
X019204Y012935D02*
X019204Y012455D01*
X018204Y012455D02*
X018204Y012935D01*
X017204Y012935D02*
X017204Y012455D01*
X026704Y012455D02*
X026704Y012935D01*
X027704Y012935D02*
X027704Y012455D01*
X028704Y012455D02*
X028704Y012935D01*
X029704Y012935D02*
X029704Y012455D01*
X029704Y009935D02*
X029704Y009455D01*
X028704Y009455D02*
X028704Y009935D01*
X027704Y009935D02*
X027704Y009455D01*
X026704Y009455D02*
X026704Y009935D01*
X035704Y009935D02*
X035704Y009455D01*
X036704Y009455D02*
X036704Y009935D01*
X037704Y009935D02*
X037704Y009455D01*
X038704Y009455D02*
X038704Y009935D01*
X038704Y012455D02*
X038704Y012935D01*
X037704Y012935D02*
X037704Y012455D01*
X036704Y012455D02*
X036704Y012935D01*
X035704Y012935D02*
X035704Y012455D01*
D12*
X033204Y007246D03*
X033204Y006144D03*
X031204Y006144D03*
X031204Y007246D03*
X024204Y007246D03*
X024204Y006144D03*
X022204Y006144D03*
X022204Y007246D03*
X014704Y007246D03*
X014704Y006144D03*
X012704Y006144D03*
X012704Y007246D03*
X005704Y007246D03*
X005704Y006144D03*
X003704Y006144D03*
X003704Y007246D03*
X034704Y021144D03*
X034704Y022246D03*
X036204Y019246D03*
X036204Y018144D03*
D13*
X036653Y011195D03*
X037755Y011195D03*
X028755Y011195D03*
X027653Y011195D03*
X019255Y011195D03*
X018153Y011195D03*
X010255Y011195D03*
X009153Y011195D03*
X008653Y021195D03*
X009755Y021195D03*
X009755Y022195D03*
X008653Y022195D03*
D14*
X031704Y020746D03*
X031704Y019644D03*
X036204Y021144D03*
X036204Y022246D03*
D15*
X032637Y011569D03*
X031771Y011195D03*
X032637Y010821D03*
X023637Y010821D03*
X022771Y011195D03*
X023637Y011569D03*
X014137Y011569D03*
X014137Y010821D03*
X013271Y011195D03*
X005137Y010821D03*
X004271Y011195D03*
X005137Y011569D03*
D16*
X005704Y017945D03*
X006704Y018445D03*
X005704Y018945D03*
X006704Y019445D03*
X005704Y019945D03*
X006704Y020445D03*
D17*
X008954Y007695D03*
X009954Y007695D03*
X009454Y006695D03*
X008454Y006695D03*
X017454Y006695D03*
X018454Y006695D03*
X018954Y007695D03*
X017954Y007695D03*
X026954Y006695D03*
X027954Y006695D03*
X028454Y007695D03*
X027454Y007695D03*
X035954Y006695D03*
X036954Y006695D03*
X037454Y007695D03*
X036454Y007695D03*
D18*
X033204Y018695D03*
X033204Y019695D03*
X033204Y020695D03*
X033204Y021695D03*
X030204Y021695D03*
X030204Y020695D03*
X030204Y019695D03*
X030204Y018695D03*
D19*
X012204Y017215D02*
X012204Y016675D01*
X011204Y016675D02*
X011204Y017215D01*
X010204Y017215D02*
X010204Y016675D01*
X008474Y016195D02*
X007934Y016195D01*
X007934Y017195D02*
X008474Y017195D01*
X008474Y018195D02*
X007934Y018195D01*
D20*
X006704Y018445D02*
X006454Y018445D01*
X006204Y018695D01*
X006204Y020695D01*
X006704Y021195D01*
X007204Y021195D01*
X007704Y020695D01*
X008204Y020695D01*
X008653Y021144D01*
X008653Y022195D01*
X008653Y021195D01*
X007704Y020695D02*
X008704Y019445D01*
X009704Y019445D01*
X007204Y019695D02*
X007204Y014695D01*
X009204Y012695D01*
X009153Y012644D01*
X009153Y012246D01*
X009454Y011945D01*
X012521Y011945D01*
X013271Y011195D01*
X013204Y011128D01*
X013204Y009695D01*
X013704Y009195D01*
X014204Y009195D01*
X014704Y010254D02*
X014704Y007246D01*
X012704Y007246D01*
X013704Y006695D02*
X014255Y006144D01*
X014704Y006144D01*
X014755Y006195D01*
X019204Y006195D01*
X019704Y006695D01*
X019704Y008695D01*
X019204Y009195D01*
X019204Y009695D01*
X017704Y011195D02*
X017204Y010695D01*
X017704Y011195D02*
X018153Y011195D01*
X018153Y012195D01*
X018454Y012195D01*
X018704Y011945D01*
X022021Y011945D01*
X022771Y011195D01*
X022704Y011128D01*
X022704Y009695D01*
X023204Y009195D01*
X023704Y009195D01*
X024204Y010254D02*
X024204Y007246D01*
X022204Y007246D01*
X023204Y006695D02*
X023755Y006144D01*
X024204Y006144D01*
X024255Y006195D01*
X028704Y006195D01*
X029204Y006695D01*
X029204Y008695D01*
X028704Y009195D01*
X028704Y009695D01*
X027204Y011195D02*
X026704Y010695D01*
X027204Y011195D02*
X027653Y011195D01*
X027653Y012195D01*
X027704Y012195D01*
X027954Y011945D01*
X031021Y011945D01*
X031771Y011195D01*
X031704Y011128D01*
X031704Y009695D01*
X032204Y009195D01*
X032704Y009195D01*
X033204Y010254D02*
X032637Y010821D01*
X031771Y011195D02*
X031704Y011195D01*
X032637Y011569D02*
X030204Y014002D01*
X030204Y017695D01*
X030204Y018695D02*
X030704Y018695D01*
X031704Y019695D01*
X031704Y019644D01*
X031204Y018695D02*
X030704Y018695D01*
X031204Y018695D02*
X032204Y017695D01*
X035704Y017695D01*
X036204Y018195D01*
X036204Y018144D02*
X036153Y018144D01*
X034704Y016695D01*
X031704Y016695D01*
X031204Y016195D01*
X031204Y015195D01*
X032704Y014695D02*
X032704Y011636D01*
X032637Y011569D01*
X033204Y010254D02*
X033204Y007246D01*
X031204Y007246D01*
X032204Y006695D02*
X032755Y006144D01*
X033204Y006144D01*
X033255Y006195D01*
X037704Y006195D01*
X038204Y006695D01*
X038204Y008695D01*
X037704Y009195D01*
X037704Y009695D01*
X036204Y011195D02*
X035704Y010695D01*
X036204Y011195D02*
X036653Y011195D01*
X036704Y011195D02*
X036704Y012695D01*
X035704Y014195D02*
X035204Y014195D01*
X027704Y012695D02*
X027653Y012644D01*
X027653Y012195D01*
X026704Y014195D02*
X026204Y014195D01*
X023704Y014695D02*
X023704Y016195D01*
X025204Y017695D01*
X022204Y019195D02*
X020954Y017945D01*
X019204Y017945D01*
X014704Y016695D02*
X014204Y016195D01*
X014204Y014695D01*
X014204Y011636D01*
X014137Y011569D01*
X014137Y010821D02*
X014704Y010254D01*
X018153Y012195D02*
X018153Y012644D01*
X018204Y012695D01*
X017204Y014195D02*
X016704Y014195D01*
X023704Y014695D02*
X023704Y011636D01*
X023637Y011569D01*
X023637Y010821D02*
X024204Y010254D01*
X026704Y007195D02*
X026954Y006695D01*
X024704Y005445D02*
X023153Y005445D01*
X022204Y006144D01*
X018704Y006695D02*
X018454Y006695D01*
X017454Y006695D02*
X017204Y007195D01*
X015204Y005445D02*
X013653Y005445D01*
X012704Y006144D01*
X010704Y006695D02*
X010704Y008695D01*
X010204Y009195D01*
X010204Y009695D01*
X008704Y011195D02*
X008204Y010695D01*
X008704Y011195D02*
X009153Y011195D01*
X009204Y011195D01*
X009153Y011195D02*
X009153Y012246D01*
X006704Y013195D02*
X006204Y012695D01*
X005204Y011636D02*
X005137Y011569D01*
X005204Y011636D02*
X005204Y014695D01*
X004271Y011195D02*
X004204Y011128D01*
X004204Y009695D01*
X004704Y009195D01*
X005204Y009195D01*
X005704Y010254D02*
X005704Y007246D01*
X005653Y007195D01*
X003704Y007195D01*
X004704Y006695D02*
X005255Y006144D01*
X005704Y006144D01*
X005755Y006195D01*
X010204Y006195D01*
X010704Y006695D01*
X008454Y006695D02*
X007704Y007195D01*
X006204Y005445D02*
X004403Y005445D01*
X003704Y006144D01*
X005704Y010254D02*
X005137Y010821D01*
X007204Y019695D02*
X006704Y020195D01*
X006704Y020445D01*
X005704Y019945D02*
X005653Y019996D01*
X010704Y022195D02*
X011204Y022195D01*
X012204Y021945D02*
X013454Y021945D01*
X014704Y020695D01*
X024704Y020695D01*
X026704Y020195D02*
X013704Y020195D01*
X013204Y020695D01*
X029704Y022695D02*
X030204Y022695D01*
X033204Y020695D02*
X034255Y020695D01*
X034704Y021144D01*
X036204Y021144D01*
X036204Y019246D01*
X036204Y019195D01*
X035704Y007195D02*
X035954Y006695D01*
X033704Y005445D02*
X032153Y005445D01*
X031204Y006144D01*
D21*
X034704Y022246D02*
X036204Y022246D01*
D22*
X036281Y022215D02*
X039674Y022215D01*
X039674Y022057D02*
X036738Y022057D01*
X036738Y022169D02*
X036281Y022169D01*
X036281Y022324D01*
X036126Y022324D01*
X036126Y022169D01*
X035669Y022169D01*
X035669Y021908D01*
X035670Y021904D01*
X035578Y021866D01*
X035473Y021762D01*
X035369Y021866D01*
X035277Y021904D01*
X035277Y021908D01*
X035277Y022169D01*
X034781Y022169D01*
X034781Y022324D01*
X034626Y022324D01*
X034626Y022169D01*
X034130Y022169D01*
X034130Y021908D01*
X034131Y021904D01*
X034038Y021866D01*
X033903Y021731D01*
X033830Y021554D01*
X033830Y021295D01*
X033636Y021295D01*
X033617Y021314D01*
X033485Y021369D01*
X033532Y021415D01*
X033572Y021470D01*
X033602Y021530D01*
X033623Y021594D01*
X033634Y021661D01*
X033634Y021695D01*
X033204Y021695D01*
X033204Y021695D01*
X033634Y021695D01*
X033634Y021729D01*
X033623Y021796D01*
X033602Y021860D01*
X033572Y021920D01*
X033532Y021975D01*
X033484Y022023D01*
X033429Y022063D01*
X033369Y022094D01*
X033304Y022115D01*
X033238Y022125D01*
X033204Y022125D01*
X033204Y021695D01*
X033204Y021695D01*
X032774Y021695D01*
X032774Y021661D01*
X032784Y021594D01*
X032805Y021530D01*
X032836Y021470D01*
X032876Y021415D01*
X032922Y021369D01*
X032790Y021314D01*
X032585Y021109D01*
X032474Y020840D01*
X032474Y020550D01*
X032585Y020282D01*
X032671Y020195D01*
X032585Y020109D01*
X032538Y019996D01*
X032538Y019996D01*
X032538Y020054D01*
X032465Y020231D01*
X032330Y020366D01*
X032237Y020404D01*
X032238Y020408D01*
X032238Y020669D01*
X031781Y020669D01*
X031781Y020824D01*
X031626Y020824D01*
X031626Y020669D01*
X031169Y020669D01*
X031169Y020408D01*
X031170Y020404D01*
X031078Y020366D01*
X030943Y020231D01*
X030869Y020054D01*
X030869Y019996D01*
X030869Y019996D01*
X030823Y020109D01*
X030736Y020195D01*
X030823Y020282D01*
X030934Y020550D01*
X030934Y020840D01*
X030823Y021109D01*
X030736Y021195D01*
X030823Y021282D01*
X030934Y021550D01*
X030934Y021840D01*
X030823Y022109D01*
X030617Y022314D01*
X030349Y022425D01*
X030059Y022425D01*
X029790Y022314D01*
X029585Y022109D01*
X029474Y021840D01*
X029474Y021550D01*
X029585Y021282D01*
X029671Y021195D01*
X029585Y021109D01*
X029474Y020840D01*
X029474Y020550D01*
X029585Y020282D01*
X029671Y020195D01*
X029585Y020109D01*
X029474Y019840D01*
X029474Y019550D01*
X029585Y019282D01*
X029671Y019195D01*
X029585Y019109D01*
X029474Y018840D01*
X029474Y018550D01*
X029585Y018282D01*
X029722Y018144D01*
X029646Y018068D01*
X029546Y017826D01*
X029546Y017564D01*
X029604Y017424D01*
X029604Y013883D01*
X029695Y013662D01*
X029702Y013655D01*
X029561Y013655D01*
X029296Y013546D01*
X029204Y013453D01*
X029112Y013546D01*
X028847Y013655D01*
X028561Y013655D01*
X028296Y013546D01*
X028204Y013453D01*
X028112Y013546D01*
X027847Y013655D01*
X027561Y013655D01*
X027296Y013546D01*
X027204Y013453D01*
X027112Y013546D01*
X026847Y013655D01*
X026561Y013655D01*
X026296Y013546D01*
X026093Y013343D01*
X025984Y013078D01*
X025984Y012312D01*
X026093Y012047D01*
X026296Y011845D01*
X026561Y011735D01*
X026847Y011735D01*
X026905Y011759D01*
X026886Y011713D01*
X026864Y011704D01*
X026695Y011535D01*
X026471Y011311D01*
X026331Y011253D01*
X026146Y011068D01*
X026046Y010826D01*
X026046Y010564D01*
X026124Y010374D01*
X026093Y010343D01*
X025984Y010078D01*
X025984Y009312D01*
X026093Y009047D01*
X026296Y008845D01*
X026561Y008735D01*
X026847Y008735D01*
X027112Y008845D01*
X027204Y008937D01*
X027296Y008845D01*
X027561Y008735D01*
X027847Y008735D01*
X028112Y008845D01*
X028174Y008907D01*
X028195Y008855D01*
X028364Y008686D01*
X028604Y008447D01*
X028604Y008130D01*
X028561Y008144D01*
X028490Y008155D01*
X028462Y008155D01*
X028462Y007704D01*
X028445Y007704D01*
X028445Y008155D01*
X028418Y008155D01*
X028346Y008144D01*
X028277Y008121D01*
X028213Y008089D01*
X028154Y008046D01*
X028138Y008030D01*
X028098Y008126D01*
X027884Y008339D01*
X027605Y008455D01*
X027303Y008455D01*
X027023Y008339D01*
X026809Y008126D01*
X026694Y007846D01*
X026694Y007544D01*
X026809Y007265D01*
X026919Y007155D01*
X026918Y007155D01*
X026846Y007144D01*
X026777Y007121D01*
X026713Y007089D01*
X026654Y007046D01*
X026603Y006995D01*
X026560Y006936D01*
X026527Y006872D01*
X026505Y006803D01*
X026504Y006795D01*
X025061Y006795D01*
X025077Y006836D01*
X025077Y007657D01*
X025004Y007833D01*
X024869Y007968D01*
X024804Y007995D01*
X024804Y010374D01*
X024712Y010594D01*
X024544Y010763D01*
X024392Y010914D01*
X024392Y011113D01*
X024359Y011195D01*
X024392Y011277D01*
X024392Y011861D01*
X024319Y012038D01*
X024304Y012053D01*
X024304Y014424D01*
X024362Y014564D01*
X024362Y014826D01*
X024304Y014966D01*
X024304Y015947D01*
X025436Y017079D01*
X025577Y017137D01*
X025762Y017322D01*
X025862Y017564D01*
X025862Y017826D01*
X025762Y018068D01*
X025577Y018253D01*
X029614Y018253D01*
X029672Y018094D02*
X025735Y018094D01*
X025816Y017936D02*
X029591Y017936D01*
X029546Y017777D02*
X025862Y017777D01*
X025862Y017619D02*
X029546Y017619D01*
X029589Y017460D02*
X025819Y017460D01*
X025741Y017302D02*
X029604Y017302D01*
X029604Y017143D02*
X025583Y017143D01*
X025342Y016985D02*
X029604Y016985D01*
X029604Y016826D02*
X025183Y016826D01*
X025025Y016668D02*
X029604Y016668D01*
X029604Y016509D02*
X024866Y016509D01*
X024708Y016351D02*
X029604Y016351D01*
X029604Y016192D02*
X024549Y016192D01*
X024391Y016034D02*
X029604Y016034D01*
X029604Y015875D02*
X024304Y015875D01*
X024304Y015717D02*
X029604Y015717D01*
X029604Y015558D02*
X024304Y015558D01*
X024304Y015400D02*
X029604Y015400D01*
X029604Y015241D02*
X024304Y015241D01*
X024304Y015083D02*
X029604Y015083D01*
X029604Y014924D02*
X024321Y014924D01*
X024362Y014766D02*
X029604Y014766D01*
X029604Y014607D02*
X024362Y014607D01*
X024314Y014449D02*
X029604Y014449D01*
X029604Y014290D02*
X024304Y014290D01*
X024304Y014132D02*
X029604Y014132D01*
X029604Y013973D02*
X024304Y013973D01*
X024304Y013815D02*
X029632Y013815D01*
X029701Y013656D02*
X024304Y013656D01*
X024304Y013498D02*
X026248Y013498D01*
X026092Y013339D02*
X024304Y013339D01*
X024304Y013181D02*
X026026Y013181D01*
X025984Y013022D02*
X024304Y013022D01*
X024304Y012864D02*
X025984Y012864D01*
X025984Y012705D02*
X024304Y012705D01*
X024304Y012547D02*
X025984Y012547D01*
X025984Y012388D02*
X024304Y012388D01*
X024304Y012230D02*
X026018Y012230D01*
X026084Y012071D02*
X024304Y012071D01*
X024371Y011913D02*
X026228Y011913D01*
X026515Y011754D02*
X024392Y011754D01*
X024392Y011596D02*
X026756Y011596D01*
X026893Y011754D02*
X026903Y011754D01*
X026597Y011437D02*
X024392Y011437D01*
X024392Y011279D02*
X026393Y011279D01*
X026198Y011120D02*
X024390Y011120D01*
X024392Y010962D02*
X026102Y010962D01*
X026046Y010803D02*
X024503Y010803D01*
X024662Y010645D02*
X026046Y010645D01*
X026078Y010486D02*
X024757Y010486D01*
X024804Y010328D02*
X026087Y010328D01*
X026021Y010169D02*
X024804Y010169D01*
X024804Y010011D02*
X025984Y010011D01*
X025984Y009852D02*
X024804Y009852D01*
X024804Y009694D02*
X025984Y009694D01*
X025984Y009535D02*
X024804Y009535D01*
X024804Y009377D02*
X025984Y009377D01*
X026023Y009218D02*
X024804Y009218D01*
X024804Y009060D02*
X026088Y009060D01*
X026240Y008901D02*
X024804Y008901D01*
X024804Y008743D02*
X026542Y008743D01*
X026865Y008743D02*
X027542Y008743D01*
X027865Y008743D02*
X028308Y008743D01*
X028176Y008901D02*
X028168Y008901D01*
X028466Y008584D02*
X024804Y008584D01*
X024804Y008426D02*
X027231Y008426D01*
X026951Y008267D02*
X024804Y008267D01*
X024804Y008109D02*
X026802Y008109D01*
X026737Y007950D02*
X024887Y007950D01*
X025022Y007792D02*
X026694Y007792D01*
X026694Y007633D02*
X025077Y007633D01*
X025077Y007475D02*
X026722Y007475D01*
X026788Y007316D02*
X025077Y007316D01*
X025077Y007158D02*
X026916Y007158D01*
X026607Y006999D02*
X025077Y006999D01*
X025077Y006841D02*
X026517Y006841D01*
X025354Y005595D02*
X028823Y005595D01*
X029044Y005686D01*
X029544Y006186D01*
X029712Y006355D01*
X029804Y006576D01*
X029804Y008814D01*
X029712Y009035D01*
X029737Y009035D01*
X029802Y009045D01*
X029865Y009066D01*
X029924Y009096D01*
X029977Y009135D01*
X030024Y009182D01*
X030063Y009235D01*
X030093Y009294D01*
X030113Y009357D01*
X030124Y009422D01*
X030124Y009695D01*
X029704Y009695D01*
X029704Y009695D01*
X030124Y009695D01*
X030124Y009968D01*
X030113Y010033D01*
X030093Y010096D01*
X030063Y010155D01*
X030024Y010209D01*
X029977Y010255D01*
X029924Y010294D01*
X029865Y010324D01*
X029802Y010345D01*
X029737Y010355D01*
X029704Y010355D01*
X029704Y009695D01*
X029704Y009695D01*
X029704Y010355D01*
X029671Y010355D01*
X029605Y010345D01*
X029543Y010324D01*
X029484Y010294D01*
X029430Y010255D01*
X029383Y010209D01*
X029375Y010197D01*
X029314Y010343D01*
X029112Y010546D01*
X028847Y010655D01*
X028561Y010655D01*
X028379Y010580D01*
X028413Y010662D01*
X028416Y010661D01*
X028677Y010661D01*
X028677Y011118D01*
X028832Y011118D01*
X028832Y010661D01*
X029094Y010661D01*
X029139Y010673D01*
X029180Y010697D01*
X029214Y010730D01*
X029238Y010771D01*
X029250Y010817D01*
X029250Y011118D01*
X028832Y011118D01*
X028832Y011273D01*
X029250Y011273D01*
X029250Y011345D01*
X030772Y011345D01*
X031015Y011102D01*
X031015Y010903D01*
X031088Y010726D01*
X031104Y010711D01*
X031104Y009576D01*
X031195Y009355D01*
X031695Y008855D01*
X031864Y008686D01*
X032084Y008595D01*
X032433Y008595D01*
X032573Y008537D01*
X032604Y008537D01*
X032604Y007995D01*
X032538Y007968D01*
X032416Y007846D01*
X031991Y007846D01*
X031869Y007968D01*
X031693Y008041D01*
X030715Y008041D01*
X030538Y007968D01*
X030403Y007833D01*
X030330Y007657D01*
X030330Y006836D01*
X030388Y006695D01*
X030330Y006554D01*
X030330Y005733D01*
X030403Y005557D01*
X030538Y005422D01*
X030715Y005349D01*
X031271Y005349D01*
X031760Y004989D01*
X031813Y004936D01*
X031856Y004919D01*
X031893Y004891D01*
X031965Y004873D01*
X032033Y004845D01*
X032080Y004845D01*
X032125Y004834D01*
X032198Y004845D01*
X033433Y004845D01*
X033573Y004787D01*
X033835Y004787D01*
X034077Y004887D01*
X034262Y005072D01*
X034362Y005314D01*
X034362Y005576D01*
X034354Y005595D01*
X037823Y005595D01*
X038044Y005686D01*
X038544Y006186D01*
X038712Y006355D01*
X038804Y006576D01*
X038804Y008814D01*
X038712Y009035D01*
X038737Y009035D01*
X038802Y009045D01*
X038865Y009066D01*
X038924Y009096D01*
X038977Y009135D01*
X039024Y009182D01*
X039063Y009235D01*
X039093Y009294D01*
X039113Y009357D01*
X039124Y009422D01*
X039124Y009695D01*
X038704Y009695D01*
X038704Y009695D01*
X039124Y009695D01*
X039124Y009968D01*
X039113Y010033D01*
X039093Y010096D01*
X039063Y010155D01*
X039024Y010209D01*
X038977Y010255D01*
X038924Y010294D01*
X038865Y010324D01*
X038802Y010345D01*
X038737Y010355D01*
X038704Y010355D01*
X038704Y009695D01*
X038704Y009695D01*
X038704Y010355D01*
X038671Y010355D01*
X038605Y010345D01*
X038543Y010324D01*
X038484Y010294D01*
X038430Y010255D01*
X038383Y010209D01*
X038375Y010197D01*
X038314Y010343D01*
X038112Y010546D01*
X037847Y010655D01*
X037561Y010655D01*
X037379Y010580D01*
X037413Y010662D01*
X037416Y010661D01*
X037677Y010661D01*
X037677Y011118D01*
X037832Y011118D01*
X037832Y010661D01*
X038094Y010661D01*
X038139Y010673D01*
X038180Y010697D01*
X038214Y010730D01*
X038238Y010771D01*
X038250Y010817D01*
X038250Y011118D01*
X037832Y011118D01*
X037832Y011273D01*
X037677Y011273D01*
X037677Y011729D01*
X037416Y011729D01*
X037413Y011729D01*
X037379Y011810D01*
X037561Y011735D01*
X037847Y011735D01*
X038112Y011845D01*
X038204Y011937D01*
X038296Y011845D01*
X038561Y011735D01*
X038847Y011735D01*
X039112Y011845D01*
X039314Y012047D01*
X039424Y012312D01*
X039424Y013078D01*
X039314Y013343D01*
X039112Y013546D01*
X038847Y013655D01*
X038561Y013655D01*
X038296Y013546D01*
X038204Y013453D01*
X038112Y013546D01*
X037847Y013655D01*
X037561Y013655D01*
X037296Y013546D01*
X037204Y013453D01*
X037112Y013546D01*
X036847Y013655D01*
X036561Y013655D01*
X036296Y013546D01*
X036204Y013453D01*
X036112Y013546D01*
X035847Y013655D01*
X035561Y013655D01*
X035296Y013546D01*
X035093Y013343D01*
X034984Y013078D01*
X034984Y012312D01*
X035093Y012047D01*
X035296Y011845D01*
X035561Y011735D01*
X035847Y011735D01*
X035905Y011759D01*
X035886Y011713D01*
X035864Y011704D01*
X035695Y011535D01*
X035471Y011311D01*
X035331Y011253D01*
X035146Y011068D01*
X035046Y010826D01*
X035046Y010564D01*
X035124Y010374D01*
X035093Y010343D01*
X034984Y010078D01*
X034984Y009312D01*
X035093Y009047D01*
X035296Y008845D01*
X035561Y008735D01*
X035847Y008735D01*
X036112Y008845D01*
X036204Y008937D01*
X036296Y008845D01*
X036561Y008735D01*
X036847Y008735D01*
X037112Y008845D01*
X037174Y008907D01*
X037195Y008855D01*
X037364Y008686D01*
X037604Y008447D01*
X037604Y008130D01*
X037561Y008144D01*
X037490Y008155D01*
X037462Y008155D01*
X037462Y007704D01*
X037445Y007704D01*
X037445Y008155D01*
X037418Y008155D01*
X037346Y008144D01*
X037277Y008121D01*
X037213Y008089D01*
X037154Y008046D01*
X037138Y008030D01*
X037098Y008126D01*
X036884Y008339D01*
X036605Y008455D01*
X036303Y008455D01*
X036023Y008339D01*
X035809Y008126D01*
X035694Y007846D01*
X035694Y007544D01*
X035809Y007265D01*
X035919Y007155D01*
X035918Y007155D01*
X035846Y007144D01*
X035777Y007121D01*
X035713Y007089D01*
X035654Y007046D01*
X035603Y006995D01*
X035560Y006936D01*
X035527Y006872D01*
X035505Y006803D01*
X035504Y006795D01*
X034061Y006795D01*
X034077Y006836D01*
X034077Y007657D01*
X034004Y007833D01*
X033869Y007968D01*
X033804Y007995D01*
X033804Y010374D01*
X033712Y010594D01*
X033392Y010914D01*
X033392Y011113D01*
X033359Y011195D01*
X033392Y011277D01*
X033392Y011861D01*
X033319Y012038D01*
X033304Y012053D01*
X033304Y014424D01*
X033362Y014564D01*
X033362Y014826D01*
X033262Y015068D01*
X033077Y015253D01*
X032835Y015353D01*
X032573Y015353D01*
X032331Y015253D01*
X032146Y015068D01*
X032046Y014826D01*
X032046Y014564D01*
X032104Y014424D01*
X032104Y012951D01*
X030804Y014251D01*
X030804Y014589D01*
X030930Y014537D01*
X031477Y014537D01*
X031654Y014610D01*
X031789Y014745D01*
X031862Y014922D01*
X031862Y015469D01*
X031804Y015609D01*
X031804Y015947D01*
X031952Y016095D01*
X034823Y016095D01*
X035044Y016186D01*
X035212Y016355D01*
X036206Y017349D01*
X036693Y017349D01*
X036869Y017422D01*
X037004Y017557D01*
X037077Y017733D01*
X037077Y018554D01*
X037019Y018695D01*
X037077Y018836D01*
X037077Y019657D01*
X037004Y019833D01*
X036869Y019968D01*
X036804Y019995D01*
X036804Y020411D01*
X036830Y020422D01*
X036965Y020557D01*
X037038Y020733D01*
X037038Y021554D01*
X036965Y021731D01*
X036830Y021866D01*
X036737Y021904D01*
X036738Y021908D01*
X036738Y022169D01*
X036738Y022324D02*
X036281Y022324D01*
X036281Y022741D01*
X036582Y022741D01*
X036628Y022729D01*
X036669Y022705D01*
X036702Y022672D01*
X036726Y022631D01*
X036738Y022585D01*
X036738Y022324D01*
X036738Y022374D02*
X039674Y022374D01*
X039674Y022532D02*
X036738Y022532D01*
X036683Y022691D02*
X039674Y022691D01*
X039674Y022849D02*
X009347Y022849D01*
X009374Y022821D02*
X009239Y022956D01*
X009063Y023029D01*
X008242Y023029D01*
X008066Y022956D01*
X007931Y022821D01*
X007858Y022645D01*
X007858Y021745D01*
X007878Y021695D01*
X007858Y021645D01*
X007858Y021390D01*
X007712Y021535D01*
X007544Y021704D01*
X007323Y021795D01*
X006584Y021795D01*
X006364Y021704D01*
X005864Y021204D01*
X005695Y021035D01*
X005604Y020814D01*
X005604Y020701D01*
X005553Y020701D01*
X005276Y020586D01*
X005063Y020373D01*
X004948Y020095D01*
X004948Y019795D01*
X005063Y019517D01*
X005276Y019305D01*
X005377Y019263D01*
X005356Y019242D01*
X005314Y019184D01*
X005282Y019120D01*
X005259Y019052D01*
X005248Y018981D01*
X005248Y018954D01*
X005604Y018954D01*
X005604Y018937D01*
X005248Y018937D01*
X005248Y018909D01*
X005259Y018838D01*
X005282Y018770D01*
X005314Y018706D01*
X005356Y018648D01*
X005407Y018598D01*
X005465Y018555D01*
X005529Y018523D01*
X005597Y018501D01*
X005638Y018494D01*
X005676Y018401D01*
X005668Y018401D01*
X005597Y018389D01*
X005529Y018367D01*
X005465Y018335D01*
X005407Y018293D01*
X005356Y018242D01*
X005314Y018184D01*
X005282Y018120D01*
X005259Y018052D01*
X005248Y017981D01*
X005248Y017954D01*
X005695Y017954D01*
X005695Y017937D01*
X005248Y017937D01*
X005248Y017909D01*
X005259Y017838D01*
X005282Y017770D01*
X005314Y017706D01*
X005356Y017648D01*
X005407Y017598D01*
X005465Y017555D01*
X005529Y017523D01*
X005597Y017501D01*
X005668Y017490D01*
X005695Y017490D01*
X005695Y017937D01*
X005712Y017937D01*
X005712Y017490D01*
X005740Y017490D01*
X005810Y017501D01*
X005879Y017523D01*
X005943Y017555D01*
X006001Y017598D01*
X006051Y017648D01*
X006093Y017706D01*
X006126Y017770D01*
X006148Y017838D01*
X006159Y017909D01*
X006159Y017918D01*
X006165Y017915D01*
X006276Y017805D01*
X006553Y017690D01*
X006604Y017690D01*
X006604Y014576D01*
X006695Y014355D01*
X007650Y013400D01*
X007593Y013343D01*
X007484Y013078D01*
X007484Y012312D01*
X007593Y012047D01*
X007796Y011845D01*
X008061Y011735D01*
X008347Y011735D01*
X008405Y011759D01*
X008386Y011713D01*
X008364Y011704D01*
X008195Y011535D01*
X007971Y011311D01*
X007831Y011253D01*
X007646Y011068D01*
X007546Y010826D01*
X007546Y010564D01*
X007624Y010374D01*
X007593Y010343D01*
X007484Y010078D01*
X007484Y009312D01*
X007593Y009047D01*
X007796Y008845D01*
X008061Y008735D01*
X008347Y008735D01*
X008612Y008845D01*
X008704Y008937D01*
X008796Y008845D01*
X009061Y008735D01*
X009347Y008735D01*
X009612Y008845D01*
X009674Y008907D01*
X009695Y008855D01*
X010104Y008447D01*
X010104Y008130D01*
X010061Y008144D01*
X009990Y008155D01*
X009962Y008155D01*
X009962Y007704D01*
X009945Y007704D01*
X009945Y008155D01*
X009918Y008155D01*
X009846Y008144D01*
X009777Y008121D01*
X009713Y008089D01*
X009654Y008046D01*
X009638Y008030D01*
X009598Y008126D01*
X009384Y008339D01*
X009105Y008455D01*
X008803Y008455D01*
X008523Y008339D01*
X008309Y008126D01*
X008194Y007846D01*
X008194Y007544D01*
X008309Y007265D01*
X008419Y007155D01*
X008418Y007155D01*
X008346Y007144D01*
X008277Y007121D01*
X008213Y007089D01*
X008154Y007046D01*
X008103Y006995D01*
X008060Y006936D01*
X008027Y006872D01*
X008005Y006803D01*
X008004Y006795D01*
X006561Y006795D01*
X006577Y006836D01*
X006577Y007657D01*
X006504Y007833D01*
X006369Y007968D01*
X006304Y007995D01*
X006304Y010374D01*
X006212Y010594D01*
X006044Y010763D01*
X005892Y010914D01*
X005892Y011113D01*
X005859Y011195D01*
X005892Y011277D01*
X005892Y011861D01*
X005819Y012038D01*
X005804Y012053D01*
X005804Y014424D01*
X005862Y014564D01*
X005862Y014826D01*
X005762Y015068D01*
X005577Y015253D01*
X005335Y015353D01*
X005073Y015353D01*
X004831Y015253D01*
X004646Y015068D01*
X004546Y014826D01*
X004546Y014564D01*
X004604Y014424D01*
X004604Y012179D01*
X004589Y012173D01*
X004454Y012038D01*
X004386Y011872D01*
X003900Y011872D01*
X003723Y011799D01*
X003588Y011664D01*
X003515Y011487D01*
X003515Y010903D01*
X003588Y010726D01*
X003604Y010711D01*
X003604Y009576D01*
X003695Y009355D01*
X004195Y008855D01*
X004364Y008686D01*
X004584Y008595D01*
X004933Y008595D01*
X005073Y008537D01*
X005104Y008537D01*
X005104Y007995D01*
X005038Y007968D01*
X004903Y007833D01*
X004887Y007795D01*
X004520Y007795D01*
X004504Y007833D01*
X004369Y007968D01*
X004193Y008041D01*
X003215Y008041D01*
X003038Y007968D01*
X002903Y007833D01*
X002830Y007657D01*
X002830Y006836D01*
X002888Y006695D01*
X002830Y006554D01*
X002830Y005733D01*
X002903Y005557D01*
X003038Y005422D01*
X003215Y005349D01*
X003650Y005349D01*
X003894Y005105D01*
X004063Y004936D01*
X004283Y004845D01*
X005933Y004845D01*
X006073Y004787D01*
X006335Y004787D01*
X006577Y004887D01*
X006762Y005072D01*
X006862Y005314D01*
X006862Y005576D01*
X006854Y005595D01*
X010323Y005595D01*
X010544Y005686D01*
X011044Y006186D01*
X011212Y006355D01*
X011304Y006576D01*
X011304Y008814D01*
X011212Y009035D01*
X011237Y009035D01*
X011302Y009045D01*
X011365Y009066D01*
X011424Y009096D01*
X011477Y009135D01*
X011524Y009182D01*
X011563Y009235D01*
X011593Y009294D01*
X011613Y009357D01*
X011624Y009422D01*
X011624Y009695D01*
X011204Y009695D01*
X011204Y009695D01*
X011624Y009695D01*
X011624Y009968D01*
X011613Y010033D01*
X011593Y010096D01*
X011563Y010155D01*
X011524Y010209D01*
X011477Y010255D01*
X011424Y010294D01*
X011365Y010324D01*
X011302Y010345D01*
X011237Y010355D01*
X011204Y010355D01*
X011204Y009695D01*
X011204Y009695D01*
X011204Y010355D01*
X011171Y010355D01*
X011105Y010345D01*
X011043Y010324D01*
X010984Y010294D01*
X010930Y010255D01*
X010883Y010209D01*
X010875Y010197D01*
X010814Y010343D01*
X010612Y010546D01*
X010347Y010655D01*
X010061Y010655D01*
X009879Y010580D01*
X009913Y010662D01*
X009916Y010661D01*
X010177Y010661D01*
X010177Y011118D01*
X010332Y011118D01*
X010332Y010661D01*
X010594Y010661D01*
X010639Y010673D01*
X010680Y010697D01*
X010714Y010730D01*
X010738Y010771D01*
X010750Y010817D01*
X010750Y011118D01*
X010332Y011118D01*
X010332Y011273D01*
X010750Y011273D01*
X010750Y011345D01*
X012272Y011345D01*
X012515Y011102D01*
X012515Y010903D01*
X012588Y010726D01*
X012604Y010711D01*
X012604Y009576D01*
X012695Y009355D01*
X013195Y008855D01*
X013364Y008686D01*
X013584Y008595D01*
X013933Y008595D01*
X014073Y008537D01*
X014104Y008537D01*
X014104Y007995D01*
X014038Y007968D01*
X013916Y007846D01*
X013491Y007846D01*
X013369Y007968D01*
X013193Y008041D01*
X012215Y008041D01*
X012038Y007968D01*
X011903Y007833D01*
X011830Y007657D01*
X011830Y006836D01*
X011888Y006695D01*
X011830Y006554D01*
X011830Y005733D01*
X011903Y005557D01*
X012038Y005422D01*
X012215Y005349D01*
X012771Y005349D01*
X013260Y004989D01*
X013313Y004936D01*
X013356Y004919D01*
X013393Y004891D01*
X013465Y004873D01*
X013533Y004845D01*
X013580Y004845D01*
X013625Y004834D01*
X013698Y004845D01*
X014933Y004845D01*
X015073Y004787D01*
X015335Y004787D01*
X015577Y004887D01*
X015762Y005072D01*
X015862Y005314D01*
X015862Y005576D01*
X015854Y005595D01*
X019323Y005595D01*
X019544Y005686D01*
X020044Y006186D01*
X020212Y006355D01*
X020304Y006576D01*
X020304Y008814D01*
X020212Y009035D01*
X020237Y009035D01*
X020302Y009045D01*
X020365Y009066D01*
X020424Y009096D01*
X020477Y009135D01*
X020524Y009182D01*
X020563Y009235D01*
X020593Y009294D01*
X020613Y009357D01*
X020624Y009422D01*
X020624Y009695D01*
X020204Y009695D01*
X020204Y009695D01*
X020624Y009695D01*
X020624Y009968D01*
X020613Y010033D01*
X020593Y010096D01*
X020563Y010155D01*
X020524Y010209D01*
X020477Y010255D01*
X020424Y010294D01*
X020365Y010324D01*
X020302Y010345D01*
X020237Y010355D01*
X020204Y010355D01*
X020204Y009695D01*
X020204Y009695D01*
X020204Y010355D01*
X020171Y010355D01*
X020105Y010345D01*
X020043Y010324D01*
X019984Y010294D01*
X019930Y010255D01*
X019883Y010209D01*
X019875Y010197D01*
X019814Y010343D01*
X019612Y010546D01*
X019347Y010655D01*
X019061Y010655D01*
X018879Y010580D01*
X018913Y010662D01*
X018916Y010661D01*
X019177Y010661D01*
X019177Y011118D01*
X019332Y011118D01*
X019332Y010661D01*
X019594Y010661D01*
X019639Y010673D01*
X019680Y010697D01*
X019714Y010730D01*
X019738Y010771D01*
X019750Y010817D01*
X019750Y011118D01*
X019332Y011118D01*
X019332Y011273D01*
X019750Y011273D01*
X019750Y011345D01*
X021772Y011345D01*
X022015Y011102D01*
X022015Y010903D01*
X022088Y010726D01*
X022104Y010711D01*
X022104Y009576D01*
X022195Y009355D01*
X022695Y008855D01*
X022864Y008686D01*
X023084Y008595D01*
X023433Y008595D01*
X023573Y008537D01*
X023604Y008537D01*
X023604Y007995D01*
X023538Y007968D01*
X023416Y007846D01*
X022991Y007846D01*
X022869Y007968D01*
X022693Y008041D01*
X021715Y008041D01*
X021538Y007968D01*
X021403Y007833D01*
X021330Y007657D01*
X021330Y006836D01*
X021388Y006695D01*
X021330Y006554D01*
X021330Y005733D01*
X021403Y005557D01*
X021538Y005422D01*
X021715Y005349D01*
X022271Y005349D01*
X022760Y004989D01*
X022813Y004936D01*
X022856Y004919D01*
X022893Y004891D01*
X022965Y004873D01*
X023033Y004845D01*
X023080Y004845D01*
X023125Y004834D01*
X023198Y004845D01*
X024433Y004845D01*
X024573Y004787D01*
X024835Y004787D01*
X025077Y004887D01*
X025262Y005072D01*
X025362Y005314D01*
X025362Y005576D01*
X025354Y005595D01*
X025362Y005573D02*
X030397Y005573D01*
X030331Y005731D02*
X029088Y005731D01*
X029247Y005890D02*
X030330Y005890D01*
X030330Y006048D02*
X029405Y006048D01*
X029564Y006207D02*
X030330Y006207D01*
X030330Y006365D02*
X029717Y006365D01*
X029782Y006524D02*
X030330Y006524D01*
X030383Y006682D02*
X029804Y006682D01*
X029804Y006841D02*
X030330Y006841D01*
X030330Y006999D02*
X029804Y006999D01*
X029804Y007158D02*
X030330Y007158D01*
X030330Y007316D02*
X029804Y007316D01*
X029804Y007475D02*
X030330Y007475D01*
X030330Y007633D02*
X029804Y007633D01*
X029804Y007792D02*
X030386Y007792D01*
X030520Y007950D02*
X029804Y007950D01*
X029804Y008109D02*
X032604Y008109D01*
X032604Y008267D02*
X029804Y008267D01*
X029804Y008426D02*
X032604Y008426D01*
X032459Y008584D02*
X029804Y008584D01*
X029804Y008743D02*
X031808Y008743D01*
X031649Y008901D02*
X029768Y008901D01*
X029712Y009035D02*
X029712Y009035D01*
X029846Y009060D02*
X031491Y009060D01*
X031332Y009218D02*
X030051Y009218D01*
X030117Y009377D02*
X031186Y009377D01*
X031121Y009535D02*
X030124Y009535D01*
X030124Y009694D02*
X031104Y009694D01*
X031104Y009852D02*
X030124Y009852D01*
X030117Y010011D02*
X031104Y010011D01*
X031104Y010169D02*
X030053Y010169D01*
X029855Y010328D02*
X031104Y010328D01*
X031104Y010486D02*
X029171Y010486D01*
X029321Y010328D02*
X029553Y010328D01*
X029704Y010328D02*
X029704Y010328D01*
X029704Y010169D02*
X029704Y010169D01*
X029704Y010011D02*
X029704Y010011D01*
X029704Y009852D02*
X029704Y009852D01*
X028872Y010645D02*
X031104Y010645D01*
X031056Y010803D02*
X029246Y010803D01*
X029250Y010962D02*
X031015Y010962D01*
X030997Y011120D02*
X028832Y011120D01*
X028832Y010962D02*
X028677Y010962D01*
X028677Y010803D02*
X028832Y010803D01*
X028535Y010645D02*
X028406Y010645D01*
X029250Y011279D02*
X030839Y011279D01*
X033392Y011279D02*
X035393Y011279D01*
X035198Y011120D02*
X033390Y011120D01*
X033392Y010962D02*
X035102Y010962D01*
X035046Y010803D02*
X033503Y010803D01*
X033662Y010645D02*
X035046Y010645D01*
X035078Y010486D02*
X033757Y010486D01*
X033804Y010328D02*
X035087Y010328D01*
X035021Y010169D02*
X033804Y010169D01*
X033804Y010011D02*
X034984Y010011D01*
X034984Y009852D02*
X033804Y009852D01*
X033804Y009694D02*
X034984Y009694D01*
X034984Y009535D02*
X033804Y009535D01*
X033804Y009377D02*
X034984Y009377D01*
X035023Y009218D02*
X033804Y009218D01*
X033804Y009060D02*
X035088Y009060D01*
X035240Y008901D02*
X033804Y008901D01*
X033804Y008743D02*
X035542Y008743D01*
X035865Y008743D02*
X036542Y008743D01*
X036865Y008743D02*
X037308Y008743D01*
X037176Y008901D02*
X037168Y008901D01*
X037466Y008584D02*
X033804Y008584D01*
X033804Y008426D02*
X036231Y008426D01*
X035951Y008267D02*
X033804Y008267D01*
X033804Y008109D02*
X035802Y008109D01*
X035737Y007950D02*
X033887Y007950D01*
X034022Y007792D02*
X035694Y007792D01*
X035694Y007633D02*
X034077Y007633D01*
X034077Y007475D02*
X035722Y007475D01*
X035788Y007316D02*
X034077Y007316D01*
X034077Y007158D02*
X035916Y007158D01*
X035607Y006999D02*
X034077Y006999D01*
X034077Y006841D02*
X035517Y006841D01*
X034362Y005573D02*
X039674Y005573D01*
X039674Y005731D02*
X038088Y005731D01*
X038247Y005890D02*
X039674Y005890D01*
X039674Y006048D02*
X038405Y006048D01*
X038564Y006207D02*
X039674Y006207D01*
X039674Y006365D02*
X038717Y006365D01*
X038782Y006524D02*
X039674Y006524D01*
X039674Y006682D02*
X038804Y006682D01*
X038804Y006841D02*
X039674Y006841D01*
X039674Y006999D02*
X038804Y006999D01*
X038804Y007158D02*
X039674Y007158D01*
X039674Y007316D02*
X038804Y007316D01*
X038804Y007475D02*
X039674Y007475D01*
X039674Y007633D02*
X038804Y007633D01*
X038804Y007792D02*
X039674Y007792D01*
X039674Y007950D02*
X038804Y007950D01*
X038804Y008109D02*
X039674Y008109D01*
X039674Y008267D02*
X038804Y008267D01*
X038804Y008426D02*
X039674Y008426D01*
X039674Y008584D02*
X038804Y008584D01*
X038804Y008743D02*
X039674Y008743D01*
X039674Y008901D02*
X038768Y008901D01*
X038712Y009035D02*
X038712Y009035D01*
X038846Y009060D02*
X039674Y009060D01*
X039674Y009218D02*
X039051Y009218D01*
X039117Y009377D02*
X039674Y009377D01*
X039674Y009535D02*
X039124Y009535D01*
X039124Y009694D02*
X039674Y009694D01*
X039674Y009852D02*
X039124Y009852D01*
X039117Y010011D02*
X039674Y010011D01*
X039674Y010169D02*
X039053Y010169D01*
X038855Y010328D02*
X039674Y010328D01*
X039674Y010486D02*
X038171Y010486D01*
X038321Y010328D02*
X038553Y010328D01*
X038704Y010328D02*
X038704Y010328D01*
X038704Y010169D02*
X038704Y010169D01*
X038704Y010011D02*
X038704Y010011D01*
X038704Y009852D02*
X038704Y009852D01*
X037872Y010645D02*
X039674Y010645D01*
X039674Y010803D02*
X038246Y010803D01*
X038250Y010962D02*
X039674Y010962D01*
X039674Y011120D02*
X037832Y011120D01*
X037832Y011273D02*
X038250Y011273D01*
X038250Y011573D01*
X038238Y011619D01*
X038214Y011660D01*
X038180Y011693D01*
X038139Y011717D01*
X038094Y011729D01*
X037832Y011729D01*
X037832Y011273D01*
X037832Y011279D02*
X037677Y011279D01*
X037677Y011437D02*
X037832Y011437D01*
X037832Y011596D02*
X037677Y011596D01*
X037515Y011754D02*
X037402Y011754D01*
X037893Y011754D02*
X038515Y011754D01*
X038244Y011596D02*
X039674Y011596D01*
X039674Y011754D02*
X038893Y011754D01*
X039180Y011913D02*
X039674Y011913D01*
X039674Y012071D02*
X039324Y012071D01*
X039390Y012230D02*
X039674Y012230D01*
X039674Y012388D02*
X039424Y012388D01*
X039424Y012547D02*
X039674Y012547D01*
X039674Y012705D02*
X039424Y012705D01*
X039424Y012864D02*
X039674Y012864D01*
X039674Y013022D02*
X039424Y013022D01*
X039381Y013181D02*
X039674Y013181D01*
X039674Y013339D02*
X039316Y013339D01*
X039159Y013498D02*
X039674Y013498D01*
X039674Y013656D02*
X033304Y013656D01*
X033304Y013498D02*
X035248Y013498D01*
X035092Y013339D02*
X033304Y013339D01*
X033304Y013181D02*
X035026Y013181D01*
X034984Y013022D02*
X033304Y013022D01*
X033304Y012864D02*
X034984Y012864D01*
X034984Y012705D02*
X033304Y012705D01*
X033304Y012547D02*
X034984Y012547D01*
X034984Y012388D02*
X033304Y012388D01*
X033304Y012230D02*
X035018Y012230D01*
X035084Y012071D02*
X033304Y012071D01*
X033371Y011913D02*
X035228Y011913D01*
X035515Y011754D02*
X033392Y011754D01*
X033392Y011596D02*
X035756Y011596D01*
X035893Y011754D02*
X035903Y011754D01*
X035597Y011437D02*
X033392Y011437D01*
X032104Y013022D02*
X032032Y013022D01*
X032104Y013181D02*
X031874Y013181D01*
X031715Y013339D02*
X032104Y013339D01*
X032104Y013498D02*
X031557Y013498D01*
X031398Y013656D02*
X032104Y013656D01*
X032104Y013815D02*
X031240Y013815D01*
X031081Y013973D02*
X032104Y013973D01*
X032104Y014132D02*
X030923Y014132D01*
X030804Y014290D02*
X032104Y014290D01*
X032094Y014449D02*
X030804Y014449D01*
X031647Y014607D02*
X032046Y014607D01*
X032046Y014766D02*
X031797Y014766D01*
X031862Y014924D02*
X032086Y014924D01*
X032161Y015083D02*
X031862Y015083D01*
X031862Y015241D02*
X032319Y015241D01*
X033088Y015241D02*
X039674Y015241D01*
X039674Y015083D02*
X033247Y015083D01*
X033321Y014924D02*
X039674Y014924D01*
X039674Y014766D02*
X033362Y014766D01*
X033362Y014607D02*
X039674Y014607D01*
X039674Y014449D02*
X033314Y014449D01*
X033304Y014290D02*
X039674Y014290D01*
X039674Y014132D02*
X033304Y014132D01*
X033304Y013973D02*
X039674Y013973D01*
X039674Y013815D02*
X033304Y013815D01*
X031862Y015400D02*
X039674Y015400D01*
X039674Y015558D02*
X031825Y015558D01*
X031804Y015717D02*
X039674Y015717D01*
X039674Y015875D02*
X031804Y015875D01*
X031891Y016034D02*
X039674Y016034D01*
X039674Y016192D02*
X035049Y016192D01*
X035208Y016351D02*
X039674Y016351D01*
X039674Y016509D02*
X035366Y016509D01*
X035525Y016668D02*
X039674Y016668D01*
X039674Y016826D02*
X035683Y016826D01*
X035842Y016985D02*
X039674Y016985D01*
X039674Y017143D02*
X036000Y017143D01*
X036159Y017302D02*
X039674Y017302D01*
X039674Y017460D02*
X036907Y017460D01*
X037030Y017619D02*
X039674Y017619D01*
X039674Y017777D02*
X037077Y017777D01*
X037077Y017936D02*
X039674Y017936D01*
X039674Y018094D02*
X037077Y018094D01*
X037077Y018253D02*
X039674Y018253D01*
X039674Y018411D02*
X037077Y018411D01*
X037071Y018570D02*
X039674Y018570D01*
X039674Y018728D02*
X037033Y018728D01*
X037077Y018887D02*
X039674Y018887D01*
X039674Y019045D02*
X037077Y019045D01*
X037077Y019204D02*
X039674Y019204D01*
X039674Y019362D02*
X037077Y019362D01*
X037077Y019521D02*
X039674Y019521D01*
X039674Y019679D02*
X037068Y019679D01*
X037000Y019838D02*
X039674Y019838D01*
X039674Y019996D02*
X036804Y019996D01*
X036804Y020155D02*
X039674Y020155D01*
X039674Y020313D02*
X036804Y020313D01*
X036880Y020472D02*
X039674Y020472D01*
X039674Y020630D02*
X036995Y020630D01*
X037038Y020789D02*
X039674Y020789D01*
X039674Y020947D02*
X037038Y020947D01*
X037038Y021106D02*
X039674Y021106D01*
X039674Y021264D02*
X037038Y021264D01*
X037038Y021423D02*
X039674Y021423D01*
X039674Y021581D02*
X037027Y021581D01*
X036956Y021740D02*
X039674Y021740D01*
X039674Y021898D02*
X036752Y021898D01*
X036281Y022374D02*
X036126Y022374D01*
X036126Y022324D02*
X036126Y022741D01*
X035826Y022741D01*
X035780Y022729D01*
X035739Y022705D01*
X035705Y022672D01*
X035682Y022631D01*
X035669Y022585D01*
X035669Y022324D01*
X036126Y022324D01*
X036126Y022215D02*
X034781Y022215D01*
X034781Y022324D02*
X035277Y022324D01*
X035277Y022585D01*
X035265Y022631D01*
X035242Y022672D01*
X035208Y022705D01*
X035167Y022729D01*
X035121Y022741D01*
X034781Y022741D01*
X034781Y022324D01*
X034781Y022374D02*
X034626Y022374D01*
X034626Y022324D02*
X034626Y022741D01*
X034286Y022741D01*
X034241Y022729D01*
X034200Y022705D01*
X034166Y022672D01*
X034142Y022631D01*
X034130Y022585D01*
X034130Y022324D01*
X034626Y022324D01*
X034626Y022215D02*
X030716Y022215D01*
X030844Y022057D02*
X032970Y022057D01*
X032978Y022063D02*
X032924Y022023D01*
X032876Y021975D01*
X032836Y021920D01*
X032805Y021860D01*
X032784Y021796D01*
X032774Y021729D01*
X032774Y021695D01*
X033204Y021695D01*
X033204Y021695D01*
X033204Y022125D01*
X033170Y022125D01*
X033103Y022115D01*
X033039Y022094D01*
X032978Y022063D01*
X032825Y021898D02*
X030910Y021898D01*
X030934Y021740D02*
X032775Y021740D01*
X032789Y021581D02*
X030934Y021581D01*
X030881Y021423D02*
X032870Y021423D01*
X032740Y021264D02*
X030805Y021264D01*
X030824Y021106D02*
X031175Y021106D01*
X031169Y021085D02*
X031169Y020824D01*
X031626Y020824D01*
X031626Y021241D01*
X031326Y021241D01*
X031280Y021229D01*
X031239Y021205D01*
X031205Y021172D01*
X031182Y021131D01*
X031169Y021085D01*
X031169Y020947D02*
X030890Y020947D01*
X030934Y020789D02*
X031626Y020789D01*
X031781Y020789D02*
X032474Y020789D01*
X032474Y020630D02*
X032238Y020630D01*
X032238Y020472D02*
X032506Y020472D01*
X032572Y020313D02*
X032383Y020313D01*
X032497Y020155D02*
X032631Y020155D01*
X032238Y020824D02*
X031781Y020824D01*
X031781Y021241D01*
X032082Y021241D01*
X032128Y021229D01*
X032169Y021205D01*
X032202Y021172D01*
X032226Y021131D01*
X032238Y021085D01*
X032238Y020824D01*
X032238Y020947D02*
X032518Y020947D01*
X032584Y021106D02*
X032233Y021106D01*
X031781Y021106D02*
X031626Y021106D01*
X031626Y020947D02*
X031781Y020947D01*
X031169Y020630D02*
X030934Y020630D01*
X030901Y020472D02*
X031169Y020472D01*
X031025Y020313D02*
X030836Y020313D01*
X030777Y020155D02*
X030911Y020155D01*
X029631Y020155D02*
X027362Y020155D01*
X027362Y020064D02*
X027262Y019822D01*
X027077Y019637D01*
X026835Y019537D01*
X026573Y019537D01*
X026433Y019595D01*
X022734Y019595D01*
X022762Y019568D01*
X022862Y019326D01*
X022862Y019064D01*
X022762Y018822D01*
X022577Y018637D01*
X022436Y018579D01*
X021294Y017436D01*
X021073Y017345D01*
X019475Y017345D01*
X019335Y017287D01*
X019073Y017287D01*
X018831Y017387D01*
X018646Y017572D01*
X018546Y017814D01*
X018546Y018076D01*
X018646Y018318D01*
X018831Y018503D01*
X019073Y018603D01*
X019335Y018603D01*
X019475Y018545D01*
X020705Y018545D01*
X021588Y019428D01*
X021646Y019568D01*
X021673Y019595D01*
X013584Y019595D01*
X013364Y019686D01*
X012971Y020079D01*
X012831Y020137D01*
X012646Y020322D01*
X012546Y020564D01*
X012546Y020826D01*
X012646Y021068D01*
X012831Y021253D01*
X013053Y021345D01*
X012475Y021345D01*
X012335Y021287D01*
X012073Y021287D01*
X011831Y021387D01*
X011646Y021572D01*
X011546Y021814D01*
X011546Y022076D01*
X011646Y022318D01*
X011831Y022503D01*
X012073Y022603D01*
X012335Y022603D01*
X012475Y022545D01*
X013573Y022545D01*
X013794Y022454D01*
X013962Y022285D01*
X014952Y021295D01*
X024433Y021295D01*
X024573Y021353D01*
X024835Y021353D01*
X025077Y021253D01*
X025262Y021068D01*
X025362Y020826D01*
X025362Y020795D01*
X026433Y020795D01*
X026573Y020853D01*
X026835Y020853D01*
X027077Y020753D01*
X027262Y020568D01*
X027362Y020326D01*
X027362Y020064D01*
X027334Y019996D02*
X029538Y019996D01*
X029474Y019838D02*
X027268Y019838D01*
X027119Y019679D02*
X029474Y019679D01*
X029486Y019521D02*
X022781Y019521D01*
X022847Y019362D02*
X029552Y019362D01*
X029663Y019204D02*
X022862Y019204D01*
X022854Y019045D02*
X029559Y019045D01*
X029493Y018887D02*
X022788Y018887D01*
X022668Y018728D02*
X029474Y018728D01*
X029474Y018570D02*
X022427Y018570D01*
X022268Y018411D02*
X029531Y018411D01*
X029572Y020313D02*
X027362Y020313D01*
X027302Y020472D02*
X029506Y020472D01*
X029474Y020630D02*
X027199Y020630D01*
X026991Y020789D02*
X029474Y020789D01*
X029518Y020947D02*
X025312Y020947D01*
X025224Y021106D02*
X029584Y021106D01*
X029602Y021264D02*
X025050Y021264D01*
X021626Y019521D02*
X010362Y019521D01*
X010362Y019576D02*
X010262Y019818D01*
X010077Y020003D01*
X009835Y020103D01*
X009573Y020103D01*
X009433Y020045D01*
X008992Y020045D01*
X008740Y020361D01*
X009063Y020361D01*
X009239Y020434D01*
X009374Y020569D01*
X009413Y020662D01*
X009416Y020661D01*
X009677Y020661D01*
X009677Y021118D01*
X009832Y021118D01*
X009832Y020661D01*
X010094Y020661D01*
X010139Y020673D01*
X010180Y020697D01*
X010214Y020730D01*
X010238Y020771D01*
X010250Y020817D01*
X010250Y021118D01*
X009832Y021118D01*
X009832Y021273D01*
X009677Y021273D01*
X009677Y021729D01*
X009677Y022118D01*
X009832Y022118D01*
X009832Y021273D01*
X010250Y021273D01*
X010250Y021573D01*
X010238Y021619D01*
X010214Y021660D01*
X010180Y021693D01*
X010178Y021695D01*
X010180Y021697D01*
X010214Y021730D01*
X010238Y021771D01*
X010250Y021817D01*
X010250Y022118D01*
X009832Y022118D01*
X009832Y022273D01*
X009677Y022273D01*
X009677Y022729D01*
X009416Y022729D01*
X009413Y022729D01*
X009374Y022821D01*
X009116Y023008D02*
X039674Y023008D01*
X039674Y023166D02*
X001104Y023166D01*
X001104Y023291D02*
X039674Y023291D01*
X039674Y003595D01*
X039047Y003595D01*
X039164Y003798D01*
X039234Y004060D01*
X039234Y004331D01*
X039164Y004593D01*
X039028Y004828D01*
X038836Y005019D01*
X038601Y005155D01*
X038339Y005225D01*
X038068Y005225D01*
X037806Y005155D01*
X037571Y005019D01*
X037380Y004828D01*
X037244Y004593D01*
X037174Y004331D01*
X037174Y004060D01*
X037244Y003798D01*
X037361Y003595D01*
X036047Y003595D01*
X036164Y003798D01*
X036234Y004060D01*
X036234Y004331D01*
X036164Y004593D01*
X036028Y004828D01*
X035836Y005019D01*
X035601Y005155D01*
X035339Y005225D01*
X035068Y005225D01*
X034806Y005155D01*
X034571Y005019D01*
X034380Y004828D01*
X034244Y004593D01*
X034174Y004331D01*
X034174Y004060D01*
X034244Y003798D01*
X034361Y003595D01*
X030047Y003595D01*
X030164Y003798D01*
X030234Y004060D01*
X030234Y004331D01*
X030164Y004593D01*
X030028Y004828D01*
X029836Y005019D01*
X029601Y005155D01*
X029339Y005225D01*
X029068Y005225D01*
X028806Y005155D01*
X028571Y005019D01*
X028380Y004828D01*
X028244Y004593D01*
X028174Y004331D01*
X028174Y004060D01*
X028244Y003798D01*
X028361Y003595D01*
X027047Y003595D01*
X027164Y003798D01*
X027234Y004060D01*
X027234Y004331D01*
X027164Y004593D01*
X027028Y004828D01*
X026836Y005019D01*
X026601Y005155D01*
X026339Y005225D01*
X026068Y005225D01*
X025806Y005155D01*
X025571Y005019D01*
X025380Y004828D01*
X025244Y004593D01*
X025174Y004331D01*
X025174Y004060D01*
X025244Y003798D01*
X025361Y003595D01*
X020547Y003595D01*
X020664Y003798D01*
X020734Y004060D01*
X020734Y004331D01*
X020664Y004593D01*
X020528Y004828D01*
X020336Y005019D01*
X020101Y005155D01*
X019839Y005225D01*
X019568Y005225D01*
X019306Y005155D01*
X019071Y005019D01*
X018880Y004828D01*
X018744Y004593D01*
X018674Y004331D01*
X018674Y004060D01*
X018744Y003798D01*
X018861Y003595D01*
X017547Y003595D01*
X017664Y003798D01*
X017734Y004060D01*
X017734Y004331D01*
X017664Y004593D01*
X017528Y004828D01*
X017336Y005019D01*
X017101Y005155D01*
X016839Y005225D01*
X016568Y005225D01*
X016306Y005155D01*
X016071Y005019D01*
X015880Y004828D01*
X015744Y004593D01*
X015674Y004331D01*
X015674Y004060D01*
X015744Y003798D01*
X015861Y003595D01*
X011547Y003595D01*
X011664Y003798D01*
X011734Y004060D01*
X011734Y004331D01*
X011664Y004593D01*
X011528Y004828D01*
X011336Y005019D01*
X011101Y005155D01*
X010839Y005225D01*
X010568Y005225D01*
X010306Y005155D01*
X010071Y005019D01*
X009880Y004828D01*
X009744Y004593D01*
X009674Y004331D01*
X009674Y004060D01*
X009744Y003798D01*
X009861Y003595D01*
X008547Y003595D01*
X008664Y003798D01*
X008734Y004060D01*
X008734Y004331D01*
X008664Y004593D01*
X008528Y004828D01*
X008336Y005019D01*
X008101Y005155D01*
X007839Y005225D01*
X007568Y005225D01*
X007306Y005155D01*
X007071Y005019D01*
X006880Y004828D01*
X006744Y004593D01*
X006674Y004331D01*
X006674Y004060D01*
X006744Y003798D01*
X006861Y003595D01*
X001104Y003595D01*
X001104Y023291D01*
X001104Y023008D02*
X008190Y023008D01*
X007959Y022849D02*
X001104Y022849D01*
X001104Y022691D02*
X007877Y022691D01*
X007858Y022532D02*
X001104Y022532D01*
X001104Y022374D02*
X007858Y022374D01*
X007858Y022215D02*
X004249Y022215D01*
X004293Y022172D02*
X004180Y022284D01*
X004033Y022345D01*
X002374Y022345D01*
X002227Y022284D01*
X002115Y022172D01*
X002054Y022025D01*
X002054Y020366D01*
X002115Y020219D01*
X002227Y020106D01*
X002374Y020045D01*
X004033Y020045D01*
X004180Y020106D01*
X004293Y020219D01*
X004354Y020366D01*
X004354Y022025D01*
X004293Y022172D01*
X004341Y022057D02*
X007858Y022057D01*
X007858Y021898D02*
X004354Y021898D01*
X004354Y021740D02*
X006451Y021740D01*
X006241Y021581D02*
X004354Y021581D01*
X004354Y021423D02*
X006083Y021423D01*
X005924Y021264D02*
X004354Y021264D01*
X004354Y021106D02*
X005766Y021106D01*
X005659Y020947D02*
X004354Y020947D01*
X004354Y020789D02*
X005604Y020789D01*
X005383Y020630D02*
X004354Y020630D01*
X004354Y020472D02*
X005162Y020472D01*
X005038Y020313D02*
X004332Y020313D01*
X004229Y020155D02*
X004973Y020155D01*
X004948Y019996D02*
X001104Y019996D01*
X001104Y019838D02*
X004948Y019838D01*
X004996Y019679D02*
X001104Y019679D01*
X001104Y019521D02*
X005062Y019521D01*
X005218Y019362D02*
X001104Y019362D01*
X001104Y019204D02*
X005328Y019204D01*
X005258Y019045D02*
X001104Y019045D01*
X001104Y018887D02*
X005252Y018887D01*
X005303Y018728D02*
X001104Y018728D01*
X001104Y018570D02*
X005445Y018570D01*
X005672Y018411D02*
X001104Y018411D01*
X001104Y018253D02*
X002196Y018253D01*
X002227Y018284D02*
X002115Y018172D01*
X002054Y018025D01*
X002054Y016366D01*
X002115Y016219D01*
X002227Y016106D01*
X002374Y016045D01*
X004033Y016045D01*
X004180Y016106D01*
X004293Y016219D01*
X004354Y016366D01*
X004354Y018025D01*
X004293Y018172D01*
X004180Y018284D01*
X004033Y018345D01*
X002374Y018345D01*
X002227Y018284D01*
X002083Y018094D02*
X001104Y018094D01*
X001104Y017936D02*
X002054Y017936D01*
X002054Y017777D02*
X001104Y017777D01*
X001104Y017619D02*
X002054Y017619D01*
X002054Y017460D02*
X001104Y017460D01*
X001104Y017302D02*
X002054Y017302D01*
X002054Y017143D02*
X001104Y017143D01*
X001104Y016985D02*
X002054Y016985D01*
X002054Y016826D02*
X001104Y016826D01*
X001104Y016668D02*
X002054Y016668D01*
X002054Y016509D02*
X001104Y016509D01*
X001104Y016351D02*
X002060Y016351D01*
X002141Y016192D02*
X001104Y016192D01*
X001104Y016034D02*
X006604Y016034D01*
X006604Y016192D02*
X004266Y016192D01*
X004348Y016351D02*
X006604Y016351D01*
X006604Y016509D02*
X004354Y016509D01*
X004354Y016668D02*
X006604Y016668D01*
X006604Y016826D02*
X004354Y016826D01*
X004354Y016985D02*
X006604Y016985D01*
X006604Y017143D02*
X004354Y017143D01*
X004354Y017302D02*
X006604Y017302D01*
X006604Y017460D02*
X004354Y017460D01*
X004354Y017619D02*
X005386Y017619D01*
X005279Y017777D02*
X004354Y017777D01*
X004354Y017936D02*
X005248Y017936D01*
X005273Y018094D02*
X004325Y018094D01*
X004212Y018253D02*
X005367Y018253D01*
X005695Y017936D02*
X005712Y017936D01*
X005695Y017777D02*
X005712Y017777D01*
X005695Y017619D02*
X005712Y017619D01*
X006022Y017619D02*
X006604Y017619D01*
X006342Y017777D02*
X006128Y017777D01*
X007804Y018626D02*
X007804Y019610D01*
X008182Y019137D01*
X008195Y019105D01*
X008256Y019044D01*
X008310Y018977D01*
X008340Y018961D01*
X008364Y018936D01*
X008443Y018904D01*
X008519Y018862D01*
X008553Y018858D01*
X008584Y018845D01*
X008671Y018845D01*
X008756Y018836D01*
X008789Y018845D01*
X009433Y018845D01*
X009573Y018787D01*
X009835Y018787D01*
X010077Y018887D01*
X010262Y019072D01*
X010362Y019314D01*
X010362Y019576D01*
X010319Y019679D02*
X013382Y019679D01*
X013213Y019838D02*
X010242Y019838D01*
X010083Y019996D02*
X013054Y019996D01*
X012814Y020155D02*
X008905Y020155D01*
X008778Y020313D02*
X012655Y020313D01*
X012584Y020472D02*
X009277Y020472D01*
X009400Y020630D02*
X012546Y020630D01*
X012546Y020789D02*
X010242Y020789D01*
X010250Y020947D02*
X012596Y020947D01*
X012684Y021106D02*
X010250Y021106D01*
X010250Y021423D02*
X011796Y021423D01*
X011642Y021581D02*
X010248Y021581D01*
X010219Y021740D02*
X011577Y021740D01*
X011546Y021898D02*
X010250Y021898D01*
X010250Y022057D02*
X011546Y022057D01*
X011603Y022215D02*
X009832Y022215D01*
X009832Y022273D02*
X010250Y022273D01*
X010250Y022573D01*
X010238Y022619D01*
X010214Y022660D01*
X010180Y022693D01*
X010139Y022717D01*
X010094Y022729D01*
X009832Y022729D01*
X009832Y022273D01*
X009832Y022374D02*
X009677Y022374D01*
X009677Y022532D02*
X009832Y022532D01*
X009832Y022691D02*
X009677Y022691D01*
X010183Y022691D02*
X034185Y022691D01*
X034130Y022532D02*
X013604Y022532D01*
X013874Y022374D02*
X029934Y022374D01*
X029691Y022215D02*
X014032Y022215D01*
X014191Y022057D02*
X029563Y022057D01*
X029498Y021898D02*
X014349Y021898D01*
X014508Y021740D02*
X029474Y021740D01*
X029474Y021581D02*
X014666Y021581D01*
X014825Y021423D02*
X029526Y021423D01*
X030473Y022374D02*
X034130Y022374D01*
X034130Y022057D02*
X033438Y022057D01*
X033583Y021898D02*
X034116Y021898D01*
X033912Y021740D02*
X033632Y021740D01*
X033619Y021581D02*
X033841Y021581D01*
X033830Y021423D02*
X033537Y021423D01*
X033204Y021740D02*
X033204Y021740D01*
X033204Y021898D02*
X033204Y021898D01*
X033204Y022057D02*
X033204Y022057D01*
X034626Y022532D02*
X034781Y022532D01*
X034781Y022691D02*
X034626Y022691D01*
X035223Y022691D02*
X035724Y022691D01*
X035669Y022532D02*
X035277Y022532D01*
X035277Y022374D02*
X035669Y022374D01*
X035669Y022057D02*
X035277Y022057D01*
X035291Y021898D02*
X035656Y021898D01*
X036126Y022532D02*
X036281Y022532D01*
X036281Y022691D02*
X036126Y022691D01*
X025577Y018253D02*
X025335Y018353D01*
X025073Y018353D01*
X024831Y018253D01*
X024646Y018068D01*
X024588Y017928D01*
X023364Y016704D01*
X023195Y016535D01*
X023104Y016314D01*
X023104Y014966D01*
X023046Y014826D01*
X023046Y014564D01*
X023104Y014424D01*
X023104Y012179D01*
X023089Y012173D01*
X022954Y012038D01*
X022902Y011912D01*
X022529Y012285D01*
X022361Y012454D01*
X022140Y012545D01*
X020924Y012545D01*
X020924Y013078D01*
X020814Y013343D01*
X020612Y013546D01*
X020347Y013655D01*
X020061Y013655D01*
X019796Y013546D01*
X019704Y013453D01*
X019612Y013546D01*
X019347Y013655D01*
X019061Y013655D01*
X018796Y013546D01*
X018704Y013453D01*
X018612Y013546D01*
X018347Y013655D01*
X018061Y013655D01*
X017796Y013546D01*
X017704Y013453D01*
X017612Y013546D01*
X017347Y013655D01*
X017061Y013655D01*
X016796Y013546D01*
X016593Y013343D01*
X016484Y013078D01*
X016484Y012312D01*
X016593Y012047D01*
X016796Y011845D01*
X017061Y011735D01*
X017347Y011735D01*
X017405Y011759D01*
X017386Y011713D01*
X017364Y011704D01*
X017195Y011535D01*
X016971Y011311D01*
X016831Y011253D01*
X016646Y011068D01*
X016546Y010826D01*
X016546Y010564D01*
X016624Y010374D01*
X016593Y010343D01*
X016484Y010078D01*
X016484Y009312D01*
X016593Y009047D01*
X016796Y008845D01*
X017061Y008735D01*
X017347Y008735D01*
X017612Y008845D01*
X017704Y008937D01*
X017796Y008845D01*
X018061Y008735D01*
X018347Y008735D01*
X018612Y008845D01*
X018674Y008907D01*
X018695Y008855D01*
X018864Y008686D01*
X019104Y008447D01*
X019104Y008130D01*
X019061Y008144D01*
X018990Y008155D01*
X018962Y008155D01*
X018962Y007704D01*
X018945Y007704D01*
X018945Y008155D01*
X018918Y008155D01*
X018846Y008144D01*
X018777Y008121D01*
X018713Y008089D01*
X018654Y008046D01*
X018638Y008030D01*
X018598Y008126D01*
X018384Y008339D01*
X018105Y008455D01*
X017803Y008455D01*
X017523Y008339D01*
X017309Y008126D01*
X017194Y007846D01*
X017194Y007544D01*
X017309Y007265D01*
X017419Y007155D01*
X017418Y007155D01*
X017346Y007144D01*
X017277Y007121D01*
X017213Y007089D01*
X017154Y007046D01*
X017103Y006995D01*
X017060Y006936D01*
X017027Y006872D01*
X017005Y006803D01*
X017004Y006795D01*
X015561Y006795D01*
X015577Y006836D01*
X015577Y007657D01*
X015504Y007833D01*
X015369Y007968D01*
X015304Y007995D01*
X015304Y010374D01*
X015212Y010594D01*
X015044Y010763D01*
X014892Y010914D01*
X014892Y011113D01*
X014859Y011195D01*
X014892Y011277D01*
X014892Y011861D01*
X014819Y012038D01*
X014804Y012053D01*
X014804Y014424D01*
X014862Y014564D01*
X014862Y014826D01*
X014804Y014966D01*
X014804Y015947D01*
X014936Y016079D01*
X015077Y016137D01*
X015262Y016322D01*
X015362Y016564D01*
X015362Y016826D01*
X015262Y017068D01*
X015077Y017253D01*
X014835Y017353D01*
X014573Y017353D01*
X014331Y017253D01*
X014146Y017068D01*
X014088Y016928D01*
X013864Y016704D01*
X013695Y016535D01*
X013604Y016314D01*
X013604Y014966D01*
X013546Y014826D01*
X013546Y014564D01*
X013604Y014424D01*
X013604Y012179D01*
X013589Y012173D01*
X013454Y012038D01*
X013402Y011912D01*
X013029Y012285D01*
X012861Y012454D01*
X012640Y012545D01*
X011924Y012545D01*
X011924Y013078D01*
X011814Y013343D01*
X011612Y013546D01*
X011347Y013655D01*
X011061Y013655D01*
X010796Y013546D01*
X010704Y013453D01*
X010612Y013546D01*
X010347Y013655D01*
X010061Y013655D01*
X009796Y013546D01*
X009704Y013453D01*
X009612Y013546D01*
X009347Y013655D01*
X009092Y013655D01*
X007804Y014944D01*
X007804Y015445D01*
X008623Y015445D01*
X008899Y015559D01*
X009110Y015770D01*
X009224Y016046D01*
X009224Y016344D01*
X009110Y016620D01*
X009034Y016695D01*
X009110Y016770D01*
X009224Y017046D01*
X009224Y017344D01*
X009110Y017620D01*
X008899Y017831D01*
X008791Y017876D01*
X008817Y017902D01*
X008859Y017959D01*
X008891Y018022D01*
X008913Y018090D01*
X008924Y018160D01*
X008924Y018185D01*
X008214Y018185D01*
X008214Y018205D01*
X008924Y018205D01*
X008924Y018231D01*
X008913Y018300D01*
X008891Y018368D01*
X008859Y018431D01*
X008817Y018488D01*
X008767Y018538D01*
X008710Y018580D01*
X008647Y018612D01*
X008579Y018634D01*
X008509Y018645D01*
X008214Y018645D01*
X008214Y018205D01*
X008194Y018205D01*
X008194Y018645D01*
X007898Y018645D01*
X007828Y018634D01*
X007804Y018626D01*
X007804Y018728D02*
X020888Y018728D01*
X020730Y018570D02*
X019416Y018570D01*
X018992Y018570D02*
X008724Y018570D01*
X008869Y018411D02*
X018739Y018411D01*
X018619Y018253D02*
X008920Y018253D01*
X008913Y018094D02*
X018553Y018094D01*
X018546Y017936D02*
X012424Y017936D01*
X012353Y017965D02*
X012055Y017965D01*
X011779Y017851D01*
X011704Y017776D01*
X011629Y017851D01*
X011353Y017965D01*
X011055Y017965D01*
X010779Y017851D01*
X010568Y017640D01*
X010523Y017532D01*
X010497Y017558D01*
X010440Y017600D01*
X010377Y017632D01*
X010309Y017654D01*
X010239Y017665D01*
X010214Y017665D01*
X010214Y016955D01*
X010194Y016955D01*
X010194Y017665D01*
X010168Y017665D01*
X010098Y017654D01*
X010031Y017632D01*
X009968Y017600D01*
X009911Y017558D01*
X009861Y017508D01*
X009819Y017451D01*
X009787Y017388D01*
X009765Y017320D01*
X009754Y017251D01*
X009754Y016955D01*
X010194Y016955D01*
X010194Y016935D01*
X010214Y016935D01*
X010214Y016225D01*
X010239Y016225D01*
X010309Y016236D01*
X010377Y016258D01*
X010440Y016290D01*
X010497Y016332D01*
X010523Y016358D01*
X010568Y016250D01*
X010779Y016039D01*
X011055Y015925D01*
X011353Y015925D01*
X011629Y016039D01*
X011704Y016114D01*
X011779Y016039D01*
X012055Y015925D01*
X012353Y015925D01*
X012629Y016039D01*
X012840Y016250D01*
X012954Y016526D01*
X012954Y017364D01*
X012840Y017640D01*
X012629Y017851D01*
X012353Y017965D01*
X011983Y017936D02*
X011424Y017936D01*
X011702Y017777D02*
X011705Y017777D01*
X010983Y017936D02*
X008841Y017936D01*
X008952Y017777D02*
X010705Y017777D01*
X010559Y017619D02*
X010403Y017619D01*
X010214Y017619D02*
X010194Y017619D01*
X010194Y017460D02*
X010214Y017460D01*
X010214Y017302D02*
X010194Y017302D01*
X010194Y017143D02*
X010214Y017143D01*
X010214Y016985D02*
X010194Y016985D01*
X010194Y016935D02*
X009754Y016935D01*
X009754Y016640D01*
X009765Y016570D01*
X009787Y016502D01*
X009819Y016439D01*
X009861Y016382D01*
X009911Y016332D01*
X009968Y016290D01*
X010031Y016258D01*
X010098Y016236D01*
X010168Y016225D01*
X010194Y016225D01*
X010194Y016935D01*
X010194Y016826D02*
X010214Y016826D01*
X010214Y016668D02*
X010194Y016668D01*
X010194Y016509D02*
X010214Y016509D01*
X010214Y016351D02*
X010194Y016351D01*
X009892Y016351D02*
X009221Y016351D01*
X009224Y016192D02*
X010626Y016192D01*
X010526Y016351D02*
X010516Y016351D01*
X010793Y016034D02*
X009219Y016034D01*
X009153Y015875D02*
X013604Y015875D01*
X013604Y015717D02*
X009056Y015717D01*
X008896Y015558D02*
X013604Y015558D01*
X013604Y015400D02*
X007804Y015400D01*
X007804Y015241D02*
X013604Y015241D01*
X013604Y015083D02*
X007804Y015083D01*
X007823Y014924D02*
X013586Y014924D01*
X013546Y014766D02*
X007982Y014766D01*
X008140Y014607D02*
X013546Y014607D01*
X013594Y014449D02*
X008299Y014449D01*
X008457Y014290D02*
X013604Y014290D01*
X013604Y014132D02*
X008616Y014132D01*
X008774Y013973D02*
X013604Y013973D01*
X013604Y013815D02*
X008933Y013815D01*
X009091Y013656D02*
X013604Y013656D01*
X013604Y013498D02*
X011659Y013498D01*
X011816Y013339D02*
X013604Y013339D01*
X013604Y013181D02*
X011881Y013181D01*
X011924Y013022D02*
X013604Y013022D01*
X013604Y012864D02*
X011924Y012864D01*
X011924Y012705D02*
X013604Y012705D01*
X013604Y012547D02*
X011924Y012547D01*
X012926Y012388D02*
X013604Y012388D01*
X013604Y012230D02*
X013085Y012230D01*
X013243Y012071D02*
X013488Y012071D01*
X013402Y011913D02*
X013402Y011913D01*
X012497Y011120D02*
X010332Y011120D01*
X010332Y010962D02*
X010177Y010962D01*
X010177Y010803D02*
X010332Y010803D01*
X010372Y010645D02*
X012604Y010645D01*
X012604Y010486D02*
X010671Y010486D01*
X010821Y010328D02*
X011053Y010328D01*
X011204Y010328D02*
X011204Y010328D01*
X011355Y010328D02*
X012604Y010328D01*
X012604Y010169D02*
X011553Y010169D01*
X011617Y010011D02*
X012604Y010011D01*
X012604Y009852D02*
X011624Y009852D01*
X011624Y009694D02*
X012604Y009694D01*
X012621Y009535D02*
X011624Y009535D01*
X011617Y009377D02*
X012686Y009377D01*
X012832Y009218D02*
X011551Y009218D01*
X011346Y009060D02*
X012991Y009060D01*
X013149Y008901D02*
X011268Y008901D01*
X011212Y009035D02*
X011212Y009035D01*
X011304Y008743D02*
X013308Y008743D01*
X013959Y008584D02*
X011304Y008584D01*
X011304Y008426D02*
X014104Y008426D01*
X014104Y008267D02*
X011304Y008267D01*
X011304Y008109D02*
X014104Y008109D01*
X014020Y007950D02*
X013387Y007950D01*
X012020Y007950D02*
X011304Y007950D01*
X011304Y007792D02*
X011886Y007792D01*
X011830Y007633D02*
X011304Y007633D01*
X011304Y007475D02*
X011830Y007475D01*
X011830Y007316D02*
X011304Y007316D01*
X011304Y007158D02*
X011830Y007158D01*
X011830Y006999D02*
X011304Y006999D01*
X011304Y006841D02*
X011830Y006841D01*
X011883Y006682D02*
X011304Y006682D01*
X011282Y006524D02*
X011830Y006524D01*
X011830Y006365D02*
X011217Y006365D01*
X011064Y006207D02*
X011830Y006207D01*
X011830Y006048D02*
X010905Y006048D01*
X010747Y005890D02*
X011830Y005890D01*
X011831Y005731D02*
X010588Y005731D01*
X010206Y005097D02*
X008201Y005097D01*
X008417Y004939D02*
X009991Y004939D01*
X009852Y004780D02*
X008555Y004780D01*
X008647Y004622D02*
X009761Y004622D01*
X009709Y004463D02*
X008698Y004463D01*
X008734Y004305D02*
X009674Y004305D01*
X009674Y004146D02*
X008734Y004146D01*
X008714Y003988D02*
X009693Y003988D01*
X009736Y003829D02*
X008672Y003829D01*
X008590Y003671D02*
X009817Y003671D01*
X011590Y003671D02*
X015817Y003671D01*
X015736Y003829D02*
X011672Y003829D01*
X011714Y003988D02*
X015693Y003988D01*
X015674Y004146D02*
X011734Y004146D01*
X011734Y004305D02*
X015674Y004305D01*
X015709Y004463D02*
X011698Y004463D01*
X011647Y004622D02*
X015761Y004622D01*
X015852Y004780D02*
X011555Y004780D01*
X011417Y004939D02*
X013311Y004939D01*
X013113Y005097D02*
X011201Y005097D01*
X011897Y005573D02*
X006862Y005573D01*
X006862Y005414D02*
X012057Y005414D01*
X012898Y005256D02*
X006838Y005256D01*
X006772Y005097D02*
X007206Y005097D01*
X006991Y004939D02*
X006628Y004939D01*
X006852Y004780D02*
X001104Y004780D01*
X001104Y004622D02*
X006761Y004622D01*
X006709Y004463D02*
X001104Y004463D01*
X001104Y004305D02*
X006674Y004305D01*
X006674Y004146D02*
X001104Y004146D01*
X001104Y003988D02*
X006693Y003988D01*
X006736Y003829D02*
X001104Y003829D01*
X001104Y003671D02*
X006817Y003671D01*
X004061Y004939D02*
X001104Y004939D01*
X001104Y005097D02*
X003902Y005097D01*
X003744Y005256D02*
X001104Y005256D01*
X001104Y005414D02*
X003057Y005414D01*
X002897Y005573D02*
X001104Y005573D01*
X001104Y005731D02*
X002831Y005731D01*
X002830Y005890D02*
X001104Y005890D01*
X001104Y006048D02*
X002830Y006048D01*
X002830Y006207D02*
X001104Y006207D01*
X001104Y006365D02*
X002830Y006365D01*
X002830Y006524D02*
X001104Y006524D01*
X001104Y006682D02*
X002883Y006682D01*
X002830Y006841D02*
X001104Y006841D01*
X001104Y006999D02*
X002830Y006999D01*
X002830Y007158D02*
X001104Y007158D01*
X001104Y007316D02*
X002830Y007316D01*
X002830Y007475D02*
X001104Y007475D01*
X001104Y007633D02*
X002830Y007633D01*
X002886Y007792D02*
X001104Y007792D01*
X001104Y007950D02*
X003020Y007950D01*
X004387Y007950D02*
X005020Y007950D01*
X005104Y008109D02*
X001104Y008109D01*
X001104Y008267D02*
X005104Y008267D01*
X005104Y008426D02*
X001104Y008426D01*
X001104Y008584D02*
X004959Y008584D01*
X004308Y008743D02*
X001104Y008743D01*
X001104Y008901D02*
X004149Y008901D01*
X003991Y009060D02*
X001104Y009060D01*
X001104Y009218D02*
X003832Y009218D01*
X003686Y009377D02*
X001104Y009377D01*
X001104Y009535D02*
X003621Y009535D01*
X003604Y009694D02*
X001104Y009694D01*
X001104Y009852D02*
X003604Y009852D01*
X003604Y010011D02*
X001104Y010011D01*
X001104Y010169D02*
X003604Y010169D01*
X003604Y010328D02*
X001104Y010328D01*
X001104Y010486D02*
X003604Y010486D01*
X003604Y010645D02*
X001104Y010645D01*
X001104Y010803D02*
X003556Y010803D01*
X003515Y010962D02*
X001104Y010962D01*
X001104Y011120D02*
X003515Y011120D01*
X003515Y011279D02*
X001104Y011279D01*
X001104Y011437D02*
X003515Y011437D01*
X003560Y011596D02*
X001104Y011596D01*
X001104Y011754D02*
X003678Y011754D01*
X004402Y011913D02*
X001104Y011913D01*
X001104Y012071D02*
X004488Y012071D01*
X004604Y012230D02*
X001104Y012230D01*
X001104Y012388D02*
X004604Y012388D01*
X004604Y012547D02*
X001104Y012547D01*
X001104Y012705D02*
X004604Y012705D01*
X004604Y012864D02*
X001104Y012864D01*
X001104Y013022D02*
X004604Y013022D01*
X004604Y013181D02*
X001104Y013181D01*
X001104Y013339D02*
X004604Y013339D01*
X004604Y013498D02*
X001104Y013498D01*
X001104Y013656D02*
X004604Y013656D01*
X004604Y013815D02*
X001104Y013815D01*
X001104Y013973D02*
X004604Y013973D01*
X004604Y014132D02*
X001104Y014132D01*
X001104Y014290D02*
X004604Y014290D01*
X004594Y014449D02*
X001104Y014449D01*
X001104Y014607D02*
X004546Y014607D01*
X004546Y014766D02*
X001104Y014766D01*
X001104Y014924D02*
X004586Y014924D01*
X004661Y015083D02*
X001104Y015083D01*
X001104Y015241D02*
X004819Y015241D01*
X005588Y015241D02*
X006604Y015241D01*
X006604Y015083D02*
X005747Y015083D01*
X005821Y014924D02*
X006604Y014924D01*
X006604Y014766D02*
X005862Y014766D01*
X005862Y014607D02*
X006604Y014607D01*
X006656Y014449D02*
X005814Y014449D01*
X005804Y014290D02*
X006760Y014290D01*
X006919Y014132D02*
X005804Y014132D01*
X005804Y013973D02*
X007077Y013973D01*
X007236Y013815D02*
X005804Y013815D01*
X005804Y013656D02*
X007394Y013656D01*
X007553Y013498D02*
X005804Y013498D01*
X005804Y013339D02*
X007592Y013339D01*
X007526Y013181D02*
X005804Y013181D01*
X005804Y013022D02*
X007484Y013022D01*
X007484Y012864D02*
X005804Y012864D01*
X005804Y012705D02*
X007484Y012705D01*
X007484Y012547D02*
X005804Y012547D01*
X005804Y012388D02*
X007484Y012388D01*
X007518Y012230D02*
X005804Y012230D01*
X005804Y012071D02*
X007584Y012071D01*
X007728Y011913D02*
X005871Y011913D01*
X005892Y011754D02*
X008015Y011754D01*
X008256Y011596D02*
X005892Y011596D01*
X005892Y011437D02*
X008097Y011437D01*
X007893Y011279D02*
X005892Y011279D01*
X005890Y011120D02*
X007698Y011120D01*
X007602Y010962D02*
X005892Y010962D01*
X006003Y010803D02*
X007546Y010803D01*
X007546Y010645D02*
X006162Y010645D01*
X006257Y010486D02*
X007578Y010486D01*
X007587Y010328D02*
X006304Y010328D01*
X006304Y010169D02*
X007521Y010169D01*
X007484Y010011D02*
X006304Y010011D01*
X006304Y009852D02*
X007484Y009852D01*
X007484Y009694D02*
X006304Y009694D01*
X006304Y009535D02*
X007484Y009535D01*
X007484Y009377D02*
X006304Y009377D01*
X006304Y009218D02*
X007523Y009218D01*
X007588Y009060D02*
X006304Y009060D01*
X006304Y008901D02*
X007740Y008901D01*
X008042Y008743D02*
X006304Y008743D01*
X006304Y008584D02*
X009966Y008584D01*
X010104Y008426D02*
X009176Y008426D01*
X009457Y008267D02*
X010104Y008267D01*
X009962Y008109D02*
X009945Y008109D01*
X009945Y007950D02*
X009962Y007950D01*
X009945Y007792D02*
X009962Y007792D01*
X009752Y008109D02*
X009605Y008109D01*
X008731Y008426D02*
X006304Y008426D01*
X006304Y008267D02*
X008451Y008267D01*
X008302Y008109D02*
X006304Y008109D01*
X006387Y007950D02*
X008237Y007950D01*
X008194Y007792D02*
X006522Y007792D01*
X006577Y007633D02*
X008194Y007633D01*
X008222Y007475D02*
X006577Y007475D01*
X006577Y007316D02*
X008288Y007316D01*
X008416Y007158D02*
X006577Y007158D01*
X006577Y006999D02*
X008107Y006999D01*
X008017Y006841D02*
X006577Y006841D01*
X008365Y008743D02*
X009042Y008743D01*
X009365Y008743D02*
X009808Y008743D01*
X009676Y008901D02*
X009668Y008901D01*
X008740Y008901D02*
X008668Y008901D01*
X011204Y009852D02*
X011204Y009852D01*
X011204Y010011D02*
X011204Y010011D01*
X011204Y010169D02*
X011204Y010169D01*
X010746Y010803D02*
X012556Y010803D01*
X012515Y010962D02*
X010750Y010962D01*
X010750Y011279D02*
X012339Y011279D01*
X010035Y010645D02*
X009906Y010645D01*
X008403Y011754D02*
X008393Y011754D01*
X009659Y013498D02*
X009748Y013498D01*
X010659Y013498D02*
X010748Y013498D01*
X014804Y013498D02*
X016748Y013498D01*
X016592Y013339D02*
X014804Y013339D01*
X014804Y013181D02*
X016526Y013181D01*
X016484Y013022D02*
X014804Y013022D01*
X014804Y012864D02*
X016484Y012864D01*
X016484Y012705D02*
X014804Y012705D01*
X014804Y012547D02*
X016484Y012547D01*
X016484Y012388D02*
X014804Y012388D01*
X014804Y012230D02*
X016518Y012230D01*
X016584Y012071D02*
X014804Y012071D01*
X014871Y011913D02*
X016728Y011913D01*
X017015Y011754D02*
X014892Y011754D01*
X014892Y011596D02*
X017256Y011596D01*
X017393Y011754D02*
X017403Y011754D01*
X017097Y011437D02*
X014892Y011437D01*
X014892Y011279D02*
X016893Y011279D01*
X016698Y011120D02*
X014890Y011120D01*
X014892Y010962D02*
X016602Y010962D01*
X016546Y010803D02*
X015003Y010803D01*
X015162Y010645D02*
X016546Y010645D01*
X016578Y010486D02*
X015257Y010486D01*
X015304Y010328D02*
X016587Y010328D01*
X016521Y010169D02*
X015304Y010169D01*
X015304Y010011D02*
X016484Y010011D01*
X016484Y009852D02*
X015304Y009852D01*
X015304Y009694D02*
X016484Y009694D01*
X016484Y009535D02*
X015304Y009535D01*
X015304Y009377D02*
X016484Y009377D01*
X016523Y009218D02*
X015304Y009218D01*
X015304Y009060D02*
X016588Y009060D01*
X016740Y008901D02*
X015304Y008901D01*
X015304Y008743D02*
X017042Y008743D01*
X017365Y008743D02*
X018042Y008743D01*
X018365Y008743D02*
X018808Y008743D01*
X018676Y008901D02*
X018668Y008901D01*
X018966Y008584D02*
X015304Y008584D01*
X015304Y008426D02*
X017731Y008426D01*
X017451Y008267D02*
X015304Y008267D01*
X015304Y008109D02*
X017302Y008109D01*
X017237Y007950D02*
X015387Y007950D01*
X015522Y007792D02*
X017194Y007792D01*
X017194Y007633D02*
X015577Y007633D01*
X015577Y007475D02*
X017222Y007475D01*
X017288Y007316D02*
X015577Y007316D01*
X015577Y007158D02*
X017416Y007158D01*
X017107Y006999D02*
X015577Y006999D01*
X015577Y006841D02*
X017017Y006841D01*
X018945Y007792D02*
X018962Y007792D01*
X018945Y007950D02*
X018962Y007950D01*
X018945Y008109D02*
X018962Y008109D01*
X018752Y008109D02*
X018605Y008109D01*
X018457Y008267D02*
X019104Y008267D01*
X019104Y008426D02*
X018176Y008426D01*
X017740Y008901D02*
X017668Y008901D01*
X019671Y010486D02*
X022104Y010486D01*
X022104Y010328D02*
X020355Y010328D01*
X020204Y010328D02*
X020204Y010328D01*
X020053Y010328D02*
X019821Y010328D01*
X020204Y010169D02*
X020204Y010169D01*
X020204Y010011D02*
X020204Y010011D01*
X020204Y009852D02*
X020204Y009852D01*
X020624Y009852D02*
X022104Y009852D01*
X022104Y009694D02*
X020624Y009694D01*
X020624Y009535D02*
X022121Y009535D01*
X022186Y009377D02*
X020617Y009377D01*
X020551Y009218D02*
X022332Y009218D01*
X022491Y009060D02*
X020346Y009060D01*
X020212Y009035D02*
X020212Y009035D01*
X020268Y008901D02*
X022649Y008901D01*
X022808Y008743D02*
X020304Y008743D01*
X020304Y008584D02*
X023459Y008584D01*
X023604Y008426D02*
X020304Y008426D01*
X020304Y008267D02*
X023604Y008267D01*
X023604Y008109D02*
X020304Y008109D01*
X020304Y007950D02*
X021520Y007950D01*
X021386Y007792D02*
X020304Y007792D01*
X020304Y007633D02*
X021330Y007633D01*
X021330Y007475D02*
X020304Y007475D01*
X020304Y007316D02*
X021330Y007316D01*
X021330Y007158D02*
X020304Y007158D01*
X020304Y006999D02*
X021330Y006999D01*
X021330Y006841D02*
X020304Y006841D01*
X020304Y006682D02*
X021383Y006682D01*
X021330Y006524D02*
X020282Y006524D01*
X020217Y006365D02*
X021330Y006365D01*
X021330Y006207D02*
X020064Y006207D01*
X019905Y006048D02*
X021330Y006048D01*
X021330Y005890D02*
X019747Y005890D01*
X019588Y005731D02*
X021331Y005731D01*
X021397Y005573D02*
X015862Y005573D01*
X015862Y005414D02*
X021557Y005414D01*
X022398Y005256D02*
X015838Y005256D01*
X015772Y005097D02*
X016206Y005097D01*
X015991Y004939D02*
X015628Y004939D01*
X017201Y005097D02*
X019206Y005097D01*
X018991Y004939D02*
X017417Y004939D01*
X017555Y004780D02*
X018852Y004780D01*
X018761Y004622D02*
X017647Y004622D01*
X017698Y004463D02*
X018709Y004463D01*
X018674Y004305D02*
X017734Y004305D01*
X017734Y004146D02*
X018674Y004146D01*
X018693Y003988D02*
X017714Y003988D01*
X017672Y003829D02*
X018736Y003829D01*
X018817Y003671D02*
X017590Y003671D01*
X020201Y005097D02*
X022613Y005097D01*
X022811Y004939D02*
X020417Y004939D01*
X020555Y004780D02*
X025352Y004780D01*
X025261Y004622D02*
X020647Y004622D01*
X020698Y004463D02*
X025209Y004463D01*
X025174Y004305D02*
X020734Y004305D01*
X020734Y004146D02*
X025174Y004146D01*
X025193Y003988D02*
X020714Y003988D01*
X020672Y003829D02*
X025236Y003829D01*
X025317Y003671D02*
X020590Y003671D01*
X025128Y004939D02*
X025491Y004939D01*
X025706Y005097D02*
X025272Y005097D01*
X025338Y005256D02*
X031398Y005256D01*
X031613Y005097D02*
X029701Y005097D01*
X029917Y004939D02*
X031811Y004939D01*
X030557Y005414D02*
X025362Y005414D01*
X026701Y005097D02*
X028706Y005097D01*
X028491Y004939D02*
X026917Y004939D01*
X027055Y004780D02*
X028352Y004780D01*
X028261Y004622D02*
X027147Y004622D01*
X027198Y004463D02*
X028209Y004463D01*
X028174Y004305D02*
X027234Y004305D01*
X027234Y004146D02*
X028174Y004146D01*
X028193Y003988D02*
X027214Y003988D01*
X027172Y003829D02*
X028236Y003829D01*
X028317Y003671D02*
X027090Y003671D01*
X030090Y003671D02*
X034317Y003671D01*
X034236Y003829D02*
X030172Y003829D01*
X030214Y003988D02*
X034193Y003988D01*
X034174Y004146D02*
X030234Y004146D01*
X030234Y004305D02*
X034174Y004305D01*
X034209Y004463D02*
X030198Y004463D01*
X030147Y004622D02*
X034261Y004622D01*
X034352Y004780D02*
X030055Y004780D01*
X034128Y004939D02*
X034491Y004939D01*
X034706Y005097D02*
X034272Y005097D01*
X034338Y005256D02*
X039674Y005256D01*
X039674Y005414D02*
X034362Y005414D01*
X035701Y005097D02*
X037706Y005097D01*
X037491Y004939D02*
X035917Y004939D01*
X036055Y004780D02*
X037352Y004780D01*
X037261Y004622D02*
X036147Y004622D01*
X036198Y004463D02*
X037209Y004463D01*
X037174Y004305D02*
X036234Y004305D01*
X036234Y004146D02*
X037174Y004146D01*
X037193Y003988D02*
X036214Y003988D01*
X036172Y003829D02*
X037236Y003829D01*
X037317Y003671D02*
X036090Y003671D01*
X038701Y005097D02*
X039674Y005097D01*
X039674Y004939D02*
X038917Y004939D01*
X039055Y004780D02*
X039674Y004780D01*
X039674Y004622D02*
X039147Y004622D01*
X039198Y004463D02*
X039674Y004463D01*
X039674Y004305D02*
X039234Y004305D01*
X039234Y004146D02*
X039674Y004146D01*
X039674Y003988D02*
X039214Y003988D01*
X039172Y003829D02*
X039674Y003829D01*
X039674Y003671D02*
X039090Y003671D01*
X037462Y007792D02*
X037445Y007792D01*
X037445Y007950D02*
X037462Y007950D01*
X037445Y008109D02*
X037462Y008109D01*
X037252Y008109D02*
X037105Y008109D01*
X036957Y008267D02*
X037604Y008267D01*
X037604Y008426D02*
X036676Y008426D01*
X036240Y008901D02*
X036168Y008901D01*
X037406Y010645D02*
X037535Y010645D01*
X037677Y010803D02*
X037832Y010803D01*
X037832Y010962D02*
X037677Y010962D01*
X038250Y011279D02*
X039674Y011279D01*
X039674Y011437D02*
X038250Y011437D01*
X038228Y011913D02*
X038180Y011913D01*
X038159Y013498D02*
X038248Y013498D01*
X037248Y013498D02*
X037159Y013498D01*
X036248Y013498D02*
X036159Y013498D01*
X029248Y013498D02*
X029159Y013498D01*
X028248Y013498D02*
X028159Y013498D01*
X027248Y013498D02*
X027159Y013498D01*
X023104Y013498D02*
X020659Y013498D01*
X020816Y013339D02*
X023104Y013339D01*
X023104Y013181D02*
X020881Y013181D01*
X020924Y013022D02*
X023104Y013022D01*
X023104Y012864D02*
X020924Y012864D01*
X020924Y012705D02*
X023104Y012705D01*
X023104Y012547D02*
X020924Y012547D01*
X022426Y012388D02*
X023104Y012388D01*
X023104Y012230D02*
X022585Y012230D01*
X022743Y012071D02*
X022988Y012071D01*
X022902Y011913D02*
X022902Y011913D01*
X021839Y011279D02*
X019750Y011279D01*
X019332Y011120D02*
X021997Y011120D01*
X022015Y010962D02*
X019750Y010962D01*
X019746Y010803D02*
X022056Y010803D01*
X022104Y010645D02*
X019372Y010645D01*
X019332Y010803D02*
X019177Y010803D01*
X019177Y010962D02*
X019332Y010962D01*
X019035Y010645D02*
X018906Y010645D01*
X020553Y010169D02*
X022104Y010169D01*
X022104Y010011D02*
X020617Y010011D01*
X022887Y007950D02*
X023520Y007950D01*
X027168Y008901D02*
X027240Y008901D01*
X027676Y008426D02*
X028604Y008426D01*
X028604Y008267D02*
X027957Y008267D01*
X028105Y008109D02*
X028252Y008109D01*
X028445Y008109D02*
X028462Y008109D01*
X028445Y007950D02*
X028462Y007950D01*
X028445Y007792D02*
X028462Y007792D01*
X031887Y007950D02*
X032520Y007950D01*
X023104Y013656D02*
X014804Y013656D01*
X014804Y013815D02*
X023104Y013815D01*
X023104Y013973D02*
X014804Y013973D01*
X014804Y014132D02*
X023104Y014132D01*
X023104Y014290D02*
X014804Y014290D01*
X014814Y014449D02*
X023094Y014449D01*
X023046Y014607D02*
X014862Y014607D01*
X014862Y014766D02*
X023046Y014766D01*
X023086Y014924D02*
X014821Y014924D01*
X014804Y015083D02*
X023104Y015083D01*
X023104Y015241D02*
X014804Y015241D01*
X014804Y015400D02*
X023104Y015400D01*
X023104Y015558D02*
X014804Y015558D01*
X014804Y015717D02*
X023104Y015717D01*
X023104Y015875D02*
X014804Y015875D01*
X014891Y016034D02*
X023104Y016034D01*
X023104Y016192D02*
X015132Y016192D01*
X015273Y016351D02*
X023119Y016351D01*
X023184Y016509D02*
X015339Y016509D01*
X015362Y016668D02*
X023328Y016668D01*
X023486Y016826D02*
X015362Y016826D01*
X015296Y016985D02*
X023645Y016985D01*
X023803Y017143D02*
X015186Y017143D01*
X014959Y017302D02*
X019038Y017302D01*
X018758Y017460D02*
X012914Y017460D01*
X012954Y017302D02*
X014448Y017302D01*
X014221Y017143D02*
X012954Y017143D01*
X012954Y016985D02*
X014111Y016985D01*
X013986Y016826D02*
X012954Y016826D01*
X012954Y016668D02*
X013828Y016668D01*
X013684Y016509D02*
X012947Y016509D01*
X012881Y016351D02*
X013619Y016351D01*
X013604Y016192D02*
X012781Y016192D01*
X012615Y016034D02*
X013604Y016034D01*
X011793Y016034D02*
X011615Y016034D01*
X009785Y016509D02*
X009156Y016509D01*
X009062Y016668D02*
X009754Y016668D01*
X009754Y016826D02*
X009133Y016826D01*
X009198Y016985D02*
X009754Y016985D01*
X009754Y017143D02*
X009224Y017143D01*
X009224Y017302D02*
X009762Y017302D01*
X009826Y017460D02*
X009176Y017460D01*
X009110Y017619D02*
X010005Y017619D01*
X008214Y018253D02*
X008194Y018253D01*
X008194Y018411D02*
X008214Y018411D01*
X008214Y018570D02*
X008194Y018570D01*
X008474Y018887D02*
X007804Y018887D01*
X007804Y019045D02*
X008255Y019045D01*
X008129Y019204D02*
X007804Y019204D01*
X007804Y019362D02*
X008002Y019362D01*
X007875Y019521D02*
X007804Y019521D01*
X010075Y018887D02*
X021047Y018887D01*
X021205Y019045D02*
X010235Y019045D01*
X010316Y019204D02*
X021364Y019204D01*
X021522Y019362D02*
X010362Y019362D01*
X009832Y020789D02*
X009677Y020789D01*
X009677Y020947D02*
X009832Y020947D01*
X009832Y021106D02*
X009677Y021106D01*
X009832Y021264D02*
X012858Y021264D01*
X011702Y022374D02*
X010250Y022374D01*
X010250Y022532D02*
X011901Y022532D01*
X009832Y022057D02*
X009677Y022057D01*
X009677Y021898D02*
X009832Y021898D01*
X009832Y021740D02*
X009677Y021740D01*
X009677Y021581D02*
X009832Y021581D01*
X009832Y021423D02*
X009677Y021423D01*
X007858Y021423D02*
X007825Y021423D01*
X007858Y021581D02*
X007666Y021581D01*
X007860Y021740D02*
X007457Y021740D01*
X002158Y022215D02*
X001104Y022215D01*
X001104Y022057D02*
X002067Y022057D01*
X002054Y021898D02*
X001104Y021898D01*
X001104Y021740D02*
X002054Y021740D01*
X002054Y021581D02*
X001104Y021581D01*
X001104Y021423D02*
X002054Y021423D01*
X002054Y021264D02*
X001104Y021264D01*
X001104Y021106D02*
X002054Y021106D01*
X002054Y020947D02*
X001104Y020947D01*
X001104Y020789D02*
X002054Y020789D01*
X002054Y020630D02*
X001104Y020630D01*
X001104Y020472D02*
X002054Y020472D01*
X002075Y020313D02*
X001104Y020313D01*
X001104Y020155D02*
X002179Y020155D01*
X001104Y015875D02*
X006604Y015875D01*
X006604Y015717D02*
X001104Y015717D01*
X001104Y015558D02*
X006604Y015558D01*
X006604Y015400D02*
X001104Y015400D01*
X012702Y017777D02*
X018561Y017777D01*
X018627Y017619D02*
X012848Y017619D01*
X019370Y017302D02*
X023962Y017302D01*
X024120Y017460D02*
X021317Y017460D01*
X021476Y017619D02*
X024279Y017619D01*
X024437Y017777D02*
X021634Y017777D01*
X021793Y017936D02*
X024591Y017936D01*
X024672Y018094D02*
X021951Y018094D01*
X022110Y018253D02*
X024831Y018253D01*
X019748Y013498D02*
X019659Y013498D01*
X018748Y013498D02*
X018659Y013498D01*
X017748Y013498D02*
X017659Y013498D01*
D23*
X016704Y014195D03*
X026204Y014195D03*
X031204Y015195D03*
X035204Y014195D03*
X029704Y022695D03*
X011204Y022195D03*
X006704Y013195D03*
D24*
X005204Y014695D03*
X008204Y010695D03*
X005204Y009195D03*
X004704Y006695D03*
X006204Y005445D03*
X013704Y006695D03*
X015204Y005445D03*
X014204Y009195D03*
X017204Y010695D03*
X023704Y009195D03*
X026704Y010695D03*
X032704Y009195D03*
X035704Y010695D03*
X032204Y006695D03*
X033704Y005445D03*
X024704Y005445D03*
X023204Y006695D03*
X023704Y014695D03*
X025204Y017695D03*
X022204Y019195D03*
X024704Y020695D03*
X026704Y020195D03*
X030204Y017695D03*
X032704Y014695D03*
X019204Y017945D03*
X014704Y016695D03*
X014204Y014695D03*
X009704Y019445D03*
X013204Y020695D03*
X012204Y021945D03*
M02*
