G75*
G70*
%OFA0B0*%
%FSLAX24Y24*%
%IPPOS*%
%LPD*%
%AMOC8*
5,1,8,0,0,1.08239X$1,22.5*
%
%ADD10C,0.0000*%
%ADD11C,0.0040*%
%ADD12C,0.0060*%
%ADD13C,0.0080*%
%ADD14C,0.0010*%
%ADD15R,0.0450X0.0364*%
%ADD16C,0.0050*%
D10*
X000704Y003195D02*
X000704Y023691D01*
X040074Y023691D01*
X040074Y003195D01*
X000704Y003195D01*
X007074Y004195D02*
X007076Y004245D01*
X007082Y004295D01*
X007092Y004344D01*
X007106Y004392D01*
X007123Y004439D01*
X007144Y004484D01*
X007169Y004528D01*
X007197Y004569D01*
X007229Y004608D01*
X007263Y004645D01*
X007300Y004679D01*
X007340Y004709D01*
X007382Y004736D01*
X007426Y004760D01*
X007472Y004781D01*
X007519Y004797D01*
X007567Y004810D01*
X007617Y004819D01*
X007666Y004824D01*
X007717Y004825D01*
X007767Y004822D01*
X007816Y004815D01*
X007865Y004804D01*
X007913Y004789D01*
X007959Y004771D01*
X008004Y004749D01*
X008047Y004723D01*
X008088Y004694D01*
X008127Y004662D01*
X008163Y004627D01*
X008195Y004589D01*
X008225Y004549D01*
X008252Y004506D01*
X008275Y004462D01*
X008294Y004416D01*
X008310Y004368D01*
X008322Y004319D01*
X008330Y004270D01*
X008334Y004220D01*
X008334Y004170D01*
X008330Y004120D01*
X008322Y004071D01*
X008310Y004022D01*
X008294Y003974D01*
X008275Y003928D01*
X008252Y003884D01*
X008225Y003841D01*
X008195Y003801D01*
X008163Y003763D01*
X008127Y003728D01*
X008088Y003696D01*
X008047Y003667D01*
X008004Y003641D01*
X007959Y003619D01*
X007913Y003601D01*
X007865Y003586D01*
X007816Y003575D01*
X007767Y003568D01*
X007717Y003565D01*
X007666Y003566D01*
X007617Y003571D01*
X007567Y003580D01*
X007519Y003593D01*
X007472Y003609D01*
X007426Y003630D01*
X007382Y003654D01*
X007340Y003681D01*
X007300Y003711D01*
X007263Y003745D01*
X007229Y003782D01*
X007197Y003821D01*
X007169Y003862D01*
X007144Y003906D01*
X007123Y003951D01*
X007106Y003998D01*
X007092Y004046D01*
X007082Y004095D01*
X007076Y004145D01*
X007074Y004195D01*
X010074Y004195D02*
X010076Y004245D01*
X010082Y004295D01*
X010092Y004344D01*
X010106Y004392D01*
X010123Y004439D01*
X010144Y004484D01*
X010169Y004528D01*
X010197Y004569D01*
X010229Y004608D01*
X010263Y004645D01*
X010300Y004679D01*
X010340Y004709D01*
X010382Y004736D01*
X010426Y004760D01*
X010472Y004781D01*
X010519Y004797D01*
X010567Y004810D01*
X010617Y004819D01*
X010666Y004824D01*
X010717Y004825D01*
X010767Y004822D01*
X010816Y004815D01*
X010865Y004804D01*
X010913Y004789D01*
X010959Y004771D01*
X011004Y004749D01*
X011047Y004723D01*
X011088Y004694D01*
X011127Y004662D01*
X011163Y004627D01*
X011195Y004589D01*
X011225Y004549D01*
X011252Y004506D01*
X011275Y004462D01*
X011294Y004416D01*
X011310Y004368D01*
X011322Y004319D01*
X011330Y004270D01*
X011334Y004220D01*
X011334Y004170D01*
X011330Y004120D01*
X011322Y004071D01*
X011310Y004022D01*
X011294Y003974D01*
X011275Y003928D01*
X011252Y003884D01*
X011225Y003841D01*
X011195Y003801D01*
X011163Y003763D01*
X011127Y003728D01*
X011088Y003696D01*
X011047Y003667D01*
X011004Y003641D01*
X010959Y003619D01*
X010913Y003601D01*
X010865Y003586D01*
X010816Y003575D01*
X010767Y003568D01*
X010717Y003565D01*
X010666Y003566D01*
X010617Y003571D01*
X010567Y003580D01*
X010519Y003593D01*
X010472Y003609D01*
X010426Y003630D01*
X010382Y003654D01*
X010340Y003681D01*
X010300Y003711D01*
X010263Y003745D01*
X010229Y003782D01*
X010197Y003821D01*
X010169Y003862D01*
X010144Y003906D01*
X010123Y003951D01*
X010106Y003998D01*
X010092Y004046D01*
X010082Y004095D01*
X010076Y004145D01*
X010074Y004195D01*
X016074Y004195D02*
X016076Y004245D01*
X016082Y004295D01*
X016092Y004344D01*
X016106Y004392D01*
X016123Y004439D01*
X016144Y004484D01*
X016169Y004528D01*
X016197Y004569D01*
X016229Y004608D01*
X016263Y004645D01*
X016300Y004679D01*
X016340Y004709D01*
X016382Y004736D01*
X016426Y004760D01*
X016472Y004781D01*
X016519Y004797D01*
X016567Y004810D01*
X016617Y004819D01*
X016666Y004824D01*
X016717Y004825D01*
X016767Y004822D01*
X016816Y004815D01*
X016865Y004804D01*
X016913Y004789D01*
X016959Y004771D01*
X017004Y004749D01*
X017047Y004723D01*
X017088Y004694D01*
X017127Y004662D01*
X017163Y004627D01*
X017195Y004589D01*
X017225Y004549D01*
X017252Y004506D01*
X017275Y004462D01*
X017294Y004416D01*
X017310Y004368D01*
X017322Y004319D01*
X017330Y004270D01*
X017334Y004220D01*
X017334Y004170D01*
X017330Y004120D01*
X017322Y004071D01*
X017310Y004022D01*
X017294Y003974D01*
X017275Y003928D01*
X017252Y003884D01*
X017225Y003841D01*
X017195Y003801D01*
X017163Y003763D01*
X017127Y003728D01*
X017088Y003696D01*
X017047Y003667D01*
X017004Y003641D01*
X016959Y003619D01*
X016913Y003601D01*
X016865Y003586D01*
X016816Y003575D01*
X016767Y003568D01*
X016717Y003565D01*
X016666Y003566D01*
X016617Y003571D01*
X016567Y003580D01*
X016519Y003593D01*
X016472Y003609D01*
X016426Y003630D01*
X016382Y003654D01*
X016340Y003681D01*
X016300Y003711D01*
X016263Y003745D01*
X016229Y003782D01*
X016197Y003821D01*
X016169Y003862D01*
X016144Y003906D01*
X016123Y003951D01*
X016106Y003998D01*
X016092Y004046D01*
X016082Y004095D01*
X016076Y004145D01*
X016074Y004195D01*
X019074Y004195D02*
X019076Y004245D01*
X019082Y004295D01*
X019092Y004344D01*
X019106Y004392D01*
X019123Y004439D01*
X019144Y004484D01*
X019169Y004528D01*
X019197Y004569D01*
X019229Y004608D01*
X019263Y004645D01*
X019300Y004679D01*
X019340Y004709D01*
X019382Y004736D01*
X019426Y004760D01*
X019472Y004781D01*
X019519Y004797D01*
X019567Y004810D01*
X019617Y004819D01*
X019666Y004824D01*
X019717Y004825D01*
X019767Y004822D01*
X019816Y004815D01*
X019865Y004804D01*
X019913Y004789D01*
X019959Y004771D01*
X020004Y004749D01*
X020047Y004723D01*
X020088Y004694D01*
X020127Y004662D01*
X020163Y004627D01*
X020195Y004589D01*
X020225Y004549D01*
X020252Y004506D01*
X020275Y004462D01*
X020294Y004416D01*
X020310Y004368D01*
X020322Y004319D01*
X020330Y004270D01*
X020334Y004220D01*
X020334Y004170D01*
X020330Y004120D01*
X020322Y004071D01*
X020310Y004022D01*
X020294Y003974D01*
X020275Y003928D01*
X020252Y003884D01*
X020225Y003841D01*
X020195Y003801D01*
X020163Y003763D01*
X020127Y003728D01*
X020088Y003696D01*
X020047Y003667D01*
X020004Y003641D01*
X019959Y003619D01*
X019913Y003601D01*
X019865Y003586D01*
X019816Y003575D01*
X019767Y003568D01*
X019717Y003565D01*
X019666Y003566D01*
X019617Y003571D01*
X019567Y003580D01*
X019519Y003593D01*
X019472Y003609D01*
X019426Y003630D01*
X019382Y003654D01*
X019340Y003681D01*
X019300Y003711D01*
X019263Y003745D01*
X019229Y003782D01*
X019197Y003821D01*
X019169Y003862D01*
X019144Y003906D01*
X019123Y003951D01*
X019106Y003998D01*
X019092Y004046D01*
X019082Y004095D01*
X019076Y004145D01*
X019074Y004195D01*
X025574Y004195D02*
X025576Y004245D01*
X025582Y004295D01*
X025592Y004344D01*
X025606Y004392D01*
X025623Y004439D01*
X025644Y004484D01*
X025669Y004528D01*
X025697Y004569D01*
X025729Y004608D01*
X025763Y004645D01*
X025800Y004679D01*
X025840Y004709D01*
X025882Y004736D01*
X025926Y004760D01*
X025972Y004781D01*
X026019Y004797D01*
X026067Y004810D01*
X026117Y004819D01*
X026166Y004824D01*
X026217Y004825D01*
X026267Y004822D01*
X026316Y004815D01*
X026365Y004804D01*
X026413Y004789D01*
X026459Y004771D01*
X026504Y004749D01*
X026547Y004723D01*
X026588Y004694D01*
X026627Y004662D01*
X026663Y004627D01*
X026695Y004589D01*
X026725Y004549D01*
X026752Y004506D01*
X026775Y004462D01*
X026794Y004416D01*
X026810Y004368D01*
X026822Y004319D01*
X026830Y004270D01*
X026834Y004220D01*
X026834Y004170D01*
X026830Y004120D01*
X026822Y004071D01*
X026810Y004022D01*
X026794Y003974D01*
X026775Y003928D01*
X026752Y003884D01*
X026725Y003841D01*
X026695Y003801D01*
X026663Y003763D01*
X026627Y003728D01*
X026588Y003696D01*
X026547Y003667D01*
X026504Y003641D01*
X026459Y003619D01*
X026413Y003601D01*
X026365Y003586D01*
X026316Y003575D01*
X026267Y003568D01*
X026217Y003565D01*
X026166Y003566D01*
X026117Y003571D01*
X026067Y003580D01*
X026019Y003593D01*
X025972Y003609D01*
X025926Y003630D01*
X025882Y003654D01*
X025840Y003681D01*
X025800Y003711D01*
X025763Y003745D01*
X025729Y003782D01*
X025697Y003821D01*
X025669Y003862D01*
X025644Y003906D01*
X025623Y003951D01*
X025606Y003998D01*
X025592Y004046D01*
X025582Y004095D01*
X025576Y004145D01*
X025574Y004195D01*
X028574Y004195D02*
X028576Y004245D01*
X028582Y004295D01*
X028592Y004344D01*
X028606Y004392D01*
X028623Y004439D01*
X028644Y004484D01*
X028669Y004528D01*
X028697Y004569D01*
X028729Y004608D01*
X028763Y004645D01*
X028800Y004679D01*
X028840Y004709D01*
X028882Y004736D01*
X028926Y004760D01*
X028972Y004781D01*
X029019Y004797D01*
X029067Y004810D01*
X029117Y004819D01*
X029166Y004824D01*
X029217Y004825D01*
X029267Y004822D01*
X029316Y004815D01*
X029365Y004804D01*
X029413Y004789D01*
X029459Y004771D01*
X029504Y004749D01*
X029547Y004723D01*
X029588Y004694D01*
X029627Y004662D01*
X029663Y004627D01*
X029695Y004589D01*
X029725Y004549D01*
X029752Y004506D01*
X029775Y004462D01*
X029794Y004416D01*
X029810Y004368D01*
X029822Y004319D01*
X029830Y004270D01*
X029834Y004220D01*
X029834Y004170D01*
X029830Y004120D01*
X029822Y004071D01*
X029810Y004022D01*
X029794Y003974D01*
X029775Y003928D01*
X029752Y003884D01*
X029725Y003841D01*
X029695Y003801D01*
X029663Y003763D01*
X029627Y003728D01*
X029588Y003696D01*
X029547Y003667D01*
X029504Y003641D01*
X029459Y003619D01*
X029413Y003601D01*
X029365Y003586D01*
X029316Y003575D01*
X029267Y003568D01*
X029217Y003565D01*
X029166Y003566D01*
X029117Y003571D01*
X029067Y003580D01*
X029019Y003593D01*
X028972Y003609D01*
X028926Y003630D01*
X028882Y003654D01*
X028840Y003681D01*
X028800Y003711D01*
X028763Y003745D01*
X028729Y003782D01*
X028697Y003821D01*
X028669Y003862D01*
X028644Y003906D01*
X028623Y003951D01*
X028606Y003998D01*
X028592Y004046D01*
X028582Y004095D01*
X028576Y004145D01*
X028574Y004195D01*
X034574Y004195D02*
X034576Y004245D01*
X034582Y004295D01*
X034592Y004344D01*
X034606Y004392D01*
X034623Y004439D01*
X034644Y004484D01*
X034669Y004528D01*
X034697Y004569D01*
X034729Y004608D01*
X034763Y004645D01*
X034800Y004679D01*
X034840Y004709D01*
X034882Y004736D01*
X034926Y004760D01*
X034972Y004781D01*
X035019Y004797D01*
X035067Y004810D01*
X035117Y004819D01*
X035166Y004824D01*
X035217Y004825D01*
X035267Y004822D01*
X035316Y004815D01*
X035365Y004804D01*
X035413Y004789D01*
X035459Y004771D01*
X035504Y004749D01*
X035547Y004723D01*
X035588Y004694D01*
X035627Y004662D01*
X035663Y004627D01*
X035695Y004589D01*
X035725Y004549D01*
X035752Y004506D01*
X035775Y004462D01*
X035794Y004416D01*
X035810Y004368D01*
X035822Y004319D01*
X035830Y004270D01*
X035834Y004220D01*
X035834Y004170D01*
X035830Y004120D01*
X035822Y004071D01*
X035810Y004022D01*
X035794Y003974D01*
X035775Y003928D01*
X035752Y003884D01*
X035725Y003841D01*
X035695Y003801D01*
X035663Y003763D01*
X035627Y003728D01*
X035588Y003696D01*
X035547Y003667D01*
X035504Y003641D01*
X035459Y003619D01*
X035413Y003601D01*
X035365Y003586D01*
X035316Y003575D01*
X035267Y003568D01*
X035217Y003565D01*
X035166Y003566D01*
X035117Y003571D01*
X035067Y003580D01*
X035019Y003593D01*
X034972Y003609D01*
X034926Y003630D01*
X034882Y003654D01*
X034840Y003681D01*
X034800Y003711D01*
X034763Y003745D01*
X034729Y003782D01*
X034697Y003821D01*
X034669Y003862D01*
X034644Y003906D01*
X034623Y003951D01*
X034606Y003998D01*
X034592Y004046D01*
X034582Y004095D01*
X034576Y004145D01*
X034574Y004195D01*
X037574Y004195D02*
X037576Y004245D01*
X037582Y004295D01*
X037592Y004344D01*
X037606Y004392D01*
X037623Y004439D01*
X037644Y004484D01*
X037669Y004528D01*
X037697Y004569D01*
X037729Y004608D01*
X037763Y004645D01*
X037800Y004679D01*
X037840Y004709D01*
X037882Y004736D01*
X037926Y004760D01*
X037972Y004781D01*
X038019Y004797D01*
X038067Y004810D01*
X038117Y004819D01*
X038166Y004824D01*
X038217Y004825D01*
X038267Y004822D01*
X038316Y004815D01*
X038365Y004804D01*
X038413Y004789D01*
X038459Y004771D01*
X038504Y004749D01*
X038547Y004723D01*
X038588Y004694D01*
X038627Y004662D01*
X038663Y004627D01*
X038695Y004589D01*
X038725Y004549D01*
X038752Y004506D01*
X038775Y004462D01*
X038794Y004416D01*
X038810Y004368D01*
X038822Y004319D01*
X038830Y004270D01*
X038834Y004220D01*
X038834Y004170D01*
X038830Y004120D01*
X038822Y004071D01*
X038810Y004022D01*
X038794Y003974D01*
X038775Y003928D01*
X038752Y003884D01*
X038725Y003841D01*
X038695Y003801D01*
X038663Y003763D01*
X038627Y003728D01*
X038588Y003696D01*
X038547Y003667D01*
X038504Y003641D01*
X038459Y003619D01*
X038413Y003601D01*
X038365Y003586D01*
X038316Y003575D01*
X038267Y003568D01*
X038217Y003565D01*
X038166Y003566D01*
X038117Y003571D01*
X038067Y003580D01*
X038019Y003593D01*
X037972Y003609D01*
X037926Y003630D01*
X037882Y003654D01*
X037840Y003681D01*
X037800Y003711D01*
X037763Y003745D01*
X037729Y003782D01*
X037697Y003821D01*
X037669Y003862D01*
X037644Y003906D01*
X037623Y003951D01*
X037606Y003998D01*
X037592Y004046D01*
X037582Y004095D01*
X037576Y004145D01*
X037574Y004195D01*
X002564Y017195D02*
X002566Y017245D01*
X002572Y017295D01*
X002582Y017344D01*
X002595Y017393D01*
X002613Y017440D01*
X002634Y017486D01*
X002658Y017529D01*
X002686Y017571D01*
X002717Y017611D01*
X002751Y017648D01*
X002788Y017682D01*
X002828Y017713D01*
X002870Y017741D01*
X002913Y017765D01*
X002959Y017786D01*
X003006Y017804D01*
X003055Y017817D01*
X003104Y017827D01*
X003154Y017833D01*
X003204Y017835D01*
X003254Y017833D01*
X003304Y017827D01*
X003353Y017817D01*
X003402Y017804D01*
X003449Y017786D01*
X003495Y017765D01*
X003538Y017741D01*
X003580Y017713D01*
X003620Y017682D01*
X003657Y017648D01*
X003691Y017611D01*
X003722Y017571D01*
X003750Y017529D01*
X003774Y017486D01*
X003795Y017440D01*
X003813Y017393D01*
X003826Y017344D01*
X003836Y017295D01*
X003842Y017245D01*
X003844Y017195D01*
X003842Y017145D01*
X003836Y017095D01*
X003826Y017046D01*
X003813Y016997D01*
X003795Y016950D01*
X003774Y016904D01*
X003750Y016861D01*
X003722Y016819D01*
X003691Y016779D01*
X003657Y016742D01*
X003620Y016708D01*
X003580Y016677D01*
X003538Y016649D01*
X003495Y016625D01*
X003449Y016604D01*
X003402Y016586D01*
X003353Y016573D01*
X003304Y016563D01*
X003254Y016557D01*
X003204Y016555D01*
X003154Y016557D01*
X003104Y016563D01*
X003055Y016573D01*
X003006Y016586D01*
X002959Y016604D01*
X002913Y016625D01*
X002870Y016649D01*
X002828Y016677D01*
X002788Y016708D01*
X002751Y016742D01*
X002717Y016779D01*
X002686Y016819D01*
X002658Y016861D01*
X002634Y016904D01*
X002613Y016950D01*
X002595Y016997D01*
X002582Y017046D01*
X002572Y017095D01*
X002566Y017145D01*
X002564Y017195D01*
X002564Y021195D02*
X002566Y021245D01*
X002572Y021295D01*
X002582Y021344D01*
X002595Y021393D01*
X002613Y021440D01*
X002634Y021486D01*
X002658Y021529D01*
X002686Y021571D01*
X002717Y021611D01*
X002751Y021648D01*
X002788Y021682D01*
X002828Y021713D01*
X002870Y021741D01*
X002913Y021765D01*
X002959Y021786D01*
X003006Y021804D01*
X003055Y021817D01*
X003104Y021827D01*
X003154Y021833D01*
X003204Y021835D01*
X003254Y021833D01*
X003304Y021827D01*
X003353Y021817D01*
X003402Y021804D01*
X003449Y021786D01*
X003495Y021765D01*
X003538Y021741D01*
X003580Y021713D01*
X003620Y021682D01*
X003657Y021648D01*
X003691Y021611D01*
X003722Y021571D01*
X003750Y021529D01*
X003774Y021486D01*
X003795Y021440D01*
X003813Y021393D01*
X003826Y021344D01*
X003836Y021295D01*
X003842Y021245D01*
X003844Y021195D01*
X003842Y021145D01*
X003836Y021095D01*
X003826Y021046D01*
X003813Y020997D01*
X003795Y020950D01*
X003774Y020904D01*
X003750Y020861D01*
X003722Y020819D01*
X003691Y020779D01*
X003657Y020742D01*
X003620Y020708D01*
X003580Y020677D01*
X003538Y020649D01*
X003495Y020625D01*
X003449Y020604D01*
X003402Y020586D01*
X003353Y020573D01*
X003304Y020563D01*
X003254Y020557D01*
X003204Y020555D01*
X003154Y020557D01*
X003104Y020563D01*
X003055Y020573D01*
X003006Y020586D01*
X002959Y020604D01*
X002913Y020625D01*
X002870Y020649D01*
X002828Y020677D01*
X002788Y020708D01*
X002751Y020742D01*
X002717Y020779D01*
X002686Y020819D01*
X002658Y020861D01*
X002634Y020904D01*
X002613Y020950D01*
X002595Y020997D01*
X002582Y021046D01*
X002572Y021095D01*
X002566Y021145D01*
X002564Y021195D01*
D11*
X002605Y022715D02*
X002605Y023022D01*
X002682Y023022D01*
X002758Y022945D01*
X002835Y023022D01*
X002912Y022945D01*
X002912Y022715D01*
X002758Y022715D02*
X002758Y022945D01*
X002451Y022945D02*
X002451Y022869D01*
X002145Y022869D01*
X002145Y022945D02*
X002145Y022792D01*
X002221Y022715D01*
X002375Y022715D01*
X002451Y022945D02*
X002375Y023022D01*
X002221Y023022D01*
X002145Y022945D01*
X001991Y022945D02*
X001991Y022715D01*
X001991Y022945D02*
X001914Y023022D01*
X001684Y023022D01*
X001684Y022715D01*
X001531Y022715D02*
X001531Y023022D01*
X001377Y023176D01*
X001224Y023022D01*
X001224Y022715D01*
X001224Y022945D02*
X001531Y022945D01*
X003065Y022945D02*
X003065Y022792D01*
X003142Y022715D01*
X003296Y022715D01*
X003372Y022792D01*
X003372Y022945D01*
X003296Y023022D01*
X003142Y023022D01*
X003065Y022945D01*
X003526Y023022D02*
X003526Y022715D01*
X003679Y022715D02*
X003679Y022945D01*
X003756Y023022D01*
X003833Y022945D01*
X003833Y022715D01*
X003986Y022792D02*
X003986Y022945D01*
X004063Y023022D01*
X004216Y023022D01*
X004293Y022945D01*
X004293Y022869D01*
X003986Y022869D01*
X003986Y022792D02*
X004063Y022715D01*
X004216Y022715D01*
X004523Y022792D02*
X004523Y023099D01*
X004447Y023022D02*
X004600Y023022D01*
X004753Y022945D02*
X004830Y023022D01*
X004984Y023022D01*
X005060Y022945D01*
X005060Y022869D01*
X004753Y022869D01*
X004753Y022945D02*
X004753Y022792D01*
X004830Y022715D01*
X004984Y022715D01*
X005214Y022715D02*
X005214Y023022D01*
X005214Y022869D02*
X005367Y023022D01*
X005444Y023022D01*
X006058Y023099D02*
X006135Y023176D01*
X006288Y023176D01*
X006365Y023099D01*
X006365Y023022D01*
X006058Y022715D01*
X006365Y022715D01*
X006518Y022715D02*
X006595Y022715D01*
X006595Y022792D01*
X006518Y022792D01*
X006518Y022715D01*
X006748Y022792D02*
X007055Y023099D01*
X007055Y022792D01*
X006979Y022715D01*
X006825Y022715D01*
X006748Y022792D01*
X006748Y023099D01*
X006825Y023176D01*
X006979Y023176D01*
X007055Y023099D01*
X004600Y022715D02*
X004523Y022792D01*
X003679Y022945D02*
X003602Y023022D01*
X003526Y023022D01*
X012724Y017695D02*
X012724Y017542D01*
X012801Y017465D01*
X013031Y017465D01*
X013184Y017465D02*
X013184Y017926D01*
X013261Y017772D02*
X013414Y017772D01*
X013491Y017695D01*
X013491Y017465D01*
X013645Y017542D02*
X013721Y017465D01*
X013875Y017465D01*
X013951Y017542D01*
X013951Y017619D01*
X013875Y017695D01*
X013798Y017695D01*
X013875Y017695D02*
X013951Y017772D01*
X013951Y017849D01*
X013875Y017926D01*
X013721Y017926D01*
X013645Y017849D01*
X013261Y017772D02*
X013184Y017695D01*
X013031Y017772D02*
X012801Y017772D01*
X012724Y017695D01*
X016224Y018792D02*
X016301Y018715D01*
X016531Y018715D01*
X016684Y018715D02*
X016684Y019176D01*
X016761Y019022D02*
X016914Y019022D01*
X016991Y018945D01*
X016991Y018715D01*
X017145Y018945D02*
X017451Y018945D01*
X017375Y018715D02*
X017375Y019176D01*
X017145Y018945D01*
X016761Y019022D02*
X016684Y018945D01*
X016531Y019022D02*
X016301Y019022D01*
X016224Y018945D01*
X016224Y018792D01*
X019801Y022965D02*
X019724Y023042D01*
X019724Y023195D01*
X019801Y023272D01*
X020031Y023272D01*
X020184Y023195D02*
X020261Y023272D01*
X020414Y023272D01*
X020491Y023195D01*
X020491Y022965D01*
X020645Y023195D02*
X020951Y023195D01*
X020875Y022965D02*
X020875Y023426D01*
X020645Y023195D01*
X020184Y023426D02*
X020184Y022965D01*
X020031Y022965D02*
X019801Y022965D01*
X022724Y023042D02*
X022801Y022965D01*
X023031Y022965D01*
X023184Y022965D02*
X023184Y023426D01*
X023261Y023272D02*
X023414Y023272D01*
X023491Y023195D01*
X023491Y022965D01*
X023645Y023042D02*
X023721Y022965D01*
X023875Y022965D01*
X023951Y023042D01*
X023951Y023119D01*
X023875Y023195D01*
X023798Y023195D01*
X023875Y023195D02*
X023951Y023272D01*
X023951Y023349D01*
X023875Y023426D01*
X023721Y023426D01*
X023645Y023349D01*
X023261Y023272D02*
X023184Y023195D01*
X023031Y023272D02*
X022801Y023272D01*
X022724Y023195D01*
X022724Y023042D01*
X025724Y023042D02*
X025801Y022965D01*
X026031Y022965D01*
X026184Y022965D02*
X026184Y023426D01*
X026261Y023272D02*
X026184Y023195D01*
X026261Y023272D02*
X026414Y023272D01*
X026491Y023195D01*
X026491Y022965D01*
X026645Y022965D02*
X026951Y023272D01*
X026951Y023349D01*
X026875Y023426D01*
X026721Y023426D01*
X026645Y023349D01*
X026645Y022965D02*
X026951Y022965D01*
X026031Y023272D02*
X025801Y023272D01*
X025724Y023195D01*
X025724Y023042D01*
X028224Y023042D02*
X028301Y022965D01*
X028531Y022965D01*
X028684Y022965D02*
X028684Y023426D01*
X028761Y023272D02*
X028914Y023272D01*
X028991Y023195D01*
X028991Y022965D01*
X029145Y022965D02*
X029451Y022965D01*
X029298Y022965D02*
X029298Y023426D01*
X029145Y023272D01*
X028761Y023272D02*
X028684Y023195D01*
X028531Y023272D02*
X028301Y023272D01*
X028224Y023195D01*
X028224Y023042D01*
X033974Y017176D02*
X034204Y017176D01*
X034281Y017099D01*
X034281Y016945D01*
X034204Y016869D01*
X033974Y016869D01*
X034127Y016869D02*
X034281Y016715D01*
X034434Y016715D02*
X034434Y017176D01*
X034741Y017176D01*
X034895Y017176D02*
X035201Y017176D01*
X035048Y016945D02*
X034895Y016945D01*
X034895Y016715D02*
X034895Y017176D01*
X034588Y016945D02*
X034434Y016945D01*
X034434Y016715D02*
X034741Y016715D01*
X035355Y016715D02*
X035432Y016715D01*
X035432Y016792D01*
X035355Y016792D01*
X035355Y016715D01*
X035585Y016792D02*
X035662Y016715D01*
X035815Y016715D01*
X035892Y016792D01*
X035892Y016869D01*
X035815Y016945D01*
X035585Y016945D01*
X035585Y016792D01*
X035585Y016945D02*
X035739Y017099D01*
X035892Y017176D01*
X036046Y017176D02*
X036046Y016869D01*
X036199Y016715D01*
X036352Y016869D01*
X036352Y017176D01*
X033974Y017176D02*
X033974Y016715D01*
X033684Y004676D02*
X033684Y004215D01*
X033531Y004215D02*
X033301Y004215D01*
X033224Y004292D01*
X033224Y004445D01*
X033301Y004522D01*
X033531Y004522D01*
X033684Y004445D02*
X033761Y004522D01*
X033914Y004522D01*
X033991Y004445D01*
X033991Y004215D01*
X034145Y004215D02*
X034451Y004215D01*
X034298Y004215D02*
X034298Y004676D01*
X034145Y004522D01*
X024951Y004522D02*
X024645Y004215D01*
X024951Y004215D01*
X024951Y004522D02*
X024951Y004599D01*
X024875Y004676D01*
X024721Y004676D01*
X024645Y004599D01*
X024491Y004445D02*
X024491Y004215D01*
X024491Y004445D02*
X024414Y004522D01*
X024261Y004522D01*
X024184Y004445D01*
X024031Y004522D02*
X023801Y004522D01*
X023724Y004445D01*
X023724Y004292D01*
X023801Y004215D01*
X024031Y004215D01*
X024184Y004215D02*
X024184Y004676D01*
X015451Y004599D02*
X015451Y004522D01*
X015375Y004445D01*
X015451Y004369D01*
X015451Y004292D01*
X015375Y004215D01*
X015221Y004215D01*
X015145Y004292D01*
X014991Y004215D02*
X014991Y004445D01*
X014914Y004522D01*
X014761Y004522D01*
X014684Y004445D01*
X014531Y004522D02*
X014301Y004522D01*
X014224Y004445D01*
X014224Y004292D01*
X014301Y004215D01*
X014531Y004215D01*
X014684Y004215D02*
X014684Y004676D01*
X015145Y004599D02*
X015221Y004676D01*
X015375Y004676D01*
X015451Y004599D01*
X015375Y004445D02*
X015298Y004445D01*
X005951Y004445D02*
X005645Y004445D01*
X005875Y004676D01*
X005875Y004215D01*
X005491Y004215D02*
X005491Y004445D01*
X005414Y004522D01*
X005261Y004522D01*
X005184Y004445D01*
X005031Y004522D02*
X004801Y004522D01*
X004724Y004445D01*
X004724Y004292D01*
X004801Y004215D01*
X005031Y004215D01*
X005184Y004215D02*
X005184Y004676D01*
D12*
X007704Y010045D02*
X007704Y010795D01*
X007743Y010797D01*
X007782Y010803D01*
X007820Y010812D01*
X007857Y010825D01*
X007893Y010842D01*
X007926Y010862D01*
X007958Y010886D01*
X007987Y010912D01*
X008013Y010941D01*
X008037Y010973D01*
X008057Y011006D01*
X008074Y011042D01*
X008087Y011079D01*
X008096Y011117D01*
X008102Y011156D01*
X008104Y011195D01*
X008102Y011234D01*
X008096Y011273D01*
X008087Y011311D01*
X008074Y011348D01*
X008057Y011384D01*
X008037Y011417D01*
X008013Y011449D01*
X007987Y011478D01*
X007958Y011504D01*
X007926Y011528D01*
X007893Y011548D01*
X007857Y011565D01*
X007820Y011578D01*
X007782Y011587D01*
X007743Y011593D01*
X007704Y011595D01*
X007704Y012345D01*
X011704Y012345D01*
X011704Y010045D01*
X007704Y010045D01*
X016704Y010045D02*
X016704Y010795D01*
X016743Y010797D01*
X016782Y010803D01*
X016820Y010812D01*
X016857Y010825D01*
X016893Y010842D01*
X016926Y010862D01*
X016958Y010886D01*
X016987Y010912D01*
X017013Y010941D01*
X017037Y010973D01*
X017057Y011006D01*
X017074Y011042D01*
X017087Y011079D01*
X017096Y011117D01*
X017102Y011156D01*
X017104Y011195D01*
X017102Y011234D01*
X017096Y011273D01*
X017087Y011311D01*
X017074Y011348D01*
X017057Y011384D01*
X017037Y011417D01*
X017013Y011449D01*
X016987Y011478D01*
X016958Y011504D01*
X016926Y011528D01*
X016893Y011548D01*
X016857Y011565D01*
X016820Y011578D01*
X016782Y011587D01*
X016743Y011593D01*
X016704Y011595D01*
X016704Y012345D01*
X020704Y012345D01*
X020704Y010045D01*
X016704Y010045D01*
X026204Y010045D02*
X026204Y010795D01*
X026243Y010797D01*
X026282Y010803D01*
X026320Y010812D01*
X026357Y010825D01*
X026393Y010842D01*
X026426Y010862D01*
X026458Y010886D01*
X026487Y010912D01*
X026513Y010941D01*
X026537Y010973D01*
X026557Y011006D01*
X026574Y011042D01*
X026587Y011079D01*
X026596Y011117D01*
X026602Y011156D01*
X026604Y011195D01*
X026602Y011234D01*
X026596Y011273D01*
X026587Y011311D01*
X026574Y011348D01*
X026557Y011384D01*
X026537Y011417D01*
X026513Y011449D01*
X026487Y011478D01*
X026458Y011504D01*
X026426Y011528D01*
X026393Y011548D01*
X026357Y011565D01*
X026320Y011578D01*
X026282Y011587D01*
X026243Y011593D01*
X026204Y011595D01*
X026204Y012345D01*
X030204Y012345D01*
X030204Y010045D01*
X026204Y010045D01*
X035204Y010045D02*
X035204Y010795D01*
X035243Y010797D01*
X035282Y010803D01*
X035320Y010812D01*
X035357Y010825D01*
X035393Y010842D01*
X035426Y010862D01*
X035458Y010886D01*
X035487Y010912D01*
X035513Y010941D01*
X035537Y010973D01*
X035557Y011006D01*
X035574Y011042D01*
X035587Y011079D01*
X035596Y011117D01*
X035602Y011156D01*
X035604Y011195D01*
X035602Y011234D01*
X035596Y011273D01*
X035587Y011311D01*
X035574Y011348D01*
X035557Y011384D01*
X035537Y011417D01*
X035513Y011449D01*
X035487Y011478D01*
X035458Y011504D01*
X035426Y011528D01*
X035393Y011548D01*
X035357Y011565D01*
X035320Y011578D01*
X035282Y011587D01*
X035243Y011593D01*
X035204Y011595D01*
X035204Y012345D01*
X039204Y012345D01*
X039204Y010045D01*
X035204Y010045D01*
X032854Y018195D02*
X032104Y018195D01*
X032102Y018234D01*
X032096Y018273D01*
X032087Y018311D01*
X032074Y018348D01*
X032057Y018384D01*
X032037Y018417D01*
X032013Y018449D01*
X031987Y018478D01*
X031958Y018504D01*
X031926Y018528D01*
X031893Y018548D01*
X031857Y018565D01*
X031820Y018578D01*
X031782Y018587D01*
X031743Y018593D01*
X031704Y018595D01*
X031665Y018593D01*
X031626Y018587D01*
X031588Y018578D01*
X031551Y018565D01*
X031515Y018548D01*
X031482Y018528D01*
X031450Y018504D01*
X031421Y018478D01*
X031395Y018449D01*
X031371Y018417D01*
X031351Y018384D01*
X031334Y018348D01*
X031321Y018311D01*
X031312Y018273D01*
X031306Y018234D01*
X031304Y018195D01*
X030554Y018195D01*
X030554Y022195D01*
X032854Y022195D01*
X032854Y018195D01*
X012704Y017345D02*
X012704Y016545D01*
X012604Y016445D01*
X011804Y016445D01*
X011704Y016545D01*
X011604Y016445D01*
X010804Y016445D01*
X010704Y016545D01*
X010604Y016445D01*
X009804Y016445D01*
X009704Y016545D01*
X009704Y017345D01*
X009804Y017445D01*
X010604Y017445D01*
X010704Y017345D01*
X010804Y017445D01*
X011604Y017445D01*
X011704Y017345D01*
X011804Y017445D01*
X012604Y017445D01*
X012704Y017345D01*
X008704Y017595D02*
X008704Y016795D01*
X008604Y016695D01*
X008704Y016595D01*
X008704Y015795D01*
X008604Y015695D01*
X007804Y015695D01*
X007704Y015795D01*
X007704Y016595D01*
X007804Y016695D01*
X007704Y016795D01*
X007704Y017595D01*
X007804Y017695D01*
X007704Y017795D01*
X007704Y018595D01*
X007804Y018695D01*
X008604Y018695D01*
X008704Y018595D01*
X008704Y017795D01*
X008604Y017695D01*
X008704Y017595D01*
D13*
X007463Y016488D02*
X000140Y016488D01*
X000140Y021903D01*
X007463Y021903D01*
X007463Y016488D01*
X010034Y019429D02*
X013374Y019429D01*
X013398Y019434D01*
X013421Y019442D01*
X013442Y019453D01*
X013462Y019467D01*
X013480Y019484D01*
X013495Y019503D01*
X013508Y019524D01*
X013517Y019546D01*
X013523Y019570D01*
X013525Y019594D01*
X013524Y019619D01*
X013524Y019623D02*
X013524Y019955D01*
X013504Y019955D02*
X013474Y019957D01*
X013444Y019962D01*
X013415Y019971D01*
X013388Y019984D01*
X013362Y019999D01*
X013338Y020018D01*
X013317Y020039D01*
X013298Y020063D01*
X013283Y020089D01*
X013270Y020116D01*
X013261Y020145D01*
X013256Y020175D01*
X013254Y020205D01*
X013256Y020235D01*
X013261Y020265D01*
X013270Y020294D01*
X013283Y020321D01*
X013298Y020347D01*
X013317Y020371D01*
X013338Y020392D01*
X013362Y020411D01*
X013388Y020426D01*
X013415Y020439D01*
X013444Y020448D01*
X013474Y020453D01*
X013504Y020455D01*
X013524Y020455D02*
X013524Y020851D01*
X013525Y020851D02*
X013520Y020871D01*
X013512Y020890D01*
X013501Y020908D01*
X013488Y020924D01*
X013472Y020937D01*
X013455Y020948D01*
X013436Y020956D01*
X013416Y020961D01*
X013395Y020963D01*
X013374Y020962D01*
X013374Y020961D02*
X009994Y020961D01*
X009994Y020962D02*
X009974Y020957D01*
X009955Y020949D01*
X009937Y020938D01*
X009921Y020925D01*
X009908Y020909D01*
X009897Y020892D01*
X009889Y020873D01*
X009884Y020853D01*
X009882Y020832D01*
X009883Y020811D01*
X009884Y020811D02*
X009884Y019579D01*
X009886Y019556D01*
X009891Y019533D01*
X009900Y019511D01*
X009913Y019491D01*
X009928Y019473D01*
X009946Y019458D01*
X009966Y019445D01*
X009988Y019436D01*
X010011Y019431D01*
X010034Y019429D01*
X011383Y008160D02*
X007025Y008160D01*
X007025Y000140D01*
X011383Y000140D01*
X011383Y008160D01*
X016025Y008160D02*
X020383Y008160D01*
X020383Y000140D01*
X016025Y000140D01*
X016025Y008160D01*
X025525Y008160D02*
X029883Y008160D01*
X029883Y000140D01*
X025525Y000140D01*
X025525Y008160D01*
X034525Y008160D02*
X038883Y008160D01*
X038883Y000140D01*
X034525Y000140D01*
X034525Y008160D01*
D14*
X007394Y018868D02*
X007342Y018816D01*
X007394Y018868D02*
X007394Y018971D01*
X007342Y019023D01*
X007290Y019023D01*
X007239Y018971D01*
X007239Y018868D01*
X007187Y018816D01*
X007135Y018816D01*
X007084Y018868D01*
X007084Y018971D01*
X007135Y019023D01*
X007084Y019111D02*
X007084Y019266D01*
X007135Y019318D01*
X007342Y019318D01*
X007394Y019266D01*
X007394Y019111D01*
X007084Y019111D01*
X007187Y019405D02*
X007084Y019509D01*
X007187Y019612D01*
X007394Y019612D01*
X007239Y019612D02*
X007239Y019405D01*
X007187Y019405D02*
X007394Y019405D01*
X006894Y020691D02*
X006894Y020898D01*
X006894Y020986D02*
X006687Y021193D01*
X006635Y021193D01*
X006584Y021141D01*
X006584Y021038D01*
X006635Y020986D01*
X006584Y020795D02*
X006894Y020795D01*
X006894Y020986D02*
X006894Y021193D01*
X006790Y021280D02*
X006894Y021384D01*
X006790Y021487D01*
X006584Y021487D01*
X006584Y021280D02*
X006790Y021280D01*
X006584Y020795D02*
X006687Y020691D01*
X005144Y020641D02*
X005092Y020693D01*
X005144Y020641D02*
X005144Y020538D01*
X005092Y020486D01*
X004885Y020486D01*
X004834Y020538D01*
X004834Y020641D01*
X004885Y020693D01*
X004834Y020780D02*
X005144Y020780D01*
X005144Y020987D01*
X005092Y020398D02*
X005144Y020346D01*
X005144Y020243D01*
X005092Y020191D01*
X004989Y020243D02*
X004989Y020346D01*
X005040Y020398D01*
X005092Y020398D01*
X004989Y020243D02*
X004937Y020191D01*
X004885Y020191D01*
X004834Y020243D01*
X004834Y020346D01*
X004885Y020398D01*
X004885Y019487D02*
X004834Y019436D01*
X004834Y019280D01*
X005144Y019280D01*
X005144Y019436D01*
X005092Y019487D01*
X004885Y019487D01*
X004834Y019193D02*
X005144Y019193D01*
X004834Y018986D01*
X005144Y018986D01*
X005092Y018898D02*
X004989Y018898D01*
X004989Y018795D01*
X005092Y018898D02*
X005144Y018846D01*
X005144Y018743D01*
X005092Y018691D01*
X004885Y018691D01*
X004834Y018743D01*
X004834Y018846D01*
X004885Y018898D01*
X004885Y018237D02*
X004834Y018186D01*
X004834Y018030D01*
X005144Y018030D01*
X005144Y018186D01*
X005092Y018237D01*
X004885Y018237D01*
X004834Y017943D02*
X005144Y017943D01*
X004834Y017736D01*
X005144Y017736D01*
X005092Y017648D02*
X004989Y017648D01*
X004989Y017545D01*
X005092Y017648D02*
X005144Y017596D01*
X005144Y017493D01*
X005092Y017441D01*
X004885Y017441D01*
X004834Y017493D01*
X004834Y017596D01*
X004885Y017648D01*
X006584Y017737D02*
X006790Y017737D01*
X006894Y017634D01*
X006790Y017530D01*
X006584Y017530D01*
X006584Y017443D02*
X006584Y017236D01*
X006739Y017236D01*
X006687Y017339D01*
X006687Y017391D01*
X006739Y017443D01*
X006842Y017443D01*
X006894Y017391D01*
X006894Y017288D01*
X006842Y017236D01*
D15*
X001269Y016277D03*
X001269Y022113D03*
D16*
X008888Y018390D02*
X008888Y018277D01*
X008945Y018220D01*
X009059Y018334D02*
X009059Y018390D01*
X009115Y018447D01*
X009172Y018447D01*
X009229Y018390D01*
X009229Y018277D01*
X009172Y018220D01*
X009059Y018390D02*
X009002Y018447D01*
X008945Y018447D01*
X008888Y018390D01*
X009870Y017914D02*
X009926Y017970D01*
X010040Y017970D01*
X010097Y017914D01*
X010097Y017857D01*
X010040Y017800D01*
X010097Y017744D01*
X010097Y017687D01*
X010040Y017630D01*
X009926Y017630D01*
X009870Y017687D01*
X009983Y017800D02*
X010040Y017800D01*
X010870Y017914D02*
X010926Y017970D01*
X011040Y017970D01*
X011097Y017914D01*
X011097Y017857D01*
X010870Y017630D01*
X011097Y017630D01*
X011870Y017630D02*
X012097Y017630D01*
X011983Y017630D02*
X011983Y017970D01*
X011870Y017857D01*
X009229Y017447D02*
X009229Y017220D01*
X009002Y017447D01*
X008945Y017447D01*
X008888Y017390D01*
X008888Y017277D01*
X008945Y017220D01*
X009229Y016447D02*
X009229Y016220D01*
X009229Y016334D02*
X008888Y016334D01*
X009002Y016220D01*
M02*
